#N canvas 232 124 514 352 10;
#X declare -stdlib zexy;
#X floatatom 175 55 20 0 0 0 - - -;
#X symbolatom 51 219 65 0 0 0 - - -;
#X obj 57 91 1scomp;
#X symbolatom 51 237 65 0 0 0 - - -;
#X obj 60 116 binlist;
#X obj 165 102 binlist;
#X obj 116 31 loadbang;
#X msg 122 110 symbol;
#X text 239 21 should give 1s compliment of a number;
#X obj 344 85 declare -stdlib zexy;
#X obj 170 142 list2symbol;
#X obj 66 143 list2symbol;
#X connect 0 0 2 0;
#X connect 0 0 5 0;
#X connect 2 0 4 0;
#X connect 4 0 11 0;
#X connect 5 0 10 0;
#X connect 6 0 7 0;
#X connect 7 0 10 1;
#X connect 7 0 11 1;
#X connect 10 0 1 0;
#X connect 11 0 3 0;
