#N canvas 497 293 450 300 10;
#X obj 64 2 inlet;
#X obj 204 16 inlet;
#X obj 55 194 spigot 1;
#X msg 126 152 0;
#X obj 70 234 delay \$1;
#X msg 162 151 1;
#X obj 55 282 outlet;
#X obj 70 215 b;
#X obj 91 46 spigot 0;
#X obj 136 23 == 0;
#X msg 64 71 1;
#X obj 49 94 f;
#X msg 98 71 0;
#X obj 70 255 t b b;
#X obj 49 120 sel 1;
#X obj 49 151 list;
#X obj 96 117 list prepend list;
#X obj 49 173 list trim;
#X obj 98 95 route list symbol;
#X obj 213 117 list prepend symbol;
#X obj 64 25 t a b;
#X obj 301 7 inlet;
#X obj 301 30 b;
#X msg 211 184 stop;
#X connect 0 0 20 0;
#X connect 1 0 4 1;
#X connect 2 0 7 0;
#X connect 2 0 6 0;
#X connect 3 0 2 1;
#X connect 3 0 9 0;
#X connect 4 0 13 0;
#X connect 5 0 2 1;
#X connect 5 0 9 0;
#X connect 7 0 4 0;
#X connect 7 0 3 0;
#X connect 8 0 10 0;
#X connect 9 0 8 1;
#X connect 10 0 11 1;
#X connect 11 0 14 0;
#X connect 12 0 11 1;
#X connect 13 0 11 0;
#X connect 13 1 5 0;
#X connect 14 0 12 0;
#X connect 14 0 15 0;
#X connect 15 0 17 0;
#X connect 16 0 15 1;
#X connect 17 0 2 0;
#X connect 18 0 16 0;
#X connect 18 1 19 0;
#X connect 18 2 15 1;
#X connect 19 0 15 1;
#X connect 20 0 18 0;
#X connect 20 0 2 0;
#X connect 20 1 8 0;
#X connect 21 0 22 0;
#X connect 22 0 23 0;
#X connect 22 0 5 0;
#X connect 22 0 12 0;
#X connect 23 0 4 0;
