#N canvas 180 158 587 477 10;
#X declare -lib zexy;
#X obj 150 39 inlet;
#X obj 312 52 inlet;
#X obj 143 158 list prepend list;
#X obj 144 291 list trim;
#X obj 148 130 route list symbol;
#X obj 188 179 list prepend symbol;
#X obj 141 224 pipe s \$1;
#X msg 62 109 flush;
#X msg 105 104 clear;
#X obj 150 323 outlet;
#X obj 62 78 route flush clear;
#X obj 346 35 declare -lib zexy;
#X obj 141 200 list2symbol;
#X obj 142 270 symbol2list;
#X connect 0 0 10 0;
#X connect 1 0 6 1;
#X connect 2 0 12 0;
#X connect 3 0 9 0;
#X connect 4 0 2 0;
#X connect 4 1 5 0;
#X connect 4 2 12 0;
#X connect 5 0 12 0;
#X connect 6 0 13 0;
#X connect 7 0 6 0;
#X connect 8 0 6 0;
#X connect 10 0 7 0;
#X connect 10 1 8 0;
#X connect 10 2 4 0;
#X connect 12 0 6 0;
#X connect 13 0 3 0;
