#N canvas 180 158 587 477 10;
#X obj 150 39 inlet;
#X obj 312 52 inlet;
#X obj 141 200 l2s;
#X obj 143 158 list prepend list;
#X obj 144 291 list trim;
#X obj 148 130 route list symbol;
#X obj 188 179 list prepend symbol;
#X obj 141 224 pipe s \$1;
#X msg 62 109 flush;
#X msg 105 104 clear;
#X obj 150 323 outlet;
#X obj 62 78 route flush clear;
#X obj 142 270 zexy/symbol2list;
#X connect 0 0 11 0;
#X connect 1 0 7 1;
#X connect 2 0 7 0;
#X connect 3 0 2 0;
#X connect 4 0 10 0;
#X connect 5 0 3 0;
#X connect 5 1 6 0;
#X connect 5 2 2 0;
#X connect 6 0 2 0;
#X connect 7 0 12 0;
#X connect 8 0 7 0;
#X connect 9 0 7 0;
#X connect 11 0 8 0;
#X connect 11 1 9 0;
#X connect 11 2 5 0;
#X connect 12 0 4 0;
