#N canvas 373 173 830 584 10;
#X declare -lib zexy;
#X msg 197 252 1 1 1 1 1 1 1 1 1 1 1 1 1 1 1 1 1 1 1 1 1 1 1 1 1 1 0 1 0 0 1 0;
#X floatatom 218 16 5 0 0 0 - - - 0;
#X obj 227 68 <<;
#X floatatom 257 80 15 0 0 0 - - - 0;
#X msg 224 46 1 \$1;
#X obj 391 79 loadbang;
#X msg 399 114 symbol;
#X obj 190 205 t b l;
#X floatatom 233 140 20 0 0 0 - - - 0;
#X floatatom 175 20 5 0 0 0 - - - 0;
#X obj 184 72 <<;
#X msg 181 50 1 \$1;
#X obj 184 96 * -1;
#X msg 258 110 set \$1;
#X symbolatom 198 325 65 0 0 0 - - - 0;
#X obj 153 426 bin2num;
#X floatatom 150 460 20 0 0 0 - - - 0;
#X text 301 38 takes a list of 0s and 1s and outputs corresponding number;
#X obj 124 177 1scomp;
#X symbolatom 198 343 65 0 0 0 - - - 0;
#X obj 127 202 binlist;
#X obj 193 175 binlist;
#X obj 242 399 list length;
#X floatatom 257 424 5 0 0 0 - - - 0;
#X obj 489 161 declare -lib zexy;
#X obj 117 232 list2symbol;
#X obj 196 289 list2symbol;
#X obj 172 380 symbol2list;
#X obj 199 229 shadylib/show;
#X connect 0 0 26 0;
#X connect 1 0 4 0;
#X connect 2 0 3 0;
#X connect 2 0 21 0;
#X connect 2 0 18 0;
#X connect 3 0 13 0;
#X connect 4 0 2 0;
#X connect 5 0 6 0;
#X connect 6 0 25 1;
#X connect 6 0 26 1;
#X connect 6 0 27 1;
#X connect 7 0 0 0;
#X connect 7 1 28 0;
#X connect 8 0 18 0;
#X connect 8 0 21 0;
#X connect 9 0 11 0;
#X connect 10 0 12 0;
#X connect 11 0 10 0;
#X connect 12 0 3 0;
#X connect 12 0 21 0;
#X connect 12 0 18 0;
#X connect 13 0 8 0;
#X connect 14 0 27 0;
#X connect 15 0 16 0;
#X connect 18 0 20 0;
#X connect 20 0 25 0;
#X connect 21 0 7 0;
#X connect 22 0 23 0;
#X connect 25 0 19 0;
#X connect 26 0 14 0;
#X connect 27 0 15 0;
#X connect 27 0 22 0;
#X connect 28 0 0 0;
