#N canvas 250 145 756 588 10;
#X obj 109 322 makefilename %c;
#X msg 207 319 symbol;
#X obj 51 477 outlet;
#X obj 46 13 inlet;
#X obj 277 115 loadbang;
#X obj 109 342 list append;
#X obj 52 105 sel \$1;
#X obj 88 13 inlet;
#X obj 50 431 list;
#X obj 109 137 sel 32;
#X obj 144 234 list prepend;
#X obj 231 233 list;
#N canvas 773 249 450 300 isnumber 0;
#X obj 159 48 inlet;
#X obj 158 77 inrange 49 57;
#X obj 156 191 outlet;
#X msg 302 139 0;
#X msg 156 113 1;
#X obj 233 107 sel 45 46 48;
#X connect 0 0 1 0;
#X connect 1 0 4 0;
#X connect 1 1 5 0;
#X connect 3 0 2 0;
#X connect 4 0 2 0;
#X connect 5 3 3 0;
#X restore 133 210 pd isnumber;
#X obj 109 235 f;
#X obj 110 277 route 0 1;
#X obj 109 256 list;
#X obj 75 387 symbol;
#X obj 75 408 list prepend;
#X obj 149 384 list;
#X obj 50 453 list trim;
#X msg 108 362 symbol \$2\$1;
#X obj 109 184 t b b;
#X obj 29 128 t b b b;
#X obj 239 300 bytes2float;
#N canvas 897 356 459 365 spacebuffer 0;
#X obj 140 26 inlet;
#X obj 79 304 outlet;
#X obj 196 305 outlet;
#X text 95 4 make sure this is the last space;
#X obj 194 25 inlet;
#X obj 83 153 f;
#X msg 203 94 1;
#X obj 203 74 bang;
#X msg 168 115 0;
#X obj 153 238 - 2;
#X obj 153 260 until;
#X msg 153 280 32;
#X obj 153 217 f;
#X obj 134 194 t b b b;
#X obj 196 46 t f b;
#X obj 83 174 sel 0 1 2;
#X obj 203 115 ekext/cup;
#X connect 0 0 16 0;
#X connect 4 0 14 0;
#X connect 5 0 15 0;
#X connect 6 0 16 0;
#X connect 7 0 6 0;
#X connect 7 0 8 0;
#X connect 8 0 5 1;
#X connect 8 0 12 1;
#X connect 9 0 10 0;
#X connect 10 0 11 0;
#X connect 11 0 2 0;
#X connect 12 0 9 0;
#X connect 13 0 1 0;
#X connect 13 1 12 0;
#X connect 13 2 1 0;
#X connect 14 0 7 0;
#X connect 14 0 2 0;
#X connect 14 1 5 0;
#X connect 15 1 1 0;
#X connect 15 2 1 0;
#X connect 15 3 13 0;
#X connect 16 0 5 1;
#X connect 16 0 12 1;
#X restore 109 161 pd spacebuffer;
#X obj 51 80 list-abs/list-drip;
#X obj 109 299 list-abs/list-drip;
#X connect 0 0 5 0;
#X connect 1 0 5 1;
#X connect 3 0 25 0;
#X connect 4 0 1 0;
#X connect 5 0 20 0;
#X connect 6 0 22 0;
#X connect 6 1 9 0;
#X connect 7 0 6 1;
#X connect 8 0 19 0;
#X connect 9 0 24 0;
#X connect 9 1 24 1;
#X connect 10 0 11 0;
#X connect 10 0 15 1;
#X connect 11 0 10 1;
#X connect 12 0 13 1;
#X connect 13 0 15 0;
#X connect 14 0 26 0;
#X connect 14 1 23 0;
#X connect 15 0 14 0;
#X connect 16 0 17 0;
#X connect 17 0 8 1;
#X connect 17 0 18 0;
#X connect 18 0 17 1;
#X connect 19 0 2 0;
#X connect 20 0 5 1;
#X connect 20 0 16 1;
#X connect 21 0 13 0;
#X connect 21 1 10 1;
#X connect 21 1 1 0;
#X connect 22 0 17 1;
#X connect 22 0 1 0;
#X connect 22 0 10 1;
#X connect 22 1 8 0;
#X connect 22 2 21 0;
#X connect 23 0 17 0;
#X connect 24 0 21 0;
#X connect 24 1 12 0;
#X connect 24 1 10 0;
#X connect 25 0 6 0;
#X connect 26 0 0 0;
#X connect 26 1 16 0;
