#N canvas 672 93 712 670 10;
#X obj 196 3 inlet;
#X obj 253 187 sel 46;
#X obj 199 122 moses 48;
#X obj 202 239 - 48;
#X msg 75 294 0;
#X msg 253 234 1;
#X text 302 23 doesn't work with scientific notation input;
#X obj 165 505 outlet;
#X obj 203 387 +;
#X obj 188 410 f;
#X obj 160 433 +;
#X obj 159 410 f;
#X obj 270 385 +;
#X obj 159 377 t b b;
#X obj 165 152 sel 48;
#X obj 165 174 f;
#X msg 212 149 1;
#X msg 165 215 48;
#X obj 232 384 * 10;
#N canvas 909 320 450 300 switch 0;
#X obj 48 20 inlet;
#X obj 219 29 inlet;
#X obj 78 155 outlet;
#X obj 193 149 outlet;
#X obj 83 103 spigot;
#X obj 188 115 spigot;
#X obj 152 76 -;
#X msg 154 53 1 \$1;
#X connect 0 0 4 0;
#X connect 0 0 5 0;
#X connect 1 0 5 1;
#X connect 1 0 7 0;
#X connect 4 0 2 0;
#X connect 5 0 3 0;
#X connect 6 0 4 1;
#X connect 7 0 6 0;
#X restore 202 260 pd switch;
#X obj 253 281 t f b;
#X msg 299 385 \$1;
#X obj 282 343 pow;
#X msg 281 322 10 \$1;
#X msg 296 280 -1;
#X obj 269 364 *;
#X obj 198 213 moses 58;
#X obj 165 194 sel 1;
#X obj 165 473 spigot;
#X obj 197 26 list trim;
#X obj 198 48 route list float;
#X obj 261 74 sel 48;
#X msg 262 95 0;
#X obj 199 70 t l b l;
#X msg 340 298 \$1;
#X obj 162 453 *;
#X obj 339 318 == 45;
#X obj 339 341 sel 0 1;
#X msg 339 363 1;
#X msg 367 362 -1;
#X obj 294 96 t b f f;
#X obj 282 302 ekext/cupd;
#X obj 89 100 list-abs/list-drip;
#X obj 253 210 iemlib/once;
#X connect 0 0 29 0;
#X connect 1 0 43 0;
#X connect 2 0 1 0;
#X connect 2 1 14 0;
#X connect 3 0 19 0;
#X connect 4 0 11 1;
#X connect 4 0 15 1;
#X connect 4 0 8 1;
#X connect 4 0 19 1;
#X connect 4 0 12 1;
#X connect 4 0 9 1;
#X connect 4 0 28 1;
#X connect 5 0 15 1;
#X connect 5 0 19 1;
#X connect 8 0 9 1;
#X connect 8 0 18 0;
#X connect 9 0 10 1;
#X connect 10 0 35 0;
#X connect 11 0 10 0;
#X connect 12 0 21 0;
#X connect 12 0 11 1;
#X connect 13 0 11 0;
#X connect 13 1 9 0;
#X connect 14 0 15 0;
#X connect 14 1 26 0;
#X connect 15 0 27 0;
#X connect 16 0 15 1;
#X connect 16 0 28 1;
#X connect 17 0 3 0;
#X connect 18 0 8 1;
#X connect 19 0 8 0;
#X connect 19 1 20 0;
#X connect 20 0 25 0;
#X connect 20 1 41 0;
#X connect 21 0 12 1;
#X connect 22 0 25 1;
#X connect 23 0 22 0;
#X connect 24 0 41 1;
#X connect 24 0 41 0;
#X connect 25 0 12 0;
#X connect 26 0 16 0;
#X connect 26 0 3 0;
#X connect 27 0 17 0;
#X connect 28 0 7 0;
#X connect 29 0 30 0;
#X connect 30 0 33 0;
#X connect 30 1 31 0;
#X connect 31 0 32 0;
#X connect 31 1 40 0;
#X connect 32 0 7 0;
#X connect 33 0 42 0;
#X connect 33 1 4 0;
#X connect 33 1 24 0;
#X connect 33 1 43 1;
#X connect 33 2 34 0;
#X connect 34 0 36 0;
#X connect 35 0 28 0;
#X connect 36 0 37 0;
#X connect 37 0 38 0;
#X connect 37 1 39 0;
#X connect 38 0 35 1;
#X connect 39 0 35 1;
#X connect 40 0 13 0;
#X connect 40 1 2 0;
#X connect 40 2 38 0;
#X connect 40 2 4 0;
#X connect 41 0 23 0;
#X connect 42 0 2 0;
#X connect 42 1 13 0;
#X connect 43 0 5 0;
