#N canvas 196 99 666 470 10;
#X obj 216 168 cgmul~;
#X obj 261 168 creb/cmul~;
#X text 58 19 gauss' way of doing complex multiplication. uses 1 less multiplication but more adding;
#X floatatom 378 87 5 0 0 0 - - - 0;
#X floatatom 221 91 5 0 0 0 - - - 0;
#X text 198 360 not sure if it's worth it in an abstraction... speed hasn't been tested;
#X text 69 57 angle / 2pi (0 - 1 is a cycle);
#X text 212 76 radius;
#X obj 197 243 ggee/constant 2pi;
#X obj 196 221 loadbang;
#X obj 158 266 /~ 1;
#X obj 155 286 wrap~;
#X obj 207 196 *~;
#X obj 238 197 *~;
#X obj 223 287 sqrt~;
#X obj 154 242 ggee/atan2~;
#X obj 155 123 shadylib/circle~ 1 1;
#X obj 297 119 shadylib/circle~ 1 1;
#X obj 263 190 shadylib/dbgr~;
#X obj 340 191 shadylib/dbgr~;
#X obj 93 78 shadylib/smoother~;
#X obj 296 48 shadylib/smoother~;
#X obj 53 149 shadylib/dbgr~;
#X obj 133 152 shadylib/dbgr~;
#X obj 133 193 shadylib/dbgr~;
#X obj 68 194 shadylib/dbgr~;
#X obj 154 307 shadylib/dbgr~;
#X obj 225 308 shadylib/dbgr~;
#X obj 410 155 shadylib/dbgr~;
#X obj 486 153 shadylib/dbgr~;
#X connect 0 0 12 0;
#X connect 0 0 12 1;
#X connect 0 0 15 1;
#X connect 0 0 25 0;
#X connect 0 1 13 0;
#X connect 0 1 13 1;
#X connect 0 1 15 0;
#X connect 0 1 24 0;
#X connect 1 0 18 0;
#X connect 1 1 19 0;
#X connect 3 0 17 2;
#X connect 3 0 17 1;
#X connect 4 0 16 2;
#X connect 4 0 16 1;
#X connect 8 0 10 1;
#X connect 9 0 8 0;
#X connect 10 0 11 0;
#X connect 11 0 26 0;
#X connect 12 0 14 0;
#X connect 13 0 14 0;
#X connect 14 0 27 0;
#X connect 15 0 10 0;
#X connect 16 0 1 0;
#X connect 16 0 0 0;
#X connect 16 0 22 0;
#X connect 16 1 1 1;
#X connect 16 1 0 1;
#X connect 16 1 23 0;
#X connect 17 0 1 2;
#X connect 17 0 0 2;
#X connect 17 0 28 0;
#X connect 17 1 1 3;
#X connect 17 1 0 3;
#X connect 17 1 29 0;
#X connect 20 0 16 0;
#X connect 21 0 17 0;
