#N canvas 326 289 951 529 10;
#X obj 341 143 inlet;
#X obj 596 23 initbang;
#X obj 341 316 list prepend;
#X obj 167 225 namecanvas \$0-cyclout;
#X obj 719 351 s \$0-cyclout;
#X msg 773 256 obj 336 346 route 0 1 2 3 4;
#X obj 687 119 f \$1;
#X msg 721 121 0;
#X msg 713 189 add2 \$1;
#X obj 702 141 until;
#X obj 644 127 f \$1;
#X obj 651 189 cup;
#X obj 641 166 until;
#X obj 660 239 + 75;
#X obj 658 214 * 70;
#X obj 424 138 inlet;
#X msg 596 295 obj \$1 458 outlet;
#N canvas 915 442 450 300 objectcount 0;
#X obj 109 47 iemguts/canvasindex;
#X obj 107 21 inlet;
#X obj 207 94 outlet;
#X connect 0 1 2 0;
#X connect 1 0 0 0;
#X restore 764 130 pd objectcount;
#X obj 585 78 f \$1;
#X obj 567 122 cup;
#X obj 579 101 until;
#X obj 595 52 t b b b b b;
#X obj 713 163 cup;
#X obj 570 210 pack f f f;
#X obj 596 189 +;
#X obj 706 222 t b b;
#X obj 709 258 f;
#X msg 534 238 connect \$3 \$1 \$2 0;
#X obj 566 147 t f f;
#X obj 589 169 + 1;
#X obj 341 182 t a b b;
#X obj 423 161 route bang float;
#X msg 773 229 set obj 336 346 route;
#X obj 438 211 + 1;
#X obj 403 183 t b b;
#X msg 707 290 connect 2 0 \$1 0;
#X obj 423 237 f 0;
#X obj 410 283 f 0;
#X obj 424 260 % \$1;
#X connect 0 0 30 0;
#X connect 1 0 21 0;
#X connect 5 0 4 0;
#X connect 6 0 9 0;
#X connect 7 0 11 0;
#X connect 7 0 19 0;
#X connect 7 0 22 0;
#X connect 8 0 5 0;
#X connect 9 0 22 0;
#X connect 10 0 12 0;
#X connect 11 0 14 0;
#X connect 12 0 11 0;
#X connect 13 0 16 0;
#X connect 14 0 13 0;
#X connect 15 0 31 0;
#X connect 16 0 4 0;
#X connect 17 0 26 1;
#X connect 17 0 23 2;
#X connect 17 0 24 1;
#X connect 18 0 20 0;
#X connect 19 0 28 0;
#X connect 20 0 19 0;
#X connect 21 0 18 0;
#X connect 21 1 10 0;
#X connect 21 2 25 0;
#X connect 21 3 6 0;
#X connect 21 4 17 0;
#X connect 21 4 7 0;
#X connect 21 4 32 0;
#X connect 22 0 8 0;
#X connect 23 0 27 0;
#X connect 24 0 23 1;
#X connect 25 0 26 0;
#X connect 25 1 5 0;
#X connect 26 0 35 0;
#X connect 27 0 4 0;
#X connect 28 0 23 0;
#X connect 28 1 29 0;
#X connect 29 0 24 0;
#X connect 30 0 2 0;
#X connect 30 1 37 0;
#X connect 30 2 36 0;
#X connect 31 0 34 0;
#X connect 31 1 36 1;
#X connect 32 0 5 0;
#X connect 33 0 36 1;
#X connect 34 0 37 0;
#X connect 34 1 36 0;
#X connect 35 0 4 0;
#X connect 36 0 38 0;
#X connect 37 0 2 1;
#X connect 37 0 33 0;
#X connect 38 0 37 1;
