#N canvas 412 86 721 750 10;
#X obj 155 11 inlet;
#X msg 406 112;
#X obj 311 5 inlet;
#X msg 496 178 addcomma;
#X obj 104 567 outlet;
#X msg 313 58 set;
#X obj 314 32 bang;
#X msg 406 90 add2 \$1;
#X msg 407 182 add2 \$1;
#X obj 418 17 inlet;
#X msg 469 96 addcomma;
#X msg 173 100;
#X obj 104 538 f;
#X msg 188 489 0;
#X obj 192 147 list;
#X obj 173 122 t a b b;
#X obj 171 259 spigot;
#X text 35 144 already compared;
#X msg 240 126 1;
#X obj 192 215 moses 1;
#X msg 226 239 1;
#X msg 172 313;
#X obj 170 285 t b a;
#X obj 411 211 s \$0-tolists;
#X obj 180 67 r \$0-tolists;
#X obj 156 36 t b b b b;
#X msg 372 161 set;
#X obj 192 192 !=;
#X obj 210 288 r \$0-tolists;
#X msg 249 389 1;
#X obj 246 199 list prepend;
#X obj 172 385 sel 1;
#X obj 194 441 f;
#X msg 162 476 1;
#X obj 338 201 list;
#X obj 415 44 t a b;
#X obj 172 338 t a b;
#X obj 406 135 t a b;
#X obj 192 168 list-abs/list-drip;
#X obj 407 159 list-abs/list-drip;
#X obj 406 68 list-abs/list-drip;
#X obj 172 361 list-abs/list-compare;
#X obj 240 148 ekext/cup;
#X obj 125 513 ekext/cup;
#X obj 212 413 ekext/cup;
#X connect 0 0 25 0;
#X connect 1 0 37 0;
#X connect 2 0 6 0;
#X connect 3 0 23 0;
#X connect 5 0 1 0;
#X connect 6 0 5 0;
#X connect 7 0 1 0;
#X connect 8 0 23 0;
#X connect 9 0 35 0;
#X connect 10 0 1 0;
#X connect 11 0 15 0;
#X connect 12 0 4 0;
#X connect 13 0 12 1;
#X connect 14 0 30 1;
#X connect 14 0 38 0;
#X connect 15 0 16 0;
#X connect 15 1 14 0;
#X connect 15 2 20 0;
#X connect 15 2 42 0;
#X connect 16 0 22 0;
#X connect 18 0 42 0;
#X connect 19 0 16 1;
#X connect 20 0 16 1;
#X connect 21 0 36 0;
#X connect 22 0 21 0;
#X connect 22 0 43 0;
#X connect 22 1 29 0;
#X connect 22 1 41 1;
#X connect 24 0 11 0;
#X connect 25 0 12 0;
#X connect 25 1 11 0;
#X connect 25 2 1 0;
#X connect 25 2 18 0;
#X connect 25 2 14 1;
#X connect 25 3 26 0;
#X connect 25 3 33 0;
#X connect 25 3 13 0;
#X connect 25 3 30 1;
#X connect 26 0 23 0;
#X connect 27 0 19 0;
#X connect 28 0 21 0;
#X connect 29 0 44 0;
#X connect 30 0 14 1;
#X connect 30 0 34 0;
#X connect 31 0 32 0;
#X connect 32 0 30 0;
#X connect 33 0 43 0;
#X connect 34 0 30 1;
#X connect 35 0 40 0;
#X connect 35 1 10 0;
#X connect 36 0 41 0;
#X connect 36 1 44 0;
#X connect 37 0 39 0;
#X connect 37 1 3 0;
#X connect 38 0 27 0;
#X connect 39 0 8 0;
#X connect 40 0 7 0;
#X connect 41 0 31 0;
#X connect 42 0 27 1;
#X connect 43 0 12 1;
#X connect 44 0 32 1;
