#N canvas 402 23 1020 845 10;
#X obj 145 -17 inlet;
#X obj 748 262 f;
#X text 204 -6 float/symbol dictionary;
#X obj 728 214 select symbol;
#X obj 764 237 + 1;
#X obj 766 96 list length;
#X obj 737 304 list prepend;
#X obj 767 117 == 1;
#X obj 803 177 symbol;
#X msg 819 211 0;
#X obj 731 166 list;
#X obj 755 144 r \$0-symbollist;
#X obj 739 72 t b a;
#X obj 542 39 route float list;
#X obj 542 17 list trim;
#X obj 737 327 route 0 1;
#X obj 693 349 sel 0;
#X obj 722 401 symbol;
#X msg 723 431 \$1 already exists: overwriting;
#X obj 724 375 t b f;
#X obj 721 498 list;
#X obj 747 474 r \$0-numberlist;
#X obj 721 522 list split;
#X obj 822 332 r \$0-numberlist;
#X obj 773 389 list;
#X obj 771 366 t b f;
#X obj 294 685 outlet;
#X obj 601 517 list;
#X obj 621 497 r \$0-symbollist;
#X obj 601 542 list append;
#X obj 607 416 list;
#X obj 607 439 list append;
#X obj 628 396 r \$0-numberlist;
#X obj 810 385 - 1;
#X obj 778 496 - 1;
#X obj 750 574 list split 1;
#X obj 785 602 list prepend;
#X obj 727 626 list append;
#X obj 724 650 s \$0-numberlist;
#X obj 607 463 s \$0-numberlist;
#X obj 601 565 s \$0-symbollist;
#X text 721 48 symbol is first element:;
#X obj 726 452 print fsdict;
#X obj 552 178 f;
#X obj 570 162 + 1;
#X msg 620 145 0;
#X obj 542 104 list;
#X obj 563 82 r \$0-numberlist;
#X obj 534 148 sel;
#X obj 566 263 sel 0;
#X obj 570 330 list;
#X obj 570 307 t b f;
#X obj 599 329 - 1;
#X obj 770 347 sel 0;
#X msg 843 379 no value for that symbol;
#X msg 564 283 no value for that number;
#X obj 856 218 list;
#X obj 694 329 t f b;
#X obj 765 548 route bang;
#X obj 141 19 route dump rem clear;
#X obj 386 80 s \$0-symbollist;
#X obj 393 105 s \$0-numberlist;
#X obj 386 59 bang;
#X obj 595 58 t b l;
#X msg 665 147 0;
#X obj 539 220 list prepend;
#X obj 539 242 route 1 0;
#X obj 606 304 r \$0-symbollist;
#X msg 667 110 1;
#X obj 542 60 t b f;
#X obj 526 267 t f b;
#X obj 526 289 sel 0;
#X obj 668 186 list;
#X obj 521 314 t b f;
#X obj 521 336 f;
#X msg 638 105 \$1;
#X obj 490 416 list split;
#X obj 492 394 list;
#X obj 545 395 - 1;
#X obj 485 478 list split 1;
#X obj 520 506 list prepend;
#X obj 462 530 list append;
#X obj 500 452 route bang;
#X obj 459 554 s \$0-symbollist;
#X obj 556 699 outlet;
#X obj 401 303 f;
#X obj 388 267 select symbol;
#X obj 426 292 + 1;
#X obj 465 232 symbol;
#X msg 483 271 0;
#X obj 393 221 list;
#X obj 417 199 r \$0-symbollist;
#X obj 401 173 t b a;
#X obj 270 287 f;
#X obj 306 256 + 1;
#X msg 338 259 0;
#X obj 270 210 list;
#X obj 291 188 r \$0-numberlist;
#X obj 267 262 sel;
#X obj 270 166 t b f;
#X obj 270 145 route float;
#X obj 393 349 t b f;
#X obj 401 483 bang;
#X obj 537 128 list-dripdex;
#X obj 388 245 list-dripdex;
#X obj 163 438 list;
#X obj 202 402 r \$0-numberlist;
#X obj 243 438 r \$0-symbollist;
#X obj 182 525 pack f s;
#X obj 442 702 outlet;
#X obj 737 282 f;
#X obj 535 201 f;
#X obj 387 325 f;
#X obj 277 321 f;
#X obj 521 374 r \$0-symbollist;
#X msg 144 512 1;
#X msg 137 483 0;
#X obj 113 528 f;
#X obj 118 556 sel 0;
#X msg 121 581 empty;
#X obj 147 408 t b b;
#X obj 198 457 list;
#X obj 656 226 list-abs/list-nth 1;
#X obj 858 266 list-abs/list-nth 1;
#X obj 570 351 list-abs/list-nth;
#X obj 774 410 list-abs/list-nth;
#X obj 163 483 list-abs/list-drip2;
#X obj 265 234 shadylib/list-dripdex;
#X obj 726 190 shadylib/list-dripdex;
#X connect 0 0 59 0;
#X connect 1 0 110 1;
#X connect 3 0 1 0;
#X connect 4 0 1 1;
#X connect 5 0 7 0;
#X connect 6 0 15 0;
#X connect 7 0 6 1;
#X connect 8 0 3 1;
#X connect 8 0 29 1;
#X connect 8 0 17 1;
#X connect 9 0 110 1;
#X connect 10 0 128 0;
#X connect 11 0 10 1;
#X connect 12 0 10 0;
#X connect 12 1 5 0;
#X connect 12 1 8 0;
#X connect 12 1 9 0;
#X connect 12 1 56 1;
#X connect 13 0 69 0;
#X connect 13 1 63 0;
#X connect 13 2 12 0;
#X connect 14 0 13 0;
#X connect 15 0 57 0;
#X connect 15 1 53 0;
#X connect 16 0 27 0;
#X connect 16 0 30 0;
#X connect 16 1 19 0;
#X connect 17 0 18 0;
#X connect 18 0 42 0;
#X connect 19 0 17 0;
#X connect 19 0 20 0;
#X connect 19 1 34 0;
#X connect 20 0 22 0;
#X connect 21 0 20 1;
#X connect 22 0 37 0;
#X connect 22 1 58 0;
#X connect 23 0 24 1;
#X connect 24 0 125 0;
#X connect 25 0 24 0;
#X connect 25 1 33 0;
#X connect 27 0 29 0;
#X connect 28 0 27 1;
#X connect 29 0 40 0;
#X connect 30 0 31 0;
#X connect 31 0 39 0;
#X connect 32 0 30 1;
#X connect 33 0 125 1;
#X connect 34 0 22 1;
#X connect 35 1 36 0;
#X connect 36 0 37 1;
#X connect 37 0 38 0;
#X connect 43 0 111 1;
#X connect 44 0 43 1;
#X connect 45 0 111 1;
#X connect 46 0 103 0;
#X connect 47 0 46 1;
#X connect 48 0 43 0;
#X connect 49 0 55 0;
#X connect 49 1 51 0;
#X connect 50 0 124 0;
#X connect 51 0 50 0;
#X connect 51 1 52 0;
#X connect 52 0 124 1;
#X connect 53 0 54 0;
#X connect 53 1 25 0;
#X connect 54 0 42 0;
#X connect 55 0 42 0;
#X connect 56 0 123 0;
#X connect 57 0 16 0;
#X connect 57 1 56 0;
#X connect 58 0 36 0;
#X connect 58 1 35 0;
#X connect 59 0 120 0;
#X connect 59 1 100 0;
#X connect 59 2 62 0;
#X connect 59 3 14 0;
#X connect 62 0 60 0;
#X connect 62 0 61 0;
#X connect 63 0 46 0;
#X connect 63 1 68 0;
#X connect 63 1 45 0;
#X connect 63 1 72 1;
#X connect 63 1 75 0;
#X connect 64 0 65 1;
#X connect 65 0 66 0;
#X connect 66 0 70 0;
#X connect 66 1 49 0;
#X connect 67 0 50 1;
#X connect 68 0 65 1;
#X connect 69 0 46 0;
#X connect 69 1 45 0;
#X connect 69 1 64 0;
#X connect 69 1 48 1;
#X connect 70 0 71 0;
#X connect 70 1 72 0;
#X connect 71 0 30 0;
#X connect 71 0 27 0;
#X connect 71 1 73 0;
#X connect 72 0 122 0;
#X connect 73 0 74 0;
#X connect 73 0 77 0;
#X connect 73 1 78 0;
#X connect 74 0 18 0;
#X connect 75 0 74 1;
#X connect 75 0 31 1;
#X connect 75 0 48 1;
#X connect 76 0 81 0;
#X connect 76 1 82 0;
#X connect 77 0 76 0;
#X connect 78 0 76 1;
#X connect 79 1 80 0;
#X connect 80 0 81 1;
#X connect 81 0 83 0;
#X connect 82 0 80 0;
#X connect 82 1 79 0;
#X connect 85 0 112 1;
#X connect 86 0 85 0;
#X connect 87 0 85 1;
#X connect 88 0 86 1;
#X connect 89 0 112 1;
#X connect 90 0 104 0;
#X connect 91 0 90 1;
#X connect 92 0 90 0;
#X connect 92 1 88 0;
#X connect 92 1 89 0;
#X connect 93 0 113 1;
#X connect 94 0 93 1;
#X connect 95 0 113 1;
#X connect 96 0 127 0;
#X connect 97 0 96 1;
#X connect 98 0 93 0;
#X connect 99 0 96 0;
#X connect 99 1 95 0;
#X connect 99 1 98 1;
#X connect 100 0 99 0;
#X connect 100 1 92 0;
#X connect 101 0 77 0;
#X connect 101 0 20 0;
#X connect 101 1 102 0;
#X connect 101 1 78 0;
#X connect 101 1 34 0;
#X connect 102 0 80 1;
#X connect 102 0 36 1;
#X connect 103 0 48 0;
#X connect 103 1 44 0;
#X connect 103 2 111 0;
#X connect 104 0 86 0;
#X connect 104 1 87 0;
#X connect 104 2 112 0;
#X connect 105 0 126 0;
#X connect 106 0 105 1;
#X connect 107 0 121 1;
#X connect 108 0 84 0;
#X connect 110 0 6 0;
#X connect 111 0 65 0;
#X connect 112 0 101 0;
#X connect 113 0 101 0;
#X connect 114 0 77 1;
#X connect 115 0 117 1;
#X connect 116 0 117 1;
#X connect 117 0 118 0;
#X connect 118 0 119 0;
#X connect 119 0 84 0;
#X connect 120 0 105 0;
#X connect 120 1 116 0;
#X connect 120 1 121 0;
#X connect 121 0 126 1;
#X connect 122 0 29 1;
#X connect 122 0 80 1;
#X connect 123 0 31 1;
#X connect 123 0 36 1;
#X connect 124 0 109 0;
#X connect 125 0 26 0;
#X connect 126 0 108 0;
#X connect 126 0 115 0;
#X connect 126 1 108 1;
#X connect 126 2 117 0;
#X connect 127 0 98 0;
#X connect 127 1 94 0;
#X connect 127 2 113 0;
#X connect 128 0 3 0;
#X connect 128 1 4 0;
#X connect 128 2 110 0;
