#N canvas 585 76 804 515 10;
#X obj 261 245 print;
#X obj 110 172 show;
#X msg 6 321 50 51 32 53 51 50 48 48 48 48 48 32 52 51 96;
#X floatatom 172 276 5 0 0 0 - - -, f 5;
#X floatatom 210 278 7 0 0 0 - - -, f 7;
#X obj 332 215 unpack s f;
#X msg 334 129 list cat 45;
#X symbolatom 326 245 10 0 0 0 - - -, f 10;
#X floatatom 393 243 5 0 0 0 - - -, f 5;
#X msg 173 121 4.09 4000.9 5e+07;
#X obj 171 255 unpack f f f;
#X floatatom 257 276 5 0 0 0 - - -, f 5;
#X msg 172 96 list 23 5.32e+07 43;
#X text 35 55 slow but it gets the job done. delimiter is 1st arg/2nd
inlet. spaces between elements are converted to 32s;
#X obj 470 248 sel 0;
#X msg 447 51 list a list;
#X msg 448 20 list this is;
#X msg 442 77 list that we can put in seperately;
#X text 435 16 1;
#X text 435 51 2;
#X text 430 77 3;
#X obj 462 155 list2bytes;
#X text 536 161 delimiters default to 0;
#X obj 534 300 bytes2any;
#X obj 536 366 print;
#X msg 577 41 0;
#X obj 500 102 t l b;
#X obj 462 183 list append;
#X msg 519 129 32;
#X obj 448 121 t l b;
#X text 566 22 hit delimiter;
#X text 548 129 add space after 1st 2;
#X obj 548 242 makefilename %c;
#X floatatom 542 221 5 0 123 0 - - -, f 5;
#X symbolatom 551 271 10 0 0 0 - - -, f 10;
#X text 458 271 no Ss;
#X obj 495 271 sel 115;
#X msg 363 87 list bob 40.3;
#X obj 403 328 unpack s s;
#X symbolatom 461 347 10 0 0 0 - - -, f 10;
#X symbolatom 404 365 10 0 0 0 - - -, f 10;
#X obj 589 356 unpack s s;
#X symbolatom 647 375 10 0 0 0 - - -, f 10;
#X symbolatom 590 393 10 0 0 0 - - -, f 10;
#X obj 229 153 list2bytes 96;
#X obj 331 154 list2bytes 96;
#X obj 209 206 bytes2any 128 96;
#X obj 325 181 bytes2any 128 96;
#X obj 468 212 list-abs/list-drip;
#X obj 535 323 zexy/list2symbol;
#X connect 1 0 2 0;
#X connect 5 0 7 0;
#X connect 5 1 8 0;
#X connect 6 0 45 0;
#X connect 9 0 44 0;
#X connect 10 0 3 0;
#X connect 10 1 4 0;
#X connect 10 2 11 0;
#X connect 12 0 44 0;
#X connect 14 1 36 0;
#X connect 15 0 26 0;
#X connect 16 0 26 0;
#X connect 17 0 29 0;
#X connect 21 0 27 0;
#X connect 23 0 38 0;
#X connect 23 0 49 0;
#X connect 25 0 23 0;
#X connect 26 0 21 0;
#X connect 26 1 28 0;
#X connect 27 0 1 0;
#X connect 27 0 48 0;
#X connect 28 0 27 1;
#X connect 29 0 21 0;
#X connect 29 1 27 1;
#X connect 32 0 34 0;
#X connect 33 0 32 0;
#X connect 33 0 36 1;
#X connect 36 1 23 0;
#X connect 37 0 45 0;
#X connect 38 0 40 0;
#X connect 38 1 39 0;
#X connect 41 0 43 0;
#X connect 41 1 42 0;
#X connect 44 0 1 0;
#X connect 44 0 46 0;
#X connect 45 0 1 0;
#X connect 45 0 47 0;
#X connect 46 0 10 0;
#X connect 46 0 0 0;
#X connect 47 0 5 0;
#X connect 48 0 14 0;
#X connect 49 0 24 0;
#X connect 49 0 41 0;
