#N canvas 144 22 887 806 10;
#X obj 126 15 inlet;
#X obj 126 88 route symbol float;
#X obj -34 536 list prepend;
#X obj -35 507 f \$1;
#X obj 185 15 inlet;
#X obj 134 319 sel symbol;
#X obj 246 289 makefilename;
#X msg 247 267 set %.\$1s;
#X obj 34 308 sel symbol;
#X obj 138 143 s \$0-s;
#X obj 91 286 r \$0-s;
#X obj 62 239 symbol;
#X obj 95 218 r \$0-i;
#X obj 96 139 b;
#X obj 121 165 symbol;
#X obj 138 266 makefilename;
#X obj 121 195 t b b s b;
#X msg 166 171 set %s;
#X msg 245 222 1;
#N canvas 943 473 450 300 testchar 1;
#X obj 91 197 makefilename %c;
#X obj 94 126 until;
#X obj 98 57 t b b;
#X msg 138 122 0;
#X msg 91 103 127;
#X obj 93 25 inlet;
#X obj 212 30 inlet;
#X obj 92 254 outlet;
#X obj 95 172 t f f;
#X obj 148 252 outlet;
#X obj 94 152 ekext/cup;
#X connect 0 0 7 0;
#X connect 1 0 10 0;
#X connect 2 0 4 0;
#X connect 2 1 3 0;
#X connect 3 0 10 0;
#X connect 4 0 1 0;
#X connect 5 0 2 0;
#X connect 6 0 1 1;
#X connect 8 0 0 0;
#X connect 8 1 9 0;
#X connect 10 0 8 0;
#X restore 138 216 pd testchar;
#X msg 184 240 set \$1%s;
#X obj 176 341 symbol;
#X obj 137 294 t s s;
#X obj 121 113 t s s b;
#X obj 247 311 s \$0-i;
#X obj 157 382 list;
#X obj 84 403 list prepend;
#X msg 84 378 32;
#X obj 134 360 f;
#X obj 35 513 list split;
#X obj 92 471 list length;
#X obj 65 450 t l l;
#X obj 92 491 - 1;
#X obj 36 406 t b b;
#X obj 63 428 list;
#X obj 507 143 < 0;
#X obj 507 163 sel 1;
#X msg 507 185 45;
#X obj 336 154 abs;
#X obj 477 188 int;
#X obj 335 176 t f f;
#X obj 336 134 t f f;
#X obj 478 234 log;
#X msg 422 201 10;
#X obj 422 223 log;
#X obj 478 258 /;
#X obj 418 49 loadbang;
#X obj 477 279 int;
#X obj 477 343 until;
#X obj 478 211 t f f;
#X obj 477 323 + 1;
#X obj 477 392 f;
#X obj 477 445 /;
#X obj 477 363 t b b;
#X msg 410 331 1;
#X obj 477 302 t f f;
#X obj 478 466 int;
#X obj 126 38 t l b;
#X obj 478 487 % 10;
#X obj 478 510 + 48;
#X msg 262 408 32;
#X msg 262 358 46;
#N canvas 1060 372 450 300 0stack 0;
#X obj 121 63 sel 0;
#X obj 121 28 inlet;
#X obj 151 215 outlet;
#X obj 204 29 inlet;
#X msg 122 123 0;
#X obj 147 94 t f b;
#X msg 204 56 set;
#X msg 94 90 add2 0;
#X obj 122 151 list-abs/list-drip;
#X connect 0 0 7 0;
#X connect 0 1 5 0;
#X connect 1 0 0 0;
#X connect 3 0 6 0;
#X connect 4 0 8 0;
#X connect 5 0 2 0;
#X connect 5 1 4 0;
#X connect 6 0 4 0;
#X connect 7 0 4 0;
#X connect 8 0 2 0;
#X restore 330 737 pd 0stack;
#X obj 363 203 log;
#X obj 363 227 /;
#X obj 336 356 *;
#X obj 335 377 %;
#X obj 331 403 sel 0;
#X obj 372 450 log;
#X obj 367 472 /;
#X obj 370 493 int;
#X obj 396 493 - 1;
#X obj 373 561 -;
#X obj 373 583 until;
#X msg 376 605 48;
#X obj 329 546 f;
#X obj 330 570 until;
#X obj 345 521 + 1;
#X obj 313 426 t b b f f;
#X obj 329 671 /;
#X obj 328 691 int;
#X obj 329 712 % 10;
#X obj -32 556 outlet;
#X obj 329 647 swap;
#X obj 330 626 expr pow(10 \, $f1);
#X obj 363 253 expr 5 - int($f1);
#X obj 355 286 expr pow(10 \, $f1);
#X obj 498 411 expr pow(10 \, $f1);
#X obj 376 521 swap;
#X obj 246 245 ekext/cup;
#X obj 504 383 ekext/cupd;
#X obj 126 59 list-abs/list-drip;
#X obj 331 593 ekext/cupd;
#X connect 0 0 57 0;
#X connect 1 0 23 0;
#X connect 1 1 41 0;
#X connect 2 0 82 0;
#X connect 3 0 2 0;
#X connect 4 0 3 1;
#X connect 5 0 19 1;
#X connect 5 0 21 0;
#X connect 5 0 28 0;
#X connect 6 0 5 1;
#X connect 6 0 24 0;
#X connect 7 0 6 0;
#X connect 8 0 27 0;
#X connect 8 1 13 0;
#X connect 10 0 8 1;
#X connect 11 0 8 0;
#X connect 12 0 11 1;
#X connect 13 0 14 0;
#X connect 14 0 16 0;
#X connect 15 0 22 0;
#X connect 16 0 11 0;
#X connect 16 1 19 0;
#X connect 16 2 6 0;
#X connect 16 3 89 0;
#X connect 17 0 15 0;
#X connect 18 0 89 0;
#X connect 19 0 15 0;
#X connect 19 1 28 1;
#X connect 20 0 15 0;
#X connect 21 0 20 0;
#X connect 22 0 5 0;
#X connect 22 1 21 1;
#X connect 23 0 14 0;
#X connect 23 1 9 0;
#X connect 23 2 17 0;
#X connect 23 2 18 0;
#X connect 25 0 26 1;
#X connect 26 0 25 0;
#X connect 26 0 34 1;
#X connect 27 0 26 0;
#X connect 28 0 26 0;
#X connect 29 0 2 1;
#X connect 30 0 32 0;
#X connect 31 0 29 0;
#X connect 31 1 30 0;
#X connect 32 0 29 1;
#X connect 33 0 3 0;
#X connect 33 1 34 0;
#X connect 34 0 31 0;
#X connect 35 0 36 0;
#X connect 36 0 37 0;
#X connect 37 0 26 0;
#X connect 38 0 40 0;
#X connect 39 0 49 0;
#X connect 40 0 65 0;
#X connect 40 1 39 0;
#X connect 40 1 63 0;
#X connect 41 0 38 0;
#X connect 41 1 35 0;
#X connect 42 0 45 0;
#X connect 43 0 44 0;
#X connect 44 0 45 1;
#X connect 44 0 64 1;
#X connect 44 0 69 1;
#X connect 45 0 47 0;
#X connect 46 0 43 0;
#X connect 46 0 54 0;
#X connect 47 0 55 0;
#X connect 48 0 53 0;
#X connect 49 0 42 0;
#X connect 49 1 51 1;
#X connect 50 0 48 0;
#X connect 51 0 52 0;
#X connect 52 0 56 0;
#X connect 53 0 51 0;
#X connect 53 1 90 0;
#X connect 54 0 90 1;
#X connect 54 0 92 1;
#X connect 55 0 50 0;
#X connect 55 1 90 0;
#X connect 56 0 58 0;
#X connect 57 0 91 0;
#X connect 57 1 26 1;
#X connect 58 0 59 0;
#X connect 59 0 26 0;
#X connect 60 0 26 0;
#X connect 61 0 26 0;
#X connect 62 0 59 0;
#X connect 63 0 64 0;
#X connect 64 0 85 0;
#X connect 65 0 66 0;
#X connect 66 0 67 0;
#X connect 67 0 60 0;
#X connect 67 1 78 0;
#X connect 68 0 69 0;
#X connect 69 0 70 0;
#X connect 70 0 77 0;
#X connect 70 0 88 0;
#X connect 70 0 92 0;
#X connect 71 0 88 1;
#X connect 72 0 73 0;
#X connect 73 0 74 0;
#X connect 74 0 26 0;
#X connect 75 0 76 0;
#X connect 76 0 92 0;
#X connect 77 0 75 1;
#X connect 78 0 60 0;
#X connect 78 1 75 0;
#X connect 78 2 68 0;
#X connect 78 2 83 1;
#X connect 78 3 62 1;
#X connect 78 3 61 0;
#X connect 79 0 80 0;
#X connect 80 0 81 0;
#X connect 81 0 62 0;
#X connect 83 0 79 0;
#X connect 83 1 79 1;
#X connect 84 0 83 0;
#X connect 85 0 86 0;
#X connect 85 0 71 0;
#X connect 86 0 65 1;
#X connect 86 0 66 1;
#X connect 87 0 52 1;
#X connect 88 0 72 0;
#X connect 88 1 72 1;
#X connect 89 0 7 0;
#X connect 90 0 87 0;
#X connect 91 0 1 0;
#X connect 91 1 33 0;
#X connect 92 0 84 0;
