#N canvas 0 22 450 300 10;
#X text 64 -80 same as modtriangulator~ but with phasor~ inlet instead
of built in to the patch (for phase syncing);
#X obj 95 -2 smoother~;
#X obj 173 -1 smoother~;
#X obj 270 10 smoother~;
#X msg 101 -27 131;
#X obj 258 -45 banger;
#X obj 98 47 phasor~;
#X obj 116 131 outputc~;
#X obj 151 64 modtriangulatord~;
#X msg 277 -15 1;
#X msg 224 -21 0;
#X connect 1 0 6 0;
#X connect 2 0 8 1;
#X connect 3 0 8 2;
#X connect 4 0 1 0;
#X connect 5 0 10 0;
#X connect 5 0 4 0;
#X connect 5 0 9 0;
#X connect 6 0 8 0;
#X connect 8 0 7 0;
#X connect 8 0 7 1;
#X connect 9 0 3 0;
#X connect 10 0 2 0;
