#N canvas 557 45 821 642 10;
#X declare -lib zexy;
#X text 245 538 GNU GPL v3;
#X text 14 116 pds2l;
#X msg 45 202 dows this work?;
#X msg 178 201 symbol;
#X text 37 155 takes symbols;
#X obj 144 284 unpack s s s s s s s;
#X symbolatom 138 305 10 0 0 0 - - -;
#X symbolatom 166 329 10 0 0 0 - - -;
#X symbolatom 191 352 10 0 0 0 - - -;
#X symbolatom 211 375 10 0 0 0 - - -;
#X symbolatom 223 306 10 0 0 0 - - -;
#X symbolatom 245 324 20 0 0 0 - - -;
#X symbolatom 270 348 10 0 0 0 - - -;
#X msg 196 224 -;
#X msg 65 177 heres-one-with-a-different-delimiter cats;
#X obj 129 397 list length;
#X floatatom 128 418 5 0 0 0 - - -;
#X text 223 200 split into characters;
#X msg 208 137 111111;
#X text 252 137 unlike zexy/s2l \, this will output symbols (not floats)
;
#X text 180 255 right inlet/ 1st arg sets delimiter \, defaults to
space;
#X msg 348 94 cat 542;
#X obj 364 116 t a b;
#X text 367 183 can convert to a symbol first -->;
#X text 427 160 do something like this instead if you need it:;
#X obj 567 245 list2bytes;
#X obj 571 267 bytes2any;
#X obj 573 298 print;
#X msg 688 198 symbol;
#X msg 124 150 symbol cats;
#X obj 53 236 t s s;
#X msg 95 124 a b c;
#X obj 568 219 pds2l;
#X msg 401 89 542 cat;
#X text 392 205 cast with list2bytes after:;
#X obj 611 293 list length;
#X floatatom 613 319 5 0 0 0 - - -;
#X msg 639 221 symbol -;
#X msg 692 168 a;
#X obj 638 138 makefilename %g;
#X floatatom 641 118 5 0 0 0 - - -;
#X obj 142 252 pds2l;
#X obj 541 48 declare -lib zexy;
#X obj 21 273 list2symbol;
#X obj 569 185 list2symbol;
#X connect 2 0 43 0;
#X connect 3 0 41 1;
#X connect 5 0 6 0;
#X connect 5 1 7 0;
#X connect 5 2 8 0;
#X connect 5 3 9 0;
#X connect 5 4 10 0;
#X connect 5 5 11 0;
#X connect 5 6 12 0;
#X connect 13 0 41 1;
#X connect 14 0 43 0;
#X connect 15 0 16 0;
#X connect 18 0 22 0;
#X connect 18 0 43 0;
#X connect 21 0 22 0;
#X connect 22 0 44 0;
#X connect 25 0 26 0;
#X connect 26 0 27 0;
#X connect 26 0 35 0;
#X connect 28 0 32 1;
#X connect 29 0 30 0;
#X connect 30 1 43 0;
#X connect 31 0 43 0;
#X connect 32 0 25 0;
#X connect 33 0 22 0;
#X connect 35 0 36 0;
#X connect 37 0 32 1;
#X connect 38 0 32 1;
#X connect 39 0 32 1;
#X connect 40 0 39 0;
#X connect 41 0 5 0;
#X connect 41 0 15 0;
#X connect 43 0 41 0;
#X connect 44 0 32 0;
