#N canvas 0 22 592 326 10;
#X obj 453 166 loadbang;
#X symbolatom 103 102 65 0 0 0 - #0-selected #0-nothing, f 65;
#X obj 232 288 s \$0-selected;
#X obj 234 233 iemguts/canvasselect 1;
#X obj 237 209 metro 100;
#X obj 232 263 zexy/list2symbol;
#X connect 0 0 4 0;
#X connect 3 0 5 0;
#X connect 4 0 3 0;
#X connect 5 0 2 0;
#X coords 0 -1 1 1 400 20 2 100 100;
