#N canvas 606 22 735 790 10;
#X obj 104 28 t b b f;
#X obj 123 58 list;
#X obj 123 155 ==;
#X obj 136 219 f;
#X msg 180 171 0;
#X obj 123 176 moses 1;
#X obj 123 127 t f b;
#X obj 138 250 sel 1 0;
#X obj 170 225 f;
#X obj 162 199 bang;
#X obj 61 498 mod;
#X obj 61 585 list split;
#X obj 61 520 t b f;
#X obj 61 541 list;
#X obj 34 475 sel 0;
#X obj 123 79 t l l;
#X obj 256 345 f;
#X msg 305 282 0;
#X obj 290 302 f;
#X obj 290 326 spigot;
#X msg 321 307 1;
#X obj 256 280 t b b b;
#X msg 353 304 0;
#X obj 34 404 f;
#X obj 34 288 t b b b;
#X obj 75 358 sel;
#X obj 183 289 list length;
#X msg 78 385 0;
#X obj 34 430 swap;
#X obj 34 451 -;
#X obj 171 614 list length;
#X obj 74 311 f;
#X obj 75 335 t f f;
#X obj 59 407 f;
#X obj 85 636 + 1;
#X obj 338 366 + 1;
#X obj 98 -6 inlet;
#X obj 483 11 inlet;
#X obj 330 9 bang;
#X obj 177 653 outlet;
#X obj 56 664 s \$0-toleft;
#X obj 61 697 s \$0-toright;
#X msg 53 637 1;
#X obj 64 611 s \$0-tolist;
#X obj 182 29 r \$0-tolist;
#X obj 258 396 s \$0-tolist;
#X obj 343 250 r \$0-toright;
#X obj 335 389 s \$0-toleft;
#X obj 108 286 r \$0-toleft;
#X obj 193 199 ekext/cup;
#X obj 123 106 list-abs/list-drip;
#X obj 256 369 list-abs/list-insert;
#X obj 61 562 list-abs/list-rot;
#X obj 288 346 ekext/cup;
#X connect 0 0 3 0;
#X connect 0 1 1 0;
#X connect 0 2 2 1;
#X connect 0 2 4 0;
#X connect 0 2 16 1;
#X connect 1 0 15 0;
#X connect 2 0 5 0;
#X connect 3 0 7 0;
#X connect 4 0 3 1;
#X connect 4 0 49 0;
#X connect 5 1 3 1;
#X connect 5 1 9 0;
#X connect 6 0 2 0;
#X connect 6 1 49 0;
#X connect 7 0 20 0;
#X connect 7 0 24 0;
#X connect 7 1 21 0;
#X connect 8 0 23 1;
#X connect 8 0 52 1;
#X connect 9 0 8 0;
#X connect 10 0 12 0;
#X connect 11 0 30 0;
#X connect 11 0 43 0;
#X connect 11 0 42 0;
#X connect 12 0 13 0;
#X connect 12 1 11 1;
#X connect 13 0 52 0;
#X connect 14 1 10 0;
#X connect 15 0 50 0;
#X connect 15 1 13 1;
#X connect 15 1 26 0;
#X connect 15 1 51 2;
#X connect 16 0 51 0;
#X connect 17 0 18 1;
#X connect 18 0 19 0;
#X connect 19 0 53 0;
#X connect 20 0 19 1;
#X connect 21 0 16 0;
#X connect 21 1 22 0;
#X connect 21 1 53 0;
#X connect 21 2 18 0;
#X connect 22 0 19 1;
#X connect 23 0 28 0;
#X connect 24 0 23 0;
#X connect 24 1 33 0;
#X connect 24 2 31 0;
#X connect 25 0 27 0;
#X connect 26 0 25 1;
#X connect 26 0 10 1;
#X connect 27 0 33 1;
#X connect 28 0 29 0;
#X connect 28 1 29 1;
#X connect 29 0 14 0;
#X connect 30 0 39 0;
#X connect 31 0 32 0;
#X connect 32 0 25 0;
#X connect 32 1 33 1;
#X connect 33 0 28 1;
#X connect 33 0 31 1;
#X connect 33 0 34 0;
#X connect 34 0 40 0;
#X connect 34 0 41 0;
#X connect 35 0 47 0;
#X connect 36 0 0 0;
#X connect 37 0 38 0;
#X connect 38 0 17 0;
#X connect 38 0 20 0;
#X connect 38 0 1 1;
#X connect 42 0 40 0;
#X connect 42 0 41 0;
#X connect 44 0 1 1;
#X connect 46 0 18 1;
#X connect 48 0 31 1;
#X connect 49 0 8 1;
#X connect 50 0 6 0;
#X connect 51 0 30 0;
#X connect 51 0 45 0;
#X connect 52 0 11 0;
#X connect 53 0 35 0;
#X connect 53 0 51 1;
