#N canvas 473 286 645 534 10;
#X obj 286 175 <<;
#X obj 274 100 t l b;
#X obj 286 202 +;
#X msg 315 176 0;
#X obj 276 230 f;
#X obj 304 150 * 8;
#X msg 275 -18 head -c 3 /dev/random;
#X obj 277 52 list split 3;
#X obj 512 -55 inlet;
#X obj 276 296 outlet;
#X obj 273 -66 inlet;
#X obj 274 -42 bang;
#X obj 276 252 mod \$1;
#X obj 314 202 f;
#X obj 275 28 moocow/any2bytes 3 0;
#X obj 275 6 ggee/shell;
#X obj 274 76 list-abs/list-rev;
#X obj 277 127 shadylib/list-dripdex;
#X connect 0 0 2 0;
#X connect 1 0 17 0;
#X connect 1 1 3 0;
#X connect 2 0 4 1;
#X connect 2 0 13 0;
#X connect 3 0 13 0;
#X connect 4 0 12 0;
#X connect 5 0 0 1;
#X connect 6 0 15 0;
#X connect 7 0 16 0;
#X connect 8 0 12 1;
#X connect 10 0 11 0;
#X connect 11 0 6 0;
#X connect 12 0 9 0;
#X connect 13 0 2 1;
#X connect 14 0 7 0;
#X connect 15 0 14 0;
#X connect 16 0 1 0;
#X connect 17 0 0 0;
#X connect 17 1 5 0;
#X connect 17 2 4 0;
