#N canvas 263 22 1193 728 10;
#X obj 179 -105 inlet;
#X obj 702 253 random;
#X obj 210 -57 list;
#X obj 27 117 +;
#X obj 308 179 list;
#X obj 315 134 t b f;
#X obj 308 221 sel;
#X obj 308 200 list-dripdex;
#X obj 413 289 list prepend;
#X obj 377 220 f;
#X obj 377 244 spigot;
#X msg 409 223 1;
#X msg 440 223 0;
#X obj 376 375 list prepend;
#X obj 376 288 f;
#X obj 203 20 list;
#X text 234 17 weights;
#X text 248 -57 numbers;
#X obj 414 311 s \$0-tonumbers;
#X obj 472 267 r \$0-fromnumbers;
#X obj 211 -33 s \$0-fromnumbers;
#X obj 233 -79 r \$0-tonumbers;
#X obj 179 -85 t a b;
#X obj 224 -11 r \$0-toweights;
#X obj 205 45 s \$0-fromweights;
#X obj 446 354 r \$0-fromweights;
#X obj 376 396 s \$0-toweights;
#N canvas 721 228 524 549 add 0;
#X obj 228 37 inlet;
#X obj 47 33 inlet;
#X obj 333 34 inlet;
#X obj 84 90 f;
#X obj 144 111 r \$0-fromweights;
#X obj 85 151 list;
#X obj 85 198 list split;
#X obj 86 122 t b f;
#X obj 115 222 list split 1;
#X obj 143 366 list append;
#X obj 169 173 bang;
#X obj 82 393 list append;
#X obj 82 418 s \$0-toweights;
#X obj 115 257 +;
#X obj 115 300 < 0;
#X obj 115 323 sel 0 1;
#X obj 115 278 t f f;
#X obj 115 345 f;
#X msg 146 345 0;
#X obj 205 421 outlet;
#X obj 214 394 f;
#X obj 278 425 outlet;
#X connect 0 0 3 1;
#X connect 1 0 3 0;
#X connect 2 0 13 1;
#X connect 2 0 20 1;
#X connect 3 0 7 0;
#X connect 4 0 5 1;
#X connect 5 0 6 0;
#X connect 6 0 11 0;
#X connect 6 1 8 0;
#X connect 7 0 5 0;
#X connect 7 1 6 1;
#X connect 7 1 10 0;
#X connect 8 0 13 0;
#X connect 8 1 9 1;
#X connect 9 0 11 1;
#X connect 10 0 9 1;
#X connect 11 0 12 0;
#X connect 13 0 16 0;
#X connect 14 0 15 0;
#X connect 15 0 17 0;
#X connect 15 0 20 0;
#X connect 15 1 18 0;
#X connect 15 1 21 0;
#X connect 16 0 14 0;
#X connect 16 1 17 1;
#X connect 17 0 9 0;
#X connect 18 0 9 0;
#X connect 18 0 19 0;
#X connect 20 0 19 0;
#X restore 308 241 pd add;
#X obj 50 94 -;
#X obj 329 158 r \$0-fromnumbers;
#X obj 699 574 outlet;
#X obj -31 256 t b b;
#X obj -28 312 list;
#X obj -25 359 t f b;
#X obj -6 290 r \$0-fromnumbers;
#X obj -18 426 pack;
#X obj 2 380 list;
#X obj 23 356 r \$0-fromweights;
#X obj 5 402 list split 1;
#X msg 89 79 0;
#X obj 55 140 s \$0-count;
#X obj 696 170 r \$0-count;
#X obj 28 205 bang;
#X obj 29 226 s \$0-tonumbers;
#X obj 14 252 s \$0-toweights;
#X obj 229 182 list-dripdex;
#X obj 228 137 list;
#X msg -94 451 add2 \$1: \$2 \, addcomma;
#X obj 228 116 t b f;
#X obj 229 203 sel;
#N canvas 825 490 450 300 rem 0;
#X obj 95 31 inlet;
#X obj 177 33 inlet;
#X obj 268 199 s \$0-sub;
#X obj 272 24 inlet;
#X obj 95 79 list;
#X obj 95 105 list split;
#X obj 128 130 list split 1;
#X obj 102 175 list append;
#X obj 231 120 list;
#X obj 241 150 list split;
#X obj 274 175 list split 1;
#X obj 273 87 r \$0-fromweights;
#X obj 247 221 list append;
#X obj 95 52 t b b;
#X obj 100 202 s \$0-tonumbers;
#X obj 257 251 s \$0-toweights;
#X connect 0 0 13 0;
#X connect 1 0 5 1;
#X connect 1 0 9 1;
#X connect 3 0 4 1;
#X connect 4 0 5 0;
#X connect 5 0 7 0;
#X connect 5 1 6 0;
#X connect 6 1 7 1;
#X connect 7 0 14 0;
#X connect 8 0 9 0;
#X connect 9 0 12 0;
#X connect 9 1 10 0;
#X connect 10 0 2 0;
#X connect 10 1 12 1;
#X connect 11 0 8 1;
#X connect 12 0 15 0;
#X connect 13 0 4 0;
#X connect 13 0 8 0;
#X connect 13 1 7 1;
#X connect 13 1 12 1;
#X restore 229 224 pd rem;
#X obj 45 30 r \$0-sub;
#X obj 229 160 t l l;
#X obj 45 70 swap;
#X obj 671 252 list;
#X msg 55 457 set \, add2 total weight: \$1 \, addcomma;
#X obj 60 431 f;
#X obj 93 390 r \$0-count;
#X obj 651 161 bang;
#X obj 683 335 -;
#X obj 655 205 sel 0;
#X obj 660 186 f;
#X msg 404 473 no weights;
#X obj 376 487 print weighted;
#X obj 681 309 swap;
#X obj 687 358 < 0;
#X obj 687 380 sel 1;
#X obj 671 228 t b b;
#X obj 671 279 list-dripdex;
#X obj 694 435 list;
#X obj 321 579 outlet;
#X obj 720 407 r \$0-fromnumbers;
#X obj 179 85 route list dump clear rem add;
#X obj 58 118 f;
#X obj 377 268 t b f;
#X obj 403 423 pack;
#X obj 352 133 int;
#X obj 376 310 t f f;
#X obj 376 355 spigot;
#X obj 409 333 > 0;
#X obj 336 271 f;
#X msg 194 414 weight for \$1 clipped to 0;
#X obj 315 109 unpack;
#X obj 152 192 int;
#X obj 154 213 t f f;
#X obj 151 280 f;
#X msg 177 281 0;
#X obj 176 374 f;
#X obj 154 258 sel 1 0;
#X msg 396 444 \$2 doesn't exist: creating weight of \$1 for \$2;
#X msg -1 480 total weight: 0 \, 42: 0 \,;
#X msg 136 101 \$2 \$1;
#X obj 141 139 unpack;
#X obj 169 161 t f b f;
#X obj 154 235 >= 0;
#X obj -29 332 list-abs/list-drip;
#X obj 687 401 iemlib/once;
#X obj 694 459 list-abs/list-nth;
#X connect 0 0 22 0;
#X connect 1 0 64 1;
#X connect 2 0 20 0;
#X connect 2 0 46 1;
#X connect 3 0 73 0;
#X connect 4 0 7 0;
#X connect 5 0 4 0;
#X connect 5 1 6 1;
#X connect 5 1 9 1;
#X connect 5 1 80 1;
#X connect 6 0 12 0;
#X connect 6 0 27 0;
#X connect 7 0 6 0;
#X connect 7 1 27 1;
#X connect 7 2 9 0;
#X connect 8 0 18 0;
#X connect 9 0 10 0;
#X connect 10 0 74 0;
#X connect 11 0 10 1;
#X connect 12 0 10 1;
#X connect 13 0 26 0;
#X connect 14 0 77 0;
#X connect 15 0 24 0;
#X connect 15 0 54 1;
#X connect 19 0 8 1;
#X connect 21 0 2 1;
#X connect 22 0 72 0;
#X connect 22 1 2 0;
#X connect 22 1 15 0;
#X connect 23 0 15 1;
#X connect 25 0 13 1;
#X connect 27 0 3 0;
#X connect 27 1 80 0;
#X connect 28 0 73 0;
#X connect 29 0 4 1;
#X connect 31 0 32 0;
#X connect 31 1 56 0;
#X connect 32 0 95 0;
#X connect 33 0 35 0;
#X connect 33 1 36 0;
#X connect 34 0 32 1;
#X connect 35 0 47 0;
#X connect 36 0 38 0;
#X connect 37 0 36 1;
#X connect 38 0 35 1;
#X connect 38 1 36 1;
#X connect 39 0 73 0;
#X connect 41 0 1 1;
#X connect 41 0 61 1;
#X connect 42 0 43 0;
#X connect 42 0 44 0;
#X connect 45 0 49 0;
#X connect 45 1 50 1;
#X connect 46 0 52 0;
#X connect 47 0 90 0;
#X connect 48 0 46 0;
#X connect 48 1 49 1;
#X connect 49 0 50 0;
#X connect 51 0 53 0;
#X connect 52 0 45 0;
#X connect 52 1 50 2;
#X connect 53 0 28 0;
#X connect 53 1 28 1;
#X connect 54 0 68 0;
#X connect 55 0 90 0;
#X connect 56 0 55 0;
#X connect 57 0 56 1;
#X connect 58 0 61 0;
#X connect 59 0 64 1;
#X connect 59 0 65 0;
#X connect 60 0 62 0;
#X connect 60 1 67 0;
#X connect 61 0 60 0;
#X connect 62 0 63 0;
#X connect 64 0 59 0;
#X connect 64 1 59 1;
#X connect 65 0 66 0;
#X connect 66 0 96 0;
#X connect 67 0 54 0;
#X connect 67 1 1 0;
#X connect 67 1 96 1;
#X connect 68 0 64 0;
#X connect 68 1 97 1;
#X connect 69 0 97 0;
#X connect 71 0 69 1;
#X connect 72 0 91 0;
#X connect 72 1 31 0;
#X connect 72 2 39 0;
#X connect 72 2 42 0;
#X connect 72 3 48 0;
#X connect 72 4 82 0;
#X connect 72 5 58 0;
#X connect 73 0 40 0;
#X connect 73 0 53 1;
#X connect 73 0 3 1;
#X connect 74 0 14 0;
#X connect 74 1 8 0;
#X connect 74 1 75 1;
#X connect 75 0 89 0;
#X connect 76 0 11 0;
#X connect 76 0 14 1;
#X connect 76 0 27 2;
#X connect 77 0 78 0;
#X connect 77 1 79 0;
#X connect 78 0 13 0;
#X connect 78 0 75 0;
#X connect 78 0 3 0;
#X connect 79 0 78 1;
#X connect 80 0 81 0;
#X connect 81 0 63 0;
#X connect 82 0 5 0;
#X connect 82 1 76 0;
#X connect 83 0 84 0;
#X connect 84 0 94 0;
#X connect 84 1 85 1;
#X connect 85 0 13 0;
#X connect 85 0 3 0;
#X connect 86 0 13 0;
#X connect 87 0 81 0;
#X connect 88 0 85 0;
#X connect 88 1 86 0;
#X connect 88 1 87 0;
#X connect 89 0 63 0;
#X connect 90 0 30 0;
#X connect 91 0 92 0;
#X connect 92 0 83 0;
#X connect 92 1 93 0;
#X connect 93 0 8 0;
#X connect 93 0 87 1;
#X connect 93 1 15 0;
#X connect 93 1 2 0;
#X connect 93 2 48 0;
#X connect 94 0 88 0;
#X connect 95 0 33 0;
#X connect 95 1 90 0;
#X connect 96 0 69 0;
#X connect 97 0 70 0;
