#N canvas 520 101 912 493 10;
#X obj 204 106 sndfilereader~;
#X obj 204 214 beatrepeat~;
#X obj 204 258 outputc~;
#X msg 191 78 set;
#X obj 267 17 bng 15 250 50 0 empty empty empty 17 7 0 10 -262144 -1
-1;
#X obj 504 172 osc~ 0.5;
#X obj 267 39 iterate 15;
#X msg 269 63 add2 50;
#X obj 502 213 *~ 2;
#X msg 332 210 1;
#X msg 335 60 500 500 500 500;
#X msg 557 188 0;
#X msg 603 186 2;
#X text 111 346 inlets: 1: signal 2: list of durations \, the first
of which is the buffer size \, 3: signal cv for pitchshift in semitones
\, 4: list of 1s and 0s which mean whether to play in reverse or not
on a given step \, starting after the buffer is written;
#X text 541 376 table will never play past buffer size;
#X msg 629 95 1 0 1;
#X obj 683 60 t b b;
#X obj 688 42 bng 15 250 50 0 empty empty empty 17 7 0 10 -262144 -1
-1;
#X text 488 12 fill the buffer to 1000 ms \, play in reverse for 500
ms \, play forward for 500 \, reverse again for 1000;
#X msg 513 81 1000 500 500 1000;
#X connect 0 0 1 0;
#X connect 1 0 2 0;
#X connect 1 0 2 1;
#X connect 3 0 10 0;
#X connect 4 0 6 0;
#X connect 5 0 8 0;
#X connect 6 0 7 0;
#X connect 7 0 10 0;
#X connect 8 0 1 2;
#X connect 9 0 1 3;
#X connect 10 0 1 1;
#X connect 11 0 8 1;
#X connect 12 0 8 1;
#X connect 15 0 1 3;
#X connect 16 0 19 0;
#X connect 16 1 15 0;
#X connect 17 0 16 0;
#X connect 19 0 1 1;
