#N canvas 260 249 957 531 10;
#X obj 383 187 metro 50;
#X msg 382 167 1;
#X obj 382 145 loadbang;
#X obj 285 347 snapshot~;
#X floatatom 284 369 5 0 0 0 - - -;
#X obj 218 344 snapshot~;
#X floatatom 217 366 5 0 0 0 - - -;
#X obj 146 343 snapshot~;
#X floatatom 145 365 5 0 0 0 - - -;
#X msg 27 57 0;
#X msg 40 79 1;
#X obj 138 142 r \$0-sig;
#X obj 137 190 sig~;
#X obj 14 123 s \$0-sig;
#X obj 81 345 snapshot~;
#X floatatom 80 367 5 0 0 0 - - -;
#X obj 9 344 snapshot~;
#X floatatom 8 366 5 0 0 0 - - -;
#X floatatom 155 165 5 0 0 0 - - -;
#X obj 562 221 diy<=~;
#X obj 574 344 snapshot~;
#X floatatom 573 366 5 0 0 0 - - -;
#X obj 496 228 diy<~;
#X obj 504 345 snapshot~;
#X floatatom 503 367 5 0 0 0 - - -;
#X text 579 84 without argument it is a signal inlet: do not change
the insides! you'll mess up the object ordering. However you can use
iemguts if you do want to modify;
#X msg 308 57 \; pd dsp 1;
#X obj 637 214 diy==~;
#X obj 641 335 snapshot~;
#X floatatom 640 357 5 0 0 0 - - -;
#X obj 442 339 snapshot~;
#X floatatom 441 361 5 0 0 0 - - -;
#X obj 432 230 diy>=~;
#X obj 383 233 diy>~;
#X obj 375 336 snapshot~;
#X floatatom 374 367 5 0 0 0 - - -;
#X obj 1 230 diy>~ 1;
#X obj 72 231 diy>=~ 1;
#X obj 138 229 diy<~ 1;
#X obj 210 230 diy<=~ 1;
#X obj 284 229 diy==~ 1;
#X obj 622 164 sig~ 1;
#X msg 9 34 2;
#X text 390 30 original patch/idea by mod on the pure data forum;
#X text 95 58 requires numargs external;
#X connect 0 0 3 0;
#X connect 0 0 5 0;
#X connect 0 0 7 0;
#X connect 0 0 14 0;
#X connect 0 0 16 0;
#X connect 0 0 20 0;
#X connect 0 0 23 0;
#X connect 0 0 28 0;
#X connect 0 0 30 0;
#X connect 0 0 34 0;
#X connect 1 0 0 0;
#X connect 2 0 1 0;
#X connect 3 0 4 0;
#X connect 5 0 6 0;
#X connect 7 0 8 0;
#X connect 9 0 13 0;
#X connect 10 0 13 0;
#X connect 11 0 12 0;
#X connect 11 0 18 0;
#X connect 12 0 19 0;
#X connect 12 0 22 0;
#X connect 12 0 27 0;
#X connect 12 0 32 0;
#X connect 12 0 33 0;
#X connect 12 0 36 0;
#X connect 12 0 37 0;
#X connect 12 0 38 0;
#X connect 12 0 39 0;
#X connect 12 0 40 0;
#X connect 14 0 15 0;
#X connect 16 0 17 0;
#X connect 19 0 20 0;
#X connect 20 0 21 0;
#X connect 22 0 23 0;
#X connect 23 0 24 0;
#X connect 27 0 28 0;
#X connect 28 0 29 0;
#X connect 30 0 31 0;
#X connect 32 0 30 0;
#X connect 33 0 34 0;
#X connect 34 0 35 0;
#X connect 36 0 16 0;
#X connect 37 0 14 0;
#X connect 38 0 7 0;
#X connect 39 0 5 0;
#X connect 40 0 3 0;
#X connect 42 0 13 0;
