#N canvas 465 23 774 500 10;
#X msg 134 44 1;
#N canvas 0 22 450 300 (subpatch) 0;
#X array adenvelopes 132014 float 2;
#X coords 0 1 132014 0 200 140 1 0 0;
#X restore 452 178 graph;
#X text 115 25 trgger;
#X obj 59 167 *~ 500;
#N canvas 0 22 450 278 (subpatch) 0;
#X array adexpenvelopes 132014 float 2;
#X coords 0 1 132014 0 200 140 1 0 0;
#X restore 452 23 graph;
#X floatatom 319 127 5 0 0 0 - - -;
#X text 234 148 numbers correspond to stages;
#N canvas 0 22 450 278 (subpatch) 0;
#X array adrexpenvelopes 132014 float 2;
#X coords 0 1 132013 0 200 140 1 0 0;
#X restore 444 349 graph;
#X obj 238 127 print stage;
#X obj 108 140 line~;
#X obj 232 288 tabwrite~ adenvelopes;
#X obj 199 372 tabwrite~ adrexpenvelopes;
#X text 239 97 ad based on miller's adsr;
#X obj 207 61 b;
#X obj 239 188 spigot;
#X obj 275 168 tgl 15 0 empty empty graph 17 7 0 10 -262144 -1 -1 0
1;
#X obj 69 198 ./operator~;
#X obj 53 239 ./outputc~;
#X obj 139 314 ./rexpline~;
#X obj 173 151 ./expline~;
#X obj 137 97 ./ad 1 250 850;
#X obj 233 214 tabwrite~ adexpenvelopes;
#X connect 0 0 13 0;
#X connect 0 0 20 0;
#X connect 3 0 16 0;
#X connect 9 0 3 0;
#X connect 9 0 10 0;
#X connect 9 0 16 1;
#X connect 13 0 14 0;
#X connect 14 0 10 0;
#X connect 14 0 11 0;
#X connect 14 0 21 0;
#X connect 15 0 14 1;
#X connect 16 0 17 0;
#X connect 16 0 17 1;
#X connect 18 0 11 0;
#X connect 19 0 21 0;
#X connect 20 0 9 0;
#X connect 20 0 18 0;
#X connect 20 0 19 0;
#X connect 20 1 5 0;
#X connect 20 1 8 0;
