#N canvas 351 44 512 380 10;
#X obj 160 31 inlet;
#X obj 157 66 sel 0;
#X msg 151 100 stop;
#X obj 348 149 del \$2;
#X obj 349 262 t l b;
#X obj 349 238 pack 0 \$3;
#X obj 381 115 inlet;
#X obj 292 61 inlet;
#X obj 343 81 inlet;
#X obj 234 61 moses;
#X obj 232 85 t b b;
#X msg 128 201 0;
#X obj 303 101 b;
#X obj 252 186 pack 0 \$2;
#X obj 338 333 outlet;
#X msg 376 296 2;
#X obj 181 230 t l b;
#X msg 331 293 1;
#X obj 169 339 outlet;
#X obj 456 271 del;
#X msg 437 246 stop;
#X msg 449 216 bang \, \$2;
#X msg 434 299 0;
#X obj 263 136 f \$1;
#X obj 342 177 spigot 1;
#X msg 405 169 0;
#X msg 402 142 1;
#X connect 0 0 1 0;
#X connect 1 0 2 0;
#X connect 1 0 24 0;
#X connect 1 1 9 0;
#X connect 2 0 3 0;
#X connect 3 0 24 0;
#X connect 4 0 18 0;
#X connect 4 1 15 0;
#X connect 5 0 4 0;
#X connect 5 0 21 0;
#X connect 6 0 5 1;
#X connect 7 0 23 1;
#X connect 8 0 13 1;
#X connect 8 0 3 1;
#X connect 9 0 10 0;
#X connect 9 1 12 0;
#X connect 10 0 12 0;
#X connect 10 1 11 0;
#X connect 11 0 16 0;
#X connect 12 0 23 0;
#X connect 12 0 3 0;
#X connect 12 0 26 0;
#X connect 13 0 16 0;
#X connect 15 0 14 0;
#X connect 16 0 18 0;
#X connect 16 1 17 0;
#X connect 16 1 20 0;
#X connect 17 0 14 0;
#X connect 19 0 22 0;
#X connect 19 0 26 0;
#X connect 20 0 19 0;
#X connect 21 0 19 0;
#X connect 22 0 14 0;
#X connect 23 0 13 0;
#X connect 24 0 25 0;
#X connect 24 0 5 0;
#X connect 25 0 24 1;
#X connect 26 0 24 1;
