#N canvas 438 46 552 454 10;
#X obj 68 41 inlet;
#X obj 240 136 inlet;
#X text 64 16 trigger;
#X obj 68 69 sel 0;
#X obj 107 171 f \$1;
#X obj 107 192 pack 0 \$2;
#X obj 284 136 inlet;
#X obj 195 192 del \$2;
#X obj 195 215 f \$4;
#X obj 331 136 inlet;
#X obj 376 136 inlet;
#X obj 390 207 inlet;
#X msg 68 100 stop;
#X obj 332 231 pack 0 \$5;
#X text 237 117 level;
#X obj 245 213 * \$1;
#X text 43 271 and pack with;
#X text 44 291 attack time;
#X text 11 75 if zero;
#X text 11 62 release;
#X text 15 109 decay;
#X obj 195 235 * 0.01;
#X text 282 117 attack;
#X text 330 117 decay;
#X text 375 117 sustain;
#X text 387 186 release;
#X text 142 2 attack;
#X obj 144 23 moses;
#X msg 71 191 0;
#X text 10 163 optionally;
#X text 29 146 ATTACK:;
#X text 195 20 test for negative trigger;
#X text 182 52 if so \, zero;
#X text 264 52 the output;
#X text 78 235 ... then;
#X text 44 252 recall peak level;
#X text 239 101 peak;
#X text 204 79 ... do this;
#X text 15 95 cancel;
#X text 203 178 DECAY;
#X text 286 79 anyway;
#X text 3 196 to zero;
#X text 10 180 jump;
#X obj 161 312 outlet;
#X obj 245 235 pack 0 \$3;
#X obj 244 257 t l b;
#X msg 290 301 1;
#X obj 134 53 t b b;
#X obj 132 228 t l b;
#X msg 322 302 2;
#X obj 314 256 t l b;
#X msg 365 303 4;
#X obj 299 331 outlet;
#X obj 244 302 del;
#X msg 244 279 bang \, \$2;
#X msg 254 325 3;
#X obj 399 299 del;
#X msg 401 250 stop;
#X msg 399 324 0;
#X msg 200 285 stop;
#X obj 179 84 b;
#X text 316 396 taken from pd examples;
#X msg 398 276 \$2;
#X connect 0 0 3 0;
#X connect 1 0 4 1;
#X connect 1 0 15 1;
#X connect 3 0 12 0;
#X connect 3 0 13 0;
#X connect 3 1 27 0;
#X connect 4 0 5 0;
#X connect 5 0 48 0;
#X connect 6 0 5 1;
#X connect 6 0 7 1;
#X connect 7 0 8 0;
#X connect 8 0 21 0;
#X connect 9 0 44 1;
#X connect 10 0 8 1;
#X connect 11 0 13 1;
#X connect 12 0 7 0;
#X connect 13 0 50 0;
#X connect 13 0 62 0;
#X connect 15 0 44 0;
#X connect 21 0 15 0;
#X connect 27 0 47 0;
#X connect 27 1 60 0;
#X connect 28 0 48 0;
#X connect 44 0 45 0;
#X connect 44 0 54 0;
#X connect 45 0 43 0;
#X connect 45 1 49 0;
#X connect 46 0 52 0;
#X connect 46 0 57 0;
#X connect 46 0 59 0;
#X connect 47 0 60 0;
#X connect 47 1 28 0;
#X connect 48 0 43 0;
#X connect 48 1 46 0;
#X connect 49 0 52 0;
#X connect 49 0 57 0;
#X connect 50 0 43 0;
#X connect 50 1 51 0;
#X connect 51 0 52 0;
#X connect 51 0 59 0;
#X connect 53 0 55 0;
#X connect 54 0 53 0;
#X connect 55 0 52 0;
#X connect 55 0 57 0;
#X connect 56 0 58 0;
#X connect 57 0 56 0;
#X connect 58 0 52 0;
#X connect 59 0 53 0;
#X connect 60 0 4 0;
#X connect 60 0 7 0;
#X connect 62 0 56 0;
