#N canvas 649 206 450 300 10;
#X obj 205 139 anypipe 2000;
#X msg 279 97 1000;
#X msg 320 51 2000;
#X msg 355 68 50;
#X text 11 7 pipe that works for any datatype except pointers (works
by turning everything into a symbol);
#X msg 217 99 35;
#X msg 186 71 bay view;
#X msg 235 42 bay;
#X msg 117 102 list bay view;
#X msg 113 49 symbol bay;
#X obj 203 175 print;
#X text 78 204 also:;
#X obj 72 241 osc/pipelist;
#X connect 0 0 10 0;
#X connect 1 0 0 1;
#X connect 2 0 0 1;
#X connect 3 0 0 1;
#X connect 5 0 0 0;
#X connect 6 0 0 0;
#X connect 7 0 0 0;
#X connect 8 0 0 0;
#X connect 9 0 0 0;
