#N canvas 338 207 450 300 10;
#X obj 140 47 inlet;
#X obj 250 39 inlet;
#X obj 171 105 list;
#X obj 159 184 list trim;
#X obj 157 210 outlet;
#X obj 169 156 list prepend;
#X obj 249 94 route list symbol;
#X msg 226 130 list list;
#X msg 294 131 list symbol;
#X msg 372 128 bang;
#X connect 0 0 2 0;
#X connect 1 0 2 1;
#X connect 1 0 6 0;
#X connect 2 0 5 0;
#X connect 3 0 4 0;
#X connect 5 0 3 0;
#X connect 6 0 7 0;
#X connect 6 1 8 0;
#X connect 6 2 9 0;
#X connect 7 0 5 1;
#X connect 8 0 5 1;
#X connect 9 0 5 1;
