#N canvas 465 22 774 500 10;
#X obj 91 200 operator~;
#X msg 206 61 0;
#X msg 283 29 bang;
#X msg 124 25 1;
#N canvas 0 22 450 300 (subpatch) 0;
#X array arenvelopes 132014 float 2;
#X coords 0 1 132014 0 200 140 1 0 0;
#X restore 474 180 graph;
#X text 105 6 trgger;
#X text 206 42 note off;
#X obj 93 235 output~;
#X obj 81 169 *~ 500;
#X obj 195 153 expline~;
#N canvas 0 22 450 278 (subpatch) 0;
#X array arexpenvelopes 132014 float 2;
#X coords 0 1 132014 0 200 140 1 0 0;
#X restore 474 25 graph;
#X floatatom 341 129 5 0 0 0 - - -, f 5;
#X text 256 150 numbers correspond to stages;
#N canvas 0 22 450 278 (subpatch) 0;
#X array arrexpenvelopes 132014 float 2;
#X coords 0 1 132013 0 200 140 1 0 0;
#X restore 466 351 graph;
#X obj 161 316 rexpline~;
#X obj 260 129 print stage;
#X obj 130 142 line~;
#X text 318 99 ar based on miller's adsr;
#X obj 159 99 ar 1 250 850;
#X obj 255 216 tabwrite~ arexpenvelopes;
#X obj 254 290 tabwrite~ arenvelopes;
#X obj 221 374 tabwrite~ arrexpenvelopes;
#X obj 80 121 adsr;
#X obj 269 187 spigot;
#X obj 305 167 tgl 15 0 empty empty graph 17 7 0 10 -262144 -1 -1 1
1;
#X obj 297 60 del 1050;
#X connect 0 0 7 0;
#X connect 0 0 7 1;
#X connect 1 0 18 0;
#X connect 2 0 23 0;
#X connect 2 0 25 0;
#X connect 3 0 2 0;
#X connect 3 0 18 0;
#X connect 8 0 0 0;
#X connect 9 0 19 0;
#X connect 14 0 21 0;
#X connect 16 0 0 1;
#X connect 16 0 8 0;
#X connect 16 0 20 0;
#X connect 18 0 9 0;
#X connect 18 0 14 0;
#X connect 18 0 16 0;
#X connect 18 1 11 0;
#X connect 18 1 15 0;
#X connect 23 0 19 0;
#X connect 23 0 20 0;
#X connect 23 0 21 0;
#X connect 24 0 23 1;
#X connect 25 0 1 0;
