#N canvas 397 359 450 583 12;
#X obj 49 384 until;
#X obj 49 337 * 0.5;
#X obj 49 358 int;
#X msg 149 235 0;
#X obj 67 437 - 1;
#X obj 49 407 t b b;
#X obj 100 522 f;
#X obj 39 461 ekext/cupd 1;
#X obj 52 485 t b f f;
#X obj 132 469 ekext/cup;
#X obj 70 103 array size;
#X obj 65 4 inlet;
#X obj 63 25 route set;
#X obj 194 58 symbol \$1;
#X obj 205 8 loadbang;
#X obj 115 498 tabread;
#X obj 39 522 tabread;
#X obj 63 553 tabwrite;
#X obj 176 163 ./prepender set;
#X obj 109 239 f;
#X obj 109 198 t b b;
#X obj 37 158 t f f b;
#X obj 77 231 f;
#X obj 58 197 t f b;
#X obj 15 190 t f b;
#X obj 54 273 t f f;
#X obj 54 297 -;
#X obj 40 129 f;
#X obj 72 71 t b s;
#X obj 123 51 t b f;
#X obj 192 124 * -1;
#X obj 192 209 mod;
#X obj 205 32 t b b;
#X obj 202 95 sel symbol;
#X msg 268 60 symbol;
#X connect 0 0 5 0;
#X connect 1 0 2 0;
#X connect 2 0 0 0;
#X connect 3 0 9 0;
#X connect 3 0 26 1;
#X connect 4 0 7 0;
#X connect 5 0 7 0;
#X connect 5 1 9 0;
#X connect 6 0 17 0;
#X connect 7 0 8 0;
#X connect 8 0 6 0;
#X connect 8 1 17 1;
#X connect 8 2 16 0;
#X connect 9 0 15 0;
#X connect 9 0 17 1;
#X connect 10 0 27 1;
#X connect 10 0 31 1;
#X connect 11 0 12 0;
#X connect 12 0 28 0;
#X connect 12 1 29 0;
#X connect 13 0 33 0;
#X connect 14 0 32 0;
#X connect 15 0 6 1;
#X connect 16 0 17 0;
#X connect 18 0 15 0;
#X connect 18 0 16 0;
#X connect 18 0 17 0;
#X connect 19 0 25 0;
#X connect 20 0 19 0;
#X connect 20 1 3 0;
#X connect 21 0 24 0;
#X connect 21 1 23 0;
#X connect 21 2 20 0;
#X connect 22 0 9 0;
#X connect 22 0 26 1;
#X connect 23 0 25 0;
#X connect 23 1 22 0;
#X connect 24 0 25 0;
#X connect 24 1 3 0;
#X connect 25 0 26 0;
#X connect 25 1 4 0;
#X connect 26 0 1 0;
#X connect 27 0 21 0;
#X connect 28 0 10 0;
#X connect 28 1 10 1;
#X connect 28 1 18 0;
#X connect 29 0 27 0;
#X connect 29 1 30 0;
#X connect 30 0 31 0;
#X connect 31 0 19 1;
#X connect 31 0 22 1;
#X connect 32 0 13 0;
#X connect 32 1 34 0;
#X connect 33 1 28 0;
#X connect 34 0 33 1;
