#N canvas 370 152 556 611 12;
#X obj 120 123 array size;
#X obj 265 26 loadbang;
#X obj 198 98 symbol \$1;
#X obj 114 36 inlet;
#X obj 128 203 until;
#X obj 119 67 route set bang;
#X obj 152 358 random;
#X obj 157 312 t b f;
#X obj 148 404 t f f;
#X obj 127 179 - 1;
#X obj 184 198 - 1;
#X obj 157 285 + 1;
#X obj 125 155 t f f;
#X obj 134 468 f;
#X obj 136 257 t b f f;
#X obj 133 228 ekext/cupd 1;
#X obj 241 440 tabread;
#X obj 153 443 tabread;
#X obj 177 535 tabwrite;
#X obj 270 222 ./prepender set;
#X connect 0 0 12 0;
#X connect 1 0 2 0;
#X connect 2 0 0 1;
#X connect 2 0 19 0;
#X connect 3 0 5 0;
#X connect 4 0 15 0;
#X connect 5 0 2 0;
#X connect 5 1 0 0;
#X connect 6 0 8 0;
#X connect 7 0 6 0;
#X connect 7 1 6 1;
#X connect 8 0 18 1;
#X connect 8 1 16 0;
#X connect 9 0 4 0;
#X connect 10 0 15 0;
#X connect 11 0 7 0;
#X connect 12 0 9 0;
#X connect 12 1 10 0;
#X connect 13 0 18 0;
#X connect 14 0 13 0;
#X connect 14 1 11 0;
#X connect 14 2 17 0;
#X connect 14 2 18 1;
#X connect 15 0 14 0;
#X connect 16 0 18 0;
#X connect 17 0 13 1;
#X connect 19 0 16 0;
#X connect 19 0 18 0;
#X connect 19 0 17 0;
