#N canvas 314 81 513 489 10;
#X obj 49 174 until;
#X obj 49 96 t f f b;
#X obj 49 127 * 0.5;
#X obj 49 148 int;
#X msg 145 226 0;
#X obj 67 217 - 1;
#X obj 49 197 t b b;
#X obj 79 335 f;
#X obj 39 241 ekext/cupd 1;
#X obj 52 265 t b f f;
#X obj 132 249 ekext/cup;
#X obj 45 71 array size;
#X obj 65 4 inlet;
#X obj 65 25 route set;
#X obj 54 51 b;
#X obj 102 46 symbol \$1;
#X obj 188 19 loadbang;
#X obj 115 278 tabread;
#X obj 39 302 tabread;
#X obj 70 361 tabwrite;
#X obj 176 113 ./prepender set;
#X connect 0 0 6 0;
#X connect 1 0 2 0;
#X connect 1 1 5 0;
#X connect 1 2 4 0;
#X connect 2 0 3 0;
#X connect 3 0 0 0;
#X connect 4 0 10 0;
#X connect 5 0 8 0;
#X connect 6 0 8 0;
#X connect 6 1 10 0;
#X connect 7 0 19 0;
#X connect 8 0 9 0;
#X connect 9 0 7 0;
#X connect 9 1 19 1;
#X connect 9 2 18 0;
#X connect 10 0 17 0;
#X connect 10 0 19 1;
#X connect 11 0 1 0;
#X connect 12 0 13 0;
#X connect 13 0 15 0;
#X connect 13 1 14 0;
#X connect 14 0 11 0;
#X connect 15 0 11 1;
#X connect 15 0 20 0;
#X connect 16 0 15 0;
#X connect 17 0 7 1;
#X connect 18 0 19 0;
#X connect 20 0 17 0;
#X connect 20 0 18 0;
#X connect 20 0 19 0;
