#N canvas 200 236 450 300 12;
#X obj 114 45 inlet;
#X obj 114 75 route bang set;
#X obj 265 26 loadbang;
#X obj 183 111 symbol \$1;
#X obj 117 142 array size;
#X obj 110 230 tabread;
#X obj 109 254 outlet;
#X obj 189 255 outlet;
#X obj 328 183 inlet;
#X obj 113 193 t f f f;
#X obj 316 223 tabwrite;
#X obj 118 168 ./iterate;
#X obj 216 180 ./prepender set;
#X connect 0 0 1 0;
#X connect 1 0 4 0;
#X connect 1 1 3 0;
#X connect 2 0 3 0;
#X connect 3 0 4 1;
#X connect 3 0 12 0;
#X connect 4 0 11 0;
#X connect 5 0 6 0;
#X connect 8 0 10 0;
#X connect 9 0 5 0;
#X connect 9 1 7 0;
#X connect 9 2 10 1;
#X connect 11 0 9 0;
#X connect 12 0 5 0;
#X connect 12 0 10 0;
