#N canvas 0 23 450 471 12;
#X obj 97 28 inlet;
#X obj 297 4 inlet;
#X obj 88 139 unpack;
#X obj 62 349 array-map \$3;
#X obj 369 38 inlet;
#X obj 235 25 loadbang;
#X obj 164 197 array size;
#X obj 109 218 -;
#X obj 100 191 swap;
#X obj 94 162 t f b;
#X obj 116 243 /;
#X obj 238 53 symbol \$3;
#X obj 194 296 scaler 1 \$2;
#X obj 311 99 f \$1;
#X obj 315 128 if 0 1;
#X obj 50 64 route range wraprange set;
#X obj 55 310 iem_prepend set;
#X obj 155 226 -;
#X obj 100 107 t l b;
#X msg 158 167 1;
#X obj 163 112 t l b;
#X msg 197 146 0;
#X connect 0 0 15 0;
#X connect 1 0 12 1;
#X connect 2 0 9 0;
#X connect 2 1 8 1;
#X connect 3 1 12 0;
#X connect 4 0 12 2;
#X connect 5 0 11 0;
#X connect 5 0 13 0;
#X connect 6 0 17 0;
#X connect 7 0 10 0;
#X connect 8 0 7 0;
#X connect 8 1 7 1;
#X connect 9 0 8 0;
#X connect 9 0 12 2;
#X connect 9 1 6 0;
#X connect 10 0 12 1;
#X connect 11 0 16 0;
#X connect 11 0 6 1;
#X connect 12 0 3 1;
#X connect 13 0 14 0;
#X connect 14 0 12 1;
#X connect 15 0 18 0;
#X connect 15 1 20 0;
#X connect 15 2 11 0;
#X connect 15 3 3 0;
#X connect 16 0 3 0;
#X connect 17 0 10 1;
#X connect 18 0 2 0;
#X connect 18 1 19 0;
#X connect 19 0 17 1;
#X connect 20 0 2 0;
#X connect 20 1 21 0;
#X connect 21 0 17 1;
