#N canvas 200 236 450 300 12;
#X declare -stdlib iemlib;
#X obj 118 168 iterate;
#X obj 114 45 inlet;
#X obj 114 75 route bang set;
#X obj 265 26 loadbang;
#X obj 183 111 symbol \$1;
#X obj 216 180 iem_prepend set;
#X obj 117 142 array size;
#X obj 266 94 declare -stdlib iemlib;
#X obj 110 230 tabread;
#X obj 109 254 outlet;
#X obj 189 255 outlet;
#X obj 328 183 inlet;
#X obj 113 193 t f f f;
#X obj 316 223 tabwrite;
#X connect 0 0 12 0;
#X connect 1 0 2 0;
#X connect 2 0 6 0;
#X connect 2 1 4 0;
#X connect 3 0 4 0;
#X connect 4 0 5 0;
#X connect 4 0 6 1;
#X connect 5 0 8 0;
#X connect 5 0 13 0;
#X connect 6 0 0 0;
#X connect 8 0 9 0;
#X connect 11 0 13 0;
#X connect 12 0 8 0;
#X connect 12 1 10 0;
#X connect 12 2 13 1;
