#N canvas 0 22 450 300 10;
#X obj 237 77 samplerate~;
#X obj 241 53 loadbang;
#X obj 133 66 inlet;
#X obj 237 125 expr 64000/$f1;
#X obj 178 174 metro;
#X obj 187 219 outlet;
#X connect 0 0 3 0;
#X connect 1 0 0 0;
#X connect 2 0 4 0;
#X connect 3 0 4 1;
#X connect 4 0 5 0;
