#N canvas 264 117 450 300 10;
#X obj 116 47 loadbang;
#X obj 59 7 tgl 15 0 \$0-tog \$0-totog empty 17 7 0 10 #fcfcfc #fcfcfc #3c50fc 0 1;
#X obj 131 230 outlet;
#X obj 153 92 f \$1;
#X obj 182 231 outlet;
#X obj 193 58 inlet;
#X obj 77 7 bng 15 250 50 0 \$0-bang \$0-NOTHING empty 17 7 0 10 #fcfcfc #000000 #000000;
#X obj 153 117 sel 0;
#X obj 119 141 r \$0-tog;
#X obj 192 86 s \$0-totog;
#X obj 55 126 r \$0-bang;
#N canvas 851 349 482 356 dsp 0;
#X obj 32 76 inlet;
#X obj 130 138 select 0 1;
#X obj 130 61 route dsp;
#X obj 130 40 receive pd;
#X obj 212 62 loadbang;
#X msg 32 151 dsp \$1;
#X obj 32 176 send pd;
#X msg 257 188 set \$1;
#X obj 212 86 value GLOBAL_PDDP_DSP;
#X msg 130 164 0;
#X msg 56 97 set \$1;
#X obj 32 125 change;
#X msg 158 164 18;
#X msg 136 188 color \$1 0 18;
#X obj 163 255 outlet;
#X obj 201 222 send \$0-totog;
#X obj 130 112 t f;
#X connect 0 0 11 0;
#X connect 1 0 9 0;
#X connect 1 1 12 0;
#X connect 2 0 10 0;
#X connect 2 0 8 0;
#X connect 2 0 16 0;
#X connect 3 0 2 0;
#X connect 4 0 8 0;
#X connect 5 0 6 0;
#X connect 7 0 15 0;
#X connect 8 0 10 0;
#X connect 8 0 16 0;
#X connect 9 0 13 0;
#X connect 10 0 11 0;
#X connect 11 0 5 0;
#X connect 12 0 13 0;
#X connect 13 0 15 0;
#X connect 16 0 1 0;
#X connect 16 0 7 0;
#X connect 16 0 14 0;
#X restore 172 178 pd dsp logic;
#X msg 177 139 1;
#X obj 279 153 r pd-dsp-started;
#X obj 279 174 outlet;
#X obj 112 72 del 0;
#X connect 0 0 15 0;
#X connect 3 0 7 0;
#X connect 5 0 9 0;
#X connect 7 1 12 0;
#X connect 8 0 11 0;
#X connect 10 0 2 0;
#X connect 11 0 4 0;
#X connect 12 0 11 0;
#X connect 13 0 14 0;
#X connect 15 0 3 0;
#X connect 15 0 2 0;
#X coords 0 -1 1 1 90 19 1 5 5;
