#N canvas 264 117 450 300 10;
#X obj 152 44 loadbang;
#X obj 5 7 cnv 15 90 18 empty empty Banger 3 7 0 14 -1 -187456 0;
#X obj 59 8 tgl 15 0 empty empty empty 17 7 0 10 -262144 -1 -1 0 1
;
#X msg 262 206 \; pd dsp \$1 \;;
#X obj 306 16 r pd;
#X obj 305 36 route dsp;
#X msg 351 58 set \$1;
#X obj 181 224 outlet;
#X obj 215 115 f \$1;
#X obj 220 172 clip 0 1;
#X obj 354 173 outlet;
#X obj 190 14 inlet;
#X obj 77 8 bng 15 250 50 0 empty empty empty 17 7 0 10 -262144 -1
-1;
#X obj 221 138 sel 0;
#X obj 99 165 s globalloadbang;
#X connect 0 0 8 0;
#X connect 0 0 7 0;
#X connect 0 0 14 0;
#X connect 2 0 9 0;
#X connect 4 0 5 0;
#X connect 5 0 6 0;
#X connect 5 0 10 0;
#X connect 6 0 2 0;
#X connect 8 0 13 0;
#X connect 9 0 3 0;
#X connect 11 0 2 0;
#X connect 12 0 7 0;
#X connect 12 0 14 0;
#X connect 13 1 9 0;
#X coords 0 -1 1 1 90 23 1 5 5;
