#N canvas 424 159 807 388 10;
#X obj 151 105 bangb;
#X obj 145 64 tgl 15 0 empty empty empty 17 7 0 10 -262144 -1 -1 1
1;
#X text 212 63 a simple wrapper for a metro that outputs every 64 samples
(provided that >= 1ms);
#X floatatom 185 215 5 0 0 0 - - -;
#X obj 165 164 timer;
#X obj 162 138 t b b;
#X obj 174 189 mstos;
#X connect 0 0 5 0;
#X connect 1 0 0 0;
#X connect 4 0 6 0;
#X connect 5 0 4 0;
#X connect 5 1 4 1;
#X connect 6 0 3 0;
