#N canvas 148 36 599 371 10;
#X obj 118 66 inlet~;
#X obj 124 106 phasor~;
#X obj 370 54 inlet;
#X obj 159 321 outlet~;
#X obj 75 239 outlet~;
#X obj 114 200 abs~;
#X obj 137 256 log~;
#X obj 154 276 *~;
#X obj 159 297 *~;
#X obj 196 55 inlet~;
#X obj 166 137 samphold~;
#X obj 118 170 dsrand~ \$1;
#X obj 245 321 outlet~;
#X obj 222 210 abs~;
#X obj 223 256 log~;
#X obj 240 276 *~;
#X obj 245 297 *~;
#X obj 213 235 zexy/==~ 0;
#X obj 127 235 zexy/==~ 0;
#X obj 148 204 zexy/sgn~;
#X obj 291 197 zexy/sgn~;
#X connect 0 0 1 0;
#X connect 1 0 4 0;
#X connect 1 0 10 1;
#X connect 1 0 11 0;
#X connect 2 0 1 1;
#X connect 5 0 6 0;
#X connect 5 0 18 0;
#X connect 6 0 7 0;
#X connect 7 0 8 0;
#X connect 8 0 3 0;
#X connect 9 0 10 0;
#X connect 10 0 8 1;
#X connect 10 0 16 1;
#X connect 11 0 5 0;
#X connect 11 0 19 0;
#X connect 11 1 13 0;
#X connect 11 1 20 0;
#X connect 13 0 14 0;
#X connect 13 0 17 0;
#X connect 14 0 15 0;
#X connect 15 0 16 0;
#X connect 16 0 12 0;
#X connect 17 0 14 0;
#X connect 18 0 6 0;
#X connect 19 0 7 1;
#X connect 20 0 15 1;
