#N canvas 908 155 629 414 10;
#X obj 190 22 inlet;
#X obj 190 88 list-drip;
#X obj 173 204 f;
#X obj 173 225 outlet;
#X obj 218 133 cupd 1;
#X obj 227 67 list length;
#X obj 190 44 t l l;
#X obj 190 111 t f b;
#X msg 219 155 0;
#X obj 188 181 +;
#X obj 227 110 - 1;
#X obj 191 157 <<;
#X msg 220 179 \$1;
#X connect 0 0 6 0;
#X connect 1 0 7 0;
#X connect 1 1 2 0;
#X connect 2 0 3 0;
#X connect 4 0 11 1;
#X connect 5 0 10 0;
#X connect 6 0 1 0;
#X connect 6 1 5 0;
#X connect 6 1 8 0;
#X connect 7 0 11 0;
#X connect 7 1 4 0;
#X connect 8 0 9 1;
#X connect 9 0 2 1;
#X connect 9 0 12 0;
#X connect 10 0 4 0;
#X connect 11 0 9 0;
#X connect 12 0 9 1;
