#N canvas 400 196 854 452 10;
#X obj 189 219 show;
#X msg 187 242 0 0 0 0 0 0 0 0 0 0 0 0 0 0 0 0 0 0 0 0 0 0 0 0 0 0
0 0 0 0 0 1;
#X msg 178 143 32;
#X floatatom 208 6 5 0 0 0 - - -;
#X obj 217 58 <<;
#X floatatom 247 70 15 0 0 0 - - -;
#X msg 214 36 1 \$1;
#X text 291 28 first argument is bit depth \, 32 if unset;
#X obj 190 296 l2s;
#X obj 381 69 loadbang;
#X msg 389 104 symbol;
#X obj 188 321 show;
#X obj 180 195 t b l;
#X floatatom 223 130 20 0 0 0 - - -;
#X floatatom 165 10 5 0 0 0 - - -;
#X obj 174 62 <<;
#X msg 171 40 1 \$1;
#X obj 174 86 * -1;
#X msg 248 100 set \$1;
#X obj 183 165 binlist;
#X symbolatom 188 345 33 0 0 0 - - -;
#X connect 0 0 1 0;
#X connect 1 0 8 0;
#X connect 2 0 19 0;
#X connect 3 0 6 0;
#X connect 4 0 5 0;
#X connect 4 0 19 0;
#X connect 5 0 18 0;
#X connect 6 0 4 0;
#X connect 8 0 11 0;
#X connect 9 0 10 0;
#X connect 10 0 8 1;
#X connect 11 0 20 0;
#X connect 12 0 1 0;
#X connect 12 1 0 0;
#X connect 13 0 19 0;
#X connect 14 0 16 0;
#X connect 15 0 17 0;
#X connect 16 0 15 0;
#X connect 17 0 5 0;
#X connect 17 0 19 0;
#X connect 18 0 13 0;
#X connect 19 0 12 0;
