#N canvas 201 22 621 325 10;
#X obj 242 121 until;
#X obj 243 29 inlet;
#X obj 303 203 list;
#X msg 243 100 32;
#X obj 246 148 f;
#X obj 284 146 >> 1;
#X obj 248 182 & 1;
#X obj 247 205 list;
#X msg 276 180 bang;
#X obj 380 65 if 0 32;
#X obj 380 40 f \$1;
#X msg 383 90 set \$1;
#X obj 385 17 loadbang;
#X obj 216 243 list;
#X obj 242 77 t b b f;
#X obj 221 284 outlet;
#X connect 0 0 4 0;
#X connect 1 0 14 0;
#X connect 2 0 7 1;
#X connect 2 0 13 1;
#X connect 3 0 0 0;
#X connect 4 0 6 0;
#X connect 4 0 5 0;
#X connect 5 0 4 1;
#X connect 6 0 7 0;
#X connect 7 0 2 0;
#X connect 8 0 7 1;
#X connect 9 0 11 0;
#X connect 10 0 9 0;
#X connect 11 0 3 0;
#X connect 12 0 10 0;
#X connect 13 0 15 0;
#X connect 14 0 13 0;
#X connect 14 1 3 0;
#X connect 14 2 4 1;
#X connect 14 2 8 0;
