#N canvas 526 65 914 809 10;
#X declare -lib iemlib;
#X obj 249 2 loadbang;
#X obj 392 148 inlet;
#X obj 195 681 outlet~;
#X obj 67 174 inlet~;
#X obj 645 554 outlet~;
#X obj 107 91 samplerate~;
#X obj 67 200 clip~ 0;
#X obj 114 167 * 0.5;
#X obj 263 177 inlet~;
#X obj 194 364 max~ 1;
#X obj 178 407 /~;
#X obj 166 344 *~ 0.000732422;
#X obj 264 202 clip~ 0.01 0.99;
#X obj 342 409 sin~;
#X obj 392 417 cos~;
#X obj 346 450 *~;
#X obj 398 465 *~;
#X obj 372 489 q8_sqrt~;
#X obj 373 344 /;
#X obj 373 318 swap 1;
#X obj 356 371 *~ 1;
#X obj 344 739 outlet~;
#X obj 227 578 -~ 0.5;
#X obj 207 632 +~;
#X obj 310 545 *~;
#X obj 169 455 rpole~ 0.9995;
#X obj 307 522 rpole~ 0.9995;
#X obj 287 422 sin~;
#X obj 278 394 *~ 0.5;
#X obj 276 450 q8_sqrt~;
#X obj 291 491 /~;
#X obj 342 698 hip~ 10;
#X obj 389 587 clip~ 0;
#N canvas 285 131 450 300 iem_filt 0;
#X obj 82 7 inlet~;
#X obj 82 253 outlet~;
#X obj 126 36 inlet~;
#X obj 125 173 iem_cot4~;
#X obj 82 202 vcf_filter~ hp2;
#X obj 229 106 loadbang;
#X msg 229 125 1;
#X connect 0 0 4 0;
#X connect 2 0 3 0;
#X connect 3 0 4 1;
#X connect 4 0 1 0;
#X connect 5 0 6 0;
#X connect 6 0 4 2;
#X restore 327 658 pd iem_filt;
#X obj 384 544 *~ 0.25;
#X obj 177 434 hip~ 5;
#X obj 338 637 *~;
#X obj 484 551 clip~ 100 200;
#X obj 329 266 log;
#X msg 330 246 0.001;
#X obj 296 308 exp~;
#X obj 286 654 *~;
#X obj 49 624 outlet~;
#X obj 33 421 /~;
#X obj 35 395 *~ -1;
#X obj 36 460 rpole~ 0.9995;
#X obj 43 579 +~;
#X obj 67 483 *~ 0.01;
#X obj 65 544 clip~ 0 0.333333;
#X obj 310 587 *~ 0.75;
#X msg 111 284 0.5;
#X obj 493 25 declare -lib iemlib;
#X obj 264 43 pdcontrol;
#X msg 264 23 args;
#X obj 264 84 list length;
#X obj 264 64 t a f;
#X msg 263 150 0.5;
#X obj 300 150 f;
#X obj 94 52 r pd-dsp-started;
#X obj 114 115 change -1;
#X obj 299 129 b;
#X obj 263 107 sel 0;
#X obj 265 223 ./lag~ 0.9995;
#X obj 297 287 ./rover~;
#X obj 278 328 ./lag~;
#X obj 164 322 ./lag~ 0.9995;
#X obj 172 257 ./rover~;
#X obj 62 336 ./bpbuzz~ m;
#X obj 69 514 ./rminus~ 0.33333;
#X obj 273 369 ./rminus~ 1;
#X obj 396 440 ./rminus~ 0.9995;
#X obj 498 597 ./scaler~ 0.01 -1;
#X obj 498 649 ./1-0switch~;
#X connect 0 0 5 0;
#X connect 0 0 50 0;
#X connect 0 0 53 0;
#X connect 0 0 39 0;
#X connect 1 0 67 2;
#X connect 3 0 6 0;
#X connect 5 0 59 0;
#X connect 6 0 64 0;
#X connect 6 0 66 0;
#X connect 6 0 67 0;
#X connect 7 0 6 2;
#X connect 7 0 32 2;
#X connect 8 0 12 0;
#X connect 9 0 10 1;
#X connect 9 0 43 1;
#X connect 10 0 35 0;
#X connect 11 0 9 0;
#X connect 12 0 62 0;
#X connect 12 0 67 1;
#X connect 13 0 15 0;
#X connect 13 0 15 1;
#X connect 14 0 70 0;
#X connect 15 0 17 0;
#X connect 16 0 17 0;
#X connect 17 0 24 1;
#X connect 18 0 20 1;
#X connect 19 0 18 0;
#X connect 19 1 18 1;
#X connect 20 0 13 0;
#X connect 20 0 14 0;
#X connect 22 0 23 1;
#X connect 23 0 2 0;
#X connect 24 0 49 0;
#X connect 25 0 23 0;
#X connect 25 0 30 0;
#X connect 26 0 24 0;
#X connect 27 0 29 0;
#X connect 28 0 27 0;
#X connect 29 0 30 1;
#X connect 30 0 26 0;
#X connect 31 0 21 0;
#X connect 32 0 33 1;
#X connect 33 0 31 0;
#X connect 34 0 32 0;
#X connect 35 0 25 0;
#X connect 36 0 33 0;
#X connect 37 0 71 0;
#X connect 38 0 63 1;
#X connect 39 0 38 0;
#X connect 40 0 64 1;
#X connect 41 0 31 0;
#X connect 43 0 45 0;
#X connect 44 0 43 0;
#X connect 45 0 46 0;
#X connect 46 0 42 0;
#X connect 47 0 68 0;
#X connect 48 0 46 1;
#X connect 49 0 36 0;
#X connect 49 0 41 0;
#X connect 50 0 67 2;
#X connect 52 0 55 0;
#X connect 53 0 52 0;
#X connect 54 0 61 0;
#X connect 55 0 54 0;
#X connect 55 1 57 1;
#X connect 56 0 8 0;
#X connect 57 0 8 0;
#X connect 58 0 5 0;
#X connect 59 0 7 0;
#X connect 59 0 19 0;
#X connect 59 0 66 1;
#X connect 60 0 57 0;
#X connect 61 0 56 0;
#X connect 61 1 60 0;
#X connect 62 0 22 0;
#X connect 62 0 69 0;
#X connect 63 0 40 0;
#X connect 64 0 20 0;
#X connect 64 0 37 0;
#X connect 64 0 34 0;
#X connect 64 0 47 0;
#X connect 65 0 11 0;
#X connect 66 0 63 0;
#X connect 66 0 65 0;
#X connect 67 0 10 0;
#X connect 67 1 44 0;
#X connect 67 2 4 0;
#X connect 68 0 48 0;
#X connect 69 0 28 0;
#X connect 70 0 16 0;
#X connect 70 0 16 1;
#X connect 71 0 36 1;
#X connect 71 0 72 0;
#X connect 72 0 41 1;
