#N canvas 158 320 690 395 10;
#X obj 543 46 inlet;
#X obj 247 367 outlet~;
#X obj 240 122 inlet~;
#X obj 240 169 buzz~ m;
#X obj 401 305 outlet~;
#X obj 259 193 *~ -1;
#X obj 430 88 loadbang;
#X msg 365 150 0.5;
#X obj 463 163 samplerate~;
#X obj 403 186 rover~;
#X obj 403 210 *~ 0.000366211;
#X obj 242 283 /~;
#X obj 391 237 max~ 1;
#X obj 242 303 rpole~ 0.9995;
#X obj 265 146 abs~;
#X obj 252 333 +~;
#X obj 524 214 *~ 0.01;
#X obj 522 275 clip~ 0 0.333333;
#X obj 526 245 rminus~ 0.33333;
#X text 516 299 this semms to work?;
#X connect 0 0 3 2;
#X connect 2 0 3 0;
#X connect 2 0 14 0;
#X connect 3 0 5 0;
#X connect 3 1 4 0;
#X connect 5 0 11 0;
#X connect 6 0 7 0;
#X connect 6 0 8 0;
#X connect 7 0 3 2;
#X connect 8 0 9 1;
#X connect 9 0 10 0;
#X connect 10 0 12 0;
#X connect 11 0 13 0;
#X connect 12 0 11 1;
#X connect 13 0 15 0;
#X connect 14 0 9 0;
#X connect 14 0 16 0;
#X connect 15 0 1 0;
#X connect 16 0 18 0;
#X connect 17 0 15 1;
#X connect 18 0 17 0;
