#N canvas 526 65 914 809 10;
#X declare -lib iemlib;
#X obj 249 2 loadbang;
#X obj 62 316 bpbuzz~ m;
#X obj 392 128 inlet;
#X obj 195 661 outlet~;
#X obj 67 154 inlet~;
#X obj 645 534 outlet~;
#X obj 113 114 samplerate~;
#X obj 67 180 clip~ 0;
#X obj 114 147 * 0.5;
#X obj 263 157 inlet~;
#X obj 194 344 max~ 1;
#X obj 178 387 /~;
#X obj 166 324 *~ 0.000732422;
#X obj 264 182 clip~ 0.01 0.99;
#X obj 342 389 sin~;
#X obj 392 397 cos~;
#X obj 346 430 *~;
#X obj 398 445 *~;
#X obj 372 469 q8_sqrt~;
#X obj 373 324 /;
#X obj 373 298 swap 1;
#X obj 356 351 *~ 1;
#X obj 344 719 outlet~;
#X obj 227 558 -~ 0.5;
#X obj 207 612 +~;
#X obj 310 525 *~;
#X obj 169 435 rpole~ 0.9995;
#X obj 396 420 rminus~ 0.9995;
#X obj 307 502 rpole~ 0.9995;
#X obj 273 349 rminus~ 1;
#X obj 287 402 sin~;
#X obj 278 374 *~ 0.5;
#X obj 276 430 q8_sqrt~;
#X obj 291 471 /~;
#X obj 342 678 hip~ 10;
#X obj 389 567 clip~ 0;
#N canvas 285 131 450 300 iem_filt 0;
#X obj 82 7 inlet~;
#X obj 82 253 outlet~;
#X obj 126 36 inlet~;
#X obj 125 173 iem_cot4~;
#X obj 82 202 vcf_filter~ hp2;
#X obj 229 106 loadbang;
#X msg 229 125 1;
#X connect 0 0 4 0;
#X connect 2 0 3 0;
#X connect 3 0 4 1;
#X connect 4 0 1 0;
#X connect 5 0 6 0;
#X connect 6 0 4 2;
#X restore 327 638 pd iem_filt;
#X obj 384 524 *~ 0.25;
#X obj 177 414 hip~ 5;
#X obj 498 629 1-0switch~;
#X obj 338 617 *~;
#X obj 484 531 clip~ 100 200;
#X obj 498 577 scaler~ 0.01 -1;
#X obj 265 203 lag~ 0.9995;
#X obj 172 237 rover~;
#X obj 329 246 log;
#X msg 330 226 0.001;
#X obj 297 267 rover~;
#X obj 296 288 exp~;
#X obj 286 634 *~;
#X obj 49 604 outlet~;
#X obj 33 401 /~;
#X obj 35 375 *~ -1;
#X obj 36 440 rpole~ 0.9995;
#X obj 43 559 +~;
#X obj 67 463 *~ 0.01;
#X obj 65 524 clip~ 0 0.333333;
#X obj 69 494 rminus~ 0.33333;
#X obj 310 567 *~ 0.75;
#X msg 111 264 0.5;
#X obj 493 25 declare -lib iemlib;
#X obj 264 43 pdcontrol;
#X msg 264 23 args;
#X obj 264 84 list length;
#X obj 264 64 t a f;
#X obj 263 107 sel 0 1;
#X msg 263 130 0.5;
#X obj 300 130 f;
#X obj 164 302 lag~ 0.9995;
#X obj 278 308 lag~;
#X connect 0 0 6 0;
#X connect 0 0 59 0;
#X connect 0 0 62 0;
#X connect 0 0 46 0;
#X connect 1 0 11 0;
#X connect 1 1 52 0;
#X connect 1 2 5 0;
#X connect 2 0 1 2;
#X connect 4 0 7 0;
#X connect 6 0 8 0;
#X connect 6 0 20 0;
#X connect 6 0 44 1;
#X connect 7 0 1 0;
#X connect 7 0 44 0;
#X connect 7 0 69 0;
#X connect 8 0 7 2;
#X connect 8 0 35 2;
#X connect 9 0 13 0;
#X connect 10 0 11 1;
#X connect 10 0 51 1;
#X connect 11 0 38 0;
#X connect 12 0 10 0;
#X connect 13 0 1 1;
#X connect 13 0 43 0;
#X connect 14 0 16 0;
#X connect 14 0 16 1;
#X connect 15 0 27 0;
#X connect 16 0 18 0;
#X connect 17 0 18 0;
#X connect 18 0 25 1;
#X connect 19 0 21 1;
#X connect 20 0 19 0;
#X connect 20 1 19 1;
#X connect 21 0 14 0;
#X connect 21 0 15 0;
#X connect 23 0 24 1;
#X connect 24 0 3 0;
#X connect 25 0 58 0;
#X connect 26 0 24 0;
#X connect 26 0 33 0;
#X connect 27 0 17 0;
#X connect 27 0 17 1;
#X connect 28 0 25 0;
#X connect 29 0 31 0;
#X connect 30 0 32 0;
#X connect 31 0 30 0;
#X connect 32 0 33 1;
#X connect 33 0 28 0;
#X connect 34 0 22 0;
#X connect 35 0 36 1;
#X connect 36 0 34 0;
#X connect 37 0 35 0;
#X connect 38 0 26 0;
#X connect 39 0 49 1;
#X connect 40 0 36 0;
#X connect 41 0 42 0;
#X connect 42 0 39 0;
#X connect 42 0 40 1;
#X connect 43 0 23 0;
#X connect 43 0 29 0;
#X connect 44 0 47 0;
#X connect 44 0 68 0;
#X connect 45 0 47 1;
#X connect 46 0 45 0;
#X connect 47 0 48 0;
#X connect 48 0 69 1;
#X connect 49 0 34 0;
#X connect 51 0 53 0;
#X connect 52 0 51 0;
#X connect 53 0 54 0;
#X connect 54 0 50 0;
#X connect 55 0 57 0;
#X connect 56 0 54 1;
#X connect 57 0 56 0;
#X connect 58 0 40 0;
#X connect 58 0 49 0;
#X connect 59 0 1 2;
#X connect 61 0 64 0;
#X connect 62 0 61 0;
#X connect 63 0 65 0;
#X connect 64 0 63 0;
#X connect 64 1 67 1;
#X connect 65 0 66 0;
#X connect 65 1 67 0;
#X connect 66 0 9 0;
#X connect 67 0 9 0;
#X connect 68 0 12 0;
#X connect 69 0 21 0;
#X connect 69 0 41 0;
#X connect 69 0 37 0;
#X connect 69 0 55 0;
