#N canvas 219 165 1056 618 10;
#X declare -lib zexy;
#X obj 274 251 ./oscope~;
#X obj 245 134 mtof;
#X floatatom 250 99 5 0 0 0 - - -;
#X obj 246 159 smoother~;
#X obj 321 62 smoother~;
#X msg 451 82 0;
#X floatatom 499 68 5 0 0 0 - - -;
#X msg 414 79 0.45;
#X floatatom 532 92 5 0 0 0 - - -;
#X text 31 446 things can get out of hand if you modulate the phase
too quick..;
#X obj 504 252 ./oscope~;
#X obj 44 251 ./oscope~;
#X obj 426 215 *~ 2;
#X obj 487 227 wrap~;
#X obj 734 214 cos~;
#X obj 719 251 ./oscope~;
#X obj 729 233 *~ 0.6;
#X text 228 31 same as blsqri~ except that it also outputs bandlimited
saw wave out of 2nd outlet;
#X text 666 78 note: changed behavior - up to shadylib 2.1.3 if the
second argument was present the 2nd inlet would be non-functional.
This is not the case anymore thanks to new inlet~ capabilities: default
pulse-width is 0.5 \, which is overridden by the 1st argument \, which
is overridden by the 2nd signal inlet;
#X obj 384 468 hradio 15 1 0 4 empty empty saw/sqr/tri/sin 0 -8 0 10
-262144 -1 -1 3;
#X obj 41 56 declare -lib zexy;
#X obj 349 120 ./operator~ 0.45 0.5 0.5;
#X obj 246 206 ./blsasqri~;
#X obj 505 521 ./outputc~;
#X obj 508 492 multiplex~ 1 2 3 4;
#X connect 1 0 3 0;
#X connect 2 0 1 0;
#X connect 3 0 22 0;
#X connect 4 0 21 0;
#X connect 5 0 21 1;
#X connect 6 0 21 1;
#X connect 7 0 21 1;
#X connect 8 0 21 2;
#X connect 12 0 13 0;
#X connect 13 0 14 0;
#X connect 14 0 16 0;
#X connect 16 0 15 0;
#X connect 16 0 24 3;
#X connect 19 0 24 0;
#X connect 21 0 22 1;
#X connect 22 0 11 0;
#X connect 22 0 24 0;
#X connect 22 1 0 0;
#X connect 22 1 24 1;
#X connect 22 2 10 0;
#X connect 22 2 24 2;
#X connect 22 3 12 0;
#X connect 24 0 23 0;
#X connect 24 0 23 1;
