#N canvas 252 152 605 589 10;
#X obj 187 7 loadbang;
#X obj 330 81 inlet;
#X obj 114 529 outlet~;
#X obj 112 192 inlet~;
#X obj 402 473 outlet~;
#X obj 211 275 -~ 0.5;
#X obj 501 69 samplerate~;
#X obj 150 166 * 0.5;
#X obj 113 493 +~;
#X obj 195 177 inlet~;
#X obj 289 378 max~ 1;
#X obj 107 419 /~;
#X obj 301 351 *~ 0.000732422;
#X obj 99 465 rpole~ 0.9995;
#X obj 308 277 rover~;
#X obj 114 215 clip~ 0;
#X obj 101 444 hip~ 5;
#X msg 174 298 0.5;
#X obj 187 46 pdcontrol;
#X msg 188 26 args;
#X obj 188 85 list length;
#X obj 187 66 t a f;
#X msg 197 151 0.5;
#X obj 234 151 f;
#X obj 195 205 clip~ 0.01 0.99;
#X obj 442 28 r pd-dsp-started;
#X obj 191 108 sel 0;
#X obj 234 126 b;
#X obj 211 246 ./lag~ 0.9995;
#X obj 106 340 ./bpbuzz~;
#X obj 302 332 ./lag~ 0.9995;
#X connect 0 0 6 0;
#X connect 0 0 17 0;
#X connect 0 0 19 0;
#X connect 1 0 29 2;
#X connect 3 0 15 0;
#X connect 5 0 8 1;
#X connect 6 0 7 0;
#X connect 6 0 14 1;
#X connect 7 0 15 2;
#X connect 8 0 2 0;
#X connect 9 0 24 0;
#X connect 10 0 11 1;
#X connect 11 0 16 0;
#X connect 12 0 10 0;
#X connect 13 0 8 0;
#X connect 14 0 30 0;
#X connect 15 0 14 0;
#X connect 15 0 29 0;
#X connect 16 0 13 0;
#X connect 17 0 29 2;
#X connect 18 0 21 0;
#X connect 19 0 18 0;
#X connect 20 0 26 0;
#X connect 21 0 20 0;
#X connect 21 1 23 1;
#X connect 22 0 9 0;
#X connect 23 0 9 0;
#X connect 24 0 28 0;
#X connect 24 0 29 1;
#X connect 25 0 6 0;
#X connect 26 0 22 0;
#X connect 26 1 27 0;
#X connect 27 0 23 0;
#X connect 28 0 5 0;
#X connect 29 0 11 0;
#X connect 29 2 4 0;
#X connect 30 0 12 0;
