#N canvas 33 328 690 395 10;
#X obj 352 83 *~ 0;
#X obj 447 154 sig~ \$1;
#X obj 453 72 f \$1;
#X obj 456 45 loadbang;
#X obj 451 98 sel 0;
#X msg 401 84 0;
#X obj 240 169 bpbuzz~ m;
#X obj 543 46 inlet;
#X obj 258 347 outlet~;
#X obj 238 113 inlet~;
#X msg 503 95 0.25;
#X msg 419 113 1;
#X msg 447 122 0;
#X obj 303 124 +~;
#X obj 369 289 outlet~;
#X obj 304 265 -~ 0.5;
#X obj 510 172 samplerate~;
#X obj 518 210 * 0.5;
#X obj 272 312 +~;
#X obj 352 57 inlet~;
#X obj 401 262 max~ 1;
#X obj 405 165 abs~;
#X obj 236 204 /~;
#X obj 413 235 *~ 0.000732422;
#X obj 227 234 rpole~ 0.9995;
#X obj 307 146 clip~ 0.01 0.99;
#X obj 558 146 bng 15 250 50 0 empty empty empty 17 7 0 10 -262144
-1 -1;
#X obj 413 211 rover~;
#X obj 234 138 clip~ 0;
#X connect 0 0 13 0;
#X connect 1 0 13 1;
#X connect 2 0 4 0;
#X connect 3 0 2 0;
#X connect 3 0 10 0;
#X connect 3 0 16 0;
#X connect 4 0 11 0;
#X connect 4 0 12 0;
#X connect 4 1 5 0;
#X connect 4 1 1 0;
#X connect 5 0 0 1;
#X connect 6 0 22 0;
#X connect 6 2 14 0;
#X connect 7 0 6 3;
#X connect 9 0 28 0;
#X connect 10 0 6 3;
#X connect 11 0 0 1;
#X connect 12 0 1 0;
#X connect 13 0 25 0;
#X connect 15 0 18 1;
#X connect 16 0 17 0;
#X connect 16 0 27 1;
#X connect 17 0 28 2;
#X connect 18 0 8 0;
#X connect 19 0 0 0;
#X connect 20 0 22 1;
#X connect 21 0 27 0;
#X connect 22 0 24 0;
#X connect 23 0 20 0;
#X connect 24 0 18 0;
#X connect 25 0 6 1;
#X connect 25 0 15 0;
#X connect 26 0 16 0;
#X connect 27 0 23 0;
#X connect 28 0 6 0;
#X connect 28 0 21 0;
