#N canvas 127 248 690 395 10;
#X obj 456 45 loadbang;
#X obj 417 21 inlet;
#X obj 265 356 outlet~;
#X obj 238 113 inlet~;
#X obj 407 351 outlet~;
#X obj 304 265 -~ 0.5;
#X obj 501 69 samplerate~;
#X obj 288 96 * 0.5;
#X obj 272 301 +~;
#X obj 318 119 inlet~;
#X obj 396 284 max~ 1;
#X obj 240 211 /~;
#X obj 408 257 *~ 0.000732422;
#X obj 232 257 rpole~ 0.9995;
#X obj 407 177 rover~;
#X obj 240 136 clip~ 0;
#X obj 241 176 bpbuzz~;
#X obj 327 194 lag~ 0.9995;
#X obj 499 170 log;
#X msg 500 150 0.001;
#X obj 465 192 rover~;
#X obj 463 218 exp~;
#X obj 409 238 lag~;
#X obj 234 236 hip~ 5;
#X msg 303 66 0.5;
#X obj 361 45 pdcontrol;
#X msg 366 25 args;
#X obj 394 86 list length;
#X obj 380 66 t a f;
#X obj 397 109 sel 0 1;
#X msg 403 132 0.5;
#X obj 440 132 f;
#X obj 305 150 clip~ 0.01 0.99;
#X connect 0 0 6 0;
#X connect 0 0 19 0;
#X connect 0 0 24 0;
#X connect 0 0 26 0;
#X connect 1 0 16 2;
#X connect 3 0 15 0;
#X connect 5 0 8 1;
#X connect 6 0 7 0;
#X connect 6 0 14 1;
#X connect 7 0 15 2;
#X connect 8 0 2 0;
#X connect 9 0 32 0;
#X connect 10 0 11 1;
#X connect 11 0 23 0;
#X connect 12 0 10 0;
#X connect 13 0 8 0;
#X connect 14 0 20 0;
#X connect 14 0 22 0;
#X connect 15 0 16 0;
#X connect 15 0 14 0;
#X connect 16 0 11 0;
#X connect 16 2 4 0;
#X connect 17 0 5 0;
#X connect 18 0 20 1;
#X connect 19 0 18 0;
#X connect 20 0 21 0;
#X connect 21 0 22 1;
#X connect 22 0 12 0;
#X connect 23 0 13 0;
#X connect 24 0 16 2;
#X connect 25 0 28 0;
#X connect 26 0 25 0;
#X connect 27 0 29 0;
#X connect 28 0 27 0;
#X connect 28 1 31 1;
#X connect 29 0 30 0;
#X connect 29 1 31 0;
#X connect 30 0 9 0;
#X connect 31 0 9 0;
#X connect 32 0 16 1;
#X connect 32 0 17 0;
