#N canvas 597 81 843 793 10;
#X declare -stdlib iemlib;
#X obj 299 55 f \$1;
#X obj 300 30 loadbang;
#X obj 299 79 sel 0;
#X msg 276 129 0;
#X obj 149 210 bpbuzz~ m;
#X obj 376 61 inlet;
#X obj 138 562 outlet~;
#X obj 159 142 inlet~;
#X msg 303 105 1;
#X obj 645 534 outlet~;
#X obj 365 104 samplerate~;
#X obj 159 168 clip~ 0;
#X obj 210 144 * 0.5;
#X obj 245 90 inlet~;
#X obj 153 354 max~ 1;
#X obj 133 375 /~;
#X obj 166 324 *~ 0.000732422;
#X obj 264 182 clip~ 0.01 0.99;
#X obj 312 382 sin~;
#X obj 362 390 cos~;
#X obj 316 423 *~;
#X obj 368 438 *~;
#X obj 264 159 scaler~;
#X msg 317 131 0;
#X obj 342 462 q8_sqrt~;
#X obj 380 178 /;
#X obj 380 152 swap 1;
#X obj 326 344 *~ 1;
#X obj 314 712 outlet~;
#X obj 168 482 -~ 0.5;
#X obj 140 537 +~;
#X obj 284 538 *~;
#X obj 124 423 rpole~ 0.9995;
#X obj 366 413 rminus~ 0.9995;
#X obj 277 495 rpole~ 0.9995;
#X obj 243 342 rminus~ 1;
#X obj 257 395 sin~;
#X obj 248 367 *~ 0.5;
#X obj 246 423 q8_sqrt~;
#X obj 230 451 /~;
#X obj 312 671 hip~ 10;
#X obj 359 560 clip~ 0;
#N canvas 285 131 450 300 iem_filt 0;
#X obj 82 7 inlet~;
#X obj 82 253 outlet~;
#X obj 126 36 inlet~;
#X obj 230 162 sig~ 1;
#X obj 125 173 iem_cot4~;
#X obj 82 202 vcf_filter~ hp2;
#X connect 0 0 5 0;
#X connect 2 0 4 0;
#X connect 3 0 5 2;
#X connect 4 0 5 1;
#X connect 5 0 1 0;
#X restore 297 631 pd iem_filt;
#X obj 354 517 *~ 0.25;
#X obj 132 402 hip~ 5;
#X obj 468 622 1-0switch~;
#X obj 308 610 *~;
#X obj 454 524 clip~ 100 200;
#X obj 468 570 scaler~ 0.01 -1;
#X obj 262 239 lag~ 0.9995;
#X obj 172 237 rover~;
#X obj 221 238 log;
#X msg 222 218 0.001;
#X obj 187 260 rover~;
#X obj 186 281 exp~;
#X obj 164 302 lag~;
#X obj 256 627 *~;
#X obj 318 318 lag~;
#X msg 209 109 0.5;
#X obj 537 72 declare -stdlib iemlib;
#X connect 0 0 2 0;
#X connect 1 0 0 0;
#X connect 1 0 10 0;
#X connect 1 0 52 0;
#X connect 1 0 58 0;
#X connect 2 0 8 0;
#X connect 2 0 23 0;
#X connect 2 1 3 0;
#X connect 2 1 22 2;
#X connect 3 0 22 1;
#X connect 4 0 15 0;
#X connect 4 2 9 0;
#X connect 5 0 4 2;
#X connect 7 0 11 0;
#X connect 8 0 22 1;
#X connect 10 0 12 0;
#X connect 10 0 26 0;
#X connect 10 0 50 1;
#X connect 11 0 4 0;
#X connect 11 0 50 0;
#X connect 11 0 57 0;
#X connect 12 0 11 2;
#X connect 12 0 41 2;
#X connect 13 0 22 0;
#X connect 14 0 15 1;
#X connect 15 0 44 0;
#X connect 16 0 14 0;
#X connect 17 0 4 1;
#X connect 17 0 49 0;
#X connect 18 0 20 0;
#X connect 18 0 20 1;
#X connect 19 0 33 0;
#X connect 20 0 24 0;
#X connect 21 0 24 0;
#X connect 22 0 17 0;
#X connect 23 0 22 2;
#X connect 24 0 31 1;
#X connect 25 0 27 1;
#X connect 26 0 25 0;
#X connect 26 1 25 1;
#X connect 27 0 18 0;
#X connect 27 0 19 0;
#X connect 29 0 30 1;
#X connect 30 0 6 0;
#X connect 31 0 46 0;
#X connect 31 0 56 0;
#X connect 32 0 30 0;
#X connect 32 0 39 0;
#X connect 33 0 21 0;
#X connect 33 0 21 1;
#X connect 34 0 31 0;
#X connect 35 0 37 0;
#X connect 36 0 38 0;
#X connect 37 0 36 0;
#X connect 38 0 39 1;
#X connect 39 0 34 0;
#X connect 40 0 28 0;
#X connect 41 0 42 1;
#X connect 42 0 40 0;
#X connect 43 0 41 0;
#X connect 44 0 32 0;
#X connect 45 0 56 1;
#X connect 46 0 42 0;
#X connect 47 0 48 0;
#X connect 48 0 45 0;
#X connect 48 0 46 1;
#X connect 49 0 29 0;
#X connect 49 0 35 0;
#X connect 50 0 53 0;
#X connect 50 0 55 0;
#X connect 51 0 53 1;
#X connect 52 0 51 0;
#X connect 53 0 54 0;
#X connect 54 0 55 1;
#X connect 54 0 57 1;
#X connect 55 0 16 0;
#X connect 56 0 40 0;
#X connect 57 0 27 0;
#X connect 57 0 47 0;
#X connect 57 0 43 0;
#X connect 58 0 4 2;
