#N canvas 127 248 690 395 10;
#X obj 352 83 *~ 0;
#X obj 447 154 sig~ \$1;
#X obj 453 72 f \$1;
#X obj 456 45 loadbang;
#X obj 451 98 sel 0;
#X msg 401 84 0;
#X obj 417 21 inlet;
#X obj 265 356 outlet~;
#X obj 238 113 inlet~;
#X msg 419 113 1;
#X msg 447 122 0;
#X obj 303 124 +~;
#X obj 407 351 outlet~;
#X obj 304 265 -~ 0.5;
#X obj 501 69 samplerate~;
#X obj 288 96 * 0.5;
#X obj 272 301 +~;
#X obj 316 33 inlet~;
#X obj 396 284 max~ 1;
#X obj 240 211 /~;
#X obj 408 257 *~ 0.000732422;
#X obj 232 257 rpole~ 0.9995;
#X obj 407 177 rover~;
#X obj 240 136 clip~ 0;
#X obj 307 146 clip~ 0 1;
#X obj 241 176 bpbuzz~;
#X obj 327 194 lag~ 0.9995;
#X obj 499 170 log;
#X msg 500 150 0.001;
#X obj 465 192 rover~;
#X obj 463 218 exp~;
#X obj 409 238 lag~;
#X obj 234 236 hip~ 5;
#X msg 303 66 0.5;
#X connect 0 0 11 0;
#X connect 1 0 11 1;
#X connect 2 0 4 0;
#X connect 3 0 2 0;
#X connect 3 0 14 0;
#X connect 3 0 28 0;
#X connect 3 0 33 0;
#X connect 4 0 9 0;
#X connect 4 0 10 0;
#X connect 4 1 5 0;
#X connect 4 1 1 0;
#X connect 5 0 0 1;
#X connect 6 0 25 2;
#X connect 8 0 23 0;
#X connect 9 0 0 1;
#X connect 10 0 1 0;
#X connect 11 0 24 0;
#X connect 13 0 16 1;
#X connect 14 0 15 0;
#X connect 14 0 22 1;
#X connect 15 0 23 2;
#X connect 16 0 7 0;
#X connect 17 0 0 0;
#X connect 18 0 19 1;
#X connect 19 0 32 0;
#X connect 20 0 18 0;
#X connect 21 0 16 0;
#X connect 22 0 29 0;
#X connect 22 0 31 0;
#X connect 23 0 25 0;
#X connect 23 0 22 0;
#X connect 24 0 25 1;
#X connect 24 0 26 0;
#X connect 25 0 19 0;
#X connect 25 2 12 0;
#X connect 26 0 13 0;
#X connect 27 0 29 1;
#X connect 28 0 27 0;
#X connect 29 0 30 0;
#X connect 30 0 31 1;
#X connect 31 0 20 0;
#X connect 32 0 21 0;
#X connect 33 0 25 2;
