#N canvas 91 253 690 395 10;
#X obj 352 57 inlet~;
#X obj 352 83 *~ 0;
#X obj 420 157 sig~ \$1;
#X obj 453 72 f \$1;
#X obj 456 45 loadbang;
#X obj 451 98 sel 0;
#X msg 401 84 0;
#X obj 240 169 bpbuzz~ m;
#X obj 543 46 inlet;
#X obj 258 347 outlet~;
#X obj 238 113 inlet~;
#X msg 503 95 0.25;
#X obj 240 192 rpole~ 0.999;
#X msg 419 113 1;
#X msg 447 122 0;
#X obj 303 124 +~;
#X obj 329 241 outlet~;
#X obj 290 147 clip~ 0.01 0.99;
#X obj 355 197 -~ 0.5;
#X obj 510 172 samplerate~;
#X obj 234 138 clip~ 0;
#X obj 518 210 * 0.5;
#X obj 545 274 /;
#X msg 546 243 1 \$1;
#X obj 412 239 *~ 1;
#X obj 413 269 +~ 0.5;
#X obj 419 295 min~ 1;
#X obj 425 318 hanning~;
#X obj 413 346 scaler~ 0.625 0.375;
#X obj 272 312 *~;
#X connect 0 0 1 0;
#X connect 1 0 15 0;
#X connect 2 0 15 1;
#X connect 3 0 5 0;
#X connect 4 0 3 0;
#X connect 4 0 11 0;
#X connect 4 0 19 0;
#X connect 5 0 13 0;
#X connect 5 0 14 0;
#X connect 5 1 6 0;
#X connect 5 1 2 0;
#X connect 6 0 1 1;
#X connect 7 0 12 0;
#X connect 7 2 16 0;
#X connect 8 0 7 3;
#X connect 10 0 20 0;
#X connect 11 0 7 3;
#X connect 12 0 29 0;
#X connect 13 0 1 1;
#X connect 14 0 2 0;
#X connect 15 0 17 0;
#X connect 17 0 7 1;
#X connect 17 0 18 0;
#X connect 18 0 29 0;
#X connect 19 0 21 0;
#X connect 20 0 7 0;
#X connect 20 0 24 0;
#X connect 21 0 20 2;
#X connect 21 0 23 0;
#X connect 22 0 24 1;
#X connect 23 0 22 0;
#X connect 24 0 25 0;
#X connect 25 0 26 0;
#X connect 26 0 27 0;
#X connect 27 0 28 0;
#X connect 28 0 29 1;
#X connect 29 0 9 0;
