#N canvas 549 110 828 763 10;
#X obj 80 0 inlet~;
#X obj 46 350 /~;
#X obj 54 422 -~ 1;
#X obj 55 501 outlet~;
#X text 341 301 cos(x)+cos(2x)+...+cos(nx) =;
#X text 609 298 -;
#X text 622 299 1/2n;
#X text 518 293 sin((2n+1)x/2);
#X text 515 295 _______________;
#X text 527 308 2n*sin(x/2);
#X obj 189 101 /~;
#X obj 192 -8 samplerate~;
#X obj 191 -31 loadbang;
#X obj 187 39 sig~;
#X obj 188 146 -~;
#X obj 203 122 wrap~;
#X obj 190 172 max~ 1;
#X obj 195 217 *~ 2;
#X obj 54 455 *~;
#X text 417 437 2n*cos(x/2);
#X text 376 421 (2n + 1)*(cos(2n+1)x/2) - 1/2n;
#X text 383 427 ______________________;
#X obj 338 -39 inlet;
#X obj 259 -38 inlet~;
#X obj 191 195 samphold~;
#X obj 124 379 sig~ 1;
#X obj 124 401 /~;
#X obj 417 -34 inlet;
#X obj 420 -10 1-0switch;
#X obj 187 69 *~ 1;
#X obj 258 85 *~ 0;
#X obj 105 329 1-0switch~;
#X obj 47 382 *~;
#X obj 105 306 expr~ $v1 < $f2;
#X msg 255 239 1.19209e-07;
#X obj 277 458 outlet~;
#X obj 226 40 - 1;
#X obj 189 13 * 0.5;
#X text 331 230 expr~ doesn't seem to be able to handle scientific
notation \, this number is c++ numberical_limits epsilon() of 32 bit
float;
#X obj 302 114 loadbang;
#X text 435 48 todo: use loop~ instead of phasor~ \, interpolate between
integer periods;
#X obj 80 26 min~ 22049;
#X obj 258 63 min~ 22049;
#X obj 111 247 sin~;
#X obj 110 217 *~ 0.5;
#X obj 2 260 *~;
#X obj 23 230 +~ 0.5;
#X obj 19 282 sin~;
#X obj 83 98 sampphase~;
#X connect 0 0 41 0;
#X connect 1 0 32 0;
#X connect 2 0 18 0;
#X connect 10 0 14 0;
#X connect 10 0 15 0;
#X connect 11 0 37 0;
#X connect 12 0 11 0;
#X connect 13 0 29 0;
#X connect 14 0 16 0;
#X connect 15 0 14 1;
#X connect 16 0 24 0;
#X connect 17 0 26 1;
#X connect 18 0 3 0;
#X connect 22 0 48 1;
#X connect 23 0 42 0;
#X connect 24 0 17 0;
#X connect 24 0 46 0;
#X connect 25 0 26 0;
#X connect 26 0 18 1;
#X connect 27 0 28 0;
#X connect 27 0 30 1;
#X connect 28 0 29 1;
#X connect 29 0 10 0;
#X connect 30 0 10 0;
#X connect 31 0 32 1;
#X connect 32 0 2 0;
#X connect 33 0 31 0;
#X connect 33 0 2 0;
#X connect 34 0 33 1;
#X connect 36 0 41 1;
#X connect 36 0 42 1;
#X connect 37 0 13 0;
#X connect 37 0 36 0;
#X connect 39 0 34 0;
#X connect 41 0 10 1;
#X connect 41 0 48 0;
#X connect 42 0 30 0;
#X connect 43 0 33 0;
#X connect 43 0 1 1;
#X connect 44 0 43 0;
#X connect 45 0 47 0;
#X connect 46 0 45 1;
#X connect 47 0 1 0;
#X connect 48 0 24 1;
#X connect 48 0 35 0;
#X connect 48 0 44 0;
#X connect 48 0 45 0;
