#N canvas 537 60 828 763 10;
#X obj 62 -28 inlet~;
#X obj 61 461 outlet~;
#X text 341 301 cos(x)+cos(2x)+...+cos(nx) =;
#X text 609 298 -;
#X text 622 299 1/2n;
#X text 518 293 sin((2n+1)x/2);
#X text 515 295 _______________;
#X text 527 308 2n*sin(x/2);
#X text 508 438 2n*cos(x/2);
#X text 478 420 (2n + 1)*(cos(2n+1)x/2) - 1/2n;
#X text 485 426 ______________________;
#X obj 142 -69 inlet~;
#X obj 71 17 min~ 22049;
#X obj 79 240 sin~;
#X obj 35 223 sin~;
#X obj 224 7 samplerate~;
#X obj 223 -47 loadbang;
#X msg 194 230 0.0005;
#X obj 145 190 *~ 2;
#X obj 153 245 +~ 1;
#X obj 62 347 /~;
#X obj 62 316 -~ 1;
#X obj 63 288 /~;
#X obj 124 301 expr~ $v1 < $f2;
#X obj 96 339 1-0switch~;
#X obj 62 410 *~;
#X obj 137 77 min~;
#X obj 137 99 max~ 1;
#X obj 137 51 expr~ $f2 / $v1;
#X obj 117 270 abs~;
#X obj 167 135 wrap~;
#X obj 136 167 -~;
#X obj 87 69 *~ 0.5;
#X obj 138 28 ==~ 0;
#X obj 226 30 / 2;
#X obj 64 203 *~;
#X obj 152 466 outlet~;
#X obj 370 15 inlet;
#X obj 153 -45 ==~ 0;
#X obj 137 -22 expr~ $v1 / $v2;
#X obj 151 212 samphold~;
#X obj 62 380 *~;
#X obj 157 381 1-0switch~;
#X obj 236 301 sin~;
#X obj 263 425 /~;
#X obj 263 394 -~ 1;
#X obj 264 366 /~;
#X obj 241 281 *~;
#X obj 196 441 *~;
#X obj 291 237 +~ 2;
#X obj 273 261 +~ 1;
#X obj 165 350 samphold~;
#X obj 71 160 sampphase~;
#X connect 0 0 12 0;
#X connect 11 0 38 0;
#X connect 11 0 39 0;
#X connect 12 0 32 0;
#X connect 12 0 28 0;
#X connect 12 0 33 0;
#X connect 12 0 39 1;
#X connect 13 0 22 1;
#X connect 13 0 29 0;
#X connect 13 0 46 1;
#X connect 14 0 22 0;
#X connect 15 0 34 0;
#X connect 16 0 15 0;
#X connect 16 0 17 0;
#X connect 17 0 23 1;
#X connect 18 0 40 0;
#X connect 19 0 35 1;
#X connect 20 0 41 0;
#X connect 21 0 20 0;
#X connect 22 0 21 0;
#X connect 23 0 24 0;
#X connect 23 0 1 0;
#X connect 24 0 25 1;
#X connect 25 0 1 0;
#X connect 26 0 27 0;
#X connect 27 0 30 0;
#X connect 27 0 31 0;
#X connect 28 0 26 0;
#X connect 29 0 23 0;
#X connect 30 0 31 1;
#X connect 30 0 51 0;
#X connect 31 0 18 0;
#X connect 32 0 52 0;
#X connect 33 0 28 0;
#X connect 33 0 39 1;
#X connect 34 0 28 1;
#X connect 35 0 14 0;
#X connect 37 0 52 1;
#X connect 38 0 39 0;
#X connect 39 0 26 1;
#X connect 40 0 19 0;
#X connect 40 0 20 1;
#X connect 40 0 49 0;
#X connect 41 0 25 0;
#X connect 42 0 41 1;
#X connect 43 0 46 0;
#X connect 44 0 48 0;
#X connect 45 0 44 0;
#X connect 46 0 45 0;
#X connect 47 0 43 0;
#X connect 48 0 25 0;
#X connect 49 0 44 1;
#X connect 49 0 50 0;
#X connect 50 0 47 1;
#X connect 51 0 42 0;
#X connect 51 0 48 1;
#X connect 52 0 13 0;
#X connect 52 0 35 0;
#X connect 52 0 36 0;
#X connect 52 0 40 1;
#X connect 52 0 47 0;
#X connect 52 0 51 1;
