#N canvas 148 56 828 763 10;
#X obj 62 -28 inlet~;
#X obj 61 461 outlet~;
#X text 341 301 cos(x)+cos(2x)+...+cos(nx) =;
#X text 609 298 -;
#X text 622 299 1/2n;
#X text 518 293 sin((2n+1)x/2);
#X text 515 295 _______________;
#X text 527 308 2n*sin(x/2);
#X text 508 438 2n*cos(x/2);
#X text 478 420 (2n + 1)*(cos(2n+1)x/2) - 1/2n;
#X text 485 426 ______________________;
#X obj 142 -69 inlet~;
#X text 331 230 expr~ doesn't seem to be able to handle scientific
notation \, this number is c++ numberical_limits epsilon() of 32 bit
float;
#X obj 71 17 min~ 22049;
#X obj 89 236 sin~;
#X obj 35 223 sin~;
#X obj 71 160 phasor~;
#X obj 224 7 samplerate~;
#X obj 223 -47 loadbang;
#X msg 194 230 0.0005;
#X obj 139 191 *~ 2;
#X obj 144 229 +~ 1;
#X obj 62 347 /~;
#X obj 62 316 -~ 1;
#X obj 63 288 /~;
#X obj 124 291 expr~ $v1 < $f2;
#X obj 101 337 1-0switch~;
#X obj 62 376 *~;
#X obj 303 -5 bng 15 250 50 0 empty empty empty 17 7 0 10 -262144 -1
-1;
#X obj 137 77 min~;
#X obj 137 99 max~ 1;
#X obj 137 51 expr~ $f2 / $v1;
#X obj 117 270 abs~;
#X obj 151 144 wrap~;
#X obj 136 167 -~;
#X obj 87 69 *~ 0.5;
#X obj 138 28 ==~ 0;
#X obj 226 30 / 2;
#X obj 64 203 *~;
#X obj 152 466 outlet~;
#X obj 370 15 inlet;
#X obj 153 -45 ==~ 0;
#X obj 137 -22 expr~ $v1 / $v2;
#X obj 146 209 samphold~;
#X connect 0 0 13 0;
#X connect 11 0 41 0;
#X connect 11 0 42 0;
#X connect 13 0 35 0;
#X connect 13 0 31 0;
#X connect 13 0 36 0;
#X connect 13 0 42 1;
#X connect 14 0 24 1;
#X connect 14 0 32 0;
#X connect 15 0 24 0;
#X connect 16 0 14 0;
#X connect 16 0 38 0;
#X connect 16 0 39 0;
#X connect 16 0 43 1;
#X connect 17 0 37 0;
#X connect 18 0 17 0;
#X connect 18 0 19 0;
#X connect 19 0 25 1;
#X connect 20 0 43 0;
#X connect 21 0 38 1;
#X connect 22 0 27 0;
#X connect 23 0 22 0;
#X connect 24 0 23 0;
#X connect 25 0 26 0;
#X connect 25 0 1 0;
#X connect 26 0 27 1;
#X connect 27 0 1 0;
#X connect 28 0 17 0;
#X connect 29 0 30 0;
#X connect 30 0 33 0;
#X connect 30 0 34 0;
#X connect 31 0 29 0;
#X connect 32 0 25 0;
#X connect 33 0 34 1;
#X connect 34 0 20 0;
#X connect 35 0 16 0;
#X connect 36 0 31 0;
#X connect 36 0 42 1;
#X connect 37 0 31 1;
#X connect 38 0 15 0;
#X connect 40 0 16 1;
#X connect 41 0 42 0;
#X connect 42 0 29 1;
#X connect 43 0 21 0;
#X connect 43 0 22 1;
