#N canvas 687 71 724 605 10;
#X obj 82 13 inlet~;
#X obj 84 70 *~ 0.5;
#X obj 84 385 /~;
#X obj 84 423 -~ 1;
#X obj 106 511 *~;
#X obj 114 550 outlet~;
#N canvas 28 543 420 275 \$0-fix-discontinuity 0;
#X obj 53 177 /~;
#X obj 50 146 -~;
#X obj 51 86 inlet~;
#X obj 50 200 outlet~;
#X text 49 44 if denominator falls between -0.0002 and 0.0002 \, output
0 \, otherwise 1;
#X obj 66 119 clip~ -0.0002 0.0002;
#X connect 0 0 3 0;
#X connect 1 0 0 0;
#X connect 1 0 0 1;
#X connect 2 0 1 0;
#X connect 2 0 5 0;
#X connect 5 0 1 1;
#X restore 148 424 pd \$0-fix-discontinuity;
#X obj 160 488 *~ -1;
#X obj 161 511 +~ 1;
#X text 202 513 <- reverse toggle (fills in discontinuity);
#X text 291 324 buzz via dirichlet kernel:;
#X text 251 361 cos(x)+cos(2x)+...+cos(nx) =;
#X text 519 358 -;
#X text 532 359 1/2n;
#X obj 85 307 sin~;
#X obj 128 320 sin~;
#X obj 85 212 phasor~;
#X text 428 353 sin((2n+1)x/2);
#X text 425 355 _______________;
#X text 437 368 2n*sin(x/2);
#X obj 148 109 /~;
#X obj 149 27 samplerate~;
#X obj 148 4 loadbang;
#X obj 144 74 sig~;
#X obj 146 48 / 2;
#X obj 134 167 -~;
#X obj 151 140 wrap~;
#X obj 135 190 max~ 1;
#X obj 140 221 *~ 2;
#X obj 137 258 +~ 1;
#X obj 86 261 *~;
#X obj 84 456 *~;
#X obj 75 44 min~ 22050;
#X obj 173 307 expr~ 1/$v1;
#X text 366 431 =;
#X text 383 427 __________________________;
#X text 379 424 (2n + 1)*(cos(2n+1)x/2) - 1 2n*cos(x/2);
#X connect 0 0 32 0;
#X connect 1 0 16 0;
#X connect 2 0 3 0;
#X connect 3 0 31 0;
#X connect 4 0 5 0;
#X connect 6 0 4 1;
#X connect 6 0 7 0;
#X connect 7 0 8 0;
#X connect 8 0 5 0;
#X connect 14 0 2 0;
#X connect 15 0 2 1;
#X connect 15 0 6 0;
#X connect 16 0 15 0;
#X connect 16 0 30 0;
#X connect 20 0 26 0;
#X connect 20 0 25 0;
#X connect 21 0 24 0;
#X connect 22 0 21 0;
#X connect 23 0 20 0;
#X connect 24 0 23 0;
#X connect 24 0 32 1;
#X connect 25 0 27 0;
#X connect 26 0 25 1;
#X connect 27 0 28 0;
#X connect 28 0 29 0;
#X connect 28 0 33 0;
#X connect 29 0 30 1;
#X connect 30 0 14 0;
#X connect 31 0 4 0;
#X connect 32 0 1 0;
#X connect 32 0 20 1;
#X connect 33 0 31 1;
