#N canvas 380 485 532 349 10;
#X obj 211 52 inlet~;
#X obj 178 248 outlet~;
#X obj 273 247 outlet~;
#X text 62 11 phasor or another signal from 0 to 1 \, to spacialize
from front to right speaker to back to left speaker. output is 0 to
1;
#X obj 205 131 cos~;
#X obj 280 134 sin~;
#X obj 322 62 inlet;
#X obj 271 65 inlet;
#X text 408 45 center;
#X obj 117 61 loadbang;
#X obj 383 78 inlet;
#X obj 441 77 inlet;
#X text 394 60 x;
#X text 454 59 y;
#X obj 52 98 f \$1;
#X obj 136 91 f \$2;
#X obj 372 106 f \$3;
#X obj 456 120 f \$4;
#X text 255 45 x scale;
#X text 330 46 y scale;
#X obj 126 124 ./if 0 0.5;
#X obj 43 122 ./if 0 0.5;
#X obj 167 186 ./scaler~;
#X obj 293 183 ./scaler~;
#X connect 0 0 4 0;
#X connect 0 0 5 0;
#X connect 4 0 22 0;
#X connect 5 0 23 0;
#X connect 6 0 23 1;
#X connect 7 0 22 1;
#X connect 9 0 14 0;
#X connect 9 0 15 0;
#X connect 9 0 16 0;
#X connect 9 0 17 0;
#X connect 10 0 22 2;
#X connect 11 0 23 2;
#X connect 14 0 21 0;
#X connect 15 0 20 0;
#X connect 16 0 22 2;
#X connect 17 0 23 2;
#X connect 20 0 23 1;
#X connect 21 0 22 1;
#X connect 22 0 1 0;
#X connect 23 0 2 0;
