#N canvas 535 314 493 345 10;
#X obj 97 53 sndfilereader~;
#X obj 131 106 smoother~;
#X obj 270 120 smoother~;
#X obj 296 162 abs~;
#X obj 284 183 -~;
#X obj 147 171 sig~ 1;
#X obj 107 289 output~;
#X obj 330 217 dbgr;
#X obj 304 21 bang;
#X obj 122 229 combfilter~;
#X obj 217 231 combfilter~;
#X connect 0 0 9 0;
#X connect 0 1 10 0;
#X connect 0 2 8 0;
#X connect 1 0 9 1;
#X connect 1 0 10 1;
#X connect 2 0 3 0;
#X connect 2 0 9 2;
#X connect 2 0 10 2;
#X connect 3 0 4 1;
#X connect 4 0 7 0;
#X connect 4 0 9 3;
#X connect 4 0 10 3;
#X connect 5 0 4 0;
#X connect 8 0 0 2;
#X connect 9 0 6 0;
#X connect 10 0 6 1;
