#N canvas 354 198 563 501 10;
#X obj 55 139 *~;
#X obj 23 195 *~;
#X obj 30 163 +~;
#X obj 70 107 vd~ pants-\$0;
#X obj 25 215 hip~ 5;
#X obj 141 71 abs~;
#X obj 324 88 inlet~ hold;
#X obj 1 3 inlet~ lin;
#X obj 180 18 inlet~ lin;
#X obj 86 1 loadbang;
#X obj 68 21 samplerate~;
#X obj 62 41 / 2;
#X obj -3 72 lp4_butt~ 44100 100;
#X obj 291 33 inlet~ hold;
#X obj 337 159 block~ 2 1 2;
#X obj 177 85 clip~ -1 1;
#X obj 22 243 outlet~;
#X obj 95 199 delwrite~ pants-\$0 2000;
#X connect 0 0 2 1;
#X connect 1 0 4 0;
#X connect 2 0 1 0;
#X connect 2 0 17 0;
#X connect 3 0 0 0;
#X connect 4 0 16 0;
#X connect 5 0 3 0;
#X connect 6 0 1 1;
#X connect 7 0 12 0;
#X connect 8 0 5 0;
#X connect 9 0 10 0;
#X connect 10 0 11 0;
#X connect 11 0 12 1;
#X connect 12 0 2 0;
#X connect 13 0 15 0;
#X connect 15 0 0 1;
#X coords 0 0 1 1 150 150 0;
