#N canvas 695 272 450 300 10;
#X obj 80 25 inlet~;
#X obj 232 133 -~;
#X obj 168 184 *~;
#X obj 89 115 cos~;
#X obj 94 68 *~ 0.5;
#X obj 194 46 inlet~;
#X obj 262 49 inlet~;
#X obj 217 222 outlet~;
#X obj 94 150 ./scaler~ -0.5 0.5;
#X connect 0 0 4 0;
#X connect 1 0 2 1;
#X connect 2 0 7 0;
#X connect 3 0 8 0;
#X connect 4 0 3 0;
#X connect 5 0 1 0;
#X connect 6 0 1 1;
#X connect 6 0 7 0;
#X connect 8 0 2 0;
