#N canvas 700 174 419 430 10;
#X obj 93 162 ./oscope~;
#X text 165 -3 does cosine interpolation;
#X obj 94 83 ./shnoise~;
#X obj 92 116 ./cosinterp~;
#X obj 76 24 ./smoother~;
#X connect 2 0 3 0;
#X connect 2 1 3 1;
#X connect 2 2 3 2;
#X connect 3 0 0 0;
#X connect 4 0 2 0;
