#N canvas 391 146 706 389 10;
#X obj 276 100 pow~;
#X obj 257 65 sig~ 2;
#X obj 311 23 inlet~;
#X obj 211 146 *~;
#X obj 203 61 inlet~;
#X obj 227 299 /~;
#X text 264 211 floor;
#X obj 223 347 outlet~;
#X obj 318 139 wrap~;
#X obj 296 186 /~ 2;
#X obj 215 174 +~;
#X obj 295 121 sig~ 1;
#X obj 302 165 -~;
#X obj 244 127 -~ 1;
#X obj 178 82 clip~ -1 1;
#X obj 153 111 scaler~ 0.5 0.5;
#X obj 226 324 scaler~ 2 -1;
#X obj 320 51 clip~ 1 24;
#X obj 217 220 wrap~;
#X obj 204 247 -~;
#X obj 274 236 wrap~;
#X obj 261 263 -~;
#X connect 0 0 13 0;
#X connect 0 0 8 0;
#X connect 1 0 0 0;
#X connect 2 0 17 0;
#X connect 3 0 10 0;
#X connect 4 0 14 0;
#X connect 5 0 16 0;
#X connect 8 0 12 1;
#X connect 9 0 10 1;
#X connect 10 0 18 0;
#X connect 10 0 19 0;
#X connect 11 0 12 0;
#X connect 12 0 9 0;
#X connect 13 0 3 1;
#X connect 13 0 20 0;
#X connect 13 0 21 0;
#X connect 14 0 15 0;
#X connect 15 0 3 0;
#X connect 16 0 7 0;
#X connect 17 0 0 1;
#X connect 18 0 19 1;
#X connect 19 0 5 0;
#X connect 20 0 21 1;
#X connect 21 0 5 1;
