#N canvas 391 146 706 389 10;
#X obj 270 21 inlet~;
#X obj 215 150 *~;
#X obj 153 57 inlet~;
#X obj 215 299 /~;
#X text 271 211 floor;
#X obj 215 347 outlet~;
#X obj 215 212 +~;
#X obj 268 123 -~ 1;
#X obj 153 82 clip~ -1 1;
#X obj 153 101 scaler~ 0.5 0.5;
#X obj 215 324 scaler~ 2 -1;
#X obj 270 49 clip~ 1 24;
#X obj 230 238 wrap~;
#X obj 215 264 -~;
#X obj 283 236 wrap~;
#X obj 268 263 -~;
#X obj 315 147 rminus~ 1;
#X obj 315 127 wrap~;
#X obj 315 169 *~ 0.5;
#X obj 270 73 *~ 12;
#X obj 268 96 transpose~;
#X text 340 82 power of 2;
#X connect 0 0 11 0;
#X connect 1 0 6 0;
#X connect 2 0 8 0;
#X connect 3 0 10 0;
#X connect 6 0 12 0;
#X connect 6 0 13 0;
#X connect 7 0 1 1;
#X connect 7 0 14 0;
#X connect 7 0 15 0;
#X connect 8 0 9 0;
#X connect 9 0 1 0;
#X connect 10 0 5 0;
#X connect 11 0 19 0;
#X connect 12 0 13 1;
#X connect 13 0 3 0;
#X connect 14 0 15 1;
#X connect 15 0 3 1;
#X connect 16 0 18 0;
#X connect 17 0 16 0;
#X connect 18 0 6 1;
#X connect 19 0 20 0;
#X connect 20 0 7 0;
#X connect 20 0 17 0;
