#N canvas 391 146 706 389 10;
#X obj 257 65 sig~ 2;
#X obj 311 23 inlet~;
#X obj 211 146 *~;
#X obj 203 61 inlet~;
#X obj 227 299 /~;
#X text 264 211 floor;
#X obj 223 347 outlet~;
#X obj 215 174 +~;
#X obj 244 127 -~ 1;
#X obj 178 82 clip~ -1 1;
#X obj 153 111 scaler~ 0.5 0.5;
#X obj 226 324 scaler~ 2 -1;
#X obj 320 51 clip~ 1 24;
#X obj 217 220 wrap~;
#X obj 204 247 -~;
#X obj 274 236 wrap~;
#X obj 261 263 -~;
#X obj 301 154 rminus~ 1;
#X obj 276 100 pow~;
#X obj 347 124 wrap~;
#X obj 296 186 *~ 0.5;
#X connect 0 0 18 0;
#X connect 1 0 12 0;
#X connect 2 0 7 0;
#X connect 3 0 9 0;
#X connect 4 0 11 0;
#X connect 7 0 13 0;
#X connect 7 0 14 0;
#X connect 8 0 2 1;
#X connect 8 0 15 0;
#X connect 8 0 16 0;
#X connect 9 0 10 0;
#X connect 10 0 2 0;
#X connect 11 0 6 0;
#X connect 12 0 18 1;
#X connect 13 0 14 1;
#X connect 14 0 4 0;
#X connect 15 0 16 1;
#X connect 16 0 4 1;
#X connect 17 0 20 0;
#X connect 18 0 8 0;
#X connect 18 0 19 0;
#X connect 19 0 17 0;
#X connect 20 0 7 1;
