#N canvas 734 394 706 389 10;
#X obj 276 100 pow~;
#X obj 257 65 sig~ 2;
#X obj 311 23 inlet~;
#X obj 222 156 *~;
#X obj 222 211 int~;
#X obj 222 184 +~ 0.5;
#X obj 206 103 inlet~;
#X obj 227 299 /~;
#X text 264 211 floor;
#X obj 222 335 outlet~;
#X obj 303 230 int~;
#X obj 292 194 +~ 0.5;
#X obj 320 51 clip~ -1 24;
#X connect 0 0 3 1;
#X connect 0 0 11 0;
#X connect 1 0 0 0;
#X connect 2 0 12 0;
#X connect 3 0 5 0;
#X connect 4 0 7 0;
#X connect 5 0 4 0;
#X connect 6 0 3 0;
#X connect 7 0 9 0;
#X connect 10 0 7 1;
#X connect 11 0 10 0;
#X connect 12 0 0 1;
