#N canvas 407 105 1033 658 10;
#X obj 110 57 customenv;
#X obj 479 162 tabsave;
#X obj 349 26 bng 15 250 50 0 empty empty empty 17 7 0 10 -262144 -1
-1;
#X obj 498 213 route size array;
#X text 374 28 save;
#X text 412 87 inlets: tabread4~ index \, size in samples \, get array
size out of 2nd outlet \, normalize array \, send subpatch #;
#X obj 538 247 tabset;
#X msg 417 224 set \$1-env;
#X msg 477 138 set \$1-env;
#X obj 351 61 t b b;
#X floatatom 153 10 5 0 0 0 - - -;
#X msg 153 -14 set \$1;
#X obj 213 36 bng 15 250 50 0 empty empty empty 17 7 0 10 -262144 -1
-1;
#X text 190 16 get size;
#X obj 266 36 bng 15 250 50 0 empty empty empty 17 7 0 10 -262144 -1
-1;
#X text 264 20 normalize;
#X obj 61 38 line~;
#X msg 30 -3 1;
#X obj 212 435 outputc~;
#X msg 22 30 0;
#N canvas 376 22 815 782 messagebox 0;
#X obj 60 23 inlet;
#X obj 82 119 outlet;
#X msg 178 45 size 10000 \, array 0.0641113 0.0657878 -0.0918032 -0.0918032
-0.0918032 -0.0918032 -0.0918032 -0.0834207 -0.0817442 -0.0800677 -0.0783912
-0.0767147 -0.0750382 -0.0700087 -0.0649792 -0.0599497 -0.0549202 -0.0247432
-0.0130077 -0.00127219 0.0912479 0.0913716 0.0914952 0.0916189 0.0917425
0.0918661 0.0919898 0.0921134 0.0922371 0.0923607 0.0924843 0.092608
0.0927316 0.0928553 0.0929789 0.0931025 0.0932262 0.0933498 0.0934735
0.0935971 0.0937207 0.0938444 0.093968 0.0940917 0.0942153 0.0943389
0.0944626 0.0945862 0.0947099 0.0948335 0.0949571 0.0950808 0.0952044
0.0953281 0.0954517 0.0955753 0.095699 0.0958226 0.0959463 0.0960699
0.0961935 0.0963172 0.0964408 0.0965645 0.0966881 0.0968117 0.0969354
0.097059 0.0971827 0.0973063 0.0974299 0.0975536 0.0976772 0.0978009
0.0979245 0.0980481 0.0981718 0.0982954 0.0984191 0.0985427 0.0986663
0.09879 0.0989136 0.0990373 0.0991609 0.0992845 0.0994082 0.0995318
0.0996555 0.0997791 0.0999027 0.100026 0.10015 0.100274 0.100397 0.100521
0.100645 0.100768 0.100892 0.101015 0.101139 0.101263 0.101386 0.10151
0.101634 0.101757 0.101881 0.102005 0.102128 0.102252 0.102376 0.102499
0.102623 0.102746 0.10287 0.102994 0.103117 0.103241 0.103365 0.103488
0.103612 0.103859 0.104106 0.104353 0.104601 0.104848 0.105095 0.105343
0.10559 0.105837 0.106084 0.106332 0.106579 0.106826 0.107074 0.107321
0.107568 0.107815 0.108063 0.10831 0.108557 0.108805 0.109052 0.109299
0.109546 0.109794 0.110041 0.110288 0.110535 0.110783 0.11103 0.111277
0.111525 0.111772 0.112019 0.112266 0.112514 0.112761 0.113008 0.113256
0.113503 0.11375 0.113997 0.114245 0.114492 0.114739 0.114987 0.115234
0.115481 0.115728 0.115976 0.116223 0.11647 0.116717 0.116965 0.117212
0.117459 0.117707 0.117954 0.118201 0.118448 0.118696 0.118943 0.11919
0.119438 0.119685 0.119932 0.120179 0.120427 0.120674 0.120921 0.121169
0.121416 0.121663 0.12191 0.122158 0.122405 0.122652 0.122899 0.123147
0.123394 0.123641 0.123889 0.124136 0.124383 0.12463 0.124878 0.125125
0.125372 0.12562 0.125867 0.126114 0.126361 0.126609 0.126856 0.127103
0.12735 0.127598 0.127845 0.128092 0.128339 0.128463 0.128587 0.12871
0.128834 0.128957 0.129081 0.129205 0.129328 0.129452 0.129576 0.129699
0.129823 0.129947 0.13007 0.130194 0.130317 0.130441 0.130565 0.130688
0.130812 0.130936 0.131059 0.131183 0.131307 0.13143 0.131554 0.131678
0.131801 0.131925 0.132048 0.132172 0.132296 0.132419 0.132543 0.132667
0.13279 0.132914 0.133038 0.133161 0.133285 0.133408 0.133532 0.133656
0.133779 0.133903 0.134027 0.13415 0.134274 0.134398 0.134521 0.134645
0.134769 0.134892 0.135016 0.135139 0.135263 0.135387 0.13551 0.135634
0.135758 0.135881 0.136005 0.136129 0.136252 0.136376 0.136499 0.136623
0.136747 0.13687 0.136994 0.137118 0.137241 0.137365 0.137489 0.137612
0.137736 0.13786 0.137983 0.138107 0.13823 0.138354 0.138478 0.138601
0.138725 0.138849 0.138972 0.139096 0.13922 0.139343 0.139467 0.13959
0.139714 0.139838 0.139961 0.140085 0.140209 0.140332 0.140456 0.14058
0.140703 0.140827 0.140951 0.141074 0.141198 0.141321 0.141445 0.141569
0.141692 0.141816 0.14194 0.142063 0.142187 0.142311 0.142434 0.142558
0.142681 0.142805 0.142929 0.143052 0.143176 0.1433 0.143423 0.143547
0.143671 0.143794 0.143918 0.144042 0.144165 0.144289 0.144412 0.144536
0.14466 0.144783 0.144907 0.145031 0.145154 0.145278 0.145402 0.145525
0.145649 0.145772 0.145896 0.14602 0.146143 0.146267 0.146391 0.146514
0.146638 0.146762 0.146885 0.147009 0.147133 0.147256 0.14738 0.147503
0.147627 0.147751 0.147874 0.147998 0.148122 0.148245 0.148369 0.148493
0.148616 0.14874 0.148863 0.148987 0.149111 0.149234 0.149358 0.149482
0.149605 0.149729 0.149853 0.149976 0.1501 0.150224 0.150347 0.150471
0.150594 0.150718 0.150842 0.150965 0.151089 0.151213 0.151336 0.15146
0.151584 0.151707 0.151831 0.151954 0.152078 0.152202 0.152325 0.152449
0.152573 0.152696 0.15282 0.152944 0.153067 0.153191 0.153315 0.153438
0.153562 0.153685 0.153809 0.153933 0.154056 0.15418 0.154304 0.154427
0.154551 0.154675 0.154798 0.154922 0.155045 0.155169 0.155293 0.155416
0.15554 0.155664 0.155787 0.155911 0.156035 0.156158 0.156282 0.156406
0.156529 0.156653 0.156776 0.1569 0.157024 0.157147 0.157271 0.157395
0.157518 0.157642 0.157766 0.157889 0.158013 0.158136 0.15826 0.158384
0.158507 0.158631 0.158755 0.158878 0.159002 0.159126 0.159249 0.159373
0.159496 0.15962 0.159743 0.159867 0.159991 0.160114 0.160238 0.160362
0.160485 0.160609 0.160733 0.160856 0.16098 0.161104 0.161227 0.161351
0.161474 0.161598 0.161722 0.161845 0.161969 0.162093 0.162216 0.16234
0.162464 0.162587 0.162711 0.162834 0.162958 0.163082 0.163205 0.163329
0.163453 0.163576 0.1637 0.163824 0.163947 0.164071 0.164195 0.164318
0.164442 0.164565 0.164689 0.164813 0.164936 0.16506 0.165184 0.165307
0.165431 0.165555 0.165678 0.165802 0.165925 0.166049 0.166173 0.166296
0.16642 0.166544 0.166667 0.166791 0.166915 0.167038 0.167162 0.167286
0.167409 0.167533 0.167656 0.16778 0.167904 0.168027 0.168151 0.168275
0.168398 0.168522 0.168646 0.168769 0.168893 0.169016 0.16914 0.169264
0.169387 0.169511 0.169635 0.169758 0.169882 0.170006 0.170129 0.170253
0.170377 0.1705 0.170624 0.170747 0.170871 0.170995 0.171118 0.171242
0.171366 0.171489 0.171613 0.171737 0.17186 0.171984 0.172107 0.172231
0.172355 0.172478 0.172602 0.172726 0.172849 0.172973 0.173097 0.17322
0.173344 0.173468 0.173591 0.173715 0.173838 0.173962 0.174086 0.174209
0.174333 0.174457 0.17458 0.174704 0.174828 0.174951 0.175075 0.175198
0.175322 0.175446 0.175569 0.175693 0.175817 0.17594 0.176064 0.176188
0.176311 0.176435 0.176559 0.176682 0.176806 0.176929 0.177053 0.177177
0.1773 0.177424 0.177548 0.177671 0.177795 0.177919 0.178042 0.178166
0.178289 0.178413 0.178537 0.17866 0.178784 0.178908 0.179031 0.179155
0.179279 0.179402 0.179526 0.17965 0.179773 0.179897 0.18002 0.180144
0.180268 0.180391 0.180515 0.180639 0.180762 0.180886 0.18101 0.181133
0.181257 0.18138 0.181504 0.181628 0.181751 0.181875 0.181999 0.182122
0.182246 0.18237 0.182493 0.182617 0.182741 0.182864 0.182988 0.183111
0.183235 0.183359 0.183482 0.183606 0.18373 0.183853 0.183977 0.184163
0.184348 0.184534 0.184719 0.184905 0.18509 0.185275 0.185461 0.185646
0.185832 0.186017 0.186203 0.186388 0.186574 0.186759 0.186945 0.18713
0.187315 0.187501 0.187686 0.187872 0.188057 0.188243 0.188428 0.188614
0.188799 0.188985 0.18917 0.189355 0.189541 0.189726 0.189912 0.190097
0.190283 0.190468 0.190654 0.190839 0.191025 0.19121 0.191395 0.191581
0.191766 0.191952 0.192137 0.192323 0.192508 0.192694 0.192879 0.193065
0.19325 0.193435 0.193621 0.193806 0.193992 0.194177 0.194363 0.194548
0.194734 0.194919 0.195105 0.19529 0.195475 0.195661 0.195846 0.196032
0.196217 0.196403 0.196588 0.196774 0.196959 0.197145 0.19733 0.197515
0.197701 0.197886 0.198072 0.198257 0.198443 0.198628 0.198814 0.198999
0.199185 0.19937 0.199555 0.199741 0.199926 0.200112 0.200297 0.200483
0.200668 0.200854 0.201039 0.201225 0.20141 0.201595 0.201781 0.201966
0.202152 0.202337 0.202524 0.202648 0.202771 0.202895 0.203019 0.203142
0.203266 0.20339 0.203513 0.203637 0.20376 0.203884 0.204008 0.204131
0.204255 0.204379 0.204502 0.204626 0.20475 0.204873 0.204997 0.20512
0.205244 0.205368 0.205491 0.205615 0.205739 0.205862 0.205986 0.20611
0.206233 0.206357 0.206481 0.206604 0.206728 0.206851 0.206975 0.207099
0.207222 0.207346 0.20747 0.207593 0.207717 0.207841 0.207964 0.208088
0.208211 0.208335 0.208459 0.208582 0.208706 0.20883 0.208953 0.209077
0.209201 0.209324 0.209448 0.209572 0.209695 0.209819 0.209942 0.210066
0.21019 0.210313 0.210437 0.210561 0.210684 0.210808 0.210932 0.211055
0.211179 0.211302 0.211426 0.21155 0.211673 0.211797 0.211921 0.212044
0.212168 0.212292 0.212415 0.212539 0.212663 0.212786 0.21291 0.213033
0.213157 0.213281 0.213404 0.213528 0.213652 0.213775 0.213899 0.214023
0.214146 0.21427 0.214393 0.214517 0.214641 0.214764 0.214888 0.215012
0.215135 0.215259 0.215383 0.215506 0.21563 0.215754 0.215877 0.216001
0.216124 0.216248 0.216372 0.216495 0.216619 0.216743 0.216866 0.21699
0.217113 0.217237 0.217361 0.217484 0.217608 0.217732 0.217855 0.217979
0.218103 0.218226 0.21835 0.218473 0.218597 0.218721 0.218844 0.218968
0.219092 0.219215 0.219339 0.219462 0.219586 0.21971 0.219833 0.219957
0.220081 0.220204 0.220328 0.220451 0.220575 0.220699 0.220822 0.220946
0.22107 0.221193 0.221317 0.22144 0.221564 0.221688 0.221811 0.221935
0.222059 0.222182 0.222306 0.222429 0.222553 0.222677 0.2228 0.222924
0.223048 0.223171 0.223295 0.223418 0.223542 0.223666 0.223789 0.223913
0.224037 0.22416 0.224284 0.224407 0.224531 0.224655 0.224778 0.224902
0.225026 0.225149 0.225273 0.225397 0.22552 0.225644 0.225767 0.225891
0.226015 0.226138 0.226262 0.226386 0.226509 0.226633 0.226756 0.22688
0.227004 0.227127 0.227251 0.227375 0.227498 0.227622 0.227745 0.227869
0.227993 0.228116 0.22824 0.228364 0.228487 0.228611 0.228734 0.228858
0.228982 0.229105 0.229229 0.229353 0.229476 0.2296 0.229723 0.229847
0.229971 0.230094 0.230218 0.230342 0.230465 0.230589 0.230712 0.230836
0.23096 0.231083 0.231207 0.231331 0.231454 0.231578 0.231701 0.231825
0.231949 0.232072 0.232196 0.23232 0.232443 0.232567 0.232691 0.232814
0.232938 0.233061 0.233185 0.233309 0.233434 0.233558 0.233681 0.233805
0.233928 0.234052 0.234176 0.234299 0.234423 0.234547 0.23467 0.234794
0.234917 0.235041 0.235165 0.235288 0.235412 0.235536 0.235659 0.235783
0.235907 0.23603 0.236154 0.236277 0.236401 0.236525 0.236648 0.236772
0.236896 0.237019 0.237143 0.237266 0.23739 0.237514 0.237637 0.237761
0.237885 0.238008 0.238132 0.238255 0.238379 0.238503 0.238626 0.23875
0.238874 0.238997 0.239121 0.239244 0.239368 0.239492 0.239615 0.239739
0.239863 0.239986 0.24011 0.240233 0.240357 0.240481 0.240604 0.240728
0.240852 0.240975 0.241099 0.241222 0.241346 0.24147 0.241593 0.241717
0.241841 0.241964 0.242088 0.242211 0.242335 0.242459 0.242582 0.242706
0.24283 0.242953 0.243077 0.243201 0.243324 0.243448 0.243571 0.243695
0.243819 0.243942 0.244066 0.24419 0.244313 0.244437 0.24456 0.244684
0.244808 0.244931 0.245055 0.245179 0.245302 0.245426 0.245549 0.245673
0.245797 0.24592 0.246044 0.246168 0.246291 0.246415 0.246538 0.246662
0.246786 0.246909 0.247033 0.247157 0.24728 0.247404 0.247527 0.247651
0.247775 0.247898 0.248022 0.248146 0.248269 0.248393 0.248516 0.24864
0.248764 0.248887 0.249011 0.249135 0.249258 0.249382 0.249505 0.249629
0.249753 0.249876 0.25 0.250124 0.250247 0.250371 0.250495 0.250618
0.250742 0.250865 0.250989 0.251113 0.251236 0.25136 0.251484 0.251607
0.251731 0.251854 0.251979 0.252144 0.252309 0.252474 0.252638 0.252803
0.252968 0.253133 0.253298 0.253463 0.253627 0.253792 0.253957 0.254122
0.254287 0.254452 0.254617 0.254781 0.254946 0.255111 0.255276 0.255441
0.255606 0.25577 0.255935 0.2561 0.256265 0.25643 0.256595 0.25676
0.256924 0.257089 0.257254 0.257419 0.257584 0.257749 0.257913 0.258078
0.258243 0.258408 0.258573 0.258738 0.258902 0.259067 0.259232 0.259397
0.259562 0.259727 0.259892 0.260056 0.260221 0.260386 0.260551 0.260716
0.260881 0.261045 0.26121 0.261375 0.26154 0.261705 0.26187 0.262035
0.262199 0.262364 0.262529 0.262694 0.262859 0.263024 0.263188 0.263353
0.263518 0.263683 0.263848 0.264013 0.264178 0.264342 0.264507 0.264672
0.264837 0.265002 0.265167 0.265331 0.265496 0.265661 0.265826 0.265991
0.266156 0.26632 0.266485 0.26665 0.266815 0.26698 0.267145 0.26731
0.267474 0.267639 0.267804 0.267969 0.268134 0.268299 0.268463 0.268628
0.268793 0.268958 0.269123 0.269288 0.269453 0.269617 0.269782 0.269947
0.270112 0.270277 0.270442 0.270606 0.270771 0.270936 0.271101 0.271266
0.271431 0.271596 0.27176 0.271925 0.27209 0.272255 0.27242 0.272585
0.272749 0.272914 0.273079 0.273244 0.273409 0.273574 0.273739 0.273903
0.274068 0.274233 0.274398 0.274563 0.274728 0.274892 0.275057 0.275222
0.275387 0.275552 0.275717 0.275881 0.276046 0.276211 0.276376 0.276541
0.276708 0.276832 0.276955 0.277079 0.277202 0.277326 0.27745 0.277573
0.277697 0.277821 0.277944 0.278068 0.278192 0.278315 0.278439 0.278562
0.278686 0.27881 0.278933 0.279057 0.279181 0.279304 0.279428 0.279551
0.279675 0.279799 0.279922 0.280046 0.28017 0.280293 0.280417 0.28054
0.280664 0.280788 0.280911 0.281035 0.281159 0.281282 0.281406 0.281529
0.281653 0.281777 0.2819 0.282024 0.282148 0.282271 0.282395 0.282518
0.282642 0.282766 0.282889 0.283013 0.283137 0.28326 0.283384 0.283507
0.283631 0.283755 0.283878 0.284002 0.284126 0.284249 0.284373 0.284496
0.28462 0.284744 0.284867 0.284991 0.285115 0.285238 0.285362 0.285486
0.285609 0.285733 0.285856 0.28598 0.286104 0.286227 0.286351 0.286475
0.286598 0.286722 0.286845 0.286969 0.287093 0.287216 0.28734 0.287464
0.287587 0.287711 0.287834 0.287958 0.288082 0.288205 0.288329 0.288453
0.288576 0.2887 0.288823 0.288947 0.289071 0.289194 0.289318 0.289442
0.289565 0.289689 0.289812 0.289936 0.29006 0.290183 0.290307 0.290431
0.290554 0.290678 0.290801 0.290925 0.291049 0.291172 0.291296 0.29142
0.291543 0.291667 0.29179 0.291914 0.292038 0.292161 0.292285 0.292409
0.292532 0.292656 0.29278 0.292903 0.293027 0.29315 0.293274 0.293398
0.293521 0.293645 0.293769 0.293892 0.294016 0.294139 0.294263 0.294387
0.29451 0.294634 0.294758 0.294881 0.295005 0.295128 0.295252 0.295376
0.295499 0.295623 0.295747 0.29587 0.295994 0.296117 0.296241 0.296365
0.296488 0.296612 0.296736 0.296859 0.296983 0.297106 0.29723 0.297354
0.297477 0.297601 0.297725 0.297848 0.297972 0.298095 0.298219 0.298343
0.298466 0.29859 0.298714 0.298837 0.298961 0.299084 0.299208 0.299332
0.299455 0.299579 0.299703 0.299826 0.29995 0.300074 0.300197 0.300321
0.300444 0.300568 0.300692 0.300815 0.300939 0.301063 0.301186 0.30131
0.301434 0.301599 0.301764 0.301929 0.302094 0.302259 0.302423 0.302588
0.302753 0.302918 0.303083 0.303248 0.303413 0.303577 0.303742 0.303907
0.304072 0.304237 0.304402 0.304566 0.304731 0.304896 0.305061 0.305226
0.305391 0.305555 0.30572 0.305885 0.30605 0.306215 0.30638 0.306545
0.306709 0.306874 0.307039 0.307204 0.307369 0.307534 0.307698 0.307863
0.308028 0.308193 0.308358 0.308523 0.308688 0.308852 0.309017 0.309182
0.309347 0.309512 0.309677 0.309841 0.310006 0.310171 0.310336 0.310501
0.310666 0.310831 0.310995 0.31116 0.311325 0.31149 0.311655 0.31182
0.311984 0.312149 0.312314 0.312479 0.312644 0.312809 0.312973 0.313138
0.313303 0.313468 0.313633 0.313798 0.313963 0.314127 0.314292 0.314457
0.314622 0.314787 0.314952 0.315116 0.315281 0.315446 0.315611 0.315776
0.315941 0.316106 0.31627 0.316435 0.3166 0.316765 0.31693 0.317095
0.317259 0.317424 0.317589 0.317754 0.317919 0.318084 0.318249 0.318413
0.318578 0.318743 0.318908 0.319073 0.319238 0.319402 0.319567 0.319732
0.319897 0.320062 0.320227 0.320392 0.320556 0.320721 0.320886 0.321051
0.321216 0.321381 0.321545 0.32171 0.321875 0.32204 0.322205 0.32237
0.322535 0.322699 0.322864 0.323029 0.323194 0.323359 0.323524 0.323688
0.323853 0.324018 0.324183 0.324348 0.324513 0.324677 0.324842 0.325007
0.325172 0.325337 0.325502 0.325667 0.325831 0.325996 0.326161 0.326408
0.326655 0.326903 0.32715 0.327397 0.327644 0.327892 0.328139 0.328386
0.328634 0.328881 0.329128 0.329375 0.329623 0.32987 0.330117 0.330365
0.330612 0.330859 0.331106 0.331354 0.331601 0.331848 0.332096 0.332343
0.33259 0.332837 0.333085 0.333332 0.333579 0.333826 0.334074 0.334321
0.334568 0.334816 0.335063 0.33531 0.335557 0.335805 0.336052 0.336299
0.336547 0.336794 0.337041 0.337288 0.337536 0.337783 0.33803 0.338277
0.338525 0.338772 0.339019 0.339267 0.339514 0.339761 0.340008 0.340256
0.340503 0.34075 0.340998 0.341245 0.341492 0.341739 0.341987 0.342234
0.342481 0.342729 0.342976 0.343223 0.34347 0.343718 0.343965 0.344212
0.34446 0.344707 0.344954 0.345201 0.345449 0.345696 0.345943 0.34619
0.346438 0.346685 0.346932 0.34718 0.347427 0.347674 0.347921 0.348169
0.348416 0.348663 0.348911 0.349158 0.349405 0.349652 0.3499 0.350147
0.350394 0.350641 0.350889 0.351095 0.351301 0.351507 0.351713 0.351919
0.352125 0.352331 0.352538 0.352744 0.35295 0.353156 0.353362 0.353568
0.353774 0.35398 0.354186 0.354392 0.354598 0.354804 0.35501 0.355216
0.355422 0.355628 0.355835 0.356041 0.356247 0.356453 0.356659 0.356865
0.357071 0.357277 0.357483 0.357689 0.357895 0.358101 0.358307 0.358513
0.358719 0.358925 0.359132 0.359338 0.359544 0.35975 0.359956 0.360162
0.360368 0.360574 0.36078 0.360986 0.361192 0.361398 0.361604 0.36181
0.362016 0.362222 0.362429 0.362635 0.362841 0.363047 0.363253 0.363459
0.363665 0.363871 0.364077 0.364283 0.364489 0.364695 0.364901 0.365107
0.365313 0.365519 0.365726 0.365932 0.366138 0.366344 0.36655 0.366756
0.366962 0.367168 0.367374 0.36758 0.367786 0.367992 0.368198 0.368404
0.36861 0.368816 0.369023 0.369229 0.369435 0.369641 0.369847 0.370053
0.370259 0.370465 0.370671 0.370877 0.371083 0.371289 0.371495 0.371701
0.371907 0.372113 0.37232 0.372526 0.372732 0.372938 0.373144 0.37335
0.373556 0.373762 0.373968 0.374174 0.37438 0.374586 0.374792 0.374998
0.375204 0.37541 0.375617 0.375823 0.376029 0.376235 0.376441 0.376647
0.376853 0.377059 0.377265 0.377471 0.377677 0.377883 0.378089 0.378295
0.378501 0.378707 0.378914 0.37912 0.379326 0.379532 0.379738 0.379944
0.38015 0.380356 0.380562 0.380768 0.380974 0.38118 0.381386 0.381592
0.3818 0.381924 0.382047 0.382171 0.382295 0.382418 0.382542 0.382665
0.382789 0.382913 0.383036 0.38316 0.383284 0.383407 0.383531 0.383654
0.383778 0.383902 0.384025 0.384149 0.384273 0.384396 0.38452 0.384643
0.384767 0.384891 0.385014 0.385138 0.385262 0.385385 0.385509 0.385633
0.385756 0.38588 0.386003 0.386127 0.386251 0.386374 0.386498 0.386622
0.386745 0.386869 0.386992 0.387116 0.38724 0.387363 0.387487 0.387611
0.387734 0.387858 0.387981 0.388105 0.388229 0.388352 0.388476 0.3886
0.388723 0.388847 0.38897 0.389094 0.389218 0.389341 0.389465 0.389589
0.389712 0.389836 0.389959 0.390083 0.390207 0.39033 0.390454 0.390578
0.390701 0.390825 0.390948 0.391072 0.391196 0.391319 0.391443 0.391567
0.39169 0.391814 0.391937 0.392061 0.392185 0.392308 0.392432 0.392556
0.392679 0.392803 0.392927 0.39305 0.393174 0.393297 0.393421 0.393545
0.393668 0.393792 0.393916 0.394039 0.394163 0.394286 0.39441 0.394534
0.394657 0.394781 0.394905 0.395028 0.395152 0.395275 0.395399 0.395523
0.395646 0.39577 0.395894 0.396017 0.396141 0.396264 0.396388 0.396512
0.396635 0.396759 0.396883 0.397006 0.39713 0.397253 0.397377 0.397501
0.397624 0.397748 0.397872 0.397995 0.398119 0.398242 0.398366 0.39849
0.398613 0.398737 0.398861 0.398984 0.399108 0.399231 0.399355 0.399479
0.399602 0.399726 0.39985 0.399973 0.400097 0.400221 0.400344 0.400591
0.400838 0.401086 0.401333 0.40158 0.401828 0.402075 0.402322 0.402569
0.402817 0.403064 0.403311 0.403558 0.403806 0.404053 0.4043 0.404548
0.404795 0.405042 0.405289 0.405537 0.405784 0.406031 0.406279 0.406526
0.406773 0.40702 0.407268 0.407515 0.407762 0.408009 0.408257 0.408504
0.408751 0.408999 0.409246 0.409493 0.40974 0.409988 0.410235 0.410482
0.41073 0.410977 0.411224 0.411471 0.411719 0.411966 0.412213 0.412461
0.412708 0.412955 0.413202 0.41345 0.413697 0.413944 0.414192 0.414439
0.414686 0.414933 0.415181 0.415428 0.415675 0.415922 0.41617 0.416417
0.416664 0.416912 0.417159 0.417406 0.417653 0.417901 0.418148 0.418395
0.418643 0.41889 0.419137 0.419384 0.419632 0.419879 0.420126 0.420373
0.420621 0.420868 0.421115 0.421363 0.42161 0.421857 0.422104 0.422352
0.422599 0.422846 0.423094 0.423341 0.423588 0.423835 0.424083 0.42433
0.424577 0.424825 0.425072 0.425566 0.426061 0.426555 0.42705 0.427544
0.428039 0.428533 0.429028 0.429523 0.430017 0.430512 0.431006 0.431501
0.431995 0.43249 0.432984 0.433479 0.433974 0.434468 0.434963 0.435457
0.435952 0.436446 0.436941 0.437436 0.43793 0.438425 0.438919 0.439414
0.439908 0.440403 0.440897 0.441392 0.441887 0.442381 0.442876 0.44337
0.443865 0.444359 0.444854 0.445348 0.445843 0.446338 0.446832 0.447327
0.447821 0.448316 0.44881 0.449305 0.449798 0.450108 0.450417 0.450726
0.451035 0.451344 0.451653 0.451962 0.452271 0.45258 0.45289 0.453199
0.453508 0.453817 0.454126 0.454435 0.454744 0.455053 0.455362 0.455671
0.455981 0.45629 0.456599 0.456908 0.457217 0.457526 0.457835 0.458144
0.458453 0.458763 0.459072 0.459381 0.45969 0.459999 0.460308 0.460617
0.460926 0.461235 0.461545 0.461854 0.462163 0.462472 0.462781 0.46309
0.463399 0.463708 0.464017 0.464326 0.464636 0.464945 0.465254 0.465563
0.465872 0.466181 0.46649 0.466799 0.467108 0.467418 0.467727 0.468036
0.468345 0.468654 0.468963 0.469272 0.469581 0.46989 0.470199 0.470509
0.470818 0.471127 0.471436 0.471745 0.472054 0.472363 0.472672 0.472981
0.473291 0.4736 0.473909 0.474218 0.474527 0.474836 0.475145 0.475454
0.475763 0.476073 0.476382 0.476691 0.477 0.477309 0.477618 0.477927
0.478236 0.478545 0.478854 0.479164 0.479473 0.479782 0.480091 0.4804
0.480709 0.481203 0.481698 0.482192 0.482687 0.483182 0.483676 0.484171
0.484665 0.48516 0.485654 0.486149 0.486644 0.487138 0.487633 0.488127
0.488622 0.489116 0.489611 0.490105 0.4906 0.491095 0.491589 0.492084
0.492578 0.493073 0.493567 0.494062 0.494556 0.495051 0.495546 0.49604
0.496535 0.497029 0.497524 0.498018 0.498513 0.499008 0.499502 0.499997
0.500491 0.500986 0.50148 0.501975 0.502469 0.502964 0.503459 0.503953
0.504448 0.504942 0.505435 0.505558 0.505682 0.505806 0.505929 0.506053
0.506177 0.5063 0.506424 0.506548 0.506671 0.506795 0.506918 0.507042
0.507166 0.507289 0.507413 0.507537 0.50766 0.507784 0.507908 0.508031
0.508155 0.508279 0.508402 0.508526 0.50865 0.508773 0.508897 0.509021
0.509144 0.509268 0.509392 0.509515 0.509639 0.509762 0.509886 0.51001
0.510133 0.510257 0.510381 0.510504 0.510628 0.510752 0.510875 0.510999
0.511123 0.511246 0.51137 0.511494 0.511617 0.511741 0.511865 0.511988
0.512112 0.512236 0.512359 0.512483 0.512607 0.51273 0.512854 0.512977
0.513101 0.513225 0.513348 0.513472 0.513596 0.513719 0.513843 0.513967
0.51409 0.514214 0.514338 0.514461 0.514585 0.514709 0.514832 0.514956
0.51508 0.515203 0.515327 0.515451 0.515574 0.515698 0.515821 0.515945
0.516069 0.516192 0.516316 0.51644 0.516563 0.516687 0.516811 0.516934
0.517058 0.517182 0.517305 0.517429 0.517553 0.517676 0.5178 0.517924
0.518047 0.518171 0.518295 0.518418 0.518542 0.518665 0.518789 0.518913
0.519036 0.51916 0.519284 0.519407 0.519531 0.519655 0.519778 0.519902
0.520026 0.520149 0.520273 0.520397 0.52052 0.520644 0.520768 0.520891
0.521015 0.521139 0.521262 0.521386 0.52151 0.521633 0.521757 0.52188
0.522004 0.522128 0.522251 0.522375 0.522499 0.522622 0.522746 0.52287
0.522993 0.523117 0.523241 0.523364 0.523488 0.523612 0.523735 0.523859
0.542529 0.542777 0.543024 0.543271 0.543518 0.543766 0.544013 0.54426
0.544508 0.544755 0.545002 0.545249 0.545497 0.545744 0.545991 0.546238
0.546486 0.546733 0.54698 0.547227 0.547475 0.547722 0.547969 0.548216
0.548464 0.548711 0.548958 0.549205 0.549453 0.5497 0.549947 0.550194
0.550442 0.550689 0.550936 0.551183 0.551431 0.551678 0.551925 0.552172
0.55242 0.552667 0.552914 0.553161 0.553409 0.553656 0.553903 0.55415
0.554398 0.554645 0.554893 0.555141 0.555388 0.555635 0.555882 0.55613
0.556377 0.556624 0.556871 0.557119 0.557366 0.557613 0.55786 0.558108
0.558355 0.558602 0.558849 0.559097 0.559344 0.559591 0.559838 0.560086
0.560333 0.56058 0.560827 0.561075 0.561322 0.561569 0.561816 0.562064
0.562311 0.562558 0.562805 0.563053 0.5633 0.563547 0.563794 0.564042
0.564289 0.564536 0.564783 0.565031 0.565278 0.565525 0.565772 0.56602
0.566267 0.566514 0.566761 0.567009 0.567255 0.567379 0.567503 0.567626
0.56775 0.567874 0.567997 0.568121 0.568245 0.568368 0.568492 0.568615
0.568739 0.568863 0.568986 0.56911 0.569234 0.569357 0.569481 0.569605
0.569728 0.569852 0.569976 0.570099 0.570223 0.570347 0.57047 0.570594
0.570718 0.570841 0.570965 0.571089 0.571212 0.571336 0.571459 0.571583
0.571707 0.57183 0.571954 0.572078 0.572201 0.572325 0.572449 0.572572
0.572696 0.57282 0.572943 0.573067 0.573191 0.573314 0.598166 0.598166
0.598166 0.598166 0.598166 0.598166 0.598166 0.598166 0.598166 0.598166
0.598166 0.598166 0.598166 0.598166 0.598166 0.598166 0.598166 0.598166
0.598166 0.598166 0.598166 0.598166 0.598166 0.598166 0.598166 0.598166
0.598166 0.598166 0.598166 0.598166 0.598166 0.598166 0.598166 0.598166
0.598166 0.598166 0.598166 0.598166 0.598166 0.598166 0.598166 0.598166
0.598166 0.598166 0.598166 0.598166 0.598166 0.598166 0.598166 0.598166
0.629076 0.629324 0.629571 0.629818 0.630065 0.630313 0.63056 0.630807
0.631054 0.631302 0.631549 0.631796 0.632043 0.632291 0.632538 0.632785
0.633032 0.63328 0.633527 0.633774 0.634021 0.634269 0.634516 0.634763
0.63501 0.635258 0.635505 0.635752 0.636 0.636247 0.636494 0.636741
0.636989 0.637236 0.637483 0.63773 0.637978 0.638225 0.638472 0.638719
0.638967 0.639214 0.639461 0.639708 0.639956 0.640203 0.64045 0.640697
0.640945 0.641192 0.64144 0.641687 0.641935 0.642182 0.642429 0.642676
0.642924 0.643171 0.643418 0.643665 0.643913 0.64416 0.644407 0.644655
0.644902 0.645149 0.645396 0.645644 0.645891 0.646138 0.646385 0.646633
0.64688 0.647127 0.647374 0.647622 0.647869 0.648116 0.648363 0.648611
0.648858 0.649105 0.649352 0.6496 0.649847 0.650094 0.650341 0.650589
0.650836 0.651083 0.65133 0.651578 0.651825 0.652072 0.652319 0.652567
0.652814 0.653061 0.653308 0.653556 0.653802 0.653926 0.65405 0.654173
0.654297 0.65442 0.654544 0.654668 0.654791 0.654915 0.655039 0.655162
0.655286 0.65541 0.655533 0.655657 0.655781 0.655904 0.656028 0.656152
0.656275 0.656399 0.656523 0.656646 0.65677 0.656893 0.657017 0.657141
0.657264 0.657388 0.657512 0.657635 0.657759 0.657883 0.658006 0.65813
0.658254 0.658377 0.658501 0.658625 0.658748 0.658872 0.658996 0.659119
0.659243 0.659367 0.65949 0.659614 0.659738 0.659861 0.659986 0.660233
0.66048 0.660728 0.660975 0.661222 0.66147 0.661717 0.661964 0.662211
0.662459 0.662706 0.662953 0.6632 0.663448 0.663695 0.663942 0.664189
0.664437 0.664684 0.664931 0.665178 0.665426 0.665673 0.66592 0.666167
0.666415 0.666662 0.666909 0.667156 0.667404 0.667651 0.667898 0.668145
0.668393 0.66864 0.668887 0.669134 0.669382 0.669629 0.669876 0.670123
0.670371 0.670618 0.670865 0.671112 0.67136 0.671607 0.671854 0.672101
0.67235 0.672597 0.672844 0.673092 0.673339 0.673586 0.673833 0.674081
0.674328 0.674575 0.674822 0.67507 0.675317 0.675564 0.675811 0.676059
0.676306 0.676553 0.6768 0.677048 0.677295 0.677542 0.677789 0.678037
0.678284 0.678531 0.678778 0.679026 0.679273 0.67952 0.679767 0.680015
0.680262 0.680509 0.680756 0.681004 0.681251 0.681498 0.681745 0.681993
0.68224 0.682487 0.682734 0.682982 0.683229 0.683476 0.683724 0.683971
0.684218 0.684465 0.684711 0.684835 0.684958 0.685082 0.685206 0.685329
0.685453 0.685577 0.6857 0.685824 0.685948 0.686071 0.686195 0.686319
0.686442 0.686566 0.686689 0.686813 0.686937 0.68706 0.687184 0.687308
0.687431 0.687555 0.687679 0.687802 0.687926 0.68805 0.688173 0.688297
0.688421 0.688544 0.688668 0.688792 0.688915 0.689039 0.689163 0.689286
0.68941 0.689534 0.689657 0.689781 0.689905 0.690028 0.690152 0.690275
0.690399 0.690523 0.690646 0.69077 0.690894 0.691017 0.691141 0.691265
0.691388 0.691512 0.691636 0.691759 0.691883 0.692007 0.69213 0.692254
0.692378 0.692501 0.692625 0.692748 0.692872 0.692996 0.693119 0.693243
0.693367 0.69349 0.693614 0.693738 0.693861 0.693985 0.694109 0.694232
0.694356 0.69448 0.694603 0.694727 0.694851 0.694974 0.695098 0.695222
0.695345 0.695469 0.695593 0.695716 0.69584 0.695964 0.696087 0.696211
0.696334 0.696458 0.696582 0.696705 0.696829 0.696953 0.697078 0.697325
0.697572 0.697819 0.698067 0.698314 0.698561 0.698808 0.699056 0.699303
0.69955 0.699797 0.700045 0.700292 0.700539 0.700786 0.701034 0.701281
0.701528 0.701775 0.702023 0.70227 0.702517 0.702764 0.703012 0.703259
0.703506 0.703753 0.704001 0.704248 0.704495 0.704742 0.70499 0.705237
0.705484 0.705731 0.705979 0.706226 0.706473 0.70672 0.706968 0.707215
0.707462 0.707709 0.707957 0.708204 0.708451 0.708698 0.708946 0.709193
0.70944 0.709934 0.710429 0.710924 0.711418 0.711913 0.712407 0.712902
0.713396 0.713891 0.714386 0.71488 0.715375 0.715869 0.716364 0.716858
0.717353 0.717847 0.718342 0.718837 0.719331 0.719826 0.72032 0.720815
0.721309 0.721804 0.722298 0.722793 0.723288 0.723782 0.724277 0.724771
0.725266 0.72576 0.726255 0.726749 0.727244 0.727739 0.728233 0.728728
0.729222 0.729717 0.730211 0.730706 0.731201 0.731695 0.73219 0.732684
0.733179 0.733673 0.734166 0.73429 0.734414 0.734537 0.734661 0.734785
0.734908 0.735032 0.735156 0.735279 0.735403 0.735527 0.73565 0.735774
0.735898 0.736021 0.736145 0.736269 0.736392 0.736516 0.736639 0.736763
0.736887 0.73701 0.737134 0.737258 0.737381 0.737505 0.737629 0.737752
0.737876 0.738 0.738123 0.738247 0.738371 0.738494 0.738618 0.738742
0.738865 0.738989 0.739113 0.739236 0.73936 0.739484 0.739607 0.739731
0.739854 0.739978 0.740102 0.740225 0.740349 0.740473 0.740596 0.74072
0.740844 0.740967 0.741091 0.741215 0.741338 0.741462 0.741586 0.741709
0.741833 0.741957 0.74208 0.742204 0.742328 0.742451 0.742575 0.742698
0.742822 0.742946 0.743069 0.743193 0.743317 0.74344 0.743564 0.743688
0.743811 0.743935 0.744059 0.744182 0.744306 0.74443 0.744553 0.744677
0.744801 0.744924 0.745048 0.745172 0.745295 0.745419 0.745543 0.745666
0.74579 0.745913 0.746037 0.746161 0.746284 0.746408 0.746533 0.74678
0.747027 0.747275 0.747522 0.747769 0.748016 0.748264 0.748511 0.748758
0.749005 0.749253 0.7495 0.749747 0.749994 0.750242 0.750489 0.750736
0.750983 0.751231 0.751478 0.751725 0.751972 0.75222 0.752467 0.752714
0.752961 0.753209 0.753456 0.753703 0.75395 0.754198 0.754445 0.754692
0.754939 0.755187 0.755434 0.755681 0.755929 0.756176 0.756423 0.75667
0.756918 0.757165 0.757412 0.757659 0.757907 0.758154 0.758401 0.758648
0.758897 0.759144 0.759391 0.759638 0.759886 0.760133 0.76038 0.760628
0.760875 0.761122 0.761369 0.761617 0.761864 0.762111 0.762358 0.762606
0.762853 0.7631 0.763347 0.763595 0.763842 0.764089 0.764336 0.764584
0.764831 0.765078 0.765325 0.765573 0.76582 0.766067 0.766314 0.766562
0.766809 0.767056 0.767303 0.767551 0.767798 0.768045 0.768292 0.76854
0.768787 0.769034 0.769281 0.769529 0.769776 0.770023 0.77027 0.770518
0.770765 0.771012 0.771261 0.771508 0.771755 0.772002 0.77225 0.772497
0.772744 0.772991 0.773239 0.773486 0.773733 0.77398 0.774228 0.774475
0.774722 0.774969 0.775217 0.775464 0.775711 0.775958 0.776206 0.776453
0.7767 0.776947 0.777195 0.777442 0.777689 0.777936 0.778184 0.778431
0.778678 0.778925 0.779173 0.77942 0.779667 0.779914 0.780162 0.780409
0.780656 0.780903 0.781151 0.781398 0.781645 0.781892 0.78214 0.782387
0.782634 0.782881 0.783129 0.783376 0.783622 0.783745 0.783869 0.783993
0.784116 0.78424 0.784364 0.784487 0.784611 0.784735 0.784858 0.784982
0.785106 0.785229 0.785353 0.785477 0.7856 0.785724 0.785848 0.785971
0.786095 0.786219 0.786342 0.786466 0.78659 0.786713 0.786837 0.78696
0.787084 0.787208 0.787331 0.787455 0.787579 0.787702 0.787826 0.78795
0.788073 0.788197 0.788321 0.788444 0.788568 0.788692 0.788815 0.788939
0.789063 0.789186 0.78931 0.789433 0.789557 0.789681 0.789804 0.789928
0.790052 0.790175 0.790299 0.790423 0.790546 0.79067 0.790794 0.790917
0.791041 0.791165 0.791288 0.791412 0.791536 0.791659 0.791783 0.791907
0.79203 0.792154 0.792278 0.792401 0.792525 0.792648 0.792772 0.792896
0.793019 0.793143 0.793267 0.79339 0.793514 0.793638 0.793761 0.793885
0.794009 0.794132 0.794256 0.79438 0.794503 0.794627 0.794751 0.794874
0.794998 0.795122 0.795245 0.795369 0.795492 0.795616 0.79574 0.795863
0.795988 0.796358 0.796729 0.7971 0.797471 0.797842 0.798213 0.798584
0.798955 0.799326 0.799697 0.800067 0.800438 0.800809 0.80118 0.801551
0.801922 0.802293 0.802664 0.803035 0.803406 0.803777 0.804147 0.804518
0.804889 0.80526 0.805631 0.806002 0.806373 0.806744 0.807115 0.807486
0.807857 0.808227 0.808598 0.808969 0.80934 0.809711 0.810082 0.810453
0.810824 0.811195 0.811566 0.811936 0.812307 0.812678 0.813049 0.81342
0.813791 0.814162 0.814533 0.815027 0.815522 0.816016 0.816511 0.817005
0.8175 0.817994 0.818489 0.818984 0.819478 0.819973 0.820467 0.820962
0.821456 0.821951 0.822446 0.82294 0.823435 0.823929 0.824424 0.824918
0.825413 0.825907 0.826402 0.826897 0.827391 0.827886 0.82838 0.828875
0.829369 0.829864 0.830359 0.830853 0.831348 0.831842 0.832337 0.832831
0.833326 0.83382 0.834315 0.83481 0.835304 0.835799 0.836293 0.836788
0.837282 0.837777 0.838271 0.838766 0.839258 0.839464 0.83967 0.839876
0.840082 0.840289 0.840495 0.840701 0.840907 0.841113 0.841319 0.841525
0.841731 0.841937 0.842143 0.842349 0.842555 0.842762 0.842968 0.843174
0.84338 0.843586 0.843792 0.843998 0.844204 0.84441 0.844616 0.844822
0.845029 0.845235 0.845441 0.845647 0.845853 0.846059 0.846265 0.846471
0.846677 0.846883 0.847089 0.847296 0.847502 0.847708 0.847914 0.84812
0.848326 0.848532 0.848738 0.848944 0.84915 0.849356 0.849562 0.849769
0.849975 0.850181 0.850387 0.850593 0.850799 0.851005 0.851211 0.851417
0.851623 0.851829 0.852036 0.852242 0.852448 0.852654 0.85286 0.853066
0.853272 0.853478 0.853684 0.85389 0.854096 0.854303 0.854509 0.854715
0.854921 0.855127 0.855333 0.855539 0.855745 0.855951 0.856157 0.856363
0.856569 0.856776 0.856982 0.857188 0.857394 0.8576 0.857806 0.858012
0.858218 0.858424 0.85863 0.858836 0.859043 0.859249 0.859455 0.859661
0.859867 0.860073 0.860279 0.860485 0.860691 0.860897 0.861103 0.86131
0.861516 0.861722 0.861928 0.862134 0.86234 0.862546 0.862752 0.862958
0.863164 0.86337 0.863576 0.863783 0.863989 0.864195 0.864401 0.864607
0.864813 0.865019 0.865225 0.865431 0.865637 0.865843 0.866049 0.866255
0.866462 0.866668 0.866874 0.86708 0.867286 0.867492 0.867698 0.867904
0.86811 0.868316 0.868522 0.868728 0.868934 0.86914 0.869346 0.869552
0.869758 0.869964 0.870167 0.870415 0.870662 0.870909 0.871157 0.871404
0.871651 0.871898 0.872146 0.872393 0.87264 0.872888 0.873135 0.873382
0.87363 0.873877 0.874124 0.874371 0.874619 0.874866 0.875113 0.875361
0.875608 0.875855 0.876103 0.87635 0.876597 0.876845 0.877092 0.877339
0.877586 0.877834 0.878081 0.878328 0.878576 0.878823 0.87907 0.879318
0.879565 0.879812 0.880059 0.880307 0.880554 0.880801 0.881049 0.881296
0.881543 0.881791 0.882038 0.882285 0.882533 0.88278 0.883027 0.883274
0.883522 0.883769 0.884016 0.884264 0.884511 0.884758 0.885006 0.885253
0.8855 0.885748 0.885995 0.886242 0.886489 0.886737 0.886984 0.887231
0.887479 0.887726 0.887973 0.888221 0.888468 0.888715 0.888963 0.88921
0.889457 0.889704 0.889952 0.890199 0.890446 0.890694 0.890941 0.891188
0.891436 0.891683 0.89193 0.892177 0.892425 0.892672 0.892919 0.893167
0.893414 0.893661 0.893909 0.894156 0.894403 0.894651 0.894895 0.895142
0.89539 0.895637 0.895884 0.896132 0.896379 0.896626 0.896873 0.897121
0.897368 0.897615 0.897863 0.89811 0.898357 0.898605 0.898852 0.899099
0.899346 0.899594 0.899841 0.900088 0.900336 0.900583 0.90083 0.901078
0.901325 0.901572 0.90182 0.902067 0.902314 0.902561 0.902809 0.903056
0.903303 0.903551 0.903798 0.904045 0.904293 0.90454 0.904787 0.905034
0.905282 0.905529 0.905776 0.906024 0.906271 0.906518 0.906766 0.907013
0.90726 0.907508 0.907755 0.908002 0.908249 0.908497 0.908744 0.908991
0.909239 0.909486 0.909733 0.909981 0.910228 0.910475 0.910723 0.91097
0.911217 0.911464 0.911712 0.911959 0.912206 0.912454 0.912701 0.912948
0.913196 0.913443 0.91369 0.913938 0.914185 0.914432 0.914679 0.914927
0.915174 0.915421 0.915669 0.915916 0.916163 0.916411 0.916658 0.916905
0.917152 0.9174 0.917647 0.917894 0.918142 0.918389 0.918636 0.918884
0.919131 0.919378 0.919626 0.919997 0.920368 0.920739 0.92111 0.92148
0.921851 0.922222 0.922593 0.922964 0.923335 0.923706 0.924077 0.924448
0.924819 0.92519 0.92556 0.925931 0.926302 0.926673 0.927044 0.927415
0.927786 0.928157 0.928528 0.928899 0.92927 0.92964 0.930011 0.930382
0.930753 0.931124 0.931495 0.931866 0.932237 0.932608 0.932979 0.933349
0.93372 0.934091 0.934462 0.934833 0.935204 0.935575 0.935946 0.936317
0.936688 0.937059 0.937429 0.9378 0.93817 0.938417 0.938664 0.938912
0.939159 0.939406 0.939654 0.939901 0.940148 0.940396 0.940643 0.94089
0.941137 0.941385 0.941632 0.941879 0.942127 0.942374 0.942621 0.942869
0.943116 0.943363 0.943611 0.943858 0.944105 0.944353 0.9446 0.944847
0.945094 0.945342 0.945589 0.945836 0.946084 0.946331 0.946578 0.946826
0.947073 0.94732 0.947567 0.947815 0.948062 0.948309 0.948557 0.948804
0.949051 0.949299 0.949546 0.949793 0.950041 0.950288 0.950539 0.950662
0.950786 0.95091 0.951033 0.951157 0.95128 0.951404 0.951528 0.951651
0.951775 0.951898 0.952022 0.952146 0.952269 0.952393 0.952516 0.95264
0.952764 0.952887 0.953011 0.953134 0.953258 0.953382 0.953505 0.953629
0.953752 0.953876 0.954 0.954123 0.954247 0.95437 0.954494 0.954618
0.954741 0.954865 0.954988 0.955112 0.955236 0.955359 0.955483 0.955607
0.95573 0.955854 0.955977 0.956101 0.956225 0.956348 0.956472 0.956595
0.956719 0.956843 0.956966 0.95709 0.957213 0.957337 0.957461 0.957584
0.957708 0.957831 0.957955 0.958079 0.958202 0.958326 0.958449 0.958573
0.958697 0.95882 0.958944 0.959067 0.959191 0.959315 0.959438 0.959562
0.959685 0.959809 0.959933 0.960056 0.96018 0.960303 0.960427 0.960551
0.960674 0.960798 0.960921 0.961045 0.961169 0.961292 0.961416 0.961539
0.961663 0.961787 0.96191 0.962034 0.962157 0.962281 0.962405 0.962528
0.962652 0.962775 0.962901 0.963024 0.963148 0.963272 0.963395 0.963519
0.963642 0.963766 0.96389 0.964013 0.964137 0.96426 0.964384 0.964508
0.964631 0.964755 0.964878 0.965002 0.965126 0.965249 0.965373 0.965496
0.96562 0.965744 0.965867 0.965991 0.966114 0.966238 0.966362 0.966485
0.966609 0.966733 0.966856 0.96698 0.967103 0.967227 0.96735 0.967474
0.967598 0.967721 0.967845 0.967968 0.968092 0.968216 0.968339 0.968463
0.968587 0.96871 0.968834 0.968957 0.969085 0.969146 0.969208 0.96927
0.969332 0.969394 0.969455 0.969517 0.969579 0.969641 0.969703 0.969764
0.969826 0.969888 0.96995 0.970012 0.970073 0.970135 0.970197 0.970259
0.970321 0.970382 0.970444 0.970506 0.970568 0.97063 0.970691 0.970753
0.970815 0.970877 0.970939 0.971 0.971062 0.971124 0.971186 0.971248
0.971309 0.971371 0.971433 0.971495 0.971557 0.971618 0.97168 0.971742
0.971804 0.971866 0.971927 0.971989 0.972051 0.972113 0.972175 0.972236
0.972298 0.97236 0.972422 0.972484 0.972545 0.972607 0.972669 0.972731
0.972793 0.972854 0.972916 0.972978 0.97304 0.973102 0.973163 0.973225
0.973287 0.973349 0.973411 0.973472 0.973534 0.973596 0.973658 0.97372
0.973781 0.973843 0.973905 0.973967 0.974029 0.97409 0.974152 0.974214
0.974276 0.974338 0.974399 0.974461 0.974523 0.974585 0.974647 0.974708
0.97477 0.974832 0.974894 0.974956 0.975017 0.975079 0.975141 0.975203
0.975265 0.975326 0.975388 0.97545 0.975512 0.975574 0.975635 0.975697
0.975759 0.975821 0.975883 0.975944 0.976006 0.976068 0.97613 0.976192
0.976254 0.976315 0.976377 0.976439 0.976501 0.976562 0.976624 0.976686
0.976748 0.97681 0.976871 0.976933 0.976995 0.977057 0.977119 0.97718
0.977242 0.977304 0.977366 0.977428 0.97749 0.977551 0.977613 0.977675
0.977737 0.977799 0.97786 0.977922 0.977984 0.978046 0.978108 0.978169
0.978231 0.978293 0.978355 0.978417 0.978478 0.97854 0.978602 0.978664
0.978725 0.978787 0.978849 0.978911 0.978973 0.979035 0.979096 0.979158
0.97922 0.979282 0.979344 0.979405 0.979467 0.979529 0.979591 0.979653
0.979714 0.979776 0.979838 0.9799 0.979962 0.980023 0.980085 0.980147
0.980209 0.980271 0.980332 0.980394 0.980456 0.980518 0.98058 0.980641
0.980703 0.980765 0.980827 0.980889 0.98095 0.981012 0.981074 0.981136
0.981198 0.981259 0.981321 0.981383 0.981454 0.981503 0.981552 0.981602
0.981651 0.981701 0.98175 0.9818 0.981849 0.981898 0.981948 0.981997
0.982047 0.982096 0.982145 0.982195 0.982244 0.982294 0.982343 0.982393
0.982442 0.982491 0.982541 0.98259 0.98264 0.982689 0.982739 0.982788
0.982837 0.982887 0.982936 0.982986 0.983035 0.983084 0.983134 0.983183
0.983233 0.983282 0.983332 0.983381 0.98343 0.98348 0.983529 0.983579
0.983628 0.983678 0.983727 0.983776 0.983826 0.983875 0.983925 0.983974
0.984023 0.984073 0.984122 0.984172 0.984221 0.984271 0.98432 0.984369
0.984419 0.984468 0.984518 0.984567 0.984617 0.984666 0.984715 0.984765
0.984814 0.984864 0.984913 0.984962 0.985012 0.985061 0.985111 0.98516
0.98521 0.985259 0.985308 0.985358 0.985407 0.985457 0.985506 0.985555
0.985605 0.985654 0.985704 0.985753 0.985803 0.985852 0.985901 0.985951
0.986 0.98605 0.986099 0.986148 0.986198 0.986247 0.986297 0.986346
0.986396 0.986445 0.986494 0.986544 0.986593 0.986643 0.986692 0.986742
0.986791 0.98684 0.98689 0.986939 0.986989 0.987038 0.987087 0.987137
0.987186 0.987236 0.987285 0.987335 0.987384 0.987433 0.987483 0.987532
0.987582 0.987631 0.98768 0.98773 0.987779 0.987829 0.987878 0.987928
0.987977 0.988026 0.988076 0.988125 0.988175 0.988224 0.988274 0.988323
0.988372 0.988422 0.988471 0.988521 0.98857 0.98862 0.988669 0.988718
0.988768 0.988817 0.988867 0.988916 0.988965 0.989015 0.989064 0.989114
0.989163 0.989213 0.989262 0.989311 0.989361 0.98941 0.98946 0.989509
0.989558 0.989608 0.989657 0.989707 0.989756 0.989806 0.989855 0.989904
0.989954 0.990003 0.990053 0.990102 0.990152 0.990201 0.99025 0.9903
0.990349 0.990399 0.990448 0.990497 0.990547 0.990596 0.990646 0.990695
0.990745 0.990794 0.990843 0.990893 0.990942 0.990992 0.991041 0.99109
0.99114 0.991189 0.991239 0.991288 0.991338 0.991387 0.991436 0.991486
0.991535 0.991585 0.991634 0.991684 0.991733 0.991782 0.991832 0.991881
0.991931 0.99198 0.992029 0.992079 0.992128 0.992178 0.992227 0.992277
0.992326 0.992375 0.992425 0.992474 0.992524 0.992573 0.992622 0.992672
0.992721 0.992771 0.99282 0.99287 0.992919 0.992968 0.993018 0.993067
0.993117 0.993166 0.993216 0.993265 0.993314 0.993364 0.993413 0.993463
0.993512 0.993562 0.993611 0.99366 0.99371 0.993759 0.9938 0.993821
0.993841 0.993862 0.993883 0.993903 0.993924 0.993945 0.993965 0.993986
0.994006 0.994027 0.994048 0.994068 0.994089 0.99411 0.99413 0.994151
0.994172 0.994192 0.994213 0.994233 0.994254 0.994275 0.994295 0.994316
0.994337 0.994357 0.994378 0.994399 0.994419 0.99444 0.99446 0.994481
0.994502 0.994522 0.994543 0.994564 0.994584 0.994605 0.994626 0.994646
0.994667 0.994687 0.994708 0.994729 0.994749 0.99477 0.994791 0.994811
0.994832 0.994852 0.994873 0.994894 0.994914 0.994935 0.994956 0.994976
0.994997 0.995018 0.995038 0.995059 0.995079 0.9951 0.995121 0.995141
0.995162 0.995183 0.995203 0.995224 0.995245 0.995265 0.995286 0.995306
0.995327 0.995348 0.995368 0.995389 0.99541 0.99543 0.995451 0.995472
0.995492 0.995513 0.995533 0.995554 0.995575 0.995595 0.995616 0.995637
0.995657 0.995678 0.995699 0.995719 0.99574 0.99576 0.995781 0.995802
0.995822 0.995843 0.995864 0.995884 0.995905 0.995925 0.995946 0.995967
0.995987 0.996008 0.996029 0.996049 0.99607 0.996091 0.996111 0.996132
0.996152 0.996173 0.996194 0.996214 0.996235 0.996256 0.996276 0.996297
0.996318 0.996338 0.996359 0.996379 0.9964 0.996421 0.996441 0.996462
0.996483 0.996503 0.996524 0.996545 0.996565 0.996586 0.996606 0.996627
0.996648 0.996668 0.996689 0.99671 0.99673 0.996751 0.996772 0.996792
0.996813 0.996833 0.996854 0.996875 0.996895 0.996916 0.996937 0.996957
0.996978 0.996998 0.997019 0.99704 0.99706 0.997081 0.997102 0.997122
0.997143 0.997164 0.997184 0.997205 0.997225 0.997246 0.997267 0.997287
0.997308 0.997329 0.997349 0.99737 0.997391 0.997411 0.997432 0.997452
0.997473 0.997494 0.997514 0.997535 0.997556 0.997576 0.997597 0.997618
0.997638 0.997659 0.997679 0.9977 0.997721 0.997741 0.997762 0.997783
0.997803 0.997824 0.997845 0.997865 0.997886 0.997906 0.997927 0.997948
0.997968 0.997989 0.99801 0.99803 0.998051 0.998071 0.998092 0.998113
0.998133 0.998154 0.998175 0.998195 0.998216 0.998237 0.998257 0.998278
0.998298 0.998319 0.99834 0.99836 0.998381 0.998402 0.998422 0.998443
0.998464 0.998484 0.998505 0.998525 0.998546 0.998567 0.998587 0.998608
0.998629 0.998649 0.99867 0.998691 0.998711 0.998732 0.998752 0.998773
0.998794 0.998814 0.998835 0.998856 0.998876 0.998897 0.998918 0.998938
0.998959 0.998979 0.999 0.999021 0.999041 0.999062 0.999083 0.999103
0.999124 0.999144 0.999165 0.999186 0.999206 0.999227 0.999248 0.999268
0.999289 0.99931 0.99933 0.999351 0.999371 0.999392 0.999413 0.999433
0.999454 0.999475 0.999495 0.999516 0.999537 0.999557 0.999578 0.999598
0.999619 0.99964 0.99966 0.999681 0.999702 0.999722 0.999743 0.999764
0.999784 0.999805 0.999825 0.999846 0.999867 0.999887 0.999908 0.999929
0.999949 0.99997 0.999991 0.999991 0.999991 0.999991 0.999991 0.999991
0.999991 0.999991 0.999991 0.999991 0.999991 0.999991 0.999991 0.999991
0.999991 0.999991 0.999991 0.999991 0.999991 0.999991 0.999991 0.999991
0.999991 0.999991 0.999991 0.999991 0.999991 0.999991 0.999991 0.999991
0.999991 0.999991 0.999991 0.999991 0.999991 0.999991 0.999991 0.999991
0.999991 0.999991 0.999991 0.999991 0.999991 0.999991 0.999991 0.999991
0.999991 0.999991 0.999991 0.999991 0.999991 0.999991 0.999991 0.999991
0.999991 0.999991 0.999991 0.999991 0.999991 0.999991 0.999991 0.999991
0.999991 0.999991 0.999991 0.999991 0.999991 0.999991 0.999991 0.999991
0.999991 0.999991 0.999991 0.999991 0.999991 0.999991 0.999991 0.999991
0.999991 0.999991 0.999991 0.999991 0.999991 0.999991 0.999991 0.999991
0.999991 0.999991 0.999991 0.999991 0.999991 0.999991 0.999991 0.999991
0.999991 0.999991 0.999991 0.999991 0.999991 0.999991 0.999991 0.999991
0.999991 0.999991 0.999991 0.999991 0.999991 0.999991 0.999991 0.999991
0.999991 0.999991 0.999991 0.999991 0.999991 0.999991 0.999991 0.999991
0.999991 0.999991 0.999991 0.999991 0.999991 0.999991 0.999991 0.999991
0.999991 0.999991 0.999991 0.999991 0.999991 0.999991 0.999991 0.999991
0.999991 0.999991 0.999991 0.999991 0.999991 0.999991 0.999991 0.999991
0.999991 0.999991 0.999991 0.999991 0.999991 0.999991 0.999991 0.999991
0.999991 0.999991 0.999991 0.999991 0.999991 0.999991 0.999991 0.999991
0.999991 0.999991 0.999991 0.999991 0.999991 0.999991 0.999991 0.999991
0.999991 0.999991 0.999991 0.999991 0.999991 0.999991 0.999991 0.999991
0.999991 0.999991 0.999991 0.999991 0.999991 0.999991 0.999991 0.999991
0.999991 0.999991 0.999991 0.999991 0.999991 0.999991 0.999991 0.999991
0.999991 0.999991 0.999991 0.999991 0.999991 0.999991 0.999991 0.999991
0.999991 0.999991 0.999991 0.999991 0.999991 0.999991 0.999991 0.999991
0.999991 0.999991 0.999991 0.999991 0.999991 0.999991 0.999991 0.999991
0.999991 0.999991 0.999991 0.999991 0.999991 0.999991 0.999991 0.999991
0.999991 0.999991 0.999991 0.999991 0.999991 0.999991 0.999991 0.999991
0.999991 0.999991 0.999991 0.999991 0.999991 0.999991 0.999991 0.999991
0.999991 0.999991 0.999991 0.999991 0.999991 0.999991 0.999991 0.999991
0.999991 0.999991 0.999991 0.999991 0.999991 0.999991 0.999991 0.999991
0.999991 0.999991 0.999991 0.999991 0.999991 0.999991 0.999991 0.999991
0.999991 0.999991 0.999991 0.999991 0.999991 0.999991 0.999991 0.999991
0.999991 0.999991 0.999991 0.999991 0.999991 0.999991 0.999991 0.999991
0.999991 0.999991 0.999991 0.999991 0.999991 0.999991 0.999991 0.999991
0.999991 0.999991 0.999991 0.999991 0.999991 0.999991 0.999991 0.999991
0.999991 0.999991 0.999991 0.999991 0.999991 0.999991 0.999991 0.999991
0.999991 0.999991 0.999991 0.999991 0.999991 0.999991 0.999991 0.999991
0.999991 0.999991 0.999991 0.999991 0.999991 0.999991 0.999991 0.999991
0.999991 0.999991 0.999991 0.999991 0.999991 0.999991 0.999991 0.999991
0.999991 0.999991 0.999991 0.999991 0.999991 0.999991 0.999991 0.999991
0.999991 0.999991 0.999991 0.999991 0.999991 0.999991 0.999991 0.999991
0.999991 0.999991 0.999991 0.999991 0.999991 0.999991 0.999991 0.999991
0.999991 0.999991 0.999991 0.999991 0.999991 0.999991 0.999991 0.999991
0.999991 0.999991 0.999991 0.999991 0.999991 0.999991 0.999991 0.999991
0.999991 0.999991 0.999991 0.999991 0.999991 0.999991 0.999991 0.999991
0.999991 0.999991 0.999991 0.999991 0.999991 0.999991 0.999991 0.999991
0.999991 0.999991 0.999991 0.999991 0.999991 0.999991 0.999991 0.999991
0.999991 0.999991 0.999991 0.999991 0.999991 0.999991 0.999991 0.999991
0.999991 0.999991 1 0.999815 0.999629 0.999443 0.999258 0.999072 0.998887
0.998701 0.998516 0.99833 0.998145 0.997959 0.997774 0.997588 0.997403
0.997217 0.997032 0.996846 0.996661 0.996475 0.99629 0.996104 0.995919
0.995733 0.995548 0.995362 0.995177 0.994991 0.994806 0.99462 0.994435
0.994249 0.994064 0.993878 0.993693 0.993507 0.993322 0.993136 0.992951
0.992765 0.99258 0.992394 0.992209 0.992023 0.991838 0.991652 0.991467
0.991281 0.991096 0.99091 0.990725 0.990539 0.990354 0.990168 0.989983
0.989797 0.989612 0.989426 0.989241 0.989055 0.98887 0.988684 0.988499
0.988313 0.988128 0.987942 0.987757 0.987571 0.987386 0.9872 0.987015
0.986829 0.986644 0.986458 0.986273 0.986087 0.985902 0.985716 0.985531
0.985345 0.98516 0.984974 0.984789 0.984603 0.984418 0.984232 0.984047
0.983861 0.983676 0.98349 0.983305 0.983119 0.982934 0.982748 0.982563
0.982377 0.982192 0.982006 0.981821 0.981635 0.981449 0.981264 0.981079
0.980893 0.980707 0.980522 0.980336 0.980151 0.979965 0.97978 0.979594
0.979409 0.979223 0.979038 0.978852 0.978667 0.978481 0.978296 0.97811
0.977925 0.977739 0.977554 0.977368 0.977183 0.976997 0.976812 0.976626
0.976441 0.976255 0.97607 0.975884 0.975699 0.975513 0.975328 0.975142
0.974957 0.974771 0.974586 0.9744 0.974215 0.974029 0.973844 0.973658
0.973473 0.973287 0.973102 0.972916 0.972731 0.972545 0.97236 0.972174
0.971989 0.971803 0.971618 0.971432 0.971247 0.971061 0.970876 0.97069
0.970505 0.970319 0.970134 0.969948 0.969763 0.969577 0.969392 0.969206
0.969021 0.968835 0.96865 0.968464 0.968279 0.968093 0.967908 0.967722
0.967537 0.967351 0.967166 0.96698 0.966795 0.966609 0.966424 0.966238
0.966053 0.965867 0.965682 0.965496 0.965311 0.965125 0.96494 0.964754
0.964569 0.964383 0.964198 0.964012 0.963826 0.963641 0.963455 0.96327
0.963084 0.962905 0.962657 0.96241 0.962163 0.961916 0.961668 0.961421
0.961174 0.960926 0.960679 0.960432 0.960184 0.959937 0.95969 0.959442
0.959195 0.958948 0.958701 0.958453 0.958206 0.957959 0.957711 0.957464
0.957217 0.956969 0.956722 0.956475 0.956227 0.95598 0.955733 0.955486
0.955238 0.954991 0.954744 0.954496 0.954249 0.954002 0.953754 0.953507
0.95326 0.953013 0.952765 0.952518 0.952271 0.952023 0.951776 0.951529
0.951281 0.951034 0.950787 0.950539 0.950292 0.950045 0.949798 0.94955
0.949303 0.949056 0.948808 0.948561 0.948314 0.948066 0.947819 0.947572
0.947325 0.947077 0.94683 0.946583 0.946335 0.946088 0.945841 0.945593
0.945346 0.945099 0.944851 0.944604 0.944357 0.944109 0.943862 0.943615
0.943368 0.94312 0.942873 0.942626 0.942378 0.942131 0.941884 0.941636
0.941389 0.941142 0.940895 0.940647 0.9404 0.940153 0.939905 0.939658
0.939411 0.939163 0.938916 0.938669 0.938421 0.938174 0.937927 0.93768
0.937432 0.937185 0.936938 0.93669 0.936443 0.936196 0.935948 0.935701
0.935454 0.935207 0.934959 0.934712 0.934465 0.934217 0.93397 0.933723
0.933475 0.933228 0.932981 0.932733 0.932486 0.932239 0.931992 0.931744
0.931497 0.93125 0.931002 0.930755 0.930508 0.93026 0.930013 0.929766
0.929518 0.929271 0.929024 0.928777 0.928529 0.928282 0.928035 0.927787
0.92754 0.927293 0.927045 0.926798 0.926551 0.926304 0.926056 0.925809
0.925562 0.925314 0.925067 0.92482 0.924572 0.924325 0.924078 0.92383
0.923583 0.923336 0.923089 0.922841 0.922594 0.922347 0.922099 0.921852
0.921605 0.921357 0.92111 0.920863 0.920615 0.920368 0.920121 0.919874
0.919626 0.919379 0.919132 0.918884 0.918637 0.91839 0.918142 0.917895
0.917648 0.9174 0.917153 0.916906 0.916659 0.916411 0.916164 0.915917
0.915669 0.915422 0.915175 0.914927 0.91468 0.914433 0.914186 0.913938
0.913691 0.913446 0.913137 0.912827 0.912518 0.912209 0.9119 0.911591
0.911282 0.910973 0.910664 0.910355 0.910046 0.909736 0.909427 0.909118
0.908809 0.9085 0.908191 0.907882 0.907573 0.907264 0.906954 0.906645
0.906336 0.906027 0.905718 0.905409 0.9051 0.904791 0.904482 0.904172
0.903863 0.903554 0.903245 0.902936 0.902627 0.902318 0.902009 0.9017
0.901391 0.901081 0.900772 0.900463 0.900154 0.899845 0.899536 0.899227
0.898918 0.898609 0.898299 0.89799 0.897681 0.897372 0.897063 0.896754
0.896445 0.896136 0.895827 0.895518 0.895208 0.894899 0.89459 0.894281
0.893972 0.893663 0.893354 0.893045 0.892736 0.892426 0.892117 0.891808
0.891499 0.89119 0.890881 0.890572 0.890263 0.889954 0.889645 0.889335
0.889026 0.888717 0.888408 0.888099 0.88779 0.887481 0.887172 0.886863
0.886553 0.886244 0.885935 0.885626 0.885317 0.885008 0.884699 0.88439
0.884081 0.883771 0.883462 0.883153 0.882844 0.882535 0.882226 0.881917
0.881608 0.881299 0.880989 0.88068 0.880371 0.880062 0.879753 0.879444
0.879135 0.878826 0.878517 0.878208 0.877898 0.877589 0.87728 0.876971
0.876662 0.876353 0.876044 0.875735 0.875426 0.875116 0.874807 0.874498
0.874189 0.87388 0.873571 0.873262 0.872953 0.872644 0.872335 0.872025
0.871716 0.871407 0.871098 0.870789 0.87048 0.870171 0.869862 0.869553
0.869243 0.868934 0.868625 0.868316 0.868007 0.867698 0.867389 0.86708
0.866771 0.866462 0.866152 0.865843 0.865534 0.865225 0.864916 0.864607
0.864298 0.863989 0.86368 0.86337 0.863061 0.862752 0.862443 0.862134
0.861825 0.861516 0.861207 0.860898 0.860588 0.860279 0.85997 0.859661
0.859352 0.859043 0.858734 0.858425 0.858116 0.857807 0.857497 0.857188
0.856879 0.85657 0.856261 0.855952 0.855643 0.855334 0.855025 0.854715
0.854406 0.854097 0.853788 0.853479 0.85317 0.852861 0.852552 0.852243
0.851933 0.851625 0.851131 0.850636 0.850142 0.849647 0.849153 0.848658
0.848163 0.847669 0.847174 0.84668 0.846185 0.845691 0.845196 0.844701
0.844207 0.843712 0.843218 0.842723 0.842229 0.841734 0.84124 0.840745
0.84025 0.839756 0.839261 0.838767 0.838272 0.837778 0.837283 0.836789
0.836294 0.835799 0.835305 0.83481 0.834316 0.833821 0.833327 0.832832
0.832337 0.831843 0.831348 0.830854 0.830359 0.829865 0.82937 0.828876
0.828381 0.827886 0.827392 0.826897 0.826403 0.825908 0.825414 0.824919
0.824425 0.82393 0.823435 0.822941 0.822446 0.821952 0.821457 0.820963
0.820468 0.819973 0.819479 0.818984 0.81849 0.817995 0.817501 0.817006
0.816512 0.816017 0.815522 0.815028 0.814533 0.814039 0.813544 0.81305
0.812555 0.812061 0.811566 0.811071 0.810577 0.810082 0.809588 0.809093
0.808599 0.808104 0.807609 0.807115 0.80662 0.806126 0.805631 0.805137
0.804642 0.804148 0.803653 0.803158 0.802664 0.802169 0.801675 0.80118
0.800686 0.800191 0.799697 0.799202 0.798707 0.798213 0.797718 0.797224
0.796729 0.796235 0.79574 0.795245 0.794751 0.794256 0.793762 0.793267
0.792773 0.792278 0.791784 0.791289 0.790794 0.7903 0.789805 0.789311
0.788816 0.788322 0.787827 0.787333 0.786838 0.786343 0.785849 0.785354
0.78486 0.784365 0.783871 0.783376 0.782881 0.782387 0.781892 0.781398
0.780903 0.780409 0.779914 0.77942 0.778925 0.77843 0.777936 0.777441
0.777029 0.776617 0.776204 0.775792 0.77538 0.774968 0.774556 0.774144
0.773732 0.77332 0.772907 0.772495 0.772083 0.771671 0.771259 0.770847
0.770435 0.770023 0.76961 0.769198 0.768786 0.768374 0.767962 0.76755
0.767138 0.766726 0.766313 0.765901 0.765489 0.765077 0.764665 0.764253
0.763841 0.763429 0.763016 0.762604 0.762192 0.76178 0.761368 0.760956
0.760544 0.760132 0.759719 0.759307 0.758895 0.758483 0.758071 0.757659
0.757247 0.756835 0.756422 0.75601 0.755598 0.755186 0.754774 0.754362
0.75395 0.753538 0.753125 0.752713 0.752301 0.751889 0.751477 0.751065
0.750653 0.750241 0.749828 0.749416 0.749004 0.748592 0.74818 0.747768
0.747356 0.746944 0.746531 0.746119 0.745707 0.745295 0.744883 0.744471
0.744059 0.743647 0.743234 0.742822 0.74241 0.741998 0.741586 0.741174
0.740762 0.74035 0.739937 0.739525 0.739113 0.738701 0.738289 0.737877
0.737465 0.737053 0.736641 0.736228 0.735816 0.735404 0.734992 0.73458
0.734168 0.733756 0.733343 0.732931 0.732519 0.732107 0.731695 0.731283
0.730871 0.730459 0.730047 0.729634 0.729222 0.72881 0.728398 0.727986
0.727574 0.727162 0.726749 0.726337 0.725925 0.725513 0.725101 0.724689
0.724277 0.723865 0.723453 0.72304 0.722628 0.722216 0.721804 0.721392
0.72098 0.720568 0.720155 0.719743 0.719331 0.718919 0.718507 0.718095
0.717683 0.717271 0.716859 0.716446 0.716034 0.715621 0.71525 0.714879
0.714508 0.714137 0.713766 0.713395 0.713025 0.712654 0.712283 0.711912
0.711541 0.71117 0.710799 0.710428 0.710057 0.709686 0.709315 0.708945
0.708574 0.708203 0.707832 0.707461 0.70709 0.706719 0.706348 0.705977
0.705606 0.705235 0.704865 0.704494 0.704123 0.703752 0.703381 0.70301
0.702639 0.702268 0.701897 0.701526 0.701156 0.700785 0.700414 0.700043
0.699672 0.699301 0.69893 0.698559 0.698188 0.697817 0.697446 0.697076
0.696705 0.696334 0.695963 0.695592 0.695221 0.69485 0.694479 0.694108
0.693737 0.693366 0.692996 0.692625 0.692254 0.691883 0.691512 0.691141
0.69077 0.690399 0.690028 0.689657 0.689286 0.688916 0.688545 0.688174
0.687803 0.687432 0.687061 0.68669 0.686319 0.685948 0.685577 0.685207
0.684836 0.684465 0.684094 0.683723 0.683352 0.682981 0.68261 0.682239
0.681868 0.681497 0.681127 0.680756 0.680385 0.680014 0.679643 0.679272
0.678901 0.67853 0.678159 0.677788 0.677417 0.677047 0.676676 0.676305
0.675934 0.675563 0.675192 0.674821 0.67445 0.674079 0.673708 0.673338
0.672967 0.672596 0.672225 0.671854 0.671483 0.671112 0.670741 0.67037
0.669999 0.669628 0.669258 0.668887 0.668516 0.668145 0.667774 0.667403
0.667032 0.666661 0.66629 0.665919 0.665548 0.665178 0.664807 0.664436
0.664065 0.663694 0.663323 0.662952 0.662581 0.66221 0.661839 0.661468
0.661098 0.660727 0.660356 0.659981 0.659734 0.659487 0.65924 0.658992
0.658745 0.658498 0.658251 0.658003 0.657756 0.657509 0.657262 0.657014
0.656767 0.65652 0.656273 0.656025 0.655778 0.655531 0.655284 0.655036
0.654789 0.654542 0.654295 0.654047 0.6538 0.653553 0.653306 0.653058
0.652811 0.652564 0.652317 0.652069 0.651822 0.651575 0.651328 0.65108
0.650833 0.650586 0.650339 0.650091 0.649844 0.649597 0.64935 0.649102
0.648855 0.648608 0.64836 0.648113 0.647866 0.647619 0.647371 0.647124
0.646877 0.64663 0.646382 0.646135 0.645888 0.645641 0.645393 0.645146
0.644899 0.644652 0.644404 0.644157 0.64391 0.643663 0.643415 0.643168
0.642921 0.642674 0.642426 0.642179 0.641932 0.641685 0.641437 0.64119
0.640943 0.640696 0.640448 0.640201 0.639954 0.639707 0.639459 0.639212
0.638965 0.638718 0.63847 0.638223 0.637976 0.637729 0.637481 0.637234
0.636987 0.63674 0.636492 0.636245 0.635998 0.635751 0.635503 0.635256
0.635009 0.634762 0.634514 0.634267 0.63402 0.633772 0.633525 0.633278
0.633031 0.632783 0.632536 0.632289 0.632042 0.631794 0.631547 0.6313
0.631053 0.630805 0.630558 0.630311 0.630064 0.629816 0.629569 0.629322
0.629075 0.628827 0.62858 0.628333 0.628086 0.627838 0.627591 0.627344
0.627097 0.626849 0.626602 0.626355 0.626108 0.62586 0.625613 0.625366
0.625119 0.624871 0.624624 0.624377 0.62413 0.623882 0.623635 0.623388
0.623141 0.62289 0.622643 0.622395 0.622148 0.621901 0.621654 0.621406
0.621159 0.620912 0.620665 0.620417 0.62017 0.619923 0.619676 0.619428
0.619181 0.618934 0.618687 0.618439 0.618192 0.617945 0.617698 0.61745
0.617203 0.616956 0.616709 0.616461 0.616214 0.615967 0.61572 0.615472
0.615225 0.614978 0.614731 0.614483 0.614236 0.613989 0.613742 0.613494
0.613247 0.613 0.612752 0.612505 0.612258 0.612011 0.611763 0.611516
0.611269 0.611022 0.610774 0.610527 0.61028 0.610033 0.609785 0.609538
0.609291 0.609044 0.608796 0.608549 0.608302 0.608055 0.607807 0.60756
0.607313 0.607066 0.606818 0.606571 0.606324 0.606077 0.605829 0.605582
0.605335 0.605088 0.60484 0.604593 0.604346 0.604099 0.603851 0.603604
0.603357 0.60311 0.602862 0.602615 0.602368 0.602121 0.601873 0.601626
0.601379 0.601132 0.600884 0.600637 0.60039 0.600143 0.599895 0.599648
0.599401 0.599154 0.598906 0.598659 0.598412 0.598164 0.597917 0.59767
0.597423 0.597175 0.596928 0.596681 0.596434 0.596186 0.595939 0.595692
0.595445 0.595197 0.59495 0.594703 0.594456 0.594208 0.593961 0.593714
0.593467 0.593219 0.592972 0.592725 0.592478 0.59223 0.591983 0.591736
0.591489 0.591241 0.590994 0.590747 0.5905 0.590252 0.590005 0.589758
0.589511 0.589263 0.589016 0.588769 0.588522 0.588274 0.588027 0.58778
0.587533 0.587285 0.587038 0.586791 0.586544 0.586296 0.586049 0.585805
0.58564 0.585475 0.58531 0.585145 0.58498 0.584815 0.584651 0.584486
0.584321 0.584156 0.583991 0.583826 0.583661 0.583497 0.583332 0.583167
0.583002 0.582837 0.582672 0.582507 0.582342 0.582178 0.582013 0.581848
0.581683 0.581518 0.581353 0.581188 0.581023 0.580859 0.580694 0.580529
0.580364 0.580199 0.580034 0.579869 0.579704 0.57954 0.579375 0.57921
0.579045 0.57888 0.578715 0.57855 0.578385 0.578221 0.578056 0.577891
0.577726 0.577561 0.577396 0.577231 0.577067 0.576902 0.576737 0.576572
0.576407 0.576242 0.576077 0.575912 0.575748 0.575583 0.575418 0.575253
0.575088 0.574923 0.574758 0.574593 0.574429 0.574264 0.574099 0.573934
0.573769 0.573604 0.573439 0.573274 0.57311 0.572945 0.57278 0.572615
0.57245 0.572285 0.57212 0.571956 0.571791 0.571626 0.571461 0.571296
0.571131 0.570966 0.570801 0.570637 0.570472 0.570307 0.570142 0.569977
0.569812 0.569647 0.569483 0.569318 0.569153 0.568988 0.568823 0.568658
0.568493 0.568328 0.568164 0.567999 0.567834 0.567669 0.567504 0.567339
0.567174 0.567009 0.566845 0.56668 0.566515 0.56635 0.566185 0.56602
0.565855 0.56569 0.565526 0.565361 0.565196 0.565031 0.564866 0.564701
0.564536 0.564372 0.564207 0.564042 0.563877 0.563712 0.563547 0.563382
0.563217 0.563053 0.562888 0.562723 0.562558 0.562393 0.562228 0.562063
0.561898 0.561734 0.561569 0.561404 0.561239 0.561071 0.560927 0.560783
0.560639 0.560494 0.56035 0.560206 0.560062 0.559918 0.559773 0.559629
0.559485 0.559341 0.559196 0.559052 0.558908 0.558764 0.558619 0.558475
0.558331 0.558187 0.558042 0.557898 0.557754 0.55761 0.557465 0.557321
0.557177 0.557033 0.556889 0.556744 0.5566 0.556456 0.556312 0.556167
0.556023 0.555879 0.555735 0.55559 0.555446 0.555302 0.555158 0.555013
0.554869 0.554725 0.554581 0.554437 0.554292 0.554148 0.554004 0.55386
0.553715 0.553571 0.553427 0.553283 0.553138 0.552994 0.55285 0.552706
0.552562 0.552417 0.552273 0.552129 0.551985 0.55184 0.551696 0.551552
0.551408 0.551263 0.551119 0.550975 0.550831 0.550686 0.550542 0.550398
0.550254 0.55011 0.549965 0.549821 0.549677 0.549533 0.549388 0.549244
0.5491 0.548956 0.548811 0.548667 0.548523 0.548379 0.548234 0.54809
0.547946 0.547802 0.547657 0.547513 0.547369 0.547225 0.547081 0.546936
0.546792 0.546648 0.546504 0.546359 0.546215 0.546071 0.545927 0.545782
0.545638 0.545494 0.54535 0.545205 0.545061 0.544917 0.544773 0.544629
0.544484 0.54434 0.544196 0.544052 0.543907 0.543763 0.543619 0.543475
0.54333 0.543186 0.543042 0.542898 0.542753 0.542609 0.542465 0.542321
0.542176 0.542032 0.541888 0.541744 0.5416 0.541455 0.541311 0.541167
0.541023 0.540878 0.540734 0.54059 0.540446 0.540301 0.540157 0.540013
0.539869 0.539725 0.53958 0.539436 0.539292 0.539148 0.539003 0.538859
0.538715 0.538571 0.538426 0.538282 0.538138 0.537994 0.537849 0.537705
0.537561 0.537417 0.537273 0.537128 0.536984 0.53684 0.536696 0.536551
0.536407 0.536263 0.536119 0.535974 0.53583 0.535686 0.535542 0.535397
0.535253 0.535109 0.534965 0.53482 0.534676 0.534532 0.534388 0.534244
0.534099 0.533955 0.533811 0.533667 0.533522 0.533378 0.533234 0.53309
0.532945 0.532801 0.532657 0.532513 0.532368 0.532224 0.53208 0.531936
0.531792 0.531647 0.531503 0.531359 0.531215 0.53107 0.530926 0.530782
0.530638 0.530493 0.530349 0.530205 0.530061 0.529916 0.529772 0.529628
0.529484 0.529339 0.529195 0.529051 0.528907 0.528763 0.528618 0.528474
0.52833 0.528186 0.528041 0.527897 0.527753 0.527609 0.527464 0.52732
0.527176 0.527032 0.526888 0.526743 0.526599 0.526455 0.526311 0.526166
0.526022 0.525878 0.525734 0.525589 0.525445 0.525301 0.525157 0.525012
0.524868 0.524724 0.52458 0.524436 0.524291 0.524147 0.524003 0.523859
0.523714 0.52357 0.523426 0.523282 0.523137 0.522993 0.522849 0.522705
0.52256 0.522416 0.522272 0.522128 0.521984 0.521839 0.521695 0.521551
0.521407 0.521262 0.521118 0.520974 0.52083 0.520685 0.520541 0.520397
0.520253 0.520108 0.519964 0.51982 0.519676 0.519531 0.519387 0.519243
0.519099 0.518955 0.51881 0.518666 0.518522 0.518378 0.518233 0.518089
0.517945 0.517795 0.517689 0.517583 0.517477 0.517371 0.517265 0.517159
0.517053 0.516947 0.516841 0.516735 0.516629 0.516523 0.516417 0.516311
0.516205 0.516099 0.515993 0.515887 0.515781 0.515675 0.51557 0.515464
0.515358 0.515252 0.515146 0.51504 0.514934 0.514828 0.514722 0.514616
0.51451 0.514404 0.514298 0.514192 0.514086 0.51398 0.513874 0.513768
0.513662 0.513556 0.51345 0.513344 0.513238 0.513132 0.513027 0.512921
0.512815 0.512709 0.512603 0.512497 0.512391 0.512285 0.512179 0.512073
0.511967 0.511861 0.511755 0.511649 0.511543 0.511437 0.511331 0.511225
0.511119 0.511013 0.510907 0.510801 0.510695 0.510589 0.510484 0.510378
0.510272 0.510166 0.51006 0.509954 0.509848 0.509742 0.509636 0.50953
0.509424 0.509318 0.509212 0.509106 0.509 0.508894 0.508788 0.508682
0.508576 0.50847 0.508364 0.508258 0.508152 0.508046 0.507941 0.507835
0.507729 0.507623 0.507517 0.507411 0.507305 0.507199 0.507093 0.506987
0.506881 0.506775 0.506669 0.506563 0.506457 0.506351 0.506245 0.506139
0.506033 0.505927 0.505821 0.505715 0.505609 0.505503 0.505397 0.505292
0.505186 0.50508 0.504974 0.504868 0.504762 0.504656 0.50455 0.504444
0.504338 0.504232 0.504126 0.50402 0.503914 0.503808 0.503702 0.503596
0.50349 0.503384 0.503278 0.503172 0.503066 0.50296 0.502854 0.502749
0.502643 0.502537 0.502431 0.502325 0.502219 0.502113 0.502007 0.501901
0.501795 0.501689 0.501583 0.501477 0.501371 0.501265 0.501159 0.501053
0.500947 0.500841 0.500735 0.500629 0.500523 0.500417 0.500311 0.500206
0.5001 0.499994 0.499888 0.499782 0.499676 0.49957 0.499464 0.499358
0.499252 0.499146 0.49904 0.498934 0.498828 0.498722 0.498616 0.49851
0.498404 0.498298 0.498192 0.498086 0.49798 0.497874 0.497768 0.497663
0.497557 0.497451 0.497345 0.497239 0.497133 0.497027 0.496921 0.496815
0.496709 0.496603 0.496497 0.496391 0.496285 0.496179 0.496073 0.495967
0.495861 0.495755 0.495649 0.495543 0.495437 0.495331 0.495225 0.49512
0.495014 0.494908 0.494802 0.494696 0.49459 0.494484 0.494378 0.494272
0.494166 0.49406 0.493954 0.493848 0.493742 0.493636 0.49353 0.493424
0.493318 0.493212 0.493106 0.493 0.492894 0.492788 0.492682 0.492576
0.492471 0.492365 0.492259 0.492153 0.492047 0.491941 0.491835 0.491729
0.491623 0.491517 0.491411 0.491305 0.491199 0.491093 0.490987 0.490881
0.490775 0.490669 0.490563 0.490457 0.490351 0.490245 0.490139 0.490033
0.489928 0.489822 0.489716 0.48961 0.489504 0.489398 0.489292 0.489186
0.48908 0.488974 0.488868 0.488762 0.488656 0.48855 0.488444 0.488338
0.488232 0.488126 0.48802 0.487914 0.487808 0.487702 0.487596 0.48749
0.487385 0.487279 0.487173 0.487067 0.486961 0.486855 0.486749 0.486643
0.486537 0.486431 0.486325 0.486219 0.486113 0.486007 0.485901 0.485795
0.485689 0.485583 0.485477 0.485371 0.485265 0.485159 0.485053 0.484947
0.484841 0.484736 0.48463 0.484524 0.484418 0.484312 0.484206 0.4841
0.483994 0.483888 0.483782 0.483676 0.48357 0.483464 0.483358 0.483252
0.483146 0.48304 0.482934 0.482828 0.482722 0.482616 0.48251 0.482404
0.482298 0.482193 0.482087 0.481981 0.481875 0.481769 0.481663 0.481557
0.481451 0.481345 0.481239 0.481133 0.481027 0.480921 0.480815 0.480709
0.480635 0.48056 0.480486 0.480412 0.480338 0.480264 0.480189 0.480115
0.480041 0.479967 0.479893 0.479819 0.479744 0.47967 0.479596 0.479522
0.479448 0.479373 0.479299 0.479225 0.479151 0.479077 0.479003 0.478928
0.478854 0.47878 0.478706 0.478632 0.478557 0.478483 0.478409 0.478335
0.478261 0.478187 0.478112 0.478038 0.477964 0.47789 0.477816 0.477741
0.477667 0.477593 0.477519 0.477445 0.477371 0.477296 0.477222 0.477148
0.477074 0.477 0.476925 0.476851 0.476777 0.476703 0.476629 0.476555
0.47648 0.476406 0.476332 0.476258 0.476184 0.476109 0.476035 0.475961
0.475887 0.475813 0.475739 0.475664 0.47559 0.475516 0.475442 0.475368
0.475293 0.475219 0.475145 0.475071 0.474997 0.474923 0.474848 0.474774
0.4747 0.474626 0.474552 0.474477 0.474403 0.474329 0.474255 0.474181
0.474107 0.474032 0.473958 0.473884 0.47381 0.473736 0.473661 0.473587
0.473513 0.473439 0.473365 0.473291 0.473216 0.473142 0.473068 0.472994
0.47292 0.472845 0.472771 0.472697 0.472623 0.472549 0.472475 0.4724
0.472326 0.472252 0.472178 0.472104 0.472029 0.471955 0.471881 0.471807
0.471733 0.471659 0.471584 0.47151 0.471436 0.471362 0.471288 0.471213
0.471139 0.471065 0.470991 0.470917 0.470843 0.470768 0.470694 0.47062
0.470546 0.470472 0.470398 0.470323 0.470249 0.470175 0.470101 0.470027
0.469952 0.469878 0.469804 0.46973 0.469656 0.469581 0.469507 0.469433
0.469359 0.469285 0.469211 0.469136 0.469062 0.468988 0.468914 0.46884
0.468765 0.468691 0.468617 0.468543 0.468469 0.468395 0.46832 0.468246
0.468172 0.468098 0.468024 0.46795 0.467875 0.467801 0.467727 0.467653
0.467579 0.467504 0.46743 0.467356 0.467282 0.467208 0.467134 0.467059
0.466985 0.466911 0.466837 0.466763 0.466688 0.466614 0.46654 0.466466
0.466392 0.466318 0.466243 0.466169 0.466095 0.466021 0.465947 0.465872
0.465798 0.465724 0.46565 0.465576 0.465502 0.465427 0.465353 0.465279
0.465205 0.465131 0.465056 0.464982 0.464908 0.464834 0.46476 0.464686
0.464611 0.464537 0.464463 0.464389 0.464315 0.46424 0.464166 0.464092
0.464018 0.463944 0.46387 0.463795 0.463721 0.463647 0.463573 0.463499
0.463424 0.46335 0.463276 0.463202 0.463128 0.463054 0.462979 0.462905
0.462831 0.462757 0.462683 0.462608 0.462534 0.46246 0.462386 0.462312
0.462238 0.462166 0.462084 0.462001 0.461919 0.461837 0.461754 0.461672
0.461589 0.461507 0.461424 0.461342 0.461259 0.461177 0.461095 0.461012
0.46093 0.460847 0.460765 0.460682 0.4606 0.460518 0.460435 0.460353
0.46027 0.460188 0.460105 0.460023 0.45994 0.459858 0.459776 0.459693
0.459611 0.459528 0.459446 0.459363 0.459281 0.459199 0.459116 0.459034
0.458951 0.458869 0.458786 0.458704 0.458622 0.458539 0.458457 0.458374
0.458292 0.458209 0.458127 0.458044 0.457962 0.45788 0.457797 0.457715
0.457632 0.45755 0.457467 0.457385 0.457303 0.45722 0.457138 0.457055
0.456973 0.45689 0.456808 0.456726 0.456643 0.456561 0.456478 0.456396
0.456313 0.456231 0.456148 0.456066 0.455984 0.455901 0.455819 0.455736
0.455654 0.455571 0.455489 0.455407 0.455324 0.455242 0.455159 0.455077
0.454994 0.454912 0.45483 0.454747 0.454665 0.454582 0.4545 0.454417
0.454335 0.454252 0.45417 0.454088 0.454005 0.453923 0.45384 0.453758
0.453675 0.453593 0.453511 0.453428 0.453346 0.453263 0.453181 0.453098
0.453016 0.452933 0.452851 0.452769 0.452686 0.452604 0.452521 0.452439
0.452356 0.452274 0.452192 0.452109 0.452027 0.451944 0.451862 0.451779
0.451697 0.451615 0.451532 0.45145 0.451367 0.451285 0.451202 0.45112
0.451037 0.450955 0.450873 0.45079 0.450708 0.450625 0.450543 0.45046
0.450378 0.450296 0.450213 0.450131 0.450048 0.449966 0.449883 0.449801
0.449719 0.449636 0.449554 0.449471 0.449389 0.449306 0.449224 0.449141
0.449059 0.448977 0.448894 0.448812 0.448729 0.448647 0.448564 0.448482
0.4484 0.448317 0.448235 0.448152 0.44807 0.447987 0.447905 0.447823
0.44774 0.447658 0.447575 0.447493 0.44741 0.447328 0.447245 0.447163
0.447081 0.446998 0.446916 0.446833 0.446751 0.446668 0.446586 0.446504
0.446421 0.446339 0.446256 0.446174 0.446091 0.446009 0.445926 0.445844
0.445762 0.445679 0.445597 0.445514 0.445432 0.445349 0.445267 0.445185
0.445102 0.44502 0.444937 0.444855 0.444772 0.44469 0.444608 0.444525
0.444443 0.44436 0.444278 0.444195 0.444113 0.44403 0.443948 0.443866
0.443783 0.443701 0.443618 0.443536 0.443453 0.443371 0.443289 0.443206
0.443124 0.443041 0.442959 0.442876 0.442794 0.442712 0.442629 0.442547
0.442464 0.442382 0.442299 0.442217 0.442134 0.442052 0.44197 0.441887
0.441805 0.441722 0.44164 0.441557 0.441475 0.441393 0.44131 0.441228
0.441145 0.441063 0.44098 0.440898 0.440816 0.440733 0.440651 0.440568
0.440486 0.440403 0.440321 0.440238 0.440156 0.440074 0.439991 0.439909
0.439826 0.439744 0.439661 0.439579 0.439497 0.439414 0.439332 0.439249
0.439167 0.439084 0.439002 0.43892 0.438837 0.438755 0.438672 0.43859
0.438507 0.438425 0.438342 0.43826 0.438178 0.438095 0.438013 0.43793
0.437848 0.437765 0.437683 0.437601 0.437518 0.437436 0.437395 0.437354
0.437313 0.437272 0.43723 0.437189 0.437148 0.437107 0.437065 0.437024
0.436983 0.436942 0.436901 0.436859 0.436818 0.436777 0.436736 0.436694
0.436653 0.436612 0.436571 0.43653 0.436488 0.436447 0.436406 0.436365
0.436324 0.436282 0.436241 0.421914 0.4217 0.421485 0.421271 0.421057
0.420842 0.420628 0.420414 0.4202 0.419985 0.419771 0.419557 0.419342
0.419128 0.418914 0.4187 0.418485 0.418271 0.418057 0.417843 0.417628
0.417414 0.4172 0.416985 0.416771 0.416557 0.416343 0.416128 0.415914
0.4157 0.415485 0.415271 0.415057 0.414843 0.414628 0.414414 0.4142
0.413986 0.413771 0.413557 0.413343 0.413128 0.412914 0.4127 0.412486
0.412271 0.412057 0.411843 0.411628 0.411414 0.4112 0.410986 0.410771
0.410557 0.410343 0.410129 0.409914 0.4097 0.409486 0.409271 0.409057
0.408843 0.408629 0.408414 0.4082 0.407986 0.407771 0.407557 0.407343
0.407129 0.406914 0.4067 0.406486 0.406271 0.406057 0.405843 0.405629
0.405414 0.4052 0.404986 0.404772 0.404557 0.404343 0.404129 0.403914
0.4037 0.403486 0.403272 0.403057 0.402843 0.402629 0.402414 0.4022
0.401986 0.401772 0.401557 0.401343 0.401129 0.400915 0.4007 0.400485
0.400271 0.400057 0.399843 0.399628 0.399414 0.3992 0.398986 0.398771
0.398557 0.398343 0.398128 0.397914 0.3977 0.397486 0.397271 0.397057
0.396843 0.396628 0.396414 0.3962 0.395986 0.395771 0.395557 0.395343
0.395129 0.394914 0.3947 0.394486 0.394271 0.394057 0.393843 0.393629
0.393414 0.3932 0.392986 0.392771 0.392557 0.392343 0.392129 0.391914
0.3917 0.391486 0.391272 0.391057 0.390843 0.390629 0.390414 0.3902
0.389986 0.389772 0.389557 0.389343 0.389129 0.388914 0.3887 0.388486
0.388272 0.388057 0.387843 0.387629 0.387414 0.3872 0.386986 0.386772
0.386557 0.386343 0.386129 0.385915 0.3857 0.385486 0.385272 0.385057
0.384843 0.384629 0.384415 0.3842 0.383986 0.383772 0.383557 0.383343
0.383129 0.382915 0.3827 0.382486 0.382272 0.382058 0.381843 0.381629
0.381415 0.3812 0.380986 0.380772 0.380558 0.380343 0.380129 0.379915
0.3797 0.379486 0.379272 0.379057 0.378843 0.378629 0.378414 0.3782
0.377986 0.377771 0.377557 0.377343 0.377129 0.376914 0.3767 0.376486
0.376272 0.376057 0.375843 0.375629 0.375414 0.3752 0.374986 0.374772
0.374557 0.374343 0.374129 0.373914 0.3737 0.373486 0.373272 0.373057
0.372843 0.372629 0.372414 0.3722 0.371986 0.371772 0.371557 0.371343
0.371129 0.370915 0.3707 0.370486 0.370272 0.370057 0.369843 0.369629
0.369415 0.3692 0.368986 0.368772 0.368557 0.368343 0.368129 0.367915
0.3677 0.367486 0.367272 0.367058 0.366843 0.366629 0.366415 0.3662
0.365986 0.365772 0.365558 0.365343 0.365129 0.364915 0.3647 0.364486
0.364272 0.364058 0.363843 0.363629 0.363415 0.363201 0.362986 0.362772
0.362558 0.362343 0.362129 0.361915 0.361701 0.361486 0.361272 0.361058
0.360843 0.360629 0.360415 0.360201 0.359986 0.359772 0.359558 0.359343
0.359129 0.358915 0.358701 0.358486 0.358272 0.358058 0.357844 0.357629
0.357415 0.3572 0.356986 0.356772 0.356557 0.356343 0.356129 0.355915
0.3557 0.355486 0.355272 0.355057 0.354843 0.354629 0.354415 0.3542
0.353986 0.353772 0.353557 0.353343 0.353129 0.352915 0.3527 0.352486
0.352272 0.352058 0.351843 0.351629 0.351415 0.3512 0.350986 0.350772
0.350558 0.350343 0.350129 0.349915 0.3497 0.349486 0.349272 0.349058
0.348843 0.348629 0.348415 0.348201 0.347986 0.347772 0.347558 0.347343
0.347129 0.346915 0.346701 0.346486 0.346272 0.346058 0.345843 0.345629
0.345415 0.345201 0.344986 0.344772 0.344558 0.344344 0.344129 0.343915
0.343701 0.343486 0.343272 0.343058 0.342844 0.342629 0.342415 0.342201
0.341986 0.341772 0.341558 0.341344 0.341129 0.340915 0.340701 0.340486
0.340272 0.340058 0.339844 0.339629 0.339415 0.339201 0.338987 0.338772
0.338558 0.338344 0.338129 0.337915 0.337701 0.337487 0.337272 0.337058
0.336844 0.336629 0.336415 0.336201 0.33563 0.335058 0.334487 0.333916
0.333344 0.332773 0.332201 0.33163 0.331058 0.330487 0.329916 0.329344
0.328773 0.328201 0.32763 0.327058 0.326487 0.325916 0.325344 0.324773
0.324201 0.32363 0.323058 0.322487 0.321916 0.321344 0.320773 0.320201
0.31963 0.319058 0.318487 0.317916 0.317344 0.316773 0.316201 0.31563
0.315058 0.314487 0.313916 0.313344 0.312773 0.312201 0.31163 0.311058
0.310487 0.309916 0.309344 0.308773 0.308201 0.307629 0.307486 0.307343
0.307201 0.307058 0.306915 0.306772 0.306629 0.306486 0.306344 0.306201
0.306058 0.305915 0.305772 0.305629 0.305487 0.305344 0.305201 0.305058
0.304915 0.304772 0.304629 0.304487 0.304344 0.304201 0.304058 0.303915
0.303772 0.30363 0.303487 0.303344 0.303201 0.303058 0.302915 0.302772
0.30263 0.302487 0.302344 0.302201 0.302058 0.301915 0.301773 0.30163
0.301487 0.301344 0.301201 0.301058 0.300916 0.300773 0.30063 0.300487
0.300201 0.299916 0.29963 0.299344 0.299059 0.298773 0.298487 0.298201
0.297916 0.29763 0.297344 0.297059 0.296773 0.296487 0.296201 0.295916
0.29563 0.295344 0.295059 0.294773 0.294487 0.294201 0.293916 0.29363
0.293344 0.293059 0.292773 0.292487 0.292201 0.291916 0.29163 0.291344
0.291059 0.290773 0.290487 0.290201 0.289916 0.28963 0.289344 0.289059
0.288773 0.288487 0.288201 0.287916 0.28763 0.287344 0.287059 0.286773
0.286487 0.286201 0.286058 0.285915 0.285772 0.285629 0.285487 0.285344
0.285201 0.285058 0.284915 0.284772 0.28463 0.284487 0.284344 0.284201
0.284058 0.283915 0.283772 0.28363 0.283487 0.283344 0.283201 0.283058
0.282915 0.282773 0.28263 0.282487 0.282344 0.282201 0.282058 0.281916
0.281773 0.28163 0.281487 0.281344 0.281201 0.281058 0.280916 0.280773
0.28063 0.280487 0.280344 0.280201 0.280059 0.279916 0.279773 0.27963
0.279487 0.279344 0.279202 0.279057 0.278915 0.278772 0.278629 0.278486
0.278343 0.2782 0.278057 0.277915 0.277772 0.277629 0.277486 0.277343
0.2772 0.277058 0.276915 0.276772 0.276629 0.276486 0.276343 0.276201
0.276058 0.275915 0.275772 0.275629 0.275486 0.275343 0.275201 0.275058
0.274915 0.274772 0.274629 0.274486 0.274344 0.274201 0.274058 0.273915
0.273772 0.273629 0.273486 0.273344 0.273201 0.273058 0.272915 0.272772
0.272629 0.272487 0.272344 0.272201 0.272058 0.271915 0.271772 0.27163
0.271487 0.271344 0.271201 0.271058 0.270915 0.270772 0.27063 0.270487
0.270344 0.270201 0.270058 0.269915 0.269773 0.26963 0.269487 0.269344
0.269201 0.269058 0.268916 0.268773 0.26863 0.268487 0.268344 0.268201
0.268058 0.267916 0.267773 0.26763 0.267487 0.267344 0.267201 0.267059
0.266916 0.266773 0.26663 0.266487 0.266344 0.266202 0.266059 0.265916
0.265773 0.26563 0.265487 0.265344 0.265202 0.265059 0.264916 0.250488
0.250345 0.250202 0.250059 0.249916 0.249773 0.24963 0.249488 0.249345
0.249202 0.249059 0.248916 0.248773 0.24863 0.248488 0.248345 0.248202
0.248059 0.247916 0.247773 0.24763 0.247488 0.247345 0.247202 0.247059
0.246916 0.246773 0.24663 0.246488 0.246345 0.246202 0.246059 0.245916
0.245773 0.24563 0.245488 0.245345 0.245202 0.245059 0.244916 0.244773
0.24463 0.244488 0.244345 0.244202 0.244059 0.243916 0.243773 0.24363
0.243488 0.236202 0.236202 0.236202 0.236202 0.236202 0.236202 0.236202
0.236202 0.236202 0.236202 0.236202 0.236202 0.236202 0.236202 0.236202
0.236202 0.236202 0.236202 0.236202 0.236202 0.236202 0.236202 0.236202
0.236202 0.236202 0.236202 0.236202 0.236202 0.236202 0.236202 0.236202
0.236202 0.236202 0.236202 0.236202 0.236202 0.236202 0.236202 0.236202
0.236202 0.236202 0.236202 0.236202 0.236202 0.236202 0.236202 0.236202
0.236202 0.236202 0.236202 0.229059 0.229059 0.229059 0.229059 0.229059
0.229059 0.229059 0.229059 0.229059 0.229059 0.229059 0.229059 0.229059
0.229059 0.229059 0.229059 0.229059 0.229059 0.229059 0.229059 0.229059
0.229059 0.229059 0.229059 0.229059 0.229059 0.229059 0.229059 0.229059
0.229059 0.229059 0.229059 0.229059 0.229059 0.229059 0.229059 0.229059
0.229059 0.229059 0.229059 0.229059 0.229059 0.229059 0.229059 0.229059
0.229059 0.229059 0.229059 0.229059 0.229059 0.221916 0.221916 0.221916
0.221916 0.221916 0.221916 0.221916 0.221916 0.221916 0.221916 0.221916
0.221916 0.221916 0.221916 0.221916 0.221916 0.221916 0.221916 0.221916
0.221916 0.221916 0.221916 0.221916 0.221916 0.221916 0.221916 0.221916
0.221916 0.221916 0.221916 0.221916 0.221916 0.221916 0.221916 0.221916
0.221916 0.221916 0.221916 0.221916 0.221916 0.221916 0.221916 0.221916
0.221916 0.221916 0.221916 0.221916 0.221916 0.221916 0.221916 0.207631
0.207631 0.207631 0.207631 0.207631 0.207631 0.207631 0.207631 0.207631
0.207631 0.207631 0.207631 0.207631 0.207631 0.207631 0.207631 0.207631
0.207631 0.207631 0.207631 0.207631 0.207631 0.207631 0.207631 0.207631
0.207631 0.207631 0.207631 0.207631 0.207631 0.207631 0.207631 0.207631
0.207631 0.207631 0.207631 0.207631 0.207631 0.207631 0.207631 0.207631
0.207631 0.207631 0.207631 0.207631 0.207631 0.207631 0.207631 0.207631
0.207631 0.186202 0.186202 0.186202 0.186202 0.186202 0.186202 0.186202
0.186202 0.186202 0.186202 0.186202 0.186202 0.186202 0.186202 0.186202
0.186202 0.186202 0.186202 0.186202 0.186202 0.186202 0.186202 0.186202
0.186202 0.186202 0.186202 0.186202 0.186202 0.186202 0.186202 0.186202
0.186202 0.186202 0.186202 0.186202 0.186202 0.186202 0.186202 0.186202
0.186202 0.186202 0.186202 0.186202 0.186202 0.186202 0.186202 0.186202
0.186202 0.186202 0.186202 0.17906 0.178917 0.178774 0.178631 0.178488
0.178346 0.178203 0.17806 0.177917 0.177774 0.177631 0.177488 0.177346
0.177203 0.17706 0.176917 0.176774 0.176631 0.176488 0.176346 0.176203
0.17606 0.175917 0.175774 0.175631 0.175488 0.175346 0.175203 0.17506
0.174917 0.174774 0.174631 0.174488 0.174346 0.174203 0.17406 0.173917
0.173774 0.173631 0.173488 0.173346 0.173203 0.17306 0.172917 0.172774
0.172631 0.172488 0.172346 0.172203 0.17206 0.164774 0.164774 0.164774
0.164774 0.164774 0.164774 0.164774 0.164774 0.164774 0.164774 0.164774
0.164774 0.164774 0.164774 0.164774 0.164774 0.164774 0.164774 0.164774
0.164774 0.164774 0.164774 0.164774 0.164774 0.164774 0.164774 0.164774
0.164774 0.164774 0.164774 0.164774 0.164774 0.164774 0.164774 0.164774
0.164774 0.164774 0.164774 0.164774 0.164774 0.164774 0.164774 0.164774
0.164774 0.164774 0.164774 0.164774 0.164774 0.164774 0.164774 0.143346
0.143346 0.143346 0.143346 0.143346 0.143346 0.143346 0.143346 0.143346
0.143346 0.143346 0.143346 0.143346 0.143346 0.143346 0.143346 0.143346
0.143346 0.143346 0.143346 0.143346 0.143346 0.143346 0.143346 0.143346
0.143346 0.143346 0.143346 0.143346 0.143346 0.143346 0.143346 0.143346
0.143346 0.143346 0.143346 0.143346 0.143346 0.143346 0.143346 0.143346
0.143346 0.143346 0.143346 0.143346 0.143346 0.143346 0.143346 0.143346
0.143346 0.136203 0.136203 0.136203 0.136203 0.136203 0.136203 0.136203
0.136203 0.136203 0.136203 0.136203 0.136203 0.136203 0.136203 0.136203
0.136203 0.136203 0.136203 0.136203 0.136203 0.136203 0.136203 0.136203
0.136203 0.136203 0.136203 0.136203 0.136203 0.136203 0.136203 0.136203
0.136203 0.136203 0.136203 0.136203 0.136203 0.136203 0.136203 0.136203
0.136203 0.136203 0.136203 0.136203 0.136203 0.136203 0.136203 0.136203
0.136203 0.136203 0.136203 0.121918 0.121775 0.121632 0.121489 0.121346
0.121203 0.12106 0.120918 0.120775 0.120632 0.120489 0.120346 0.120203
0.12006 0.119918 0.119775 0.119632 0.119489 0.119346 0.119203 0.11906
0.118918 0.118775 0.118632 0.118489 0.118346 0.118203 0.11806 0.117918
0.117775 0.117632 0.117489 0.117346 0.117203 0.11706 0.116918 0.116775
0.116632 0.116489 0.116346 0.116203 0.11606 0.115918 0.115775 0.115632
0.115489 0.115346 0.115203 0.11506 0.114918 0.100489 0.100346 0.100203
0.100061 0.0999178 0.0997749 0.0996321 0.0994892 0.0993463 0.0992035
0.0990606 0.0989178 0.0987749 0.0986321 0.0984892 0.0983463 0.0982035
0.0980606 0.0979178 0.0977749 0.0976321 0.0974892 0.0973463 0.0972035
0.0970606 0.0969178 0.0967749 0.096632 0.0964892 0.0963463 0.0962035
0.0960606 0.0959178 0.0957749 0.095632 0.0954892 0.0953463 0.0952035
0.0950606 0.0949178 0.0947749 0.094632 0.0944892 0.0943463 0.0942035
0.0940606 0.0939178 0.0937749 0.093632 0.0934892 0.0862036 0.0860608
0.0859179 0.0857751 0.0856322 0.0854893 0.0853465 0.0852036 0.0850608
0.0849179 0.0847751 0.0846322 0.0844893 0.0843465 0.0842036 0.0840608
0.0839179 0.0837751 0.0836322 0.0834893 0.0833465 0.0832036 0.0830608
0.0829179 0.0827751 0.0826322 0.0824893 0.0823465 0.0822036 0.0820608
0.0819179 0.0817751 0.0816322 0.0814893 0.0813465 0.0812036 0.0810608
0.0809179 0.0807751 0.0806322 0.0804893 0.0803465 0.0802036 0.0800608
0.0799179 0.0797751 0.0796322 0.0794893 0.0793465 0.0792036 0.071918
0.071918 0.071918 0.071918 0.071918 0.071918 0.071918 0.071918 0.071918
0.071918 0.071918 0.071918 0.071918 0.071918 0.071918 0.071918 0.071918
0.071918 0.071918 0.071918 0.071918 0.071918 0.071918 0.071918 0.071918
0.071918 0.071918 0.071918 0.071918 0.071918 0.071918 0.071918 0.071918
0.071918 0.071918 0.071918 0.071918 0.071918 0.071918 0.071918 0.071918
0.071918 0.071918 0.071918 0.071918 0.071918 0.071918 0.071918 0.071918
0.071918 0.0576325 0.0574896 0.0573468 0.0572039 0.0570611 0.0569182
0.0567754 0.0566325 0.0564896 0.0563468 0.0562039 0.0560611 0.0559182
0.0557754 0.0556325 0.0554896 0.0553468 0.0552039 0.0550611 0.0549182
0.0547754 0.0546325 0.0544896 0.0543468 0.0542039 0.0540611 0.0539182
0.0537754 0.0536325 0.0534896 0.0533468 0.0532039 0.0530611 0.0529182
0.0527754 0.0526325 0.0524896 0.0523468 0.0522039 0.0520611 0.0519182
0.0517754 0.0516325 0.0514896 0.0513468 0.0512039 0.0510611 0.0509182
0.0507753 0.0506325 0.0504896 0.0504896 0.0504896 0.0504896 0.0504896
0.0504896 0.0504896 0.0504896 0.0504896 0.0504896 0.0504896 0.0504896
0.0504896 0.0504896 0.0504896 0.0504896 0.0504896 0.0504896 0.0504896
0.0504896 0.0504896 0.0504896 0.0504896 0.0504896 0.0504896 0.0504896
0.0504896 0.0504896 0.0504896 0.0504896 0.0504896 0.0504896 0.0504896
0.0504896 0.0504896 0.0504896 0.0504896 0.0504896 0.0504896 0.0504896
0.0504896 0.0504896 0.0504896 0.0504896 0.0504896 0.0504896 0.0504896
0.0504896 0.0504896 0.0504896 0.0362041 0.0362041 0.0362041 0.0362041
0.0362041 0.0362041 0.0362041 0.0362041 0.0362041 0.0362041 0.0362041
0.0362041 0.0362041 0.0362041 0.0362041 0.0362041 0.0362041 0.0362041
0.0362041 0.0362041 0.0362041 0.0362041 0.0362041 0.0362041 0.0362041
0.0362041 0.0362041 0.0362041 0.0362041 0.0362041 0.0362041 0.0362041
0.0362041 0.0362041 0.0362041 0.0362041 0.0362041 0.0362041 0.0362041
0.0362041 0.0362041 0.0362041 0.0362041 0.0362041 0.0362041 0.0362041
0.0362041 0.0362041 0.0362041 0.0362041 0.0219186 0.0218472 0.0217757
0.0217043 0.0216329 0.0215614 0.02149 0.0214186 0.0213472 0.0212757
0.0212043 0.0211329 0.0210614 0.02099 0.0209186 0.0208472 0.0207757
0.0207043 0.0206329 0.0205614 0.02049 0.0204186 0.0203472 0.0202757
0.0202043 0.0201329 0.0200614 0.01999 0.0199186 0.0198472 0.0197757
0.0197043 0.0196329 0.0195614 0.01949 0.0194186 0.0193471 0.0192757
0.0192043 0.0191329 0.0190614 0.01899 0.0189186 0.0188471 0.0187757
0.0187043 0.0186329 0.0185614 0.01849 0.0184186 0.0183471 0.0182757
0.0182043 0.0181329 0.0180614 0.01799 0.0179186 0.0178471 0.0177757
0.0177043 0.0176329 0.0175614 0.01749 0.0174186 0.0173471 0.0172757
0.0172043 0.0171329 0.0170614 0.01699 0.0169186 0.0168471 0.0167757
0.0167043 0.0166329 0.0165614 0.01649 0.0164186 0.0163471 0.0162757
0.0162043 0.0161329 0.0160614 0.01599 0.0159186 0.0158471 0.0157757
0.0157043 0.0156329 0.0155614 0.01549 0.0154186 0.0153471 0.0152757
0.0152043 0.0151329 0.0150614 0.01499 0.0149186 0.0148472 0.000490157
0.000347301 0.000204445 6.15897e-05 -8.12659e-05 -0.000224122 -0.000366977
-0.000509833 -0.000652688 -0.000795544 -0.0009384 -0.00108126 -0.00122411
-0.00136697 -0.00150982 -0.00165268 -0.00179553 -0.00193839 -0.00208125
-0.0022241 -0.00236696 -0.00250981 -0.00265267 -0.00279552 -0.00293838
-0.00308123 -0.00322409 -0.00336695 -0.0035098 -0.00365266 -0.00379551
-0.00393837 -0.00408122 -0.00422408 -0.00436693 -0.00450979 -0.00465265
-0.0047955 -0.00493836 -0.00508121 -0.00522407 -0.00536692 -0.00550978
-0.00565263 -0.00579549 -0.00593835 -0.0060812 -0.00622406 -0.00636691
-0.00650977 -0.00665262 -0.00665262 -0.00665262 -0.00665262 -0.00665262
-0.00665262 -0.00665262 -0.00665262 -0.00665262 -0.00665262 -0.00665262
-0.00665262 -0.00665262 -0.00665262 -0.00665262 -0.00665262 -0.00665262
-0.00665262 -0.00665262 -0.00665262 -0.00665262 -0.00665262 -0.00665262
-0.00665262 -0.00665262 -0.00665262 -0.00665262 -0.00665262 -0.00665262
-0.00665262 -0.00665262 -0.00665262 -0.00665262 -0.00665262 -0.00665262
-0.00665262 -0.00665262 -0.00665262 -0.00665262 -0.00665262 -0.00665262
-0.00665262 -0.00665262 -0.00665262 -0.00665262 -0.00665262 -0.00665262
-0.00665262 -0.00665262 -0.00665262 -0.00665262 -0.00665262 -0.00665262
-0.00665262 -0.00665262 -0.00665262 -0.00665262 -0.00665262 -0.00665262
-0.00665262 -0.00665262 -0.00665262 -0.00665262 -0.00665262 -0.00665262
-0.00665262 -0.00665262 -0.00665262 -0.00665262 -0.00665262 -0.00665262
-0.00665262 -0.00665262 -0.00665262 -0.00665262 -0.00665262 -0.00665262
-0.00665262 -0.00665262 -0.00665262 -0.00665262 -0.00665262 -0.00665262
-0.00665262 -0.00665262 -0.00665262 -0.00665262 -0.00665262 -0.00665262
-0.00665262 -0.00665262 -0.00665262 -0.00665262 -0.00665262 -0.00665262
-0.00665262 -0.00665262 -0.00665262 -0.00665262 -0.00665262 -0.00665262
-0.00665262 -0.00665262 -0.00665262 -0.00665262 -0.00665262 -0.00665262
-0.00665262 -0.00665262 -0.00665262 -0.00665262 -0.00665262 -0.00665262
-0.00665262 -0.00665262 -0.00665262 -0.00665262 -0.00665262 -0.00665262
-0.00665262 -0.00665262 -0.00665262 -0.00665262 -0.00665262 -0.00665262
-0.00665262 -0.00665262 -0.00665262 -0.00665262 -0.00665262 -0.00665262
-0.00665262 -0.00665262 -0.00665262 -0.00665262 -0.00665262 -0.00665262
-0.00665262 -0.00665262 -0.00665262 -0.00665262 -0.00665262 -0.00665262
-0.00665262 -0.00665262 -0.00665262 -0.00665262 -0.00665262 -0.00665262
-0.00665262 -0.00665262 -0.00665262 -0.00665262 -0.00665262 -0.00665262
-0.00665262 -0.00665262 -0.00665262 -0.00665262 -0.00665262 -0.00665262
-0.00665262 -0.00665262 -0.00665262 -0.00665262 -0.00665262 -0.00665262
-0.00665262 -0.00665262 -0.00665262 -0.00665262 -0.00665262 -0.00665262
-0.00665262 -0.00665262 -0.00665262 -0.00665262 -0.00665262 -0.00665262
-0.00665262 -0.00665262 -0.00665262 -0.00665262 -0.00665262 -0.00665262
-0.00665262 -0.00665262 -0.00665262 -0.00665262 -0.00665262 -0.00665262
-0.00665262 -0.00665262 -0.00665262 -0.00665262 -0.00665262 -0.00665262
-0.00665262 -0.00665262 -0.0137954 \,;
#X connect 0 0 2 0;
#X connect 2 0 1 0;
#X restore 502 189 pd messagebox;
#X obj 546 160 bng 15 250 50 0 empty empty empty 17 7 0 10 -262144
-1 -1;
#X obj 338 -2 loadbang;
#X text 568 163 load;
#X obj 195 333 sampphase~;
#X msg 255 256 bang;
#X obj 89 320 s;
#X obj 195 289 mtof;
#X floatatom 205 257 5 0 0 0 - - -;
#X obj 89 300 scaler~;
#X floatatom 108 263 5 0 0 0 - - -;
#X floatatom 148 258 5 0 0 0 - - -;
#X obj 315 335 scaler~;
#X floatatom 333 300 5 0 0 0 - - -;
#X floatatom 373 295 5 0 0 0 - - -;
#X msg 60 4 0 \, 10000 5000;
#X msg 46 229 400;
#X msg 332 262 1000;
#X obj 413 30 s loadbang;
#X obj 43 204 r loadbang;
#X text 519 25 sometimes you need to click instide the array to get
it to display \, especially if you don't have iemguts;
#X obj 196 361 phasafor~;
#X connect 0 0 29 0;
#X connect 0 0 32 0;
#X connect 0 1 11 0;
#X connect 0 2 8 0;
#X connect 0 2 7 0;
#X connect 1 0 20 0;
#X connect 2 0 9 0;
#X connect 3 0 0 1;
#X connect 3 1 6 0;
#X connect 7 0 6 0;
#X connect 8 0 1 0;
#X connect 9 0 1 0;
#X connect 9 1 0 4;
#X connect 10 0 0 1;
#X connect 11 0 10 0;
#X connect 12 0 0 2;
#X connect 14 0 0 3;
#X connect 16 0 0 0;
#X connect 19 0 16 0;
#X connect 20 0 3 0;
#X connect 21 0 20 0;
#X connect 22 0 0 4;
#X connect 22 0 38 0;
#X connect 22 0 37 0;
#X connect 24 0 41 0;
#X connect 24 1 41 2;
#X connect 25 0 24 1;
#X connect 27 0 24 0;
#X connect 28 0 27 0;
#X connect 29 0 41 1;
#X connect 30 0 29 1;
#X connect 31 0 29 2;
#X connect 32 0 41 3;
#X connect 33 0 32 1;
#X connect 34 0 32 2;
#X connect 35 0 16 0;
#X connect 36 0 30 0;
#X connect 37 0 33 0;
#X connect 39 0 36 0;
#X connect 41 0 18 0;
#X connect 41 0 18 1;
