#N canvas 185 186 756 639 10;
#X obj 198 54 inlet;
#X obj 266 76 f \$0;
#X obj 249 121 pack;
#X obj 99 111 tabread4~ \$0-env;
#X msg 245 173 \; \$2-env resize \$1 \;;
#X obj 99 81 +~ 1;
#X obj 107 163 outlet~;
#X obj 396 149 arraysize \$0-env;
#X obj 415 75 inlet;
#X obj 419 108 bang;
#X obj 407 207 outlet;
#X obj 104 48 inlet~;
#X obj 506 28 inlet;
#X obj 391 279 snapshot~;
#X obj 398 246 metro 100;
#X obj 502 230 pack;
#X msg 502 267 \; \$2-slider range 0 \$1;
#X obj 611 60 inlet;
#X obj 625 123 f;
#X obj 610 92 bang;
#X obj 625 147 outlet;
#X obj 397 335 switch~;
#X obj 283 259 tgl 15 0 empty empty subpatch_dsp -75 7 0 10 -262144
-1 -1 1 1;
#X obj 116 559 tabread \$0-env;
#X msg 125 504 0;
#X obj 111 590 tabwrite \$0-env;
#X obj 120 526 t f f;
#X obj 465 378 iemguts/receivecanvas;
#X obj 347 406 del 1000;
#X obj 546 350 iemguts/receivecanvas 1;
#X obj 475 403 route map menuclose;
#X text 228 565 the array doesn't display over the slider \, so we
have to make it upon click and whenever the patch or it's parent opens
and closes;
#N canvas 782 286 480 434 norm 0;
#X obj 85 38 inlet;
#X obj -5 228 iterate;
#X obj 95 131 arraysize \$0-env;
#X obj 102 181 tabread \$0-env;
#X obj -13 168 tabread \$0-env;
#X obj -9 302 tabread \$0-env;
#X obj 85 204 -;
#X obj 88 228 /;
#X obj 77 275 +;
#X obj 33 275 f;
#X obj -3 199 t b f;
#X obj 55 250 * -1;
#X obj -6 327 +;
#X obj -1 349 tabwrite \$0-env;
#X obj -7 253 t f f b;
#X obj 54 74 t b b b;
#X msg -45 117 normalize;
#X obj -47 139 s \$0-env;
#X obj 102 156 - 3;
#X obj 134 206 + 1;
#X text 115 68 changes array such that both endpoints are 0 \, then
normalizes;
#X msg 24 129 1;
#X connect 0 0 15 0;
#X connect 1 0 14 0;
#X connect 2 0 1 1;
#X connect 2 0 18 0;
#X connect 3 0 6 1;
#X connect 4 0 10 0;
#X connect 5 0 12 0;
#X connect 6 0 7 0;
#X connect 7 0 8 1;
#X connect 8 0 9 1;
#X connect 9 0 8 0;
#X connect 9 0 12 1;
#X connect 10 0 1 0;
#X connect 10 1 6 0;
#X connect 10 1 11 0;
#X connect 11 0 9 1;
#X connect 12 0 13 0;
#X connect 14 0 5 0;
#X connect 14 1 13 1;
#X connect 14 2 9 0;
#X connect 15 0 16 0;
#X connect 15 1 21 0;
#X connect 15 2 2 0;
#X connect 16 0 17 0;
#X connect 18 0 3 0;
#X connect 18 0 19 0;
#X connect 19 0 7 1;
#X connect 21 0 4 0;
#X restore 512 145 pd norm;
#N canvas 0 22 450 278 (subpatch) 0;
#X array \$0-env 2050 float 2;
#X coords 0 1 2050 -0 200 140 1 0 0;
#X restore 105 279 graph;
#X obj 325 39 loadbang;
#X obj 345 59 numargs;
#X obj 342 106 sel 1;
#X msg 351 211 1;
#X obj 108 279 hsl 195 140 0 2050 0 0 \$0-NADA \$0-slider empty -2
-8 0 10 -262144 -1 -1 0 1;
#X obj 347 84 > 1;
#X obj 316 135 f \$2;
#X obj 170 141 f \$1;
#X obj 169 170 sel 0;
#X obj 274 47 t b b;
#X connect 0 0 2 0;
#X connect 0 0 10 0;
#X connect 0 0 15 0;
#X connect 1 0 2 1;
#X connect 1 0 15 1;
#X connect 1 0 18 1;
#X connect 2 0 4 0;
#X connect 3 0 6 0;
#X connect 5 0 3 0;
#X connect 7 0 10 0;
#X connect 8 0 9 0;
#X connect 9 0 7 0;
#X connect 11 0 5 0;
#X connect 11 0 13 0;
#X connect 12 0 32 0;
#X connect 13 0 38 0;
#X connect 14 0 13 0;
#X connect 15 0 16 0;
#X connect 17 0 19 0;
#X connect 18 0 20 0;
#X connect 19 0 18 0;
#X connect 22 0 21 0;
#X connect 22 0 14 0;
#X connect 23 0 25 0;
#X connect 24 0 26 0;
#X connect 26 0 23 0;
#X connect 26 1 25 1;
#X connect 27 0 30 0;
#X connect 28 0 24 0;
#X connect 29 0 30 0;
#X connect 30 0 24 0;
#X connect 30 1 24 0;
#X connect 34 0 28 0;
#X connect 34 0 35 0;
#X connect 34 0 43 0;
#X connect 35 0 39 0;
#X connect 36 0 40 0;
#X connect 36 1 37 0;
#X connect 37 0 22 0;
#X connect 39 0 36 0;
#X connect 40 0 22 0;
#X connect 41 0 42 0;
#X connect 42 1 2 0;
#X connect 42 1 15 0;
#X connect 42 1 10 0;
#X connect 43 0 41 0;
#X connect 43 1 1 0;
#X coords 0 -1 1 1 210 175 1 100 250;
