#N canvas 145 134 450 300 10;
#X obj 83 96 inlet;
#X obj 129 51 inlet;
#X obj 174 51 inlet;
#X obj 83 122 bang;
#X obj 84 247 outlet;
#X obj 84 145 f;
#X obj 156 160 mod \$1;
#X obj 156 137 + 1;
#X obj 330 100 inlet;
#X obj 174 98 moses \$1;
#X msg 331 149 0;
#X obj 129 208 f;
#X obj 129 75 t f f;
#X obj 219 125 zexy/demultiplex \$2;
#X obj 129 182 bangif <=;
#X connect 0 0 3 0;
#X connect 1 0 12 0;
#X connect 2 0 9 0;
#X connect 3 0 5 0;
#X connect 5 0 7 0;
#X connect 5 0 4 0;
#X connect 6 0 5 1;
#X connect 6 0 11 1;
#X connect 6 0 14 1;
#X connect 7 0 6 0;
#X connect 8 0 13 1;
#X connect 9 0 6 0;
#X connect 9 1 13 0;
#X connect 10 0 5 1;
#X connect 11 0 13 0;
#X connect 12 0 14 0;
#X connect 12 1 6 1;
#X connect 12 1 9 1;
#X connect 13 0 6 0;
#X connect 13 1 10 0;
#X connect 14 0 11 0;
