#N canvas 293 452 450 300 10;
#X obj 81 58 inlet;
#X obj 180 60 inlet;
#X obj 226 57 inlet;
#X obj 81 84 bang;
#X obj 186 180 >=;
#X obj 184 223 del 0;
#X obj 185 202 sel 1;
#X msg 150 101 0;
#X obj 180 109 - 1;
#X obj 93 208 outlet;
#X obj 165 28 loadbang;
#X obj 180 87 i \$1;
#X obj 135 154 ekext/cup;
#X obj 150 132 clip 0;
#X connect 0 0 3 0;
#X connect 1 0 11 0;
#X connect 2 0 13 0;
#X connect 3 0 12 0;
#X connect 4 0 6 0;
#X connect 5 0 7 0;
#X connect 6 0 5 0;
#X connect 7 0 12 0;
#X connect 8 0 4 1;
#X connect 8 0 13 2;
#X connect 10 0 11 0;
#X connect 11 0 8 0;
#X connect 12 0 4 0;
#X connect 12 0 9 0;
#X connect 13 0 12 0;
