#N canvas 408 211 658 426 10;
#X obj 211 140 snapshot~;
#X obj 101 103 cnv 15 68 20 empty empty empty 20 12 0 14 -4032 -262144
0;
#X floatatom 102 107 9 0 0 0 - - -, f 9;
#X obj 303 34 loadbang;
#X obj 214 40 inlet~;
#X obj 296 60 t b b;
#X obj 221 112 metro;
#X obj 307 88 f \$1;
#X obj 304 110 if 0 100;
#X obj 225 228 outlet;
#X msg 150 183 set \$1;
#X connect 0 0 9 0;
#X connect 0 0 10 0;
#X connect 3 0 5 0;
#X connect 4 0 0 0;
#X connect 5 0 6 0;
#X connect 5 1 7 0;
#X connect 6 0 0 0;
#X connect 7 0 8 0;
#X connect 8 0 6 1;
#X connect 10 0 2 0;
#X coords 0 -1 1 1 70 26 2 100 100;
