#N canvas 311 211 450 300 10;
#X obj 285 110 log;
#X msg 285 88 0.001;
#X obj 285 47 loadbang;
#X obj 332 94 samplerate~;
#X obj 244 221 exp;
#X obj 285 150 /;
#X obj 285 67 t b b;
#X obj 285 129 * 1000;
#X obj 244 119 inlet;
#X obj 244 243 outlet;
#X obj 244 148 f \$1;
#X obj 244 175 swap;
#X obj 244 198 /;
#X connect 0 0 7 0;
#X connect 1 0 0 0;
#X connect 2 0 6 0;
#X connect 3 0 5 1;
#X connect 4 0 9 0;
#X connect 5 0 11 1;
#X connect 6 0 1 0;
#X connect 6 1 3 0;
#X connect 7 0 5 0;
#X connect 8 0 10 0;
#X connect 10 0 11 0;
#X connect 11 0 12 0;
#X connect 11 1 12 1;
#X connect 12 0 4 0;
