#N canvas 311 211 450 300 10;
#X obj 106 130 log;
#X msg 106 108 0.001;
#X obj 106 14 loadbang;
#X obj 106 41 samplerate~;
#X obj 65 241 exp;
#X obj 106 170 /;
#X obj 106 149 * 1000;
#X obj 65 139 inlet;
#X obj 65 263 outlet;
#X obj 65 168 f \$1;
#X obj 65 195 swap;
#X obj 65 218 /;
#X obj 179 12 r pd-dsp-started;
#X obj 106 67 change -1;
#X obj 106 88 t b f;
#X connect 0 0 6 0;
#X connect 1 0 0 0;
#X connect 2 0 3 0;
#X connect 3 0 13 0;
#X connect 4 0 8 0;
#X connect 5 0 10 1;
#X connect 6 0 5 0;
#X connect 7 0 9 0;
#X connect 9 0 10 0;
#X connect 10 0 11 0;
#X connect 10 1 11 1;
#X connect 11 0 4 0;
#X connect 12 0 3 0;
#X connect 13 0 14 0;
#X connect 14 0 1 0;
#X connect 14 1 5 1;
