#N canvas 441 261 766 476 10;
#X msg 310 193 clear;
#X obj 517 35 bng 15 250 50 0 empty empty empty 17 7 0 10 -262144 -1
-1;
#X obj 511 99 f;
#X floatatom 557 63 5 0 0 0 - - -;
#X text 593 62 ms to repeat;
#X obj 507 131 *;
#X floatatom 547 105 5 0 0 0 - - -;
#X text 587 103 number of times to repeat;
#X obj 457 143 del;
#X obj 483 188 del;
#X obj 79 226 *~ 1;
#X msg 256 137 1;
#X obj 264 267 *~ 1;
#X msg 297 136 0;
#X obj 180 275 *~ 0;
#X obj 409 274 *~ 0;
#X text 539 33 hit to repeat;
#X text 103 23 this is a clone of delwrite~ with a clear option. this
makes it possible to make a stutterer or beat repeat:;
#X obj 101 69 ./sndfread~;
#X obj 386 198 ./1-0switch;
#X obj 404 249 ./delreadc~ anna2 2000;
#X obj 179 223 ./delreadc~ anna 2000;
#X obj 89 301 ./delwritec~ anna 4000;
#X obj 285 301 ./delwritec~ anna2 4000;
#X obj 179 357 ./outputc~;
#X connect 0 0 22 0;
#X connect 0 0 23 0;
#X connect 1 0 2 0;
#X connect 1 0 8 0;
#X connect 1 0 0 0;
#X connect 1 0 11 0;
#X connect 2 0 5 0;
#X connect 3 0 2 1;
#X connect 3 0 8 1;
#X connect 3 0 20 0;
#X connect 3 0 21 0;
#X connect 5 0 9 1;
#X connect 6 0 5 1;
#X connect 8 0 9 0;
#X connect 8 0 13 0;
#X connect 9 0 11 0;
#X connect 10 0 22 0;
#X connect 10 0 24 0;
#X connect 11 0 10 1;
#X connect 11 0 12 1;
#X connect 11 0 19 0;
#X connect 12 0 23 0;
#X connect 12 0 24 1;
#X connect 13 0 10 1;
#X connect 13 0 12 1;
#X connect 13 0 19 0;
#X connect 14 0 24 0;
#X connect 15 0 24 1;
#X connect 18 0 10 0;
#X connect 18 1 12 0;
#X connect 19 0 14 1;
#X connect 19 0 15 1;
#X connect 20 0 15 0;
#X connect 20 0 23 0;
#X connect 21 0 14 0;
#X connect 21 0 22 0;
