#N canvas 395 28 632 592 10;
#X obj 175 110 mrpeach/unpackOSC;
#X obj 185 160 mrpeach/pipelist;
#X obj 174 87 mrpeach/udpreceive \$1;
#X obj 178 43 inlet;
#X obj 188 189 list split 1;
#X msg 187 220 symbol \$1;
#X obj 173 323 list;
#X obj 200 424 s;
#X obj 173 362 list trim;
#X obj 176 272 t l s;
#X obj 146 295 list split 1;
#X obj 253 265 route symbol;
#X obj 168 245 zexy/symbol2list /;
#X obj 249 293 zexy/symbol2list;
#X connect 0 0 1 0;
#X connect 0 1 1 1;
#X connect 1 0 4 0;
#X connect 2 0 0 0;
#X connect 3 0 2 0;
#X connect 4 0 5 0;
#X connect 4 1 11 0;
#X connect 5 0 12 0;
#X connect 6 0 8 0;
#X connect 8 0 7 0;
#X connect 9 0 10 0;
#X connect 9 1 7 1;
#X connect 10 1 6 0;
#X connect 11 0 13 0;
#X connect 11 1 6 1;
#X connect 12 0 9 0;
#X connect 13 0 6 1;
