#N canvas 471 344 450 300 10;
#X declare -lib zexy;
#X obj 247 204 phasor~;
#X obj 196 232 samphold~;
#X obj 246 50 inlet~;
#X obj 195 197 inlet~;
#X obj 196 261 outlet~;
#X obj 321 24 loadbang;
#X obj 320 46 samplerate~;
#X obj 246 77 min~ 44100;
#X obj 225 3 r pd-dsp-started;
#X obj 327 112 bang~;
#X obj 80 12 declare -lib zexy;
#X obj 327 137 snapshot~;
#X msg 207 162 reset;
#X msg 290 180 0.999999;
#X obj 259 113 ==~ 44100;
#X obj 259 134 *~ -1;
#X obj 327 159 sel 1;
#X connect 0 0 1 1;
#X connect 1 0 4 0;
#X connect 2 0 7 0;
#X connect 3 0 1 0;
#X connect 5 0 6 0;
#X connect 6 0 7 1;
#X connect 6 0 14 1;
#X connect 7 0 0 0;
#X connect 7 0 14 0;
#X connect 8 0 6 0;
#X connect 9 0 11 0;
#X connect 11 0 16 0;
#X connect 12 0 1 0;
#X connect 13 0 0 1;
#X connect 14 0 15 0;
#X connect 14 0 11 0;
#X connect 15 0 0 0;
#X connect 16 0 13 0;
#X connect 16 0 12 0;
