#N canvas 222 234 450 300 10;
#X obj 242 104 phasor~;
#X obj 191 132 samphold~;
#X obj 243 50 inlet~;
#X obj 190 97 inlet~;
#X obj 191 161 outlet~;
#X obj 321 24 loadbang;
#X obj 320 46 samplerate~;
#X obj 336 92 sig~;
#X obj 246 77 min~;
#X obj 334 69 - 1;
#X connect 0 0 1 1;
#X connect 1 0 4 0;
#X connect 2 0 8 0;
#X connect 3 0 1 0;
#X connect 5 0 6 0;
#X connect 6 0 9 0;
#X connect 7 0 8 1;
#X connect 8 0 0 0;
#X connect 9 0 7 0;
