#N canvas 392 199 514 466 10;
#X obj 243 171 sampphase~;
#X obj 156 324 *~;
#X obj 127 56 inlet~;
#X obj 174 291 hanning~;
#X obj 243 346 *~;
#X obj 274 292 hanning~;
#X obj 155 352 outlet~;
#X obj 268 384 outlet~;
#X obj 298 37 inlet;
#X obj 175 63 inlet~;
#X obj 230 57 inlet~;
#X obj 180 159 *~ 1;
#X obj 432 338 outlet~;
#X obj 367 351 outlet~;
#X obj 143 161 +~ 1;
#X obj 202 30 samplerate~;
#X obj 198 4 loadbang;
#X obj 167 118 transpose~;
#X obj 197 190 /~;
#X obj 284 65 route phase set;
#X msg 393 211 set \$1;
#X obj 242 97 abs~;
#X obj 407 105 t b b;
#X obj 390 129 symbol \$1;
#X obj 391 170 sel symbol;
#X msg 454 145 symbol;
#X obj 198 320 tabread4hs~;
#X obj 90 280 tabread4hs~;
#X obj 167 223 grainy~;
#X obj 169 251 +~ 0;
#X obj 238 252 +~ 0;
#X obj 98 169 <~ 0;
#X obj 88 196 *~;
#X obj 122 187 *~ -1;
#X obj 268 122 ==~ 0;
#X obj 272 148 *~ 1;
#X obj 313 111 * 0.5;
#X obj 321 366 outlet~;
#X connect 0 0 28 2;
#X connect 0 0 3 0;
#X connect 0 0 12 0;
#X connect 1 0 6 0;
#X connect 2 0 14 0;
#X connect 3 0 1 1;
#X connect 4 0 7 0;
#X connect 5 0 4 1;
#X connect 8 0 19 0;
#X connect 9 0 17 0;
#X connect 10 0 18 1;
#X connect 10 0 21 0;
#X connect 10 0 31 0;
#X connect 11 0 18 0;
#X connect 14 0 28 0;
#X connect 14 0 37 0;
#X connect 15 0 11 1;
#X connect 15 0 36 0;
#X connect 16 0 15 0;
#X connect 16 0 22 0;
#X connect 17 0 11 0;
#X connect 18 0 13 0;
#X connect 18 0 28 1;
#X connect 18 0 33 0;
#X connect 19 0 0 1;
#X connect 19 1 23 0;
#X connect 19 2 29 1;
#X connect 19 2 30 1;
#X connect 20 0 26 0;
#X connect 20 0 27 0;
#X connect 21 0 0 0;
#X connect 21 0 34 0;
#X connect 22 0 23 0;
#X connect 22 1 25 0;
#X connect 23 0 24 0;
#X connect 24 1 20 0;
#X connect 25 0 24 1;
#X connect 26 0 4 0;
#X connect 27 0 1 0;
#X connect 28 0 27 0;
#X connect 28 1 29 0;
#X connect 28 2 26 0;
#X connect 28 3 30 0;
#X connect 28 4 5 0;
#X connect 29 0 27 1;
#X connect 30 0 26 1;
#X connect 31 0 32 1;
#X connect 32 0 28 0;
#X connect 32 0 37 0;
#X connect 33 0 32 0;
#X connect 34 0 35 0;
#X connect 35 0 0 0;
#X connect 36 0 35 1;
