#N canvas 436 232 651 480 10;
#X declare -lib zexy;
#X obj 156 324 *~;
#X obj 127 56 inlet~;
#X obj 243 346 *~;
#X obj 155 352 outlet~;
#X obj 234 377 outlet~;
#X obj 298 37 inlet;
#X obj 175 63 inlet~;
#X obj 230 57 inlet~;
#X obj 168 135 *~ 1;
#X obj 444 359 outlet~;
#X obj 379 362 outlet~;
#X obj 129 85 +~ 1;
#X obj 202 30 samplerate~;
#X obj 198 4 loadbang;
#X obj 183 160 /~;
#X msg 393 211 set \$1;
#X obj 245 97 abs~;
#X obj 407 105 t b b;
#X obj 390 129 symbol \$1;
#X obj 391 170 sel symbol;
#X msg 454 145 symbol;
#X obj 169 251 +~ 0;
#X obj 267 231 +~ 0;
#X obj 138 203 *~;
#X obj 135 179 *~ -1;
#X obj 321 366 outlet~;
#X obj 284 65 route phase set window;
#X obj 317 95 f \$2;
#N canvas 649 251 450 300 dualscale 0;
#X obj 28 40 inlet~;
#X obj 184 43 inlet~;
#X obj 285 42 inlet;
#X obj 193 93 -~ 0.5;
#X obj 44 81 -~ 0.5;
#X obj 74 179 outlet~;
#X obj 204 191 outlet~;
#X obj 257 161 clip~ 0 1;
#X obj 65 159 clip~ 0 1;
#X obj 62 123 ./scaler~ 1 0.5;
#X obj 248 122 ./scaler~ 1 0.5;
#X connect 0 0 4 0;
#X connect 1 0 3 0;
#X connect 2 0 9 1;
#X connect 2 0 10 1;
#X connect 3 0 10 0;
#X connect 4 0 9 0;
#X connect 7 0 6 0;
#X connect 8 0 5 0;
#X connect 9 0 8 0;
#X connect 10 0 7 0;
#X restore 215 260 pd dualscale;
#X obj 326 166 max 1;
#X obj 476 31 declare -lib zexy;
#X obj 105 154 <~ 0;
#X obj 276 5 r pd-dsp-started;
#X obj 167 99 ./transpose~;
#X obj 243 171 ./sampphase~;
#X obj 314 128 ./if 0 1;
#X obj 90 280 ./tabread4hs~;
#X obj 154 227 ./grainy~;
#X obj 212 286 ./hanning~;
#X obj 331 306 ./hanning~;
#X obj 219 317 ./tabread4hs~;
#X connect 0 0 3 0;
#X connect 1 0 11 0;
#X connect 2 0 4 0;
#X connect 5 0 26 0;
#X connect 6 0 33 0;
#X connect 7 0 14 1;
#X connect 7 0 16 0;
#X connect 7 0 31 0;
#X connect 8 0 14 0;
#X connect 11 0 25 0;
#X connect 11 0 37 0;
#X connect 12 0 8 1;
#X connect 13 0 12 0;
#X connect 13 0 17 0;
#X connect 13 0 27 0;
#X connect 14 0 10 0;
#X connect 14 0 24 0;
#X connect 14 0 37 1;
#X connect 15 0 36 0;
#X connect 15 0 40 0;
#X connect 16 0 34 0;
#X connect 17 0 18 0;
#X connect 17 1 20 0;
#X connect 18 0 19 0;
#X connect 19 1 15 0;
#X connect 20 0 19 1;
#X connect 21 0 36 1;
#X connect 22 0 40 1;
#X connect 23 0 25 0;
#X connect 23 0 37 0;
#X connect 24 0 23 0;
#X connect 26 0 34 1;
#X connect 26 1 18 0;
#X connect 26 2 29 0;
#X connect 26 3 21 1;
#X connect 26 3 22 1;
#X connect 27 0 35 0;
#X connect 28 0 38 0;
#X connect 28 1 39 0;
#X connect 29 0 28 2;
#X connect 31 0 23 1;
#X connect 32 0 12 0;
#X connect 33 0 8 0;
#X connect 34 0 9 0;
#X connect 34 0 28 0;
#X connect 34 0 37 2;
#X connect 35 0 29 0;
#X connect 36 0 0 0;
#X connect 37 0 36 0;
#X connect 37 1 21 0;
#X connect 37 2 40 0;
#X connect 37 3 22 0;
#X connect 37 4 28 1;
#X connect 38 0 0 1;
#X connect 39 0 2 1;
#X connect 40 0 2 0;
