#N canvas 804 22 514 466 10;
#X obj 191 235 grainy~;
#X obj 235 146 sampphase~;
#X obj 156 324 *~;
#X obj 127 56 inlet~;
#X obj 197 283 hanning~;
#X obj 243 346 *~;
#X obj 274 292 hanning~;
#X obj 155 352 outlet~;
#X obj 268 384 outlet~;
#X obj 298 37 inlet;
#X obj 175 63 inlet~;
#X obj 230 57 inlet~;
#X obj 180 159 *~ 1;
#X obj 204 378 outlet~;
#X obj 398 353 outlet~;
#X obj 146 154 +~ 1;
#X obj 202 30 samplerate~;
#X obj 198 4 loadbang;
#X obj 167 118 transpose~;
#X obj 197 190 /~;
#X obj 284 65 route phase set;
#X msg 325 98 set \$1;
#X obj 90 280 tabread4hs~ \$1;
#X obj 222 313 tabread4hs~ \$1;
#X obj 239 115 abs~;
#X connect 0 0 22 0;
#X connect 0 1 4 0;
#X connect 0 1 13 0;
#X connect 0 2 23 0;
#X connect 0 3 6 0;
#X connect 0 3 14 0;
#X connect 1 0 0 2;
#X connect 2 0 7 0;
#X connect 3 0 15 0;
#X connect 4 0 2 1;
#X connect 5 0 8 0;
#X connect 6 0 5 1;
#X connect 9 0 20 0;
#X connect 10 0 18 0;
#X connect 11 0 19 1;
#X connect 11 0 24 0;
#X connect 12 0 19 0;
#X connect 15 0 0 0;
#X connect 16 0 12 1;
#X connect 17 0 16 0;
#X connect 18 0 12 0;
#X connect 19 0 0 1;
#X connect 20 0 1 1;
#X connect 20 1 21 0;
#X connect 20 2 22 1;
#X connect 20 2 23 1;
#X connect 21 0 22 0;
#X connect 21 0 23 0;
#X connect 22 0 2 0;
#X connect 23 0 5 0;
#X connect 24 0 1 0;
