#N canvas 190 359 651 480 10;
#X obj 243 171 sampphase~;
#X obj 156 324 *~;
#X obj 127 56 inlet~;
#X obj 172 295 hanning~;
#X obj 243 346 *~;
#X obj 297 301 hanning~;
#X obj 155 352 outlet~;
#X obj 268 384 outlet~;
#X obj 298 37 inlet;
#X obj 175 63 inlet~;
#X obj 230 57 inlet~;
#X obj 180 159 *~ 1;
#X obj 432 338 outlet~;
#X obj 367 351 outlet~;
#X obj 143 161 +~ 1;
#X obj 202 30 samplerate~;
#X obj 198 4 loadbang;
#X obj 167 118 transpose~;
#X obj 197 190 /~;
#X msg 393 211 set \$1;
#X obj 242 97 abs~;
#X obj 407 105 t b b;
#X obj 390 129 symbol \$1;
#X obj 391 170 sel symbol;
#X msg 454 145 symbol;
#X obj 198 320 tabread4hs~;
#X obj 90 280 tabread4hs~;
#X obj 154 227 grainy~;
#X obj 169 251 +~ 0;
#X obj 238 252 +~ 0;
#X obj 98 169 <~ 0;
#X obj 88 196 *~;
#X obj 122 187 *~ -1;
#X obj 321 366 outlet~;
#X obj 284 65 route phase set window;
#X obj 317 95 f \$2;
#X obj 314 128 if 0 1;
#N canvas 633 574 450 300 dualscale 0;
#X obj 28 40 inlet~;
#X obj 184 43 inlet~;
#X obj 285 42 inlet;
#X obj 193 93 -~ 0.5;
#X obj 194 117 *~ 1;
#X obj 205 144 +~ 0.5;
#X obj 44 81 -~ 0.5;
#X obj 45 105 *~ 1;
#X obj 56 132 +~ 0.5;
#X obj 74 179 outlet~;
#X obj 204 191 outlet~;
#X obj 257 161 clip~ 0 1;
#X obj 65 159 clip~ 0 1;
#X connect 0 0 6 0;
#X connect 1 0 3 0;
#X connect 2 0 4 1;
#X connect 2 0 7 1;
#X connect 3 0 4 0;
#X connect 4 0 5 0;
#X connect 5 0 11 0;
#X connect 6 0 7 0;
#X connect 7 0 8 0;
#X connect 8 0 12 0;
#X connect 11 0 10 0;
#X connect 12 0 9 0;
#X restore 205 275 pd dualscale;
#X obj 326 166 max 1;
#X obj 324 340 +~;
#X connect 0 0 27 2;
#X connect 0 0 12 0;
#X connect 0 0 37 0;
#X connect 1 0 6 0;
#X connect 2 0 14 0;
#X connect 3 0 1 1;
#X connect 3 0 39 0;
#X connect 4 0 7 0;
#X connect 5 0 4 1;
#X connect 5 0 39 1;
#X connect 8 0 34 0;
#X connect 9 0 17 0;
#X connect 10 0 18 1;
#X connect 10 0 20 0;
#X connect 10 0 30 0;
#X connect 11 0 18 0;
#X connect 14 0 27 0;
#X connect 14 0 33 0;
#X connect 15 0 11 1;
#X connect 16 0 15 0;
#X connect 16 0 21 0;
#X connect 16 0 35 0;
#X connect 17 0 11 0;
#X connect 18 0 13 0;
#X connect 18 0 27 1;
#X connect 18 0 32 0;
#X connect 19 0 25 0;
#X connect 19 0 26 0;
#X connect 20 0 0 0;
#X connect 21 0 22 0;
#X connect 21 1 24 0;
#X connect 22 0 23 0;
#X connect 23 1 19 0;
#X connect 24 0 23 1;
#X connect 25 0 4 0;
#X connect 26 0 1 0;
#X connect 27 0 26 0;
#X connect 27 1 28 0;
#X connect 27 2 25 0;
#X connect 27 3 29 0;
#X connect 27 4 37 1;
#X connect 28 0 26 1;
#X connect 29 0 25 1;
#X connect 30 0 31 1;
#X connect 31 0 27 0;
#X connect 31 0 33 0;
#X connect 32 0 31 0;
#X connect 34 0 0 1;
#X connect 34 1 22 0;
#X connect 34 2 38 0;
#X connect 34 3 28 1;
#X connect 34 3 29 1;
#X connect 35 0 36 0;
#X connect 36 0 38 0;
#X connect 37 0 3 0;
#X connect 37 1 5 0;
#X connect 38 0 37 2;
