#N canvas 311 252 720 579 10;
#X obj 50 19 inlet~;
#X obj 64 64 clip~ -1 1;
#X obj 239 -4 inlet~;
#X obj 74 232 xfade~;
#X obj 70 184 abs~;
#X obj 66 352 outlet~;
#X obj 72 208 pow~;
#X obj 64 254 *~ -1;
#X obj 120 171 <~ 0;
#X obj 50 286 -~;
#X obj 34 226 *~;
#X obj 57 314 /~;
#X obj 187 184 -~ 1;
#X obj 235 19 max~ 1.0001;
#X connect 0 0 1 0;
#X connect 1 0 4 0;
#X connect 1 0 8 0;
#X connect 1 0 10 0;
#X connect 2 0 13 0;
#X connect 3 0 7 0;
#X connect 3 1 9 1;
#X connect 4 0 6 0;
#X connect 6 0 3 0;
#X connect 7 0 9 1;
#X connect 8 0 3 1;
#X connect 9 0 11 0;
#X connect 10 0 9 0;
#X connect 11 0 5 0;
#X connect 12 0 11 1;
#X connect 13 0 6 1;
#X connect 13 0 10 1;
#X connect 13 0 12 0;
