#N canvas 328 215 720 579 10;
#X obj 50 19 inlet~;
#X obj 64 64 clip~ -1 1;
#X obj 239 -4 inlet~;
#X obj 50 132 xfade~;
#X obj 107 99 expr~ $v1 <= 0;
#X obj 52 108 abs~;
#X obj 36 257 *~;
#X obj 74 194 +~;
#X obj 50 286 +~;
#X obj 235 19 max~ 1.00001;
#X obj 66 352 outlet~;
#X obj 15 154 pow~;
#X obj 102 157 pow~;
#X obj 20 175 *~ -1;
#X obj 97 279 expr~ $v1/($v1 - 1);
#X obj 57 314 *~;
#X obj 37 227 expr~ -1/$v1;
#X connect 0 0 1 0;
#X connect 1 0 5 0;
#X connect 1 0 4 0;
#X connect 1 0 8 1;
#X connect 2 0 9 0;
#X connect 3 0 11 0;
#X connect 3 1 12 0;
#X connect 4 0 3 1;
#X connect 5 0 3 0;
#X connect 6 0 8 0;
#X connect 7 0 6 1;
#X connect 8 0 15 0;
#X connect 9 0 11 1;
#X connect 9 0 12 1;
#X connect 9 0 14 0;
#X connect 9 0 16 0;
#X connect 11 0 13 0;
#X connect 12 0 7 1;
#X connect 13 0 7 0;
#X connect 14 0 15 1;
#X connect 15 0 10 0;
#X connect 16 0 6 0;
