#N canvas 211 217 627 371 10;
#X obj 177 35 inlet;
#X obj 291 37 inlet;
#X obj 220 298 outlet~;
#X obj 218 265 scaler~;
#X obj 217 216 shadylook~ rexp;
#X obj 217 184 line~;
#X obj 229 89 pack;
#X obj 238 238 -;
#X obj 227 133 unpack;
#X msg 251 63 0;
#X obj 229 112 t l b;
#X msg 217 159 1 \, 0 \$1;
#X obj 377 97 snapshot~;
#X obj 390 146 ==;
#X obj 391 168 sel 0 1;
#X obj 404 192 f;
#X obj 379 194 f;
#X obj 385 120 t f f f;
#X obj 386 227 zexy/nop;
#X obj 177 61 route stop;
#X msg 178 159 stop;
#X connect 0 0 19 0;
#X connect 1 0 6 1;
#X connect 3 0 2 0;
#X connect 3 0 12 0;
#X connect 4 0 3 0;
#X connect 5 0 4 0;
#X connect 6 0 10 0;
#X connect 7 0 3 1;
#X connect 8 0 7 0;
#X connect 8 0 15 1;
#X connect 8 1 11 0;
#X connect 9 0 6 1;
#X connect 10 0 8 0;
#X connect 10 1 9 0;
#X connect 10 1 12 0;
#X connect 11 0 5 0;
#X connect 12 0 17 0;
#X connect 13 0 14 0;
#X connect 14 0 16 0;
#X connect 14 1 15 0;
#X connect 15 0 18 0;
#X connect 16 0 18 0;
#X connect 17 0 13 1;
#X connect 17 1 13 0;
#X connect 17 2 16 1;
#X connect 18 0 7 1;
#X connect 18 0 3 2;
#X connect 19 0 20 0;
#X connect 19 1 6 0;
#X connect 20 0 5 0;
