#N canvas 562 52 790 446 10;
#N canvas 925 133 394 506 array 0;
#X obj 158 -131 inlet;
#X obj 220 -239 closebang;
#X obj 231 -186 t b b;
#X obj 170 -62 sel 0;
#X msg 219 -113 1;
#X msg 208 -140 0;
#X msg 272 -56 clear;
#X obj 228 -211 spigot;
#X msg 234 -160 \; glob-seline-close bang;
#X obj 159 -88 v glob-seline-init;
#X obj 164 6 s pd-\$0-eline;
#N canvas 232 284 450 300 \$0-eline 0;
#X restore 147 54 pd \$0-eline;
#X msg 166 -30 obj 20 20 globeline~;
#X connect 0 0 9 0;
#X connect 1 0 7 0;
#X connect 2 0 8 0;
#X connect 2 1 5 0;
#X connect 2 1 6 0;
#X connect 3 0 4 0;
#X connect 3 0 12 0;
#X connect 4 0 7 1;
#X connect 4 0 9 0;
#X connect 5 0 9 0;
#X connect 6 0 10 0;
#X connect 7 0 2 0;
#X connect 9 0 3 0;
#X connect 12 0 10 0;
#X restore 452 103 pd array;
#X obj 204 -20 inlet;
#X obj 243 -29 inlet;
#X obj 207 34 route float list;
#X obj 302 175 -;
#X msg 219 105 stop;
#X obj 248 128 line~;
#X obj 355 66 snapshot~;
#X obj 261 219 +~ 0;
#X obj 260 193 *~ 0;
#X obj 209 3 t a b b;
#X obj 153 348 outlet~;
#X obj 339 90 f 0;
#X obj 71 137 route 0 1;
#X msg 141 86 1;
#X obj 107 159 t f b;
#X msg 175 85 0;
#X obj 70 112 list prepend 0;
#X obj 352 36 spigot;
#X msg 392 11 0;
#X msg 424 13 1;
#X obj 67 223 sig~;
#X msg 127 263 0;
#X msg 107 253 1;
#X obj 100 287 *~ 0;
#X msg 251 251 0;
#X msg 280 243 1;
#X obj 235 277 *~ 0;
#X obj 253 77 swap;
#X obj 516 48 loadbang;
#X obj 513 135 stoms;
#X msg 534 102 64;
#X obj 346 192 <=;
#X obj 415 227 f;
#X obj 349 219 sel 1 0;
#X obj 453 71 r glob-seline-close;
#X obj 254 154 tabread4~ eline~;
#X msg 254 102 1 \, 4094 \$1;
#X connect 1 0 10 0;
#X connect 2 0 14 0;
#X connect 2 0 28 1;
#X connect 3 0 17 0;
#X connect 3 1 16 0;
#X connect 3 1 28 0;
#X connect 4 0 9 1;
#X connect 5 0 6 0;
#X connect 6 0 36 0;
#X connect 7 0 12 1;
#X connect 8 0 7 0;
#X connect 8 0 27 0;
#X connect 9 0 8 0;
#X connect 10 0 3 0;
#X connect 10 1 12 0;
#X connect 10 2 5 0;
#X connect 10 2 18 0;
#X connect 12 0 4 1;
#X connect 12 0 8 1;
#X connect 13 0 19 0;
#X connect 13 0 12 0;
#X connect 13 0 21 0;
#X connect 13 0 23 0;
#X connect 13 0 25 0;
#X connect 13 1 15 0;
#X connect 14 0 17 1;
#X connect 15 0 28 0;
#X connect 15 1 16 0;
#X connect 16 0 17 1;
#X connect 17 0 13 0;
#X connect 18 0 7 0;
#X connect 19 0 18 1;
#X connect 20 0 18 1;
#X connect 21 0 24 0;
#X connect 22 0 24 1;
#X connect 23 0 24 1;
#X connect 24 0 11 0;
#X connect 25 0 27 1;
#X connect 26 0 27 1;
#X connect 27 0 11 0;
#X connect 28 0 37 0;
#X connect 28 0 32 0;
#X connect 28 1 33 1;
#X connect 28 1 4 0;
#X connect 29 0 31 0;
#X connect 29 0 0 0;
#X connect 30 0 32 1;
#X connect 31 0 30 0;
#X connect 32 0 34 0;
#X connect 33 0 12 1;
#X connect 34 0 33 0;
#X connect 34 0 19 0;
#X connect 34 1 20 0;
#X connect 35 0 0 0;
#X connect 36 0 9 0;
#X connect 37 0 6 0;
#X connect 37 0 22 0;
#X connect 37 0 26 0;
