#N canvas 397 149 863 449 10;
#X obj 129 34 inlet;
#X obj 296 54 inlet;
#X obj 333 251 -;
#X msg 242 111 0;
#X obj 410 114 inlet;
#X obj 209 213 shadylook rexp;
#X obj 225 294 scaler;
#X obj 235 341 outlet;
#X obj 222 135 swap;
#X obj 132 58 route stop set;
#X msg 169 150 stop;
#X obj 217 182 line 0 \$2;
#X obj 351 220 f \$1;
#X obj 215 83 t b a;
#X msg 217 157 1 \, 0 \$1;
#X obj 323 196 t f b;
#X obj 173 101 b;
#X connect 0 0 9 0;
#X connect 1 0 8 1;
#X connect 2 0 6 1;
#X connect 3 0 8 1;
#X connect 4 0 11 2;
#X connect 5 0 6 0;
#X connect 6 0 7 0;
#X connect 6 0 12 1;
#X connect 8 0 14 0;
#X connect 8 1 15 0;
#X connect 9 0 10 0;
#X connect 9 1 12 1;
#X connect 9 1 16 0;
#X connect 9 2 13 0;
#X connect 10 0 11 0;
#X connect 11 0 5 0;
#X connect 12 0 6 2;
#X connect 12 0 2 1;
#X connect 13 0 3 0;
#X connect 13 1 8 0;
#X connect 14 0 11 0;
#X connect 15 0 2 0;
#X connect 15 1 12 0;
#X connect 16 0 10 0;
