#N canvas 43 121 627 371 10;
#X declare -lib zexy;
#X obj 177 35 inlet;
#X obj 291 37 inlet;
#X obj 227 329 outlet~;
#X obj 217 184 line~;
#X obj 229 89 pack;
#X obj 245 269 -;
#X obj 227 133 unpack;
#X msg 251 63 0;
#X obj 229 112 t l b;
#X obj 386 227 zexy/nop;
#X msg 217 159 0.75 \, 0 \$1;
#X obj 332 34 declare -lib zexy;
#X obj 177 61 relay stop;
#X obj 217 216 ./shadylook~ rexp;
#X obj 199 239 ./scaler~ 1.00464 -0.0046352;
#X obj 225 296 ./scaler~;
#X obj 378 64 snapshot~;
#X obj 378 188 f;
#X obj 405 207 f;
#X obj 378 90 t b f;
#X obj 378 117 f;
#X obj 378 138 <= 0;
#X obj 378 165 sel 1;
#X obj 405 184 b;
#X connect 0 0 12 0;
#X connect 1 0 4 1;
#X connect 3 0 13 0;
#X connect 4 0 8 0;
#X connect 5 0 15 1;
#X connect 6 0 5 0;
#X connect 6 0 17 1;
#X connect 6 1 10 0;
#X connect 6 1 20 1;
#X connect 7 0 4 1;
#X connect 8 0 6 0;
#X connect 8 1 7 0;
#X connect 8 1 16 0;
#X connect 9 0 5 1;
#X connect 9 0 15 2;
#X connect 10 0 3 0;
#X connect 12 0 3 0;
#X connect 12 1 4 0;
#X connect 13 0 14 0;
#X connect 14 0 15 0;
#X connect 15 0 2 0;
#X connect 15 0 16 0;
#X connect 16 0 19 0;
#X connect 17 0 9 0;
#X connect 18 0 9 0;
#X connect 19 0 20 0;
#X connect 19 1 18 1;
#X connect 20 0 21 0;
#X connect 21 0 22 0;
#X connect 22 0 17 0;
#X connect 22 1 23 0;
#X connect 23 0 18 0;
