#N canvas 323 57 863 449 10;
#X obj 284 3 inlet;
#X obj 378 -9 inlet;
#X obj 331 241 +;
#X obj 425 109 f;
#X obj 289 35 t a b;
#X obj 404 139 -;
#X obj 251 296 outlet;
#X obj 334 208 *;
#X msg 299 137 stop;
#X obj 245 86 t b f;
#X obj 171 156 route 0 1;
#X msg 239 107 1;
#X obj 205 180 t f b;
#X msg 277 116 0;
#X obj 168 133 list prepend 0;
#X obj 334 104 swap;
#X obj 336 160 line 0 \$1;
#X obj 488 34 inlet;
#X obj 287 66 route float list set;
#X obj 334 186 tabread4 eline;
#X msg 334 134 1 \, 998 \$1;
#X obj 615 70 loadbang;
#N canvas 745 164 695 548 array 1;
#X obj 168 -121 inlet;
#X obj 230 -229 closebang;
#X obj 241 -176 t b b;
#X obj 169 -56 sel 0;
#X msg 229 -103 1;
#X msg 218 -130 0;
#X msg 282 -46 clear;
#X obj 238 -201 spigot;
#X obj 192 34 s pd-\$0-eline;
#N canvas 990 400 450 300 \$0-eline 0;
#X restore 238 81 pd \$0-eline;
#X msg 244 -150 \; glob-eline-close bang;
#X obj 169 -78 v glob-eline-init;
#X msg 194 -2 obj 20 20 globeline;
#X connect 0 0 11 0;
#X connect 1 0 7 0;
#X connect 2 0 10 0;
#X connect 2 1 5 0;
#X connect 2 1 6 0;
#X connect 3 0 4 0;
#X connect 3 0 12 0;
#X connect 4 0 7 1;
#X connect 4 0 11 0;
#X connect 5 0 11 0;
#X connect 6 0 8 0;
#X connect 7 0 2 0;
#X connect 11 0 3 0;
#X connect 12 0 8 0;
#X restore 538 152 pd array;
#X obj 519 92 r glob-eline-close;
#X connect 0 0 4 0;
#X connect 1 0 9 0;
#X connect 2 0 3 1;
#X connect 2 0 6 0;
#X connect 3 0 5 1;
#X connect 3 0 2 1;
#X connect 4 0 18 0;
#X connect 4 1 3 0;
#X connect 4 1 8 0;
#X connect 5 0 7 1;
#X connect 7 0 2 0;
#X connect 8 0 16 0;
#X connect 9 0 11 0;
#X connect 9 1 15 1;
#X connect 10 0 6 0;
#X connect 10 0 3 1;
#X connect 10 1 12 0;
#X connect 11 0 14 1;
#X connect 12 0 15 0;
#X connect 12 1 13 0;
#X connect 13 0 14 1;
#X connect 14 0 10 0;
#X connect 15 0 20 0;
#X connect 15 1 5 0;
#X connect 16 0 19 0;
#X connect 17 0 16 2;
#X connect 18 0 14 0;
#X connect 18 1 13 0;
#X connect 18 1 15 0;
#X connect 19 0 7 0;
#X connect 20 0 16 0;
#X connect 21 0 22 0;
#X connect 23 0 22 0;
