#N canvas 536 173 1031 454 10;
#X obj 153 115 log;
#X msg 186 91 10;
#X obj 186 113 log;
#X obj 153 139 /;
#X obj 126 93 t f f;
#X obj 187 64 loadbang;
#X obj 118 281 *;
#X obj 150 244 pow;
#X msg 151 222 10 \$1;
#X obj 151 203 -;
#X obj 153 162 int;
#X obj 126 70 abs;
#X obj 117 311 %;
#X obj 121 337 /;
#X obj 116 361 outlet;
#X msg 150 182 5 \$1;
#X obj 131 20 inlet;
#X msg 154 63 0;
#X connect 0 0 3 0;
#X connect 1 0 2 0;
#X connect 2 0 3 1;
#X connect 3 0 10 0;
#X connect 4 0 6 0;
#X connect 4 1 0 0;
#X connect 5 0 1 0;
#X connect 6 0 12 0;
#X connect 7 0 6 1;
#X connect 7 0 12 1;
#X connect 7 0 13 1;
#X connect 8 0 7 0;
#X connect 9 0 8 0;
#X connect 10 0 15 0;
#X connect 11 0 4 0;
#X connect 12 0 13 0;
#X connect 13 0 14 0;
#X connect 15 0 9 0;
#X connect 16 0 11 0;
#X connect 17 0 11 0;
