#N canvas 536 173 1031 454 10;
#X obj 153 115 log;
#X msg 186 91 10;
#X obj 186 113 log;
#X obj 153 139 /;
#X obj 126 93 t f f;
#X obj 187 64 loadbang;
#X obj 127 199 *;
#X obj 126 70 abs;
#X obj 126 229 %;
#X obj 130 255 /;
#X obj 125 279 outlet;
#X obj 131 20 inlet;
#X obj 153 172 expr pow(10 \, (5-int($f1)));
#X connect 0 0 3 0;
#X connect 1 0 2 0;
#X connect 2 0 3 1;
#X connect 3 0 12 0;
#X connect 4 0 6 0;
#X connect 4 1 0 0;
#X connect 5 0 1 0;
#X connect 6 0 8 0;
#X connect 7 0 4 0;
#X connect 8 0 9 0;
#X connect 9 0 10 0;
#X connect 11 0 7 0;
#X connect 12 0 6 1;
#X connect 12 0 8 1;
#X connect 12 0 9 1;
