#N canvas 485 338 647 397 10;
#X text 344 227 inlets: signal to shift \, phase (0-1);
#X msg 213 163 0;
#X obj 74 45 loadbang;
#X msg 112 98 0;
#X msg 194 80 200;
#X msg 168 33 300;
#X obj 225 79 mtof;
#X floatatom 225 52 5 0 0 0 - - -;
#X floatatom 149 92 5 0 0 0 - - -;
#X msg 56 95 10;
#X text 367 49 frequency shifter with phase input;
#X obj 103 164 ./operator~;
#X obj 122 207 ./freqshifter~;
#X obj 233 211 ./freqshifterd~;
#X obj 290 119 ./sndfread~;
#X obj 190 117 ./smoother~;
#X obj 108 123 ./smoother~;
#X obj 36 125 ./smoother~;
#X obj 211 266 ./outputc~;
#X connect 1 0 12 2;
#X connect 2 0 9 0;
#X connect 2 0 3 0;
#X connect 2 0 4 0;
#X connect 3 0 16 0;
#X connect 4 0 15 0;
#X connect 5 0 8 0;
#X connect 5 0 15 0;
#X connect 5 0 16 0;
#X connect 6 0 17 0;
#X connect 7 0 6 0;
#X connect 8 0 15 0;
#X connect 8 0 16 0;
#X connect 9 0 17 0;
#X connect 11 0 12 1;
#X connect 12 0 18 0;
#X connect 12 1 13 1;
#X connect 13 0 18 1;
#X connect 14 0 12 0;
#X connect 14 1 13 0;
#X connect 15 0 11 2;
#X connect 16 0 11 1;
#X connect 17 0 11 0;
