#N canvas 478 113 450 300 10;
#X text -94 33 something to make frequency modulation take up less
room in patches;
#X obj 151 168 freqmod~;
#X obj 169 124 mtof;
#X obj 172 59 loadbang;
#X msg 173 79 32;
#X obj 60 71 smoother~;
#X obj 132 201 outputc~;
#X obj 64 123 osc~;
#X floatatom 176 103 5 0 0 0 - - -;
#X obj 79 159 *~ 20;
#X connect 1 0 6 0;
#X connect 1 0 6 1;
#X connect 2 0 1 1;
#X connect 3 0 4 0;
#X connect 4 0 8 0;
#X connect 5 0 7 0;
#X connect 7 0 9 0;
#X connect 8 0 2 0;
#X connect 9 0 1 0;
