#N canvas 119 93 469 232 10;
#X obj -202 -37 inlet~;
#X obj -144 84 outlet~;
#X obj -160 48 osc~;
#X obj -57 -20 inlet;
#X obj -167 8 +~ \$1;
#X obj -126 -21 inlet;
#X connect 0 0 4 0;
#X connect 2 0 1 0;
#X connect 3 0 2 1;
#X connect 4 0 2 0;
#X connect 5 0 4 1;
