#N canvas 283 72 450 300 10;
#X obj 31 96 hilbert~;
#X obj 32 139 *~;
#X obj 76 139 *~;
#X obj 103 68 cos~;
#X obj 33 208 outlet~;
#X obj 32 70 inlet~;
#X obj 124 30 phasor~;
#X obj 122 7 inlet~;
#X obj 33 179 -~;
#X obj 347 9 inlet;
#X obj 155 71 sin~;
#X connect 0 0 1 0;
#X connect 0 1 2 0;
#X connect 1 0 8 0;
#X connect 2 0 8 1;
#X connect 3 0 1 1;
#X connect 5 0 0 0;
#X connect 6 0 3 0;
#X connect 6 0 10 0;
#X connect 7 0 6 0;
#X connect 8 0 4 0;
#X connect 9 0 6 1;
#X connect 10 0 2 1;
