#N canvas 433 332 450 300 10;
#X obj 119 33 inlet~;
#X obj 41 106 hilbert~;
#X obj 42 149 *~;
#X obj 86 149 *~;
#X obj 113 78 cos~;
#X obj 43 218 outlet~;
#X obj 42 80 inlet~;
#X obj 43 189 -~;
#X obj 165 81 sin~;
#X connect 0 0 4 0;
#X connect 0 0 8 0;
#X connect 1 0 2 0;
#X connect 1 1 3 0;
#X connect 2 0 7 0;
#X connect 3 0 7 1;
#X connect 4 0 2 1;
#X connect 6 0 1 0;
#X connect 7 0 5 0;
#X connect 8 0 3 1;
