#N canvas 443 177 450 300 10;
#X obj 198 94 osc~ 400;
#X obj 261 96 osc~ 200;
#X obj 205 213 dac~;
#X floatatom 324 206 5 0 0 0 - - -, f 5;
#X floatatom 326 100 5 0 0 0 - - -, f 5;
#X floatatom 281 77 5 0 0 0 - - -, f 5;
#X text 335 83 pan;
#X text 314 62 volume;
#X text 104 10 like outputc~ without recording or dac~ and with pan
;
#X obj 206 133 gainc~ 0.5 0.5;
#X floatatom 260 215 5 0 0 0 - - -, f 5;
#X text 263 234 volume;
#X text 333 188 pan;
#X text 60 45 1st arg: pan 0-1 2nd arg \; gain;
#X text 50 260 uses some kinda sqrt equal power panning;
#X connect 0 0 9 0;
#X connect 1 0 9 1;
#X connect 4 0 9 3;
#X connect 5 0 9 2;
#X connect 9 0 2 0;
#X connect 9 1 2 1;
#X connect 9 2 10 0;
#X connect 9 3 3 0;
