#N canvas 79 22 601 554 10;
#X obj 106 142 hsl 42 23 0.01 1 1 0 \$0-v \$0-v1 volume 7 13 1 9 -245500
-13381 -1 3483 0;
#X obj 151 132 tgl 18 0 THIS_IS_HERE_TO_GET_RID_OF_THE_OUTLET \$0-dsp-toggle
dsp 2 9 1 9 -262144 -195568 -33289 0 1;
#N canvas 851 349 482 356 dsp 0;
#X obj 11 7 inlet;
#X obj 92 226 select 0 1;
#X msg 125 248 6;
#X obj 92 57 route dsp;
#X obj 92 36 receive pd;
#X obj 206 138 loadbang;
#X msg 11 220 dsp \$1;
#X obj 11 245 send pd;
#X msg 206 278 set \$1;
#X obj 206 174 value GLOBAL_PDDP_DSP;
#X msg 109 278 color \$1 20 12;
#X obj 180 309 send \$0-dsp-toggle;
#X obj 92 115 change;
#X msg 92 247 0;
#X connect 0 0 6 0;
#X connect 0 0 12 0;
#X connect 1 0 13 0;
#X connect 1 1 2 0;
#X connect 2 0 10 0;
#X connect 3 0 12 0;
#X connect 4 0 3 0;
#X connect 5 0 9 0;
#X connect 6 0 7 0;
#X connect 8 0 11 0;
#X connect 9 0 8 0;
#X connect 9 0 1 0;
#X connect 10 0 11 0;
#X connect 12 0 8 0;
#X connect 12 0 1 0;
#X connect 12 0 9 0;
#X connect 13 0 10 0;
#X restore 136 190 pd dsp logic;
#X obj 221 32 inlet~;
#X obj 106 303 line~;
#X obj 206 363 *~;
#X text 233 52 audio in;
#X obj 283 32 inlet~;
#X obj 268 362 *~;
#X obj 35 372 send pd;
#X msg 34 330 dsp 1;
#X obj 106 282 pack 0 50;
#X text 173 281 <-- make a ramp to avoid clicks or zipper noise;
#X msg 106 247 0;
#X obj 32 220 spigot 1;
#X msg 78 195 0;
#X obj 32 287 sel 1;
#X obj 320 438 outlet;
#X obj 385 43 inlet;
#X obj 149 64 f \$1;
#X obj 153 30 loadbang;
#X obj 32 258 > 0.01;
#X obj 204 394 outlet~;
#X obj 267 389 outlet~;
#X obj 106 224 moses 0.015;
#X obj 371 76 s \$0-v1;
#X obj 106 117 hsl 42 23 0 1 0 0 \$0-p \$0-p1 pan 7 13 1 9 -4032 -159808
-1 2050 0;
#X obj 448 79 s \$0-p1;
#X obj 211 82 numargs;
#X obj 211 109 sel 1 2;
#X obj 232 135 f \$2;
#X obj 226 191 line~;
#X obj 226 170 pack 0 50;
#X obj 234 226 1-0switch~;
#X obj 280 312 *~;
#X obj 227 312 *~;
#X obj 251 254 sqrt~;
#X obj 313 262 sqrt~;
#X obj 334 322 expr~ 1/$v1;
#X obj 293 343 *~;
#X obj 232 340 *~;
#X obj 452 49 inlet;
#X obj 410 406 outlet;
#X msg 99 72 set \$1;
#X connect 0 0 17 0;
#X connect 0 0 24 0;
#X connect 0 0 14 0;
#X connect 1 0 2 0;
#X connect 3 0 35 1;
#X connect 4 0 8 0;
#X connect 4 0 5 0;
#X connect 5 0 22 0;
#X connect 7 0 34 0;
#X connect 8 0 23 0;
#X connect 10 0 9 0;
#X connect 11 0 4 0;
#X connect 13 0 11 0;
#X connect 14 0 21 0;
#X connect 15 0 14 1;
#X connect 16 0 10 0;
#X connect 16 0 15 0;
#X connect 18 0 25 0;
#X connect 19 0 43 0;
#X connect 19 0 17 0;
#X connect 19 0 24 0;
#X connect 20 0 28 0;
#X connect 21 0 16 0;
#X connect 24 0 13 0;
#X connect 24 1 11 0;
#X connect 26 0 32 0;
#X connect 26 0 42 0;
#X connect 28 0 29 0;
#X connect 29 0 19 0;
#X connect 29 1 19 0;
#X connect 29 1 30 0;
#X connect 30 0 26 0;
#X connect 31 0 33 0;
#X connect 31 0 37 0;
#X connect 32 0 31 0;
#X connect 33 0 36 0;
#X connect 34 0 39 0;
#X connect 35 0 40 0;
#X connect 36 0 35 0;
#X connect 36 0 38 0;
#X connect 37 0 34 1;
#X connect 37 0 38 0;
#X connect 38 0 39 1;
#X connect 38 0 40 1;
#X connect 39 0 8 1;
#X connect 40 0 5 1;
#X connect 41 0 27 0;
#X connect 43 0 0 0;
#X coords 0 -1 1 1 70 70 1 100 100;
