#N canvas 470 300 601 554 10;
#X declare -stdlib iemlib;
#X obj 107 143 hsl 57 23 0.01 1 1 0 \$0-v \$0-v1 volume 6 11 1 12 -245500
-13381 -1 0 0;
#X obj 249 145 inlet~;
#X obj 106 303 line~;
#X obj 206 363 *~;
#X obj 280 201 inlet~;
#X obj 268 362 *~;
#X obj 106 282 pack 0 50;
#X text 173 281 <-- make a ramp to avoid clicks or zipper noise;
#X msg 106 247 0;
#X obj 320 438 outlet;
#X obj 385 43 inlet;
#X obj 103 75 f \$1;
#X obj 146 5 loadbang;
#X obj 204 394 outlet~;
#X obj 267 389 outlet~;
#X obj 106 224 moses 0.015;
#X obj 371 76 s \$0-v1;
#X obj 107 118 hsl 57 23 0 1 0 0 \$0-p \$0-p1 pan 11 11 1 12 -4032
-159808 -1 0 0;
#X obj 448 79 s \$0-p1;
#X obj 226 191 line~;
#X obj 225 170 pack 0 50;
#X obj 227 229 1-0switch~;
#X obj 280 312 *~;
#X obj 227 312 *~;
#X obj 293 343 *~;
#X obj 232 340 *~;
#X obj 452 49 inlet;
#X obj 410 406 outlet;
#X obj 67 114 f \$2;
#X obj 334 322 rover~ 1;
#X msg 258 79 0.5;
#X obj 258 56 bangif < 2;
#X obj 313 262 q8_sqrt~;
#X obj 226 257 q8_sqrt~;
#X obj 299 24 declare -stdlib iemlib;
#X obj 170 29 dollarg;
#X connect 0 0 15 0;
#X connect 1 0 23 1;
#X connect 2 0 5 0;
#X connect 2 0 3 0;
#X connect 3 0 13 0;
#X connect 4 0 22 0;
#X connect 5 0 14 0;
#X connect 6 0 2 0;
#X connect 8 0 6 0;
#X connect 10 0 16 0;
#X connect 11 0 17 0;
#X connect 12 0 11 0;
#X connect 12 0 28 0;
#X connect 12 0 35 0;
#X connect 15 0 8 0;
#X connect 15 0 9 0;
#X connect 15 1 6 0;
#X connect 15 1 9 0;
#X connect 17 0 20 0;
#X connect 17 0 27 0;
#X connect 19 0 21 0;
#X connect 19 0 32 0;
#X connect 20 0 19 0;
#X connect 21 0 33 0;
#X connect 22 0 24 0;
#X connect 23 0 25 0;
#X connect 24 0 5 1;
#X connect 25 0 3 1;
#X connect 26 0 18 0;
#X connect 28 0 0 0;
#X connect 29 0 24 1;
#X connect 29 0 25 1;
#X connect 30 0 17 0;
#X connect 31 0 30 0;
#X connect 32 0 22 1;
#X connect 32 0 29 0;
#X connect 33 0 23 0;
#X connect 33 0 29 0;
#X connect 35 1 31 0;
#X coords 0 -1 1 1 70 70 1 100 100;
