#N canvas 132 290 784 518 10;
#X obj 174 -53 loadbang;
#X obj 135 10 inlet~;
#X obj 302 16 inlet;
#X obj 403 15 inlet;
#X obj 492 17 inlet;
#X obj 556 18 inlet;
#X obj 605 16 inlet;
#X obj 132 219 outlet~;
#X obj 349 16 inlet;
#X obj 318 229 f \$1;
#X obj 389 144 f \$2;
#X obj 451 149 f \$3;
#X obj 500 171 f \$4;
#X text 345 -6 deadtime;
#X text 485 -8 deadtime;
#X obj 367 272 pack f f f f;
#X msg 133 161 1 \$1;
#X msg 193 165 0 \$1;
#X text 257 -6 attack thresh;
#X text 403 -7 decay thresh;
#X obj 135 139 f \$5;
#X obj 192 136 f \$6;
#X text 547 -7 attack;
#X text 604 -6 decay;
#X obj 133 185 line~;
#X obj 135 76 threshold~;
#X obj 381 216 moses 0;
#X obj 494 222 moses 0;
#X msg 365 295 set \$1 \$2 \$3 \$4;
#X obj 383 181 t b f;
#X obj 440 185 t b f;
#X obj 492 197 t b f;
#X obj 520 51 moses 0;
#X obj 613 70 moses 0;
#X msg 192 54 0;
#X obj 63 167 <=;
#X obj 63 113 snapshot~;
#X obj 231 102 del;
#X obj 227 77 bang;
#X obj 63 189 sel 1;
#X obj 201 229 outlet;
#X msg 194 199 1;
#X msg 242 190 0;
#X connect 0 0 9 0;
#X connect 0 0 10 0;
#X connect 0 0 11 0;
#X connect 0 0 12 0;
#X connect 1 0 25 0;
#X connect 1 0 36 0;
#X connect 2 0 9 0;
#X connect 3 0 11 0;
#X connect 4 0 12 0;
#X connect 5 0 32 0;
#X connect 6 0 33 0;
#X connect 8 0 10 0;
#X connect 9 0 15 0;
#X connect 10 0 29 0;
#X connect 10 0 37 1;
#X connect 11 0 30 0;
#X connect 11 0 35 1;
#X connect 12 0 31 0;
#X connect 15 0 28 0;
#X connect 16 0 24 0;
#X connect 16 0 41 0;
#X connect 17 0 24 0;
#X connect 17 0 42 0;
#X connect 20 0 16 0;
#X connect 21 0 17 0;
#X connect 24 0 7 0;
#X connect 25 0 20 0;
#X connect 25 0 38 0;
#X connect 25 1 21 0;
#X connect 26 1 15 1;
#X connect 27 1 15 3;
#X connect 28 0 25 0;
#X connect 29 0 9 0;
#X connect 29 1 26 0;
#X connect 30 0 9 0;
#X connect 30 1 15 2;
#X connect 31 0 9 0;
#X connect 31 1 27 0;
#X connect 32 1 20 1;
#X connect 33 1 21 1;
#X connect 34 0 25 1;
#X connect 35 0 39 0;
#X connect 36 0 35 0;
#X connect 37 0 36 0;
#X connect 38 0 37 0;
#X connect 39 0 21 0;
#X connect 39 0 34 0;
#X connect 41 0 40 0;
#X connect 42 0 40 0;
