#N canvas 71 58 450 300 10;
#X obj 128 99 t b f;
#X obj 191 153 v globaltempo;
#X obj 106 128 s globaltempotrigger;
#X obj 148 63 inlet;
#X obj 244 5 loadbang;
#X obj 260 77 f \$1;
#X obj 258 103 sel 0;
#X obj 256 27 del 50;
#X obj 285 130 bpmtoms;
#X connect 0 0 2 0;
#X connect 0 1 1 0;
#X connect 3 0 0 0;
#X connect 4 0 7 0;
#X connect 5 0 6 0;
#X connect 6 1 8 0;
#X connect 7 0 5 0;
#X connect 8 0 0 0;
