#N canvas 748 241 450 300 10;
#X obj 75 36 loadbang;
#X obj 75 130 outlet;
#X obj 122 65 r \$1;
#X obj 75 64 v \$1;
#X obj 142 6 inlet;
#X obj 144 36 b;
#X connect 0 0 3 0;
#X connect 2 0 1 0;
#X connect 3 0 1 0;
#X connect 4 0 5 0;
#X connect 5 0 3 0;
