#N canvas 456 223 450 300 10;
#X obj 181 103 v globaltempo;
#X obj 180 39 loadbang;
#X obj 211 74 r globaltempotrigger;
#X obj 205 183 outlet;
#X obj 177 139 sel 0;
#X connect 0 0 4 0;
#X connect 1 0 0 0;
#X connect 2 0 0 0;
#X connect 4 1 3 0;
