#N canvas 185 94 478 376 10;
#X obj 137 111 grainy~;
#X obj 102 59 inlet~;
#X obj 162 52 inlet~;
#X obj 237 59 inlet~;
#X obj 302 9 inlet;
#X obj 292 33 route set window;
#X msg 351 156 set \$1;
#X obj 318 67 t b b;
#X obj 301 91 symbol \$1;
#X obj 302 132 sel symbol;
#X msg 365 107 symbol;
#X obj 230 19 loadbang;
#X obj 228 109 f \$2;
#X obj 227 131 if 0 1;
#X obj 237 158 max 1;
#X obj 219 236 hanning~;
#X obj 77 242 *~;
#X obj 133 204 hanning~;
#X obj 164 264 *~;
#X obj 76 270 outlet~;
#X obj 155 295 outlet~;
#X obj 140 235 tabread4hs~;
#X obj 36 207 tabread4hs~;
#X obj 98 180 +~ 0;
#X obj 188 129 +~ 0;
#N canvas 420 229 450 300 dualscale 0;
#X obj 28 40 inlet~;
#X obj 184 43 inlet~;
#X obj 285 42 inlet;
#X obj 184 73 -~ 0.5;
#X obj 184 97 *~ 1;
#X obj 184 124 +~ 0.5;
#X obj 28 71 -~ 0.5;
#X obj 28 95 *~ 1;
#X obj 28 122 +~ 0.5;
#X obj 28 171 outlet~;
#X obj 184 171 outlet~;
#X obj 184 146 clip~ 0 1;
#X obj 28 149 clip~ 0 1;
#X connect 0 0 6 0;
#X connect 1 0 3 0;
#X connect 2 0 4 1;
#X connect 2 0 7 1;
#X connect 3 0 4 0;
#X connect 4 0 5 0;
#X connect 5 0 11 0;
#X connect 6 0 7 0;
#X connect 7 0 8 0;
#X connect 8 0 12 0;
#X connect 11 0 10 0;
#X connect 12 0 9 0;
#X restore 136 178 pd dualscale;
#X connect 0 0 22 0;
#X connect 0 1 23 0;
#X connect 0 2 21 0;
#X connect 0 3 24 0;
#X connect 0 4 25 1;
#X connect 1 0 0 0;
#X connect 2 0 0 1;
#X connect 3 0 0 2;
#X connect 3 0 25 0;
#X connect 4 0 5 0;
#X connect 5 0 8 0;
#X connect 5 1 14 0;
#X connect 5 2 24 1;
#X connect 5 2 23 1;
#X connect 6 0 21 0;
#X connect 6 0 22 0;
#X connect 7 0 8 0;
#X connect 7 1 10 0;
#X connect 8 0 9 0;
#X connect 9 1 6 0;
#X connect 10 0 9 1;
#X connect 11 0 7 0;
#X connect 11 0 12 0;
#X connect 12 0 13 0;
#X connect 13 0 14 0;
#X connect 14 0 25 2;
#X connect 15 0 18 1;
#X connect 16 0 19 0;
#X connect 17 0 16 1;
#X connect 18 0 20 0;
#X connect 21 0 18 0;
#X connect 22 0 16 0;
#X connect 23 0 22 1;
#X connect 24 0 21 1;
#X connect 25 0 17 0;
#X connect 25 1 15 0;
