#N canvas 406 105 683 718 12;
#X obj 7 378 +~;
#X obj 8 330 samphold~;
#X obj 444 203 +~ 0.5;
#X obj 445 229 wrap~;
#X obj 148 397 +~;
#X obj 148 337 samphold~;
#X obj 148 366 *~;
#X obj 117 190 inlet~;
#X obj 253 169 inlet~;
#X obj 428 509 outlet~;
#X obj 318 511 outlet~;
#X obj 9 355 *~;
#X obj 15 479 outlet~;
#X text 333 544 windowing;
#X obj 134 479 outlet~;
#X text 74 485 readers;
#X text 101 165 read point;
#X text 248 145 grain size;
#X obj 357 184 inlet~;
#X text 374 139 phasor~ in;
#X connect 0 0 12 0;
#X connect 1 0 11 0;
#X connect 2 0 3 0;
#X connect 3 0 5 1;
#X connect 3 0 6 1;
#X connect 3 0 9 0;
#X connect 4 0 14 0;
#X connect 5 0 6 0;
#X connect 6 0 4 0;
#X connect 7 0 0 1;
#X connect 7 0 4 1;
#X connect 8 0 5 0;
#X connect 8 0 1 0;
#X connect 11 0 0 0;
#X connect 18 0 2 0;
#X connect 18 0 1 1;
#X connect 18 0 11 1;
#X connect 18 0 10 0;
