#N canvas 255 387 789 444 10;
#X obj 443 49 saver \$0-globname;
#X obj 73 183 gsave \$0-globname manymsg;
#X obj 102 163 prepender s1 s2 s3 s4;
#X obj 84 7 route s1 s2 s3 s4;
#X obj 98 29 vsl 15 128 0 127 0 0 empty empty empty 0 -9 0 10 -262144
-1 -1 0 1;
#X obj 129 29 vsl 15 128 0 127 0 0 empty empty empty 0 -9 0 10 -262144
-1 -1 0 1;
#X obj 159 30 vsl 15 128 0 127 0 0 empty empty empty 0 -9 0 10 -262144
-1 -1 5500 1;
#X obj 195 27 vsl 15 128 0 127 0 0 empty empty empty 0 -9 0 10 -262144
-1 -1 12700 1;
#X obj 428 120 msgsave;
#X msg 436 191 \; manymsg s1 28 \; manymsg s3 16 \; manymsg s4 61 \;
manymsg s2 72 \;;
#X text 97 367 gsave provides a way to save for many names under a
broader name with lmap. it's also good for abstractions that have no
lmap of their own.;
#X obj 460 140 iemlib/iem_prepend;
#X obj 545 20 hradio 15 1 0 4 empty empty empty 0 -8 0 10 -262144 -1
-1 1;
#X obj 454 162 route 0 1 2 3;
#X msg 547 187 \; manymsg s1 0 \; manymsg s3 55 \; manymsg s4 127 \;
manymsg s2 0 \;;
#X msg 446 283 \; manymsg s1 117 \; manymsg s3 25 \; manymsg s4 32
\; manymsg s2 121 \;;
#X msg 557 279 \; manymsg s1 35 \; manymsg s3 127 \; manymsg s4 15
\; manymsg s2 83 \;;
#X connect 0 0 8 0;
#X connect 0 1 8 1;
#X connect 0 2 8 2;
#X connect 1 0 3 0;
#X connect 2 0 1 0;
#X connect 3 0 4 0;
#X connect 3 1 5 0;
#X connect 3 2 6 0;
#X connect 3 3 7 0;
#X connect 4 0 2 0;
#X connect 5 0 2 1;
#X connect 6 0 2 2;
#X connect 7 0 2 3;
#X connect 8 0 11 0;
#X connect 11 0 13 0;
#X connect 12 0 11 1;
#X connect 13 0 9 0;
#X connect 13 1 14 0;
#X connect 13 2 15 0;
#X connect 13 3 16 0;
