#N canvas 34 489 741 380 10;
#X obj 357 148 lmap;
#X obj 318 71 inlet;
#X msg 377 105 dump;
#X obj 523 162 outlet;
#X obj 459 116 t b b;
#X obj 474 180 outlet;
#X obj 459 88 ./stater \$1 \$2;
#X connect 0 2 6 0;
#X connect 1 0 0 0;
#X connect 2 0 0 0;
#X connect 4 0 2 0;
#X connect 4 1 5 0;
#X connect 6 0 4 0;
#X connect 6 1 3 0;
