#N canvas 168 190 450 300 10;
#X obj 134 54 inlet~;
#X obj 134 142 cos~;
#X obj 134 209 outlet~;
#X obj 134 112 -~ 0.5;
#X obj 135 173 ./scaler~ 0.5 0.5;
#X connect 0 0 3 0;
#X connect 1 0 4 0;
#X connect 3 0 1 0;
#X connect 4 0 2 0;
