#N canvas 434 22 724 509 10;
#X declare -lib iem_tab;
#X obj 343 118 tabsend~ \$0-block;
#X obj 395 185 block~ 2048;
#X obj 343 73 inlet~;
#X obj 324 187 bang~;
#X obj 177 278 until;
#X obj 177 330 tabread \$0-block;
#X msg 216 278 0;
#X obj 177 306 cup;
#X obj 462 61 if 0 2048;
#X obj 460 -1 loadbang;
#X obj 501 93 f \$0;
#X obj 466 125 pack;
#X obj 463 19 t b b;
#X obj 177 221 f;
#X obj 171 382 >;
#X obj 196 430 f;
#X obj 171 404 sel 1;
#X obj 176 455 f;
#X obj 454 244 table \$0-block 2048;
#X msg 466 185 \; \$2-block resize \$1;
#X obj 176 483 outlet;
#X obj 463 41 f \$1;
#X obj 177 251 t f b b;
#X obj 172 354 t f f;
#X obj 565 72 inlet;
#X msg 420 160 set \$1 1 1;
#X obj 182 125 import iem_tab;
#X obj 308 254 tab_max_index \$0-block;
#X text 64 293 more "pd" version;
#X connect 2 0 0 0;
#X connect 3 0 27 0;
#X connect 4 0 7 0;
#X connect 5 0 23 0;
#X connect 6 0 7 0;
#X connect 6 0 15 0;
#X connect 7 0 5 0;
#X connect 8 0 11 0;
#X connect 8 0 25 0;
#X connect 9 0 12 0;
#X connect 10 0 11 1;
#X connect 11 0 19 0;
#X connect 12 0 21 0;
#X connect 12 1 10 0;
#X connect 13 0 22 0;
#X connect 14 0 16 0;
#X connect 15 0 17 1;
#X connect 15 0 14 1;
#X connect 16 0 15 0;
#X connect 17 0 20 0;
#X connect 21 0 8 0;
#X connect 22 0 4 0;
#X connect 22 1 6 0;
#X connect 22 2 17 0;
#X connect 23 0 14 0;
#X connect 23 1 15 1;
#X connect 24 0 8 0;
#X connect 25 0 1 0;
#X connect 27 2 20 0;
