#N canvas 697 41 721 750 10;
#X obj 218 1 inlet;
#X msg 396 196;
#X obj 202 116 t b b;
#X msg 186 210;
#X obj 240 413 list;
#X obj 187 366 list-drip;
#X obj 245 438 list split 1;
#X obj 262 389 list;
#X obj 280 186 list length;
#X obj 210 591 f;
#X obj 215 557 cup;
#X obj 215 615 ==;
#X obj 214 662 cup;
#X obj 211 639 sel 1;
#X msg 288 627 1;
#X obj 311 5 inlet;
#X obj 373 260 list-drip;
#X msg 476 290 addcomma;
#X msg 279 107 set;
#X obj 342 93 bang;
#X obj 406 68 list-drip;
#X obj 198 717 outlet;
#X msg 248 669 0;
#X msg 313 58 set;
#X obj 314 32 bang;
#X msg 394 125 add2 \$1;
#X msg 404 310 add2 \$1;
#X obj 203 684 f;
#X obj 418 17 inlet;
#X msg 340 545 0;
#X msg 457 131 addcomma;
#X obj 282 359 t b b;
#X obj 183 390 t a b;
#X obj 213 259 list length;
#X obj 214 280 ==;
#X obj 191 308 spigot;
#X msg 299 539 1;
#X obj 216 54 t b a b;
#X obj 415 44 t a b;
#X obj 384 222 t a b;
#X obj 188 239 t a a;
#X obj 156 36 t b a;
#X obj 182 474 compare-any;
#X obj 190 508 sel 1;
#X connect 0 0 41 0;
#X connect 1 0 39 0;
#X connect 2 0 3 0;
#X connect 2 1 7 0;
#X connect 3 0 40 0;
#X connect 4 0 6 0;
#X connect 5 0 32 0;
#X connect 5 1 7 0;
#X connect 5 1 31 0;
#X connect 6 0 42 1;
#X connect 6 1 4 1;
#X connect 7 0 4 1;
#X connect 8 0 11 1;
#X connect 8 0 34 1;
#X connect 9 0 11 0;
#X connect 10 0 9 1;
#X connect 11 0 13 0;
#X connect 12 0 27 1;
#X connect 13 0 12 0;
#X connect 14 0 12 0;
#X connect 15 0 24 0;
#X connect 16 0 26 0;
#X connect 17 0 3 0;
#X connect 18 0 3 0;
#X connect 19 0 1 0;
#X connect 20 0 25 0;
#X connect 22 0 27 1;
#X connect 23 0 1 0;
#X connect 24 0 23 0;
#X connect 25 0 1 0;
#X connect 26 0 3 0;
#X connect 27 0 21 0;
#X connect 28 0 38 0;
#X connect 29 0 9 1;
#X connect 29 0 36 0;
#X connect 30 0 1 0;
#X connect 31 0 29 0;
#X connect 31 1 9 0;
#X connect 32 0 42 0;
#X connect 32 1 4 0;
#X connect 33 0 34 0;
#X connect 34 0 35 1;
#X connect 35 0 5 0;
#X connect 36 0 10 0;
#X connect 37 0 2 0;
#X connect 37 1 7 1;
#X connect 37 1 8 0;
#X connect 37 1 19 0;
#X connect 37 2 18 0;
#X connect 37 2 14 0;
#X connect 37 2 29 0;
#X connect 37 2 22 0;
#X connect 38 0 20 0;
#X connect 38 1 30 0;
#X connect 39 0 16 0;
#X connect 39 1 17 0;
#X connect 40 0 35 0;
#X connect 40 1 33 0;
#X connect 41 0 27 0;
#X connect 41 1 37 0;
#X connect 42 0 43 0;
#X connect 43 0 10 0;
