#N canvas 297 163 781 331 10;
#X obj 301 174 inlist;
#X obj 300 205 print;
#X obj 330 134 bng 15 250 50 0 empty empty empty 17 7 0 10 -262144
-1 -1;
#X msg 185 74 22 24;
#X msg 244 69 3;
#X text 355 131 reset;
#X text 42 53 how many of this list are in the list of lists?;
#X text 412 48 add to list;
#X msg 404 122 2;
#X msg 265 120 2;
#X msg 342 41 24 22;
#X msg 163 121 22 24 \, 3 \, 2;
#X msg 293 80 22;
#X msg 335 85 24;
#X msg 276 21 22 22;
#X msg 151 92 richardson;
#X msg 404 71 3 \, 3 \, 3 \, 3 \, 22 24 \, 22 24 \, richardson \, richardson
;
#X connect 0 0 1 0;
#X connect 2 0 0 1;
#X connect 3 0 0 0;
#X connect 4 0 0 0;
#X connect 8 0 0 2;
#X connect 9 0 0 0;
#X connect 10 0 0 0;
#X connect 11 0 0 0;
#X connect 12 0 0 0;
#X connect 13 0 0 0;
#X connect 14 0 0 0;
#X connect 15 0 0 0;
#X connect 16 0 0 2;
