#N canvas 231 265 491 394 10;
#X obj 149 57 inlet;
#X obj 240 49 inlet;
#X obj 234 122 <;
#X obj 149 118 <;
#X obj 149 92 t f f;
#X obj 238 90 t f f;
#X obj 192 67 f \$1;
#X obj 286 64 f \$2;
#X obj 154 15 loadbang;
#X obj 66 101 inlet;
#X obj 89 236 moses;
#X obj 111 355 outlet;
#X obj 203 352 outlet;
#X obj 134 294 pack f f;
#X obj 142 254 t f f;
#X obj 142 274 <=;
#X obj 133 317 route 1 0;
#X obj 235 143 pack f f f;
#X obj 197 178 route 1 0;
#X obj 184 198 unpack;
#X obj 230 198 unpack;
#X obj 142 146 pack f f f;
#X connect 0 0 4 0;
#X connect 1 0 5 0;
#X connect 2 0 17 0;
#X connect 3 0 21 0;
#X connect 4 0 3 0;
#X connect 4 1 2 1;
#X connect 4 1 17 1;
#X connect 4 1 21 2;
#X connect 5 0 2 0;
#X connect 5 1 3 1;
#X connect 5 1 17 2;
#X connect 5 1 21 1;
#X connect 6 0 4 0;
#X connect 7 0 5 0;
#X connect 8 0 7 0;
#X connect 8 0 6 0;
#X connect 9 0 10 0;
#X connect 10 0 12 0;
#X connect 10 1 14 0;
#X connect 13 0 16 0;
#X connect 14 0 15 0;
#X connect 14 1 13 1;
#X connect 15 0 13 0;
#X connect 16 0 11 0;
#X connect 16 1 12 0;
#X connect 17 0 18 0;
#X connect 18 0 19 0;
#X connect 18 1 20 0;
#X connect 19 0 15 1;
#X connect 19 1 10 1;
#X connect 20 0 10 1;
#X connect 20 1 15 1;
#X connect 21 0 18 0;
