#N canvas 231 265 491 394 10;
#X obj 68 63 inlet;
#X obj 149 57 inlet;
#X obj 240 49 inlet;
#X obj 234 122 <;
#X obj 149 118 <;
#X obj 251 176 f;
#X obj 219 175 f;
#X obj 232 143 sel 1 0;
#X obj 168 177 f;
#X obj 127 173 f;
#X obj 148 144 sel 1 0;
#X obj 94 210 >=;
#X obj 128 209 <=;
#X obj 110 239 &;
#X obj 87 137 t f f;
#X obj 109 317 outlet;
#X obj 149 92 t f f;
#X obj 238 90 t f f;
#X obj 192 67 f \$1;
#X obj 286 64 f \$2;
#X obj 154 15 loadbang;
#X obj 109 285 f;
#X obj 110 259 sel 1 0;
#X obj 156 291 f;
#X obj 158 320 outlet;
#X text 201 249 this should have been done with 2 [moses]s;
#X connect 0 0 14 0;
#X connect 1 0 16 0;
#X connect 2 0 17 0;
#X connect 3 0 7 0;
#X connect 4 0 10 0;
#X connect 5 0 12 1;
#X connect 6 0 11 1;
#X connect 7 0 6 0;
#X connect 7 0 8 0;
#X connect 7 1 5 0;
#X connect 7 1 9 0;
#X connect 8 0 12 1;
#X connect 9 0 11 1;
#X connect 10 0 9 0;
#X connect 10 0 5 0;
#X connect 10 1 8 0;
#X connect 10 1 6 0;
#X connect 11 0 13 0;
#X connect 12 0 13 1;
#X connect 13 0 22 0;
#X connect 14 0 11 0;
#X connect 14 1 12 0;
#X connect 14 1 21 1;
#X connect 14 1 23 1;
#X connect 16 0 4 0;
#X connect 16 1 9 1;
#X connect 16 1 8 1;
#X connect 16 1 3 1;
#X connect 17 0 3 0;
#X connect 17 1 5 1;
#X connect 17 1 6 1;
#X connect 17 1 4 1;
#X connect 18 0 16 0;
#X connect 19 0 17 0;
#X connect 20 0 19 0;
#X connect 20 0 18 0;
#X connect 21 0 15 0;
#X connect 22 0 21 0;
#X connect 22 1 23 0;
#X connect 23 0 24 0;
