#N canvas 754 307 450 300 10;
#X obj 164 131 wrap~;
#X obj 149 163 -~;
#X obj 143 8 inlet~;
#X obj 151 221 outlet~;
#X obj 263 209 outlet~;
#X obj 145 92 *~;
#X obj 203 111 *~;
#X obj 177 66 1-0switch~;
#X obj 266 142 wrap~;
#X obj 203 159 -~;
#X obj 172 38 <~ 0;
#X obj 209 135 abs~;
#X obj 240 33 ==~ 0;
#X obj 210 183 *~ -1;
#X obj 267 172 *~ -1;
#X connect 0 0 1 1;
#X connect 0 0 4 0;
#X connect 1 0 3 0;
#X connect 2 0 5 0;
#X connect 2 0 6 0;
#X connect 2 0 10 0;
#X connect 2 0 12 0;
#X connect 5 0 0 0;
#X connect 5 0 1 0;
#X connect 6 0 11 0;
#X connect 7 0 5 1;
#X connect 7 0 8 0;
#X connect 8 0 9 1;
#X connect 8 0 14 0;
#X connect 9 0 13 0;
#X connect 10 0 7 0;
#X connect 10 0 6 1;
#X connect 10 0 0 0;
#X connect 11 0 8 0;
#X connect 11 0 9 0;
#X connect 12 0 0 0;
#X connect 12 0 8 0;
#X connect 13 0 3 0;
#X connect 14 0 4 0;
