#N canvas 420 130 450 300 10;
#X obj 159 75 f \$1;
#X obj 160 47 inlet;
#X obj 162 106 t f b;
#X obj 161 133 until;
#X msg 183 166 0;
#X obj 166 224 outlet;
#X obj 247 51 inlet;
#X obj 166 189 ekext/cup;
#X connect 0 0 2 0;
#X connect 1 0 0 0;
#X connect 2 0 3 0;
#X connect 2 1 4 0;
#X connect 3 0 7 0;
#X connect 4 0 7 0;
#X connect 6 0 0 1;
#X connect 7 0 5 0;
