#N canvas 229 110 675 419 12;
#X obj 161 56 inlet~;
#X obj 157 102 wrap~;
#X obj 148 283 outlet~;
#X obj 189 127 *~ 20.785;
#X obj 189 151 -~ 31.1775;
#X obj 172 178 *~;
#X obj 172 202 +~ 10.3925;
#X obj 158 227 *~;
#X connect 0 0 1 0;
#X connect 1 0 3 0;
#X connect 1 0 5 0;
#X connect 1 0 7 0;
#X connect 3 0 4 0;
#X connect 4 0 5 1;
#X connect 5 0 6 0;
#X connect 6 0 7 1;
#X connect 7 0 2 0;
