#N canvas 507 62 873 490 10;
#X obj 393 158 noise~;
#X obj 514 138 vdhs~ \$0-ks;
#X obj 496 248 delwritec~ \$0-ks 1000;
#X obj 512 160 rzero~ -1;
#X obj 518 98 mstof;
#X obj 516 77 mtof;
#X msg 501 212 clear;
#X obj 417 199 *~;
#X obj 471 214 +~;
#X obj 499 30 inlet;
#X obj 509 53 t f b;
#X obj 434 275 outlet~;
#X obj 639 51 inlet;
#X obj 616 186 * 0.5;
#X obj 699 89 loadbang;
#X obj 502 186 *~ 0;
#X obj 683 154 if 0 0.98;
#X obj 697 114 f \$1;
#X obj 628 272 block~ 1;
#X obj 449 176 astep~;
#X connect 0 0 7 0;
#X connect 1 0 3 0;
#X connect 3 0 15 0;
#X connect 4 0 1 0;
#X connect 4 0 19 0;
#X connect 5 0 4 0;
#X connect 6 0 2 0;
#X connect 7 0 8 0;
#X connect 8 0 2 0;
#X connect 8 0 11 0;
#X connect 9 0 10 0;
#X connect 10 0 5 0;
#X connect 10 1 6 0;
#X connect 12 0 13 0;
#X connect 13 0 15 1;
#X connect 14 0 17 0;
#X connect 15 0 8 1;
#X connect 16 0 13 0;
#X connect 17 0 16 0;
#X connect 19 0 7 1;
