#N canvas 0 22 450 300 10;
#X obj 123 122 ./oscope~;
#X text 229 52 does linear interpolation;
#X obj 140 15 ./smoother~;
#X obj 141 61 ./shnoise~;
#X obj 136 90 ./linterp~;
#X connect 2 0 3 0;
#X connect 3 0 4 0;
#X connect 3 1 4 1;
#X connect 3 2 4 2;
#X connect 4 0 0 0;
