#N canvas 799 103 450 300 10;
#X obj 268 89 list split 1;
#X obj 313 182 s;
#X obj 303 113 list trim;
#X obj 269 10 inlet;
#X obj 292 62 t l s;
#X obj 288 36 list;
#X connect 0 1 2 0;
#X connect 2 0 1 0;
#X connect 3 0 5 0;
#X connect 4 0 0 0;
#X connect 4 1 1 1;
#X connect 5 0 4 0;
