#N canvas 245 250 571 348 12;
#X obj 154 51 inlet;
#X obj 365 68 inlet;
#X obj 184 245 ekext/cup;
#X obj 144 274 f;
#X obj 153 311 outlet;
#X msg 272 179 1;
#X obj 162 115 zexy/drip;
#X obj 145 87 t b a b;
#X obj 179 217 sel;
#X obj 278 30 iemlib/init \$1;
#X obj 308 115 route float symbol;
#X obj 423 148 prepender symbol;
#X obj 158 149 zexy/demultiplex;
#X obj 214 219 sel symbol;
#X msg 271 117 0;
#X msg 240 112 1;
#X obj 391 186 zexy/nop;
#X msg 117 215 0;
#X connect 0 0 7 0;
#X connect 1 0 10 0;
#X connect 2 0 3 1;
#X connect 3 0 4 0;
#X connect 5 0 2 0;
#X connect 6 0 12 0;
#X connect 7 0 3 0;
#X connect 7 1 6 0;
#X connect 7 2 5 0;
#X connect 7 2 17 0;
#X connect 8 0 2 0;
#X connect 9 0 10 0;
#X connect 10 0 8 1;
#X connect 10 0 14 0;
#X connect 10 1 16 0;
#X connect 10 2 11 0;
#X connect 11 0 16 0;
#X connect 12 0 8 0;
#X connect 12 1 13 0;
#X connect 13 0 2 0;
#X connect 14 0 12 1;
#X connect 15 0 12 1;
#X connect 16 0 13 1;
#X connect 16 0 15 0;
#X connect 17 0 3 1;
