#N canvas 0 22 450 300 10;
#X obj 201 108 list-drip;
#X obj 203 56 inlet;
#X obj 209 189 cup;
#X msg 221 140 1;
#X obj 170 224 f;
#X obj 170 151 sel \$1;
#X obj 174 256 outlet;
#X obj 202 81 t a b;
#X obj 305 60 inlet;
#X msg 271 172 0;
#X connect 0 0 5 0;
#X connect 0 1 4 0;
#X connect 1 0 7 0;
#X connect 2 0 4 1;
#X connect 3 0 2 0;
#X connect 4 0 6 0;
#X connect 5 0 2 0;
#X connect 7 0 0 0;
#X connect 7 1 3 0;
#X connect 7 1 9 0;
#X connect 8 0 5 1;
#X connect 9 0 4 1;
