#N canvas 610 192 450 300 10;
#X obj 186 25 inlet;
#X obj 191 119 until;
#X obj 188 248 outlet;
#X obj 177 51 t b l b;
#X obj 315 58 inlet;
#X obj 195 78 list split 1;
#X obj 238 107 route bang;
#X obj 187 215 list store;
#X obj 200 179 iemlib/iem_prepend append;
#X obj 300 33 iemlib/dollarg;
#X obj 192 157 list;
#X obj 299 10 loadbang;
#X connect 0 0 3 0;
#X connect 1 0 10 0;
#X connect 3 0 7 0;
#X connect 3 1 5 0;
#X connect 3 2 7 1;
#X connect 4 0 10 1;
#X connect 5 0 1 0;
#X connect 5 1 6 0;
#X connect 6 1 10 1;
#X connect 7 0 2 0;
#X connect 8 0 7 0;
#X connect 9 0 10 1;
#X connect 10 0 8 0;
#X connect 11 0 9 0;
