#N canvas 126 291 546 522 10;
#X declare -lib zexy;
#X obj 225 38 inlet;
#X obj 80 20 inlet;
#X obj 154 189 sel \$1;
#X obj 160 390 outlet;
#X obj 88 84 list split 1;
#X obj 85 41 list;
#X obj 71 60 t b l b;
#X obj 77 143 sel \$1;
#X obj 128 141 list;
#X obj 60 114 t b a;
#N canvas 539 24 624 701 checkdupes 0;
#X obj 166 55 inlet;
#X obj 307 74 inlet;
#X obj 307 106 symbol \$1;
#X obj 195 334 list-abs/list-drip2;
#X obj 307 133 list fromsymbol;
#X obj 166 141 list fromsymbol;
#X obj 166 99 symbol;
#X obj 214 369 ==;
#X obj 194 200 list length;
#X obj 306 311 list-const;
#X obj 309 193 list length;
#X obj 306 247 /;
#X obj 306 289 list;
#X obj 306 268 int;
#X obj 167 174 t l l;
#X obj 215 398 sel 0;
#X obj 227 568 symbol;
#X obj 166 120 t s s b;
#X msg 304 403 1;
#X obj 260 503 list split;
#X obj 287 536 list tosymbol;
#X obj 258 606 outlet;
#X obj 127 74 route float;
#X obj 265 456 spigot;
#X obj 194 455 spigot;
#X msg 233 426 0;
#X obj 267 482 list;
#X connect 0 0 22 0;
#X connect 1 0 2 0;
#X connect 2 0 4 0;
#X connect 3 0 7 0;
#X connect 3 1 7 1;
#X connect 3 2 23 0;
#X connect 4 0 10 0;
#X connect 4 0 12 1;
#X connect 5 0 14 0;
#X connect 6 0 17 0;
#X connect 7 0 15 0;
#X connect 8 0 11 0;
#X connect 9 0 3 1;
#X connect 10 0 11 1;
#X connect 10 0 19 1;
#X connect 11 0 13 0;
#X connect 12 0 9 0;
#X connect 13 0 12 0;
#X connect 14 0 3 0;
#X connect 14 1 8 0;
#X connect 14 1 26 1;
#X connect 15 0 24 0;
#X connect 16 0 21 0;
#X connect 17 0 5 0;
#X connect 17 1 16 1;
#X connect 17 2 18 0;
#X connect 18 0 23 1;
#X connect 18 0 24 1;
#X connect 19 1 20 0;
#X connect 20 0 16 0;
#X connect 22 0 21 0;
#X connect 22 1 6 0;
#X connect 23 0 26 0;
#X connect 24 0 16 0;
#X connect 24 0 25 0;
#X connect 25 0 24 1;
#X connect 25 0 23 1;
#X connect 26 0 19 0;
#X restore 189 225 pd checkdupes;
#X obj 364 151 loadbang;
#X obj 159 336 route symbol;
#X obj 158 359 sel bang;
#X obj 192 277 list store;
#X obj 142 225 t b b;
#X obj 192 250 prepender append;
#X obj 149 163 drip;
#X obj 328 43 declare -lib zexy;
#X connect 0 0 2 1;
#X connect 0 0 7 1;
#X connect 0 0 10 1;
#X connect 1 0 5 0;
#X connect 2 0 15 0;
#X connect 2 1 10 0;
#X connect 4 0 9 0;
#X connect 4 1 8 1;
#X connect 5 0 6 0;
#X connect 6 0 14 0;
#X connect 6 1 4 0;
#X connect 6 2 14 1;
#X connect 7 1 10 0;
#X connect 8 0 17 0;
#X connect 9 0 8 0;
#X connect 9 1 7 0;
#X connect 10 0 16 0;
#X connect 11 0 10 1;
#X connect 12 0 13 0;
#X connect 12 1 3 0;
#X connect 13 0 3 0;
#X connect 13 1 3 0;
#X connect 14 0 12 0;
#X connect 15 0 14 1;
#X connect 15 1 14 0;
#X connect 16 0 14 0;
#X connect 17 0 2 0;
