#N canvas 610 192 450 300 10;
#X obj 186 25 inlet;
#X obj 192 124 until;
#X obj 196 183 list;
#X obj 237 181 t l;
#X obj 178 216 list;
#X obj 188 248 outlet;
#X obj 177 51 t b l b;
#X obj 315 58 inlet;
#X obj 192 157 list \$1;
#X obj 195 78 list split 1;
#X obj 232 120 route bang;
#X connect 0 0 6 0;
#X connect 1 0 8 0;
#X connect 2 0 3 0;
#X connect 2 0 4 1;
#X connect 3 0 2 1;
#X connect 4 0 5 0;
#X connect 6 0 4 0;
#X connect 6 1 9 0;
#X connect 6 2 2 1;
#X connect 7 0 8 1;
#X connect 8 0 2 0;
#X connect 9 0 1 0;
#X connect 9 1 10 0;
#X connect 10 1 8 1;
