#N canvas 189 70 728 563 10;
#X obj 73 94 t a a;
#X obj 73 251 spigot;
#X obj 112 159 bang;
#X obj 112 178 1;
#X obj 235 185 route bang;
#X obj 195 205 0;
#X obj 112 124 list split 2;
#X obj 242 389 list split;
#X obj 309 338 list length;
#X obj 309 360 >> 1;
#X obj 73 270 t a a a a;
#X obj 73 456 list split;
#X obj 140 408 list length;
#X obj 140 433 >> 1;
#X obj 41 29 inlet;
#X obj 306 229 outlet;
#X text 83 29 Copyright 2009 by Mathieu Bouchard;
#X obj 475 129 outlet;
#X text 530 131 signal end of list;
#X text 391 33 made compatible with [list-drip]: fbar 2009;
#X obj 400 288 outlet;
#X obj 41 63 t b a b;
#X obj 393 260 cup;
#X msg 431 221 0;
#X obj 191 151 t a b;
#X obj 302 209 t a b;
#X connect 0 0 1 0;
#X connect 0 1 6 0;
#X connect 1 0 10 0;
#X connect 2 0 3 0;
#X connect 3 0 1 1;
#X connect 4 1 25 0;
#X connect 5 0 1 1;
#X connect 6 0 2 0;
#X connect 6 2 24 0;
#X connect 7 0 0 0;
#X connect 8 0 9 0;
#X connect 9 0 7 1;
#X connect 10 0 11 0;
#X connect 10 1 12 0;
#X connect 10 2 7 0;
#X connect 10 3 8 0;
#X connect 11 1 0 0;
#X connect 12 0 13 0;
#X connect 13 0 11 1;
#X connect 14 0 21 0;
#X connect 21 0 17 0;
#X connect 21 1 0 0;
#X connect 21 2 23 0;
#X connect 22 0 20 0;
#X connect 23 0 22 0;
#X connect 24 0 4 0;
#X connect 24 1 5 0;
#X connect 25 0 15 0;
#X connect 25 1 22 0;
