#N canvas 840 356 450 300 12;
#X obj 154 51 inlet;
#X obj 166 161 sel \$1;
#X obj 289 68 inlet;
#X obj 176 204 ekext/cup;
#X obj 136 233 f;
#X obj 145 270 outlet;
#X msg 229 159 1;
#X obj 162 115 zexy/drip;
#X obj 145 87 t b a b;
#X connect 0 0 8 0;
#X connect 1 0 3 0;
#X connect 2 0 1 1;
#X connect 3 0 4 1;
#X connect 4 0 5 0;
#X connect 6 0 3 0;
#X connect 7 0 1 0;
#X connect 8 0 4 0;
#X connect 8 1 7 0;
#X connect 8 2 6 0;
