#N canvas 189 22 997 636 10;
#X msg 474 -22 bang;
#X obj 321 6 tgl 15 0 empty empty empty 17 7 0 10 -262144 -1 -1 0 1
;
#X text 347 0 backwards;
#X text 336 95 outlets: signal \, phase \, window size;
#X obj 297 131 hanning~;
#X msg 391 -75 set array1;
#X text 487 -56 message rate taabread4~ offset;
#X floatatom 446 -52 5 0 0 0 - - -;
#X text 519 -21 looper phase (bang to start);
#X obj 34 -81 soundfiler;
#N canvas 0 22 450 278 (subpatch) 0;
#X array mysound 22015 float 2;
#X coords 0 1 22015 -1 200 140 1 0 0;
#X restore -240 -36 graph;
#X msg 34 -102 read -resize \$1 mysound;
#X obj 34 -128 openpanel;
#X obj 36 -149 bng 15 250 50 0 empty empty empty 17 7 0 10 -262144
-1 -1;
#X floatatom 33 -53 8 0 0 0 - - -;
#X msg -237 115 \; mysound normalize;
#X text 457 -78 for set messagges;
#X obj 156 42 smoother~;
#X obj 259 163 *~;
#X obj 203 -95 smoother~;
#X obj 276 -36 smoother~;
#X text 251 -52 signal rate offset;
#X obj 250 216 outputc~;
#X obj 249 78 loopsample~ mysound;
#X text 383 76 1st argument initializes array;
#X obj 35 -23 / 44.1;
#X text 33 24 transposition factor;
#X text 181 -116 how long to play for (window size);
#X text 178 -163 sample looper that only changes window size at phase
boundaries (loop~ inside);
#X floatatom 161 -22 5 0 0 0 - - -;
#X obj 160 13 transpose;
#X text -56 235 could easily be extended to granular synthesis;
#X obj 316 40 sig~;
#X obj 157 -51 loadbang;
#X connect 0 0 23 6;
#X connect 1 0 32 0;
#X connect 4 0 18 1;
#X connect 5 0 23 4;
#X connect 7 0 23 5;
#X connect 9 0 14 0;
#X connect 11 0 9 0;
#X connect 12 0 11 0;
#X connect 13 0 12 0;
#X connect 14 0 25 0;
#X connect 17 0 23 0;
#X connect 18 0 22 0;
#X connect 18 0 22 1;
#X connect 19 0 23 1;
#X connect 20 0 23 2;
#X connect 23 0 18 0;
#X connect 23 1 4 0;
#X connect 25 0 19 0;
#X connect 29 0 30 0;
#X connect 30 0 17 0;
#X connect 32 0 23 3;
#X connect 33 0 29 0;
