#N canvas 461 215 696 538 10;
#X obj 229 82 loadbang;
#X obj 137 419 div;
#X obj 139 89 inlet;
#X obj 135 334 +;
#X obj 135 483 outlet;
#X obj 189 83 inlet;
#X obj 80 68 inlet;
#X obj 198 182 max 1;
#X obj 154 306 *;
#X obj 201 207 - 1;
#X obj 140 234 sel 1;
#X obj 190 325 del 0;
#X msg 194 348 0;
#X obj 82 101 t f f;
#X obj 232 324 sel 1;
#X obj 233 304 <=;
#X obj 189 306 sel;
#X obj 203 232 t f f;
#X obj 139 210 >=;
#X obj 135 462 change;
#X obj 207 159 if 0 2;
#X obj 153 276 ekext/cup;
#X obj 151 179 i \$2;
#X obj 208 132 i \$1;
#X obj 122 184 + 1;
#X obj 295 85 inlet;
#X obj 244 227 clip 0;
#X obj 236 192 i \$3;
#X obj 229 102 t b b;
#X msg 245 252 setbang \$1;
#X connect 0 0 22 0;
#X connect 0 0 28 0;
#X connect 1 0 19 0;
#X connect 2 0 23 0;
#X connect 3 0 1 0;
#X connect 5 0 22 0;
#X connect 6 0 13 0;
#X connect 7 0 9 0;
#X connect 7 0 1 1;
#X connect 8 0 3 1;
#X connect 9 0 17 0;
#X connect 9 0 26 2;
#X connect 10 0 21 0;
#X connect 11 0 12 0;
#X connect 12 0 21 0;
#X connect 13 0 24 0;
#X connect 13 1 3 0;
#X connect 14 0 12 0;
#X connect 15 0 14 0;
#X connect 16 0 11 0;
#X connect 17 0 15 0;
#X connect 17 1 16 1;
#X connect 18 0 10 0;
#X connect 19 0 4 0;
#X connect 20 0 7 0;
#X connect 21 0 8 0;
#X connect 21 0 15 1;
#X connect 21 0 16 0;
#X connect 22 0 8 1;
#X connect 22 0 18 1;
#X connect 23 0 20 0;
#X connect 24 0 18 0;
#X connect 25 0 26 0;
#X connect 26 0 29 0;
#X connect 27 0 26 0;
#X connect 28 0 27 0;
#X connect 28 1 23 0;
#X connect 29 0 21 0;
