#N canvas 109 23 1015 782 10;
#X obj 56 266 inlet;
#X obj 61 384 sel 0;
#X msg 62 435 0;
#X obj 62 412 t b b;
#X obj 90 433 f;
#X obj 132 467 *;
#X obj 90 452 +;
#X obj 90 477 %;
#X obj 64 523 +;
#X obj 612 84 inlet;
#X obj 478 176 inlet;
#X obj 467 383 f;
#X obj 469 405 *;
#X obj 64 568 div;
#X obj 471 509 -;
#X obj 29 477 zexy/nop;
#X obj 471 531 mod;
#X obj 498 509 *;
#X obj 126 427 t b f;
#X obj 469 486 +;
#X obj 508 445 %;
#X obj 497 423 f;
#X obj 502 393 b;
#X obj 167 571 outlet;
#X obj 89 502 zexy/nop;
#X obj 64 546 %;
#X obj 478 199 route mode;
#X obj 569 378 f;
#X msg 141 236 0, f 2;
#X obj 533 445 - 1;
#X obj 508 466 min;
#X obj 569 403 /;
#X obj 569 425 *;
#X obj 570 471 *;
#X obj 639 378 f;
#X obj 639 401 /;
#X obj 639 423 *;
#X obj 638 493 *;
#X obj 638 450 + 1;
#X obj 638 472 %;
#X obj 63 590 outlet;
#X obj 472 560 zexy/nop;
#X obj 781 442 zexy/nop;
#X obj 725 380 f;
#X obj 725 403 /;
#X obj 725 426 *;
#X obj 724 500 *;
#X obj 569 449 int;
#X obj 724 478 %;
#X obj 724 449 + 0.5;
#X obj 613 323 zexy/nop;
#X obj 691 307 zexy/nop;
#X obj 229 327 zexy/nop;
#X obj 293 150 inlet;
#X obj 472 276 zexy/demultiplex 0 1 2 3 4;
#X obj 456 234 max 1;
#X obj 450 254 t f f;
#X obj 566 352 t b f;
#X obj 474 350 t b f f;
#X obj 637 352 t b f;
#X obj 723 355 t b f;
#X obj 137 266 t b f;
#X msg 129 302 1;
#X obj 48 333 zexy/demultiplex;
#X msg 180 298 0;
#N canvas 257 27 777 819 stepguts 0;
#X obj 29 33 inlet;
#X obj 189 60 inlet oldval;
#X obj 317 61 inlet old0;
#X obj 186 285 f;
#X obj 185 306 -;
#X obj 185 327 mod;
#X obj 420 74 inlet oldlim;
#X obj 185 350 >;
#X msg 44 367 0;
#X obj 44 456 outlet next0;
#X obj 43 164 +;
#X obj 41 94 t b f;
#X obj 29 65 route imode omode;
#X obj 62 115 moses 2;
#X obj 49 206 t;
#X obj 559 66 inlet mul;
#X obj 27 130 % 2;
#X obj 143 288 f;
#X obj 146 312 max 1;
#X obj 149 336 *;
#X obj 114 335 f;
#X obj 180 540 list append;
#X obj 178 568 route 0 1;
#X obj 90 174 t b f;
#X obj 80 210 f;
#X obj 80 238 sel 0;
#X obj 122 373 >;
#X obj 300 528 |;
#X obj 123 425 pack;
#X text 212 346 input > new;
#X text 53 308 output > new;
#X obj 123 448 route 0 1 2 3;
#X msg 108 138 4;
#X obj 123 404 +;
#X obj 184 378 * 2;
#X obj 62 138 * 2;
#X obj 222 409 f;
#X obj 123 484 f;
#X obj 221 282 f;
#X obj 107 262 t b b b f b;
#X obj 237 449 zexy/demultiplex;
#X connect 0 0 12 0;
#X connect 1 0 3 1;
#X connect 1 0 20 1;
#X connect 2 0 38 1;
#X connect 3 0 4 0;
#X connect 4 0 5 0;
#X connect 5 0 7 0;
#X connect 5 0 36 1;
#X connect 6 0 5 1;
#X connect 7 0 34 0;
#X connect 8 0 9 0;
#X connect 10 0 24 1;
#X connect 11 0 10 0;
#X connect 11 1 13 0;
#X connect 12 0 16 0;
#X connect 12 1 11 0;
#X connect 12 2 23 0;
#X connect 13 0 35 0;
#X connect 13 1 32 0;
#X connect 15 0 19 1;
#X connect 16 0 10 0;
#X connect 17 0 18 0;
#X connect 18 0 19 0;
#X connect 19 0 7 1;
#X connect 19 0 26 1;
#X connect 20 0 26 0;
#X connect 21 0 22 0;
#X connect 23 0 24 0;
#X connect 23 1 17 1;
#X connect 24 0 25 0;
#X connect 25 0 8 0;
#X connect 25 1 39 0;
#X connect 26 0 33 0;
#X connect 28 0 31 0;
#X connect 31 0 37 0;
#X connect 32 0 24 1;
#X connect 33 0 28 0;
#X connect 34 0 33 1;
#X connect 35 0 10 1;
#X connect 36 0 40 0;
#X connect 38 0 4 1;
#X connect 38 0 37 1;
#X connect 39 0 20 0;
#X connect 39 1 3 0;
#X connect 39 2 17 0;
#X connect 39 3 28 1;
#X connect 39 4 38 0;
#X restore 314 589 pd stepguts;
#X connect 0 0 63 0;
#X connect 1 0 3 0;
#X connect 1 1 15 0;
#X connect 2 0 15 0;
#X connect 3 0 2 0;
#X connect 3 1 4 0;
#X connect 4 0 6 0;
#X connect 5 0 7 1;
#X connect 5 0 25 1;
#X connect 5 0 51 0;
#X connect 5 0 65 3;
#X connect 6 0 7 0;
#X connect 7 0 24 0;
#X connect 8 0 21 1;
#X connect 8 0 25 0;
#X connect 9 0 61 0;
#X connect 10 0 26 0;
#X connect 11 0 12 0;
#X connect 12 0 19 0;
#X connect 13 0 11 1;
#X connect 13 0 40 0;
#X connect 14 0 16 0;
#X connect 15 0 8 0;
#X connect 15 0 14 1;
#X connect 16 0 41 0;
#X connect 17 0 16 1;
#X connect 18 0 5 0;
#X connect 18 1 5 1;
#X connect 18 1 13 1;
#X connect 18 1 20 1;
#X connect 19 0 14 0;
#X connect 19 0 21 1;
#X connect 20 0 30 0;
#X connect 21 0 20 0;
#X connect 22 0 21 0;
#X connect 24 0 8 1;
#X connect 24 0 4 1;
#X connect 24 0 23 0;
#X connect 24 0 50 0;
#X connect 24 0 65 2;
#X connect 25 0 13 0;
#X connect 25 0 65 1;
#X connect 26 0 54 1;
#X connect 26 1 55 0;
#X connect 27 0 31 0;
#X connect 28 0 61 0;
#X connect 29 0 30 1;
#X connect 30 0 19 1;
#X connect 31 0 32 0;
#X connect 32 0 47 0;
#X connect 33 0 41 0;
#X connect 34 0 35 0;
#X connect 35 0 36 0;
#X connect 36 0 38 0;
#X connect 37 0 41 0;
#X connect 38 0 39 0;
#X connect 39 0 37 0;
#X connect 41 0 24 0;
#X connect 42 0 33 1;
#X connect 42 0 37 1;
#X connect 42 0 17 1;
#X connect 42 0 46 1;
#X connect 43 0 44 0;
#X connect 44 0 45 0;
#X connect 45 0 49 0;
#X connect 46 0 41 0;
#X connect 47 0 33 0;
#X connect 48 0 46 0;
#X connect 49 0 48 0;
#X connect 50 0 34 1;
#X connect 50 0 43 1;
#X connect 50 0 27 1;
#X connect 51 0 44 1;
#X connect 51 0 35 1;
#X connect 51 0 31 1;
#X connect 52 0 6 1;
#X connect 52 0 5 0;
#X connect 52 0 42 0;
#X connect 53 0 65 0;
#X connect 54 0 58 0;
#X connect 54 1 57 0;
#X connect 54 2 59 0;
#X connect 54 3 60 0;
#X connect 54 4 28 0;
#X connect 55 0 56 0;
#X connect 56 0 18 0;
#X connect 56 1 54 0;
#X connect 57 0 27 0;
#X connect 57 1 32 1;
#X connect 58 0 11 0;
#X connect 58 1 12 1;
#X connect 58 1 17 0;
#X connect 58 1 22 0;
#X connect 58 2 29 0;
#X connect 59 0 34 0;
#X connect 59 1 36 1;
#X connect 59 1 39 1;
#X connect 60 0 43 0;
#X connect 60 1 45 1;
#X connect 60 1 48 1;
#X connect 61 0 62 0;
#X connect 61 1 7 0;
#X connect 62 0 63 1;
#X connect 63 0 1 0;
#X connect 63 1 64 0;
#X connect 63 1 15 0;
#X connect 64 0 63 1;
