#N canvas 461 215 696 538 10;
#X obj 245 39 loadbang;
#X obj 135 416 div;
#X obj 177 52 inlet;
#X obj 135 393 +;
#X obj 135 334 +;
#X obj 135 483 outlet;
#X obj 431 54 inlet;
#X obj 80 68 inlet;
#X obj 257 140 max 1;
#X obj 135 354 - 1;
#X obj 166 302 *;
#X obj 279 197 - 1;
#X obj 140 189 sel 1;
#X obj 226 343 del 0;
#X msg 228 381 0;
#X obj 76 139 t f f;
#X obj 277 335 sel 1;
#X obj 277 304 <=;
#X obj 218 303 sel;
#X obj 140 217 t b b;
#X obj 279 222 t f f;
#X obj 267 90 i \$1;
#X obj 177 349 i;
#X obj 250 173 t f f;
#X obj 187 132 i;
#X obj 139 165 >=;
#X obj 135 462 change;
#X obj 266 117 if 0 2;
#X obj 246 60 t b b;
#X obj 184 104 i \$2;
#X obj 78 109 + 1;
#X obj 138 441 - 1;
#X obj 197 258 ekext/cup;
#X connect 0 0 28 0;
#X connect 1 0 31 0;
#X connect 2 0 21 0;
#X connect 3 0 1 0;
#X connect 4 0 9 0;
#X connect 6 0 24 0;
#X connect 7 0 30 0;
#X connect 8 0 23 0;
#X connect 9 0 3 0;
#X connect 10 0 4 1;
#X connect 11 0 20 0;
#X connect 12 0 19 0;
#X connect 13 0 14 0;
#X connect 14 0 32 0;
#X connect 15 0 25 0;
#X connect 15 1 4 0;
#X connect 16 0 14 0;
#X connect 17 0 16 0;
#X connect 18 0 13 0;
#X connect 19 0 22 0;
#X connect 19 1 32 0;
#X connect 20 0 17 0;
#X connect 20 1 18 1;
#X connect 21 0 27 0;
#X connect 22 0 3 1;
#X connect 22 0 1 1;
#X connect 23 0 22 1;
#X connect 23 1 11 0;
#X connect 24 0 10 1;
#X connect 24 0 25 1;
#X connect 25 0 12 0;
#X connect 26 0 5 0;
#X connect 27 0 8 0;
#X connect 28 0 19 0;
#X connect 28 1 21 0;
#X connect 28 1 29 0;
#X connect 29 0 24 0;
#X connect 30 0 15 0;
#X connect 31 0 26 0;
#X connect 32 0 10 0;
#X connect 32 0 17 1;
#X connect 32 0 18 0;
