#N canvas 158 158 961 558 10;
#X floatatom 77 193 5 0 0 0 - - -;
#X obj 50 109 metro 500;
#X floatatom 70 247 5 0 0 0 - - -;
#X floatatom 175 176 5 0 0 0 - - -;
#X msg 212 62 11;
#X floatatom 212 87 5 0 0 0 - - -;
#X obj 50 68 t b b;
#X text 193 219 works by multiplying number of steps and subdivision
;
#X text 65 8 built to sync up at 0 \, based on the last step (11 here)
;
#X obj 50 89 tgl 15 0 empty empty empty 17 7 0 10 -262144 -1 -1 1 1
;
#X msg 352 129 set 0;
#X obj 58 140 cyclecount 11;
#X msg 159 142 mode \$1;
#X obj 163 101 hradio 15 1 0 2 empty empty empty 0 -8 0 10 -262144
-1 -1 1;
#X msg 347 81 mode \$1;
#X obj 351 52 hradio 15 1 0 3 empty empty empty 0 -8 0 10 -262144 -1
-1 2;
#X obj 421 169 hradio 15 1 0 2 empty empty empty 0 -8 0 10 -262144
-1 -1 0;
#X text 27 292 the "set message to the 2nd inlet sets the current 0
for the "pass" (0 for 1st pass \, 1 for 2nd \, etc.) "set step 14"
will set the internal 0 to step 14 in the overall sequence. (the 0
is the value that is added to the counter to get the output.) there
are counter size * multiple total steps \, and the steps are "div multiple"d
before output;
#X text 189 422 behavior when changing multiple also depends on "favor":
if 0 \, output will stay the same and on the right mutlitple (e.g.
2nd time outputting 5 will go to 3rd time at the next number) \, Otherwise
\, the 0 will be "mod"d.;
#X obj 76 218 macrodivide 11 2;
#X text 474 34 0 to 2nd inlet mode is for what to favor when the output
is > the new value: either keep it the same (0) or jump to the current
0 rounded down to the nearest multiple of the step size (1) or round
to nearest multiple of step size(2). The last 2 options will let the
input and output always match up at the end;
#X obj 50 40 loadbang;
#X text 462 166 last inlet is mode for output: 0 will mod output and
1 will 0 it when the new length is < the previous output;
#X text 472 295 arguments: step size \, multiple \, input mode \, favor
output(same as "mode" to 2nd inlet) \, and output mode;
#X connect 0 0 19 0;
#X connect 1 0 11 0;
#X connect 3 0 19 2;
#X connect 4 0 5 0;
#X connect 5 0 11 1;
#X connect 5 0 19 1;
#X connect 6 0 9 0;
#X connect 6 1 4 0;
#X connect 9 0 1 0;
#X connect 10 0 19 1;
#X connect 11 0 0 0;
#X connect 12 0 19 0;
#X connect 13 0 11 3;
#X connect 13 0 12 0;
#X connect 14 0 19 1;
#X connect 15 0 14 0;
#X connect 16 0 19 3;
#X connect 19 0 2 0;
#X connect 21 0 6 0;
