#N canvas 417 168 522 352 10;
#X obj 134 8 inlet;
#X obj 132 316 outlet;
#X obj 136 168 list prepend;
#X obj 290 32 loadbang;
#X obj 279 71 rootinfo;
#X obj 132 276 zexy/list2symbol /;
#X connect 0 0 2 0;
#X connect 2 0 5 0;
#X connect 3 0 4 0;
#X connect 4 0 2 1;
#X connect 5 0 1 0;
