#N canvas 396 337 522 352 10;
#X obj 125 8 inlet;
#X obj 119 45 symbol;
#X obj 178 118 sel symbol;
#X msg 235 86 symbol;
#X obj 228 6 loadbang;
#X obj 268 155 rootinfo;
#X obj 86 209 list prepend;
#X obj 124 65 t s s;
#X obj 227 192 symbol;
#X obj 222 150 bang;
#X obj 185 274 outlet;
#X obj 85 177 spigot;
#X msg 128 141 1;
#X msg 165 148 0;
#X obj 89 93 iemlib/splitfilename /;
#X obj 93 242 iemlib/mergefilename /;
#X obj 125 27 zexy/list2symbol;
#X connect 0 0 16 0;
#X connect 1 0 7 0;
#X connect 2 0 12 0;
#X connect 2 1 9 0;
#X connect 2 1 13 0;
#X connect 3 0 2 1;
#X connect 4 0 3 0;
#X connect 4 0 5 0;
#X connect 5 0 6 1;
#X connect 6 0 15 0;
#X connect 7 0 14 0;
#X connect 7 1 8 1;
#X connect 8 0 10 0;
#X connect 9 0 8 0;
#X connect 11 0 6 0;
#X connect 12 0 11 1;
#X connect 13 0 11 1;
#X connect 14 0 11 0;
#X connect 14 1 2 0;
#X connect 15 0 10 0;
#X connect 16 0 1 0;
