#N canvas 417 168 519 415 10;
#X declare -lib zexy;
#X obj 111 30 inlet;
#X obj 111 376 outlet;
#X obj 111 320 list prepend;
#X obj 268 16 loadbang;
#X obj 249 100 select windows;
#X obj 138 132 list split 1;
#X msg 182 255 1;
#X msg 261 258 0;
#X obj 361 262 declare -lib zexy;
#X obj 249 76 operating_system;
#X obj 111 288 demultiplex;
#X obj 111 347 list2symbol /;
#X obj 111 51 list2symbol;
#X obj 313 142 f \$1;
#X obj 313 163 sel 0;
#X obj 363 157 inlet;
#X obj 340 186 + 1;
#X obj 313 209 ./rootinfo;
#X obj 138 108 file split;
#X obj 111 80 t a s;
#X obj 138 164 sel /;
#X obj 228 219 sel C:;
#X obj 165 190 demultiplex;
#X msg 249 123 1;
#X msg 286 126 0;
#X connect 0 0 12 0;
#X connect 2 0 11 0;
#X connect 3 0 9 0;
#X connect 3 0 13 0;
#X connect 4 0 23 0;
#X connect 4 1 24 0;
#X connect 5 0 20 0;
#X connect 6 0 10 1;
#X connect 7 0 10 1;
#X connect 9 0 4 0;
#X connect 10 0 2 0;
#X connect 10 1 1 0;
#X connect 11 0 1 0;
#X connect 12 0 19 0;
#X connect 13 0 14 0;
#X connect 14 0 17 0;
#X connect 14 1 16 0;
#X connect 15 0 16 0;
#X connect 16 0 17 0;
#X connect 17 0 2 1;
#X connect 18 0 5 0;
#X connect 19 0 10 0;
#X connect 19 1 18 0;
#X connect 20 0 6 0;
#X connect 20 1 22 0;
#X connect 21 0 6 0;
#X connect 21 1 7 0;
#X connect 22 0 7 0;
#X connect 22 1 21 0;
#X connect 23 0 22 1;
#X connect 24 0 22 1;
