#N canvas 417 168 522 352 10;
#X obj 110 -2 inlet;
#X obj 132 316 outlet;
#X obj 114 220 list prepend;
#X obj 290 32 loadbang;
#X obj 279 71 rootinfo;
#X obj 132 276 zexy/list2symbol /;
#X obj 143 63 list fromsymbol;
#X obj 345 66 zexy/operating_system;
#X obj 337 96 select windows;
#X obj 140 89 list split 1;
#X msg 342 127 1;
#X obj 241 114 spigot;
#X obj 189 137 spigot;
#X msg 110 161 1;
#X obj 90 189 zexy/demultiplex;
#X obj 109 123 sel 47 126;
#X obj 111 40 t a a b;
#X msg 152 153 0;
#X obj 191 159 sel 37;
#X obj 254 138 unpack;
#X obj 306 171 == 47;
#X obj 269 194 &&;
#X obj 258 163 == 58;
#X obj 110 19 zexy/list2symbol;
#X connect 0 0 23 0;
#X connect 2 0 5 0;
#X connect 3 0 4 0;
#X connect 3 0 7 0;
#X connect 4 0 2 1;
#X connect 5 0 1 0;
#X connect 6 0 9 0;
#X connect 7 0 8 0;
#X connect 8 0 10 0;
#X connect 9 0 12 0;
#X connect 9 0 15 0;
#X connect 9 1 11 0;
#X connect 10 0 11 1;
#X connect 10 0 12 1;
#X connect 11 0 19 0;
#X connect 12 0 18 0;
#X connect 13 0 14 1;
#X connect 14 0 2 0;
#X connect 14 1 1 0;
#X connect 15 0 13 0;
#X connect 15 1 13 0;
#X connect 16 0 14 0;
#X connect 16 1 6 0;
#X connect 16 2 17 0;
#X connect 17 0 21 1;
#X connect 17 0 14 1;
#X connect 18 0 13 0;
#X connect 19 0 22 0;
#X connect 19 1 20 0;
#X connect 20 0 21 1;
#X connect 21 0 14 0;
#X connect 22 0 21 0;
#X connect 23 0 16 0;
