#N canvas 417 168 519 415 10;
#X declare -lib zexy;
#X obj 110 38 inlet;
#X obj 132 386 outlet;
#X obj 114 320 list prepend;
#X obj 268 16 loadbang;
#X obj 143 103 list fromsymbol;
#X obj 251 105 select windows;
#X obj 140 129 list split 1;
#X msg 252 128 1;
#X obj 40 183 spigot;
#X obj 184 215 spigot;
#X msg 153 259 1;
#X obj 153 192 sel 47 126;
#X obj 111 80 t a a b;
#X msg 121 230 0;
#X obj 184 238 sel 37;
#X obj 40 206 unpack;
#X obj 78 231 == 47;
#X obj 63 262 &&;
#X obj 40 231 == 58;
#X obj 361 262 declare -lib zexy;
#X obj 249 76 operating_system;
#X obj 90 289 demultiplex;
#X obj 132 346 list2symbol /;
#X obj 110 59 list2symbol;
#X obj 244 240 f \$1;
#X obj 242 258 sel 0;
#X obj 281 219 inlet;
#X obj 267 281 + 1;
#X obj 260 300 ./rootinfo;
#X connect 0 0 23 0;
#X connect 2 0 22 0;
#X connect 3 0 20 0;
#X connect 3 0 24 0;
#X connect 4 0 6 0;
#X connect 5 0 7 0;
#X connect 6 0 9 0;
#X connect 6 0 11 0;
#X connect 6 1 8 0;
#X connect 7 0 8 1;
#X connect 7 0 9 1;
#X connect 8 0 15 0;
#X connect 9 0 14 0;
#X connect 10 0 21 1;
#X connect 11 0 10 0;
#X connect 11 1 10 0;
#X connect 12 0 21 0;
#X connect 12 1 4 0;
#X connect 12 2 13 0;
#X connect 13 0 17 1;
#X connect 13 0 21 1;
#X connect 14 0 10 0;
#X connect 15 0 18 0;
#X connect 15 1 16 0;
#X connect 16 0 17 1;
#X connect 17 0 21 1;
#X connect 18 0 17 0;
#X connect 20 0 5 0;
#X connect 21 0 2 0;
#X connect 21 1 1 0;
#X connect 22 0 1 0;
#X connect 23 0 12 0;
#X connect 24 0 25 0;
#X connect 25 0 28 0;
#X connect 25 1 27 0;
#X connect 26 0 27 0;
#X connect 27 0 28 0;
#X connect 28 0 2 1;
