#N canvas 749 101 574 350 10;
#X obj 197 10 inlet;
#X obj 254 80 list split 1;
#X obj 260 143 list;
#X obj 254 7 inlet;
#X obj 114 14 inlet;
#X obj 124 95 spigot;
#X msg 125 122 1;
#X obj 168 278 outlet;
#X obj 213 216 outlet;
#X obj 194 148 sel 1;
#X obj 196 82 list;
#X obj 253 29 t b f;
#X obj 106 188 route symbol;
#X obj 78 242 sel done;
#X obj 95 45 route once;
#X msg 120 70 0;
#X obj 322 32 f \$1;
#X obj 323 3 loadbang;
#X obj 256 103 *;
#X obj 323 55 max 1;
#X obj 104 147 ./streamread;
#X obj 178 108 ./stream-map;
#X connect 0 0 10 1;
#X connect 0 0 21 0;
#X connect 1 0 18 0;
#X connect 1 1 2 1;
#X connect 1 2 2 0;
#X connect 2 0 21 1;
#X connect 3 0 11 0;
#X connect 4 0 14 0;
#X connect 5 0 6 0;
#X connect 6 0 20 0;
#X connect 9 0 8 0;
#X connect 10 0 21 0;
#X connect 11 0 10 0;
#X connect 11 1 19 0;
#X connect 12 0 13 0;
#X connect 12 1 7 0;
#X connect 13 1 7 0;
#X connect 14 0 15 0;
#X connect 14 0 6 0;
#X connect 14 0 8 0;
#X connect 14 1 5 1;
#X connect 14 1 9 0;
#X connect 14 1 20 0;
#X connect 15 0 5 1;
#X connect 16 0 19 0;
#X connect 17 0 16 0;
#X connect 18 0 2 0;
#X connect 19 0 18 1;
#X connect 20 0 12 0;
#X connect 20 1 5 0;
#X connect 20 1 8 0;
#X connect 21 0 20 1;
#X connect 21 1 1 0;
