#N canvas 376 154 603 364 10;
#X obj 153 239 bng 15 250 50 0 empty empty empty 17 7 0 10 -262144
-1 -1;
#X text 178 237 right outlet gives downbeats;
#X text 49 56 the "done" message delays without putting out anything
;
#X obj 80 186 tgl 15 0 empty empty empty 17 7 0 10 -262144 -1 -1 0
1;
#X obj 78 263 print messages;
#X text 70 167 1 on \, 0 off;
#X msg 12 139 once;
#X text 5 122 just 1 cycle (sets repeat off);
#X msg 184 147 / 1 this-is / 1.5 a-message / 2.5 this is another /
4 done;
#X obj 193 290 timer;
#X obj 200 263 t b b;
#X obj 208 314 print timer;
#X obj 87 213 messtro 500 msec;
#X text 36 23 uses 2 arguments or "tempo" message to set the tempo
;
#X connect 3 0 12 0;
#X connect 6 0 12 0;
#X connect 8 0 12 1;
#X connect 9 0 11 0;
#X connect 10 0 9 0;
#X connect 10 1 9 1;
#X connect 12 0 4 0;
#X connect 12 1 0 0;
#X connect 12 1 10 0;
