#N canvas 260 65 770 462 10;
#X obj 105 157 vu 15 120 empty empty -1 -8 0 10 -8245 -1 1 0;
#X obj 118 98 rmstodb;
#X obj 115 118 - 100;
#X obj 186 28 inlet~;
#X obj 269 41 inlet~;
#X obj 278 120 rmstodb;
#X obj 200 122 - 100;
#X obj 154 157 vu 15 120 empty empty -1 -8 0 10 -8245 -1 1 0;
#X obj 472 31 loadbang;
#X obj 429 74 if 0 7;
#X obj 243 152 highest~;
#X obj 430 51 f \$1;
#X obj 475 98 f \$2;
#X obj 398 170 highest~;
#X obj 263 70 sigenv~;
#X obj 130 56 sigenv~;
#X obj 280 96 iemlib/unsig~ 20;
#X obj 125 75 iemlib/unsig~ 20;
#X obj 568 291 block~ 512;
#X obj 306 263 del;
#X obj 236 186 passif < 1;
#X obj 225 271 rmstodb;
#X obj 222 291 - 100;
#X obj 311 237 b;
#X msg 285 212 0;
#X msg 327 211 1;
#X obj 327 184 zexy/nop;
#X obj 467 282 del;
#X obj 397 205 passif < 1;
#X obj 386 290 rmstodb;
#X obj 383 310 - 100;
#X obj 472 256 b;
#X msg 446 231 0;
#X msg 488 230 1;
#X obj 488 203 zexy/nop;
#X obj 228 221 spigot 1;
#X obj 389 240 spigot 1;
#X obj 470 141 if 0 1500;
#X connect 1 0 2 0;
#X connect 2 0 0 0;
#X connect 3 0 10 0;
#X connect 3 0 15 0;
#X connect 4 0 13 0;
#X connect 4 0 14 0;
#X connect 5 0 6 0;
#X connect 6 0 7 0;
#X connect 8 0 11 0;
#X connect 8 0 12 0;
#X connect 9 0 14 1;
#X connect 9 0 15 1;
#X connect 10 0 20 0;
#X connect 11 0 9 0;
#X connect 12 0 37 0;
#X connect 13 0 28 0;
#X connect 14 0 16 0;
#X connect 15 0 17 0;
#X connect 16 0 5 0;
#X connect 17 0 1 0;
#X connect 19 0 25 0;
#X connect 20 0 35 0;
#X connect 20 1 21 0;
#X connect 20 1 23 0;
#X connect 20 1 24 0;
#X connect 20 1 26 0;
#X connect 21 0 22 0;
#X connect 22 0 0 1;
#X connect 23 0 19 0;
#X connect 24 0 35 1;
#X connect 25 0 20 1;
#X connect 25 0 35 1;
#X connect 26 0 20 1;
#X connect 27 0 33 0;
#X connect 28 0 36 0;
#X connect 28 1 29 0;
#X connect 28 1 31 0;
#X connect 28 1 32 0;
#X connect 28 1 34 0;
#X connect 29 0 30 0;
#X connect 30 0 7 1;
#X connect 31 0 27 0;
#X connect 32 0 36 1;
#X connect 33 0 28 1;
#X connect 33 0 36 1;
#X connect 34 0 28 1;
#X connect 35 0 21 0;
#X connect 36 0 29 0;
#X connect 37 0 19 1;
#X connect 37 0 27 1;
#X coords 0 -1 1 1 98 135 2 100 150;
