#N canvas 319 366 737 383 10;
#X declare -lib iem_tab;
#X declare -lib iem_tab;
#X obj 105 107 vu 15 120 empty empty -1 -8 0 10 -8245 -1 1 0;
#X obj 108 53 rmstodb;
#X obj 105 73 - 100;
#X obj 176 -17 inlet~;
#X obj 259 -4 inlet~;
#X obj 268 75 rmstodb;
#X obj 190 77 - 100;
#X obj 154 107 vu 15 120 empty empty -1 -8 0 10 -8245 -1 1 0;
#X obj 363 -13 loadbang;
#X obj 115 30 unsig~ 20;
#X obj 270 51 unsig~ 20;
#X obj 419 29 if 0 7;
#X obj -3 41 rmstodb;
#X obj 3 71 - 100;
#X obj 383 57 highest~;
#X obj 374 80 rmstodb;
#X obj 380 110 - 100;
#X obj -5 14 highest~;
#X obj 253 25 sigenv~ 7;
#X obj 120 11 sigenv~ 7;
#X obj 420 6 f \$1;
#X connect 1 0 2 0;
#X connect 2 0 0 0;
#X connect 3 0 17 0;
#X connect 3 0 19 0;
#X connect 4 0 14 0;
#X connect 4 0 18 0;
#X connect 5 0 6 0;
#X connect 6 0 7 0;
#X connect 8 0 20 0;
#X connect 9 0 1 0;
#X connect 10 0 5 0;
#X connect 11 0 18 1;
#X connect 11 0 19 1;
#X connect 12 0 13 0;
#X connect 13 0 0 1;
#X connect 14 0 15 0;
#X connect 15 0 16 0;
#X connect 16 0 7 1;
#X connect 17 0 12 0;
#X connect 18 0 10 0;
#X connect 19 0 9 0;
#X connect 20 0 11 0;
#X coords 0 -1 1 1 98 135 2 100 100;
