#N canvas 237 278 770 462 10;
#X obj 118 98 rmstodb;
#X obj 115 118 - 100;
#X obj 186 28 inlet~;
#X obj 269 41 inlet~;
#X obj 278 120 rmstodb;
#X obj 200 122 - 100;
#X obj 472 31 loadbang;
#X obj 430 51 f \$1;
#X obj 475 98 f \$2;
#X obj 280 96 iemlib/unsig~ 20;
#X obj 125 75 iemlib/unsig~ 20;
#X obj 568 291 block~ 512;
#X obj 306 263 del;
#X obj 225 271 rmstodb;
#X obj 222 291 - 100;
#X obj 311 237 b;
#X msg 285 212 0;
#X msg 327 211 1;
#X obj 467 282 del;
#X obj 386 290 rmstodb;
#X obj 383 310 - 100;
#X obj 472 256 b;
#X msg 446 231 0;
#X msg 488 230 1;
#X obj 228 221 spigot 1;
#X obj 389 240 spigot 1;
#X obj 397 205 moses 1;
#X obj 236 186 moses 1;
#X obj 101 153 cnv 15 96 130 empty empty empty 20 12 0 14 #fc8000 #404040 0;
#X obj 104 159 vu 15 120 empty empty -1 -8 0 10 #0800d0 #000000 1 0;
#X obj 153 159 vu 15 120 empty empty -1 -8 0 10 #0800d0 #000000 1 0;
#X obj 263 70 ./sigenv~;
#X obj 130 56 ./sigenv~;
#X obj 243 152 ./highest~;
#X obj 398 170 ./highest~;
#X obj 470 141 ./if 0 1500;
#X obj 429 74 ./if 0 7;
#X obj 488 203 t f;
#X obj 327 184 t f;
#X connect 0 0 1 0;
#X connect 1 0 29 0;
#X connect 2 0 32 0;
#X connect 2 0 33 0;
#X connect 3 0 31 0;
#X connect 3 0 34 0;
#X connect 4 0 5 0;
#X connect 5 0 30 0;
#X connect 6 0 7 0;
#X connect 6 0 8 0;
#X connect 7 0 36 0;
#X connect 8 0 35 0;
#X connect 9 0 4 0;
#X connect 10 0 0 0;
#X connect 12 0 17 0;
#X connect 13 0 14 0;
#X connect 14 0 29 1;
#X connect 15 0 12 0;
#X connect 16 0 24 1;
#X connect 17 0 24 1;
#X connect 17 0 27 1;
#X connect 18 0 23 0;
#X connect 19 0 20 0;
#X connect 20 0 30 1;
#X connect 21 0 18 0;
#X connect 22 0 25 1;
#X connect 23 0 25 1;
#X connect 23 0 26 1;
#X connect 24 0 13 0;
#X connect 25 0 19 0;
#X connect 26 0 25 0;
#X connect 26 1 19 0;
#X connect 26 1 21 0;
#X connect 26 1 22 0;
#X connect 26 1 37 0;
#X connect 27 0 24 0;
#X connect 27 1 13 0;
#X connect 27 1 15 0;
#X connect 27 1 16 0;
#X connect 27 1 38 0;
#X connect 31 0 9 0;
#X connect 32 0 10 0;
#X connect 33 0 27 0;
#X connect 34 0 26 0;
#X connect 35 0 12 1;
#X connect 35 0 18 1;
#X connect 36 0 31 1;
#X connect 36 0 32 1;
#X connect 37 0 26 1;
#X connect 38 0 27 1;
#X coords 0 -1 1 1 98 134 2 100 150;
