#N canvas 658 221 368 340 10;
#X obj 13 15 inlet;
#X msg 48 175 0;
#X msg 104 172 0;
#X obj 85 267 outlet;
#X obj 22 197 ekext/cup;
#X obj 22 148 metro \$1 \$2 \$3;
#X obj 42 119 t b b;
#X obj 12 66 sel 0;
#X msg 12 103 0;
#X obj 43 90 t b f;
#X obj 176 56 inlet;
#X obj 98 70 unpack f f;
#X obj 12 43 route float bang list set;
#X obj 22 252 sel \$4;
#X obj 55 226 - 1;
#X obj 135 136 f \$4;
#X obj 139 17 loadbang;
#X connect 0 0 12 0;
#X connect 1 0 4 0;
#X connect 2 0 5 0;
#X connect 4 0 3 0;
#X connect 4 0 13 0;
#X connect 5 0 4 0;
#X connect 6 0 5 0;
#X connect 6 1 1 0;
#X connect 7 0 8 0;
#X connect 7 1 9 0;
#X connect 8 0 5 0;
#X connect 9 0 6 0;
#X connect 9 1 14 0;
#X connect 10 0 5 1;
#X connect 11 0 7 0;
#X connect 11 1 5 1;
#X connect 12 0 7 0;
#X connect 12 1 6 0;
#X connect 12 2 11 0;
#X connect 12 3 14 0;
#X connect 12 4 5 0;
#X connect 13 0 2 0;
#X connect 14 0 13 1;
#X connect 15 0 14 0;
#X connect 16 0 15 0;
