#N canvas 237 39 450 300 10;
#X obj 237 51 inlet;
#X obj 149 42 inlet;
#X obj 150 223 outlet;
#X obj 192 52 inlet;
#X obj 149 115 - \$2;
#X obj 152 145 ./scaler \$1 \$2;
#X connect 0 0 4 1;
#X connect 0 0 5 2;
#X connect 1 0 4 0;
#X connect 3 0 5 1;
#X connect 4 0 5 0;
#X connect 5 0 2 0;
