#N canvas 470 264 674 397 10;
#X obj 270 68 modtriangulator~;
#X obj 54 111 oscope~;
#X text 375 76 <-- samphold trigger;
#X obj 238 16 smoother~;
#X obj 316 17 smoother~;
#X obj 413 28 smoother~;
#X text 389 155 this will alias.;
#X msg 367 -3 1;
#X msg 244 -9 131;
#X text 327 269 default range 0 - 1;
#X text 297 229 inlets: frequency \, center offset (-1 to 1) \, amplitude
* 2 \, number to add \, phase set;
#X msg 420 3 -0.5;
#X text 486 35 <-- play with this (-1 - 1);
#X obj 401 -27 banger;
#X obj 271 123 outputc~;
#X connect 0 0 1 0;
#X connect 0 0 14 0;
#X connect 0 0 14 1;
#X connect 3 0 0 0;
#X connect 4 0 0 2;
#X connect 5 0 0 1;
#X connect 7 0 4 0;
#X connect 8 0 3 0;
#X connect 11 0 5 0;
#X connect 13 0 7 0;
#X connect 13 0 8 0;
#X connect 13 0 11 0;
