#N canvas 351 339 450 300 10;
#X obj 106 170 osc~;
#X text 15 12 fm with middle inlet as Index instead of multiply;
#X text 89 60 frequency;
#X text 315 99 add (carrier);
#X text 167 62 index;
#X obj 252 78 mtof;
#X floatatom 254 54 5 0 0 0 - - -;
#X obj 218 182 spigot;
#X obj 227 212 * 2;
#X floatatom 299 167 5 0 0 0 - - -;
#X obj 260 161 tgl 15 0 empty empty empty 17 7 0 10 -262144 -1 -1 0
1;
#X obj 296 186 t b f;
#X text 13 29 4/15/21: took out addition inlet for carrier (pointless)
;
#X obj 91 79 ./smoother~;
#X obj 162 83 ./smoother~;
#X obj 246 98 ./smoother~;
#X obj 103 149 ./modulator~;
#X obj 107 205 ./outputc~;
#X connect 0 0 17 0;
#X connect 0 0 17 1;
#X connect 5 0 7 0;
#X connect 5 0 15 0;
#X connect 6 0 5 0;
#X connect 7 0 8 0;
#X connect 8 0 13 0;
#X connect 9 0 11 0;
#X connect 10 0 7 1;
#X connect 11 0 7 0;
#X connect 11 1 8 1;
#X connect 13 0 16 0;
#X connect 14 0 16 1;
#X connect 15 0 0 0;
#X connect 16 0 0 0;
