#N canvas 637 51 668 571 10;
#X obj 166 345 outlet~;
#X obj 27 -87 inlet;
#X msg 409 249 set \$1;
#X obj 139 320 moop~;
#X msg 47 108 hold \$1;
#X obj 48 60 loadbang;
#X obj 323 94 arraysize;
#X msg 323 72 set \$1 \, bang;
#X obj 48 86 f \$2;
#X obj 287 -56 loadbang;
#X obj 266 25 symbol \$1;
#X msg 323 2 symbol;
#X obj 266 46 sel symbol;
#X obj 286 -32 t b b;
#X obj 169 0 receiver \$1-rdr;
#X msg 171 -26 \$1-rdr;
#X msg 301 283 range \$1;
#X obj 139 395 outlet~;
#X obj -31 100 inlet~;
#X obj 135 292 list prepend times;
#X obj 119 42 list split 1;
#X obj 120 18 sel 0;
#X obj 129 64 * 1;
#X obj 136 268 list append;
#X obj 39 -58 route set hold tempo onset range negjmp;
#X obj 304 175 - 3;
#X obj 125 345 +~ 1;
#X obj 302 258 f;
#X msg 139 187 range 0;
#X obj 304 228 spigot 1;
#X obj 198 79 sel 0;
#X obj 305 203 t b f;
#X obj 139 368 tabread4hs~ \$1;
#X obj 322 116 spigot 1;
#X msg 384 91 0;
#X obj 300 155 change;
#X connect 1 0 24 0;
#X connect 2 0 32 0;
#X connect 3 0 26 0;
#X connect 3 1 0 0;
#X connect 4 0 3 0;
#X connect 5 0 8 0;
#X connect 6 0 33 0;
#X connect 7 0 6 0;
#X connect 8 0 4 0;
#X connect 9 0 13 0;
#X connect 10 0 12 0;
#X connect 11 0 12 1;
#X connect 12 1 7 0;
#X connect 12 1 2 0;
#X connect 13 0 10 0;
#X connect 13 1 11 0;
#X connect 14 0 10 0;
#X connect 15 0 14 0;
#X connect 16 0 3 0;
#X connect 18 0 3 0;
#X connect 19 0 3 0;
#X connect 20 0 22 0;
#X connect 20 1 23 1;
#X connect 21 1 22 1;
#X connect 22 0 23 0;
#X connect 23 0 19 0;
#X connect 24 0 10 0;
#X connect 24 0 15 0;
#X connect 24 1 4 0;
#X connect 24 2 21 0;
#X connect 24 3 32 1;
#X connect 24 4 31 0;
#X connect 24 4 34 0;
#X connect 24 5 29 1;
#X connect 24 5 30 0;
#X connect 24 6 20 0;
#X connect 25 0 31 0;
#X connect 26 0 32 0;
#X connect 27 0 16 0;
#X connect 28 0 3 0;
#X connect 29 0 27 0;
#X connect 30 0 27 0;
#X connect 30 1 28 0;
#X connect 31 0 29 0;
#X connect 31 1 27 1;
#X connect 32 0 17 0;
#X connect 33 0 35 0;
#X connect 34 0 33 1;
#X connect 35 0 25 0;
