#N canvas 140 23 1150 839 10;
#X obj 276 206 metro;
#X obj 279 37 loadbang;
#X obj 342 173 tgl 15 0 empty empty on/off 17 7 0 10 -262144 -1 -1
0 1;
#X obj 317 125 expr 60000 / $f1;
#X floatatom 305 82 5 0 0 0 bpm - -;
#X floatatom 274 180 5 0 0 0 ms - -;
#X floatatom 337 251 5 0 0 0 - - -;
#X obj 159 310 hradio 40 1 0 16 empty empty empty 0 -8 0 10 -262144
-1 -1 2;
#X obj 434 106 s lbang;
#X obj 298 153 * 0.25;
#X msg 796 233 1 1 1 1 1 0 1 1 1 0 1 1 1 1 1 1;
#X obj 879 266 bng 15 250 50 0 empty empty save_pattern 17 7 0 10 -262144
-1 -1;
#X msg 900 346 dump;
#X obj 798 191 r lbang;
#X obj 274 278 t f f;
#X obj 49 396 f;
#N canvas 879 430 450 300 show 0;
#X obj 248 64 list prepend set;
#X obj 259 100 list trim;
#X obj 241 37 inlet;
#X obj 261 135 outlet;
#X connect 0 0 1 0;
#X connect 1 0 3 0;
#X connect 2 0 0 0;
#X restore 821 400 pd show;
#X msg 823 428 52 53 37 81 84 72 77 85 64 58 64 65 52 80 87 33;
#N canvas 879 430 450 300 show 0;
#X obj 248 64 list prepend set;
#X obj 259 100 list trim;
#X obj 241 37 inlet;
#X obj 261 135 outlet;
#X connect 0 0 1 0;
#X connect 1 0 3 0;
#X connect 2 0 0 0;
#X restore 846 630 pd show;
#X obj 238 698 osc~;
#X obj 149 700 line~;
#X msg 151 675 1 \, 0 \$1;
#X floatatom 88 623 5 0 0 0 length - -;
#X obj 224 732 *~;
#X msg 124 615 0;
#X obj 211 651 mtof;
#X obj 149 649 f;
#X obj 69 558 r lbang;
#X msg 63 588 582;
#X msg 301 60 66;
#X text 526 118 messages to mseq: dump \, clear. A list is interpreted
as the values of the pattern. a number to the inlet will cause the
value of that step to go out the left outlet. left outlet puts out
values \, right outlet outputs current pattern as a list when "dump"
is received.;
#X obj 155 368 ./tseq;
#X obj 158 444 ./mseq;
#X obj 222 758 ./outputc~;
#X obj 259 230 ./cyclecount 16;
#X connect 0 0 34 0;
#X connect 1 0 29 0;
#X connect 1 0 8 0;
#X connect 2 0 0 0;
#X connect 3 0 9 0;
#X connect 4 0 3 0;
#X connect 5 0 0 1;
#X connect 9 0 5 0;
#X connect 10 0 31 0;
#X connect 11 0 12 0;
#X connect 12 0 31 0;
#X connect 12 0 32 0;
#X connect 13 0 10 0;
#X connect 13 0 17 0;
#X connect 14 0 31 0;
#X connect 14 1 15 1;
#X connect 15 0 32 0;
#X connect 16 0 10 0;
#X connect 17 0 32 0;
#X connect 18 0 17 0;
#X connect 19 0 23 1;
#X connect 20 0 23 0;
#X connect 21 0 20 0;
#X connect 22 0 26 1;
#X connect 23 0 33 0;
#X connect 23 0 33 1;
#X connect 24 0 19 1;
#X connect 25 0 19 0;
#X connect 26 0 21 0;
#X connect 27 0 28 0;
#X connect 28 0 22 0;
#X connect 29 0 4 0;
#X connect 31 0 15 0;
#X connect 31 0 24 0;
#X connect 31 0 26 0;
#X connect 31 1 16 0;
#X connect 32 0 25 0;
#X connect 32 1 18 0;
#X connect 34 0 6 0;
#X connect 34 0 7 0;
#X connect 34 0 14 0;
