#N canvas 89 163 1036 626 10;
#X obj 188 17 inlet;
#X obj 125 332 r \$0-setbox0;
#X msg 126 353 set \$1;
#X obj 125 373 s \$0-tobox0;
#X obj 705 145 vsl 40 128 0 127 0 0 \$0-setbox15 \$0-frombox15 16 14
60 0 10 -262144 -1 -1 0 1;
#X floatatom 706 125 5 0 0 2 - #0-tobox15 #0-frombox15;
#X obj 665 145 vsl 40 128 0 127 0 0 \$0-setbox14 \$0-frombox14 15 14
60 0 10 -262144 -1 -1 0 1;
#X floatatom 666 125 5 0 0 2 - #0-tobox14 #0-frombox14;
#X obj 625 145 vsl 40 128 0 127 0 0 \$0-setbox13 \$0-frombox13 14 14
60 0 10 -262144 -1 -1 0 1;
#X floatatom 626 125 5 0 0 2 - #0-tobox13 #0-frombox13;
#X obj 585 145 vsl 40 128 0 127 0 0 \$0-setbox12 \$0-frombox12 13 14
60 0 10 -262144 -1 -1 0 1;
#X floatatom 586 125 5 0 0 2 - #0-tobox12 #0-frombox12;
#X obj 545 145 vsl 40 128 0 127 0 0 \$0-setbox11 \$0-frombox11 12 14
60 0 10 -262144 -1 -1 0 1;
#X floatatom 546 125 5 0 0 2 - #0-tobox11 #0-frombox11;
#X obj 505 145 vsl 40 128 0 127 0 0 \$0-setbox10 \$0-frombox10 11 14
60 0 10 -262144 -1 -1 0 1;
#X floatatom 506 125 5 0 0 2 - #0-tobox10 #0-frombox10;
#X obj 465 145 vsl 40 128 0 127 0 0 \$0-setbox9 \$0-frombox9 10 14
60 0 10 -262144 -1 -1 0 1;
#X floatatom 466 125 5 0 0 2 - #0-tobox9 #0-frombox9;
#X obj 425 145 vsl 40 128 0 127 0 0 \$0-setbox8 \$0-frombox8 9 17 60
0 10 -262144 -1 -1 0 1;
#X floatatom 426 125 5 0 0 2 - #0-tobox8 #0-frombox8;
#X obj 385 145 vsl 40 128 0 127 0 0 \$0-setbox7 \$0-frombox7 8 17 60
0 10 -262144 -1 -1 0 1;
#X floatatom 386 125 5 0 0 2 - #0-tobox7 #0-frombox7;
#X obj 345 145 vsl 40 128 0 127 0 0 \$0-setbox6 \$0-frombox6 7 17 60
0 10 -262144 -1 -1 0 1;
#X floatatom 346 125 5 0 0 2 - #0-tobox6 #0-frombox6;
#X obj 305 145 vsl 40 128 0 127 0 0 \$0-setbox5 \$0-frombox5 6 17 60
0 10 -262144 -1 -1 0 1;
#X floatatom 306 125 5 0 0 2 - #0-tobox5 #0-frombox5;
#X obj 265 145 vsl 40 128 0 127 0 0 \$0-setbox4 \$0-frombox4 5 17 60
0 10 -262144 -1 -1 0 1;
#X floatatom 266 125 5 0 0 2 - #0-tobox4 #0-frombox4;
#X obj 225 145 vsl 40 128 0 127 0 0 \$0-setbox3 \$0-frombox3 4 17 60
0 10 -262144 -1 -1 0 1;
#X floatatom 226 125 5 0 0 2 - #0-tobox3 #0-frombox3;
#X obj 185 145 vsl 40 128 0 127 0 0 \$0-setbox2 \$0-frombox2 3 17 60
0 10 -262144 -1 -1 0 1;
#X floatatom 186 125 5 0 0 2 - #0-tobox2 #0-frombox2;
#X obj 145 145 vsl 40 128 0 127 0 0 \$0-setbox1 \$0-frombox1 2 17 60
0 10 -262144 -1 -1 0 1;
#X floatatom 146 125 5 0 0 2 - #0-tobox1 #0-frombox1;
#X obj 105 145 vsl 40 128 0 127 0 0 \$0-setbox0 \$0-frombox0 1 17 60
0 10 -262144 -1 -1 0 1;
#X floatatom 106 125 5 0 0 2 - #0-tobox0 #0-frombox0;
#X msg 216 354 set \$1;
#X obj 215 333 r \$0-setbox1;
#X obj 216 375 s \$0-tobox1;
#X msg 303 356 set \$1;
#X msg 393 357 set \$1;
#X msg 477 358 set \$1;
#X msg 567 359 set \$1;
#X msg 654 361 set \$1;
#X msg 744 362 set \$1;
#X msg 124 426 set \$1;
#X msg 214 427 set \$1;
#X msg 301 429 set \$1;
#X msg 391 430 set \$1;
#X msg 475 431 set \$1;
#X msg 565 432 set \$1;
#X msg 652 434 set \$1;
#X msg 742 435 set \$1;
#X obj 302 335 r \$0-setbox2;
#X obj 392 336 r \$0-setbox3;
#X obj 476 337 r \$0-setbox4;
#X obj 566 338 r \$0-setbox5;
#X obj 653 340 r \$0-setbox6;
#X obj 743 341 r \$0-setbox7;
#X obj 123 405 r \$0-setbox8;
#X obj 213 406 r \$0-setbox9;
#X obj 300 408 r \$0-setbox10;
#X obj 390 409 r \$0-setbox11;
#X obj 474 410 r \$0-setbox12;
#X obj 564 411 r \$0-setbox13;
#X obj 651 413 r \$0-setbox14;
#X obj 741 414 r \$0-setbox15;
#X obj 302 376 s \$0-tobox2;
#X obj 393 378 s \$0-tobox3;
#X obj 476 378 s \$0-tobox4;
#X obj 567 380 s \$0-tobox5;
#X obj 653 381 s \$0-tobox6;
#X obj 744 383 s \$0-tobox7;
#X obj 123 446 s \$0-tobox8;
#X obj 214 448 s \$0-tobox9;
#X obj 300 449 s \$0-tobox10;
#X obj 391 451 s \$0-tobox11;
#X obj 474 451 s \$0-tobox12;
#X obj 565 453 s \$0-tobox13;
#X obj 651 454 s \$0-tobox14;
#X obj 742 456 s \$0-tobox15;
#X obj 377 34 route list;
#X obj 807 153 outlet;
#X obj 102 481 table \$0-vals 16;
#X obj 792 90 tabread \$0-vals;
#X obj 280 76 unpack f f f f f f f f f f f f f f f f;
#X obj 227 482 t f b;
#X msg 253 505 0;
#X obj 275 479 t f b;
#X obj 315 478 t f b;
#X obj 360 479 t f b;
#X obj 399 477 t f b;
#X obj 447 474 t f b;
#X obj 487 473 t f b;
#X obj 532 474 t f b;
#X obj 570 476 t f b;
#X obj 618 473 t f b;
#X obj 658 472 t f b;
#X obj 703 473 t f b;
#X obj 713 519 t f b;
#X obj 761 516 t f b;
#X obj 801 515 t f b;
#X obj 846 516 t f b;
#X msg 301 502 1;
#X msg 341 501 2;
#X msg 375 502 3;
#X msg 428 503 4;
#X msg 473 497 5;
#X msg 516 500 6;
#X msg 547 497 7;
#X msg 596 499 8;
#X msg 644 496 9;
#X msg 684 495 10;
#X msg 718 496 11;
#X msg 739 542 12;
#X msg 787 539 13;
#X msg 827 538 14;
#X msg 861 539 15;
#X obj 486 592 tabwrite \$0-vals;
#X obj 849 227 outlet;
#X obj 174 45 route dump clear;
#X msg 287 54 0 0 0 0 0 0 0 0 0 0 0 0 0 0 0 0;
#X obj 842 194 array get \$0-vals;
#X text 809 172 you can substitute tabdump;
#X obj 506 101 cnv 15 47 21 empty empty empty 20 12 0 14 -260097 -66577
0;
#X obj 510 104 bng 15 250 50 0 empty empty dump 17 7 0 10 -262144 -1
-1;
#X obj 306 101 cnv 15 53 21 empty empty empty 20 12 0 14 -260097 -66577
0;
#X obj 310 104 bng 15 250 50 0 empty empty clear 17 7 0 10 -262144
-1 -1;
#X connect 0 0 120 0;
#X connect 1 0 2 0;
#X connect 1 0 86 0;
#X connect 2 0 3 0;
#X connect 36 0 38 0;
#X connect 37 0 36 0;
#X connect 37 0 88 0;
#X connect 39 0 67 0;
#X connect 40 0 68 0;
#X connect 41 0 69 0;
#X connect 42 0 70 0;
#X connect 43 0 71 0;
#X connect 44 0 72 0;
#X connect 45 0 73 0;
#X connect 46 0 74 0;
#X connect 47 0 75 0;
#X connect 48 0 76 0;
#X connect 49 0 77 0;
#X connect 50 0 78 0;
#X connect 51 0 79 0;
#X connect 52 0 80 0;
#X connect 53 0 39 0;
#X connect 53 0 89 0;
#X connect 54 0 40 0;
#X connect 54 0 90 0;
#X connect 55 0 41 0;
#X connect 55 0 91 0;
#X connect 56 0 42 0;
#X connect 56 0 92 0;
#X connect 57 0 43 0;
#X connect 57 0 93 0;
#X connect 58 0 44 0;
#X connect 58 0 94 0;
#X connect 59 0 45 0;
#X connect 59 0 95 0;
#X connect 60 0 46 0;
#X connect 60 0 96 0;
#X connect 61 0 47 0;
#X connect 61 0 97 0;
#X connect 62 0 48 0;
#X connect 62 0 98 0;
#X connect 63 0 49 0;
#X connect 63 0 99 0;
#X connect 64 0 50 0;
#X connect 64 0 100 0;
#X connect 65 0 51 0;
#X connect 65 0 101 0;
#X connect 66 0 52 0;
#X connect 66 0 102 0;
#X connect 81 0 85 0;
#X connect 81 1 84 0;
#X connect 84 0 82 0;
#X connect 85 0 34 0;
#X connect 85 1 32 0;
#X connect 85 2 30 0;
#X connect 85 3 28 0;
#X connect 85 4 26 0;
#X connect 85 5 24 0;
#X connect 85 6 22 0;
#X connect 85 7 20 0;
#X connect 85 8 18 0;
#X connect 85 9 16 0;
#X connect 85 10 14 0;
#X connect 85 11 12 0;
#X connect 85 12 10 0;
#X connect 85 13 8 0;
#X connect 85 14 6 0;
#X connect 85 15 4 0;
#X connect 86 0 118 0;
#X connect 86 1 87 0;
#X connect 87 0 118 1;
#X connect 88 0 118 0;
#X connect 88 1 103 0;
#X connect 89 0 118 0;
#X connect 89 1 104 0;
#X connect 90 0 118 0;
#X connect 90 1 105 0;
#X connect 91 0 118 0;
#X connect 91 1 106 0;
#X connect 92 0 118 0;
#X connect 92 1 107 0;
#X connect 93 0 118 0;
#X connect 93 1 108 0;
#X connect 94 0 118 0;
#X connect 94 1 109 0;
#X connect 95 0 118 0;
#X connect 95 1 110 0;
#X connect 96 0 118 0;
#X connect 96 1 111 0;
#X connect 97 0 118 0;
#X connect 97 1 112 0;
#X connect 98 0 118 0;
#X connect 98 1 113 0;
#X connect 99 0 118 0;
#X connect 99 1 114 0;
#X connect 100 0 118 0;
#X connect 100 1 115 0;
#X connect 101 0 118 0;
#X connect 101 1 116 0;
#X connect 102 0 118 0;
#X connect 102 1 117 0;
#X connect 103 0 118 1;
#X connect 104 0 118 1;
#X connect 105 0 118 1;
#X connect 106 0 118 1;
#X connect 107 0 118 1;
#X connect 108 0 118 1;
#X connect 109 0 118 1;
#X connect 110 0 118 1;
#X connect 111 0 118 1;
#X connect 112 0 118 1;
#X connect 113 0 118 1;
#X connect 114 0 118 1;
#X connect 115 0 118 1;
#X connect 116 0 118 1;
#X connect 117 0 118 1;
#X connect 120 0 122 0;
#X connect 120 1 121 0;
#X connect 120 2 81 0;
#X connect 121 0 85 0;
#X connect 122 0 119 0;
#X connect 125 0 122 0;
#X connect 127 0 121 0;
#X coords 0 -1 1 1 650 180 1 100 100;
