#N canvas 0 23 450 300 10;
#X obj 170 115 inlet;
#X obj 211 117 inlet;
#X obj 259 119 inlet;
#X obj 210 208 outlet;
#X msg 216 168 set \, add;
#X obj 165 144 prepender add;
#X connect 0 0 5 0;
#X connect 1 0 4 0;
#X connect 2 0 3 0;
#X connect 4 0 3 0;
#X connect 5 0 3 0;
