#N canvas 91 48 450 300 10;
#X obj 317 85 samplerate~;
#X obj 316 60 loadbang;
#X obj 316 110 / 1000;
#X obj 243 50 inlet;
#X obj 244 128 *;
#X obj 251 182 outlet;
#X text 6 62 how many samples in inlet's ms;
#X connect 0 0 2 0;
#X connect 1 0 0 0;
#X connect 2 0 4 1;
#X connect 3 0 4 0;
#X connect 4 0 5 0;
