#N canvas 0 23 450 300 10;
#X obj 198 41 inlet;
#X obj 201 137 outlet;
#X text 155 176 ms to frequency and back;
#X obj 203 110 /;
#X obj 203 80 swap 1000;
#X connect 0 0 4 0;
#X connect 3 0 1 0;
#X connect 4 0 3 0;
#X connect 4 1 3 1;
