#N canvas 308 445 655 375 10;
#X obj 191 98 inlet;
#X obj 202 203 outlet;
#X text 358 78 # of triggers;
#X text 172 41 triggers;
#X obj 331 41 loadbang;
#X obj 305 84 f \$1;
#X obj 305 135 - 1;
#X obj 308 110 max 1;
#X obj 203 170 sel 0;
#X obj 244 16 inlet;
#X obj 243 83 t f b;
#X msg 274 113 0;
#X obj 247 44 route float;
#X obj 194 137 ./cyclecount \$1;
#X connect 0 0 13 0;
#X connect 4 0 5 0;
#X connect 5 0 7 0;
#X connect 6 0 8 1;
#X connect 7 0 6 0;
#X connect 8 0 1 0;
#X connect 9 0 12 0;
#X connect 10 0 13 1;
#X connect 10 1 11 0;
#X connect 11 0 13 2;
#X connect 12 0 10 0;
#X connect 12 0 5 0;
#X connect 12 1 11 0;
#X connect 13 0 8 0;
