#N canvas 353 305 655 375 10;
#X obj 210 108 cup;
#X msg 269 88 0;
#X obj 201 178 t b b;
#X obj 210 58 inlet;
#X obj 240 205 outlet;
#X obj 170 222 outlet;
#X obj 356 16 inlet;
#X text 358 78 # of triggers;
#X text 172 41 triggers;
#X obj 280 19 loadbang;
#X obj 326 73 f \$1;
#X obj 288 124 - 1;
#X obj 253 63 del 0;
#X obj 210 83 bang;
#X obj 212 144 sel;
#X obj 295 159 <=;
#X obj 299 186 sel 1;
#X obj 353 190 sel 1;
#X obj 349 162 >;
#X obj 307 101 max 1;
#X connect 0 0 14 0;
#X connect 0 0 15 1;
#X connect 0 0 18 0;
#X connect 1 0 0 0;
#X connect 2 0 5 0;
#X connect 2 0 12 0;
#X connect 2 1 4 0;
#X connect 3 0 13 0;
#X connect 6 0 1 0;
#X connect 6 0 10 0;
#X connect 9 0 1 0;
#X connect 9 0 10 0;
#X connect 10 0 19 0;
#X connect 11 0 14 1;
#X connect 11 0 15 0;
#X connect 11 0 18 1;
#X connect 12 0 1 0;
#X connect 13 0 0 0;
#X connect 14 0 2 0;
#X connect 15 0 16 0;
#X connect 16 0 12 0;
#X connect 17 0 12 0;
#X connect 18 0 17 0;
#X connect 19 0 11 0;
