#N canvas 423 22 986 681 10;
#X obj 53 357 *~;
#X floatatom 207 105 5 0 0 0 - - -, f 5;
#X floatatom 346 163 5 0 0 0 - - -, f 5;
#X msg 151 89 stop;
#X text 458 342 exponential attack/decay/sustain/release envelope;
#X floatatom 393 173 5 0 0 0 - - -, f 5;
#X floatatom 496 164 5 0 0 0 - - -, f 5;
#X text 387 133 sustain level;
#X obj 176 108 tgl 15 0 empty empty empty 0 -6 0 8 -262144 -1 -1 0
1;
#X msg 179 192 0;
#X obj 306 375 tabwrite~ test;
#X obj 177 133 metro 2000;
#X msg 666 212 curves 0 0 0;
#X msg 595 305 40 400 0.5 2000;
#X msg 656 189 curves 1 1 1;
#X msg 708 160 curves 0.333333 0.333333 0.333333;
#X msg 394 151 0.2;
#X msg 430 153 0.8;
#X msg 266 92 100;
#X obj 47 424 outputc~;
#X floatatom 594 136 5 0 0 0 - - -, f 5;
#X msg 580 160 curves \$1 \$1 \$1 5;
#X text 553 244 exponential part based on 60db;
#X obj 350 322 spigot;
#X obj 387 299 tgl 15 0 empty empty empty 17 7 0 10 -262144 -1 -1 0
1;
#X text 407 296 graph;
#X text 750 186 all linear;
#X text 752 210 all exponential;
#X text 614 283 adsr;
#X text 586 83 attack \, decay and sustain curves logarithmic level
\, range 0-1 \, defaults to exp(1/3) \, 0 \, 0;
#X msg 144 191 1;
#X msg 93 200 -1;
#X text 75 231 negative trigger jumps to 0;
#X obj 19 319 osc~;
#X obj 17 276 smoother~ 5;
#X text 156 45 trigger != 0 attacks \, else decays;
#X text 322 146 decay time;
#X text 491 146 release time;
#X msg 717 135 curves 0.84096 0 0;
#X text 713 117 default:;
#X msg 590 224 curves 1 0 0;
#X obj 415 379 scaler~ 2 -1;
#N canvas 0 22 450 278 (subpatch) 0;
#X array test 88000 float 2;
#X coords 0 1 88000 0 200 140 1 0 0;
#X restore 548 434 graph;
#X obj 134 419 oscope~;
#X obj 429 450 tabread test;
#X floatatom 431 413 5 0 0 0 - - -, f 5;
#X floatatom 439 495 10 0 0 0 - - -, f 10;
#X obj 216 167 del 1000;
#X obj 167 278 neadsr~ 500 300 0.5 1000;
#X msg 296 92 500 0.2;
#X text 264 71 every stage: list of time + curvature;
#X connect 0 0 19 0;
#X connect 0 0 19 1;
#X connect 1 0 11 1;
#X connect 2 0 48 2;
#X connect 3 0 11 0;
#X connect 5 0 48 3;
#X connect 6 0 48 4;
#X connect 8 0 11 0;
#X connect 9 0 48 0;
#X connect 11 0 30 0;
#X connect 11 0 23 0;
#X connect 11 0 47 0;
#X connect 12 0 48 0;
#X connect 13 0 48 0;
#X connect 14 0 48 0;
#X connect 15 0 48 0;
#X connect 16 0 5 0;
#X connect 17 0 5 0;
#X connect 18 0 48 1;
#X connect 20 0 21 0;
#X connect 21 0 48 0;
#X connect 23 0 10 0;
#X connect 24 0 23 1;
#X connect 30 0 48 0;
#X connect 31 0 48 0;
#X connect 33 0 0 0;
#X connect 34 0 33 0;
#X connect 38 0 48 0;
#X connect 40 0 48 0;
#X connect 41 0 43 0;
#X connect 44 0 46 0;
#X connect 45 0 44 0;
#X connect 47 0 9 0;
#X connect 48 0 0 1;
#X connect 48 0 41 0;
#X connect 48 0 10 0;
#X connect 49 0 48 1;
