#N canvas 679 51 833 486 10;
#X msg 246 163 4;
#X msg 220 144 -4;
#N canvas 0 22 450 278 (subpatch) 0;
#X array \$0-test 88000 float 2;
#X coords 0 1 88000 0 200 140 1 0 0;
#X restore 19 210 graph;
#X obj 365 250 ./oscope~;
#X msg 365 94 0;
#X obj 298 278 bang;
#X msg 399 167 curves 0 0;
#X msg 401 139 curves 1 1;
#X msg 327 173 3000;
#X obj 251 110 bng 15 250 50 0 empty empty empty 17 7 0 10 -262144
-1 -1;
#X text 396 90 this is for beginning release in the middle of the attack
phase if desired;
#X obj 365 67 del 500;
#X text 87 65 every stage: list of time + curvature;
#X msg 123 89 600 0.8;
#X msg 191 413 \; pd dsp 1;
#X obj 246 312 tabwrite~ \$0-test;
#X msg 482 163 curves 0.9 0.9;
#X obj 231 201 ./nead~ 1000 1000 1;
#X connect 0 0 5 0;
#X connect 0 0 17 0;
#X connect 1 0 5 0;
#X connect 1 0 17 0;
#X connect 4 0 17 0;
#X connect 5 0 15 0;
#X connect 6 0 17 0;
#X connect 7 0 17 0;
#X connect 8 0 17 2;
#X connect 9 0 0 0;
#X connect 9 0 11 0;
#X connect 11 0 4 0;
#X connect 13 0 17 2;
#X connect 16 0 17 0;
#X connect 17 0 3 0;
#X connect 17 0 15 0;
