#N canvas 505 23 669 456 10;
#X msg 239 133 4;
#X msg 211 138 -4;
#N canvas 0 22 450 278 (subpatch) 0;
#X array \$0-test 88000 float 2;
#X coords 0 1 88000 0 200 140 1 0 0;
#X restore 12 180 graph;
#X obj 380 220 ./oscope~;
#X msg 286 128 0;
#X obj 336 256 bang;
#X msg 392 137 curves 0 0;
#X msg 394 109 curves 1 1;
#X msg 381 160 3000;
#X obj 255 88 bng 15 250 50 0 empty empty empty 17 7 0 10 -262144 -1
-1;
#X text 323 54 attack-release (holds until 0 trigger);
#X obj 279 100 del 1500;
#X obj 248 29 tgl 15 0 empty empty empty 17 7 0 10 -262144 -1 -1 0
1;
#X obj 248 58 metro 2500;
#X msg 468 113 curves \$1 \$1;
#X floatatom 530 87 5 0 0 0 - - -;
#X text 44 75 every stage: time and curvature;
#X msg 127 97 release 500 0.9;
#X msg 51 141 attack 200 1;
#X msg 215 345 \; pd dsp 1;
#X obj 261 276 tabwrite~ \$0-test;
#X obj 224 171 ./near~ 1000 1000 1;
#X connect 0 0 5 0;
#X connect 0 0 21 0;
#X connect 1 0 5 0;
#X connect 1 0 21 0;
#X connect 4 0 21 0;
#X connect 5 0 20 0;
#X connect 6 0 21 0;
#X connect 7 0 21 0;
#X connect 8 0 21 2;
#X connect 9 0 0 0;
#X connect 9 0 11 0;
#X connect 11 0 4 0;
#X connect 12 0 13 0;
#X connect 13 0 9 0;
#X connect 14 0 21 0;
#X connect 15 0 14 0;
#X connect 17 0 21 0;
#X connect 18 0 21 0;
#X connect 21 0 3 0;
#X connect 21 0 20 0;
