#N canvas 83 74 639 439 10;
#X obj 220 217 combfilter~;
#X obj 210 46 inlet~;
#X obj 231 249 outlet~;
#X obj 295 169 line~;
#X obj 326 8 inlet;
#X text 403 105 normalized comb filter;
#X msg 341 86 1 \$1;
#X obj 339 62 abs;
#X obj 338 112 -;
#X obj 339 159 line~;
#X obj 256 20 inlet;
#X obj 240 157 line~;
#X msg 291 147 \$1 10;
#X msg 335 137 \$1 10;
#X msg 236 135 \$1 10;
#X obj 331 31 f \$2;
#X obj 259 54 f \$1;
#X obj 422 32 loadbang;
#X connect 0 0 2 0;
#X connect 1 0 0 0;
#X connect 3 0 0 2;
#X connect 4 0 15 0;
#X connect 6 0 8 0;
#X connect 7 0 6 0;
#X connect 8 0 13 0;
#X connect 9 0 0 3;
#X connect 10 0 16 0;
#X connect 11 0 0 1;
#X connect 12 0 3 0;
#X connect 13 0 9 0;
#X connect 14 0 11 0;
#X connect 15 0 12 0;
#X connect 15 0 7 0;
#X connect 16 0 14 0;
#X connect 17 0 15 0;
#X connect 17 0 16 0;
