#N canvas 184 137 794 300 12;
#X declare -lib zexy;
#X msg 165 126 0;
#X msg 161 106 127;
#X text 179 146 <- right inlet is velocity;
#X msg 70 125 64 127;
#X msg 83 100 60 60;
#X msg 44 85 60 0;
#X msg 24 118 64 0;
#X msg 40 51 flush;
#X msg 140 75 clear;
#X text 188 72 clear just clears list;
#X msg 28 144 50;
#X msg 32 172 40;
#X symbolatom 97 245 60 0 0 0 - - -;
#X floatatom 420 124 5 0 2 0 - - -;
#X msg 414 151 mode \$1;
#X obj 382 218 declare -lib zexy;
#X obj 97 202 list2symbol;
#X msg 186 202 symbol;
#X text 49 11 keeps track of which notes are currently being played
(with note/velocity pairs);
#X text 360 67 argument and "mode" message for sorting: 0:recent notes
first 1:highest notes first 2:lowest notes first;
#X text 320 180 left outlet is list of notes on \, if list is empty
then right outlet is sent a bang;
#X text 93 48 flush clears and bangs 2nd outlet;
#X obj 97 162 ./noteson 1;
#X connect 0 0 22 1;
#X connect 1 0 22 1;
#X connect 3 0 22 0;
#X connect 4 0 22 0;
#X connect 5 0 22 0;
#X connect 6 0 22 0;
#X connect 7 0 22 0;
#X connect 8 0 22 0;
#X connect 10 0 22 0;
#X connect 11 0 22 0;
#X connect 13 0 14 0;
#X connect 14 0 22 0;
#X connect 16 0 12 0;
#X connect 17 0 12 0;
#X connect 22 0 16 0;
#X connect 22 1 17 0;
