#N canvas 124 250 693 433 10;
#X obj 345 255 ./oscope~;
#X msg 136 181 clear;
#X text 263 73 -l length: set length of buffer (1000 ms by default)
;
#X text 50 180 clear buffer;
#X text 187 19 non-recirculating combfilter using lagrange interpolation
;
#X text 15 378 if -n is not specified \, an input gain inlet appears
\, initialized to 1;
#X text 241 43 flags (can be anywhere in args): -n: normalize output
by dividing by 1 + abs(feedback);
#X text 6 260 inlets: signal \, delay time(ms) \, feedback \, (conditional)
input gain, f 37;
#X text 225 105 other args (in order): delay time (ms) \, feedforward
gain \, length of buffer;
#X obj 213 136 ./sndfread~;
#X obj 318 202 ./nrcombf~ -n 200 0.8 200;
#X obj 236 227 ./nrcombf~ -n 200 0.8 200;
#X obj 255 290 ./outputc~;
#X connect 1 0 10 0;
#X connect 1 0 11 0;
#X connect 9 0 11 0;
#X connect 9 1 10 0;
#X connect 10 0 0 0;
#X connect 10 0 12 1;
#X connect 11 0 12 0;
