#N canvas 460 207 866 630 10;
#X obj 21 36 osc~;
#X obj 20 127 outlet~;
#X obj 20 12 inlet~;
#X obj 212 13 inlet;
#X obj 320 29 initbang;
#X obj 22 173 namecanvas \$0-operator;
#X obj 338 465 s \$0-operator;
#X obj 311 178 sel 0 1 2;
#N canvas 851 277 450 300 objectcount 0;
#X obj 170 39 inlet;
#X obj 171 201 outlet;
#X obj 175 126 iemguts/canvasindex;
#X connect 0 0 2 0;
#X connect 2 1 1 0;
#X restore 389 176 pd objectcount;
#X obj 252 237 list-math +;
#X obj 331 224 list-math +;
#X obj 407 227 list-math +;
#X msg 64 326 obj 65 8 inlet~ \, obj 20 58 *~ \, obj 116 14 inlet~
\, obj 20 91 +~ \, connect \$1 0 \$2 1 \, connect 0 0 \$2 0 \, connect
\$2 0 \$4 0 \, connect \$4 0 1 0 \, connect \$3 0 \$4 1;
#X msg 272 211 0 1 2 3;
#X msg 335 203 0 1 2 3;
#X msg 411 206 0 1 2 3;
#X msg 327 273 obj 65 8 inlet~ \, obj 20 58 *~ \, obj 116 14 inlet
\, obj 20 91 +~ \$5 \, connect \$1 0 \$2 1 \, connect 0 0 \$2 0 \,
connect \$2 0 \$4 0 \, connect \$4 0 1 0 \, connect \$3 0 \$4 1;
#X msg 438 342 obj 65 8 inlet \, obj 20 58 *~ \$6 \, obj 116 14 inlet
\, obj 20 91 +~ \$5 \, connect \$1 0 \$2 1 \, connect 0 0 \$2 0 \,
connect \$2 0 \$4 0 \, connect \$4 0 1 0 \, connect \$3 0 \$4 1;
#X text 507 42 requires iemguts;
#X obj 312 155 f 0;
#X obj 320 49 t b b b;
#X obj 505 96 dollarg;
#X obj 457 152 pack 0 0;
#X obj 325 250 list append 0;
#X obj 421 249 list append 0 0;
#X obj 388 74 f \$1;
#X obj 336 98 f \$2;
#X connect 2 0 0 0;
#X connect 3 0 0 1;
#X connect 4 0 20 0;
#X connect 7 0 13 0;
#X connect 7 1 14 0;
#X connect 7 2 15 0;
#X connect 8 0 11 1;
#X connect 8 0 10 1;
#X connect 8 0 9 1;
#X connect 9 0 12 0;
#X connect 10 0 23 0;
#X connect 11 0 24 0;
#X connect 12 0 6 0;
#X connect 13 0 9 0;
#X connect 14 0 10 0;
#X connect 15 0 11 0;
#X connect 16 0 6 0;
#X connect 17 0 6 0;
#X connect 19 0 7 0;
#X connect 20 0 19 0;
#X connect 20 1 8 0;
#X connect 20 1 26 0;
#X connect 20 2 21 0;
#X connect 20 2 25 0;
#X connect 21 1 19 1;
#X connect 22 0 24 1;
#X connect 23 0 16 0;
#X connect 24 0 17 0;
#X connect 25 0 22 1;
#X connect 25 0 23 1;
#X connect 26 0 22 0;
