#N canvas 637 214 787 430 10;
#X obj 425 21 loadbang;
#X obj 74 119 inlet~;
#X obj 378 50 inlet;
#X obj 418 72 f \$1;
#X msg 423 347 \; \$2-scope resize \$1 \;;
#X msg 527 139 1;
#X obj 356 204 tgl 15 0 \$0-fromtog \$0-totog on/off 17 7 0 10 -262144
-1 -1 0 1;
#X msg 351 140 set \$1;
#X obj 116 67 bang~;
#X obj 92 93 cyclecount;
#X obj 324 168 s \$0-tobox;
#X obj 495 60 r \$0-frombox;
#X obj 529 165 s \$0-totog;
#X obj 601 97 r \$0-fromtog;
#X obj 416 94 iemlib/speedlim 1000;
#X obj 115 142 sel 0;
#X obj 74 192 tabwrite~ \$0-scope;
#X obj 466 173 - 1;
#X obj 461 222 + 1;
#X obj 423 297 pack f \$0;
#X obj 84 253 tabread \$0-scope;
#X obj 80 311 tabwrite \$0-scope;
#X obj 100 213 t f f;
#N canvas 360 82 450 300 (subpatch) 0;
#X array \$0-scope 2048 float 0;
#X coords 0 1 2047 -1 200 140 1;
#X restore 205 221 graph;
#X floatatom 274 203 5 0 0 1 zoom #0-tobox #0-frombox, f 5;
#X obj 177 133 spigot \$2;
#X obj 446 272 change;
#X msg 183 73 0;
#X msg 180 172 0;
#X msg 229 108 0;
#X obj 237 74 sel 1;
#N canvas 173 293 450 300 \$0-reset 0;
#X restore 502 325 pd \$0-reset;
#X obj 538 190 sel 1;
#X obj 502 301 s pd-\$0-reset;
#X msg 502 275 obj 100 100 +~ \, clear;
#X text 602 310 <-- trick from mmb;
#X obj 420 119 if 0 1024;
#X obj 422 145 moses 1024;
#X obj 467 192 div 1024;
#X obj 188 151 * 1024;
#X obj 583 232 switch~ 1024;
#X obj 460 248 * 1024;
#X obj 617 123 sel 0;
#X obj 618 174 spigot;
#X msg 655 148 1;
#X msg 619 208 0;
#X connect 0 0 5 0;
#X connect 0 0 3 0;
#X connect 1 0 16 0;
#X connect 2 0 14 0;
#X connect 3 0 14 0;
#X connect 5 0 12 0;
#X connect 7 0 10 0;
#X connect 8 0 9 0;
#X connect 9 0 15 0;
#X connect 11 0 14 0;
#X connect 13 0 30 0;
#X connect 13 0 32 0;
#X connect 13 0 42 0;
#X connect 14 0 36 0;
#X connect 15 0 16 0;
#X connect 15 0 43 0;
#X connect 15 1 25 0;
#X connect 17 0 38 0;
#X connect 18 0 9 1;
#X connect 18 0 41 0;
#X connect 19 0 4 0;
#X connect 20 0 21 0;
#X connect 22 0 20 0;
#X connect 22 1 21 1;
#X connect 25 0 39 0;
#X connect 26 0 19 0;
#X connect 27 0 9 1;
#X connect 28 0 22 0;
#X connect 29 0 9 2;
#X connect 30 0 29 0;
#X connect 32 0 34 0;
#X connect 34 0 33 0;
#X connect 36 0 7 0;
#X connect 36 0 37 0;
#X connect 37 0 26 0;
#X connect 37 0 27 0;
#X connect 37 1 17 0;
#X connect 38 0 18 0;
#X connect 39 0 28 0;
#X connect 41 0 26 0;
#X connect 42 0 44 0;
#X connect 42 1 40 0;
#X connect 43 0 45 0;
#X connect 44 0 43 1;
#X connect 45 0 43 1;
#X connect 45 0 40 0;
#X coords 0 -1 1 1 210 165 2 200 200;
