#N canvas 186 117 646 369 10;
#X obj 429 -90 loadbang;
#X obj 168 -31 inlet~;
#N canvas 360 82 450 300 (subpatch) 0;
#X array \$0-scope 10000 float 0;
#X coords 0 1 9999 -1 200 140 1;
#X restore 105 120 graph;
#X obj 446 100 f \$0;
#X obj 427 186 pack;
#X obj 382 -61 inlet;
#X obj 424 -46 f \$1;
#X obj 424 -70 t b b;
#X msg 427 236 \; \$2-scope resize \$1 \;;
#X obj 168 42 tabwrite~ \$0-scope;
#X msg 531 28 1;
#X obj 256 103 tgl 15 0 empty empty on/off 17 7 0 10 -262144 -1 -1
0 1;
#X floatatom 174 102 5 0 0 1 zoom - -;
#X msg 174 78 set \$1;
#X obj 262 -48 bang~;
#X obj 262 5 del 0;
#X obj 427 79 t f b;
#X obj 427 58 speedlim 1000;
#X obj 424 8 if 0 1024;
#X obj 424 -15 f;
#X obj 262 -18 multitrigger;
#X obj 316 -39 + 1;
#X obj 540 123 switch~ 4096;
#X obj 315 -60 div 4096;
#X connect 0 0 7 0;
#X connect 0 0 10 0;
#X connect 1 0 9 0;
#X connect 3 0 4 1;
#X connect 4 0 8 0;
#X connect 5 0 19 0;
#X connect 6 0 19 0;
#X connect 7 0 6 0;
#X connect 7 1 3 0;
#X connect 10 0 11 0;
#X connect 11 0 22 0;
#X connect 12 0 18 0;
#X connect 13 0 12 0;
#X connect 14 0 20 0;
#X connect 15 0 9 0;
#X connect 16 0 4 0;
#X connect 17 0 16 0;
#X connect 18 0 17 0;
#X connect 18 0 13 0;
#X connect 18 0 23 0;
#X connect 19 0 18 0;
#X connect 20 0 15 0;
#X connect 21 0 20 1;
#X connect 23 0 21 0;
#X coords 0 -1 1 1 210 165 2 100 100;
