#N canvas 421 263 929 546 10;
#X obj 160 103 osc~ 440;
#X floatatom 158 81 5 0 0 0 - - -, f 5;
#X text 69 43 zoom is in samples (which the right inlet/number box/creation
argument controls).;
#X floatatom 330 94 5 0 0 0 - - -, f 5;
#X msg 433 130 \; pd dsp 1;
#X text 2 203 [oscope~ 44100 1] -->;
#X text 717 301 <-- [oscope~ 44100];
#X text 68 10 oscilloscope that calculates/writes with multiples of
a blocksize of 1024;
#X text 54 335 if the second argument is 1 the scope will update the
display after every block;
#X obj 167 138 oscope~ 44100 1;
#X obj 465 226 oscope~ 44100;
#X connect 0 0 9 0;
#X connect 0 0 10 0;
#X connect 1 0 0 0;
#X connect 3 0 9 1;
