#N canvas 315 79 712 413 10;
#X obj 425 21 loadbang;
#X obj 164 80 inlet~;
#N canvas 360 82 450 300 (subpatch) 0;
#X array \$0-scope 1024 float 0;
#X coords 0 1 1023 -1 200 140 1;
#X restore 205 221 graph;
#X obj 442 211 f \$0;
#X obj 423 297 pack;
#X obj 378 50 inlet;
#X obj 420 65 f \$1;
#X obj 420 41 t b b;
#X msg 423 347 \; \$2-scope resize \$1 \;;
#X obj 164 153 tabwrite~ \$0-scope;
#X msg 527 139 1;
#X obj 356 204 tgl 15 0 \$0-fromtog \$0-totog on/off 17 7 0 10 -262144
-1 -1 1 1;
#X floatatom 274 203 5 0 0 1 zoom #0-tobox #0-frombox, f 5;
#X msg 351 140 set \$1;
#X obj 241 42 bang~;
#X obj 420 119 if 0 1024;
#X obj 420 96 f;
#X obj 536 234 switch~ 4096;
#X obj 329 75 div 4096;
#X obj 334 96 + 1;
#X obj 217 68 cyclecount;
#X msg 181 122 start \$1;
#X obj 222 96 * 4096;
#X msg 135 129 0;
#X obj 37 119 tabread \$0-scope;
#X msg 65 86 0;
#X obj 11 149 tabwrite \$0-scope;
#X obj 121 71 spigot;
#X obj 178 13 f \$2;
#X obj 178 38 == 0;
#X obj 331 168 s \$0-tobox;
#X obj 485 78 r \$0-frombox;
#X obj 529 165 s \$0-totog;
#X obj 536 205 r \$0-fromtog;
#X obj 429 185 iemlib/speedlim 1000;
#X connect 0 0 7 0;
#X connect 0 0 10 0;
#X connect 0 0 23 0;
#X connect 0 0 28 0;
#X connect 1 0 9 0;
#X connect 3 0 4 1;
#X connect 4 0 8 0;
#X connect 5 0 16 0;
#X connect 6 0 16 0;
#X connect 7 0 6 0;
#X connect 7 1 3 0;
#X connect 10 0 32 0;
#X connect 13 0 30 0;
#X connect 14 0 20 0;
#X connect 14 0 27 0;
#X connect 15 0 13 0;
#X connect 15 0 18 0;
#X connect 15 0 34 0;
#X connect 16 0 15 0;
#X connect 18 0 19 0;
#X connect 19 0 20 1;
#X connect 20 0 22 0;
#X connect 21 0 9 0;
#X connect 22 0 21 0;
#X connect 23 0 26 1;
#X connect 24 0 26 0;
#X connect 25 0 24 0;
#X connect 27 0 25 0;
#X connect 28 0 29 0;
#X connect 29 0 27 1;
#X connect 31 0 15 0;
#X connect 33 0 17 0;
#X connect 34 0 4 0;
#X coords 0 -1 1 1 210 165 2 200 200;
