#N canvas 292 461 646 369 10;
#X obj 429 -90 loadbang;
#X obj 168 -31 inlet~;
#N canvas 360 82 450 300 (subpatch) 0;
#X array \$0-scope 1024 float 0;
#X coords 0 1 1023 -1 200 140 1;
#X restore 105 120 graph;
#X obj 446 100 f \$0;
#X obj 427 186 pack;
#X obj 382 -61 inlet;
#X obj 424 -46 f \$1;
#X obj 424 -70 t b b;
#X msg 427 236 \; \$2-scope resize \$1 \;;
#X obj 168 42 tabwrite~ \$0-scope;
#X msg 531 28 1;
#X obj 256 103 tgl 15 0 empty empty on/off 17 7 0 10 -262144 -1 -1
1 1;
#X floatatom 174 102 5 0 0 1 zoom - -;
#X msg 174 78 set \$1;
#X obj 245 -69 bang~;
#X obj 427 58 speedlim 1000;
#X obj 424 8 if 0 1024;
#X obj 424 -15 f;
#X obj 540 123 switch~ 4096;
#X obj 333 -36 div 4096;
#X obj 338 -15 + 1;
#X floatatom 351 18 5 0 0 0 - - -;
#X obj 221 -43 cyclecount;
#X msg 185 11 start \$1;
#X floatatom 333 35 5 0 0 0 - - -;
#X obj 226 -15 * 4096;
#X floatatom 306 12 5 0 0 0 - - -;
#X msg 139 18 0;
#X obj 41 8 tabread \$0-scope;
#X msg 69 -25 0;
#X obj 15 38 tabwrite \$0-scope;
#X obj 125 -40 spigot;
#X obj 182 -98 f \$2;
#X obj 182 -73 == 0;
#X connect 0 0 7 0;
#X connect 0 0 10 0;
#X connect 0 0 27 0;
#X connect 0 0 32 0;
#X connect 1 0 9 0;
#X connect 3 0 4 1;
#X connect 4 0 8 0;
#X connect 5 0 17 0;
#X connect 6 0 17 0;
#X connect 7 0 6 0;
#X connect 7 1 3 0;
#X connect 10 0 11 0;
#X connect 11 0 18 0;
#X connect 12 0 16 0;
#X connect 13 0 12 0;
#X connect 14 0 22 0;
#X connect 14 0 31 0;
#X connect 15 0 4 0;
#X connect 16 0 15 0;
#X connect 16 0 13 0;
#X connect 16 0 19 0;
#X connect 17 0 16 0;
#X connect 19 0 20 0;
#X connect 20 0 21 0;
#X connect 20 0 22 1;
#X connect 22 0 25 0;
#X connect 23 0 9 0;
#X connect 25 0 23 0;
#X connect 27 0 30 1;
#X connect 28 0 30 0;
#X connect 29 0 28 0;
#X connect 31 0 29 0;
#X connect 32 0 33 0;
#X connect 33 0 31 1;
#X coords 0 -1 1 1 210 165 2 100 100;
