#N canvas 73 186 588 447 10;
#X obj 133 274 sampphase~;
#X obj 205 31 inlet;
#X obj 163 30 inlet~;
#X obj 99 69 sig~;
#X obj 100 27 loadbang;
#X obj 100 49 samplerate~;
#X obj 148 127 /~;
#X obj 175 193 +~ 1;
#X obj 148 224 *~;
#X obj 175 223 *~;
#X obj 150 379 outlet~;
#X obj 133 250 /~;
#X obj 229 154 phasor~;
#X obj 213 175 >~;
#X obj 217 199 1-0switch~;
#X obj 214 297 outlet~;
#X obj 384 297 outlet~;
#X obj 382 261 /~;
#X obj 271 264 /~;
#X obj 271 295 outlet~;
#X obj 211 57 / 2;
#X obj 211 76 - 1;
#X obj 162 101 min~ 22049;
#X obj 160 343 -~;
#X obj 169 321 samphold~;
#X obj 148 150 modf~;
#X connect 0 0 24 1;
#X connect 0 0 24 0;
#X connect 0 0 23 0;
#X connect 0 1 15 0;
#X connect 1 0 0 1;
#X connect 2 0 12 0;
#X connect 2 0 22 0;
#X connect 3 0 6 0;
#X connect 3 0 11 0;
#X connect 3 0 17 0;
#X connect 3 0 18 0;
#X connect 4 0 5 0;
#X connect 5 0 3 0;
#X connect 5 0 20 0;
#X connect 6 0 25 0;
#X connect 7 0 9 0;
#X connect 7 0 18 1;
#X connect 8 0 11 1;
#X connect 9 0 11 1;
#X connect 11 0 0 0;
#X connect 12 0 13 1;
#X connect 13 0 14 0;
#X connect 13 0 9 1;
#X connect 14 0 8 1;
#X connect 17 0 16 0;
#X connect 18 0 19 0;
#X connect 20 0 21 0;
#X connect 21 0 22 1;
#X connect 22 0 6 1;
#X connect 23 0 10 0;
#X connect 24 0 23 1;
#X connect 25 0 7 0;
#X connect 25 0 8 0;
#X connect 25 0 17 1;
#X connect 25 1 13 0;
