#N canvas 30 68 588 447 10;
#X obj 133 274 sampphase~;
#X obj 240 22 inlet;
#X obj 192 21 inlet~;
#X obj 134 21 loadbang;
#X obj 134 43 samplerate~;
#X obj 175 193 +~ 1;
#X obj 148 224 *~;
#X obj 175 223 *~;
#X obj 133 369 outlet~;
#X obj 254 147 phasor~;
#X obj 217 199 1-0switch~;
#X obj 190 293 outlet~;
#X obj 323 294 outlet~;
#X obj 271 295 outlet~;
#X obj 219 62 / 2;
#X obj 219 81 - 1;
#X obj 162 101 min~ 22049;
#X obj 148 150 modf~;
#X obj 154 123 rover~;
#X obj 356 247 rover~;
#X obj 247 262 rover~;
#X obj 137 248 rover~;
#X obj 213 175 zexy/>~;
#X connect 0 0 8 0;
#X connect 0 1 11 0;
#X connect 1 0 0 1;
#X connect 2 0 9 0;
#X connect 2 0 16 0;
#X connect 3 0 4 0;
#X connect 4 0 14 0;
#X connect 4 0 21 1;
#X connect 4 0 20 1;
#X connect 4 0 19 1;
#X connect 4 0 18 1;
#X connect 5 0 7 0;
#X connect 5 0 20 0;
#X connect 6 0 21 0;
#X connect 7 0 21 0;
#X connect 9 0 22 1;
#X connect 10 0 6 1;
#X connect 14 0 15 0;
#X connect 15 0 16 1;
#X connect 16 0 18 0;
#X connect 17 0 5 0;
#X connect 17 0 6 0;
#X connect 17 0 19 0;
#X connect 17 1 22 0;
#X connect 18 0 17 0;
#X connect 19 0 12 0;
#X connect 20 0 13 0;
#X connect 21 0 0 0;
#X connect 22 0 10 0;
#X connect 22 0 7 1;
