#N canvas 276 235 707 451 10;
#X obj 149 146 oscphase~;
#X obj 135 96 smoother~;
#X msg 218 118 bang;
#X text 222 101 necessary for sampphase~;
#X obj 150 171 cos~;
#X obj 86 278 outputc~;
#X obj 212 180 dbgr~;
#X obj 214 212 dbgr~;
#X obj 205 296 oscope~;
#X text 105 20 oscillate between integer periods (rather than wrapping
phase);
#X text 278 214 3rd outlet: low frequency;
#X obj 213 239 dbgr~;
#X text 280 246 4th: high frequency;
#X obj 163 225 -~;
#X obj 199 276 /~;
#X obj 188 243 -~;
#X text 280 179 2nd outlet: current frequency;
#X obj 143 70 mtof;
#X floatatom 142 45 5 0 0 0 - - -;
#X connect 0 0 4 0;
#X connect 0 1 6 0;
#X connect 0 1 13 0;
#X connect 0 2 7 0;
#X connect 0 2 13 1;
#X connect 0 2 15 1;
#X connect 0 3 11 0;
#X connect 0 3 15 0;
#X connect 1 0 0 0;
#X connect 2 0 0 1;
#X connect 4 0 5 0;
#X connect 4 0 5 1;
#X connect 13 0 14 0;
#X connect 14 0 8 0;
#X connect 15 0 14 1;
#X connect 17 0 1 0;
#X connect 18 0 17 0;
