#N canvas 494 345 535 480 10;
#X obj 108 115 hsl 42 23 0.01 1 1 0 \$0-v \$0-v1 volume 7 10 1 9 -245500
-13381 -1 2800 0;
#X obj 157 117 tgl 18 0 THIS_IS_HERE_TO_GET_RID_OF_THE_OUTLET \$0-dsp-toggle
dsp 2 8 1 9 -262144 -262144 -62784 0 1;
#N canvas 851 349 482 356 dsp 0;
#X obj 32 76 inlet;
#X obj 130 138 select 0 1;
#X obj 130 61 route dsp;
#X obj 130 40 receive pd;
#X obj 212 62 loadbang;
#X msg 32 151 dsp \$1;
#X obj 32 176 send pd;
#X msg 257 188 set \$1;
#X obj 212 86 value GLOBAL_PDDP_DSP;
#X obj 201 222 send \$0-dsp-toggle;
#X msg 130 164 0;
#X msg 56 97 set \$1;
#X obj 32 125 change;
#X obj 130 112 zexy/nop;
#X msg 158 164 18;
#X msg 136 188 color \$1 0 18;
#X connect 0 0 12 0;
#X connect 1 0 10 0;
#X connect 1 1 14 0;
#X connect 2 0 11 0;
#X connect 2 0 13 0;
#X connect 2 0 8 0;
#X connect 3 0 2 0;
#X connect 4 0 8 0;
#X connect 5 0 6 0;
#X connect 7 0 9 0;
#X connect 8 0 11 0;
#X connect 8 0 13 0;
#X connect 10 0 15 0;
#X connect 11 0 12 0;
#X connect 12 0 5 0;
#X connect 13 0 1 0;
#X connect 13 0 7 0;
#X connect 14 0 15 0;
#X connect 15 0 9 0;
#X restore 170 204 pd dsp logic;
#X obj 211 22 inlet~;
#X obj 96 293 line~;
#X obj 173 305 *~;
#X obj 212 352 dac~;
#X text 223 42 audio in;
#X obj 273 22 inlet~;
#X obj 247 302 *~;
#X obj 96 272 pack 0 50;
#X text 163 271 <-- make a ramp to avoid clicks or zipper noise;
#X msg 96 237 0;
#X text 317 94 filter out DC;
#X obj 52 158 sel 1;
#X obj 371 380 outlet;
#X obj 375 33 inlet;
#X obj 122 32 f \$1;
#X obj 125 7 loadbang;
#X obj 52 138 > 0.01;
#X obj 104 141 bng 15 250 50 0 empty empty Start_rec. 17 7 0 10 -258113
-4160 -1;
#X obj 104 158 bng 15 250 50 0 empty empty Stop_rec. 17 7 0 10 -4034
-4160 -1;
#X msg 169 404 open -bytes 3 \$1 \, start;
#X obj 166 380 savepanel;
#X obj 216 440 writesf~ 2;
#X msg 259 380 stop;
#X obj 96 214 moses 0.015;
#X obj 368 65 s \$0-v1;
#X obj 247 327 clip~ -1 1;
#X obj 173 327 clip~ -1 1;
#X msg 113 68 set \$1;
#X msg 52 179 1;
#X obj 116 426 outlet~;
#X obj 30 415 outlet~;
#X connect 0 0 15 0;
#X connect 0 0 26 0;
#X connect 0 0 19 0;
#X connect 1 0 2 0;
#X connect 3 0 5 1;
#X connect 4 0 9 0;
#X connect 4 0 5 0;
#X connect 5 0 29 0;
#X connect 5 0 33 0;
#X connect 5 0 24 0;
#X connect 8 0 9 1;
#X connect 9 0 28 0;
#X connect 9 0 32 0;
#X connect 9 0 24 1;
#X connect 10 0 4 0;
#X connect 12 0 10 0;
#X connect 14 0 31 0;
#X connect 16 0 27 0;
#X connect 17 0 30 0;
#X connect 17 0 26 0;
#X connect 18 0 17 0;
#X connect 19 0 14 0;
#X connect 20 0 23 0;
#X connect 21 0 25 0;
#X connect 22 0 24 0;
#X connect 23 0 22 0;
#X connect 25 0 24 0;
#X connect 26 0 12 0;
#X connect 26 1 10 0;
#X connect 28 0 6 1;
#X connect 29 0 6 0;
#X connect 30 0 0 0;
#X connect 31 0 2 0;
#X coords 0 -1 1 1 80 78 1 100 100;
