#N canvas 576 210 535 480 10;
#X obj 106 115 hsl 42 23 0.01 1 1 0 \$0-v \$0-v volume 7 13 1 9 -245500
-13381 -1 0 0;
#X obj 150 115 tgl 18 0 THIS_IS_HERE_TO_GET_RID_OF_THE_OUTLET \$0-dsp-toggle
dsp 2 9 1 9 -225271 -195568 -33289 1 1;
#N canvas 851 349 482 356 dsp 0;
#X obj 11 7 inlet;
#X obj 92 226 select 0 1;
#X msg 125 248 6;
#X obj 92 57 route dsp;
#X obj 92 36 receive pd;
#X obj 206 138 loadbang;
#X msg 11 220 dsp \$1;
#X obj 11 245 send pd;
#X msg 206 278 set \$1;
#X obj 206 174 value GLOBAL_PDDP_DSP;
#X msg 109 278 color \$1 20 12;
#X obj 180 309 send \$0-dsp-toggle;
#X obj 92 115 change;
#X msg 92 247 0;
#X connect 0 0 6 0;
#X connect 0 0 12 0;
#X connect 1 0 13 0;
#X connect 1 1 2 0;
#X connect 2 0 10 0;
#X connect 3 0 12 0;
#X connect 4 0 3 0;
#X connect 5 0 9 0;
#X connect 6 0 7 0;
#X connect 8 0 11 0;
#X connect 9 0 8 0;
#X connect 9 0 1 0;
#X connect 10 0 11 0;
#X connect 12 0 8 0;
#X connect 12 0 1 0;
#X connect 12 0 9 0;
#X connect 13 0 10 0;
#X restore 126 180 pd dsp logic;
#X obj 211 22 inlet~;
#X obj 96 293 line~;
#X obj 196 353 *~;
#X obj 216 383 dac~;
#X text 223 42 audio in;
#X obj 273 22 inlet~;
#X obj 258 352 *~;
#X obj 211 93 hip~ 3;
#X obj 273 93 hip~ 3;
#X obj 25 362 send pd;
#X msg 24 320 dsp 1;
#X obj 96 272 pack 0 50;
#X text 163 271 <-- make a ramp to avoid clicks or zipper noise;
#X msg 96 237 0;
#X text 317 94 filter out DC;
#X obj 22 210 spigot 1;
#X msg 68 185 0;
#X obj 22 277 sel 1;
#X obj 96 214 moses 0.01;
#X obj 105 376 outlet;
#X obj 375 33 inlet;
#X obj 148 69 f \$1;
#X obj 143 20 loadbang;
#X obj 122 45 t b b;
#X obj 22 248 > 0.01;
#X connect 0 0 18 0;
#X connect 0 0 21 0;
#X connect 0 0 22 0;
#X connect 1 0 2 0;
#X connect 3 0 10 0;
#X connect 4 0 9 0;
#X connect 4 0 5 0;
#X connect 5 0 6 0;
#X connect 8 0 11 0;
#X connect 9 0 6 1;
#X connect 10 0 5 1;
#X connect 11 0 9 1;
#X connect 13 0 12 0;
#X connect 14 0 4 0;
#X connect 16 0 14 0;
#X connect 18 0 27 0;
#X connect 19 0 18 1;
#X connect 20 0 13 0;
#X connect 20 0 19 0;
#X connect 21 0 16 0;
#X connect 21 1 14 0;
#X connect 23 0 0 0;
#X connect 24 0 0 0;
#X connect 25 0 26 0;
#X connect 26 0 0 0;
#X connect 26 1 24 0;
#X connect 27 0 20 0;
#X coords 0 -1 1 1 70 40 1 100 100;
