#N canvas 656 164 737 550 10;
#X obj 160 120 rmstodb;
#X obj 157 140 - 100;
#X obj 182 10 inlet~;
#X obj 311 24 inlet~;
#X obj 320 142 rmstodb;
#X obj 242 144 - 100;
#X obj 320 365 dac~;
#X obj 361 10 loadbang;
#N canvas 388 475 482 356 dsp 0;
#X obj 32 76 inlet;
#X obj 130 138 select 0 1;
#X obj 130 61 route dsp;
#X obj 130 40 receive pd;
#X obj 212 62 loadbang;
#X msg 32 151 dsp \$1;
#X obj 32 176 send pd;
#X msg 241 191 set \$1;
#X obj 212 86 value GLOBAL_PDDP_DSP;
#X obj 201 222 send \$0-dsp-toggle;
#X msg 130 164 0;
#X msg 56 97 set \$1;
#X obj 32 125 change;
#X obj 130 112 zexy/nop;
#X msg 144 191 color \$1 0 18;
#X msg 158 164 18;
#X connect 0 0 12 0;
#X connect 1 0 10 0;
#X connect 1 1 15 0;
#X connect 2 0 11 0;
#X connect 2 0 13 0;
#X connect 2 0 8 0;
#X connect 3 0 2 0;
#X connect 4 0 8 0;
#X connect 5 0 6 0;
#X connect 7 0 9 0;
#X connect 8 0 11 0;
#X connect 8 0 13 0;
#X connect 10 0 14 0;
#X connect 11 0 12 0;
#X connect 12 0 5 0;
#X connect 13 0 1 0;
#X connect 13 0 7 0;
#X connect 14 0 9 0;
#X connect 15 0 14 0;
#X restore 208 208 pd dsp logic;
#X msg 233 441 open -bytes 3 \$1 \, start;
#X obj 230 417 savepanel;
#X obj 280 477 writesf~ 2;
#X msg 323 417 stop;
#X obj 362 217 clip~ -1 1;
#X obj 275 285 clip~ -1 1;
#X obj 365 35 f \$1;
#X obj 167 97 iemlib/unsig~ 20;
#X obj 322 118 iemlib/unsig~ 20;
#X obj 648 200 f \$2;
#X obj 479 365 del;
#X obj 398 373 rmstodb;
#X obj 395 393 - 100;
#X obj 484 339 b;
#X msg 458 314 0;
#X msg 500 313 1;
#X obj 500 286 zexy/nop;
#X obj 640 384 del;
#X obj 559 392 rmstodb;
#X obj 556 412 - 100;
#X obj 645 358 b;
#X msg 619 333 0;
#X msg 661 332 1;
#X obj 661 305 zexy/nop;
#X obj 562 342 spigot 1;
#X obj 401 323 spigot 1;
#X obj 283 48 hip~ 5;
#X obj 169 38 hip~ 5;
#X obj 409 288 moses 1;
#X obj 570 307 moses 1;
#X obj 101 184 cnv 15 97 165 empty empty empty 20 12 0 14 #fc8000 #404040
0;
#X obj 105 224 vu 15 120 empty empty -1 -8 0 10 #0800d0 #000000 1 0
;
#X obj 154 224 vu 15 120 empty empty -1 -8 0 10 #0800d0 #000000 1 0
;
#X obj 178 200 tgl 15 0 THIS_IS_HERE_TO_GET_RID_OF_THE_OUTLET \$0-dsp-toggle
dsp 1 6 1 9 #fcfcfc #fcfcfc #3c50fc 0 1;
#X obj 104 186 bng 15 250 50 0 empty empty Start_rec. 17 7 0 10 #fc0400
#0400fc #000000;
#X obj 104 203 bng 15 250 50 0 empty empty Stop_rec. 17 7 0 10 #00fc04
#0400fc #000000;
#X obj 172 78 ./sigenv~ 7;
#X obj 305 92 ./sigenv~ 7;
#X obj 416 254 ./highest~;
#X obj 571 272 ./highest~;
#X obj 643 243 ./if 0 1500;
#X obj 364 58 ./if 0 7;
#X connect 0 0 1 0;
#X connect 1 0 40 0;
#X connect 2 0 11 0;
#X connect 2 0 14 0;
#X connect 2 0 47 0;
#X connect 2 0 36 0;
#X connect 3 0 11 1;
#X connect 3 0 13 0;
#X connect 3 0 48 0;
#X connect 3 0 35 0;
#X connect 4 0 5 0;
#X connect 5 0 41 0;
#X connect 7 0 15 0;
#X connect 7 0 18 0;
#X connect 9 0 11 0;
#X connect 10 0 9 0;
#X connect 12 0 11 0;
#X connect 13 0 6 1;
#X connect 14 0 6 0;
#X connect 15 0 50 0;
#X connect 16 0 0 0;
#X connect 17 0 4 0;
#X connect 18 0 49 0;
#X connect 19 0 24 0;
#X connect 20 0 21 0;
#X connect 22 0 19 0;
#X connect 23 0 34 1;
#X connect 24 0 34 1;
#X connect 24 0 37 1;
#X connect 25 0 37 1;
#X connect 26 0 31 0;
#X connect 27 0 28 0;
#X connect 28 0 41 1;
#X connect 29 0 26 0;
#X connect 30 0 33 1;
#X connect 31 0 33 1;
#X connect 31 0 38 1;
#X connect 32 0 38 1;
#X connect 33 0 27 0;
#X connect 34 0 20 0;
#X connect 35 0 46 0;
#X connect 36 0 45 0;
#X connect 37 0 34 0;
#X connect 37 1 20 0;
#X connect 37 1 22 0;
#X connect 37 1 23 0;
#X connect 37 1 25 0;
#X connect 38 0 33 0;
#X connect 38 1 27 0;
#X connect 38 1 29 0;
#X connect 38 1 30 0;
#X connect 38 1 32 0;
#X connect 42 0 8 0;
#X connect 43 0 10 0;
#X connect 44 0 12 0;
#X connect 45 0 16 0;
#X connect 46 0 17 0;
#X connect 47 0 37 0;
#X connect 48 0 38 0;
#X connect 49 0 19 1;
#X connect 49 0 26 1;
#X connect 50 0 45 1;
#X connect 50 0 46 1;
#X coords 0 -1 1 1 99 180 1 100 170;
