#N canvas 656 164 737 550 10;
#X declare -lib iem_tab;
#X declare -lib iem_tab;
#X obj 104 154 vu 15 120 empty empty -1 -8 0 10 -8245 -1 1 0;
#X obj 104 58 rmstodb;
#X obj 101 78 - 100;
#X obj 172 -12 inlet~;
#X obj 255 1 inlet~;
#X obj 264 80 rmstodb;
#X obj 186 82 - 100;
#X obj 153 154 vu 15 120 empty empty -1 -8 0 10 -8245 -1 1 0;
#X obj 195 327 dac~;
#X obj 359 -8 loadbang;
#X obj 416 11 f \$2;
#X obj 111 35 unsig~ 20;
#X obj 266 56 unsig~ 20;
#X obj 415 34 if 0 7;
#X obj -7 46 rmstodb;
#X obj -1 76 - 100;
#X obj 379 62 highest~;
#X obj 370 85 rmstodb;
#X obj 376 115 - 100;
#X obj -9 19 highest~;
#X obj 176 103 tgl 14 0 THIS_IS_HERE_TO_GET_RID_OF_THE_OUTLET \$0-dsp-toggle
dsp 0 5 1 9 -262144 -195568 -33289 0 1;
#N canvas 366 514 482 356 dsp 0;
#X obj 11 7 inlet;
#X obj 92 226 select 0 1;
#X msg 125 248 6;
#X obj 92 57 route dsp;
#X obj 92 36 receive pd;
#X obj 206 138 loadbang;
#X msg 11 220 dsp \$1;
#X obj 11 245 send pd;
#X msg 206 278 set \$1;
#X obj 206 174 value GLOBAL_PDDP_DSP;
#X msg 109 278 color \$1 20 12;
#X obj 180 309 send \$0-dsp-toggle;
#X obj 92 115 change;
#X msg 92 247 0;
#X connect 0 0 6 0;
#X connect 0 0 12 0;
#X connect 1 0 13 0;
#X connect 1 1 2 0;
#X connect 2 0 10 0;
#X connect 3 0 12 0;
#X connect 4 0 3 0;
#X connect 5 0 9 0;
#X connect 6 0 7 0;
#X connect 8 0 11 0;
#X connect 9 0 8 0;
#X connect 9 0 1 0;
#X connect 10 0 11 0;
#X connect 12 0 8 0;
#X connect 12 0 1 0;
#X connect 12 0 9 0;
#X connect 13 0 10 0;
#X restore 287 189 pd dsp logic;
#X obj 342 19 f \$1;
#X obj 334 66 if 0 3;
#X obj 301 213 hip~;
#X obj 1 213 hip~;
#X obj 249 30 sigenv~ 7;
#X obj 116 16 sigenv~ 7;
#X obj 112 116 bng 15 250 50 0 empty empty Start_rec. 17 7 0 10 -258113
-4160 -1;
#X obj 112 133 bng 15 250 50 0 empty empty Stop_rec. 17 7 0 10 -4034
-4160 -1;
#X msg 177 379 open -bytes 3 \$1 \, start;
#X obj 174 355 savepanel;
#X obj 224 415 writesf~ 2;
#X msg 267 355 stop;
#X connect 1 0 2 0;
#X connect 2 0 0 0;
#X connect 3 0 19 0;
#X connect 3 0 25 0;
#X connect 3 0 27 0;
#X connect 3 0 32 0;
#X connect 4 0 16 0;
#X connect 4 0 24 0;
#X connect 4 0 26 0;
#X connect 4 0 32 1;
#X connect 5 0 6 0;
#X connect 6 0 7 0;
#X connect 9 0 10 0;
#X connect 9 0 22 0;
#X connect 10 0 13 0;
#X connect 11 0 1 0;
#X connect 12 0 5 0;
#X connect 13 0 26 1;
#X connect 13 0 27 1;
#X connect 14 0 15 0;
#X connect 15 0 0 1;
#X connect 16 0 17 0;
#X connect 17 0 18 0;
#X connect 18 0 7 1;
#X connect 19 0 14 0;
#X connect 20 0 21 0;
#X connect 22 0 23 0;
#X connect 23 0 24 1;
#X connect 23 0 25 1;
#X connect 24 0 8 1;
#X connect 25 0 8 0;
#X connect 26 0 12 0;
#X connect 27 0 11 0;
#X connect 28 0 31 0;
#X connect 29 0 33 0;
#X connect 30 0 32 0;
#X connect 31 0 30 0;
#X connect 33 0 32 0;
#X coords 0 -1 1 1 98 180 1 100 100;
