#N canvas 656 164 737 550 10;
#X obj 105 224 vu 15 120 empty empty -1 -8 0 10 -8245 -1 1 0;
#X obj 160 120 rmstodb;
#X obj 157 140 - 100;
#X obj 183 28 inlet~;
#X obj 311 63 inlet~;
#X obj 320 142 rmstodb;
#X obj 242 144 - 100;
#X obj 154 224 vu 15 120 empty empty -1 -8 0 10 -8245 -1 1 0;
#X obj 320 365 dac~;
#X obj 361 10 loadbang;
#X obj 364 58 if 0 7;
#X obj 179 175 tgl 15 0 THIS_IS_HERE_TO_GET_RID_OF_THE_OUTLET \$0-dsp-toggle
dsp 1 6 1 9 -262144 -262144 -62784 0 1;
#N canvas 388 475 482 356 dsp 0;
#X obj 32 76 inlet;
#X obj 130 138 select 0 1;
#X obj 130 61 route dsp;
#X obj 130 40 receive pd;
#X obj 212 62 loadbang;
#X msg 32 151 dsp \$1;
#X obj 32 176 send pd;
#X msg 241 191 set \$1;
#X obj 212 86 value GLOBAL_PDDP_DSP;
#X obj 201 222 send \$0-dsp-toggle;
#X msg 130 164 0;
#X msg 56 97 set \$1;
#X obj 32 125 change;
#X obj 130 112 zexy/nop;
#X msg 144 191 color \$1 0 18;
#X msg 158 164 18;
#X connect 0 0 12 0;
#X connect 1 0 10 0;
#X connect 1 1 15 0;
#X connect 2 0 11 0;
#X connect 2 0 13 0;
#X connect 2 0 8 0;
#X connect 3 0 2 0;
#X connect 4 0 8 0;
#X connect 5 0 6 0;
#X connect 7 0 9 0;
#X connect 8 0 11 0;
#X connect 8 0 13 0;
#X connect 10 0 14 0;
#X connect 11 0 12 0;
#X connect 12 0 5 0;
#X connect 13 0 1 0;
#X connect 13 0 7 0;
#X connect 14 0 9 0;
#X connect 15 0 14 0;
#X restore 208 208 pd dsp logic;
#X obj 305 92 sigenv~ 7;
#X obj 172 78 sigenv~ 7;
#X obj 104 186 bng 15 250 50 0 empty empty Start_rec. 17 7 0 10 -258113
-4160 -1;
#X obj 104 203 bng 15 250 50 0 empty empty Stop_rec. 17 7 0 10 -4034
-4160 -1;
#X msg 233 441 open -bytes 3 \$1 \, start;
#X obj 230 417 savepanel;
#X obj 280 477 writesf~ 2;
#X msg 323 417 stop;
#X obj 362 217 clip~ -1 1;
#X obj 275 285 clip~ -1 1;
#X obj 365 35 f \$1;
#X obj 167 97 iemlib/unsig~ 20;
#X obj 322 118 iemlib/unsig~ 20;
#X obj 416 254 highest~;
#X obj 648 200 f \$2;
#X obj 643 243 if 0 1500;
#X obj 571 272 highest~;
#X obj 479 365 del;
#X obj 409 288 passif < 1;
#X obj 398 373 rmstodb;
#X obj 395 393 - 100;
#X obj 484 339 b;
#X msg 458 314 0;
#X msg 500 313 1;
#X obj 500 286 zexy/nop;
#X obj 640 384 del;
#X obj 570 307 passif < 1;
#X obj 559 392 rmstodb;
#X obj 556 412 - 100;
#X obj 645 358 b;
#X msg 619 333 0;
#X msg 661 332 1;
#X obj 661 305 zexy/nop;
#X obj 562 342 spigot 1;
#X obj 401 323 spigot 1;
#X connect 1 0 2 0;
#X connect 2 0 0 0;
#X connect 3 0 14 0;
#X connect 3 0 19 0;
#X connect 3 0 22 0;
#X connect 3 0 26 0;
#X connect 4 0 13 0;
#X connect 4 0 19 1;
#X connect 4 0 21 0;
#X connect 4 0 29 0;
#X connect 5 0 6 0;
#X connect 6 0 7 0;
#X connect 9 0 23 0;
#X connect 9 0 27 0;
#X connect 10 0 13 1;
#X connect 10 0 14 1;
#X connect 11 0 12 0;
#X connect 13 0 25 0;
#X connect 14 0 24 0;
#X connect 15 0 18 0;
#X connect 16 0 20 0;
#X connect 17 0 19 0;
#X connect 18 0 17 0;
#X connect 20 0 19 0;
#X connect 21 0 8 1;
#X connect 22 0 8 0;
#X connect 23 0 10 0;
#X connect 24 0 1 0;
#X connect 25 0 5 0;
#X connect 26 0 31 0;
#X connect 27 0 28 0;
#X connect 28 0 30 1;
#X connect 28 0 38 1;
#X connect 29 0 39 0;
#X connect 30 0 36 0;
#X connect 31 0 47 0;
#X connect 31 1 32 0;
#X connect 31 1 34 0;
#X connect 31 1 35 0;
#X connect 31 1 37 0;
#X connect 32 0 33 0;
#X connect 33 0 0 1;
#X connect 34 0 30 0;
#X connect 35 0 47 1;
#X connect 36 0 31 1;
#X connect 36 0 47 1;
#X connect 37 0 31 1;
#X connect 38 0 44 0;
#X connect 39 0 46 0;
#X connect 39 1 40 0;
#X connect 39 1 42 0;
#X connect 39 1 43 0;
#X connect 39 1 45 0;
#X connect 40 0 41 0;
#X connect 41 0 7 1;
#X connect 42 0 38 0;
#X connect 43 0 46 1;
#X connect 44 0 39 1;
#X connect 44 0 46 1;
#X connect 45 0 39 1;
#X connect 46 0 40 0;
#X connect 47 0 32 0;
#X coords 0 -1 1 1 98 180 1 100 170;
