#N canvas 0 23 450 300 10;
#X obj 235 116 \$1 \$2;
#X obj 253 43 inlet;
#X obj 188 67 inlet;
#X obj 194 87 t f f;
#X obj 156 154 zexy/demultiplex;
#X obj 153 226 outlet;
#X obj 289 234 outlet;
#X connect 0 0 4 1;
#X connect 1 0 0 1;
#X connect 2 0 3 0;
#X connect 3 0 4 0;
#X connect 3 1 0 0;
#X connect 4 0 6 0;
#X connect 4 1 5 0;
