#N canvas 0 23 450 300 10;
#X floatatom 56 84 5 0 0 0 - - -;
#X floatatom 136 96 5 0 0 0 - - -;
#X obj 57 180 print passed;
#X obj 154 207 print didn't;
#X text 52 23 passes value out of the left outlet if a comparison is
true \, and the right outlet if not;
#X text 143 129 <- pass out left outlet if greater than 5;
#X obj 64 127 ./passif > 5;
#X connect 0 0 6 0;
#X connect 1 0 6 1;
#X connect 6 0 2 0;
#X connect 6 1 3 0;
