#N canvas 51 59 450 300 10;
#X obj 229 120 window_name;
#X obj 229 144 sel .x0 .x0.c;
#X obj 229 71 cup;
#X obj 228 49 until;
#X obj 229 94 t f f;
#X obj 229 171 f;
#X obj 227 224 outlet;
#X obj 229 1 inlet;
#X obj 229 197 - 2;
#X obj 228 25 t b b;
#X msg 269 50 0;
#X connect 0 0 1 0;
#X connect 1 0 3 1;
#X connect 1 0 5 0;
#X connect 1 1 3 1;
#X connect 1 1 5 0;
#X connect 2 0 4 0;
#X connect 3 0 2 0;
#X connect 4 0 0 0;
#X connect 4 1 5 1;
#X connect 5 0 8 0;
#X connect 7 0 9 0;
#X connect 8 0 6 0;
#X connect 9 0 3 0;
#X connect 9 1 10 0;
#X connect 10 0 2 0;
