#N canvas 457 38 604 315 10;
#X text 126 30 after making cyclout why not make purepd gate?;
#X msg 121 101 a message;
#X obj 143 160 print 1;
#X obj 164 184 print 2;
#X obj 180 211 print 3;
#X obj 201 235 print 4;
#X obj 224 260 print 5;
#X floatatom 201 110 5 0 7 0 - - -;
#X text 145 51 functions like cyclone gate except inlets are reversed
\, second argument initializes gate;
#X obj 143 135 pdgate 5 2;
#X msg 248 115 bang;
#X obj 371 108 cyclone/gate;
#X obj 403 161 pdgate;
#X text 410 142 defaults to 2;
#X connect 1 0 9 0;
#X connect 7 0 9 1;
#X connect 9 0 2 0;
#X connect 9 1 3 0;
#X connect 9 2 4 0;
#X connect 9 3 5 0;
#X connect 9 4 6 0;
#X connect 10 0 9 1;
