#N canvas 219 143 450 300 10;
#X symbolatom 171 100 30 0 0 0 - - -;
#X obj 115 114 print;
#X obj 116 92 symbol;
#X obj 120 69 bng 15 250 50 0 empty empty empty 17 7 0 10 -262144 -1
-1;
#X msg 334 26 symbol;
#X msg 138 36 he** yes;
#X text 52 25 purepd l2s;
#X text 164 128 argument and right inlet sets delimiter;
#X msg 176 16 list shabam man;
#X obj 173 65 pdl2s;
#X msg 280 41 56;
#X msg 303 21 $;
#X connect 2 0 1 0;
#X connect 3 0 2 0;
#X connect 4 0 9 1;
#X connect 5 0 9 0;
#X connect 8 0 9 0;
#X connect 9 0 0 0;
#X connect 9 0 2 1;
#X connect 10 0 9 1;
#X connect 11 0 9 1;
