#N canvas 699 276 665 589 10;
#X obj 106 72 t b a b;
#X obj 91 429 symbol;
#X obj 124 123 route symbol float;
#X obj 106 31 inlet;
#X obj 94 463 outlet;
#X obj 259 63 loadbang;
#X obj 397 67 inlet;
#X obj 176 146 makefilename %g;
#X obj 124 99 list-drip;
#X obj 257 120 sel 0;
#X obj 283 147 symbol;
#X obj 205 283 pack s s s;
#X msg 263 247 symbol %c;
#X obj 125 236 sel 0 1;
#X obj 124 214 f;
#X msg 154 351 symbol;
#X msg 123 347 32;
#X msg 148 199 1;
#X msg 176 201 0;
#X obj 123 179 t b s;
#X msg 250 366 set \$3\$2\$1;
#X obj 144 277 f;
#X msg 222 245 1;
#X msg 187 253 0;
#X obj 187 229 once;
#X obj 135 314 sel 0 1;
#X obj 206 304 list prepend;
#X obj 205 325 route 1 0;
#X msg 198 365 set \$1;
#X obj 122 400 makefilename %s;
#X obj 210 346 list;
#X obj 249 345 list;
#X obj 255 97 list \$1;
#X obj 352 111 route float;
#X obj 345 138 makefilename %g;
#X connect 0 0 1 0;
#X connect 0 1 8 0;
#X connect 0 2 24 1;
#X connect 0 2 22 0;
#X connect 1 0 4 0;
#X connect 2 0 19 0;
#X connect 2 1 7 0;
#X connect 3 0 0 0;
#X connect 5 0 32 0;
#X connect 6 0 33 0;
#X connect 7 0 19 0;
#X connect 8 0 2 0;
#X connect 9 0 12 0;
#X connect 9 0 17 0;
#X connect 9 1 10 0;
#X connect 10 0 11 1;
#X connect 10 0 18 0;
#X connect 11 0 26 0;
#X connect 12 0 11 1;
#X connect 13 0 15 0;
#X connect 13 1 21 0;
#X connect 14 0 13 0;
#X connect 15 0 29 0;
#X connect 16 0 29 0;
#X connect 17 0 14 1;
#X connect 18 0 14 1;
#X connect 19 0 14 0;
#X connect 19 1 11 0;
#X connect 20 0 29 0;
#X connect 21 0 25 0;
#X connect 22 0 21 1;
#X connect 22 0 26 1;
#X connect 23 0 21 1;
#X connect 23 0 26 1;
#X connect 24 0 23 0;
#X connect 25 0 16 0;
#X connect 25 1 15 0;
#X connect 26 0 27 0;
#X connect 27 0 30 0;
#X connect 27 1 31 0;
#X connect 28 0 29 0;
#X connect 29 0 1 1;
#X connect 29 0 11 2;
#X connect 29 0 24 0;
#X connect 30 0 28 0;
#X connect 31 0 20 0;
#X connect 32 0 9 0;
#X connect 33 0 34 0;
#X connect 33 1 10 0;
#X connect 34 0 10 0;
