#N canvas 495 299 955 492 10;
#X obj 46 97 list split;
#X obj 80 37 list length;
#X obj 89 62 - 1;
#X obj 43 -33 list split;
#X obj 39 -55 inlet;
#X obj 134 99 cupd;
#X obj 69 126 list prepend;
#X msg 167 68 1;
#X obj 452 -38 initbang;
#X msg 627 193 obj 66 173 route 1 2 3;
#X msg 567 126 add2 \$1;
#X obj 556 78 until;
#X obj 505 126 cup;
#X obj 495 103 until;
#X obj 514 176 + 75;
#X obj 512 151 * 70;
#N canvas 915 442 450 300 objectcount 0;
#X obj 109 47 iemguts/canvasindex;
#X obj 107 21 inlet;
#X obj 207 94 outlet;
#X connect 0 1 2 0;
#X connect 1 0 0 0;
#X restore 618 67 pd objectcount;
#X obj 421 88 cup;
#X obj 433 67 until;
#X obj 449 -11 t b b b b b;
#X obj 567 100 cup;
#X obj 424 176 pack f f f;
#X obj 450 155 +;
#X obj 560 159 t b b;
#X obj 563 195 f;
#X msg 388 204 connect \$3 \$1 \$2 0;
#X obj 420 113 t f f;
#X obj 443 135 + 1;
#X msg 511 36 0;
#X msg 584 44 1;
#X obj 597 12 if 0 2;
#X obj 586 -8 f \$1;
#X obj 543 37 f;
#X obj 498 64 f;
#X obj 446 12 f;
#X obj 481 349 namecanvas \$0-unpack;
#X obj 573 288 s \$0-unpack;
#X msg 627 166 set obj 66 173 route;
#X msg 450 252 obj \$1 394 outlet;
#X obj 93 18 bang;
#X obj 3 124 route bang;
#X obj 47 12 t a a;
#X obj 48 -9 t a a;
#X obj 122 4 list length;
#X msg 561 227 connect 6 0 \$1 0;
#X connect 0 0 40 0;
#X connect 0 1 6 0;
#X connect 1 0 2 0;
#X connect 2 0 0 1;
#X connect 3 0 42 0;
#X connect 3 2 42 0;
#X connect 4 0 3 0;
#X connect 5 0 6 1;
#X connect 7 0 5 1;
#X connect 8 0 19 0;
#X connect 9 0 36 0;
#X connect 10 0 9 0;
#X connect 11 0 20 0;
#X connect 12 0 15 0;
#X connect 13 0 12 0;
#X connect 14 0 38 0;
#X connect 15 0 14 0;
#X connect 16 0 24 1;
#X connect 16 0 21 2;
#X connect 16 0 22 1;
#X connect 17 0 26 0;
#X connect 18 0 17 0;
#X connect 19 0 34 0;
#X connect 19 0 7 0;
#X connect 19 1 33 0;
#X connect 19 2 23 0;
#X connect 19 3 32 0;
#X connect 19 4 16 0;
#X connect 19 4 28 0;
#X connect 19 4 37 0;
#X connect 19 4 29 0;
#X connect 19 4 31 0;
#X connect 20 0 10 0;
#X connect 21 0 25 0;
#X connect 22 0 21 1;
#X connect 23 0 24 0;
#X connect 23 1 9 0;
#X connect 24 0 44 0;
#X connect 25 0 36 0;
#X connect 26 0 21 0;
#X connect 26 1 27 0;
#X connect 27 0 22 0;
#X connect 28 0 12 0;
#X connect 28 0 17 0;
#X connect 29 0 20 0;
#X connect 30 0 32 1;
#X connect 30 0 33 1;
#X connect 30 0 34 1;
#X connect 30 0 3 1;
#X connect 31 0 30 0;
#X connect 32 0 11 0;
#X connect 33 0 13 0;
#X connect 34 0 18 0;
#X connect 37 0 9 0;
#X connect 38 0 36 0;
#X connect 39 0 5 0;
#X connect 40 1 41 0;
#X connect 41 0 0 0;
#X connect 41 1 1 0;
#X connect 41 1 39 0;
#X connect 42 0 41 0;
#X connect 42 1 43 0;
#X connect 43 0 5 0;
#X connect 44 0 36 0;
