#N canvas 200 96 708 666 10;
#X obj 51 253 sel symbol;
#X obj 201 245 makefilename;
#X msg 202 223 set %.\$1s;
#X obj -53 278 sel symbol;
#X obj 55 39 s \$0-s;
#X obj 3 249 r \$0-s;
#X obj -21 153 symbol;
#X obj 12 132 r \$0-i;
#X obj 10 62 b;
#X obj 38 61 symbol;
#X obj 55 200 makefilename;
#X obj 37 -88 inlet;
#X text 388 185 GNU GPL v3;
#X obj -22 556 outlet;
#X obj 38 91 t b b s b;
#X obj 210 24 loadbang;
#X msg 127 105 set %s;
#X obj 56 175 t s s;
#X text 387 209 thank you jonothan wilkes;
#X obj 201 201 cup;
#X msg 200 178 1;
#N canvas 943 473 450 300 testchar 0;
#X obj 92 174 makefilename %c;
#X obj 94 126 until;
#X obj 94 152 cup;
#X obj 98 57 t b b;
#X msg 138 122 0;
#X msg 91 103 127;
#X obj 93 25 inlet;
#X obj 212 30 inlet;
#X obj 94 206 outlet;
#X connect 0 0 8 0;
#X connect 1 0 2 0;
#X connect 2 0 0 0;
#X connect 3 0 5 0;
#X connect 3 1 4 0;
#X connect 4 0 2 0;
#X connect 5 0 1 0;
#X connect 6 0 3 0;
#X connect 7 0 1 1;
#X restore 55 150 pd testchar;
#X obj -22 532 list;
#X obj 207 84 sel 0;
#X msg 208 111 32;
#X obj 219 137 makefilename %c;
#X obj 96 427 makefilename;
#X obj 26 286 symbol;
#X msg 140 174 set \$1%s;
#X obj 23 380 sel symbol;
#X obj 85 273 symbol;
#X obj 54 228 t s s;
#X msg 180 428 set \$1%s;
#X obj 50 470 symbol;
#X msg 134 389 set %s;
#X obj 103 500 list;
#X obj 13 500 list prepend;
#X obj 38 9 t s s b;
#X obj -52 343 t b b;
#X obj 198 277 s \$0-i;
#X obj 37 -59 symbol;
#X obj 208 55 list append \$1;
#X obj 337 17 inlet;
#X text 285 258 will probably only go to 200 characters because of
stack overflow?;
#X obj 336 81 select symbol;
#X msg 411 60 symbol;
#X msg 129 302 1;
#X msg 155 303 0;
#X obj 24 311 list prepend 0;
#X obj 30 332 route 0 1;
#X obj 28 357 symbol;
#X obj 336 58 symbol;
#X msg 148 348 bang;
#X obj -48 411 list;
#X obj 248 343 print;
#X obj 23 402 f;
#X obj 23 424 sel 1;
#X obj 50 446 bang;
#X obj -15 -22 sel symbol;
#X obj -45 21 print usage:;
#N canvas 309 69 450 300 error 0;
#X obj 69 40 inlet;
#X obj 79 150 outlet;
#X msg 91 93 enter a symbol (symbol "something here");
#X connect 0 0 2 0;
#X connect 2 0 1 0;
#X restore -30 0 pd error;
#X connect 0 0 21 1;
#X connect 0 0 27 0;
#X connect 0 0 30 0;
#X connect 1 0 0 1;
#X connect 1 0 39 0;
#X connect 2 0 1 0;
#X connect 3 0 38 0;
#X connect 3 1 8 0;
#X connect 5 0 3 1;
#X connect 6 0 3 0;
#X connect 7 0 6 1;
#X connect 8 0 9 0;
#X connect 9 0 14 0;
#X connect 10 0 31 0;
#X connect 11 0 40 0;
#X connect 14 0 6 0;
#X connect 14 1 21 0;
#X connect 14 2 1 0;
#X connect 14 3 19 0;
#X connect 15 0 41 0;
#X connect 15 0 45 0;
#X connect 16 0 10 0;
#X connect 16 0 26 0;
#X connect 17 0 10 0;
#X connect 17 1 27 1;
#X connect 19 0 2 0;
#X connect 19 0 55 1;
#X connect 20 0 19 0;
#X connect 21 0 17 0;
#X connect 22 0 13 0;
#X connect 23 0 24 0;
#X connect 23 1 29 1;
#X connect 24 0 25 0;
#X connect 25 0 29 1;
#X connect 26 0 32 0;
#X connect 26 0 33 1;
#X connect 26 0 53 1;
#X connect 27 0 48 0;
#X connect 28 0 10 0;
#X connect 29 0 34 0;
#X connect 29 0 53 1;
#X connect 29 0 55 0;
#X connect 29 1 26 0;
#X connect 30 0 28 0;
#X connect 31 0 0 0;
#X connect 31 1 30 1;
#X connect 32 0 26 0;
#X connect 33 0 36 0;
#X connect 34 0 26 0;
#X connect 35 0 36 1;
#X connect 36 0 35 0;
#X connect 36 0 22 1;
#X connect 37 0 9 0;
#X connect 37 1 4 0;
#X connect 37 2 16 0;
#X connect 37 2 20 0;
#X connect 37 2 36 1;
#X connect 37 2 52 0;
#X connect 38 0 22 0;
#X connect 38 1 53 0;
#X connect 40 0 58 0;
#X connect 41 0 23 0;
#X connect 42 0 51 0;
#X connect 44 0 46 0;
#X connect 44 1 29 1;
#X connect 44 1 47 0;
#X connect 45 0 44 1;
#X connect 45 0 58 1;
#X connect 46 0 48 1;
#X connect 47 0 48 1;
#X connect 48 0 49 0;
#X connect 49 0 50 0;
#X connect 49 1 36 0;
#X connect 50 0 29 0;
#X connect 51 0 44 0;
#X connect 52 0 53 1;
#X connect 53 0 36 0;
#X connect 55 0 56 0;
#X connect 56 1 57 0;
#X connect 57 0 33 0;
#X connect 58 0 60 0;
#X connect 58 1 37 0;
#X connect 60 0 59 0;
