#N canvas 20 57 499 324 10;
#X obj 73 133 bng 15 250 50 0 empty empty empty 17 7 0 10 -262144 -1
-1;
#X obj 83 212 bng 15 250 50 0 empty empty empty 17 7 0 10 -262144 -1
-1;
#X obj 125 205 bng 15 250 50 0 empty empty empty 17 7 0 10 -262144
-1 -1;
#X floatatom 130 141 5 0 0 0 - - -;
#X text 160 166 (pseudo random);
#X obj 27 138 until;
#X obj 26 99 t b b;
#X msg 27 117 100;
#X obj 26 80 bng 15 250 50 0 empty empty empty 17 7 0 10 -262144 -1
-1;
#X floatatom 20 257 5 0 0 0 - - -;
#X msg 46 185 1;
#X msg 11 197 0;
#X obj 32 231 ekext/cup;
#X text 45 14 output out of the left outlet based on percent chance
of the right inlet or creation argument. left outlet correlates to
the percentage while the right outlet bangs when the left one doesn't.
;
#X text 65 89 test how many times out of 100 a value less than percent
was chosen;
#X text 163 186 <- 1 percent chance of left outlet getting banged;
#X obj 91 179 ./percent 1;
#X connect 0 0 16 0;
#X connect 3 0 16 1;
#X connect 5 0 16 0;
#X connect 6 0 7 0;
#X connect 6 1 10 0;
#X connect 6 1 11 0;
#X connect 7 0 5 0;
#X connect 8 0 6 0;
#X connect 10 0 12 0;
#X connect 11 0 9 0;
#X connect 12 0 9 0;
#X connect 16 0 1 0;
#X connect 16 0 12 0;
#X connect 16 1 2 0;
