#N canvas 182 287 649 513 12;
#X obj 58 22 inlet~;
#X obj 110 23 inlet~;
#X obj 160 23 inlet~;
#X obj 168 383 *~;
#X obj 246 18 inlet;
#X obj 109 63 *~ \$1;
#X obj 173 80 *~ \$1;
#X obj 81 430 outlet~;
#X obj 163 119 *~;
#X obj 109 88 *~ -1;
#X obj 73 161 *~;
#X obj 83 388 *~;
#X obj 140 194 *~ 2;
#X obj 126 246 *~;
#X obj 107 274 *~;
#X obj 20 94 ./rminus~ 1;
#X obj 139 221 ./rminus~ 3;
#X obj 167 349 ./rminus~ 1;
#X connect 0 0 8 0;
#X connect 0 0 12 0;
#X connect 0 0 13 0;
#X connect 0 0 14 0;
#X connect 0 0 15 0;
#X connect 1 0 5 0;
#X connect 2 0 6 0;
#X connect 3 0 7 0;
#X connect 4 0 5 1;
#X connect 4 0 6 1;
#X connect 5 0 9 0;
#X connect 6 0 8 1;
#X connect 8 0 3 1;
#X connect 9 0 10 1;
#X connect 10 0 11 0;
#X connect 11 0 7 0;
#X connect 12 0 16 0;
#X connect 13 0 14 1;
#X connect 14 0 11 1;
#X connect 14 0 17 0;
#X connect 15 0 10 0;
#X connect 16 0 13 1;
#X connect 17 0 3 0;
