#N canvas 241 291 629 423 12;
#X obj 132 222 ./oscope~;
#X floatatom 152 49 5 0 0 0 - - -;
#X obj 162 92 *~ 2;
#X obj 162 118 wrap~;
#X text 195 9 perlin noise interpolator: takes phasor~ to interpolate
in first inlet \, first gradient in 2nd inlet \, 2nd gradient in 3rd
inlet. argument/last inlet is value to multiply gradient by (0 default!)
;
#X text 273 132 2 octaves of noise here;
#X obj 13 93 ./perlinterp~ 0.75;
#X obj 13 237 ./outputc~;
#X obj 13 53 ./shnoise~;
#X obj 191 144 ./dsrand~;
#X obj 162 171 ./perlinterp~ 0.75;
#X obj 13 8 ./smoother~;
#X connect 1 0 6 3;
#X connect 1 0 10 3;
#X connect 2 0 3 0;
#X connect 3 0 9 0;
#X connect 3 0 10 0;
#X connect 6 0 0 0;
#X connect 6 0 7 0;
#X connect 6 0 7 1;
#X connect 8 0 2 0;
#X connect 8 0 6 0;
#X connect 8 1 6 1;
#X connect 8 2 6 2;
#X connect 9 0 10 1;
#X connect 9 1 10 2;
#X connect 10 0 0 0;
#X connect 10 0 7 1;
#X connect 10 0 7 0;
#X connect 11 0 8 0;
