#N canvas 140 70 1059 756 10;
#X obj 5 -15 phasor~;
#X obj 11 155 outlet~;
#X obj 4 -41 inlet~;
#X obj 226 -33 inlet;
#X obj 330 39 initbang;
#X obj 330 59 t b b b b;
#X obj 345 152 cup;
#X obj 322 165 f;
#X obj 321 188 sel 0 1 2;
#X msg 360 425 editmode 1 \, mouse 68 4 1 0 \, mouseup 152 55 1 \,
key 1 8 0 \, key 0 8 0 \, mouse 18 64 1 0 \, mouseup 44 100 0 \, key
1 8 0 \, key 0 8 0 \, editmode 0;
#N canvas 851 277 450 300 objectcount 0;
#X obj 170 39 inlet;
#X obj 171 201 outlet;
#X obj 175 126 iemguts/canvasindex;
#X connect 0 0 2 0;
#X connect 2 1 1 0;
#X restore 399 186 pd objectcount;
#X obj 262 247 list-math +;
#X obj 341 234 list-math +;
#X obj 417 237 list-math +;
#X msg 74 336 obj 65 8 inlet~ \, obj 20 58 *~ \, obj 116 14 inlet~
\, obj 20 91 +~ \, connect \$1 0 \$2 1 \, connect 0 0 \$2 0 \, connect
\$2 0 \$4 0 \, connect \$4 0 1 0 \, connect \$3 0 \$4 1;
#X msg 282 221 0 1 2 3;
#X msg 345 213 0 1 2 3;
#X msg 421 216 0 1 2 3;
#X msg 337 283 obj 65 8 inlet~ \, obj 20 58 *~ \, obj 116 14 inlet
\, obj 20 91 +~ \$5 \, connect \$1 0 \$2 1 \, connect 0 0 \$2 0 \,
connect \$2 0 \$4 0 \, connect \$4 0 1 0 \, connect \$3 0 \$4 1;
#X obj 335 260 list append;
#X obj 467 162 pack;
#X obj 431 259 list append;
#X msg 347 133 bang;
#X msg 448 352 obj 65 8 inlet \, obj 20 58 *~ \$6 \, obj 116 14 inlet
\, obj 20 91 +~ \$5 \, connect \$1 0 \$2 1 \, connect 0 0 \$2 0 \,
connect \$2 0 \$4 0 \, connect \$4 0 1 0 \, connect \$3 0 \$4 1;
#X text 517 52 requires iemguts;
#X obj 370 86 purepd/float_argument \$1;
#X obj 341 107 purepd/float_argument \$2;
#X obj 428 167 bng 15 250 50 0 empty empty empty 17 7 0 10 -262144
-1 -1;
#X obj 32 183 namecanvas \$0-phasorator;
#X obj 348 475 s \$0-phasorator;
#X connect 2 0 0 0;
#X connect 3 0 0 1;
#X connect 4 0 5 0;
#X connect 5 0 7 0;
#X connect 5 1 10 0;
#X connect 5 1 26 0;
#X connect 5 2 6 0;
#X connect 5 2 25 0;
#X connect 5 3 9 0;
#X connect 6 0 7 1;
#X connect 7 0 8 0;
#X connect 8 0 15 0;
#X connect 8 1 16 0;
#X connect 8 2 17 0;
#X connect 9 0 29 0;
#X connect 10 0 13 1;
#X connect 10 0 12 1;
#X connect 10 0 11 1;
#X connect 11 0 14 0;
#X connect 12 0 19 0;
#X connect 13 0 21 0;
#X connect 14 0 29 0;
#X connect 15 0 11 0;
#X connect 16 0 12 0;
#X connect 17 0 13 0;
#X connect 18 0 29 0;
#X connect 19 0 18 0;
#X connect 20 0 21 1;
#X connect 21 0 23 0;
#X connect 22 0 6 0;
#X connect 23 0 29 0;
#X connect 25 0 19 1;
#X connect 25 0 20 1;
#X connect 25 0 22 0;
#X connect 26 0 20 0;
#X connect 26 0 22 0;
#X connect 27 0 10 0;
