#N canvas 380 272 889 514 12;
#X obj 78 299 cos~;
#X obj 78 276 *~;
#X obj 121 299 cos~;
#X obj 176 244 wrap~;
#X obj 140 244 -~;
#X obj 121 276 +~;
#X obj 114 329 -~;
#X obj 134 361 *~;
#X obj 96 361 +~;
#X obj 247 266 *~;
#X text 281 349 waveshaper;
#X obj 140 128 *~;
#X obj 338 182 *~;
#X text 361 165 divide by fundamental;
#X text 401 202 range for table;
#X text 458 332 offset to middle of table;
#X text 148 150 C.F. relative;
#X text 155 165 to fundamental;
#X text 171 388 ring mod;
#X obj 363 99 inlet~;
#X obj 219 23 inlet~;
#X obj 116 41 inlet~;
#X text 28 19 center freq;
#X obj 154 442 outlet~;
#X obj 474 112 inlet;
#X obj 536 99 f \$1;
#X obj 510 10 loadbang;
#X obj 39 121 inlet~;
#X obj 588 228 f \$0;
#X obj 509 218 f \$0;
#X obj 574 198 bang;
#X obj 247 239 hanning~;
#X obj 136 196 samphold~;
#X obj 328 233 samphold~;
#X obj 137 393 *~;
#X text 411 91 bandwidth;
#X text 28 94 phasor~ in;
#X obj 249 128 /~;
#X obj 259 96 +~;
#X obj 159 418 hip~ 5;
#X msg 406 246 gauss;
#X msg 583 257 cauchy;
#X obj 321 204 *~ 0.03125;
#X obj 249 324 shadylook~;
#X obj 177 96 rminus~ 1;
#X obj 534 157 sel 0;
#X obj 219 55 zexy/==~ 0;
#X connect 0 0 6 1;
#X connect 0 0 8 0;
#X connect 1 0 5 0;
#X connect 1 0 0 0;
#X connect 2 0 6 0;
#X connect 3 0 4 1;
#X connect 3 0 7 1;
#X connect 4 0 1 1;
#X connect 5 0 2 0;
#X connect 6 0 7 0;
#X connect 7 0 8 1;
#X connect 8 0 34 0;
#X connect 9 0 43 0;
#X connect 11 0 32 0;
#X connect 12 0 42 0;
#X connect 19 0 12 0;
#X connect 20 0 38 1;
#X connect 20 0 46 0;
#X connect 21 0 11 0;
#X connect 24 0 45 0;
#X connect 25 0 45 0;
#X connect 26 0 25 0;
#X connect 27 0 1 0;
#X connect 27 0 5 1;
#X connect 27 0 32 1;
#X connect 27 0 33 1;
#X connect 27 0 31 0;
#X connect 28 0 41 0;
#X connect 29 0 40 0;
#X connect 30 0 28 0;
#X connect 31 0 9 0;
#X connect 32 0 4 0;
#X connect 32 0 3 0;
#X connect 33 0 9 1;
#X connect 34 0 39 0;
#X connect 37 0 11 1;
#X connect 37 0 12 1;
#X connect 38 0 37 1;
#X connect 39 0 23 0;
#X connect 40 0 43 0;
#X connect 41 0 43 0;
#X connect 42 0 33 0;
#X connect 43 0 34 1;
#X connect 44 0 37 0;
#X connect 45 0 29 0;
#X connect 45 1 30 0;
#X connect 46 0 38 0;
#X connect 46 0 44 0;
