#N canvas 102 88 889 514 12;
#X obj 78 299 cos~;
#X obj 78 276 *~;
#X obj 121 299 cos~;
#X obj 176 244 wrap~;
#X obj 140 244 -~;
#X obj 121 276 +~;
#X obj 114 329 -~;
#X obj 134 361 *~;
#X obj 96 361 +~;
#X obj 247 266 *~;
#X text 281 349 waveshaper;
#X obj 140 128 *~;
#X obj 338 182 *~;
#X text 361 165 divide by fundamental;
#X text 384 202 range for table;
#X text 320 324 offset to middle of table;
#X text 148 150 C.F. relative;
#X text 155 165 to fundamental;
#X text 171 388 ring mod;
#X obj 363 99 inlet~;
#X obj 219 23 inlet~;
#X obj 116 41 inlet~;
#X text 28 19 center freq;
#X obj 154 442 outlet~;
#X obj 474 112 inlet;
#X obj 515 154 moses 1;
#X obj 536 99 f \$1;
#X obj 510 10 loadbang;
#X obj 39 121 inlet~;
#X obj 588 228 f \$0;
#X obj 509 218 f \$0;
#X obj 574 198 bang;
#X obj 514 193 bang;
#X obj 247 239 hanning~;
#X obj 136 196 samphold~;
#X obj 328 233 samphold~;
#X obj 249 324 tabread4~;
#X obj 137 393 *~;
#X text 411 91 bandwidth;
#X obj 338 206 *~ 25;
#X text 28 94 phasor~ in;
#X obj 169 63 sig~ 1;
#X obj 249 128 /~;
#X obj 259 96 +~;
#X obj 214 101 -~;
#X obj 159 418 hip~ 5;
#X obj 249 293 +~ 1;
#X obj 545 40 t b b;
#X msg 583 257 set phsfrcauchy;
#X msg 406 246 set phsfrgaussian;
#X obj 645 43 r glob-phsfr-close;
#X obj 219 55 ==~ 0;
#N canvas 781 137 631 593 array 0;
#X obj 144 -140 inlet;
#X obj 220 -239 closebang;
#X msg 201 -138 1;
#X obj 292 -75 t b b;
#X obj 170 -62 sel 0;
#X obj 209 -39 + 1;
#X msg 329 -59 0;
#X obj 286 -121 == 1;
#X obj 286 -96 sel 0;
#X obj 230 -213 f;
#X obj 279 -171 sel 1;
#X obj 341 -89 - 1;
#X obj 397 -139 b;
#X obj 159 -88 v glob-phsfr-init;
#X obj 259 -142 v glob-phsfr-init;
#X msg 302 -30 \; glob-phsfr-close bang;
#X msg 164 4 obj 20 20 globphsfr~;
#X obj 163 32 s pd-\$0-phsfr;
#N canvas 495 421 450 300 \$0-phsfr 0;
#X restore 147 54 pd \$0-phsfr;
#X obj 335 -113 v glob-phsfr-init;
#X connect 0 0 13 0;
#X connect 1 0 9 0;
#X connect 2 0 9 1;
#X connect 2 0 13 0;
#X connect 3 0 15 0;
#X connect 3 1 6 0;
#X connect 4 0 2 0;
#X connect 4 0 16 0;
#X connect 4 1 5 0;
#X connect 5 0 13 0;
#X connect 6 0 13 0;
#X connect 7 0 8 0;
#X connect 8 0 3 0;
#X connect 9 0 10 0;
#X connect 10 0 14 0;
#X connect 10 1 12 0;
#X connect 11 0 13 0;
#X connect 12 0 19 0;
#X connect 13 0 4 0;
#X connect 14 0 7 0;
#X connect 16 0 17 0;
#X connect 19 0 11 0;
#X restore 599 106 pd array;
#X connect 0 0 6 1;
#X connect 0 0 8 0;
#X connect 1 0 5 0;
#X connect 1 0 0 0;
#X connect 2 0 6 0;
#X connect 3 0 4 1;
#X connect 3 0 7 1;
#X connect 4 0 1 1;
#X connect 5 0 2 0;
#X connect 6 0 7 0;
#X connect 7 0 8 1;
#X connect 8 0 37 0;
#X connect 9 0 46 0;
#X connect 11 0 34 0;
#X connect 12 0 39 0;
#X connect 19 0 12 0;
#X connect 20 0 43 1;
#X connect 20 0 51 0;
#X connect 21 0 11 0;
#X connect 24 0 25 0;
#X connect 25 0 32 0;
#X connect 25 1 31 0;
#X connect 26 0 25 0;
#X connect 27 0 47 0;
#X connect 28 0 1 0;
#X connect 28 0 5 1;
#X connect 28 0 34 1;
#X connect 28 0 35 1;
#X connect 28 0 33 0;
#X connect 29 0 48 0;
#X connect 30 0 49 0;
#X connect 31 0 29 0;
#X connect 32 0 30 0;
#X connect 33 0 9 0;
#X connect 34 0 4 0;
#X connect 34 0 3 0;
#X connect 35 0 9 1;
#X connect 36 0 37 1;
#X connect 37 0 45 0;
#X connect 39 0 35 0;
#X connect 41 0 44 0;
#X connect 42 0 11 1;
#X connect 42 0 12 1;
#X connect 43 0 42 1;
#X connect 44 0 42 0;
#X connect 45 0 23 0;
#X connect 46 0 36 0;
#X connect 47 0 26 0;
#X connect 47 1 52 0;
#X connect 48 0 36 0;
#X connect 49 0 36 0;
#X connect 50 0 52 0;
#X connect 51 0 43 0;
#X connect 51 0 44 1;
