#N canvas 363 23 856 444 10;
#X text 418 65 from the example in the "Audio examples" folder (paf.control)
;
#X obj 367 289 tgl 15 0 empty empty empty 17 7 0 10 -262144 -1 -1 0
1;
#X obj 260 16 tgl 15 0 empty empty empty 17 7 0 10 -262144 -1 -1 0
1;
#X obj 258 43 metro 500;
#X text 480 195 inlets: phasor~ (or loop~) in (ranged 0 to 1) \, center
frequency \, fundamental frequency (freq of phasor) \, bandwidth \,
1 for cauchy waveshaping \, 0 for gaussian;
#X obj 180 206 mtof;
#X obj 190 92 random 7;
#X obj 497 363 loadbang;
#X obj 559 336 table scale 7;
#X msg 511 394 \; scale 0 2 4 5 7 9 11;
#X obj 189 127 tabread scale;
#X obj 186 166 + 40;
#X text 401 113 "phase-aligned formant generator";
#X obj 352 40 ./rndmrange 2 250 250;
#X obj 267 146 ./rndmrange 1050 1 100;
#X obj 335 202 ./rndmrange 700 1 305;
#X obj 379 232 ./smoother~;
#X obj 279 249 ./smoother~;
#X obj 190 234 ./smoother~;
#X obj 198 297 ./sampphase~;
#X obj 211 332 ./phasafor~;
#X obj 208 361 ./outputc~;
#X connect 1 0 20 4;
#X connect 2 0 3 0;
#X connect 3 0 6 0;
#X connect 3 0 13 0;
#X connect 3 0 14 0;
#X connect 3 0 15 0;
#X connect 5 0 18 0;
#X connect 6 0 10 0;
#X connect 7 0 9 0;
#X connect 10 0 11 0;
#X connect 11 0 5 0;
#X connect 13 0 3 1;
#X connect 14 0 17 0;
#X connect 15 0 16 0;
#X connect 16 0 20 3;
#X connect 17 0 20 1;
#X connect 18 0 19 0;
#X connect 19 0 20 0;
#X connect 19 1 20 2;
#X connect 20 0 21 0;
#X connect 20 0 21 1;
