#N canvas 454 58 753 500 10;
#X obj 244 210 phasor~;
#X obj 240 159 smoother~;
#X obj 287 371 mmb/phasorcount.mmb~;
#X obj 172 146 metro 1000;
#X obj 177 121 tgl 15 0 empty empty empty 17 7 0 10 -262144 -1 -1 1
1;
#X floatatom 237 305 5 0 0 0 - - -;
#X obj 243 285 f;
#X obj 185 174 t b b;
#X text 300 349 also see:;
#X floatatom 301 301 5 0 0 0 - - -;
#X msg 157 395 \; pd dsp 1;
#X obj 250 258 cup;
#X msg 332 204 64;
#X msg 370 207 100;
#X msg 404 210 500;
#X msg 196 230 1;
#X msg 444 211 1000;
#X floatatom 523 303 5 0 0 0 - - -;
#X obj 475 435 print;
#X obj 465 407 spigot;
#X obj 480 309 bng 15 250 50 0 empty empty empty 17 7 0 10 -262144
-1 -1;
#X msg 477 374 0;
#X obj 475 351 del 5;
#X msg 510 382 1;
#X text 367 115 supplying a nonfloat as argument turns the counter
off;
#X obj 244 234 phasorbang~;
#X text 127 10 left outlet bangs whenever the phasor~ crosses from
1 to 0 \, right outlet counts. right inlet/ argument sets polling time
(ms) for this counter \, defaults to 1000 it's set to a blocksize of
64 samples (only reports at block boundaries);
#X obj 429 280 phasorbang~ marie;
#X connect 0 0 25 0;
#X connect 0 0 27 0;
#X connect 1 0 0 0;
#X connect 3 0 7 0;
#X connect 4 0 3 0;
#X connect 6 0 5 0;
#X connect 7 0 15 0;
#X connect 7 1 6 0;
#X connect 11 0 6 1;
#X connect 12 0 25 1;
#X connect 13 0 25 1;
#X connect 14 0 25 1;
#X connect 15 0 11 0;
#X connect 16 0 25 1;
#X connect 19 0 18 0;
#X connect 20 0 22 0;
#X connect 20 0 23 0;
#X connect 21 0 19 1;
#X connect 22 0 21 0;
#X connect 23 0 19 1;
#X connect 25 0 11 0;
#X connect 25 1 9 0;
#X connect 27 0 19 0;
#X connect 27 1 17 0;
