#N canvas 454 58 753 500 10;
#X obj 162 113 phasor~;
#X obj 159 73 smoother~;
#X obj 287 371 mmb/phasorcount.mmb~;
#X obj 266 117 metro 1000;
#X obj 271 92 tgl 15 0 empty empty empty 17 7 0 10 -262144 -1 -1 1
1;
#X floatatom 155 208 5 0 0 0 - - -;
#X obj 161 188 f;
#X obj 258 140 t b b;
#X text 300 349 also see:;
#X floatatom 219 204 5 0 0 0 - - -;
#X msg 423 324 \; pd dsp 1;
#X obj 168 161 cup;
#X msg 306 65 64;
#X msg 344 68 100;
#X msg 378 71 500;
#X obj 54 394 print;
#X msg 66 242 0;
#X obj 25 280 spigot;
#X msg 39 250 1;
#X obj 26 162 bng 15 250 50 0 empty empty empty 17 7 0 10 -262144 -1
-1;
#X msg 223 110 1;
#X msg 418 72 1000;
#X obj 13 369 * 689.063;
#X obj 46 313 cup;
#X obj 30 194 t b b;
#X msg 70 287 0;
#X obj 25 350 f;
#X obj 27 224 del 1.45125;
#X text 96 287 <-- set up for 44100 sr/ 64 blocksize;
#X floatatom 506 169 5 0 0 0 - - -;
#X obj 458 301 print;
#X obj 448 273 spigot;
#X obj 463 175 bng 15 250 50 0 empty empty empty 17 7 0 10 -262144
-1 -1;
#X msg 460 240 0;
#X obj 458 217 del 5;
#X msg 493 248 1;
#X text 367 115 supplying a nonfloat as argument turns the counter
off;
#X obj 162 137 phasorbang~;
#X text 127 10 left outlet bangs whenever the phasor~ crosses from
1 to 0 \, right outlet counts. right inlet/ argument sets polling time
(ms) for this counter \, defaults to 1000 it's set to a blocksize of
64 samples (only reports at block boundaries);
#X obj 291 171 phasor~ 1;
#X obj 362 314 print;
#X obj 297 236 spigot;
#X obj 332 215 tgl 15 0 empty empty empty 17 7 0 10 -262144 -1 -1 0
1;
#X msg 314 147 5;
#X msg 343 146 1;
#X obj 361 220 cup;
#X msg 374 142 6;
#X msg 343 127 20;
#X msg 369 168 500;
#X obj 364 271 + 1;
#X obj 361 244 % 1;
#X obj 400 146 phasorbang~ marie;
#X obj 292 193 phasorbang~ dapd;
#X connect 0 0 37 0;
#X connect 0 0 51 0;
#X connect 1 0 0 0;
#X connect 3 0 7 0;
#X connect 4 0 3 0;
#X connect 6 0 5 0;
#X connect 7 0 20 0;
#X connect 7 1 6 0;
#X connect 11 0 6 1;
#X connect 12 0 37 1;
#X connect 13 0 37 1;
#X connect 14 0 37 1;
#X connect 16 0 17 1;
#X connect 17 0 23 0;
#X connect 18 0 17 1;
#X connect 19 0 24 0;
#X connect 20 0 11 0;
#X connect 21 0 37 1;
#X connect 22 0 15 0;
#X connect 23 0 26 1;
#X connect 24 0 18 0;
#X connect 24 0 27 0;
#X connect 24 1 25 0;
#X connect 25 0 23 0;
#X connect 26 0 22 0;
#X connect 27 0 16 0;
#X connect 27 0 26 0;
#X connect 31 0 30 0;
#X connect 32 0 34 0;
#X connect 32 0 35 0;
#X connect 33 0 31 1;
#X connect 34 0 33 0;
#X connect 35 0 31 1;
#X connect 37 0 11 0;
#X connect 37 0 17 0;
#X connect 37 1 9 0;
#X connect 39 0 52 0;
#X connect 41 0 45 0;
#X connect 42 0 41 1;
#X connect 43 0 39 0;
#X connect 43 0 50 1;
#X connect 44 0 39 0;
#X connect 44 0 50 1;
#X connect 45 0 50 0;
#X connect 46 0 39 0;
#X connect 46 0 50 1;
#X connect 47 0 39 0;
#X connect 47 0 50 1;
#X connect 48 0 39 0;
#X connect 48 0 50 1;
#X connect 49 0 40 0;
#X connect 50 0 49 0;
#X connect 51 0 31 0;
#X connect 51 1 29 0;
#X connect 52 0 41 0;
