#N canvas 505 205 552 411 10;
#X text 42 99 like operator \, but with phasor~;
#X obj 276 164 ./dbgr~;
#X obj 228 195 ./oscope~;
#X msg 155 277 pd dsp 1 \;;
#X msg 354 84 0;
#X floatatom 333 38 5 0 0 0 - - -;
#X floatatom 295 26 5 0 0 0 - - -;
#X obj 71 161 ./phasorator~ 3;
#X obj 73 196 ./phasorator~;
#X obj 266 120 ./phasorator~ 0.8 0.2;
#X obj 267 60 ./smoother~;
#X connect 4 0 9 3;
#X connect 5 0 9 2;
#X connect 6 0 9 1;
#X connect 9 0 1 0;
#X connect 9 0 2 0;
#X connect 10 0 9 0;
