#N canvas 577 199 450 300 10;
#X floatatom 131 132 8 0 0 0 - - -;
#X msg 178 69 bang;
#X obj 159 27 tgl 15 0 empty empty empty 17 7 0 10 -262144 -1 -1 0
1;
#X text 18 192 gets the time into the current signal block in ms;
#X obj 160 45 metro 500;
#X obj 46 48 loadbang;
#X obj 69 105 stoms;
#X msg 62 81 64;
#X floatatom 54 134 8 0 0 0 - - -;
#X text 209 70 this will always be 0 if done by hand;
#X obj 144 105 ./pib~;
#X connect 1 0 10 0;
#X connect 2 0 4 0;
#X connect 4 0 10 0;
#X connect 5 0 7 0;
#X connect 6 0 8 0;
#X connect 7 0 6 0;
#X connect 10 0 0 0;
