#N canvas 330 411 450 300 10;
#X declare -stdlib zexy;
#X obj 178 191 pipe;
#X obj 175 117 t b f;
#X obj 139 12 inlet;
#X obj 175 247 outlet;
#X obj 248 57 inlet;
#X obj 206 157 *;
#X obj 296 101 f \$1;
#X obj 296 80 loadbang;
#X obj 286 257 outlet;
#X obj 145 54 list split 1;
#X obj 254 181 del;
#X obj 247 159 *;
#X msg 104 79 clear;
#X msg 138 115 stop;
#X obj 296 127 max 1;
#X obj 178 218 bang;
#X obj 69 33 route stop;
#X obj 242 21 declare -stdlib zexy;
#X obj 175 85 drip;
#X connect 0 0 15 0;
#X connect 1 0 0 0;
#X connect 1 1 5 0;
#X connect 2 0 16 0;
#X connect 4 0 14 0;
#X connect 5 0 0 1;
#X connect 6 0 14 0;
#X connect 7 0 6 0;
#X connect 9 0 11 0;
#X connect 9 1 18 0;
#X connect 10 0 8 0;
#X connect 11 0 10 0;
#X connect 12 0 0 0;
#X connect 13 0 10 0;
#X connect 14 0 5 1;
#X connect 14 0 11 1;
#X connect 15 0 3 0;
#X connect 16 0 12 0;
#X connect 16 0 13 0;
#X connect 16 1 9 0;
#X connect 18 0 1 0;
