#N canvas 252 182 450 300 10;
#X obj 178 191 pipe;
#X obj 175 117 t b f;
#X obj 139 12 inlet;
#X obj 175 85 list-drip;
#X obj 175 247 outlet;
#X obj 223 126 inlet;
#X obj 206 157 *;
#X obj 274 108 f \$1;
#X obj 267 50 loadbang;
#X obj 179 226 bang;
#X obj 286 257 outlet;
#X obj 145 54 list split 1;
#X obj 254 181 del;
#X obj 247 159 *;
#X obj 69 33 route clear;
#X msg 104 79 clear;
#X msg 138 115 stop;
#X obj 274 134 max 1;
#X connect 0 0 9 0;
#X connect 1 0 0 0;
#X connect 1 1 6 0;
#X connect 2 0 14 0;
#X connect 3 0 1 0;
#X connect 5 0 6 1;
#X connect 5 0 13 1;
#X connect 6 0 0 1;
#X connect 7 0 17 0;
#X connect 8 0 7 0;
#X connect 9 0 4 0;
#X connect 11 0 13 0;
#X connect 11 1 3 0;
#X connect 12 0 10 0;
#X connect 13 0 12 0;
#X connect 14 0 15 0;
#X connect 14 0 16 0;
#X connect 14 1 11 0;
#X connect 15 0 0 0;
#X connect 16 0 12 0;
#X connect 17 0 6 1;
#X connect 17 0 13 1;
