#N canvas 397 92 450 300 10;
#X obj 246 106 bng 15 250 50 0 empty empty empty 17 7 0 10 -262144
-1 -1;
#X obj 227 127 mjlib/monorhythm;
#X text 171 131 related:;
#X text 228 151 stuff in rts & rjlib;
#X msg 167 34 4 0 0.5 1.5 2.5 3;
#X obj 172 109 bng 15 100 50 0 empty empty empty 17 7 0 10 -262144
-1 -1;
#X obj 276 50 spigot;
#X obj 281 26 tgl 15 0 empty empty empty 17 7 0 10 -262144 -1 -1 0
1;
#X obj 173 11 sel 1;
#X text 68 60 stops it;
#X text 37 173 1st number: overall length in beats rest of list: absolute
time in beats \, tempo in ms set by argument/right inlet;
#X text 141 247 outlets: beat & end of sequence;
#X obj 105 106 print hit;
#X msg 121 58 stop;
#X obj 177 81 ./pipebang 500;
#X obj 341 125 ./messtro;
#X connect 4 0 0 0;
#X connect 4 0 14 0;
#X connect 6 0 4 0;
#X connect 7 0 8 0;
#X connect 7 0 6 1;
#X connect 8 0 4 0;
#X connect 13 0 14 0;
#X connect 14 0 5 0;
#X connect 14 0 12 0;
#X connect 14 1 0 0;
#X connect 14 1 6 0;
