#N canvas 566 103 752 527 10;
#X obj 103 174 operator~ 0;
#X obj 82 123 inlet~;
#X obj 194 72 inlet~;
#X obj 145 279 outlet~;
#X obj 360 17 loadbang;
#X obj 361 67 f \$1;
#X msg 355 147 obj 200 140 \$1 \, connect 2 0 3 0 \, connect 2 1 3
1 \, connect 2 2 3 2 \, connect 3 0 1 0;
#X msg 402 125 symbol cosinterp~;
#X msg 293 119 symbol linterp~;
#N canvas 0 23 450 300 \$0-dyninterp 0;
#X obj 203 31 inlet~;
#X obj 120 210 outlet~;
#X obj 200 100 shnoise~;
#X connect 0 0 2 0;
#X restore 177 123 pd \$0-dyninterp;
#X obj 373 240 s pd-\$0-dyninterp;
#X obj 362 89 sel 0;
#X connect 0 0 3 0;
#X connect 1 0 0 0;
#X connect 2 0 9 0;
#X connect 4 0 5 0;
#X connect 5 0 11 0;
#X connect 6 0 10 0;
#X connect 7 0 6 0;
#X connect 8 0 6 0;
#X connect 9 0 0 1;
#X connect 11 0 8 0;
#X connect 11 1 7 0;
