#N canvas 268 48 531 426 10;
#X obj 194 152 mtof~;
#X text 119 33 pitched noise: inlets: pitch \, noisiness;
#X text 131 69 from Computer Music by Dodge & Jerse;
#X text 170 351 argument: 0 or none: linear interpolation non-zero:
cosine interpolation;
#X obj 396 175 tgl 15 0 empty empty empty 17 7 0 10 -262144 -1 -1 1
1;
#X obj 193 199 *~ 1;
#X obj 297 207 *~ 0;
#X obj 400 119 loadbang;
#X msg 396 145 1;
#X obj 296 175 ./pitchnoise~;
#X obj 194 174 ./pitchnoise~ 1;
#X obj 174 94 ./smoother~;
#X obj 264 106 ./smoother~;
#X obj 248 258 ./outputc~;
#X obj 347 209 ./1-0switch;
#X connect 0 0 9 0;
#X connect 0 0 10 0;
#X connect 4 0 5 1;
#X connect 4 0 14 0;
#X connect 5 0 13 0;
#X connect 5 0 13 1;
#X connect 6 0 13 0;
#X connect 6 0 13 1;
#X connect 7 0 8 0;
#X connect 8 0 4 0;
#X connect 9 0 6 0;
#X connect 10 0 5 0;
#X connect 11 0 0 0;
#X connect 12 0 9 1;
#X connect 12 0 10 1;
#X connect 14 0 6 1;
