#N canvas 265 23 788 675 10;
#X declare -lib zexy -lib iemlib;
#X obj 325 411 *~;
#X obj 435 280 line~;
#X obj 260 247 /;
#X obj 416 184 * 0.001;
#X obj 325 437 +~;
#X obj 262 463 cos~;
#X obj 262 490 *~;
#X obj 262 519 +~;
#X obj 458 373 wrap~;
#X obj 494 413 *~;
#X obj 494 446 +~;
#X obj 431 473 cos~;
#X obj 431 500 *~;
#X obj 416 211 t b f;
#X obj 455 349 +~ 0.5;
#X text 298 105 <-- transposition;
#X text 333 167 speed;
#X text 332 181 change;
#X text 460 113 <--window (msec);
#X text 295 224 tape head;
#X obj 259 304 phasor~;
#X text 299 240 rotation freq;
#X text 370 560 miler's pitchshifter;
#X obj 540 36 inlet;
#X obj 431 101 inlet;
#X obj 261 112 inlet;
#X obj 55 65 inlet~;
#X obj 456 9 loadbang;
#X obj 430 123 f;
#X obj 269 562 outlet~;
#X text 313 120 (semitones);
#X obj 149 133 samplerate~;
#X obj 113 209 swap;
#X obj 117 239 /;
#X obj 463 33 t b b;
#X obj 149 262 min;
#X text 16 566 just a lil' antialiasing filter;
#X obj 146 283 - 50;
#X obj 705 71 inlet;
#X obj 258 198 +;
#X msg 737 188 -1;
#X msg 702 188 1;
#X obj 616 40 inlet;
#X obj 77 606 iemlib/lp4_butt~ 20000 5;
#X obj 621 90 clip -1 1;
#X obj 272 539 hip~ 5;
#X obj 692 94 t b f;
#X obj 704 163 sel 1 0;
#X obj 702 232 zexy/nop;
#X obj 148 179 * 0.5;
#X obj 427 155 clip 1 \$1;
#X obj 506 64 f \$3;
#X obj 262 144 f \$2;
#X obj 726 125 f \$6;
#X obj 525 262 f \$4;
#X obj 227 572 *~ \$5;
#X obj 553 412 samphold~;
#X obj 361 418 samphold~;
#X obj 435 254 pack 0 10;
#X obj 260 226 *;
#X obj 366 297 change;
#X msg 369 319 reset 0;
#X obj 364 277 < 0;
#X obj 613 228 -;
#X obj 608 203 swap \$1;
#X obj 545 300 min;
#X obj 292 348 demultiplex~;
#X obj 533 347 demultiplex~;
#X obj 208 43 declare -lib zexy -lib iemlib;
#X obj 122 97 r pd-dsp-started;
#X obj 149 154 change -1;
#X obj 259 170 ./transpose;
#X obj 501 89 ./if 0 \$1;
#X obj 594 375 ./1-0switch~;
#X obj 494 475 ./vdhs~ \$0-pitshft;
#X obj 325 463 ./vdhs~ \$0-pitshft;
#X obj 206 418 ./scaler~ 0.5 -0.25;
#X obj 377 441 ./scaler~ 0.5 -0.25;
#X obj 380 377 ./1-0switch~;
#X obj 62 636 ./delwritec~ \$0-pitshft \$1;
#X connect 0 0 4 0;
#X connect 1 0 0 1;
#X connect 1 0 9 1;
#X connect 2 0 20 0;
#X connect 2 0 62 0;
#X connect 3 0 13 0;
#X connect 4 0 75 0;
#X connect 5 0 6 0;
#X connect 6 0 7 0;
#X connect 7 0 45 0;
#X connect 8 0 9 0;
#X connect 8 0 67 0;
#X connect 8 0 77 0;
#X connect 9 0 10 0;
#X connect 10 0 74 0;
#X connect 11 0 12 0;
#X connect 12 0 7 1;
#X connect 13 0 2 0;
#X connect 13 1 2 1;
#X connect 14 0 8 0;
#X connect 20 0 14 0;
#X connect 20 0 0 0;
#X connect 20 0 66 0;
#X connect 20 0 76 0;
#X connect 23 0 54 0;
#X connect 24 0 28 0;
#X connect 25 0 52 0;
#X connect 26 0 43 0;
#X connect 27 0 34 0;
#X connect 28 0 50 0;
#X connect 28 0 64 0;
#X connect 31 0 70 0;
#X connect 32 0 33 0;
#X connect 32 1 33 1;
#X connect 33 0 35 0;
#X connect 34 0 52 0;
#X connect 34 0 54 0;
#X connect 34 1 31 0;
#X connect 34 1 53 0;
#X connect 34 1 51 0;
#X connect 35 0 37 0;
#X connect 37 0 43 1;
#X connect 38 0 46 0;
#X connect 39 0 59 0;
#X connect 40 0 48 0;
#X connect 41 0 48 0;
#X connect 42 0 44 0;
#X connect 43 0 79 0;
#X connect 44 0 55 1;
#X connect 45 0 29 0;
#X connect 45 0 55 0;
#X connect 46 0 39 0;
#X connect 46 1 47 0;
#X connect 47 0 41 0;
#X connect 47 1 40 0;
#X connect 48 0 39 1;
#X connect 48 0 59 1;
#X connect 49 0 32 1;
#X connect 49 0 35 1;
#X connect 50 0 3 0;
#X connect 50 0 58 0;
#X connect 51 0 72 0;
#X connect 52 0 71 0;
#X connect 53 0 47 0;
#X connect 54 0 65 0;
#X connect 55 0 43 0;
#X connect 56 0 10 1;
#X connect 57 0 4 1;
#X connect 58 0 1 0;
#X connect 59 0 2 0;
#X connect 60 0 61 0;
#X connect 61 0 57 0;
#X connect 61 0 56 0;
#X connect 62 0 60 0;
#X connect 62 0 66 0;
#X connect 62 0 67 0;
#X connect 63 0 65 1;
#X connect 64 0 63 0;
#X connect 64 1 63 1;
#X connect 65 0 56 0;
#X connect 65 0 57 0;
#X connect 66 0 57 1;
#X connect 66 1 78 0;
#X connect 67 0 56 1;
#X connect 67 1 73 0;
#X connect 69 0 31 0;
#X connect 70 0 49 0;
#X connect 71 0 32 0;
#X connect 71 0 39 0;
#X connect 72 0 28 0;
#X connect 73 0 56 1;
#X connect 74 0 12 1;
#X connect 75 0 6 1;
#X connect 76 0 5 0;
#X connect 77 0 11 0;
#X connect 78 0 57 1;
