#N canvas 605 202 704 564 10;
#X obj 326 362 *~;
#X obj 449 299 line~;
#X obj 449 273 pack 0 200;
#X obj 258 269 /;
#X obj 416 184 * 0.001;
#X obj 558 369 line~;
#X obj 558 344 pack 0 200;
#X obj 326 388 +~;
#X obj 263 414 cos~;
#X obj 263 441 *~;
#X obj 263 470 +~;
#X obj 350 321 wrap~;
#X obj 495 364 *~;
#X obj 495 397 +~;
#X obj 432 424 cos~;
#X obj 432 451 *~;
#X obj 416 211 t b f;
#X obj 350 294 +~ 0.5;
#X obj 263 362 -~ 0.5;
#X obj 263 388 *~ 0.5;
#X obj 432 363 -~ 0.5;
#X obj 432 396 *~ 0.5;
#X text 298 105 <-- transposition;
#X text 326 167 speed;
#X text 325 181 change;
#X text 460 113 <--window (msec);
#X text 298 256 tape head;
#X obj 263 320 phasor~;
#X obj 558 320 max 1.5;
#X obj 427 155 max 1;
#X text 299 269 rotation freq;
#X text 371 511 miler's pitchshifter;
#X obj 259 170 transpose;
#X obj 540 36 inlet;
#X obj 431 101 inlet;
#X obj 261 112 inlet;
#X obj 55 65 inlet~;
#X obj 262 144 f \$1;
#X obj 449 35 loadbang;
#X obj 501 89 if 0 100;
#X obj 506 64 f \$2;
#X obj 430 123 f;
#X obj 267 505 outlet~;
#X obj 553 295 f \$3;
#X obj 258 294 sig~;
#X text 313 120 (semitones);
#X obj 150 189 samplerate~;
#X obj 113 209 swap;
#X obj 117 239 /;
#X obj 368 76 t b b;
#X obj 150 210 / 2;
#X obj 149 262 min;
#X obj 73 332 lp4_butt~ 22050 5;
#X text 4 314 just a lil' antialiasing filter;
#X obj 146 283 - 50;
#X obj 612 27 inlet;
#X obj 626 55 f \$4;
#X obj 258 239 *;
#X obj 611 119 sel -1 1;
#X obj 630 83 if 0 -1;
#X obj 258 209 +;
#X msg 637 141 -1;
#X msg 604 151 1;
#X obj 610 184 t b f;
#X obj 62 396 delwritec~ \$0-pitshft 5000;
#X obj 326 414 vdhs~ \$0-pitshft;
#X obj 495 426 vdhs~ \$0-pitshft;
#X connect 0 0 7 0;
#X connect 1 0 0 1;
#X connect 1 0 12 1;
#X connect 2 0 1 0;
#X connect 3 0 44 0;
#X connect 4 0 16 0;
#X connect 5 0 7 1;
#X connect 5 0 13 1;
#X connect 6 0 5 0;
#X connect 7 0 65 0;
#X connect 8 0 9 0;
#X connect 9 0 10 0;
#X connect 10 0 42 0;
#X connect 11 0 12 0;
#X connect 11 0 20 0;
#X connect 12 0 13 0;
#X connect 13 0 66 0;
#X connect 14 0 15 0;
#X connect 15 0 10 1;
#X connect 16 0 3 0;
#X connect 16 1 3 1;
#X connect 17 0 11 0;
#X connect 18 0 19 0;
#X connect 19 0 8 0;
#X connect 20 0 21 0;
#X connect 21 0 14 0;
#X connect 27 0 0 0;
#X connect 27 0 18 0;
#X connect 27 0 17 0;
#X connect 28 0 6 0;
#X connect 29 0 4 0;
#X connect 29 0 2 0;
#X connect 32 0 47 0;
#X connect 32 0 60 0;
#X connect 33 0 43 0;
#X connect 34 0 41 0;
#X connect 35 0 37 0;
#X connect 36 0 52 0;
#X connect 37 0 32 0;
#X connect 38 0 40 0;
#X connect 38 0 43 0;
#X connect 38 0 49 0;
#X connect 38 0 56 0;
#X connect 39 0 41 0;
#X connect 40 0 39 0;
#X connect 41 0 29 0;
#X connect 43 0 28 0;
#X connect 44 0 27 0;
#X connect 46 0 50 0;
#X connect 47 0 48 0;
#X connect 47 1 48 1;
#X connect 48 0 51 0;
#X connect 49 0 37 0;
#X connect 49 1 46 0;
#X connect 50 0 47 1;
#X connect 50 0 51 1;
#X connect 51 0 54 0;
#X connect 52 0 64 0;
#X connect 54 0 52 1;
#X connect 55 0 58 0;
#X connect 56 0 59 0;
#X connect 57 0 3 0;
#X connect 58 0 62 0;
#X connect 58 1 61 0;
#X connect 59 0 58 0;
#X connect 60 0 57 0;
#X connect 61 0 63 0;
#X connect 62 0 63 0;
#X connect 63 0 60 0;
#X connect 63 1 60 1;
#X connect 63 1 57 1;
#X connect 65 0 9 1;
#X connect 66 0 15 1;
