#N canvas 605 202 704 564 10;
#X obj 201 367 *~;
#X obj 324 304 line~;
#X obj 324 278 pack 0 200;
#X obj 133 258 /;
#X obj 265 198 * 0.001;
#X obj 433 374 line~;
#X obj 433 349 pack 0 200;
#X obj 201 393 +~;
#X obj 138 419 cos~;
#X obj 138 446 *~;
#X obj 138 475 +~;
#X obj 225 326 wrap~;
#X obj 370 369 *~;
#X obj 370 402 +~;
#X obj 307 429 cos~;
#X obj 307 456 *~;
#X obj 265 225 t b f;
#X obj 225 299 +~ 0.5;
#X obj 138 367 -~ 0.5;
#X obj 138 393 *~ 0.5;
#X obj 307 368 -~ 0.5;
#X obj 307 401 *~ 0.5;
#X obj 133 195 - 1;
#X obj 133 221 * -1;
#X text 172 95 <-- transposition;
#X text 215 108 (halftones);
#X text 201 172 speed;
#X text 200 186 change;
#X text 335 118 <--window (msec);
#X text 173 261 tape head;
#X obj 138 325 phasor~;
#X obj 433 325 max 1.5;
#X obj 302 160 max 1;
#X text 174 274 rotation freq;
#X text 246 516 miler's pitchshifter;
#X obj 134 175 transpose;
#X obj 201 419 vd~ \$0-pitshft;
#X obj 370 431 vd~ \$0-pitshft;
#X obj 432 272 inlet;
#X obj 306 106 inlet;
#X obj 136 117 inlet;
#X obj 55 61 inlet~;
#X obj 13 92 delwrite~ \$0-pitshft 5000;
#X obj 137 149 f \$1;
#X obj 324 40 loadbang;
#X obj 376 94 if 0 100;
#X obj 381 69 f \$2;
#X obj 305 128 f;
#X obj 142 510 outlet~;
#X obj 428 300 f \$3;
#X obj 133 299 sig~;
#X connect 0 0 7 0;
#X connect 1 0 0 1;
#X connect 1 0 12 1;
#X connect 2 0 1 0;
#X connect 3 0 50 0;
#X connect 4 0 16 0;
#X connect 5 0 7 1;
#X connect 5 0 13 1;
#X connect 6 0 5 0;
#X connect 7 0 36 0;
#X connect 8 0 9 0;
#X connect 9 0 10 0;
#X connect 10 0 48 0;
#X connect 11 0 12 0;
#X connect 11 0 20 0;
#X connect 12 0 13 0;
#X connect 13 0 37 0;
#X connect 14 0 15 0;
#X connect 15 0 10 1;
#X connect 16 0 3 0;
#X connect 16 1 3 1;
#X connect 17 0 11 0;
#X connect 18 0 19 0;
#X connect 19 0 8 0;
#X connect 20 0 21 0;
#X connect 21 0 14 0;
#X connect 22 0 23 0;
#X connect 23 0 3 0;
#X connect 30 0 0 0;
#X connect 30 0 18 0;
#X connect 30 0 17 0;
#X connect 31 0 6 0;
#X connect 32 0 4 0;
#X connect 32 0 2 0;
#X connect 35 0 22 0;
#X connect 36 0 9 1;
#X connect 37 0 15 1;
#X connect 38 0 49 0;
#X connect 39 0 47 0;
#X connect 40 0 43 0;
#X connect 41 0 42 0;
#X connect 43 0 35 0;
#X connect 44 0 43 0;
#X connect 44 0 46 0;
#X connect 44 0 49 0;
#X connect 45 0 47 0;
#X connect 46 0 45 0;
#X connect 47 0 32 0;
#X connect 49 0 31 0;
#X connect 50 0 30 0;
