#N canvas 208 279 880 656 12;
#X declare -stdlib zexy -stdlib iemlib;
#X obj 325 411 *~;
#X obj 435 280 line~;
#X obj 260 247 /;
#X obj 416 184 * 0.001;
#X obj 325 437 +~;
#X obj 262 463 cos~;
#X obj 262 490 *~;
#X obj 262 519 +~;
#X obj 458 373 wrap~;
#X obj 494 413 *~;
#X obj 494 446 +~;
#X obj 431 473 cos~;
#X obj 431 500 *~;
#X obj 416 211 t b f;
#X obj 455 349 +~ 0.5;
#X obj 262 411 -~ 0.5;
#X obj 262 437 *~ 0.5;
#X obj 431 412 -~ 0.5;
#X obj 431 445 *~ 0.5;
#X text 298 105 <-- transposition;
#X text 326 167 speed;
#X text 325 181 change;
#X text 460 113 <--window (msec);
#X text 295 224 tape head;
#X obj 259 304 phasor~;
#X text 299 240 rotation freq;
#X text 370 560 miler's pitchshifter;
#X obj 259 170 transpose;
#X obj 540 36 inlet;
#X obj 431 101 inlet;
#X obj 261 112 inlet;
#X obj 456 9 loadbang;
#X obj 430 123 f;
#X obj 269 562 outlet~;
#X text 313 120 (semitones);
#X obj 463 33 t b b;
#X obj 705 71 inlet;
#X obj 258 198 +;
#X msg 737 188 -1;
#X msg 702 188 1;
#X obj 272 539 hip~ 5;
#X obj 692 94 t b f;
#X obj 704 163 sel 1 0;
#X obj 702 232 zexy/nop;
#X obj 553 412 samphold~;
#X obj 361 418 samphold~;
#X obj 435 254 pack 0 10;
#X obj 260 226 *;
#X obj 594 375 1-0switch~;
#X obj 366 297 change;
#X msg 369 319 reset 0;
#X obj 380 377 1-0switch~;
#X obj 364 277 < 0;
#X obj 292 348 demultiplex~;
#X obj 533 347 demultiplex~;
#X obj 208 43 declare -stdlib zexy -stdlib iemlib;
#X obj 325 463 vdhs~ \$1;
#X obj 485 477 vdhs~ \$1;
#X obj 262 144 f \$2;
#X obj 506 64 f \$3;
#X obj 525 262 f \$4;
#X obj 726 125 f \$5;
#X obj 505 91 if 0 100;
#X connect 0 0 4 0;
#X connect 1 0 0 1;
#X connect 1 0 9 1;
#X connect 2 0 24 0;
#X connect 2 0 52 0;
#X connect 3 0 13 0;
#X connect 4 0 56 0;
#X connect 5 0 6 0;
#X connect 6 0 7 0;
#X connect 7 0 40 0;
#X connect 8 0 17 0;
#X connect 8 0 9 0;
#X connect 8 0 54 0;
#X connect 9 0 10 0;
#X connect 10 0 57 0;
#X connect 11 0 12 0;
#X connect 12 0 7 1;
#X connect 13 0 2 0;
#X connect 13 1 2 1;
#X connect 14 0 8 0;
#X connect 15 0 16 0;
#X connect 16 0 5 0;
#X connect 17 0 18 0;
#X connect 18 0 11 0;
#X connect 24 0 15 0;
#X connect 24 0 14 0;
#X connect 24 0 0 0;
#X connect 24 0 53 0;
#X connect 27 0 37 0;
#X connect 28 0 60 0;
#X connect 29 0 32 0;
#X connect 30 0 58 0;
#X connect 31 0 35 0;
#X connect 32 0 46 0;
#X connect 32 0 3 0;
#X connect 35 0 58 0;
#X connect 35 0 60 0;
#X connect 35 1 59 0;
#X connect 35 1 61 0;
#X connect 36 0 41 0;
#X connect 37 0 47 0;
#X connect 38 0 43 0;
#X connect 39 0 43 0;
#X connect 40 0 33 0;
#X connect 41 0 37 0;
#X connect 41 1 42 0;
#X connect 42 0 39 0;
#X connect 42 1 38 0;
#X connect 43 0 37 1;
#X connect 43 0 47 1;
#X connect 44 0 10 1;
#X connect 45 0 4 1;
#X connect 46 0 1 0;
#X connect 47 0 2 0;
#X connect 48 0 44 1;
#X connect 49 0 50 0;
#X connect 50 0 45 0;
#X connect 50 0 44 0;
#X connect 51 0 45 1;
#X connect 52 0 49 0;
#X connect 52 0 53 0;
#X connect 52 0 54 0;
#X connect 53 0 45 1;
#X connect 53 1 51 0;
#X connect 54 0 44 1;
#X connect 54 1 48 0;
#X connect 56 0 6 1;
#X connect 57 0 12 1;
#X connect 58 0 27 0;
#X connect 59 0 62 0;
#X connect 60 0 44 0;
#X connect 60 0 45 0;
#X connect 61 0 42 0;
#X connect 62 0 32 0;
