#N canvas 777 22 655 417 10;
#X text 30 -31 2nd inlet: time to ramp (same behavior as line);
#X text 63 -15 1st inlet: list \, set \, or float (like line);
#X floatatom 47 317 8 0 0 0 - - -;
#X msg 57 120 0 1000;
#X msg 72 142 39;
#X msg 48 97 1 1000;
#X text 119 109 send a pair to ramp to a new value;
#X text 122 144 send a single number to jump;
#X text 131 344 see also:;
#X msg 83 167 stop;
#X text 128 169 "stop" message to stop output;
#X text 155 297 creation arguments:;
#X text 304 289 1 initial value;
#X msg 92 197 set 5;
#X text 145 197 "set" to change value (and stop) without output;
#X floatatom 116 253 0 0 0 0 - - -;
#X floatatom 116 229 0 0 0 0 - - -;
#X text 151 229 first inlet sets next ramp time (cleared when ramp
starts!);
#X text 150 255 second inlet sets grain (not cleared \, acts as normal
inlet);
#X text 303 305 2 time grain in milliseconds (20 by default);
#X floatatom 135 274 5 0 0 0 - - -;
#X text 174 272 power to raise number to (also 3rd argument);
#X msg 91 28 50 \, 40 1000;
#X obj 47 291 ./powline 0 100 0;
#X obj 201 341 ./rexpline;
#X obj 202 363 ./expline;
#X connect 3 0 23 0;
#X connect 4 0 23 0;
#X connect 5 0 23 0;
#X connect 9 0 23 0;
#X connect 13 0 23 0;
#X connect 15 0 23 2;
#X connect 16 0 23 1;
#X connect 20 0 23 3;
#X connect 22 0 23 0;
#X connect 23 0 2 0;
