#N canvas 332 61 628 399 10;
#X declare -lib zexy;
#X obj 177 35 inlet;
#X obj 291 37 inlet;
#X obj 220 298 outlet~;
#X obj 217 184 line~;
#X obj 229 89 pack;
#X obj 238 238 -;
#X obj 227 133 unpack;
#X msg 251 63 0;
#X obj 229 112 t l b;
#X obj 377 97 snapshot~;
#X obj 390 146 ==;
#X obj 391 168 sel 0 1;
#X obj 404 192 f;
#X obj 379 194 f;
#X obj 385 120 t f f f;
#X obj 386 227 zexy/nop;
#X msg 217 159 0 \, 1 \$1;
#X obj 217 216 pow~ 1;
#X obj 459 31 inlet;
#X obj 468 102 max 0;
#X obj 514 27 loadbang;
#X obj 514 49 f \$1;
#X obj 40 68 declare -lib zexy;
#X obj 177 61 relay stop;
#X obj 218 265 ./scaler~;
#X obj 517 69 ./if 0 1;
#X connect 0 0 23 0;
#X connect 1 0 4 1;
#X connect 3 0 17 0;
#X connect 4 0 8 0;
#X connect 5 0 24 1;
#X connect 6 0 5 0;
#X connect 6 0 12 1;
#X connect 6 1 16 0;
#X connect 7 0 4 1;
#X connect 8 0 6 0;
#X connect 8 1 7 0;
#X connect 8 1 9 0;
#X connect 9 0 14 0;
#X connect 10 0 11 0;
#X connect 11 0 13 0;
#X connect 11 1 12 0;
#X connect 12 0 15 0;
#X connect 13 0 15 0;
#X connect 14 0 10 1;
#X connect 14 1 10 0;
#X connect 14 2 13 1;
#X connect 15 0 5 1;
#X connect 15 0 24 2;
#X connect 16 0 3 0;
#X connect 17 0 24 0;
#X connect 18 0 19 0;
#X connect 19 0 17 1;
#X connect 20 0 21 0;
#X connect 21 0 25 0;
#X connect 23 0 3 0;
#X connect 23 1 4 0;
#X connect 24 0 2 0;
#X connect 24 0 9 0;
#X connect 25 0 19 0;
