#N canvas 306 348 863 449 10;
#X obj 297 45 inlet;
#X obj 391 33 inlet;
#X obj 359 330 +;
#X obj 438 151 f;
#X obj 302 77 t a b;
#X obj 417 181 -;
#X obj 296 389 outlet;
#X obj 357 306 *;
#X msg 312 179 stop;
#X obj 258 128 t b f;
#X obj 184 198 route 0 1;
#X msg 252 149 1;
#X obj 218 222 t f b;
#X msg 290 158 0;
#X obj 181 175 list prepend 0;
#X obj 347 146 swap;
#X obj 547 69 inlet;
#X obj 300 108 route float list set;
#X obj 349 202 line 0 \$2;
#X obj 450 55 inlet;
#X obj 607 74 loadbang;
#X obj 553 115 f \$1;
#X obj 536 171 < 0;
#X obj 347 228 pow;
#X obj 553 137 t f f;
#X obj 536 196 sel 0 1;
#X obj 594 241 f;
#X obj 571 297 /;
#X msg 563 272 1 \$1;
#X obj 563 244 f;
#X obj 579 217 abs;
#X msg 347 176 1 \, 0 \$1;
#X obj 357 282 -;
#X obj 356 251 swap 1;
#X connect 0 0 4 0;
#X connect 1 0 9 0;
#X connect 2 0 3 1;
#X connect 2 0 6 0;
#X connect 3 0 5 1;
#X connect 3 0 2 1;
#X connect 4 0 17 0;
#X connect 4 1 3 0;
#X connect 4 1 8 0;
#X connect 5 0 7 1;
#X connect 7 0 2 0;
#X connect 8 0 18 0;
#X connect 9 0 11 0;
#X connect 9 1 15 1;
#X connect 10 0 6 0;
#X connect 10 0 3 1;
#X connect 10 1 12 0;
#X connect 11 0 14 1;
#X connect 12 0 15 0;
#X connect 12 1 13 0;
#X connect 13 0 14 1;
#X connect 14 0 10 0;
#X connect 15 0 31 0;
#X connect 15 1 5 0;
#X connect 16 0 18 2;
#X connect 17 0 14 0;
#X connect 17 1 13 0;
#X connect 17 1 15 0;
#X connect 17 2 3 1;
#X connect 18 0 23 0;
#X connect 19 0 24 0;
#X connect 20 0 21 0;
#X connect 21 0 24 0;
#X connect 22 0 25 0;
#X connect 23 0 33 0;
#X connect 24 0 22 0;
#X connect 24 1 26 1;
#X connect 24 1 30 0;
#X connect 25 0 26 0;
#X connect 25 1 29 0;
#X connect 26 0 23 1;
#X connect 27 0 23 1;
#X connect 28 0 27 0;
#X connect 29 0 28 0;
#X connect 30 0 29 1;
#X connect 31 0 18 0;
#X connect 32 0 7 0;
#X connect 33 0 32 0;
#X connect 33 1 32 1;
