#N canvas 332 61 790 446 10;
#X obj 294 13 inlet;
#X obj 333 13 inlet;
#X obj 297 76 route float list;
#X obj 421 161 -;
#X msg 309 147 stop;
#X obj 346 170 line~;
#X obj 445 108 snapshot~;
#X obj 341 290 +~ 0;
#X obj 340 265 *~ 0;
#X obj 299 45 t a b b;
#X obj 243 390 outlet~;
#X obj 429 132 f 0;
#X obj 161 179 route 0 1;
#X msg 231 128 1;
#X obj 197 201 t f b;
#X msg 265 127 0;
#X obj 160 154 list prepend 0;
#X obj 442 78 spigot;
#X msg 482 53 0;
#X msg 514 55 1;
#X obj 157 265 sig~;
#X msg 217 305 0;
#X msg 197 295 1;
#X obj 190 329 *~ 0;
#X msg 339 329 0;
#X msg 368 321 1;
#X obj 323 355 *~ 0;
#X obj 345 118 swap;
#X obj 343 193 pow~ 0;
#X obj 595 79 inlet;
#X obj 530 313 sig~;
#X obj 604 42 loadbang;
#X obj 550 83 f \$1;
#X obj 550 105 t f f;
#X obj 533 164 sel 0 1;
#X obj 591 209 f;
#X obj 568 265 /;
#X msg 560 240 1 \$1;
#X obj 560 212 f;
#X obj 576 185 abs;
#X obj 542 136 < 0;
#X msg 346 147 1 \, 0 \$1;
#X obj 323 225 expr~ 1 - $v1;
#X connect 0 0 9 0;
#X connect 1 0 13 0;
#X connect 1 0 27 1;
#X connect 2 0 16 0;
#X connect 2 1 15 0;
#X connect 2 1 27 0;
#X connect 3 0 8 1;
#X connect 4 0 5 0;
#X connect 5 0 28 0;
#X connect 6 0 11 1;
#X connect 7 0 6 0;
#X connect 7 0 26 0;
#X connect 8 0 7 0;
#X connect 9 0 2 0;
#X connect 9 1 11 0;
#X connect 9 2 4 0;
#X connect 9 2 17 0;
#X connect 11 0 3 1;
#X connect 11 0 7 1;
#X connect 12 0 18 0;
#X connect 12 0 11 0;
#X connect 12 0 20 0;
#X connect 12 0 22 0;
#X connect 12 0 24 0;
#X connect 12 1 14 0;
#X connect 13 0 16 1;
#X connect 14 0 27 0;
#X connect 14 1 15 0;
#X connect 15 0 16 1;
#X connect 16 0 12 0;
#X connect 17 0 6 0;
#X connect 18 0 17 1;
#X connect 19 0 17 1;
#X connect 20 0 23 0;
#X connect 21 0 23 1;
#X connect 22 0 23 1;
#X connect 23 0 10 0;
#X connect 24 0 26 1;
#X connect 25 0 26 1;
#X connect 26 0 10 0;
#X connect 27 0 41 0;
#X connect 27 1 3 0;
#X connect 28 0 42 0;
#X connect 29 0 33 0;
#X connect 30 0 28 1;
#X connect 31 0 32 0;
#X connect 32 0 33 0;
#X connect 33 0 40 0;
#X connect 33 1 35 1;
#X connect 33 1 39 0;
#X connect 34 0 35 0;
#X connect 34 1 38 0;
#X connect 35 0 30 0;
#X connect 36 0 30 0;
#X connect 37 0 36 0;
#X connect 38 0 37 0;
#X connect 39 0 38 1;
#X connect 40 0 34 0;
#X connect 41 0 5 0;
#X connect 41 0 19 0;
#X connect 41 0 21 0;
#X connect 41 0 25 0;
#X connect 42 0 8 0;
