#N canvas 248 175 608 446 10;
#X obj 192 84 smoother~;
#X obj 199 131 phasor~;
#X obj 274 102 smoother~;
#X obj 161 216 *~;
#X obj 135 183 cos~;
#X obj 196 61 mtof;
#X floatatom 196 36 5 0 0 0 - - -;
#X obj 71 36 metro 100;
#X obj 69 130 samphold~;
#X obj 70 107 sig~;
#X obj 135 159 *~;
#X floatatom 66 82 5 0 0 0 - - -;
#X obj 71 57 cyclecount 20;
#X obj 74 17 tgl 15 0 empty empty empty 17 7 0 10 -262144 -1 -1 1 1
;
#X obj 276 15 loadbang;
#X msg 273 59 5;
#X obj 169 271 outputc~;
#X text 209 214 go up harmonics by multiplying a cosine wave of a multiple
of the fundamental;
#X obj 199 168 pthng~;
#X obj 304 263 oscope~;
#X text 279 163 hanning pulse train;
#X text 340 65 takes phasor~ input for phase;
#X text 340 115 right inlet is waveshaping amount;
#X connect 0 0 1 0;
#X connect 1 0 10 0;
#X connect 1 0 8 1;
#X connect 1 0 18 0;
#X connect 2 0 18 1;
#X connect 3 0 16 0;
#X connect 3 0 16 1;
#X connect 3 0 19 0;
#X connect 4 0 3 0;
#X connect 5 0 0 0;
#X connect 6 0 5 0;
#X connect 7 0 12 0;
#X connect 8 0 10 1;
#X connect 9 0 8 0;
#X connect 10 0 4 0;
#X connect 11 0 9 0;
#X connect 12 0 11 0;
#X connect 13 0 7 0;
#X connect 14 0 15 0;
#X connect 15 0 2 0;
#X connect 18 0 3 1;
