#N canvas 409 466 450 300 10;
#X obj 129 57 inlet~;
#X obj 263 47 inlet~;
#X obj 129 89 -~ 0.5;
#X obj 129 139 clip~ -0.5 0.5;
#X obj 129 114 *~;
#X obj 129 224 outlet~;
#X text 98 38 phasor range 0 to 1;
#X obj 235 79 samphold~;
#X obj 129 166 +~ 0.5;
#X obj 212 103 max~ 1;
#X obj 129 197 ./hanning~;
#X connect 0 0 2 0;
#X connect 0 0 7 1;
#X connect 1 0 7 0;
#X connect 2 0 4 0;
#X connect 3 0 8 0;
#X connect 4 0 3 0;
#X connect 7 0 9 0;
#X connect 8 0 10 0;
#X connect 9 0 4 1;
#X connect 10 0 5 0;
