#N canvas 248 175 608 446 10;
#X obj 187 28 smoother~;
#X obj 194 75 phasor~;
#X obj 269 45 smoother~;
#X obj 205 267 dac~;
#X obj 343 208 oscope~;
#X obj 156 160 *~;
#X obj 130 127 cos~;
#X obj 361 179 *~;
#X obj 335 146 cos~;
#X obj 369 93 wrap~;
#X text 319 16 some wave packets using pulsetrainhng~;
#X text 351 34 left inlet: phasor going from 0 to 1;
#X text 431 55 right inlet: width;
#X obj 191 5 mtof;
#X floatatom 191 -20 5 0 0 0 - - -;
#X msg 284 -58 bang;
#X msg 326 -50 stop;
#X obj 277 -28 metro 100;
#X obj 473 99 samphold~;
#X obj 474 76 sig~;
#X obj 336 120 *~;
#X floatatom 471 0 5 0 0 0 - - -;
#X obj 64 74 samphold~;
#X obj 65 51 sig~;
#X obj 130 103 *~;
#X floatatom 61 26 5 0 0 0 - - -;
#X obj 352 -28 cyclecount 20;
#X obj 424 -2 + 10;
#X obj 403 138 pulsetrainhng~;
#X obj 194 112 pulsetrainhng~;
#X obj 256 201 *~ 0.67;
#X obj 90 -2 cyclecount 20;
#X obj 370 68 +~ 0.5;
#X connect 0 0 1 0;
#X connect 1 0 24 0;
#X connect 1 0 22 1;
#X connect 1 0 29 0;
#X connect 1 0 32 0;
#X connect 2 0 28 1;
#X connect 2 0 29 1;
#X connect 5 0 30 0;
#X connect 6 0 5 0;
#X connect 7 0 30 0;
#X connect 8 0 7 0;
#X connect 9 0 20 0;
#X connect 9 0 18 1;
#X connect 9 0 28 0;
#X connect 13 0 0 0;
#X connect 14 0 13 0;
#X connect 15 0 17 0;
#X connect 16 0 17 0;
#X connect 17 0 26 0;
#X connect 17 0 31 0;
#X connect 18 0 20 1;
#X connect 19 0 18 0;
#X connect 20 0 8 0;
#X connect 21 0 19 0;
#X connect 22 0 24 1;
#X connect 23 0 22 0;
#X connect 24 0 6 0;
#X connect 25 0 23 0;
#X connect 26 0 27 0;
#X connect 27 0 21 0;
#X connect 28 0 7 1;
#X connect 29 0 5 1;
#X connect 30 0 4 0;
#X connect 30 0 3 1;
#X connect 30 0 3 0;
#X connect 31 0 25 0;
#X connect 32 0 9 0;
