#N canvas 66 293 600 426 10;
#X obj 109 143 line~;
#X obj 109 197 sqrt~;
#X obj 109 218 sqrt~;
#X obj 116 282 outlet~;
#X obj 104 -113 inlet;
#X obj 172 -65 list length;
#X obj 104 -87 t l l;
#X obj 103 -44 list prepend;
#X obj 103 -20 route 1 2;
#X obj 273 5 inlet;
#X obj 125 117 pack f f;
#X obj 127 2 unpack f f;
#X obj 129 48 sqr;
#X obj 130 72 sqr;
#X obj 159 49 moses 0;
#X obj 128 24 t f f;
#X obj 129 96 *;
#X msg 189 72 1;
#X msg 158 72 -1;
#X obj 109 168 abs~;
#X obj 117 239 xfade~;
#X obj 193 197 expr~ $v1 < 0;
#X obj 90 258 *~ -1;
#X obj 19 35 sqr;
#X obj 20 59 sqr;
#X obj 49 36 moses 0;
#X obj 18 11 t f f;
#X obj 19 83 *;
#X msg 79 59 1;
#X msg 48 59 -1;
#X connect 0 0 19 0;
#X connect 0 0 21 0;
#X connect 1 0 2 0;
#X connect 2 0 20 0;
#X connect 4 0 6 0;
#X connect 5 0 7 1;
#X connect 6 0 7 0;
#X connect 6 1 5 0;
#X connect 7 0 8 0;
#X connect 8 0 26 0;
#X connect 8 1 11 0;
#X connect 9 0 0 1;
#X connect 10 0 0 0;
#X connect 11 0 15 0;
#X connect 11 1 10 1;
#X connect 12 0 13 0;
#X connect 13 0 16 0;
#X connect 14 0 18 0;
#X connect 14 1 17 0;
#X connect 15 0 12 0;
#X connect 15 1 14 0;
#X connect 16 0 10 0;
#X connect 17 0 16 1;
#X connect 18 0 16 1;
#X connect 19 0 1 0;
#X connect 20 0 22 0;
#X connect 20 1 3 0;
#X connect 21 0 20 1;
#X connect 22 0 3 0;
#X connect 23 0 24 0;
#X connect 24 0 27 0;
#X connect 25 0 29 0;
#X connect 25 1 28 0;
#X connect 26 0 23 0;
#X connect 26 1 25 0;
#X connect 27 0 0 0;
#X connect 28 0 27 1;
#X connect 29 0 27 1;
