#N canvas 311 217 505 470 10;
#X obj 135 191 vline~;
#X obj 145 347 outlet~;
#X obj 138 238 sqrt~;
#X obj 138 263 sqrt~;
#X obj 70 -62 inlet;
#X obj 257 -62 inlet;
#X obj 328 -46 inlet;
#X obj 70 -37 t l l;
#X obj 140 -11 list length;
#X obj 72 13 list prepend;
#X obj 74 41 route 1 2 3;
#X obj 104 162 pack f f;
#X obj 107 60 unpack f f;
#X obj 103 99 sqr;
#X obj 103 120 sqr;
#X text 198 25 quartic root line (for exponential ramping);
#X obj 133 108 moses 0;
#X obj 108 80 t f f;
#X msg 131 131 -1;
#X msg 166 130 1;
#X obj 102 140 *;
#X obj 215 98 sqr;
#X obj 215 119 sqr;
#X obj 245 107 moses 0;
#X obj 220 79 t f f;
#X msg 243 130 -1;
#X msg 278 129 1;
#X obj 214 139 *;
#X obj 219 59 unpack f f f;
#X obj 216 161 pack f f f;
#X obj 142 218 abs~;
#X obj 143 286 xfade~;
#X obj 129 309 *~ -1;
#X obj 7 119 sqr;
#X obj 8 143 sqr;
#X obj 37 120 moses 0;
#X obj 6 95 t f f;
#X obj 7 167 *;
#X msg 67 143 1;
#X msg 36 143 -1;
#X obj 215 251 expr~ $v1 < 0;
#X connect 0 0 30 0;
#X connect 0 0 40 0;
#X connect 2 0 3 0;
#X connect 3 0 31 0;
#X connect 4 0 7 0;
#X connect 5 0 0 1;
#X connect 6 0 0 2;
#X connect 7 0 9 0;
#X connect 7 1 8 0;
#X connect 8 0 9 1;
#X connect 9 0 10 0;
#X connect 10 0 36 0;
#X connect 10 1 12 0;
#X connect 10 2 28 0;
#X connect 11 0 0 0;
#X connect 12 0 17 0;
#X connect 12 1 11 1;
#X connect 13 0 14 0;
#X connect 14 0 20 0;
#X connect 16 0 18 0;
#X connect 16 1 19 0;
#X connect 17 0 13 0;
#X connect 17 1 16 0;
#X connect 18 0 20 1;
#X connect 19 0 20 1;
#X connect 20 0 11 0;
#X connect 21 0 22 0;
#X connect 22 0 27 0;
#X connect 23 0 25 0;
#X connect 23 1 26 0;
#X connect 24 0 21 0;
#X connect 24 1 23 0;
#X connect 25 0 27 1;
#X connect 26 0 27 1;
#X connect 27 0 29 0;
#X connect 28 0 24 0;
#X connect 28 1 29 1;
#X connect 28 2 29 2;
#X connect 29 0 0 0;
#X connect 30 0 2 0;
#X connect 31 0 32 0;
#X connect 31 1 1 0;
#X connect 32 0 1 0;
#X connect 33 0 34 0;
#X connect 34 0 37 0;
#X connect 35 0 39 0;
#X connect 35 1 38 0;
#X connect 36 0 33 0;
#X connect 36 1 35 0;
#X connect 37 0 0 0;
#X connect 38 0 37 1;
#X connect 39 0 37 1;
#X connect 40 0 31 1;
