#N canvas 431 116 565 457 10;
#X obj 122 193 line;
#X obj 108 323 outlet;
#X obj 102 -75 inlet;
#X obj 170 -27 list length;
#X obj 102 -49 t l l;
#X obj 101 -6 list prepend;
#X obj 101 18 route 1 2;
#X obj 206 7 inlet;
#X obj 127 166 pack f f;
#X obj 129 37 unpack f f;
#X obj 161 98 moses 0;
#X obj 130 59 t f f;
#X obj 131 145 *;
#X msg 191 121 1;
#X msg 160 121 -1;
#X obj 117 216 t f f;
#X obj 144 241 moses 0;
#X obj 120 288 *;
#X msg 190 270 1;
#X msg 148 267 -1;
#X text 223 103 quartic line (for exponential ramping);
#X obj 132 121 sqrt;
#X obj 128 100 sqrt;
#X obj 100 238 sqr;
#X obj 100 259 sqr;
#X obj 54 79 moses 0;
#X obj 27 31 t f f;
#X obj 22 128 *;
#X msg 84 102 1;
#X msg 53 102 -1;
#X obj 25 102 sqrt;
#X obj 24 78 sqrt;
#X obj 25 56 abs;
#X obj 129 79 abs;
#X connect 0 0 15 0;
#X connect 2 0 4 0;
#X connect 3 0 5 1;
#X connect 4 0 5 0;
#X connect 4 1 3 0;
#X connect 5 0 6 0;
#X connect 6 0 26 0;
#X connect 6 1 9 0;
#X connect 7 0 0 1;
#X connect 8 0 0 0;
#X connect 9 0 11 0;
#X connect 9 1 8 1;
#X connect 10 0 14 0;
#X connect 10 1 13 0;
#X connect 11 0 33 0;
#X connect 11 1 10 0;
#X connect 12 0 8 0;
#X connect 13 0 12 1;
#X connect 14 0 12 1;
#X connect 15 0 23 0;
#X connect 15 1 16 0;
#X connect 16 0 19 0;
#X connect 16 1 18 0;
#X connect 17 0 1 0;
#X connect 18 0 17 1;
#X connect 19 0 17 1;
#X connect 21 0 12 0;
#X connect 22 0 21 0;
#X connect 23 0 24 0;
#X connect 24 0 17 0;
#X connect 25 0 29 0;
#X connect 25 1 28 0;
#X connect 26 0 32 0;
#X connect 26 1 25 0;
#X connect 27 0 0 0;
#X connect 28 0 27 1;
#X connect 29 0 27 1;
#X connect 30 0 27 0;
#X connect 31 0 30 0;
#X connect 32 0 31 0;
#X connect 33 0 22 0;
