#N canvas 0 23 595 389 10;
#X obj 144 180 +~;
#X obj 155 131 vd~ \$0-allpass;
#X obj 160 154 *~;
#X obj 206 109 *~ -1;
#X obj 301 280 block~ 2 1 2;
#X obj 114 29 loadbang;
#X obj 113 49 samplerate~;
#X obj 172 81 inlet~ lin;
#X obj 170 108 abs~;
#X obj 141 261 hip~ 5;
#X obj 142 234 +~;
#X obj 142 209 *~;
#X obj 282 51 inlet~ lin;
#X obj 34 48 inlet~ lin;
#X obj 138 299 outlet~;
#X obj 289 105 clip~ -1 1;
#X obj 188 211 delwrite~ \$0-allpass 3000;
#X obj 109 71 / 4;
#X obj 45 92 lp4_butt~ 22050 100;
#X connect 0 0 11 0;
#X connect 0 0 16 0;
#X connect 1 0 2 0;
#X connect 1 0 10 1;
#X connect 2 0 0 1;
#X connect 3 0 2 1;
#X connect 5 0 6 0;
#X connect 6 0 17 0;
#X connect 7 0 8 0;
#X connect 8 0 1 0;
#X connect 9 0 14 0;
#X connect 10 0 9 0;
#X connect 11 0 10 0;
#X connect 12 0 15 0;
#X connect 13 0 18 0;
#X connect 15 0 3 0;
#X connect 15 0 11 1;
#X connect 17 0 18 1;
#X connect 18 0 0 0;
