#N canvas 244 83 609 445 10;
#X text 164 317 allpass filter with delay able to be greater than 1
.real coefficients;
#X floatatom 112 69 5 0 0 0 - - -;
#X obj 116 96 mtof;
#X obj 115 125 mstof;
#X text 330 204 inlets: signal \, delay time \, coefficient;
#X obj 188 272 *~ 0.5;
#X obj 87 294 *~ 0.5;
#X text 184 364 arguments: delay time \, coefficient \, size of buffer
in ms (100 by default);
#X text 193 408 note: arguments changed after shodylib version 2.1.3
;
#X obj 241 145 ./smoother~;
#X obj 93 7 ./sndfread~;
#X obj 115 149 ./smoother~ 100;
#X obj 106 210 ./realpass~ 1000;
#X obj 226 211 ./realpass~ 1000;
#X obj 79 357 ./outputc~;
#X connect 1 0 2 0;
#X connect 2 0 3 0;
#X connect 3 0 11 0;
#X connect 5 0 14 1;
#X connect 6 0 14 0;
#X connect 9 0 12 2;
#X connect 9 0 13 2;
#X connect 10 0 6 0;
#X connect 10 0 12 0;
#X connect 10 1 5 0;
#X connect 10 1 13 0;
#X connect 11 0 12 1;
#X connect 11 0 13 1;
#X connect 12 0 6 0;
#X connect 13 0 5 0;
