#N canvas 0 23 595 389 10;
#X obj 144 180 +~;
#X obj 160 154 *~;
#X obj 206 109 *~ -1;
#X obj 170 108 abs~;
#X obj 142 234 +~;
#X obj 142 209 *~;
#X obj 138 299 outlet~;
#X obj 289 105 clip~ -1 1;
#X obj 155 131 vdhs~ \$0-allpass;
#X obj 301 280 block~ 1;
#X obj 282 51 inlet~;
#X obj 172 81 inlet~;
#X obj 34 48 inlet~;
#X obj 188 211 delwritec~ \$0-allpass \$1;
#X connect 0 0 5 0;
#X connect 0 0 13 0;
#X connect 1 0 0 1;
#X connect 2 0 1 1;
#X connect 3 0 8 0;
#X connect 4 0 6 0;
#X connect 5 0 4 0;
#X connect 7 0 2 0;
#X connect 7 0 5 1;
#X connect 8 0 1 0;
#X connect 8 0 4 1;
#X connect 10 0 7 0;
#X connect 11 0 3 0;
#X connect 12 0 0 0;
