#N canvas 492 368 679 407 10;
#X obj 293 58 inlet;
#X text 171 91 Set receive name;
#X obj 281 87 symbol \$1;
#X obj 389 35 loadbang;
#N canvas 0 23 450 300 receive-\$0 0;
#X restore 63 138 pd receive-\$0;
#X obj 83 180 r out-\$0;
#X obj 83 215 outlet;
#X msg 297 157 clear \, obj 145 115 r \$1 \, obj 145 150 s out-\$2
\, connect 0 0 1 0;
#X obj 299 199 s pd-receive-\$0;
#X obj 301 137 pack s \$0;
#X obj 377 62 t b b;
#X obj 245 115 sel symbol;
#X msg 420 84 symbol;
#X connect 0 0 2 0;
#X connect 2 0 11 0;
#X connect 3 0 10 0;
#X connect 5 0 6 0;
#X connect 7 0 8 0;
#X connect 9 0 7 0;
#X connect 10 0 2 0;
#X connect 10 1 12 0;
#X connect 11 1 9 0;
#X connect 12 0 11 1;
