#N canvas 459 295 450 300 10;
#X obj 48 66 phasor~;
#X text 145 37 like operatord~ but with square wave;
#X obj 209 134 ./oscope~;
#X obj 50 21 ./smoother~;
#X obj 47 98 ./rectoratord~ 1 0;
#X obj 42 127 ./outputc~;
#X connect 0 0 4 0;
#X connect 3 0 0 0;
#X connect 4 0 2 0;
#X connect 4 0 5 0;
#X connect 4 0 5 1;
