#N canvas 208 38 1060 829 10;
#X obj 57 207 inlet~;
#X obj 287 -106 inlet;
#X obj 234 335 tabwrite~ \$0-buffer;
#X obj 73 372 *~ 1;
#X obj 95 518 outlet~;
#X msg 132 150 1;
#X msg 193 139 0;
#X msg 252 307 stop;
#X obj 609 -107 inlet;
#X obj 533 74 route 0 1;
#X obj 519 348 tabread4~ \$0-buffer;
#X obj 377 -112 inlet~;
#X msg 453 146 clear;
#X obj 496 222 +~;
#X obj 254 56 route 0;
#X obj 234 86 t b f;
#X obj 242 215 del;
#X obj 287 -65 list;
#X obj 287 -42 list split 1;
#X msg 328 -16 bang;
#X obj 329 5 cup;
#X obj 264 26 list prepend;
#X obj 287 -86 t l b;
#X msg 363 -14 0;
#X obj 132 343 *~ 0;
#X obj 313 91 t b f;
#X obj 537 -33 list split 1;
#X obj 536 -55 list;
#X obj 538 31 f;
#X obj 301 287 s \$0-buflength;
#X obj 678 -24 r \$0-buflength;
#X obj 561 6 bang;
#X obj 155 318 1-0switch;
#X obj 98 279 t f b b;
#X obj 130 407 -;
#X obj 105 477 +~;
#X msg 378 12 stop;
#X msg 313 72 \$2;
#X obj 539 53 pack f f f;
#X obj 106 231 spigot;
#X obj 120 186 t b f;
#X msg 126 208 0;
#X obj 170 268 spigot;
#X obj 184 204 t b f;
#X msg 195 225 0;
#X msg 159 221 1;
#X msg 94 174 1;
#X obj 584 -73 list 0;
#X obj 404 170 rpole~ 1;
#X obj 430 89 *~ 1;
#X msg 453 64 1;
#X msg 479 64 -1;
#X obj 448 -55 /~ 12;
#X obj 422 -18 pow~;
#X obj 402 -46 sig~ 2;
#X obj 427 44 -~ 1;
#X obj 611 513 table \$0-buffer 132300;
#X obj 104 498 hip~ 5;
#X obj 512 244 /~ 1;
#X obj 518 303 *~ 1;
#X obj 510 278 wrap~;
#X obj 505 118 t l b b;
#X obj 523 368 +~;
#X msg 676 145 1;
#X obj 109 372 snapshot~;
#X obj 189 367 snapshot~;
#X obj 137 455 line~;
#X obj 331 237 del;
#X obj 434 544 block~ 64;
#X obj 663 205 f;
#X obj 617 227 -;
#X msg 622 253 \$1 \, 0 5;
#X obj 593 201 snapshot~;
#X obj 624 287 line~;
#X obj 523 164 line~;
#X obj 304 265 f;
#X obj 261 153 div 64;
#X obj 267 176 * 64;
#X obj 269 106 mstos;
#X obj 269 201 stoms;
#X obj 247 243 t b b b;
#X obj 570 109 t l b b;
#X obj 650 114 f;
#X obj 263 287 del;
#X obj 389 216 loadbang;
#X obj 386 239 samplerate~;
#X obj 657 35 f;
#X obj 614 30 f;
#X obj 484 -40 == 1;
#X obj 625 -23 == 1;
#X obj 620 -48 f;
#X obj 490 -10 &;
#X obj 482 16 sel 1 0;
#X obj 374 52 sel 2;
#X obj 268 130 + 63;
#X msg 501 141 0 \, \$1 \$2;
#X msg 566 135 \$1 \, 0 \$2;
#X obj 632 4 - 3;
#X obj 521 324 +~ 1;
#X obj 668 69 + 1;
#X msg 356 -86 \; \$1-buffer const 0;
#X msg 135 432 \$1 \, 0 5;
#X obj 341 161 div 64;
#X obj 347 184 * 64;
#X obj 349 114 mstos;
#X obj 349 209 stoms;
#X obj 348 138 + 63;
#X obj 676 172 tabread4 \$0-buffer;
#X obj 670 92 tabread4 \$0-buffer;
#X obj 379 263 expr 64000/$f1;
#X text 713 304 todo: switch to [moop~] object interaction?;
#X connect 0 0 3 0;
#X connect 0 0 2 0;
#X connect 0 0 65 0;
#X connect 1 0 22 0;
#X connect 3 0 35 0;
#X connect 5 0 40 0;
#X connect 5 0 45 0;
#X connect 6 0 43 0;
#X connect 6 0 46 0;
#X connect 7 0 2 0;
#X connect 8 0 47 1;
#X connect 9 0 50 0;
#X connect 9 0 61 0;
#X connect 9 1 51 0;
#X connect 9 1 81 0;
#X connect 10 0 62 0;
#X connect 11 0 52 0;
#X connect 12 0 48 0;
#X connect 13 0 58 0;
#X connect 14 0 15 0;
#X connect 14 1 37 0;
#X connect 15 0 16 0;
#X connect 15 0 2 0;
#X connect 15 0 5 0;
#X connect 15 1 78 0;
#X connect 16 0 80 0;
#X connect 17 0 18 0;
#X connect 18 0 21 0;
#X connect 18 1 17 1;
#X connect 18 1 19 0;
#X connect 18 2 5 0;
#X connect 19 0 20 0;
#X connect 20 0 21 1;
#X connect 20 0 88 0;
#X connect 20 0 93 0;
#X connect 21 0 14 0;
#X connect 22 0 17 0;
#X connect 22 1 23 0;
#X connect 22 1 36 0;
#X connect 22 1 47 0;
#X connect 22 1 17 1;
#X connect 23 0 20 0;
#X connect 24 0 35 1;
#X connect 24 0 64 0;
#X connect 25 0 27 0;
#X connect 25 0 67 0;
#X connect 25 1 104 0;
#X connect 26 0 28 0;
#X connect 26 1 27 1;
#X connect 26 2 31 0;
#X connect 27 0 26 0;
#X connect 28 0 38 0;
#X connect 30 0 63 0;
#X connect 30 0 86 1;
#X connect 30 0 97 0;
#X connect 31 0 28 0;
#X connect 32 0 24 1;
#X connect 33 0 3 1;
#X connect 33 0 32 0;
#X connect 33 1 64 0;
#X connect 33 2 65 0;
#X connect 34 0 101 0;
#X connect 35 0 57 0;
#X connect 35 0 72 0;
#X connect 36 0 16 0;
#X connect 36 0 67 0;
#X connect 37 0 25 0;
#X connect 38 0 9 0;
#X connect 39 0 33 0;
#X connect 40 0 41 0;
#X connect 40 1 39 0;
#X connect 41 0 39 1;
#X connect 42 0 32 0;
#X connect 42 0 3 1;
#X connect 43 0 44 0;
#X connect 43 1 42 0;
#X connect 44 0 42 1;
#X connect 45 0 42 1;
#X connect 46 0 39 1;
#X connect 47 0 27 1;
#X connect 47 0 90 0;
#X connect 48 0 13 0;
#X connect 49 0 48 0;
#X connect 50 0 49 1;
#X connect 51 0 49 1;
#X connect 52 0 53 1;
#X connect 53 0 55 0;
#X connect 54 0 53 0;
#X connect 55 0 49 0;
#X connect 57 0 4 0;
#X connect 58 0 60 0;
#X connect 59 0 98 0;
#X connect 60 0 59 0;
#X connect 61 0 95 0;
#X connect 61 1 72 0;
#X connect 61 2 69 0;
#X connect 61 2 12 0;
#X connect 62 0 24 0;
#X connect 63 0 107 0;
#X connect 64 0 34 0;
#X connect 65 0 34 1;
#X connect 66 0 35 1;
#X connect 67 0 17 0;
#X connect 69 0 70 1;
#X connect 70 0 71 0;
#X connect 71 0 73 0;
#X connect 72 0 70 0;
#X connect 73 0 62 1;
#X connect 74 0 13 1;
#X connect 75 0 29 0;
#X connect 76 0 77 0;
#X connect 77 0 75 1;
#X connect 77 0 79 0;
#X connect 78 0 94 0;
#X connect 79 0 16 1;
#X connect 79 0 38 2;
#X connect 80 0 6 0;
#X connect 80 1 17 0;
#X connect 80 1 83 0;
#X connect 80 2 75 0;
#X connect 81 0 96 0;
#X connect 81 1 72 0;
#X connect 81 2 12 0;
#X connect 81 2 82 0;
#X connect 82 0 70 1;
#X connect 83 0 7 0;
#X connect 84 0 85 0;
#X connect 85 0 109 0;
#X connect 86 0 58 1;
#X connect 86 0 59 1;
#X connect 86 0 38 1;
#X connect 86 0 99 0;
#X connect 87 0 38 1;
#X connect 87 0 58 1;
#X connect 87 0 59 1;
#X connect 87 0 99 0;
#X connect 88 0 91 0;
#X connect 89 0 91 1;
#X connect 90 0 89 0;
#X connect 91 0 92 0;
#X connect 92 0 87 0;
#X connect 92 1 86 0;
#X connect 93 0 86 0;
#X connect 94 0 76 0;
#X connect 95 0 74 0;
#X connect 96 0 74 0;
#X connect 97 0 87 1;
#X connect 98 0 10 0;
#X connect 99 0 108 0;
#X connect 101 0 66 0;
#X connect 102 0 103 0;
#X connect 103 0 105 0;
#X connect 104 0 106 0;
#X connect 105 0 67 1;
#X connect 106 0 102 0;
#X connect 107 0 69 1;
#X connect 108 0 82 1;
#X connect 109 0 83 1;
