#N canvas 138 84 820 643 10;
#X obj 49 90 inlet~;
#X obj 287 -106 inlet;
#X obj 238 189 tabwrite~ \$0-buffer;
#X obj 76 187 *~ 1;
#X obj 87 401 outlet~;
#X obj 190 -47 s \$0-buffer;
#X msg 188 -67 const 0;
#X msg 115 44 1;
#X msg 182 61 0;
#X msg 265 134 stop;
#X obj 609 -107 inlet;
#X msg 525 125 1 \, \$1 \$2;
#X obj 526 83 route 0 1;
#X msg 557 105 \$1 \, 1 \$2;
#X obj 520 240 tabread4~ \$0-buffer;
#X obj 377 -112 inlet~;
#X obj 528 148 vline~;
#X msg 412 146 clear;
#X obj 518 183 +~;
#X obj 519 214 clip~ 1;
#X obj 265 49 route 0;
#X obj 265 69 t b f;
#X obj 265 91 del;
#X obj 265 112 del 5;
#X obj 650 24 mstos;
#X obj 287 -65 list;
#X obj 287 -42 list split 1;
#X msg 328 -16 bang;
#X obj 329 5 cup;
#X obj 264 26 list prepend;
#X obj 287 -86 t l b;
#X msg 363 -14 0;
#X obj 202 244 *~ 0;
#X obj 313 91 t b f;
#X obj 313 113 del;
#X obj 538 -23 list split 1;
#X obj 537 -45 list;
#X obj 538 31 f;
#X obj 304 134 s \$0-buflength;
#X obj 650 -24 r \$0-buflength;
#X obj 561 6 bang;
#X obj 171 198 1-0switch;
#X obj 90 162 t f b b;
#X obj 179 273 snapshot~;
#X obj 113 256 snapshot~;
#X obj 122 290 -;
#X obj 102 368 +~;
#X msg 127 315 \$1 \, 0 20;
#X obj 129 338 line~;
#X obj 172 162 t f b b;
#X obj 247 262 snapshot~;
#X obj 50 230 snapshot~;
#X obj 186 293 -;
#X msg 378 12 stop;
#X msg 313 72 \$2;
#X obj 537 61 pack f f f;
#X obj 98 114 spigot;
#X obj 112 69 t b f;
#X msg 118 91 0;
#X obj 171 131 spigot;
#X obj 176 87 t b f;
#X msg 187 108 0;
#X msg 151 104 1;
#X msg 86 57 1;
#X obj 584 -73 list 0;
#X obj 404 170 rpole~ 1;
#X obj 430 89 *~ 1;
#X msg 453 64 1;
#X msg 479 64 -1;
#X obj 448 -55 /~ 12;
#X obj 422 -18 pow~;
#X obj 402 -46 sig~ 2;
#X obj 427 44 -~ 1;
#X obj 648 274 table \$0-buffer 132300;
#X connect 0 0 3 0;
#X connect 0 0 2 0;
#X connect 0 0 44 0;
#X connect 1 0 30 0;
#X connect 3 0 46 0;
#X connect 3 0 51 0;
#X connect 6 0 5 0;
#X connect 7 0 57 0;
#X connect 7 0 62 0;
#X connect 8 0 60 0;
#X connect 8 0 63 0;
#X connect 9 0 2 0;
#X connect 10 0 64 1;
#X connect 11 0 16 0;
#X connect 12 0 11 0;
#X connect 12 0 17 0;
#X connect 12 0 67 0;
#X connect 12 1 13 0;
#X connect 12 1 17 0;
#X connect 12 1 68 0;
#X connect 13 0 16 0;
#X connect 14 0 32 0;
#X connect 14 0 50 0;
#X connect 15 0 69 0;
#X connect 16 0 18 1;
#X connect 17 0 65 0;
#X connect 18 0 19 0;
#X connect 19 0 14 0;
#X connect 20 0 21 0;
#X connect 20 1 54 0;
#X connect 21 0 22 0;
#X connect 21 0 2 0;
#X connect 21 0 7 0;
#X connect 21 1 22 1;
#X connect 21 1 38 0;
#X connect 22 0 23 0;
#X connect 22 0 8 0;
#X connect 22 0 25 0;
#X connect 23 0 9 0;
#X connect 24 0 19 2;
#X connect 24 0 55 1;
#X connect 25 0 26 0;
#X connect 26 0 29 0;
#X connect 26 1 25 1;
#X connect 26 1 27 0;
#X connect 26 2 7 0;
#X connect 27 0 28 0;
#X connect 28 0 29 1;
#X connect 29 0 20 0;
#X connect 30 0 25 0;
#X connect 30 1 31 0;
#X connect 30 1 6 0;
#X connect 30 1 53 0;
#X connect 30 1 64 0;
#X connect 30 1 25 1;
#X connect 31 0 28 0;
#X connect 32 0 43 0;
#X connect 32 0 46 1;
#X connect 33 0 34 0;
#X connect 33 0 36 0;
#X connect 33 1 34 1;
#X connect 34 0 25 0;
#X connect 35 0 37 0;
#X connect 35 1 36 1;
#X connect 35 2 40 0;
#X connect 36 0 35 0;
#X connect 37 0 55 0;
#X connect 39 0 24 0;
#X connect 39 0 55 2;
#X connect 40 0 37 0;
#X connect 41 0 32 1;
#X connect 42 0 3 1;
#X connect 42 0 41 0;
#X connect 42 1 43 0;
#X connect 42 2 44 0;
#X connect 43 0 45 0;
#X connect 44 0 45 1;
#X connect 45 0 47 0;
#X connect 46 0 4 0;
#X connect 47 0 48 0;
#X connect 48 0 46 1;
#X connect 49 0 41 0;
#X connect 49 0 3 1;
#X connect 49 1 51 0;
#X connect 49 2 50 0;
#X connect 50 0 52 1;
#X connect 51 0 52 0;
#X connect 52 0 47 0;
#X connect 53 0 34 0;
#X connect 53 0 22 0;
#X connect 54 0 33 0;
#X connect 55 0 12 0;
#X connect 56 0 42 0;
#X connect 57 0 58 0;
#X connect 57 1 56 0;
#X connect 58 0 56 1;
#X connect 59 0 49 0;
#X connect 60 0 61 0;
#X connect 60 1 59 0;
#X connect 61 0 59 1;
#X connect 62 0 59 1;
#X connect 63 0 56 1;
#X connect 64 0 36 1;
#X connect 65 0 18 0;
#X connect 66 0 65 0;
#X connect 67 0 66 1;
#X connect 68 0 66 1;
#X connect 69 0 70 1;
#X connect 70 0 72 0;
#X connect 71 0 70 0;
#X connect 72 0 66 0;
