#N canvas 466 257 863 449 10;
#X obj 129 34 inlet;
#X obj 296 54 inlet;
#X obj 324 257 -;
#X msg 217 157 0 \, 1 \$1;
#X msg 242 111 0;
#X obj 410 114 inlet;
#X obj 209 213 shadylook rexp;
#X obj 225 294 scaler;
#X obj 235 341 outlet;
#X obj 222 135 swap;
#X obj 132 58 route stop set;
#X obj 323 196 t b f;
#X msg 169 150 stop;
#X obj 217 182 line 0 \$2;
#X obj 324 220 f \$1;
#X obj 215 83 t b a;
#X obj 171 99 b;
#X connect 0 0 10 0;
#X connect 1 0 9 1;
#X connect 2 0 7 1;
#X connect 3 0 13 0;
#X connect 4 0 9 1;
#X connect 5 0 13 2;
#X connect 6 0 7 0;
#X connect 7 0 8 0;
#X connect 7 0 14 1;
#X connect 9 0 3 0;
#X connect 9 1 7 2;
#X connect 9 1 11 0;
#X connect 10 0 12 0;
#X connect 10 1 14 1;
#X connect 10 1 16 0;
#X connect 10 2 15 0;
#X connect 11 0 14 0;
#X connect 11 1 2 1;
#X connect 12 0 13 0;
#X connect 13 0 6 0;
#X connect 14 0 2 0;
#X connect 15 0 4 0;
#X connect 15 1 9 0;
#X connect 16 0 12 0;
