#N canvas 662 98 778 513 10;
#N canvas 745 217 695 548 array 1;
#X obj 168 -121 inlet;
#X obj 230 -229 closebang;
#X obj 241 -176 t b b;
#X obj 172 -51 sel 0;
#X msg 229 -103 1;
#X msg 218 -130 0;
#X msg 282 -46 clear;
#X obj 238 -201 spigot;
#X msg 244 -150 \; glob-seline-close bang;
#X obj 192 34 s pd-\$0-eline;
#N canvas 990 400 450 300 \$0-eline 1;
#X restore 238 81 pd \$0-eline;
#X obj 169 -78 v glob-seline-init;
#X msg 194 -2 obj 20 20 globeline~;
#X connect 0 0 11 0;
#X connect 1 0 7 0;
#X connect 2 0 8 0;
#X connect 2 1 5 0;
#X connect 2 1 6 0;
#X connect 3 0 4 0;
#X connect 3 0 12 0;
#X connect 4 0 7 1;
#X connect 4 0 11 0;
#X connect 5 0 11 0;
#X connect 6 0 9 0;
#X connect 7 0 2 0;
#X connect 11 0 3 0;
#X connect 12 0 9 0;
#X restore 518 132 pd array;
#X obj 304 23 inlet;
#X obj 343 23 inlet;
#X obj 307 86 route float list;
#X obj 476 216 -;
#X msg 319 157 stop;
#X obj 348 180 line~;
#X obj 455 118 snapshot~;
#X obj 349 266 +~ 0;
#X obj 392 245 *~ 0;
#X obj 309 55 t a b b;
#X obj 253 400 outlet~;
#X obj 439 142 f 0;
#X obj 171 189 route 0 1;
#X msg 241 138 1;
#X obj 207 211 t f b;
#X msg 275 137 0;
#X obj 170 164 list prepend 0;
#X obj 452 88 spigot;
#X msg 492 63 0;
#X msg 524 65 1;
#X obj 167 275 sig~;
#X msg 227 315 0;
#X msg 207 305 1;
#X obj 200 339 *~ 0;
#X msg 351 303 0;
#X msg 380 295 1;
#X obj 335 329 *~ 0;
#X obj 431 170 pack;
#X msg 474 192 \$2 \$1;
#X obj 353 129 swap;
#X obj 616 100 loadbang;
#X obj 613 187 stoms;
#X msg 634 154 64;
#X obj 446 244 <=;
#X obj 515 279 f;
#X obj 449 271 sel 1 0;
#X floatatom 523 243 5 0 0 0 - - -;
#X obj 561 73 r glob-seline-close;
#X obj 354 206 tabread4~ eline~;
#X msg 354 154 4094 \, 1 \$1;
#X connect 1 0 10 0;
#X connect 2 0 14 0;
#X connect 2 0 30 1;
#X connect 3 0 17 0;
#X connect 3 1 16 0;
#X connect 3 1 30 0;
#X connect 4 0 9 1;
#X connect 4 0 37 0;
#X connect 5 0 6 0;
#X connect 6 0 39 0;
#X connect 7 0 12 1;
#X connect 8 0 7 0;
#X connect 8 0 27 0;
#X connect 9 0 8 0;
#X connect 10 0 3 0;
#X connect 10 1 12 0;
#X connect 10 2 5 0;
#X connect 10 2 18 0;
#X connect 12 0 28 1;
#X connect 13 0 19 0;
#X connect 13 0 12 0;
#X connect 13 0 21 0;
#X connect 13 0 23 0;
#X connect 13 0 25 0;
#X connect 13 1 15 0;
#X connect 14 0 17 1;
#X connect 15 0 30 0;
#X connect 15 1 16 0;
#X connect 16 0 17 1;
#X connect 17 0 13 0;
#X connect 18 0 7 0;
#X connect 19 0 18 1;
#X connect 20 0 18 1;
#X connect 21 0 24 0;
#X connect 22 0 24 1;
#X connect 23 0 24 1;
#X connect 24 0 11 0;
#X connect 25 0 27 1;
#X connect 26 0 27 1;
#X connect 27 0 11 0;
#X connect 28 0 29 0;
#X connect 29 0 4 0;
#X connect 30 0 40 0;
#X connect 30 0 34 0;
#X connect 30 1 28 0;
#X connect 30 1 8 1;
#X connect 30 1 35 1;
#X connect 31 0 33 0;
#X connect 31 0 0 0;
#X connect 32 0 34 1;
#X connect 33 0 32 0;
#X connect 34 0 36 0;
#X connect 35 0 12 1;
#X connect 36 0 35 0;
#X connect 36 0 19 0;
#X connect 36 1 20 0;
#X connect 38 0 0 0;
#X connect 39 0 9 0;
#X connect 40 0 6 0;
#X connect 40 0 22 0;
#X connect 40 0 26 0;
