#N canvas 606 187 635 493 10;
#X declare -lib zexy;
#X obj 207 16 inlet;
#X obj 286 35 inlet;
#X obj 225 352 outlet~;
#X obj 210 166 line~;
#X obj 219 68 pack;
#X obj 209 117 unpack;
#X msg 241 42 0;
#X msg 207 138 0 \, 0.75 \$1;
#X obj 338 11 declare -lib zexy;
#X obj 152 44 relay stop;
#X obj 199 194 ./shadylook~ rexp;
#X obj 150 230 ./scaler~ 1.00464 -0.0046352;
#X obj 223 319 ./scaler~;
#X obj 219 91 t l b l;
#X obj 352 118 snapshot~;
#X obj 352 286 -;
#X obj 352 242 f;
#X obj 379 261 f;
#X obj 352 144 t b f;
#X obj 352 171 f;
#X obj 394 140 unpack f f;
#X obj 352 192 <= 0;
#X obj 352 219 sel 1;
#X obj 379 238 b;
#X connect 0 0 9 0;
#X connect 1 0 4 1;
#X connect 3 0 10 0;
#X connect 4 0 13 0;
#X connect 5 0 12 2;
#X connect 5 0 15 1;
#X connect 5 1 7 0;
#X connect 6 0 4 1;
#X connect 7 0 3 0;
#X connect 9 0 3 0;
#X connect 9 1 4 0;
#X connect 10 0 11 0;
#X connect 11 0 12 0;
#X connect 12 0 2 0;
#X connect 12 0 14 0;
#X connect 13 0 20 0;
#X connect 13 1 6 0;
#X connect 13 1 14 0;
#X connect 13 2 5 0;
#X connect 14 0 18 0;
#X connect 15 0 12 1;
#X connect 16 0 15 0;
#X connect 17 0 15 0;
#X connect 18 0 19 0;
#X connect 18 1 17 1;
#X connect 19 0 21 0;
#X connect 20 0 16 1;
#X connect 20 1 19 1;
#X connect 21 0 22 0;
#X connect 22 0 16 0;
#X connect 22 1 23 0;
#X connect 23 0 17 0;
