#N canvas 770 23 476 380 10;
#N canvas 0 22 450 278 (subpatch) 0;
#X array srexplinetest 44100 float 2;
#X coords 0 40 44099 0 200 140 1 0 0;
#X restore 232 54 graph;
#X obj 117 48 bng 15 250 50 0 empty empty empty 17 7 0 10 -262144 -1
-1;
#X msg 119 97 15;
#X msg 153 85 40 500;
#X msg 199 91 600;
#X obj 156 59 bng 15 250 50 0 empty empty empty 17 7 0 10 -262144 -1
-1;
#X text 135 21 exponential audio ramp;
#X obj 77 53 bng 15 250 50 0 empty empty empty 17 7 0 10 -262144 -1
-1;
#X obj 110 155 del 400;
#X obj 26 110 bng 15 250 50 0 empty empty empty 17 7 0 10 -262144 -1
-1;
#X msg 111 175 0 500;
#X obj 77 226 rexpline~;
#X msg 290 248 \; pd dsp 1;
#X obj 150 317 tabwrite~ srexplinetest;
#X msg 34 155 15 \, 40 400;
#X msg 49 90 40 \, 0 1000;
#X connect 1 0 2 0;
#X connect 1 0 13 0;
#X connect 2 0 11 0;
#X connect 3 0 11 0;
#X connect 4 0 11 1;
#X connect 5 0 3 0;
#X connect 5 0 13 0;
#X connect 7 0 15 0;
#X connect 7 0 13 0;
#X connect 8 0 10 0;
#X connect 9 0 14 0;
#X connect 9 0 8 0;
#X connect 9 0 13 0;
#X connect 10 0 11 0;
#X connect 11 0 13 0;
#X connect 14 0 11 0;
#X connect 15 0 11 0;
