#N canvas 256 414 863 449 10;
#X obj 285 75 inlet;
#X obj 379 63 inlet;
#X obj 337 304 +;
#X obj 432 181 f;
#X obj 290 107 t a b;
#X obj 449 258 -;
#X obj 252 368 outlet;
#X obj 335 280 *;
#X msg 300 209 stop;
#X obj 246 158 t b f;
#X obj 172 228 route 0 1;
#X msg 240 179 1;
#X obj 211 250 t f b;
#X msg 278 188 0;
#X obj 169 205 list prepend 0;
#X obj 445 232 swap;
#X obj 342 180 swap;
#X obj 337 232 line 0 \$1;
#X obj 525 71 inlet;
#X obj 288 138 route float list set;
#X msg 341 210 0 \, 1 \$1;
#X obj 335 258 shadylook rexp;
#X connect 0 0 4 0;
#X connect 1 0 9 0;
#X connect 2 0 3 1;
#X connect 2 0 6 0;
#X connect 3 0 15 1;
#X connect 4 0 19 0;
#X connect 4 1 3 0;
#X connect 4 1 8 0;
#X connect 5 0 7 1;
#X connect 7 0 2 0;
#X connect 8 0 17 0;
#X connect 9 0 11 0;
#X connect 9 1 16 1;
#X connect 10 0 6 0;
#X connect 10 0 3 1;
#X connect 10 1 12 0;
#X connect 11 0 14 1;
#X connect 12 0 16 0;
#X connect 12 1 13 0;
#X connect 13 0 14 1;
#X connect 14 0 10 0;
#X connect 15 0 5 0;
#X connect 15 1 5 1;
#X connect 16 0 20 0;
#X connect 16 1 15 0;
#X connect 16 1 2 1;
#X connect 17 0 21 0;
#X connect 18 0 17 2;
#X connect 19 0 14 0;
#X connect 19 1 13 0;
#X connect 19 1 16 0;
#X connect 19 2 3 1;
#X connect 20 0 17 0;
#X connect 21 0 7 0;
