#N canvas 360 265 1065 512 10;
#X obj 304 23 inlet;
#X obj 343 23 inlet;
#X obj 307 86 route float list;
#X obj 476 216 -;
#X msg 319 157 stop;
#X obj 348 180 line~;
#X obj 455 118 snapshot~;
#X obj 349 266 +~ 0;
#X obj 356 240 *~ 0;
#X obj 309 55 t a b b;
#X obj 253 400 outlet~;
#X obj 439 142 f 0;
#X obj 171 189 route 0 1;
#X msg 241 138 1;
#X obj 207 211 t f b;
#X msg 275 137 0;
#X obj 170 164 list prepend 0;
#X obj 452 88 spigot;
#X msg 492 63 0;
#X msg 524 65 1;
#X obj 167 275 sig~;
#X msg 227 315 0;
#X msg 207 305 1;
#X obj 200 339 *~ 0;
#X msg 351 303 0;
#X msg 380 295 1;
#X obj 335 329 *~ 0;
#X obj 431 170 pack;
#X msg 474 192 \$2 \$1;
#X obj 353 129 swap;
#X obj 446 244 <=;
#X obj 515 279 f;
#X obj 449 271 sel 1 0;
#X floatatom 523 243 5 0 0 0 - - -;
#X obj 348 205 shadylook~ rexp;
#X msg 354 154 0 \, 1 \$1;
#X connect 0 0 9 0;
#X connect 1 0 13 0;
#X connect 1 0 29 1;
#X connect 2 0 16 0;
#X connect 2 1 15 0;
#X connect 2 1 29 0;
#X connect 3 0 8 1;
#X connect 3 0 33 0;
#X connect 4 0 5 0;
#X connect 5 0 34 0;
#X connect 6 0 11 1;
#X connect 7 0 6 0;
#X connect 7 0 26 0;
#X connect 8 0 7 0;
#X connect 9 0 2 0;
#X connect 9 1 11 0;
#X connect 9 2 4 0;
#X connect 9 2 17 0;
#X connect 11 0 27 1;
#X connect 12 0 18 0;
#X connect 12 0 11 0;
#X connect 12 0 20 0;
#X connect 12 0 22 0;
#X connect 12 0 24 0;
#X connect 12 1 14 0;
#X connect 13 0 16 1;
#X connect 14 0 29 0;
#X connect 14 1 15 0;
#X connect 15 0 16 1;
#X connect 16 0 12 0;
#X connect 17 0 6 0;
#X connect 18 0 17 1;
#X connect 19 0 17 1;
#X connect 20 0 23 0;
#X connect 21 0 23 1;
#X connect 22 0 23 1;
#X connect 23 0 10 0;
#X connect 24 0 26 1;
#X connect 25 0 26 1;
#X connect 26 0 10 0;
#X connect 27 0 28 0;
#X connect 28 0 3 0;
#X connect 29 0 35 0;
#X connect 29 0 30 0;
#X connect 29 1 27 0;
#X connect 29 1 7 1;
#X connect 29 1 31 1;
#X connect 30 0 32 0;
#X connect 31 0 11 1;
#X connect 32 0 31 0;
#X connect 32 0 18 0;
#X connect 32 1 19 0;
#X connect 34 0 8 0;
#X connect 35 0 5 0;
#X connect 35 0 21 0;
#X connect 35 0 25 0;
