#N canvas 397 118 635 493 10;
#X obj 207 16 inlet;
#X obj 286 35 inlet;
#X obj 225 322 outlet~;
#X obj 319 141 snapshot~;
#X obj 223 289 scaler~;
#X obj 199 194 shadylook~ rexp;
#X obj 210 166 line~;
#X obj 219 68 pack;
#X obj 331 264 -;
#X obj 209 117 unpack;
#X msg 207 138 0 \, 1 \$1;
#X msg 241 42 0;
#X obj 332 190 ==;
#X obj 333 212 sel 0 1;
#X obj 346 236 f;
#X obj 219 91 t f b l;
#X obj 321 238 f;
#X obj 327 164 t f f f;
#X obj 152 44 route stop;
#X msg 169 139 stop;
#X connect 0 0 18 0;
#X connect 1 0 7 1;
#X connect 3 0 17 0;
#X connect 4 0 3 0;
#X connect 4 0 2 0;
#X connect 5 0 4 0;
#X connect 6 0 5 0;
#X connect 7 0 15 0;
#X connect 8 0 4 1;
#X connect 9 0 8 1;
#X connect 9 0 4 2;
#X connect 9 1 10 0;
#X connect 10 0 6 0;
#X connect 11 0 7 1;
#X connect 12 0 13 0;
#X connect 13 0 16 0;
#X connect 13 1 14 0;
#X connect 14 0 8 0;
#X connect 15 0 14 1;
#X connect 15 1 3 0;
#X connect 15 1 11 0;
#X connect 15 2 9 0;
#X connect 16 0 8 0;
#X connect 17 0 12 1;
#X connect 17 1 12 0;
#X connect 17 2 16 1;
#X connect 18 0 19 0;
#X connect 18 1 7 0;
#X connect 19 0 6 0;
