#N canvas 256 414 863 449 10;
#X obj 284 3 inlet;
#X obj 378 -9 inlet;
#X obj 336 232 +;
#X obj 431 109 f;
#X obj 289 35 t a b;
#X obj 448 186 -;
#X obj 251 296 outlet;
#X obj 334 208 *;
#X msg 299 137 stop;
#X obj 245 86 t b f;
#X obj 171 156 route 0 1;
#X msg 239 107 1;
#X obj 210 178 t f b;
#X msg 277 116 0;
#X obj 168 133 list prepend 0;
#X obj 444 160 swap;
#X obj 341 108 swap;
#X obj 336 160 line 0 \$1;
#X obj 524 -1 inlet;
#X obj 287 66 route float list set;
#X obj 605 60 loadbang;
#X obj 509 82 r glob-eline-close;
#X obj 334 186 tabread4 eline;
#X msg 340 138 4094 \, 1 \$1;
#N canvas 525 242 631 593 array 0;
#X obj 144 -140 inlet;
#X obj 220 -239 closebang;
#X msg 201 -138 1;
#X obj 163 32 s pd-\$0-eline;
#N canvas 495 421 450 300 \$0-eline 0;
#X restore 147 54 pd \$0-eline;
#X msg 164 4 obj 20 20 globeline;
#X obj 159 -88 v glob-eline-init;
#X msg 302 -30 \; glob-eline-close bang;
#X obj 292 -75 t b b;
#X obj 170 -62 sel 0;
#X obj 209 -39 + 1;
#X msg 329 -59 0;
#X obj 281 -141 v glob-eline-init;
#X obj 286 -121 == 1;
#X obj 286 -96 sel 0;
#X obj 230 -213 f;
#X obj 279 -171 sel 1;
#X obj 335 -113 v glob-eline-init;
#X obj 341 -89 - 1;
#X obj 397 -139 b;
#X connect 0 0 6 0;
#X connect 1 0 15 0;
#X connect 2 0 6 0;
#X connect 2 0 15 1;
#X connect 5 0 3 0;
#X connect 6 0 9 0;
#X connect 8 0 7 0;
#X connect 8 1 11 0;
#X connect 9 0 2 0;
#X connect 9 0 5 0;
#X connect 9 1 10 0;
#X connect 10 0 6 0;
#X connect 11 0 6 0;
#X connect 12 0 13 0;
#X connect 13 0 14 0;
#X connect 14 0 8 0;
#X connect 15 0 16 0;
#X connect 16 0 12 0;
#X connect 16 1 19 0;
#X connect 17 0 18 0;
#X connect 18 0 6 0;
#X connect 19 0 17 0;
#X restore 525 120 pd array;
#X connect 0 0 4 0;
#X connect 1 0 9 0;
#X connect 2 0 3 1;
#X connect 2 0 6 0;
#X connect 3 0 15 1;
#X connect 4 0 19 0;
#X connect 4 1 3 0;
#X connect 4 1 8 0;
#X connect 5 0 7 1;
#X connect 7 0 2 0;
#X connect 8 0 17 0;
#X connect 9 0 11 0;
#X connect 9 1 16 1;
#X connect 10 0 6 0;
#X connect 10 0 3 1;
#X connect 10 1 12 0;
#X connect 11 0 14 1;
#X connect 12 0 16 0;
#X connect 12 1 13 0;
#X connect 13 0 14 1;
#X connect 14 0 10 0;
#X connect 15 0 5 0;
#X connect 15 1 5 1;
#X connect 16 0 23 0;
#X connect 16 1 15 0;
#X connect 16 1 2 1;
#X connect 17 0 22 0;
#X connect 18 0 17 2;
#X connect 19 0 14 0;
#X connect 19 1 13 0;
#X connect 19 1 16 0;
#X connect 19 2 3 1;
#X connect 20 0 24 0;
#X connect 21 0 24 0;
#X connect 22 0 7 0;
#X connect 23 0 17 0;
