#N canvas 126 164 701 303 10;
#X text 51 35 inlets: random trigger \, number of possible values (like
random) \, number to multiply by \, number to add by.;
#X text 51 71 arguments: number of possible values \, number to multiply
by \, number to add by.;
#X text 108 257 also see randrange in sfruit;
#X obj 291 254 sfruit/randrange;
#X obj 143 102 bng 15 250 50 0 empty empty empty 17 7 0 10 -262144
-1 -1;
#X floatatom 180 94 5 0 0 0 - - -;
#X floatatom 217 94 5 0 0 0 - - -;
#X floatatom 254 95 5 0 0 0 - - -;
#X floatatom 143 157 5 0 0 0 - - -;
#X text 281 129 <- output values between 2.5 and 5 inclusive in steps
of 0.5;
#X text 110 190 note: implementation switched from using [random] to
using [frandom] and back again recently.. sorry!;
#X text 190 231 also see:;
#X obj 254 232 ./frndmrange;
#X obj 143 129 ./rndmrange 6 0.5 2.5;
#X connect 4 0 13 0;
#X connect 5 0 13 1;
#X connect 6 0 13 2;
#X connect 7 0 13 3;
#X connect 13 0 8 0;
