#N canvas 279 166 450 300 10;
#X obj 175 38 inlet;
#X obj 175 202 outlet;
#X obj 247 65 inlet;
#X obj 295 66 inlet;
#X obj 339 69 inlet;
#X obj 335 142 loadbang;
#X obj 334 167 f \$2;
#X obj 175 95 random \$1;
#X obj 175 139 ./scaler 1 \$3;
#X obj 334 202 ./if 0 1;
#X connect 0 0 7 0;
#X connect 2 0 7 1;
#X connect 3 0 8 1;
#X connect 4 0 8 2;
#X connect 5 0 6 0;
#X connect 6 0 9 0;
#X connect 7 0 8 0;
#X connect 8 0 1 0;
#X connect 9 0 8 1;
