#N canvas 667 70 450 300 10;
#X text 79 64 like /~ \, but with reversed inlets;
#X obj 159 204 ./dbgr~;
#X floatatom 249 153 5 0 0 0 - - -;
#X msg 68 182 \; pd dsp 1;
#X obj 154 167 ./rover~ 4;
#X obj 140 99 ./smoother~ 0;
#X connect 2 0 4 1;
#X connect 4 0 1 0;
#X connect 5 0 4 0;
