#N canvas 587 132 600 364 10;
#N canvas 0 22 450 278 (subpatch) 0;
#X array rspowlinetest 44100 float 2;
#X coords 0 40 44099 0 200 140 1 0 0;
#X restore 236 38 graph;
#X obj 117 48 bng 15 250 50 0 empty empty empty 17 7 0 10 -262144 -1
-1;
#X msg 104 115 15;
#X msg 153 85 40 500;
#X msg 213 69 600;
#X obj 156 59 bng 15 250 50 0 empty empty empty 17 7 0 10 -262144 -1
-1;
#X obj 77 53 bng 15 250 50 0 empty empty empty 17 7 0 10 -262144 -1
-1;
#X msg 49 90 40 \, 15 500;
#X obj 110 155 del 400;
#X msg 34 155 15 \, 40 400;
#X obj 26 110 bng 15 250 50 0 empty empty empty 17 7 0 10 -262144 -1
-1;
#X msg 111 175 0 500;
#X msg 307 251 \; pd dsp 1;
#X text 80 21 powline audio ramp;
#X text 183 202 rightmost inlet/ argument: power;
#X text 139 301 todo: make into external/clean up;
#X floatatom 143 201 5 0 0 0 - - -, f 5;
#X obj 123 262 tabwrite~ rspowlinetest;
#X obj 77 226 rpowline~ 2;
#X connect 1 0 2 0;
#X connect 1 0 17 0;
#X connect 2 0 18 0;
#X connect 3 0 18 0;
#X connect 4 0 18 1;
#X connect 5 0 3 0;
#X connect 5 0 17 0;
#X connect 6 0 7 0;
#X connect 6 0 17 0;
#X connect 7 0 17 0;
#X connect 7 0 18 0;
#X connect 8 0 11 0;
#X connect 9 0 18 0;
#X connect 10 0 9 0;
#X connect 10 0 8 0;
#X connect 10 0 17 0;
#X connect 11 0 18 0;
#X connect 16 0 18 2;
#X connect 18 0 17 0;
