#N canvas 482 180 425 415 10;
#X declare -lib zexy;
#X obj 23 16 inlet;
#X obj 157 37 inlet;
#X obj 96 324 outlet~;
#X obj 190 143 snapshot~;
#X obj 94 291 scaler~;
#X obj 81 168 line~;
#X obj 90 70 pack;
#X obj 202 266 -;
#X obj 80 119 unpack;
#X msg 112 44 0;
#X obj 203 192 ==;
#X obj 204 214 sel 0 1;
#X obj 217 238 f;
#X obj 90 93 t f b l;
#X obj 192 240 f;
#X obj 198 166 t f f f;
#X msg 78 140 1 \, 0 \$1;
#X obj 70 196 pow~ 1;
#X obj 261 36 inlet;
#X obj 270 107 max 0;
#X obj 316 32 loadbang;
#X obj 316 54 f \$1;
#X obj 319 74 if 0 1;
#X obj 151 11 declare -lib zexy;
#X obj 23 46 relay stop;
#X connect 0 0 24 0;
#X connect 1 0 6 1;
#X connect 3 0 15 0;
#X connect 4 0 3 0;
#X connect 4 0 2 0;
#X connect 5 0 17 0;
#X connect 6 0 13 0;
#X connect 7 0 4 1;
#X connect 8 0 7 1;
#X connect 8 0 4 2;
#X connect 8 1 16 0;
#X connect 9 0 6 1;
#X connect 10 0 11 0;
#X connect 11 0 14 0;
#X connect 11 1 12 0;
#X connect 12 0 7 0;
#X connect 13 0 12 1;
#X connect 13 1 3 0;
#X connect 13 1 9 0;
#X connect 13 2 8 0;
#X connect 14 0 7 0;
#X connect 15 0 10 1;
#X connect 15 1 10 0;
#X connect 15 2 14 1;
#X connect 16 0 5 0;
#X connect 17 0 4 0;
#X connect 18 0 19 0;
#X connect 19 0 17 1;
#X connect 20 0 21 0;
#X connect 21 0 22 0;
#X connect 22 0 19 0;
#X connect 24 0 5 0;
#X connect 24 1 6 0;
