#N canvas 73 365 542 450 10;
#X obj 64 8 loadbang;
#X obj 268 266 soundfiler;
#X obj 216 116 sel symbol;
#X msg 396 65 symbol;
#X obj 270 184 list prepend read -resize;
#X obj 188 18 inlet;
#X obj 190 48 t b a;
#X obj 266 331 outlet;
#X obj 270 306 f;
#X obj 343 17 inlet;
#X obj 338 44 bang;
#X obj 270 234 list trim;
#X obj 268 151 makerpath;
#X obj 366 107 sel symbol;
#X obj 269 209 list append;
#X obj 109 130 s \$3-rdr;
#X obj 212 95 symbol \$2;
#X obj 352 87 symbol \$1;
#X obj 198 257 table \$1 0;
#X obj 52 119 s \$1-rdr;
#X obj 240 285 t b f;
#X obj 64 33 t b b b b;
#X connect 0 0 21 0;
#X connect 1 0 20 0;
#X connect 2 1 12 0;
#X connect 3 0 2 1;
#X connect 3 0 13 1;
#X connect 4 0 14 0;
#X connect 5 0 6 0;
#X connect 6 0 19 0;
#X connect 6 1 16 0;
#X connect 8 0 7 0;
#X connect 9 0 10 0;
#X connect 10 0 8 0;
#X connect 11 0 1 0;
#X connect 12 0 4 0;
#X connect 13 1 14 1;
#X connect 14 0 11 0;
#X connect 16 0 2 0;
#X connect 17 0 13 0;
#X connect 20 0 15 0;
#X connect 20 1 8 0;
#X connect 21 0 15 0;
#X connect 21 0 19 0;
#X connect 21 1 16 0;
#X connect 21 2 17 0;
#X connect 21 3 3 0;
