#N canvas 484 213 542 447 10;
#X obj 245 25 loadbang;
#X obj 268 266 soundfiler;
#X obj 216 116 sel symbol;
#X msg 281 78 symbol;
#X obj 270 184 list prepend read -resize;
#X obj 188 18 inlet;
#X obj 266 331 outlet;
#X obj 270 306 f;
#X obj 343 17 inlet;
#X obj 341 272 bang;
#X obj 270 234 list trim;
#X obj 268 151 makerpath;
#X obj 64 263 table \$1 0;
#X obj 61 303 table \$2 0;
#X obj 212 95 symbol \$3;
#X obj 269 209 list append \$1 \$2;
#X obj 245 50 t b b;
#X connect 0 0 16 0;
#X connect 1 0 7 0;
#X connect 2 1 11 0;
#X connect 3 0 2 1;
#X connect 4 0 15 0;
#X connect 5 0 14 0;
#X connect 7 0 6 0;
#X connect 8 0 9 0;
#X connect 9 0 7 0;
#X connect 10 0 1 0;
#X connect 11 0 4 0;
#X connect 14 0 2 0;
#X connect 15 0 10 0;
#X connect 16 0 14 0;
#X connect 16 1 3 0;
