#N canvas 586 221 542 450 10;
#X obj 64 8 loadbang;
#X obj 52 119 s \$1-rdr;
#X obj 198 257 table \$1;
#X obj 268 266 soundfiler;
#X obj 64 33 t b b b;
#X obj 216 116 sel symbol;
#X msg 280 92 symbol;
#X obj 216 95 symbol \$2;
#X obj 270 184 list prepend read -resize;
#X obj 269 209 list append \$1;
#X obj 188 18 inlet;
#X obj 190 48 t b a;
#X obj 266 331 outlet;
#X obj 263 296 f;
#X obj 343 17 inlet;
#X obj 338 44 bang;
#X obj 270 234 list trim;
#X obj 268 151 makerpath;
#X connect 0 0 4 0;
#X connect 3 0 13 0;
#X connect 4 0 1 0;
#X connect 4 1 7 0;
#X connect 4 2 6 0;
#X connect 5 1 17 0;
#X connect 6 0 5 1;
#X connect 7 0 5 0;
#X connect 8 0 9 0;
#X connect 9 0 16 0;
#X connect 10 0 11 0;
#X connect 11 0 1 0;
#X connect 11 1 7 0;
#X connect 13 0 12 0;
#X connect 14 0 15 0;
#X connect 15 0 13 0;
#X connect 16 0 3 0;
#X connect 17 0 8 0;
