#N canvas 73 365 542 450 10;
#X obj 257 15 loadbang;
#X obj 268 266 soundfiler;
#X obj 216 116 sel symbol;
#X msg 279 69 symbol;
#X obj 270 184 list prepend read -resize;
#X obj 188 18 inlet;
#X obj 266 331 outlet;
#X obj 270 306 f;
#X obj 343 17 inlet;
#X obj 284 286 bang;
#X obj 270 234 list trim;
#X obj 268 151 makerpath;
#X obj 212 95 symbol \$2;
#X obj 198 257 table \$1 0;
#X obj 191 329 s \$1-rdr;
#X obj 240 285 t b f;
#X obj 257 40 t b b;
#X obj 269 209 list append \$1;
#X connect 0 0 16 0;
#X connect 1 0 15 0;
#X connect 2 1 11 0;
#X connect 3 0 2 1;
#X connect 4 0 17 0;
#X connect 5 0 12 0;
#X connect 7 0 6 0;
#X connect 8 0 9 0;
#X connect 9 0 7 0;
#X connect 10 0 1 0;
#X connect 11 0 4 0;
#X connect 12 0 2 0;
#X connect 15 0 14 0;
#X connect 15 1 7 0;
#X connect 16 0 12 0;
#X connect 16 1 3 0;
#X connect 17 0 10 0;
