#N canvas 340 22 536 428 10;
#X obj 182 217 loop~;
#X obj 233 75 samplerate~;
#X obj 228 53 loadbang;
#X obj 151 56 inlet~;
#X obj 292 128 inlet;
#X obj 286 156 route bang set;
#X msg 326 179 set \$1;
#X obj 123 290 outlet~;
#X obj 202 318 outlet~;
#X obj 84 85 expr~ if($v1==0 \, 1 \, 0);
#X obj 53 139 1-0switch~;
#X obj 175 112 +~;
#X obj 138 184 *~;
#X obj 167 170 /~;
#X obj 139 132 sig~;
#X obj 200 273 /~;
#X msg 214 143 1;
#X obj 259 239 ==~ 1;
#X obj 251 279 *~;
#X obj 202 294 -~;
#X connect 0 0 7 0;
#X connect 0 1 15 1;
#X connect 0 1 17 0;
#X connect 1 0 14 0;
#X connect 2 0 1 0;
#X connect 2 0 16 0;
#X connect 3 0 9 0;
#X connect 3 0 11 1;
#X connect 4 0 5 0;
#X connect 5 0 0 0;
#X connect 5 1 6 0;
#X connect 6 0 0 0;
#X connect 9 0 11 0;
#X connect 9 0 10 0;
#X connect 10 0 12 0;
#X connect 11 0 13 1;
#X connect 12 0 0 1;
#X connect 13 0 12 1;
#X connect 14 0 13 0;
#X connect 14 0 15 0;
#X connect 14 0 18 0;
#X connect 15 0 19 0;
#X connect 16 0 0 0;
#X connect 17 0 18 1;
#X connect 18 0 19 1;
#X connect 19 0 8 0;
