#N canvas 912 108 450 300 10;
#X msg 183 149 bang;
#X floatatom 72 200 9 0 0 0 - - -;
#X text 97 218 from soundfiler;
#X obj 61 148 openpanel;
#X obj 75 130 bng 15 250 50 0 empty empty empty 17 7 0 10 -262144 -1
-1;
#X obj 257 169 bng 15 250 50 0 empty empty empty 17 7 0 10 -262144
-1 -1;
#X obj 63 175 sampbuf~ sampbufhelp;
#X obj 256 141 r sampbufhelp-rdr;
#X obj 287 186 s sampbufhelp;
#X msg 282 165 normalize;
#X text 35 69 also sends (name of buffers)-rdr a bang once initialized
;
#X text 58 2 simple wrapper for soundfiler: 1st argument is name of
buffer \, 2nd is the name of the soundfile the 1st inlet is the soundfile
name \, 2nd inlet queries the buffer length \, and the outlet reports
it;
#X connect 0 0 6 1;
#X connect 3 0 6 0;
#X connect 4 0 3 0;
#X connect 6 0 1 0;
#X connect 7 0 5 0;
#X connect 7 0 9 0;
#X connect 9 0 8 0;
