#N canvas 586 221 542 450 10;
#X obj 64 8 loadbang;
#X msg 150 131 1;
#X obj 149 153 v \$1-ld;
#X obj 94 152 s \$1-rdr;
#X obj 198 257 table \$1;
#X obj 272 240 soundfiler;
#X obj 39 81 symbol \$1;
#X obj 39 102 sel symbol;
#X obj 94 127 bang;
#X obj 64 33 t b b b;
#X obj 216 116 sel symbol;
#X msg 185 69 symbol;
#X obj 216 95 symbol \$2;
#X obj 273 141 list prepend read -resize;
#X obj 272 166 list append \$1;
#X obj 188 18 inlet;
#X obj 190 48 t b a;
#X obj 270 305 outlet;
#X obj 267 270 f;
#X obj 343 17 inlet;
#X obj 338 44 bang;
#X obj 357 274 print;
#X obj 274 208 list trim;
#X connect 0 0 9 0;
#X connect 1 0 2 0;
#X connect 5 0 18 0;
#X connect 6 0 7 0;
#X connect 7 1 8 0;
#X connect 7 1 1 0;
#X connect 8 0 3 0;
#X connect 9 0 6 0;
#X connect 9 1 12 0;
#X connect 9 2 11 0;
#X connect 10 1 13 0;
#X connect 11 0 10 1;
#X connect 11 0 7 1;
#X connect 12 0 10 0;
#X connect 13 0 14 0;
#X connect 14 0 22 0;
#X connect 15 0 16 0;
#X connect 16 0 6 0;
#X connect 16 1 12 0;
#X connect 18 0 17 0;
#X connect 19 0 20 0;
#X connect 20 0 18 0;
#X connect 22 0 21 0;
#X connect 22 0 5 0;
