#N canvas 0 23 677 500 12;
#X declare -lib zexy;
#X obj 118 65 inlet;
#X obj 182 56 inlet;
#X obj 256 61 inlet;
#X obj 479 64 inlet;
#X obj 49 256 outlet;
#X obj 127 261 outlet;
#X obj 192 264 outlet;
#X obj 295 280 outlet;
#X obj 373 285 outlet;
#X obj 434 294 outlet;
#X obj 392 71 inlet;
#X obj 246 279 outlet;
#X obj 500 292 outlet;
#X obj 498 40 declare -lib zexy;
#X obj 426 167 demultiplex;
#X obj 265 144 demultiplex;
#X obj 181 103 demultiplex;
#X obj 112 140 demultiplex;
#X connect 0 0 17 0;
#X connect 1 0 16 0;
#X connect 2 0 15 0;
#X connect 3 0 14 1;
#X connect 3 0 15 1;
#X connect 3 0 16 1;
#X connect 3 0 17 1;
#X connect 10 0 14 0;
#X connect 14 0 11 0;
#X connect 14 1 12 0;
#X connect 15 0 6 0;
#X connect 15 1 9 0;
#X connect 16 0 5 0;
#X connect 16 1 8 0;
#X connect 17 0 4 0;
#X connect 17 1 7 0;
