#N canvas 960 447 450 300 10;
#X obj 105 117 bng 15 250 50 0 empty empty save 17 7 0 10 -262144 -1
-1;
#X obj 105 136 bng 15 250 50 0 empty empty load 17 7 0 10 -262144 -1
-1;
#X obj 210 264 outlet;
#X obj 86 213 s \$1;
#X obj 82 240 r \$1-s;
#X obj 77 267 outlet;
#X obj 149 269 outlet;
#X obj 200 50 inlet;
#X obj 285 56 inlet;
#X obj 93 187 t b b b;
#X obj 342 270 outlet;
#X connect 0 0 9 0;
#X connect 1 0 2 0;
#X connect 4 0 5 0;
#X connect 7 0 0 0;
#X connect 8 0 1 0;
#X connect 9 0 10 0;
#X connect 9 1 3 0;
#X connect 9 2 6 0;
#X coords 0 -1 1 1 50 55 1 100 100;
