#N canvas 0 23 677 500 12;
#X obj 112 140 zexy/demultiplex;
#X obj 118 65 inlet;
#X obj 182 56 inlet;
#X obj 256 61 inlet;
#X obj 181 103 zexy/demultiplex;
#X obj 265 144 zexy/demultiplex;
#X obj 479 64 inlet;
#X obj 49 256 outlet;
#X obj 127 261 outlet;
#X obj 192 264 outlet;
#X obj 295 280 outlet;
#X obj 373 285 outlet;
#X obj 434 294 outlet;
#X obj 392 71 inlet;
#X obj 246 279 outlet;
#X obj 426 167 zexy/demultiplex;
#X obj 500 292 outlet;
#X connect 0 0 7 0;
#X connect 0 1 10 0;
#X connect 1 0 0 0;
#X connect 2 0 4 0;
#X connect 3 0 5 0;
#X connect 4 0 8 0;
#X connect 4 1 11 0;
#X connect 5 0 9 0;
#X connect 5 1 12 0;
#X connect 6 0 5 1;
#X connect 6 0 4 1;
#X connect 6 0 0 1;
#X connect 6 0 15 1;
#X connect 13 0 15 0;
#X connect 15 0 14 0;
#X connect 15 1 16 0;
