#N canvas 205 243 450 300 10;
#X text 54 20 scales by multiplying (1st inlet/argument) \, then adding
(2nd inlet/argument);
#X floatatom 179 81 5 0 0 0 - - -, f 5;
#X floatatom 224 75 5 0 0 0 - - -, f 5;
#X obj 140 136 dbgr~;
#X obj 136 111 scaler~ 2 0.5;
#X obj 69 61 smoother~ 0;
#X connect 1 0 4 1;
#X connect 2 0 4 2;
#X connect 4 0 3 0;
#X connect 5 0 4 0;
