#N canvas 341 188 450 300 10;
#X obj 238 66 inlet~;
#X obj 238 174 outlet~;
#X obj 237 99 *~ \$1;
#X obj 238 135 +~ \$2;
#X obj 300 60 inlet;
#X obj 344 62 inlet;
#X connect 0 0 2 0;
#X connect 2 0 3 0;
#X connect 3 0 1 0;
#X connect 4 0 2 1;
#X connect 5 0 3 1;
