#N canvas 0 22 450 300 10;
#X obj 154 98 log;
#X msg 154 76 0.001;
#X obj 154 35 loadbang;
#X obj 113 209 exp;
#X obj 113 107 inlet;
#X obj 113 231 outlet;
#X obj 113 136 f \$1;
#X obj 113 163 swap;
#X obj 113 186 /;
#X connect 0 0 7 1;
#X connect 1 0 0 0;
#X connect 2 0 1 0;
#X connect 3 0 5 0;
#X connect 4 0 6 0;
#X connect 6 0 7 0;
#X connect 7 0 8 0;
#X connect 7 1 8 1;
#X connect 8 0 3 0;
