#N canvas 405 105 1000 678 10;
#X obj 301 103 cnv 15 580 210 empty empty Seqbank 5 12 1 14 #00f8fc
#0400fc 0;
#N canvas 324 141 907 458 boxes 0;
#X obj 74 206 r \$0-nbx10s;
#X obj 153 207 r \$0-nbx11s;
#X obj 231 208 r \$0-nbx12s;
#X obj 305 207 r \$0-nbx13s;
#X obj 381 207 r \$0-nbx14s;
#X obj 460 208 r \$0-nbx15s;
#X obj 538 209 r \$0-nbx16s;
#X obj 612 208 r \$0-nbx17s;
#X obj 66 262 r \$0-nbx18s;
#X obj 145 263 r \$0-nbx19s;
#X obj 223 264 r \$0-nbx110s;
#X obj 297 263 r \$0-nbx111s;
#X obj 373 263 r \$0-nbx112s;
#X obj 452 264 r \$0-nbx113s;
#X obj 530 265 r \$0-nbx114s;
#X obj 614 266 r \$0-nbx115s;
#X obj 74 229 pack f 16;
#X obj 153 230 pack f 17;
#X obj 231 231 pack f 18;
#X obj 305 230 pack f 19;
#X obj 381 230 pack f 20;
#X obj 460 231 pack f 21;
#X obj 538 232 pack f 22;
#X obj 612 231 pack f 23;
#X obj 66 285 pack f 24;
#X obj 145 286 pack f 25;
#X obj 223 287 pack f 26;
#X obj 297 286 pack f 27;
#X obj 373 286 pack f 28;
#X obj 451 288 pack f 29;
#X obj 530 288 pack f 30;
#X obj 604 287 pack f 31;
#X obj 139 344 tabwrite \$0-seqbank;
#X obj 100 100 cnv 15 574 40 empty empty empty 20 12 0 14 #0400ff #404040
0;
#X obj 103 108 cnv 15 30 27 empty empty 1-0 3 6 0 10 #00faff #0400ff
0;
#X obj 138 108 cnv 15 30 27 empty empty 1-1 3 6 0 10 #00faff #0400ff
0;
#X obj 173 108 cnv 15 30 27 empty empty 1-2 3 6 0 10 #00faff #0400ff
0;
#X obj 208 108 cnv 15 30 27 empty empty 1-3 3 6 0 10 #00faff #0400ff
0;
#X obj 243 108 cnv 15 30 27 empty empty 1-4 3 6 0 10 #00faff #0400ff
0;
#X obj 278 108 cnv 15 30 27 empty empty 1-5 3 6 0 10 #00faff #0400ff
0;
#X obj 313 108 cnv 15 30 27 empty empty 1-6 3 6 0 10 #00faff #0400ff
0;
#X obj 348 108 cnv 15 30 27 empty empty 1-7 3 6 0 10 #00faff #0400ff
0;
#X obj 382 108 cnv 15 30 27 empty empty 1-8 3 6 0 10 #00faff #0400ff
0;
#X obj 417 108 cnv 15 30 27 empty empty 1-9 3 6 0 10 #00faff #0400ff
0;
#X obj 452 108 cnv 15 30 27 empty empty 1-10 3 6 0 10 #00faff #0400ff
0;
#X obj 487 108 cnv 15 30 27 empty empty 1-11 3 6 0 10 #00faff #0400ff
0;
#X obj 522 108 cnv 15 30 27 empty empty 1-12 3 6 0 10 #00faff #0400ff
0;
#X obj 557 108 cnv 15 30 27 empty empty 1-13 3 6 0 10 #00faff #0400ff
0;
#X obj 592 108 cnv 15 30 27 empty empty 1-14 3 6 0 10 #00faff #0400ff
0;
#X obj 627 108 cnv 15 30 27 empty empty 1-15 3 6 0 10 #00faff #0400ff
0;
#X floatatom 140 119 4 0 0 2 - \$0-nbx11r \$0-nbx11s 0;
#X floatatom 175 119 4 0 0 2 - \$0-nbx12r \$0-nbx12s 0;
#X floatatom 210 119 4 0 0 2 - \$0-nbx13r \$0-nbx13s 0;
#X floatatom 245 119 4 0 0 2 - \$0-nbx14r \$0-nbx14s 0;
#X floatatom 280 119 4 0 0 2 - \$0-nbx15r \$0-nbx15s 0;
#X floatatom 315 119 4 0 0 2 - \$0-nbx16r \$0-nbx16s 0;
#X floatatom 350 119 4 0 0 2 - \$0-nbx17r \$0-nbx17s 0;
#X floatatom 385 119 4 0 0 2 - \$0-nbx18r \$0-nbx18s 0;
#X floatatom 420 119 4 0 0 2 - \$0-nbx19r \$0-nbx19s 0;
#X floatatom 455 119 4 0 0 2 - \$0-nbx110r \$0-nbx110s 0;
#X floatatom 490 119 4 0 0 2 - \$0-nbx111r \$0-nbx111s 0;
#X floatatom 525 119 4 0 0 2 - \$0-nbx112r \$0-nbx112s 0;
#X floatatom 560 119 4 0 0 2 - \$0-nbx113r \$0-nbx113s 0;
#X floatatom 595 119 4 0 0 2 - \$0-nbx114r \$0-nbx114s 0;
#X floatatom 630 119 4 0 0 2 - \$0-nbx115r \$0-nbx115s 0;
#X floatatom 105 119 4 0 0 2 - \$0-nbx10r \$0-nbx10s 0;
#X connect 0 0 16 0;
#X connect 1 0 17 0;
#X connect 2 0 18 0;
#X connect 3 0 19 0;
#X connect 4 0 20 0;
#X connect 5 0 21 0;
#X connect 6 0 22 0;
#X connect 7 0 23 0;
#X connect 8 0 24 0;
#X connect 9 0 25 0;
#X connect 10 0 26 0;
#X connect 11 0 27 0;
#X connect 12 0 28 0;
#X connect 13 0 29 0;
#X connect 14 0 30 0;
#X connect 15 0 31 0;
#X connect 16 0 32 0;
#X connect 17 0 32 0;
#X connect 18 0 32 0;
#X connect 19 0 32 0;
#X connect 20 0 32 0;
#X connect 21 0 32 0;
#X connect 22 0 32 0;
#X connect 23 0 32 0;
#X connect 24 0 32 0;
#X connect 25 0 32 0;
#X connect 26 0 32 0;
#X connect 27 0 32 0;
#X connect 28 0 32 0;
#X connect 29 0 32 0;
#X connect 30 0 32 0;
#X connect 31 0 32 0;
#X coords 0 -1 1 1 574 40 2 100 100;
#X restore 305 221 pd boxes;
#N canvas 100 228 907 458 boxes 0;
#X obj 72 211 r \$0-nbx20s;
#X obj 151 212 r \$0-nbx21s;
#X obj 229 213 r \$0-nbx22s;
#X obj 303 212 r \$0-nbx23s;
#X obj 379 212 r \$0-nbx24s;
#X obj 458 213 r \$0-nbx25s;
#X obj 536 214 r \$0-nbx26s;
#X obj 64 267 r \$0-nbx28s;
#X obj 143 268 r \$0-nbx29s;
#X obj 610 213 r \$0-nbx27s;
#X obj 221 269 r \$0-nbx210s;
#X obj 295 268 r \$0-nbx211s;
#X obj 371 268 r \$0-nbx212s;
#X obj 450 269 r \$0-nbx213s;
#X obj 528 270 r \$0-nbx214s;
#X obj 602 269 r \$0-nbx215s;
#X obj 72 234 pack f 32;
#X obj 151 235 pack f 33;
#X obj 229 236 pack f 34;
#X obj 303 235 pack f 35;
#X obj 379 235 pack f 36;
#X obj 458 236 pack f 37;
#X obj 536 237 pack f 38;
#X obj 610 236 pack f 39;
#X obj 64 290 pack f 40;
#X obj 143 291 pack f 41;
#X obj 221 292 pack f 42;
#X obj 295 291 pack f 43;
#X obj 371 291 pack f 44;
#X obj 449 293 pack f 45;
#X obj 528 293 pack f 46;
#X obj 602 292 pack f 47;
#X obj 137 349 tabwrite \$0-seqbank;
#X obj 100 100 cnv 15 574 40 empty empty empty 20 12 0 14 #0400ff #404040
0;
#X obj 103 107 cnv 15 30 27 empty empty 2-0 3 6 0 10 #00faff #0400ff
0;
#X obj 138 107 cnv 15 30 27 empty empty 2-1 3 6 0 10 #00faff #0400ff
0;
#X obj 173 107 cnv 15 30 27 empty empty 2-2 3 6 0 10 #00faff #0400ff
0;
#X obj 208 107 cnv 15 30 27 empty empty 2-3 3 6 0 10 #00faff #0400ff
0;
#X obj 243 107 cnv 15 30 27 empty empty 2-4 3 6 0 10 #00faff #0400ff
0;
#X obj 278 107 cnv 15 30 27 empty empty 2-5 3 6 0 10 #00faff #0400ff
0;
#X obj 313 107 cnv 15 30 27 empty empty 2-6 3 6 0 10 #00faff #0400ff
0;
#X obj 348 107 cnv 15 30 27 empty empty 2-7 3 6 0 10 #00faff #0400ff
0;
#X obj 382 107 cnv 15 30 27 empty empty 2-8 3 6 0 10 #00faff #0400ff
0;
#X obj 417 107 cnv 15 30 27 empty empty 2-9 3 6 0 10 #00faff #0400ff
0;
#X obj 452 107 cnv 15 30 27 empty empty 2-10 3 6 0 10 #00faff #0400ff
0;
#X obj 487 107 cnv 15 30 27 empty empty 2-11 3 6 0 10 #00faff #0400ff
0;
#X obj 522 107 cnv 15 30 27 empty empty 2-12 3 6 0 10 #00faff #0400ff
0;
#X obj 557 107 cnv 15 30 27 empty empty 2-13 3 6 0 10 #00faff #0400ff
0;
#X obj 592 107 cnv 15 30 27 empty empty 2-14 3 6 0 10 #00faff #0400ff
0;
#X obj 627 107 cnv 15 30 27 empty empty 2-15 3 6 0 10 #00faff #0400ff
0;
#X floatatom 140 118 4 0 0 2 - \$0-nbx21r \$0-nbx21s 0;
#X floatatom 175 118 4 0 0 2 - \$0-nbx22r \$0-nbx22s 0;
#X floatatom 210 118 4 0 0 2 - \$0-nbx23r \$0-nbx23s 0;
#X floatatom 245 118 4 0 0 2 - \$0-nbx24r \$0-nbx24s 0;
#X floatatom 280 118 4 0 0 2 - \$0-nbx25r \$0-nbx25s 0;
#X floatatom 315 118 4 0 0 2 - \$0-nbx26r \$0-nbx26s 0;
#X floatatom 350 118 4 0 0 2 - \$0-nbx27r \$0-nbx27s 0;
#X floatatom 385 118 4 0 0 2 - \$0-nbx28r \$0-nbx28s 0;
#X floatatom 420 118 4 0 0 2 - \$0-nbx29r \$0-nbx29s 0;
#X floatatom 455 118 4 0 0 2 - \$0-nbx210r \$0-nbx210s 0;
#X floatatom 490 118 4 0 0 2 - \$0-nbx211r \$0-nbx211s 0;
#X floatatom 525 118 4 0 0 2 - \$0-nbx212r \$0-nbx212s 0;
#X floatatom 560 118 4 0 0 2 - \$0-nbx213r \$0-nbx213s 0;
#X floatatom 595 118 4 0 0 2 - \$0-nbx214r \$0-nbx214s 0;
#X floatatom 630 118 4 0 0 2 - \$0-nbx215r \$0-nbx215s 0;
#X floatatom 105 118 4 0 0 2 - \$0-nbx20r \$0-nbx20s 0;
#X connect 0 0 16 0;
#X connect 1 0 17 0;
#X connect 2 0 18 0;
#X connect 3 0 19 0;
#X connect 4 0 20 0;
#X connect 5 0 21 0;
#X connect 6 0 22 0;
#X connect 7 0 24 0;
#X connect 8 0 25 0;
#X connect 9 0 23 0;
#X connect 10 0 26 0;
#X connect 11 0 27 0;
#X connect 12 0 28 0;
#X connect 13 0 29 0;
#X connect 14 0 30 0;
#X connect 15 0 31 0;
#X connect 16 0 32 0;
#X connect 17 0 32 0;
#X connect 18 0 32 0;
#X connect 19 0 32 0;
#X connect 20 0 32 0;
#X connect 21 0 32 0;
#X connect 22 0 32 0;
#X connect 23 0 32 0;
#X connect 24 0 32 0;
#X connect 25 0 32 0;
#X connect 26 0 32 0;
#X connect 27 0 32 0;
#X connect 28 0 32 0;
#X connect 29 0 32 0;
#X connect 30 0 32 0;
#X connect 31 0 32 0;
#X coords 0 -1 1 1 574 40 2 100 100;
#X restore 305 269 pd boxes;
#X obj 62 57 inlet;
#X obj 62 113 route float list;
#X obj 59 430 tabread \$0-seqbank;
#X obj 56 567 outlet;
#X msg 183 360 symbol \$3-nbx\$2\$1r;
#X obj 155 203 list;
#X obj 154 387 send;
#X obj 62 86 list;
#X obj 281 444 table \$0-seqbank 48;
#X obj 76 474 + 16;
#X obj 110 455 + 32;
#X obj 111 475 tabread \$0-seqbank;
#X obj 75 497 tabread \$0-seqbank;
#X obj 67 235 pack f f \$0;
#X msg 66 260 symbol \$3-nbx\$2\$1r;
#X obj 42 282 send;
#X obj 40 173 t b f;
#X obj 41 215 t b f;
#X msg 36 248 0;
#X obj 77 517 outlet;
#X obj 131 541 outlet;
#X obj 57 541 pack f f f;
#N canvas 533 420 907 458 boxes 0;
#X obj 153 230 pack f 1;
#X obj 231 231 pack f 2;
#X obj 305 230 pack f 3;
#X obj 381 230 pack f 4;
#X obj 460 231 pack f 5;
#X obj 538 232 pack f 6;
#X obj 66 285 pack f 8;
#X obj 145 286 pack f 9;
#X obj 223 287 pack f 10;
#X obj 297 286 pack f 11;
#X obj 373 286 pack f 12;
#X obj 451 288 pack f 13;
#X obj 530 288 pack f 14;
#X obj 604 287 pack f 15;
#X obj 74 206 r \$0-nbx00s;
#X obj 153 207 r \$0-nbx01s;
#X obj 231 208 r \$0-nbx02s;
#X obj 305 207 r \$0-nbx03s;
#X obj 381 207 r \$0-nbx04s;
#X obj 460 208 r \$0-nbx05s;
#X obj 538 209 r \$0-nbx06s;
#X obj 612 208 r \$0-nbx07s;
#X obj 612 231 pack f 7;
#X obj 66 262 r \$0-nbx08s;
#X obj 145 263 r \$0-nbx09s;
#X obj 223 264 r \$0-nbx010s;
#X obj 297 263 r \$0-nbx011s;
#X obj 373 263 r \$0-nbx012s;
#X obj 452 264 r \$0-nbx013s;
#X obj 530 265 r \$0-nbx014s;
#X obj 614 266 r \$0-nbx015s;
#X obj 74 232 pack f 0;
#X obj 139 344 tabwrite \$0-seqbank;
#X obj 100 100 cnv 15 574 40 empty empty empty 20 12 0 14 #0400ff #404040
0;
#X obj 103 107 cnv 15 30 27 empty empty 0-0 3 6 0 10 #00faff #0400ff
0;
#X obj 138 107 cnv 15 30 27 empty empty 0-1 3 6 0 10 #00faff #0400ff
0;
#X obj 173 107 cnv 15 30 27 empty empty 0-2 3 6 0 10 #00faff #0400ff
0;
#X obj 208 107 cnv 15 30 27 empty empty 0-3 3 6 0 10 #00faff #0400ff
0;
#X obj 243 107 cnv 15 30 27 empty empty 0-4 3 6 0 10 #00faff #0400ff
0;
#X obj 278 107 cnv 15 30 27 empty empty 0-5 3 6 0 10 #00faff #0400ff
0;
#X obj 313 107 cnv 15 30 27 empty empty 0-6 3 6 0 10 #00faff #0400ff
0;
#X obj 348 107 cnv 15 30 27 empty empty 0-7 3 6 0 10 #00faff #0400ff
0;
#X obj 382 107 cnv 15 30 27 empty empty 0-8 3 6 0 10 #00faff #0400ff
0;
#X obj 417 107 cnv 15 30 27 empty empty 0-9 3 6 0 10 #00faff #0400ff
0;
#X obj 452 107 cnv 15 30 27 empty empty 0-10 3 6 0 10 #00faff #0400ff
0;
#X obj 487 107 cnv 15 30 27 empty empty 0-11 3 6 0 10 #00faff #0400ff
0;
#X obj 522 107 cnv 15 30 27 empty empty 0-12 3 6 0 10 #00faff #0400ff
0;
#X obj 557 107 cnv 15 30 27 empty empty 0-13 3 6 0 10 #00faff #0400ff
0;
#X obj 592 107 cnv 15 30 27 empty empty 0-14 3 6 0 10 #00faff #0400ff
0;
#X obj 627 107 cnv 15 30 27 empty empty 0-15 3 6 0 10 #00faff #0400ff
0;
#X floatatom 140 118 4 0 0 2 - \$0-nbx01r \$0-nbx01s 0;
#X floatatom 175 118 4 0 0 2 - \$0-nbx02r \$0-nbx02s 0;
#X floatatom 210 118 4 0 0 2 - \$0-nbx03r \$0-nbx03s 0;
#X floatatom 245 118 4 0 0 2 - \$0-nbx04r \$0-nbx04s 0;
#X floatatom 280 118 4 0 0 2 - \$0-nbx05r \$0-nbx05s 0;
#X floatatom 315 118 4 0 0 2 - \$0-nbx06r \$0-nbx06s 0;
#X floatatom 350 118 4 0 0 2 - \$0-nbx07r \$0-nbx07s 0;
#X floatatom 385 118 4 0 0 2 - \$0-nbx08r \$0-nbx08s 0;
#X floatatom 420 118 4 0 0 2 - \$0-nbx09r \$0-nbx09s 0;
#X floatatom 455 118 4 0 0 2 - \$0-nbx010r \$0-nbx010s 0;
#X floatatom 490 118 4 0 0 2 - \$0-nbx011r \$0-nbx011s 0;
#X floatatom 525 118 4 0 0 2 - \$0-nbx012r \$0-nbx012s 0;
#X floatatom 560 118 4 0 0 2 - \$0-nbx013r \$0-nbx013s 0;
#X floatatom 595 118 4 0 0 2 - \$0-nbx014r \$0-nbx014s 0;
#X floatatom 630 118 4 0 0 2 - \$0-nbx015r \$0-nbx015s 0;
#X floatatom 105 118 4 0 0 2 - \$0-nbx00r \$0-nbx00s 0;
#X connect 0 0 32 0;
#X connect 1 0 32 0;
#X connect 2 0 32 0;
#X connect 3 0 32 0;
#X connect 4 0 32 0;
#X connect 5 0 32 0;
#X connect 6 0 32 0;
#X connect 7 0 32 0;
#X connect 8 0 32 0;
#X connect 9 0 32 0;
#X connect 10 0 32 0;
#X connect 11 0 32 0;
#X connect 12 0 32 0;
#X connect 13 0 32 0;
#X connect 14 0 31 0;
#X connect 15 0 0 0;
#X connect 16 0 1 0;
#X connect 17 0 2 0;
#X connect 18 0 3 0;
#X connect 19 0 4 0;
#X connect 20 0 5 0;
#X connect 21 0 22 0;
#X connect 22 0 32 0;
#X connect 23 0 6 0;
#X connect 24 0 7 0;
#X connect 25 0 8 0;
#X connect 26 0 9 0;
#X connect 27 0 10 0;
#X connect 28 0 11 0;
#X connect 29 0 12 0;
#X connect 30 0 13 0;
#X connect 31 0 32 0;
#X coords 0 -1 1 1 574 40 2 100 100;
#X restore 305 173 pd boxes;
#X obj 91 136 route clear;
#X obj 155 155 list split 2;
#X obj 155 179 t b l;
#X obj 238 254 +;
#X obj 200 289 t f f;
#X obj 267 224 * 16;
#X obj 191 311 mod 16;
#X obj 234 315 div 16;
#X obj 244 198 swap;
#X obj 208 267 +;
#X obj 184 339 pack f f \$0;
#X obj 451 358 f \$0;
#X floatatom 845 107 5 0 0 0 Subpatch: \$0-this \$0-goblegoblegock
0;
#X obj 454 380 s \$0-this;
#X obj 304 130 hradio 36 1 0 16 \$0-Nohradio \$0-hrad empty 0 -8 0
10 #0400fc #fcfcfc #000000 0;
#X obj 270 418 s \$0-hrad;
#X obj 530 337 inlet;
#X obj 489 422 outlet;
#X obj 59 410 t f f f;
#X obj 451 333 loadbang;
#X obj 159 228 ./list-dripdex;
#X obj 39 193 ./iterate 16;
#X connect 3 0 10 0;
#X connect 4 0 41 0;
#X connect 4 0 44 0;
#X connect 4 1 26 0;
#X connect 5 0 24 0;
#X connect 7 0 9 1;
#X connect 8 0 46 0;
#X connect 10 0 4 0;
#X connect 12 0 15 0;
#X connect 13 0 14 0;
#X connect 14 0 23 0;
#X connect 14 0 24 2;
#X connect 15 0 22 0;
#X connect 15 0 24 1;
#X connect 16 0 17 0;
#X connect 17 0 18 1;
#X connect 19 0 47 0;
#X connect 19 1 16 1;
#X connect 20 0 21 0;
#X connect 20 1 16 0;
#X connect 21 0 18 0;
#X connect 24 0 6 0;
#X connect 26 0 19 0;
#X connect 26 1 27 0;
#X connect 27 0 28 0;
#X connect 27 1 8 1;
#X connect 28 0 8 0;
#X connect 28 1 34 0;
#X connect 29 0 35 1;
#X connect 30 0 32 0;
#X connect 30 1 29 1;
#X connect 30 1 33 0;
#X connect 31 0 29 1;
#X connect 32 0 36 0;
#X connect 33 0 36 1;
#X connect 34 0 29 0;
#X connect 34 1 31 0;
#X connect 35 0 30 0;
#X connect 36 0 7 0;
#X connect 37 0 39 0;
#X connect 37 0 43 0;
#X connect 42 0 37 0;
#X connect 44 0 5 0;
#X connect 44 1 12 0;
#X connect 44 2 13 0;
#X connect 45 0 37 0;
#X connect 46 0 9 0;
#X connect 46 1 35 0;
#X connect 47 0 20 0;
#X coords 0 -1 1 1 582 216 1 300 100;
