#N canvas 405 105 1000 678 10;
#X obj 301 103 cnv 15 580 210 empty empty Seqbank 5 12 1 14 -4032 -4160
0;
#N canvas 337 23 907 458 boxes 0;
#X floatatom 141 121 4 0 0 2 1-1 #0-nbx11r #0-nbx11s, f 4;
#X floatatom 176 121 4 0 0 2 1-2 #0-nbx12r #0-nbx12s, f 4;
#X floatatom 211 121 4 0 0 2 1-3 #0-nbx13r #0-nbx13s, f 4;
#X floatatom 246 121 4 0 0 2 1-4 #0-nbx14r #0-nbx14s, f 4;
#X floatatom 281 121 4 0 0 2 1-5 #0-nbx15r #0-nbx15s, f 4;
#X floatatom 316 121 4 0 0 2 1-6 #0-nbx16r #0-nbx16s, f 4;
#X floatatom 351 121 4 0 0 2 1-7 #0-nbx17r #0-nbx17s, f 4;
#X floatatom 386 121 4 0 0 2 1-8 #0-nbx18r #0-nbx18s, f 4;
#X floatatom 421 121 4 0 0 2 1-9 #0-nbx19r #0-nbx19s, f 4;
#X floatatom 456 121 4 0 0 2 1-10 #0-nbx110r #0-nbx110s, f 4;
#X floatatom 491 121 4 0 0 2 1-11 #0-nbx111r #0-nbx111s, f 4;
#X floatatom 526 121 4 0 0 2 1-12 #0-nbx112r #0-nbx112s, f 4;
#X floatatom 561 121 4 0 0 2 1-13 #0-nbx113r #0-nbx113s, f 4;
#X floatatom 596 121 4 0 0 2 1-14 #0-nbx114r #0-nbx114s, f 4;
#X floatatom 631 121 4 0 0 2 1-15 #0-nbx115r #0-nbx115s, f 4;
#X floatatom 106 121 4 0 0 2 1-0 #0-nbx10r #0-nbx10s, f 4;
#X obj 139 344 unpack f f;
#X obj 251 375 + 16;
#X obj 74 229 pack f 0;
#X obj 153 230 pack f 1;
#X obj 231 231 pack f 2;
#X obj 305 230 pack f 3;
#X obj 381 230 pack f 4;
#X obj 460 231 pack f 5;
#X obj 538 232 pack f 6;
#X obj 612 231 pack f 7;
#X obj 66 285 pack f 8;
#X obj 145 286 pack f 9;
#X obj 223 287 pack f 10;
#X obj 297 286 pack f 11;
#X obj 373 286 pack f 12;
#X obj 451 288 pack f 13;
#X obj 530 288 pack f 14;
#X obj 604 287 pack f 15;
#X obj 140 395 tabwrite \$0-seqbank;
#X obj 74 206 r \$0-nbx10s;
#X obj 153 207 r \$0-nbx11s;
#X obj 231 208 r \$0-nbx12s;
#X obj 305 207 r \$0-nbx13s;
#X obj 381 207 r \$0-nbx14s;
#X obj 460 208 r \$0-nbx15s;
#X obj 538 209 r \$0-nbx16s;
#X obj 612 208 r \$0-nbx17s;
#X obj 66 262 r \$0-nbx18s;
#X obj 145 263 r \$0-nbx19s;
#X obj 223 264 r \$0-nbx110s;
#X obj 297 263 r \$0-nbx111s;
#X obj 373 263 r \$0-nbx112s;
#X obj 452 264 r \$0-nbx113s;
#X obj 530 265 r \$0-nbx114s;
#X obj 614 266 r \$0-nbx115s;
#X connect 16 0 34 0;
#X connect 16 1 17 0;
#X connect 17 0 34 1;
#X connect 18 0 16 0;
#X connect 19 0 16 0;
#X connect 20 0 16 0;
#X connect 21 0 16 0;
#X connect 22 0 16 0;
#X connect 23 0 16 0;
#X connect 24 0 16 0;
#X connect 25 0 16 0;
#X connect 26 0 16 0;
#X connect 27 0 16 0;
#X connect 28 0 16 0;
#X connect 29 0 16 0;
#X connect 30 0 16 0;
#X connect 31 0 16 0;
#X connect 32 0 16 0;
#X connect 33 0 16 0;
#X connect 35 0 18 0;
#X connect 36 0 19 0;
#X connect 37 0 20 0;
#X connect 38 0 21 0;
#X connect 39 0 22 0;
#X connect 40 0 23 0;
#X connect 41 0 24 0;
#X connect 42 0 25 0;
#X connect 43 0 26 0;
#X connect 44 0 27 0;
#X connect 45 0 28 0;
#X connect 46 0 29 0;
#X connect 47 0 30 0;
#X connect 48 0 31 0;
#X connect 49 0 32 0;
#X connect 50 0 33 0;
#X coords 0 -1 1 1 574 40 2 100 100;
#X restore 305 221 pd boxes;
#N canvas 337 23 907 458 boxes 0;
#X floatatom 141 121 4 0 0 2 2-1 #0-nbx21r #0-nbx21s, f 4;
#X floatatom 176 121 4 0 0 2 2-2 #0-nbx22r #0-nbx22s, f 4;
#X floatatom 211 121 4 0 0 2 2-3 #0-nbx23r #0-nbx23s, f 4;
#X floatatom 246 121 4 0 0 2 2-4 #0-nbx24r #0-nbx24s, f 4;
#X floatatom 281 121 4 0 0 2 2-5 #0-nbx25r #0-nbx25s, f 4;
#X floatatom 316 121 4 0 0 2 2-6 #0-nbx26r #0-nbx26s, f 4;
#X floatatom 351 121 4 0 0 2 2-7 #0-nbx27r #0-nbx27s, f 4;
#X floatatom 386 121 4 0 0 2 2-8 #0-nbx28r #0-nbx28s, f 4;
#X floatatom 421 121 4 0 0 2 2-9 #0-nbx29r #0-nbx29s, f 4;
#X floatatom 456 121 4 0 0 2 2-10 #0-nbx210r #0-nbx210s, f 4;
#X floatatom 491 121 4 0 0 2 2-11 #0-nbx211r #0-nbx211s, f 4;
#X floatatom 526 121 4 0 0 2 2-12 #0-nbx212r #0-nbx212s, f 4;
#X floatatom 561 121 4 0 0 2 2-13 #0-nbx213r #0-nbx213s, f 4;
#X floatatom 596 121 4 0 0 2 2-14 #0-nbx214r #0-nbx214s, f 4;
#X floatatom 631 121 4 0 0 2 2-15 #0-nbx215r #0-nbx215s, f 4;
#X floatatom 106 121 4 0 0 2 2-0 #0-nbx20r #0-nbx20s, f 4;
#X obj 137 349 unpack f f;
#X obj 72 234 pack f 0;
#X obj 151 235 pack f 1;
#X obj 72 211 r \$0-nbx20s;
#X obj 151 212 r \$0-nbx21s;
#X obj 229 213 r \$0-nbx22s;
#X obj 303 212 r \$0-nbx23s;
#X obj 229 236 pack f 2;
#X obj 303 235 pack f 3;
#X obj 379 212 r \$0-nbx24s;
#X obj 379 235 pack f 4;
#X obj 458 236 pack f 5;
#X obj 458 213 r \$0-nbx25s;
#X obj 536 214 r \$0-nbx26s;
#X obj 536 237 pack f 6;
#X obj 610 236 pack f 7;
#X obj 64 267 r \$0-nbx28s;
#X obj 64 290 pack f 8;
#X obj 143 268 r \$0-nbx29s;
#X obj 143 291 pack f 9;
#X obj 610 213 r \$0-nbx27s;
#X obj 221 292 pack f 10;
#X obj 295 291 pack f 11;
#X obj 371 291 pack f 12;
#X obj 449 293 pack f 13;
#X obj 528 293 pack f 14;
#X obj 602 292 pack f 15;
#X obj 138 400 tabwrite \$0-seqbank;
#X obj 221 269 r \$0-nbx210s;
#X obj 295 268 r \$0-nbx211s;
#X obj 371 268 r \$0-nbx212s;
#X obj 450 269 r \$0-nbx213s;
#X obj 528 270 r \$0-nbx214s;
#X obj 602 269 r \$0-nbx215s;
#X obj 249 380 + 32;
#X connect 16 0 43 0;
#X connect 16 1 50 0;
#X connect 17 0 16 0;
#X connect 18 0 16 0;
#X connect 19 0 17 0;
#X connect 20 0 18 0;
#X connect 21 0 23 0;
#X connect 22 0 24 0;
#X connect 23 0 16 0;
#X connect 24 0 16 0;
#X connect 25 0 26 0;
#X connect 26 0 16 0;
#X connect 27 0 16 0;
#X connect 28 0 27 0;
#X connect 29 0 30 0;
#X connect 30 0 16 0;
#X connect 31 0 16 0;
#X connect 32 0 33 0;
#X connect 33 0 16 0;
#X connect 34 0 35 0;
#X connect 35 0 16 0;
#X connect 36 0 31 0;
#X connect 37 0 16 0;
#X connect 38 0 16 0;
#X connect 39 0 16 0;
#X connect 40 0 16 0;
#X connect 41 0 16 0;
#X connect 42 0 16 0;
#X connect 44 0 37 0;
#X connect 45 0 38 0;
#X connect 46 0 39 0;
#X connect 47 0 40 0;
#X connect 48 0 41 0;
#X connect 49 0 42 0;
#X connect 50 0 43 1;
#X coords 0 -1 1 1 574 40 2 100 100;
#X restore 305 269 pd boxes;
#X obj 62 57 inlet;
#X obj 62 113 route float list;
#X obj 59 430 tabread \$0-seqbank;
#X obj 56 567 outlet;
#X msg 183 360 symbol \$3-nbx\$2\$1r;
#X obj 159 228 list-dripdex;
#X obj 155 203 list;
#X obj 154 387 send;
#X obj 62 86 list;
#X obj 281 444 table \$0-seqbank 48;
#X obj 76 474 + 16;
#X obj 110 455 + 32;
#X obj 111 475 tabread \$0-seqbank;
#X obj 75 497 tabread \$0-seqbank;
#X obj 67 235 pack f f \$0;
#X msg 66 260 symbol \$3-nbx\$2\$1r;
#X obj 42 282 send;
#X obj 40 173 t b f;
#X obj 39 193 iterate 16;
#X obj 41 215 t b f;
#X msg 36 248 0;
#X obj 77 517 outlet;
#X obj 131 541 outlet;
#X obj 57 541 pack f f f;
#N canvas 337 23 907 458 boxes 0;
#X floatatom 141 121 4 0 0 2 0-1 #0-nbx01r #0-nbx01s, f 4;
#X floatatom 176 121 4 0 0 2 0-2 #0-nbx02r #0-nbx02s, f 4;
#X floatatom 211 121 4 0 0 2 0-3 #0-nbx03r #0-nbx03s, f 4;
#X floatatom 246 121 4 0 0 2 0-4 #0-nbx04r #0-nbx04s, f 4;
#X floatatom 281 121 4 0 0 2 0-5 #0-nbx05r #0-nbx05s, f 4;
#X floatatom 316 121 4 0 0 2 0-6 #0-nbx06r #0-nbx06s, f 4;
#X floatatom 351 121 4 0 0 2 0-7 #0-nbx07r #0-nbx07s, f 4;
#X floatatom 386 121 4 0 0 2 0-8 #0-nbx08r #0-nbx08s, f 4;
#X floatatom 421 121 4 0 0 2 0-9 #0-nbx09r #0-nbx09s, f 4;
#X floatatom 456 121 4 0 0 2 0-10 #0-nbx010r #0-nbx010s, f 4;
#X floatatom 491 121 4 0 0 2 0-11 #0-nbx011r #0-nbx011s, f 4;
#X floatatom 526 121 4 0 0 2 0-12 #0-nbx012r #0-nbx012s, f 4;
#X floatatom 561 121 4 0 0 2 0-13 #0-nbx013r #0-nbx013s, f 4;
#X floatatom 596 121 4 0 0 2 0-14 #0-nbx014r #0-nbx014s, f 4;
#X floatatom 631 121 4 0 0 2 0-15 #0-nbx015r #0-nbx015s, f 4;
#X floatatom 106 121 4 0 0 2 0-0 #0-nbx00r #0-nbx00s, f 4;
#X obj 139 344 unpack f f;
#X obj 74 229 pack f 0;
#X obj 153 230 pack f 1;
#X obj 231 231 pack f 2;
#X obj 305 230 pack f 3;
#X obj 381 230 pack f 4;
#X obj 460 231 pack f 5;
#X obj 538 232 pack f 6;
#X obj 66 285 pack f 8;
#X obj 145 286 pack f 9;
#X obj 223 287 pack f 10;
#X obj 297 286 pack f 11;
#X obj 373 286 pack f 12;
#X obj 451 288 pack f 13;
#X obj 530 288 pack f 14;
#X obj 604 287 pack f 15;
#X obj 140 395 tabwrite \$0-seqbank;
#X obj 74 206 r \$0-nbx00s;
#X obj 153 207 r \$0-nbx01s;
#X obj 231 208 r \$0-nbx02s;
#X obj 305 207 r \$0-nbx03s;
#X obj 381 207 r \$0-nbx04s;
#X obj 460 208 r \$0-nbx05s;
#X obj 538 209 r \$0-nbx06s;
#X obj 612 208 r \$0-nbx07s;
#X obj 612 231 pack f 7;
#X obj 66 262 r \$0-nbx08s;
#X obj 145 263 r \$0-nbx09s;
#X obj 223 264 r \$0-nbx010s;
#X obj 297 263 r \$0-nbx011s;
#X obj 373 263 r \$0-nbx012s;
#X obj 452 264 r \$0-nbx013s;
#X obj 530 265 r \$0-nbx014s;
#X obj 614 266 r \$0-nbx015s;
#X connect 16 0 32 0;
#X connect 16 1 32 1;
#X connect 17 0 16 0;
#X connect 18 0 16 0;
#X connect 19 0 16 0;
#X connect 20 0 16 0;
#X connect 21 0 16 0;
#X connect 22 0 16 0;
#X connect 23 0 16 0;
#X connect 24 0 16 0;
#X connect 25 0 16 0;
#X connect 26 0 16 0;
#X connect 27 0 16 0;
#X connect 28 0 16 0;
#X connect 29 0 16 0;
#X connect 30 0 16 0;
#X connect 31 0 16 0;
#X connect 33 0 17 0;
#X connect 34 0 18 0;
#X connect 35 0 19 0;
#X connect 36 0 20 0;
#X connect 37 0 21 0;
#X connect 38 0 22 0;
#X connect 39 0 23 0;
#X connect 40 0 41 0;
#X connect 41 0 16 0;
#X connect 42 0 24 0;
#X connect 43 0 25 0;
#X connect 44 0 26 0;
#X connect 45 0 27 0;
#X connect 46 0 28 0;
#X connect 47 0 29 0;
#X connect 48 0 30 0;
#X connect 49 0 31 0;
#X coords 0 -1 1 1 574 40 2 100 100;
#X restore 305 173 pd boxes;
#X obj 91 136 route clear;
#X obj 155 155 list split 2;
#X obj 155 179 t b l;
#X obj 238 254 +;
#X obj 200 289 t f f;
#X obj 267 224 * 16;
#X obj 191 311 mod 16;
#X obj 234 315 div 16;
#X obj 244 198 swap;
#X obj 208 267 +;
#X obj 184 339 pack f f \$0;
#X obj 451 358 f \$0;
#X floatatom 845 107 5 0 0 0 Subpatch: #0-this #0-goblegoblegock,
f 5;
#X obj 454 380 s \$0-this;
#X obj 304 130 hradio 36 1 0 16 \$0-Nohradio \$0-hrad empty 0 -8 0
10 -4160 -262144 -1 0;
#X obj 270 418 s \$0-hrad;
#X obj 530 337 inlet;
#X obj 489 422 outlet;
#X obj 59 410 t f f f;
#X obj 451 333 loadbang;
#X connect 3 0 11 0;
#X connect 4 0 43 0;
#X connect 4 0 46 0;
#X connect 4 1 28 0;
#X connect 5 0 26 0;
#X connect 7 0 10 1;
#X connect 8 0 10 0;
#X connect 8 1 37 0;
#X connect 9 0 8 0;
#X connect 11 0 4 0;
#X connect 13 0 16 0;
#X connect 14 0 15 0;
#X connect 15 0 25 0;
#X connect 15 0 26 2;
#X connect 16 0 24 0;
#X connect 16 0 26 1;
#X connect 17 0 18 0;
#X connect 18 0 19 1;
#X connect 20 0 21 0;
#X connect 20 1 17 1;
#X connect 21 0 22 0;
#X connect 22 0 23 0;
#X connect 22 1 17 0;
#X connect 23 0 19 0;
#X connect 26 0 6 0;
#X connect 28 0 20 0;
#X connect 28 1 29 0;
#X connect 29 0 30 0;
#X connect 29 1 9 1;
#X connect 30 0 9 0;
#X connect 30 1 36 0;
#X connect 31 0 37 1;
#X connect 32 0 34 0;
#X connect 32 1 31 1;
#X connect 32 1 35 0;
#X connect 33 0 31 1;
#X connect 34 0 38 0;
#X connect 35 0 38 1;
#X connect 36 0 31 0;
#X connect 36 1 33 0;
#X connect 37 0 32 0;
#X connect 38 0 7 0;
#X connect 39 0 41 0;
#X connect 39 0 45 0;
#X connect 44 0 39 0;
#X connect 46 0 5 0;
#X connect 46 1 13 0;
#X connect 46 2 14 0;
#X connect 47 0 39 0;
#X coords 0 -1 1 1 582 216 1 300 100;
