#N canvas 78 276 1180 685 10;
#X obj 200 103 cnv 15 580 108 empty empty empty 20 12 0 14 -259649
-66577 0;
#X obj 145 356 del;
#X obj 504 -35 inlet;
#X floatatom 642 106 5 1 16 0 - #0-steplet #0-step;
#X floatatom 742 106 5 0 0 0 - #0-recglob #0-sendglob;
#X floatatom 204 136 5 0 0 2 - #0-intemp0 #0-outtemp0;
#X floatatom 240 136 5 0 0 0 - #0-intemp1 #0-outtemp1;
#X floatatom 276 136 5 0 0 0 - #0-intemp2 #0-outtemp2;
#X floatatom 312 136 5 0 0 0 - #0-intemp3 #0-outtemp3;
#X floatatom 348 136 5 0 0 0 - #0-intemp4 #0-outtemp4;
#X floatatom 384 136 5 0 0 0 - #0-intemp5 #0-outtemp5;
#X floatatom 420 136 5 0 0 0 - #0-intemp6 #0-outtemp6;
#X floatatom 456 136 5 0 0 0 - #0-intemp7 #0-outtemp7;
#X floatatom 492 136 5 0 0 0 - #0-intemp8 #0-outtemp8;
#X floatatom 528 136 5 0 0 0 - #0-intemp9 #0-outtemp9;
#X floatatom 564 136 5 0 0 0 - #00-intemp10 #0-outtemp10;
#X floatatom 600 136 5 0 0 0 - #0-intemp11 #0-outtemp11;
#X floatatom 636 136 5 0 0 0 - #0-intemp12 #0-outtemp12;
#X floatatom 672 136 5 0 0 0 - #0-intemp13 #0-outtemp13;
#X floatatom 708 136 5 0 0 0 - #0-intemp14 #0-outtemp14;
#X floatatom 744 136 5 0 0 0 - #0-intemp15 #0-outtemp15;
#X msg 145 379 bang;
#X obj 355 106 tgl 15 0 \$0-started \$0-start empty 17 7 0 10 -258113
-4034 -1 0 1;
#X obj 55 85 sel 1;
#X text 677 105 tempo (ms);
#X text 527 105 counter;
#X text 251 121 1;
#X text 287 121 2;
#X text 324 121 3;
#X text 358 121 4;
#X text 394 121 5;
#X text 430 121 6;
#X text 466 121 7;
#X text 502 121 8;
#X text 537 121 9;
#X text 571 121 10;
#X text 607 121 11;
#X text 643 121 12;
#X text 679 121 13;
#X text 714 121 14;
#X text 750 121 15;
#X text 608 105 steps;
#X obj 12 -116 inlet;
#X obj 367 -45 inlet;
#X msg 111 333 stop;
#X obj 432 106 tgl 15 0 \$0-random \$0-randlet empty 17 7 0 10 -258113
-3577 -1 0 1;
#X text 374 105 randomize;
#X obj 199 -40 inlet;
#X msg 430 -12 16;
#X msg 473 -16 250;
#X obj 283 -37 inlet;
#X floatatom 491 106 5 0 15 0 - #0-offset #0-offsetted;
#X text 451 105 offset;
#X floatatom 573 106 5 0 0 0 - #0-counter #0-NOTHING;
#X floatatom 222 192 2 0 15 0 - #0-nest0 #0-jumpto0;
#X floatatom 205 192 2 0 99 0 - #0-repeat0 #0-repsend0;
#X floatatom 204 174 2 0 0 0 - #0-indicator0 #0-NOTHING;
#X floatatom 260 192 2 0 15 0 - #0-nest1 #0-jumpto1;
#X floatatom 240 192 2 0 99 0 - #0-repeat1 #0-repsend1;
#X floatatom 240 174 2 0 0 0 - #0-indicator1 #0-NOTHING;
#X floatatom 295 192 2 0 15 0 - #0-nest2 #0-jumpto2;
#X floatatom 278 192 2 0 99 0 - #0-repeat2 #0-repsend2;
#X floatatom 278 174 2 0 0 0 - #0-indicator2 #0-NOTHING;
#X floatatom 331 192 2 0 15 0 - #0-nest3 #0-jumpto3;
#X floatatom 314 192 2 0 99 0 - #0-repeat3 #0-repsend3;
#X floatatom 314 174 2 0 0 0 - #0-indicator3 #0-NOTHING;
#X floatatom 368 192 2 0 15 0 - #0-nest4 #0-jumpto4;
#X floatatom 350 192 2 0 99 0 - #0-repeat4 #0-repsend4;
#X floatatom 351 174 2 0 0 0 - #0-indicator4 #0-NOTHING;
#X floatatom 403 192 2 0 15 0 - #0-nest5 #0-jumpto5;
#X floatatom 386 192 2 0 99 0 - #0-repeat5 #0-repsend5;
#X floatatom 386 174 2 0 0 0 - #0-indicator5 #0-NOTHING;
#X floatatom 441 192 2 0 15 0 - #0-nest6 #0-jumpto6;
#X floatatom 422 192 2 0 99 0 - #0-repeat6 #0-repsend6;
#X floatatom 422 174 2 0 0 0 - #0-indicator6 #0-NOTHING;
#X floatatom 475 192 2 0 15 0 - #0-nest7 #0-jumpto7;
#X floatatom 458 192 2 0 99 0 - #0-repeat7 #0-repsend7;
#X floatatom 458 174 2 0 0 0 - #0-indicator7 #0-NOTHING;
#X floatatom 547 192 2 1 16 0 - #0-nest9 #0-jumpto9;
#X floatatom 530 192 2 0 99 0 - #0-repeat9 #0-repsend9;
#X floatatom 530 174 2 0 0 0 - #0-indicator9 #0-NOTHING;
#X floatatom 583 192 2 1 16 0 - #0-nest10 #0-jumpto10;
#X floatatom 566 192 2 0 99 0 - #0-repeat10 #0-repsend10;
#X floatatom 567 174 2 0 0 0 - #0-indicator10 #0-NOTHING;
#X floatatom 620 192 2 1 16 0 - #0-nest11 #0-jumpto11;
#X floatatom 602 192 2 0 99 0 - #0-repeat11 #0-repsend11;
#X floatatom 602 174 2 0 0 0 - #0-indicator11 #0-NOTHING;
#X floatatom 654 192 2 1 16 0 - #0-nest12 #0-jumpto12;
#X floatatom 637 192 2 0 99 0 - #0-repeat12 #0-repsend12;
#X floatatom 637 174 2 0 0 0 - #0-indicator12 #0-NOTHING;
#X floatatom 690 192 2 1 16 0 - #0-nest13 #0-jumpto13;
#X floatatom 673 192 2 0 99 0 - #0-repeat13 #0-repsend13;
#X floatatom 673 174 2 0 0 0 - #0-indicator13 #0-NOTHING;
#X floatatom 726 192 2 1 16 0 - #0-nest14 #0-jumpto14;
#X floatatom 708 192 2 0 99 0 - #0-repeat14 #0-repsend14;
#X floatatom 708 174 2 0 0 0 - #0-indicator14 #0-NOTHING;
#X floatatom 762 192 2 1 16 0 - #0-nest15 #0-jumpto15;
#X floatatom 744 192 2 0 99 0 - #0-repeat15 #0-repsend15;
#X floatatom 744 174 2 0 0 0 - #0-indicator15 #0-NOTHING;
#X floatatom 513 192 2 0 15 0 - #0-nest8 #0-jumpto8;
#X floatatom 495 192 2 0 99 0 - #0-repeat8 #0-repsend8;
#X floatatom 494 174 2 0 0 0 - #0-indicator8 #0-NOTHING;
#X obj 547 174 tgl 15 0 \$0-sendalws9 \$0-alws9 empty 17 7 0 10 -257985
-4160 -1 0 1;
#X obj 584 174 tgl 15 0 \$0-sendalws10 \$0-alws10 empty 17 7 0 10 -257985
-4032 -1 0 1;
#X obj 619 174 tgl 15 0 \$0-sendalws11 \$0-alws11 empty 17 7 0 10 -257985
-4032 -1 0 1;
#X obj 654 174 tgl 15 0 \$0-sendalws12 \$0-alws12 empty 17 7 0 10 -257985
-4160 -1 0 1;
#X obj 691 174 tgl 15 0 \$0-sendalws13 \$0-alws13 empty 17 7 0 10 -257985
-4160 -1 0 1;
#X obj 725 174 tgl 15 0 \$0-sendalws14 \$0-alws14 empty 17 7 0 10 -257985
-4160 -1 0 1;
#X obj 761 174 tgl 15 0 \$0-sendalws15 \$0-alws15 empty 17 7 0 10 -257985
-4032 -1 0 1;
#X obj 511 174 tgl 15 0 \$0-sendalws8 \$0-alws8 empty 17 7 0 10 -257985
-4032 -1 0 1;
#X obj 475 174 tgl 15 0 \$0-sendalws7 \$0-alws7 empty 17 7 0 10 -257985
-4032 -1 0 1;
#X obj 403 174 tgl 15 0 \$0-sendalws5 \$0-alws5 empty 17 7 0 10 -257985
-4032 -1 0 1;
#X obj 440 174 tgl 15 0 \$0-sendalws6 \$0-alws6 empty 17 7 0 10 -257985
-4160 -1 0 1;
#X obj 367 174 tgl 15 0 \$0-sendalws4 \$0-alws4 empty 17 7 0 10 -257985
-4160 -1 0 1;
#X obj 295 174 tgl 15 0 \$0-sendalws2 \$0-alws2 empty 17 7 0 10 -257985
-4160 -1 0 1;
#X obj 259 174 tgl 15 0 \$0-sendalws1 \$0-alws1 empty 17 7 0 10 -257985
-4160 -1 0 1;
#X obj 331 174 tgl 15 0 \$0-sendalws3 \$0-alws3 empty 17 7 0 10 -257985
-4032 -1 0 1;
#X obj 221 174 tgl 15 0 \$0-sendalws0 \$0-alws0 empty 17 7 0 10 -257985
-4032 -1 0 1;
#X text 528 154 always 1/0 \, step # \, repeat#;
#X text 207 154 nesting- (clockwise from top left): repeat indicator
\,;
#X obj 761 156 tgl 15 0 \$0-alllways \$0-allways empty 17 7 0 10 -241351
-159808 -1 0 1;
#X text 713 154 all 1/0;
#X obj 576 -32 inlet;
#X floatatom 204 107 5 0 0 0 - #0-this #0-NOTHING;
#X obj 672 -10 f \$0;
#X obj 776 -174 r neststep-\$0;
#X obj 744 -31 r nestalways-\$0;
#X obj 759 -124 r nestrepeat-\$0;
#X obj 754 -83 r tempo-\$0;
#X obj 469 -92 loadbang;
#X obj 667 -41 bang;
#X obj 7 308 outlet;
#X obj 662 67 outlet;
#X obj 668 -65 inlet;
#X obj 285 -5 clip 0 15;
#X obj 366 -8 clip 1 16;
#X obj 104 -64 clip 0 1;
#X obj 201 -6 clip 0 1;
#X obj 576 -8 clip 0 1;
#X text 215 121 0;
#X obj 11 -94 route next reset;
#X obj 103 -38 change;
#X obj 97 58 r \$0-tocount;
#X obj 55 111 f;
#X msg 22 87 0;
#X obj 55 310 s \$0-counter;
#X text 320 104 start;
#X text 273 105 zero;
#X obj 479 15 s \$0-recglob;
#X obj 145 333 t b f;
#X obj 830 157 table \$0-tempos 16;
#X obj 145 311 tabread \$0-tempos;
#X obj 303 240 route 0 1 2 3 4 5 6 7 8 9 10 11 12 13 14 15;
#X obj 105 -14 s \$0-start;
#X obj 20 -16 r \$0-started;
#X obj 820 -81 r \$0-sendglob;
#N canvas 822 23 450 300 totempos 0;
#X obj 72 50 inlet;
#X obj 242 39 inlet;
#X obj 69 132 list-drip;
#X obj 100 192 cup;
#X obj 72 78 t l b;
#X msg 100 99 0;
#X obj 64 156 t f b;
#X obj 64 221 pack f f f;
#X obj 147 69 loadbang;
#X obj 149 111 f \$0;
#X msg 81 256 \; \$3-intemp\$2 \$1;
#X obj 231 137 list;
#X obj 279 159 list;
#X obj 279 135 t l l;
#X obj 223 69 t b b f;
#X msg 236 93 4;
#X obj 233 117 until;
#X obj 202 169 list;
#X obj 52 194 max 5;
#X connect 0 0 4 0;
#X connect 1 0 14 0;
#X connect 2 0 6 0;
#X connect 3 0 7 1;
#X connect 4 0 2 0;
#X connect 4 1 5 0;
#X connect 5 0 3 0;
#X connect 6 0 18 0;
#X connect 6 1 3 0;
#X connect 7 0 10 0;
#X connect 8 0 9 0;
#X connect 9 0 7 2;
#X connect 11 0 13 0;
#X connect 12 0 11 1;
#X connect 12 0 17 1;
#X connect 13 0 12 0;
#X connect 13 1 12 1;
#X connect 14 0 17 0;
#X connect 14 1 15 0;
#X connect 14 2 11 1;
#X connect 15 0 16 0;
#X connect 16 0 11 0;
#X connect 17 0 4 0;
#X connect 18 0 7 0;
#X restore 761 -57 pd totempos;
#X obj 10 -71 r \$0-zero;
#N canvas 472 171 349 393 nester0 0;
#X obj 11 342 s \$0-tocount;
#X obj 135 247 f;
#X obj 35 258 random;
#X obj 10 128 moses 1;
#X msg 10 150 bang;
#X msg 135 225 bang;
#X obj 10 171 f;
#X obj 13 86 cup;
#X msg 22 59 0;
#X obj 10 192 route 0 1;
#X obj 9 213 f;
#X obj 10 235 route 0 1;
#X msg 7 257 1;
#X obj 75 179 r \$0-random;
#X obj 63 141 r \$0-sendalws0;
#X obj 70 235 r \$0-step;
#X obj 175 222 r \$0-jumpto0;
#X obj 15 22 inlet;
#X obj 64 80 del 0;
#X obj 132 14 r \$0-repsend0;
#X obj 71 114 s \$0-indicator0;
#X obj 66 56 sel 0;
#X obj 134 63 moses 1;
#X msg 221 119 1;
#X obj 175 107 f;
#X obj 176 86 t b f;
#X obj 181 154 sel 1;
#X obj 182 131 >=;
#X obj 213 56 clip 0 1;
#X obj 216 77 change;
#X obj 217 97 sel 1;
#X obj 101 275 r \$0-offsetted;
#X obj 32 292 +;
#X obj 32 315 % 16;
#X connect 1 0 0 0;
#X connect 2 0 32 0;
#X connect 3 0 4 0;
#X connect 3 1 5 0;
#X connect 4 0 6 0;
#X connect 5 0 1 0;
#X connect 6 0 9 0;
#X connect 7 0 3 0;
#X connect 7 0 20 0;
#X connect 7 0 21 0;
#X connect 7 0 24 1;
#X connect 8 0 7 0;
#X connect 9 0 10 0;
#X connect 9 1 5 0;
#X connect 10 0 11 0;
#X connect 11 0 12 0;
#X connect 11 1 2 0;
#X connect 12 0 0 0;
#X connect 13 0 10 1;
#X connect 14 0 6 1;
#X connect 15 0 2 1;
#X connect 16 0 1 1;
#X connect 17 0 7 0;
#X connect 18 0 8 0;
#X connect 19 0 21 1;
#X connect 19 0 22 0;
#X connect 19 0 28 0;
#X connect 21 0 18 0;
#X connect 22 0 8 0;
#X connect 22 1 25 0;
#X connect 23 0 7 0;
#X connect 24 0 27 0;
#X connect 25 0 24 0;
#X connect 25 1 27 1;
#X connect 26 0 8 0;
#X connect 27 0 26 0;
#X connect 28 0 29 0;
#X connect 29 0 30 0;
#X connect 30 0 23 0;
#X connect 31 0 32 1;
#X connect 32 0 33 0;
#X connect 33 0 0 0;
#X restore 302 266 pd nester0;
#X obj 301 106 bng 15 250 50 0 \$0-zero \$0-NOTHINGREC empty 17 7 0
10 -4034 -1 -1;
#X obj 5 8 f;
#X obj 4 31 sel 0 1;
#X obj 22 55 t b b;
#X msg 68 58 0;
#X obj 675 20 s \$0-this;
#X obj 365 17 s \$0-steplet;
#X obj 284 22 s \$0-offset;
#X obj 576 20 s \$0-allways;
#X obj 200 20 s \$0-randlet;
#N canvas 880 98 450 300 toalways 0;
#X obj 74 46 inlet;
#X obj 244 35 inlet;
#X obj 71 128 list-drip;
#X obj 102 188 cup;
#X obj 74 74 t l b;
#X msg 102 95 0;
#X obj 66 152 t f b;
#X obj 66 217 pack f f f;
#X obj 149 65 loadbang;
#X obj 151 107 f \$0;
#X obj 233 133 list;
#X obj 281 155 list;
#X obj 281 131 t l l;
#X obj 225 65 t b b f;
#X msg 238 89 4;
#X obj 235 113 until;
#X obj 204 165 list;
#X msg 83 252 \; \$3-alws\$2 \$1;
#X connect 0 0 4 0;
#X connect 1 0 13 0;
#X connect 2 0 6 0;
#X connect 3 0 7 1;
#X connect 4 0 2 0;
#X connect 4 1 5 0;
#X connect 5 0 3 0;
#X connect 6 0 7 0;
#X connect 6 1 3 0;
#X connect 7 0 17 0;
#X connect 8 0 9 0;
#X connect 9 0 7 2;
#X connect 10 0 12 0;
#X connect 11 0 10 1;
#X connect 11 0 16 1;
#X connect 12 0 11 0;
#X connect 12 1 11 1;
#X connect 13 0 16 0;
#X connect 13 1 14 0;
#X connect 13 2 10 1;
#X connect 14 0 15 0;
#X connect 15 0 10 0;
#X connect 16 0 4 0;
#X restore 784 -7 pd toalways;
#X obj 847 -28 r \$0-alllways;
#N canvas 880 98 450 300 tostep 0;
#X obj 74 46 inlet;
#X obj 71 128 list-drip;
#X obj 102 188 cup;
#X obj 74 74 t l b;
#X msg 102 95 0;
#X obj 66 152 t f b;
#X obj 66 217 pack f f f;
#X obj 233 14 loadbang;
#X obj 187 137 f \$0;
#X msg 83 252 \; \$3-nest\$2 \$1;
#X obj 239 54 t b b;
#X msg 168 81 1 2 3 4 5 6 7 8 9 10 11 12 13 14 15 0;
#X connect 0 0 3 0;
#X connect 1 0 5 0;
#X connect 2 0 6 1;
#X connect 3 0 1 0;
#X connect 3 1 4 0;
#X connect 4 0 2 0;
#X connect 5 0 6 0;
#X connect 5 1 2 0;
#X connect 6 0 9 0;
#X connect 7 0 10 0;
#X connect 8 0 6 2;
#X connect 10 0 11 0;
#X connect 10 1 8 0;
#X connect 11 0 3 0;
#X restore 773 -150 pd tostep;
#N canvas 880 98 450 300 repeats 0;
#X obj 74 46 inlet;
#X obj 71 128 list-drip;
#X obj 102 188 cup;
#X obj 74 74 t l b;
#X msg 102 95 0;
#X obj 66 152 t f b;
#X obj 66 217 pack f f f;
#X obj 192 90 loadbang;
#X obj 187 137 f \$0;
#X msg 83 252 \; \$3-repeat\$2 \$1;
#X connect 0 0 3 0;
#X connect 1 0 5 0;
#X connect 2 0 6 1;
#X connect 3 0 1 0;
#X connect 3 1 4 0;
#X connect 4 0 2 0;
#X connect 5 0 6 0;
#X connect 5 1 2 0;
#X connect 6 0 9 0;
#X connect 7 0 8 0;
#X connect 8 0 6 2;
#X restore 763 -105 pd repeats;
#X obj 39 -46 bang;
#X obj 97 84 clip 0 15;
#X obj 505 -14 max 5;
#X obj 106 172 r \$0-step;
#X obj 99 109 r \$0-offsetted;
#X obj 74 283 % 16;
#X obj 54 131 -;
#X obj 56 193 >=;
#X obj 55 172 t f f;
#X obj 59 216 sel 1 0;
#X obj 79 239 f;
#X obj 75 261 +;
#X msg 46 241 0;
#X obj 53 151 mod 16;
#N canvas 360 252 349 393 nester1 0;
#X obj 19 335 s \$0-tocount;
#X obj 135 247 f;
#X obj 35 258 random;
#X obj 10 128 moses 1;
#X msg 10 150 bang;
#X msg 135 225 bang;
#X obj 10 171 f;
#X obj 13 86 cup;
#X msg 22 59 0;
#X obj 10 192 route 0 1;
#X obj 9 213 f;
#X obj 10 235 route 0 1;
#X obj 75 179 r \$0-random;
#X obj 70 235 r \$0-step;
#X obj 15 22 inlet;
#X obj 64 80 del 0;
#X obj 66 56 sel 0;
#X obj 128 46 moses 1;
#X msg 255 129 1;
#X obj 169 94 f;
#X obj 170 73 t b f;
#X obj 71 114 s \$0-indicator1;
#X obj 63 141 r \$0-sendalws1;
#X obj 175 222 r \$0-jumpto1;
#X obj 118 19 r \$0-repsend1;
#X msg 7 257 2;
#X obj 175 120 >=;
#X obj 175 141 sel 1;
#X obj 223 66 clip 0 1;
#X obj 226 87 change;
#X obj 227 107 sel 1;
#X obj 100 272 r \$0-offsetted;
#X obj 31 289 +;
#X obj 27 310 % 16;
#X connect 1 0 0 0;
#X connect 2 0 32 0;
#X connect 3 0 4 0;
#X connect 3 1 5 0;
#X connect 4 0 6 0;
#X connect 5 0 1 0;
#X connect 6 0 9 0;
#X connect 7 0 3 0;
#X connect 7 0 16 0;
#X connect 7 0 19 1;
#X connect 7 0 21 0;
#X connect 8 0 7 0;
#X connect 9 0 10 0;
#X connect 9 1 5 0;
#X connect 10 0 11 0;
#X connect 11 0 25 0;
#X connect 11 1 2 0;
#X connect 12 0 10 1;
#X connect 13 0 2 1;
#X connect 14 0 7 0;
#X connect 15 0 8 0;
#X connect 16 0 15 0;
#X connect 17 0 8 0;
#X connect 17 1 20 0;
#X connect 18 0 7 0;
#X connect 19 0 26 0;
#X connect 20 0 19 0;
#X connect 20 1 26 1;
#X connect 22 0 6 1;
#X connect 23 0 1 1;
#X connect 24 0 16 1;
#X connect 24 0 17 0;
#X connect 24 0 28 0;
#X connect 25 0 0 0;
#X connect 26 0 27 0;
#X connect 27 0 8 0;
#X connect 28 0 29 0;
#X connect 29 0 30 0;
#X connect 30 0 18 0;
#X connect 31 0 32 1;
#X connect 32 0 33 0;
#X connect 33 0 0 0;
#X restore 318 291 pd nester1;
#N canvas 360 252 349 393 nester2 0;
#X obj -1 342 s \$0-tocount;
#X obj 135 247 f;
#X obj 35 258 random;
#X obj 10 128 moses 1;
#X msg 10 150 bang;
#X msg 135 225 bang;
#X obj 10 171 f;
#X obj 13 86 cup;
#X msg 22 59 0;
#X obj 10 192 route 0 1;
#X obj 9 213 f;
#X obj 10 235 route 0 1;
#X obj 75 179 r \$0-random;
#X obj 70 235 r \$0-step;
#X obj 15 22 inlet;
#X obj 64 80 del 0;
#X obj 66 56 sel 0;
#X obj 128 46 moses 1;
#X msg 240 143 1;
#X obj 169 94 f;
#X obj 170 73 t b f;
#X obj 118 19 r \$0-repsend2;
#X obj 71 114 s \$0-indicator2;
#X obj 63 141 r \$0-sendalws2;
#X obj 175 222 r \$0-jumpto2;
#X msg 7 257 3;
#X obj 175 120 >=;
#X obj 176 140 sel 1;
#X obj 233 76 clip 0 1;
#X obj 236 97 change;
#X obj 237 117 sel 1;
#X obj 97 277 r \$0-offsetted;
#X obj 28 294 +;
#X obj 28 318 % 16;
#X connect 1 0 0 0;
#X connect 2 0 32 0;
#X connect 3 0 4 0;
#X connect 3 1 5 0;
#X connect 4 0 6 0;
#X connect 5 0 1 0;
#X connect 6 0 9 0;
#X connect 7 0 3 0;
#X connect 7 0 16 0;
#X connect 7 0 19 1;
#X connect 7 0 22 0;
#X connect 8 0 7 0;
#X connect 9 0 10 0;
#X connect 9 1 5 0;
#X connect 10 0 11 0;
#X connect 11 0 25 0;
#X connect 11 1 2 0;
#X connect 12 0 10 1;
#X connect 13 0 2 1;
#X connect 14 0 7 0;
#X connect 15 0 8 0;
#X connect 16 0 15 0;
#X connect 17 0 8 0;
#X connect 17 1 20 0;
#X connect 18 0 7 0;
#X connect 19 0 26 0;
#X connect 20 0 19 0;
#X connect 20 1 26 1;
#X connect 21 0 16 1;
#X connect 21 0 17 0;
#X connect 21 0 28 0;
#X connect 23 0 6 1;
#X connect 24 0 1 1;
#X connect 25 0 0 0;
#X connect 26 0 27 0;
#X connect 27 0 8 0;
#X connect 28 0 29 0;
#X connect 29 0 30 0;
#X connect 30 0 18 0;
#X connect 31 0 32 1;
#X connect 32 0 33 0;
#X connect 33 0 0 0;
#X restore 334 315 pd nester2;
#N canvas 360 252 349 393 nester3 0;
#X obj 4 335 s \$0-tocount;
#X obj 135 247 f;
#X obj 35 258 random;
#X obj 10 128 moses 1;
#X msg 10 150 bang;
#X msg 135 225 bang;
#X obj 10 171 f;
#X obj 13 86 cup;
#X msg 22 59 0;
#X obj 10 192 route 0 1;
#X obj 9 213 f;
#X obj 10 235 route 0 1;
#X obj 75 179 r \$0-random;
#X obj 70 235 r \$0-step;
#X obj 15 22 inlet;
#X obj 64 80 del 0;
#X obj 66 56 sel 0;
#X obj 128 46 moses 1;
#X msg 249 154 1;
#X obj 169 94 f;
#X obj 170 73 t b f;
#X obj 118 19 r \$0-repsend3;
#X obj 71 114 s \$0-indicator3;
#X obj 63 141 r \$0-sendalws3;
#X obj 175 222 r \$0-jumpto3;
#X msg 7 257 4;
#X obj 175 120 >=;
#X obj 175 141 sel 1;
#X obj 243 86 clip 0 1;
#X obj 246 107 change;
#X obj 247 127 sel 1;
#X obj 100 272 r \$0-offsetted;
#X obj 31 289 +;
#X obj 20 313 % 16;
#X connect 1 0 0 0;
#X connect 2 0 32 0;
#X connect 3 0 4 0;
#X connect 3 1 5 0;
#X connect 4 0 6 0;
#X connect 5 0 1 0;
#X connect 6 0 9 0;
#X connect 7 0 3 0;
#X connect 7 0 16 0;
#X connect 7 0 19 1;
#X connect 7 0 22 0;
#X connect 8 0 7 0;
#X connect 9 0 10 0;
#X connect 9 1 5 0;
#X connect 10 0 11 0;
#X connect 11 0 25 0;
#X connect 11 1 2 0;
#X connect 12 0 10 1;
#X connect 13 0 2 1;
#X connect 14 0 7 0;
#X connect 15 0 8 0;
#X connect 16 0 15 0;
#X connect 17 0 8 0;
#X connect 17 1 20 0;
#X connect 18 0 7 0;
#X connect 19 0 26 0;
#X connect 20 0 19 0;
#X connect 20 1 26 1;
#X connect 21 0 16 1;
#X connect 21 0 17 0;
#X connect 21 0 28 0;
#X connect 23 0 6 1;
#X connect 24 0 1 1;
#X connect 25 0 0 0;
#X connect 26 0 27 0;
#X connect 27 0 8 0;
#X connect 28 0 29 0;
#X connect 29 0 30 0;
#X connect 30 0 18 0;
#X connect 31 0 32 1;
#X connect 32 0 33 0;
#X connect 33 0 0 0;
#X restore 353 339 pd nester3;
#N canvas 360 252 349 393 nester4 0;
#X obj 4 340 s \$0-tocount;
#X obj 135 247 f;
#X obj 35 258 random;
#X obj 10 128 moses 1;
#X msg 10 150 bang;
#X msg 135 225 bang;
#X obj 10 171 f;
#X obj 13 86 cup;
#X msg 22 59 0;
#X obj 10 192 route 0 1;
#X obj 9 213 f;
#X obj 10 235 route 0 1;
#X obj 75 179 r \$0-random;
#X obj 70 235 r \$0-step;
#X obj 15 22 inlet;
#X obj 64 80 del 0;
#X obj 66 56 sel 0;
#X obj 128 46 moses 1;
#X msg 264 155 1;
#X obj 169 94 f;
#X obj 170 73 t b f;
#X obj 71 114 s \$0-indicator4;
#X obj 118 19 r \$0-repsend4;
#X obj 63 141 r \$0-sendalws4;
#X obj 175 222 r \$0-jumpto4;
#X msg 7 257 5;
#X obj 175 141 sel 1;
#X obj 175 120 >=;
#X obj 253 96 clip 0 1;
#X obj 256 117 change;
#X obj 257 137 sel 1;
#X obj 100 277 r \$0-offsetted;
#X obj 31 294 +;
#X obj 20 316 % 16;
#X connect 1 0 0 0;
#X connect 2 0 32 0;
#X connect 3 0 4 0;
#X connect 3 1 5 0;
#X connect 4 0 6 0;
#X connect 5 0 1 0;
#X connect 6 0 9 0;
#X connect 7 0 3 0;
#X connect 7 0 16 0;
#X connect 7 0 19 1;
#X connect 7 0 21 0;
#X connect 8 0 7 0;
#X connect 9 0 10 0;
#X connect 9 1 5 0;
#X connect 10 0 11 0;
#X connect 11 0 25 0;
#X connect 11 1 2 0;
#X connect 12 0 10 1;
#X connect 13 0 2 1;
#X connect 14 0 7 0;
#X connect 15 0 8 0;
#X connect 16 0 15 0;
#X connect 17 0 8 0;
#X connect 17 1 20 0;
#X connect 18 0 7 0;
#X connect 19 0 27 0;
#X connect 20 0 19 0;
#X connect 20 1 27 1;
#X connect 22 0 16 1;
#X connect 22 0 17 0;
#X connect 22 0 28 0;
#X connect 23 0 6 1;
#X connect 24 0 1 1;
#X connect 25 0 0 0;
#X connect 26 0 8 0;
#X connect 27 0 26 0;
#X connect 28 0 29 0;
#X connect 29 0 30 0;
#X connect 30 0 18 0;
#X connect 31 0 32 1;
#X connect 32 0 33 0;
#X connect 33 0 0 0;
#X restore 370 368 pd nester4;
#N canvas 360 252 349 393 nester5 0;
#X obj -3 345 s \$0-tocount;
#X obj 135 247 f;
#X obj 35 258 random;
#X obj 10 128 moses 1;
#X msg 10 150 bang;
#X msg 135 225 bang;
#X obj 10 171 f;
#X obj 13 86 cup;
#X msg 22 59 0;
#X obj 10 192 route 0 1;
#X obj 9 213 f;
#X obj 10 235 route 0 1;
#X obj 75 179 r \$0-random;
#X obj 70 235 r \$0-step;
#X obj 15 22 inlet;
#X obj 64 80 del 0;
#X obj 66 56 sel 0;
#X obj 128 46 moses 1;
#X msg 273 173 1;
#X obj 169 94 f;
#X obj 170 73 t b f;
#X obj 118 19 r \$0-repsend5;
#X obj 71 114 s \$0-indicator5;
#X obj 63 141 r \$0-sendalws5;
#X obj 175 222 r \$0-jumpto5;
#X msg 7 257 6;
#X obj 175 120 >=;
#X obj 175 141 sel 1;
#X obj 263 106 clip 0 1;
#X obj 266 127 change;
#X obj 267 147 sel 1;
#X obj 99 283 r \$0-offsetted;
#X obj 30 282 +;
#X obj 11 314 % 16;
#X connect 1 0 0 0;
#X connect 2 0 32 0;
#X connect 3 0 4 0;
#X connect 3 1 5 0;
#X connect 4 0 6 0;
#X connect 5 0 1 0;
#X connect 6 0 9 0;
#X connect 7 0 3 0;
#X connect 7 0 16 0;
#X connect 7 0 19 1;
#X connect 7 0 22 0;
#X connect 8 0 7 0;
#X connect 9 0 10 0;
#X connect 9 1 5 0;
#X connect 10 0 11 0;
#X connect 11 0 25 0;
#X connect 11 1 2 0;
#X connect 12 0 10 1;
#X connect 13 0 2 1;
#X connect 14 0 7 0;
#X connect 15 0 8 0;
#X connect 16 0 15 0;
#X connect 17 0 8 0;
#X connect 17 1 20 0;
#X connect 18 0 7 0;
#X connect 19 0 26 0;
#X connect 20 0 19 0;
#X connect 20 1 26 1;
#X connect 21 0 16 1;
#X connect 21 0 17 0;
#X connect 21 0 28 0;
#X connect 23 0 6 1;
#X connect 24 0 1 1;
#X connect 25 0 0 0;
#X connect 26 0 27 0;
#X connect 27 0 8 0;
#X connect 28 0 29 0;
#X connect 29 0 30 0;
#X connect 30 0 18 0;
#X connect 31 0 32 1;
#X connect 32 0 33 0;
#X connect 33 0 0 0;
#X restore 383 263 pd nester5;
#N canvas 360 252 349 393 nester6 0;
#X obj 6 339 s \$0-tocount;
#X obj 135 247 f;
#X obj 35 258 random;
#X obj 10 128 moses 1;
#X msg 10 150 bang;
#X msg 135 225 bang;
#X obj 10 171 f;
#X obj 13 86 cup;
#X msg 22 59 0;
#X obj 10 192 route 0 1;
#X obj 9 213 f;
#X obj 10 235 route 0 1;
#X obj 75 179 r \$0-random;
#X obj 70 235 r \$0-step;
#X obj 15 22 inlet;
#X obj 64 80 del 0;
#X obj 66 56 sel 0;
#X obj 128 46 moses 1;
#X msg 231 152 1;
#X obj 169 94 f;
#X obj 170 73 t b f;
#X obj 118 19 r \$0-repsend6;
#X obj 71 114 s \$0-indicator6;
#X obj 63 141 r \$0-sendalws6;
#X obj 175 222 r \$0-jumpto6;
#X msg 7 257 7;
#X obj 175 120 >=;
#X obj 175 141 sel 1;
#X obj 223 84 clip 0 1;
#X obj 226 105 change;
#X obj 227 125 sel 1;
#X obj 97 277 r \$0-offsetted;
#X obj 28 294 +;
#X obj 21 317 % 16;
#X connect 1 0 0 0;
#X connect 2 0 32 0;
#X connect 3 0 4 0;
#X connect 3 1 5 0;
#X connect 4 0 6 0;
#X connect 5 0 1 0;
#X connect 6 0 9 0;
#X connect 7 0 3 0;
#X connect 7 0 16 0;
#X connect 7 0 19 1;
#X connect 7 0 22 0;
#X connect 8 0 7 0;
#X connect 9 0 10 0;
#X connect 9 1 5 0;
#X connect 10 0 11 0;
#X connect 11 0 25 0;
#X connect 11 1 2 0;
#X connect 12 0 10 1;
#X connect 13 0 2 1;
#X connect 14 0 7 0;
#X connect 15 0 8 0;
#X connect 16 0 15 0;
#X connect 17 0 8 0;
#X connect 17 1 20 0;
#X connect 18 0 7 0;
#X connect 19 0 26 0;
#X connect 20 0 19 0;
#X connect 20 1 26 1;
#X connect 21 0 16 1;
#X connect 21 0 17 0;
#X connect 21 0 28 0;
#X connect 23 0 6 1;
#X connect 24 0 1 1;
#X connect 25 0 0 0;
#X connect 26 0 27 0;
#X connect 27 0 8 0;
#X connect 28 0 29 0;
#X connect 29 0 30 0;
#X connect 30 0 18 0;
#X connect 31 0 32 1;
#X connect 32 0 33 0;
#X connect 33 0 0 0;
#X restore 399 288 pd nester6;
#N canvas 360 252 349 393 nester7 0;
#X obj 11 337 s \$0-tocount;
#X obj 135 247 f;
#X obj 35 258 random;
#X obj 10 128 moses 1;
#X msg 10 150 bang;
#X msg 135 225 bang;
#X obj 10 171 f;
#X obj 13 86 cup;
#X msg 22 59 0;
#X obj 10 192 route 0 1;
#X obj 9 213 f;
#X obj 10 235 route 0 1;
#X obj 75 179 r \$0-random;
#X obj 70 235 r \$0-step;
#X obj 15 22 inlet;
#X obj 64 80 del 0;
#X obj 66 56 sel 0;
#X obj 128 46 moses 1;
#X msg 245 159 1;
#X obj 168 90 f;
#X obj 168 66 t b f;
#X obj 118 19 r \$0-repsend7;
#X obj 71 114 s \$0-indicator7;
#X obj 63 141 r \$0-sendalws7;
#X obj 175 222 r \$0-jumpto7;
#X msg 7 257 8;
#X obj 171 110 >=;
#X obj 233 94 clip 0 1;
#X obj 236 115 change;
#X obj 237 135 sel 1;
#X obj 169 133 sel 1;
#X obj 100 276 r \$0-offsetted;
#X obj 38 280 +;
#X obj 27 307 % 16;
#X connect 1 0 0 0;
#X connect 2 0 32 0;
#X connect 3 0 4 0;
#X connect 3 1 5 0;
#X connect 4 0 6 0;
#X connect 5 0 1 0;
#X connect 6 0 9 0;
#X connect 7 0 3 0;
#X connect 7 0 16 0;
#X connect 7 0 19 1;
#X connect 7 0 22 0;
#X connect 8 0 7 0;
#X connect 9 0 10 0;
#X connect 9 1 5 0;
#X connect 10 0 11 0;
#X connect 11 0 25 0;
#X connect 11 1 2 0;
#X connect 12 0 10 1;
#X connect 13 0 2 1;
#X connect 14 0 7 0;
#X connect 15 0 8 0;
#X connect 16 0 15 0;
#X connect 17 0 8 0;
#X connect 17 1 20 0;
#X connect 18 0 7 0;
#X connect 19 0 26 0;
#X connect 20 0 19 0;
#X connect 20 1 26 1;
#X connect 21 0 16 1;
#X connect 21 0 17 0;
#X connect 21 0 27 0;
#X connect 23 0 6 1;
#X connect 24 0 1 1;
#X connect 25 0 0 0;
#X connect 26 0 30 0;
#X connect 27 0 28 0;
#X connect 28 0 29 0;
#X connect 29 0 18 0;
#X connect 30 0 8 0;
#X connect 31 0 32 1;
#X connect 32 0 33 0;
#X connect 33 0 0 0;
#X restore 415 312 pd nester7;
#N canvas 691 137 349 393 nester8 0;
#X obj 14 336 s \$0-tocount;
#X obj 135 247 f;
#X obj 35 258 random;
#X obj 10 128 moses 1;
#X msg 10 150 bang;
#X msg 135 225 bang;
#X obj 10 171 f;
#X obj 13 86 cup;
#X msg 22 59 0;
#X obj 10 192 route 0 1;
#X obj 9 213 f;
#X obj 10 235 route 0 1;
#X obj 75 179 r \$0-random;
#X obj 70 235 r \$0-step;
#X obj 15 22 inlet;
#X obj 64 80 del 0;
#X obj 66 56 sel 0;
#X obj 128 46 moses 1;
#X msg 234 155 1;
#X obj 169 94 f;
#X obj 170 73 t b f;
#X obj 118 19 r \$0-repsend8;
#X obj 71 114 s \$0-indicator8;
#X obj 63 141 r \$0-sendalws8;
#X obj 175 222 r \$0-jumpto8;
#X msg 7 257 9;
#X obj 175 120 >=;
#X obj 175 141 sel 1;
#X obj 228 87 clip 0 1;
#X obj 231 108 change;
#X obj 232 128 sel 1;
#X obj 110 286 r \$0-offsetted;
#X obj 38 282 +;
#X obj 36 306 % 16;
#X connect 1 0 0 0;
#X connect 2 0 32 0;
#X connect 3 0 4 0;
#X connect 3 1 5 0;
#X connect 4 0 6 0;
#X connect 5 0 1 0;
#X connect 6 0 9 0;
#X connect 7 0 3 0;
#X connect 7 0 16 0;
#X connect 7 0 19 1;
#X connect 7 0 22 0;
#X connect 8 0 7 0;
#X connect 9 0 10 0;
#X connect 9 1 5 0;
#X connect 10 0 11 0;
#X connect 11 0 25 0;
#X connect 11 1 2 0;
#X connect 12 0 10 1;
#X connect 13 0 2 1;
#X connect 14 0 7 0;
#X connect 15 0 8 0;
#X connect 16 0 15 0;
#X connect 17 0 8 0;
#X connect 17 1 20 0;
#X connect 18 0 7 0;
#X connect 19 0 26 0;
#X connect 20 0 19 0;
#X connect 20 1 26 1;
#X connect 21 0 16 1;
#X connect 21 0 17 0;
#X connect 21 0 28 0;
#X connect 23 0 6 1;
#X connect 24 0 1 1;
#X connect 25 0 0 0;
#X connect 26 0 27 0;
#X connect 27 0 8 0;
#X connect 28 0 29 0;
#X connect 29 0 30 0;
#X connect 30 0 18 0;
#X connect 31 0 32 1;
#X connect 32 0 33 0;
#X connect 33 0 0 0;
#X restore 434 336 pd nester8;
#N canvas 360 252 349 393 nester9 0;
#X obj 13 323 s \$0-tocount;
#X obj 135 247 f;
#X obj 35 258 random;
#X obj 10 128 moses 1;
#X msg 10 150 bang;
#X msg 135 225 bang;
#X obj 10 171 f;
#X obj 13 86 cup;
#X msg 22 59 0;
#X obj 10 192 route 0 1;
#X obj 9 213 f;
#X obj 10 235 route 0 1;
#X obj 75 179 r \$0-random;
#X obj 70 235 r \$0-step;
#X obj 15 22 inlet;
#X obj 64 80 del 0;
#X obj 66 56 sel 0;
#X obj 128 46 moses 1;
#X msg 221 151 1;
#X obj 169 94 f;
#X obj 170 73 t b f;
#X obj 118 19 r \$0-repsend9;
#X obj 71 114 s \$0-indicator9;
#X obj 63 141 r \$0-sendalws9;
#X obj 175 222 r \$0-jumpto9;
#X msg 7 257 10;
#X obj 175 120 >=;
#X obj 175 141 sel 1;
#X obj 219 86 clip 0 1;
#X obj 222 107 change;
#X obj 223 127 sel 1;
#X obj 96 272 r \$0-offsetted;
#X obj 34 280 +;
#X obj 30 300 % 16;
#X connect 1 0 0 0;
#X connect 2 0 32 0;
#X connect 3 0 4 0;
#X connect 3 1 5 0;
#X connect 4 0 6 0;
#X connect 5 0 1 0;
#X connect 6 0 9 0;
#X connect 7 0 3 0;
#X connect 7 0 16 0;
#X connect 7 0 19 1;
#X connect 7 0 22 0;
#X connect 8 0 7 0;
#X connect 9 0 10 0;
#X connect 9 1 5 0;
#X connect 10 0 11 0;
#X connect 11 0 25 0;
#X connect 11 1 2 0;
#X connect 12 0 10 1;
#X connect 13 0 2 1;
#X connect 14 0 7 0;
#X connect 15 0 8 0;
#X connect 16 0 15 0;
#X connect 17 0 8 0;
#X connect 17 1 20 0;
#X connect 18 0 7 0;
#X connect 19 0 26 0;
#X connect 20 0 19 0;
#X connect 20 1 26 1;
#X connect 21 0 16 1;
#X connect 21 0 17 0;
#X connect 21 0 28 0;
#X connect 23 0 6 1;
#X connect 24 0 1 1;
#X connect 25 0 0 0;
#X connect 26 0 27 0;
#X connect 27 0 8 0;
#X connect 28 0 29 0;
#X connect 29 0 30 0;
#X connect 30 0 18 0;
#X connect 31 0 32 1;
#X connect 32 0 33 0;
#X connect 33 0 0 0;
#X restore 451 365 pd nester9;
#N canvas 360 252 349 393 nester10 0;
#X obj 15 334 s \$0-tocount;
#X obj 135 247 f;
#X obj 35 258 random;
#X obj 10 128 moses 1;
#X msg 10 150 bang;
#X msg 135 225 bang;
#X obj 10 171 f;
#X obj 13 86 cup;
#X msg 22 59 0;
#X obj 10 192 route 0 1;
#X obj 9 213 f;
#X obj 10 235 route 0 1;
#X obj 75 179 r \$0-random;
#X obj 70 235 r \$0-step;
#X obj 15 22 inlet;
#X obj 64 80 del 0;
#X obj 66 56 sel 0;
#X obj 128 46 moses 1;
#X msg 227 139 1;
#X obj 169 94 f;
#X obj 170 73 t b f;
#X obj 118 19 r \$0-repsend10;
#X obj 71 114 s \$0-indicator10;
#X obj 63 141 r \$0-sendalws10;
#X obj 175 222 r \$0-jumpto10;
#X msg 7 257 11;
#X obj 175 120 >=;
#X obj 175 141 sel 1;
#X obj 220 73 clip 0 1;
#X obj 223 94 change;
#X obj 224 114 sel 1;
#X obj 94 281 r \$0-offsetted;
#X obj 37 283 +;
#X obj 40 310 % 16;
#X connect 1 0 0 0;
#X connect 2 0 32 0;
#X connect 3 0 4 0;
#X connect 3 1 5 0;
#X connect 4 0 6 0;
#X connect 5 0 1 0;
#X connect 6 0 9 0;
#X connect 7 0 3 0;
#X connect 7 0 16 0;
#X connect 7 0 19 1;
#X connect 7 0 22 0;
#X connect 8 0 7 0;
#X connect 9 0 10 0;
#X connect 9 1 5 0;
#X connect 10 0 11 0;
#X connect 11 0 25 0;
#X connect 11 1 2 0;
#X connect 12 0 10 1;
#X connect 13 0 2 1;
#X connect 14 0 7 0;
#X connect 15 0 8 0;
#X connect 16 0 15 0;
#X connect 17 0 8 0;
#X connect 17 1 20 0;
#X connect 18 0 7 0;
#X connect 19 0 26 0;
#X connect 20 0 19 0;
#X connect 20 1 26 1;
#X connect 21 0 16 1;
#X connect 21 0 17 0;
#X connect 21 0 28 0;
#X connect 23 0 6 1;
#X connect 24 0 1 1;
#X connect 25 0 0 0;
#X connect 26 0 27 0;
#X connect 27 0 8 0;
#X connect 28 0 29 0;
#X connect 29 0 30 0;
#X connect 30 0 18 0;
#X connect 31 0 32 1;
#X connect 32 0 33 0;
#X connect 33 0 0 0;
#X restore 460 264 pd nester10;
#N canvas 360 252 349 393 nester11 0;
#X obj 12 337 s \$0-tocount;
#X obj 135 247 f;
#X obj 35 258 random;
#X obj 10 128 moses 1;
#X msg 10 150 bang;
#X msg 135 225 bang;
#X obj 10 171 f;
#X obj 13 86 cup;
#X msg 22 59 0;
#X obj 10 192 route 0 1;
#X obj 9 213 f;
#X obj 10 235 route 0 1;
#X obj 75 179 r \$0-random;
#X obj 70 235 r \$0-step;
#X obj 15 22 inlet;
#X obj 64 80 del 0;
#X obj 66 56 sel 0;
#X obj 128 46 moses 1;
#X msg 239 148 1;
#X obj 169 94 f;
#X obj 170 73 t b f;
#X obj 118 19 r \$0-repsend11;
#X obj 71 114 s \$0-indicator11;
#X obj 63 141 r \$0-sendalws11;
#X obj 175 222 r \$0-jumpto11;
#X msg 7 257 12;
#X obj 175 141 sel 1;
#X obj 175 120 >=;
#X obj 230 83 clip 0 1;
#X obj 233 104 change;
#X obj 234 124 sel 1;
#X obj 102 275 r \$0-offsetted;
#X obj 33 284 +;
#X obj 27 305 % 16;
#X connect 1 0 0 0;
#X connect 2 0 32 0;
#X connect 3 0 4 0;
#X connect 3 1 5 0;
#X connect 4 0 6 0;
#X connect 5 0 1 0;
#X connect 6 0 9 0;
#X connect 7 0 3 0;
#X connect 7 0 16 0;
#X connect 7 0 19 1;
#X connect 7 0 22 0;
#X connect 8 0 7 0;
#X connect 9 0 10 0;
#X connect 9 1 5 0;
#X connect 10 0 11 0;
#X connect 11 0 25 0;
#X connect 11 1 2 0;
#X connect 12 0 10 1;
#X connect 13 0 2 1;
#X connect 14 0 7 0;
#X connect 15 0 8 0;
#X connect 16 0 15 0;
#X connect 17 0 8 0;
#X connect 17 1 20 0;
#X connect 18 0 7 0;
#X connect 19 0 27 0;
#X connect 20 0 19 0;
#X connect 20 1 27 1;
#X connect 21 0 16 1;
#X connect 21 0 17 0;
#X connect 21 0 28 0;
#X connect 23 0 6 1;
#X connect 24 0 1 1;
#X connect 25 0 0 0;
#X connect 26 0 8 0;
#X connect 27 0 26 0;
#X connect 28 0 29 0;
#X connect 29 0 30 0;
#X connect 30 0 18 0;
#X connect 31 0 32 1;
#X connect 32 0 33 0;
#X connect 33 0 0 0;
#X restore 476 289 pd nester11;
#N canvas 360 252 349 393 nester12 0;
#X obj 3 349 s \$0-tocount;
#X obj 135 247 f;
#X obj 35 258 random;
#X obj 10 128 moses 1;
#X msg 10 150 bang;
#X msg 135 225 bang;
#X obj 10 171 f;
#X obj 13 86 cup;
#X msg 22 59 0;
#X obj 10 192 route 0 1;
#X obj 9 213 f;
#X obj 10 235 route 0 1;
#X obj 75 179 r \$0-random;
#X obj 70 235 r \$0-step;
#X obj 15 22 inlet;
#X obj 64 80 del 0;
#X obj 66 56 sel 0;
#X obj 128 46 moses 1;
#X msg 223 140 1;
#X obj 169 94 f;
#X obj 170 73 t b f;
#X obj 118 19 r \$0-repsend12;
#X obj 71 114 s \$0-indicator12;
#X obj 63 141 r \$0-sendalws12;
#X obj 175 222 r \$0-jumpto12;
#X msg 7 257 13;
#X obj 175 120 >=;
#X obj 175 141 sel 1;
#X obj 215 79 clip 0 1;
#X obj 218 100 change;
#X obj 219 120 sel 1;
#X obj 95 279 r \$0-offsetted;
#X obj 34 282 +;
#X obj 27 312 % 16;
#X connect 1 0 0 0;
#X connect 2 0 32 0;
#X connect 3 0 4 0;
#X connect 3 1 5 0;
#X connect 4 0 6 0;
#X connect 5 0 1 0;
#X connect 6 0 9 0;
#X connect 7 0 3 0;
#X connect 7 0 16 0;
#X connect 7 0 19 1;
#X connect 7 0 22 0;
#X connect 8 0 7 0;
#X connect 9 0 10 0;
#X connect 9 1 5 0;
#X connect 10 0 11 0;
#X connect 11 0 25 0;
#X connect 11 1 2 0;
#X connect 12 0 10 1;
#X connect 13 0 2 1;
#X connect 14 0 7 0;
#X connect 15 0 8 0;
#X connect 16 0 15 0;
#X connect 17 0 8 0;
#X connect 17 1 20 0;
#X connect 18 0 7 0;
#X connect 19 0 26 0;
#X connect 20 0 19 0;
#X connect 20 1 26 1;
#X connect 21 0 16 1;
#X connect 21 0 17 0;
#X connect 21 0 28 0;
#X connect 23 0 6 1;
#X connect 24 0 1 1;
#X connect 25 0 0 0;
#X connect 26 0 27 0;
#X connect 27 0 8 0;
#X connect 28 0 29 0;
#X connect 29 0 30 0;
#X connect 30 0 18 0;
#X connect 31 0 32 1;
#X connect 32 0 33 0;
#X connect 33 0 0 0;
#X restore 492 313 pd nester12;
#N canvas 360 252 349 393 nester13 0;
#X obj 18 322 s \$0-tocount;
#X obj 135 247 f;
#X obj 35 258 random;
#X obj 10 128 moses 1;
#X msg 10 150 bang;
#X msg 135 225 bang;
#X obj 10 171 f;
#X obj 13 86 cup;
#X msg 22 59 0;
#X obj 10 192 route 0 1;
#X obj 9 213 f;
#X obj 10 235 route 0 1;
#X obj 75 179 r \$0-random;
#X obj 70 235 r \$0-step;
#X obj 15 22 inlet;
#X obj 64 80 del 0;
#X obj 66 56 sel 0;
#X obj 128 46 moses 1;
#X msg 227 141 1;
#X obj 169 94 f;
#X obj 170 73 t b f;
#X obj 118 19 r \$0-repsend13;
#X obj 71 114 s \$0-indicator13;
#X obj 63 141 r \$0-sendalws13;
#X obj 175 222 r \$0-jumpto13;
#X msg 7 257 14;
#X obj 175 120 >=;
#X obj 175 141 sel 1;
#X obj 214 80 clip 0 1;
#X obj 217 101 change;
#X obj 218 121 sel 1;
#X obj 100 270 r \$0-offsetted;
#X obj 36 280 +;
#X obj 29 300 % 16;
#X connect 1 0 0 0;
#X connect 2 0 32 0;
#X connect 3 0 4 0;
#X connect 3 1 5 0;
#X connect 4 0 6 0;
#X connect 5 0 1 0;
#X connect 6 0 9 0;
#X connect 7 0 3 0;
#X connect 7 0 16 0;
#X connect 7 0 19 1;
#X connect 7 0 22 0;
#X connect 8 0 7 0;
#X connect 9 0 10 0;
#X connect 9 1 5 0;
#X connect 10 0 11 0;
#X connect 11 0 25 0;
#X connect 11 1 2 0;
#X connect 12 0 10 1;
#X connect 13 0 2 1;
#X connect 14 0 7 0;
#X connect 15 0 8 0;
#X connect 16 0 15 0;
#X connect 17 0 8 0;
#X connect 17 1 20 0;
#X connect 18 0 7 0;
#X connect 19 0 26 0;
#X connect 20 0 19 0;
#X connect 20 1 26 1;
#X connect 21 0 16 1;
#X connect 21 0 17 0;
#X connect 21 0 28 0;
#X connect 23 0 6 1;
#X connect 24 0 1 1;
#X connect 25 0 0 0;
#X connect 26 0 27 0;
#X connect 27 0 8 0;
#X connect 28 0 29 0;
#X connect 29 0 30 0;
#X connect 30 0 18 0;
#X connect 31 0 32 1;
#X connect 32 0 33 0;
#X connect 33 0 0 0;
#X restore 511 337 pd nester13;
#N canvas 360 252 349 393 nester14 0;
#X obj 5 325 s \$0-tocount;
#X obj 135 247 f;
#X obj 35 258 random;
#X obj 10 128 moses 1;
#X msg 10 150 bang;
#X msg 135 225 bang;
#X obj 10 171 f;
#X obj 13 86 cup;
#X msg 22 59 0;
#X obj 10 192 route 0 1;
#X obj 9 213 f;
#X obj 10 235 route 0 1;
#X obj 75 179 r \$0-random;
#X obj 70 235 r \$0-step;
#X obj 15 22 inlet;
#X obj 64 80 del 0;
#X obj 66 56 sel 0;
#X obj 128 46 moses 1;
#X msg 227 144 1;
#X obj 169 94 f;
#X obj 170 73 t b f;
#X obj 118 19 r \$0-repsend14;
#X obj 71 114 s \$0-indicator14;
#X obj 63 141 r \$0-sendalws14;
#X obj 175 222 r \$0-jumpto14;
#X msg 7 257 15;
#X obj 175 120 >=;
#X obj 175 141 sel 1;
#X obj 220 76 clip 0 1;
#X obj 223 97 change;
#X obj 224 117 sel 1;
#X obj 100 269 r \$0-offsetted;
#X obj 39 280 +;
#X obj 29 302 % 16;
#X connect 1 0 0 0;
#X connect 2 0 32 0;
#X connect 3 0 4 0;
#X connect 3 1 5 0;
#X connect 4 0 6 0;
#X connect 5 0 1 0;
#X connect 6 0 9 0;
#X connect 7 0 3 0;
#X connect 7 0 16 0;
#X connect 7 0 19 1;
#X connect 7 0 22 0;
#X connect 8 0 7 0;
#X connect 9 0 10 0;
#X connect 9 1 5 0;
#X connect 10 0 11 0;
#X connect 11 0 25 0;
#X connect 11 1 2 0;
#X connect 12 0 10 1;
#X connect 13 0 2 1;
#X connect 14 0 7 0;
#X connect 15 0 8 0;
#X connect 16 0 15 0;
#X connect 17 0 8 0;
#X connect 17 1 20 0;
#X connect 18 0 7 0;
#X connect 19 0 26 0;
#X connect 20 0 19 0;
#X connect 20 1 26 1;
#X connect 21 0 16 1;
#X connect 21 0 17 0;
#X connect 21 0 28 0;
#X connect 23 0 6 1;
#X connect 24 0 1 1;
#X connect 25 0 0 0;
#X connect 26 0 27 0;
#X connect 27 0 8 0;
#X connect 28 0 29 0;
#X connect 29 0 30 0;
#X connect 30 0 18 0;
#X connect 31 0 32 1;
#X connect 32 0 33 0;
#X connect 33 0 0 0;
#X restore 528 366 pd nester14;
#N canvas 530 329 349 393 nester15 0;
#X obj 10 335 s \$0-tocount;
#X obj 135 247 f;
#X obj 35 258 random;
#X obj 10 128 moses 1;
#X msg 10 150 bang;
#X msg 135 225 bang;
#X obj 10 171 f;
#X obj 13 86 cup;
#X msg 22 59 0;
#X obj 10 192 route 0 1;
#X obj 9 213 f;
#X obj 10 235 route 0 1;
#X obj 75 179 r \$0-random;
#X obj 70 235 r \$0-step;
#X obj 15 22 inlet;
#X obj 64 80 del 0;
#X obj 66 56 sel 0;
#X obj 128 46 moses 1;
#X msg 238 152 1;
#X obj 169 94 f;
#X obj 170 73 t b f;
#X obj 118 19 r \$0-repsend15;
#X obj 71 114 s \$0-indicator15;
#X obj 63 141 r \$0-sendalws15;
#X obj 175 222 r \$0-jumpto15;
#X msg 7 257 0;
#X obj 175 120 >=;
#X obj 175 141 sel 1;
#X obj 230 86 clip 0 1;
#X obj 233 107 change;
#X obj 234 127 sel 1;
#X obj 81 277 r \$0-offsetted;
#X obj 38 276 +;
#X obj 33 300 % 16;
#X connect 1 0 0 0;
#X connect 2 0 32 0;
#X connect 3 0 4 0;
#X connect 3 1 5 0;
#X connect 4 0 6 0;
#X connect 5 0 1 0;
#X connect 6 0 9 0;
#X connect 7 0 3 0;
#X connect 7 0 16 0;
#X connect 7 0 19 1;
#X connect 7 0 22 0;
#X connect 8 0 7 0;
#X connect 9 0 10 0;
#X connect 9 1 5 0;
#X connect 10 0 11 0;
#X connect 11 0 25 0;
#X connect 11 1 2 0;
#X connect 12 0 10 1;
#X connect 13 0 2 1;
#X connect 14 0 7 0;
#X connect 15 0 8 0;
#X connect 16 0 15 0;
#X connect 17 0 8 0;
#X connect 17 1 20 0;
#X connect 18 0 7 0;
#X connect 19 0 26 0;
#X connect 20 0 19 0;
#X connect 20 1 26 1;
#X connect 21 0 16 1;
#X connect 21 0 17 0;
#X connect 21 0 28 0;
#X connect 23 0 6 1;
#X connect 24 0 1 1;
#X connect 25 0 0 0;
#X connect 26 0 27 0;
#X connect 27 0 8 0;
#X connect 28 0 29 0;
#X connect 29 0 30 0;
#X connect 30 0 18 0;
#X connect 31 0 32 1;
#X connect 32 0 33 0;
#X connect 33 0 0 0;
#X restore 545 264 pd nester15;
#N canvas 487 275 943 441 tempowriter 0;
#X obj 47 -918 r \$0-outtemp0;
#X obj 455 -555 tabwrite \$0-tempos;
#X obj 48 -895 t f b;
#X msg 74 -875 0;
#X obj 140 -893 t f b;
#X obj 139 -916 r \$0-outtemp1;
#X msg 166 -873 1;
#X obj 227 -892 t f b;
#X obj 226 -915 r \$0-outtemp2;
#X msg 253 -872 2;
#X obj 311 -890 t f b;
#X obj 403 -888 t f b;
#X obj 490 -887 t f b;
#X obj 310 -913 r \$0-outtemp3;
#X msg 337 -870 3;
#X msg 429 -868 4;
#X msg 516 -867 5;
#X obj 402 -911 r \$0-outtemp4;
#X obj 489 -910 r \$0-outtemp5;
#X obj 588 -811 t f b;
#X obj 675 -810 t f b;
#X obj 580 -889 t f b;
#X obj 672 -887 t f b;
#X obj 32 -821 t f b;
#X obj 116 -819 t f b;
#X obj 208 -817 t f b;
#X obj 295 -816 t f b;
#X obj 397 -817 t f b;
#X obj 494 -813 t f b;
#X obj 579 -912 r \$0-outtemp6;
#X obj 671 -910 r \$0-outtemp7;
#X obj 31 -844 r \$0-outtemp8;
#X obj 115 -842 r \$0-outtemp9;
#X obj 207 -840 r \$0-outtemp10;
#X obj 294 -839 r \$0-outtemp11;
#X obj 396 -840 r \$0-outtemp12;
#X obj 493 -836 r \$0-outtemp13;
#X obj 587 -834 r \$0-outtemp14;
#X obj 674 -833 r \$0-outtemp15;
#X msg 614 -791 14;
#X msg 701 -790 15;
#X msg 520 -793 13;
#X msg 423 -797 12;
#X msg 321 -796 11;
#X msg 234 -797 10;
#X msg 142 -799 9;
#X msg 58 -801 8;
#X msg 698 -867 7;
#X msg 606 -869 6;
#X connect 0 0 2 0;
#X connect 2 0 1 0;
#X connect 2 1 3 0;
#X connect 3 0 1 1;
#X connect 4 0 1 0;
#X connect 4 1 6 0;
#X connect 5 0 4 0;
#X connect 6 0 1 1;
#X connect 7 0 1 0;
#X connect 7 1 9 0;
#X connect 8 0 7 0;
#X connect 9 0 1 1;
#X connect 10 0 1 0;
#X connect 10 1 14 0;
#X connect 11 0 1 0;
#X connect 11 1 15 0;
#X connect 12 0 1 0;
#X connect 12 1 16 0;
#X connect 13 0 10 0;
#X connect 14 0 1 1;
#X connect 15 0 1 1;
#X connect 16 0 1 1;
#X connect 17 0 11 0;
#X connect 18 0 12 0;
#X connect 19 0 1 0;
#X connect 19 1 39 0;
#X connect 20 0 1 0;
#X connect 20 1 40 0;
#X connect 21 0 1 0;
#X connect 21 1 48 0;
#X connect 22 0 1 0;
#X connect 22 1 47 0;
#X connect 23 0 1 0;
#X connect 23 1 46 0;
#X connect 24 0 1 0;
#X connect 24 1 45 0;
#X connect 25 0 1 0;
#X connect 25 1 44 0;
#X connect 26 0 1 0;
#X connect 26 1 43 0;
#X connect 27 0 1 0;
#X connect 27 1 42 0;
#X connect 28 0 1 0;
#X connect 28 1 41 0;
#X connect 29 0 21 0;
#X connect 30 0 22 0;
#X connect 31 0 23 0;
#X connect 32 0 24 0;
#X connect 33 0 25 0;
#X connect 34 0 26 0;
#X connect 35 0 27 0;
#X connect 36 0 28 0;
#X connect 37 0 19 0;
#X connect 38 0 20 0;
#X connect 39 0 1 1;
#X connect 40 0 1 1;
#X connect 41 0 1 1;
#X connect 42 0 1 1;
#X connect 43 0 1 1;
#X connect 44 0 1 1;
#X connect 45 0 1 1;
#X connect 46 0 1 1;
#X connect 47 0 1 1;
#X connect 48 0 1 1;
#X restore 815 55 pd tempowriter;
#N canvas 303 400 943 441 repeatwriter 0;
#X obj 48 -895 t f b;
#X msg 74 -875 0;
#X obj 140 -893 t f b;
#X msg 166 -873 1;
#X obj 227 -892 t f b;
#X msg 253 -872 2;
#X obj 311 -890 t f b;
#X obj 403 -888 t f b;
#X obj 490 -887 t f b;
#X msg 337 -870 3;
#X msg 429 -868 4;
#X msg 516 -867 5;
#X obj 588 -811 t f b;
#X obj 675 -810 t f b;
#X obj 580 -889 t f b;
#X obj 672 -887 t f b;
#X obj 32 -821 t f b;
#X obj 116 -819 t f b;
#X obj 208 -817 t f b;
#X obj 295 -816 t f b;
#X obj 397 -817 t f b;
#X obj 494 -813 t f b;
#X msg 614 -791 14;
#X msg 701 -790 15;
#X msg 520 -793 13;
#X msg 423 -797 12;
#X msg 321 -796 11;
#X msg 234 -797 10;
#X msg 142 -799 9;
#X msg 58 -801 8;
#X msg 698 -867 7;
#X msg 606 -869 6;
#X obj 47 -918 r \$0-repsend0;
#X obj 139 -916 r \$0-repsend1;
#X obj 225 -912 r \$0-repsend2;
#X obj 310 -913 r \$0-repsend3;
#X obj 402 -911 r \$0-repsend4;
#X obj 489 -910 r \$0-repsend5;
#X obj 579 -912 r \$0-repsend6;
#X obj 671 -910 r \$0-repsend7;
#X obj 31 -844 r \$0-repsend8;
#X obj 115 -842 r \$0-repsend9;
#X obj 207 -840 r \$0-repsend10;
#X obj 294 -839 r \$0-repsend11;
#X obj 396 -840 r \$0-repsend12;
#X obj 493 -836 r \$0-repsend13;
#X obj 587 -834 r \$0-repsend14;
#X obj 678 -833 r \$0-repsend15;
#X obj 455 -555 tabwrite \$0-stepreps;
#X connect 0 0 48 0;
#X connect 0 1 1 0;
#X connect 1 0 48 1;
#X connect 2 0 48 0;
#X connect 2 1 3 0;
#X connect 3 0 48 1;
#X connect 4 0 48 0;
#X connect 4 1 5 0;
#X connect 5 0 48 1;
#X connect 6 0 48 0;
#X connect 6 1 9 0;
#X connect 7 0 48 0;
#X connect 7 1 10 0;
#X connect 8 0 48 0;
#X connect 8 1 11 0;
#X connect 9 0 48 1;
#X connect 10 0 48 1;
#X connect 11 0 48 1;
#X connect 12 0 48 0;
#X connect 12 1 22 0;
#X connect 13 0 48 0;
#X connect 13 1 23 0;
#X connect 14 0 48 0;
#X connect 14 1 31 0;
#X connect 15 0 48 0;
#X connect 15 1 30 0;
#X connect 16 0 48 0;
#X connect 16 1 29 0;
#X connect 17 0 48 0;
#X connect 17 1 28 0;
#X connect 18 0 48 0;
#X connect 18 1 27 0;
#X connect 19 0 48 0;
#X connect 19 1 26 0;
#X connect 20 0 48 0;
#X connect 20 1 25 0;
#X connect 21 0 48 0;
#X connect 21 1 24 0;
#X connect 22 0 48 1;
#X connect 23 0 48 1;
#X connect 24 0 48 1;
#X connect 25 0 48 1;
#X connect 26 0 48 1;
#X connect 27 0 48 1;
#X connect 28 0 48 1;
#X connect 29 0 48 1;
#X connect 30 0 48 1;
#X connect 31 0 48 1;
#X connect 32 0 0 0;
#X connect 33 0 2 0;
#X connect 34 0 4 0;
#X connect 35 0 6 0;
#X connect 36 0 7 0;
#X connect 37 0 8 0;
#X connect 38 0 14 0;
#X connect 39 0 15 0;
#X connect 40 0 16 0;
#X connect 41 0 17 0;
#X connect 42 0 18 0;
#X connect 43 0 19 0;
#X connect 44 0 20 0;
#X connect 45 0 21 0;
#X connect 46 0 12 0;
#X connect 47 0 13 0;
#X restore 909 57 pd repeatwriter;
#X obj 831 176 table \$0-stepreps 16;
#X obj 830 199 table \$0-current 16;
#N canvas 281 453 943 441 currentwriter 0;
#X obj 48 -895 t f b;
#X msg 74 -875 0;
#X obj 140 -893 t f b;
#X msg 166 -873 1;
#X obj 244 -896 t f b;
#X msg 270 -876 2;
#X obj 343 -895 t f b;
#X obj 443 -894 t f b;
#X obj 540 -894 t f b;
#X msg 369 -875 3;
#X msg 469 -874 4;
#X msg 566 -874 5;
#X obj 652 -812 t f b;
#X obj 757 -815 t f b;
#X obj 639 -894 t f b;
#X obj 753 -893 t f b;
#X obj 32 -821 t f b;
#X obj 132 -820 t f b;
#X obj 254 -815 t f b;
#X obj 337 -813 t f b;
#X obj 439 -814 t f b;
#X obj 546 -811 t f b;
#X msg 678 -792 14;
#X msg 783 -795 15;
#X msg 572 -791 13;
#X msg 465 -794 12;
#X msg 363 -793 11;
#X msg 280 -795 10;
#X msg 158 -800 9;
#X msg 58 -801 8;
#X msg 779 -873 7;
#X msg 665 -874 6;
#X obj 455 -555 tabwrite \$0-current;
#X obj 22 -916 r \$0-indicator0;
#X obj 139 -916 r \$0-indicator1;
#X obj 242 -916 r \$0-indicator2;
#X obj 342 -918 r \$0-indicator3;
#X obj 442 -917 r \$0-indicator4;
#X obj 539 -917 r \$0-indicator5;
#X obj 638 -917 r \$0-indicator6;
#X obj 752 -916 r \$0-indicator7;
#X obj 760 -838 r \$0-indicator15;
#X obj 651 -835 r \$0-indicator14;
#X obj 545 -834 r \$0-indicator13;
#X obj 438 -837 r \$0-indicator12;
#X obj 336 -836 r \$0-indicator11;
#X obj 230 -840 r \$0-indicator10;
#X obj 131 -843 r \$0-indicator9;
#X obj 31 -844 r \$0-indicator8;
#X connect 0 0 32 0;
#X connect 0 1 1 0;
#X connect 1 0 32 1;
#X connect 2 0 32 0;
#X connect 2 1 3 0;
#X connect 3 0 32 1;
#X connect 4 0 32 0;
#X connect 4 1 5 0;
#X connect 5 0 32 1;
#X connect 6 0 32 0;
#X connect 6 1 9 0;
#X connect 7 0 32 0;
#X connect 7 1 10 0;
#X connect 8 0 32 0;
#X connect 8 1 11 0;
#X connect 9 0 32 1;
#X connect 10 0 32 1;
#X connect 11 0 32 1;
#X connect 12 0 32 0;
#X connect 12 1 22 0;
#X connect 13 0 32 0;
#X connect 13 1 23 0;
#X connect 14 0 32 0;
#X connect 14 1 31 0;
#X connect 15 0 32 0;
#X connect 15 1 30 0;
#X connect 16 0 32 0;
#X connect 16 1 29 0;
#X connect 17 0 32 0;
#X connect 17 1 28 0;
#X connect 18 0 32 0;
#X connect 18 1 27 0;
#X connect 19 0 32 0;
#X connect 19 1 26 0;
#X connect 20 0 32 0;
#X connect 20 1 25 0;
#X connect 21 0 32 0;
#X connect 21 1 24 0;
#X connect 22 0 32 1;
#X connect 23 0 32 1;
#X connect 24 0 32 1;
#X connect 25 0 32 1;
#X connect 26 0 32 1;
#X connect 27 0 32 1;
#X connect 28 0 32 1;
#X connect 29 0 32 1;
#X connect 30 0 32 1;
#X connect 31 0 32 1;
#X connect 33 0 0 0;
#X connect 34 0 2 0;
#X connect 35 0 4 0;
#X connect 36 0 6 0;
#X connect 37 0 7 0;
#X connect 38 0 8 0;
#X connect 39 0 14 0;
#X connect 40 0 15 0;
#X connect 41 0 13 0;
#X connect 42 0 12 0;
#X connect 43 0 21 0;
#X connect 44 0 20 0;
#X connect 45 0 19 0;
#X connect 46 0 18 0;
#X connect 47 0 17 0;
#X connect 48 0 16 0;
#X restore 814 78 pd currentwriter;
#X obj 828 224 table \$0-neststeps 16;
#N canvas 57 344 943 441 nestwriter 0;
#X obj 48 -895 t f b;
#X msg 74 -875 0;
#X obj 140 -893 t f b;
#X msg 166 -873 1;
#X obj 244 -896 t f b;
#X msg 270 -876 2;
#X obj 343 -895 t f b;
#X obj 443 -894 t f b;
#X obj 540 -894 t f b;
#X msg 369 -875 3;
#X msg 469 -874 4;
#X msg 566 -874 5;
#X obj 652 -812 t f b;
#X obj 757 -815 t f b;
#X obj 639 -894 t f b;
#X obj 753 -893 t f b;
#X obj 32 -821 t f b;
#X obj 132 -820 t f b;
#X obj 254 -815 t f b;
#X obj 337 -813 t f b;
#X obj 439 -814 t f b;
#X obj 546 -811 t f b;
#X msg 678 -792 14;
#X msg 783 -795 15;
#X msg 572 -791 13;
#X msg 465 -794 12;
#X msg 363 -793 11;
#X msg 280 -795 10;
#X msg 158 -800 9;
#X msg 58 -801 8;
#X msg 779 -873 7;
#X msg 665 -874 6;
#X obj 22 -916 r \$0-jumpto0;
#X obj 139 -916 r \$0-jumpto1;
#X obj 242 -916 r \$0-jumpto2;
#X obj 342 -918 r \$0-jumpto3;
#X obj 442 -917 r \$0-jumpto4;
#X obj 539 -917 r \$0-jumpto5;
#X obj 638 -917 r \$0-jumpto6;
#X obj 752 -916 r \$0-jumpto7;
#X obj 760 -838 r \$0-jumpto15;
#X obj 651 -835 r \$0-jumpto14;
#X obj 545 -834 r \$0-jumpto13;
#X obj 438 -837 r \$0-jumpto12;
#X obj 336 -836 r \$0-jumpto11;
#X obj 230 -840 r \$0-jumpto10;
#X obj 131 -843 r \$0-jumpto9;
#X obj 31 -844 r \$0-jumpto8;
#X obj 455 -555 tabwrite \$0-neststeps;
#X connect 0 0 48 0;
#X connect 0 1 1 0;
#X connect 1 0 48 1;
#X connect 2 0 48 0;
#X connect 2 1 3 0;
#X connect 3 0 48 1;
#X connect 4 0 48 0;
#X connect 4 1 5 0;
#X connect 5 0 48 1;
#X connect 6 0 48 0;
#X connect 6 1 9 0;
#X connect 7 0 48 0;
#X connect 7 1 10 0;
#X connect 8 0 48 0;
#X connect 8 1 11 0;
#X connect 9 0 48 1;
#X connect 10 0 48 1;
#X connect 11 0 48 1;
#X connect 12 0 48 0;
#X connect 12 1 22 0;
#X connect 13 0 48 0;
#X connect 13 1 23 0;
#X connect 14 0 48 0;
#X connect 14 1 31 0;
#X connect 15 0 48 0;
#X connect 15 1 30 0;
#X connect 16 0 48 0;
#X connect 16 1 29 0;
#X connect 17 0 48 0;
#X connect 17 1 28 0;
#X connect 18 0 48 0;
#X connect 18 1 27 0;
#X connect 19 0 48 0;
#X connect 19 1 26 0;
#X connect 20 0 48 0;
#X connect 20 1 25 0;
#X connect 21 0 48 0;
#X connect 21 1 24 0;
#X connect 22 0 48 1;
#X connect 23 0 48 1;
#X connect 24 0 48 1;
#X connect 25 0 48 1;
#X connect 26 0 48 1;
#X connect 27 0 48 1;
#X connect 28 0 48 1;
#X connect 29 0 48 1;
#X connect 30 0 48 1;
#X connect 31 0 48 1;
#X connect 32 0 0 0;
#X connect 33 0 2 0;
#X connect 34 0 4 0;
#X connect 35 0 6 0;
#X connect 36 0 7 0;
#X connect 37 0 8 0;
#X connect 38 0 14 0;
#X connect 39 0 15 0;
#X connect 40 0 13 0;
#X connect 41 0 12 0;
#X connect 42 0 21 0;
#X connect 43 0 20 0;
#X connect 44 0 19 0;
#X connect 45 0 18 0;
#X connect 46 0 17 0;
#X connect 47 0 16 0;
#X restore 921 77 pd nestwriter;
#N canvas 283 254 1018 534 alwayswriter 0;
#X obj 48 -895 t f b;
#X msg 74 -875 0;
#X obj 140 -893 t f b;
#X msg 166 -873 1;
#X obj 244 -896 t f b;
#X msg 270 -876 2;
#X obj 343 -895 t f b;
#X obj 443 -894 t f b;
#X obj 540 -894 t f b;
#X msg 369 -875 3;
#X msg 469 -874 4;
#X msg 566 -874 5;
#X obj 652 -812 t f b;
#X obj 757 -815 t f b;
#X obj 639 -894 t f b;
#X obj 753 -893 t f b;
#X obj 32 -821 t f b;
#X obj 132 -820 t f b;
#X obj 254 -815 t f b;
#X obj 337 -813 t f b;
#X obj 439 -814 t f b;
#X obj 546 -811 t f b;
#X msg 678 -792 14;
#X msg 783 -795 15;
#X msg 572 -791 13;
#X msg 465 -794 12;
#X msg 363 -793 11;
#X msg 280 -795 10;
#X msg 158 -800 9;
#X msg 58 -801 8;
#X msg 779 -873 7;
#X msg 665 -874 6;
#X obj 419 -523 v \$0-totalws;
#X obj 22 -916 r \$0-sendalws0;
#X obj 139 -916 r \$0-sendalws1;
#X obj 242 -916 r \$0-sendalws2;
#X obj 342 -918 r \$0-sendalws3;
#X obj 442 -917 r \$0-sendalws4;
#X obj 539 -917 r \$0-sendalws5;
#X obj 638 -917 r \$0-sendalws6;
#X obj 752 -916 r \$0-sendalws7;
#X obj 760 -838 r \$0-sendalws15;
#X obj 651 -835 r \$0-sendalws14;
#X obj 545 -834 r \$0-sendalws13;
#X obj 438 -837 r \$0-sendalws12;
#X obj 336 -836 r \$0-sendalws11;
#X obj 230 -840 r \$0-sendalws10;
#X obj 131 -843 r \$0-sendalws9;
#X obj 31 -844 r \$0-sendalws8;
#X obj 420 -544 t b f;
#X obj 475 -741 pack;
#N canvas 663 22 450 300 1scomp 0;
#X obj 236 46 inlet;
#X obj 242 107 -;
#X msg 240 78 -1 \$1;
#X text 297 79 one's compliment;
#X obj 244 145 outlet;
#X connect 0 0 2 0;
#X connect 1 0 4 0;
#X connect 2 0 1 0;
#X restore 420 -566 pd 1scomp;
#X obj 477 -650 <<;
#X obj 479 -697 unpack f f;
#X msg 477 -671 1 \$1;
#X msg 478 -719 \$2 \$1;
#X obj 476 -627 list prepend;
#X obj 475 -604 route 0 1;
#X obj 442 -498 &;
#X obj 492 -548 v \$0-totalws;
#X obj 493 -569 t b f;
#X obj 515 -523 |;
#X connect 0 0 50 0;
#X connect 0 1 1 0;
#X connect 1 0 50 1;
#X connect 2 0 50 0;
#X connect 2 1 3 0;
#X connect 3 0 50 1;
#X connect 4 0 50 0;
#X connect 4 1 5 0;
#X connect 5 0 50 1;
#X connect 6 0 50 0;
#X connect 6 1 9 0;
#X connect 7 0 50 0;
#X connect 7 1 10 0;
#X connect 8 0 50 0;
#X connect 8 1 11 0;
#X connect 9 0 50 1;
#X connect 10 0 50 1;
#X connect 11 0 50 1;
#X connect 12 0 50 0;
#X connect 12 1 22 0;
#X connect 13 0 50 0;
#X connect 13 1 23 0;
#X connect 14 0 50 0;
#X connect 14 1 31 0;
#X connect 15 0 50 0;
#X connect 15 1 30 0;
#X connect 16 0 50 0;
#X connect 16 1 29 0;
#X connect 17 0 50 0;
#X connect 17 1 28 0;
#X connect 18 0 50 0;
#X connect 18 1 27 0;
#X connect 19 0 50 0;
#X connect 19 1 26 0;
#X connect 20 0 50 0;
#X connect 20 1 25 0;
#X connect 21 0 50 0;
#X connect 21 1 24 0;
#X connect 22 0 50 1;
#X connect 23 0 50 1;
#X connect 24 0 50 1;
#X connect 25 0 50 1;
#X connect 26 0 50 1;
#X connect 27 0 50 1;
#X connect 28 0 50 1;
#X connect 29 0 50 1;
#X connect 30 0 50 1;
#X connect 31 0 50 1;
#X connect 32 0 58 0;
#X connect 33 0 0 0;
#X connect 34 0 2 0;
#X connect 35 0 4 0;
#X connect 36 0 6 0;
#X connect 37 0 7 0;
#X connect 38 0 8 0;
#X connect 39 0 14 0;
#X connect 40 0 15 0;
#X connect 41 0 13 0;
#X connect 42 0 12 0;
#X connect 43 0 21 0;
#X connect 44 0 20 0;
#X connect 45 0 19 0;
#X connect 46 0 18 0;
#X connect 47 0 17 0;
#X connect 48 0 16 0;
#X connect 49 0 32 0;
#X connect 49 1 58 1;
#X connect 50 0 55 0;
#X connect 51 0 49 0;
#X connect 52 0 56 0;
#X connect 53 0 54 0;
#X connect 53 1 56 1;
#X connect 54 0 52 0;
#X connect 55 0 53 0;
#X connect 56 0 57 0;
#X connect 57 0 51 0;
#X connect 57 1 60 0;
#X connect 58 0 32 0;
#X connect 59 0 61 0;
#X connect 60 0 59 0;
#X connect 60 1 61 1;
#X connect 61 0 59 0;
#X restore 826 111 pd alwayswriter;
#X obj 908 -109 r globaltempotrigger;
#X obj 911 -83 v globaltempo;
#X connect 1 0 21 0;
#X connect 2 0 175 0;
#X connect 21 0 143 0;
#X connect 23 0 143 0;
#X connect 23 1 44 0;
#X connect 42 0 140 0;
#X connect 43 0 135 0;
#X connect 44 0 1 0;
#X connect 47 0 137 0;
#X connect 48 0 165 0;
#X connect 49 0 148 0;
#X connect 50 0 134 0;
#X connect 122 0 138 0;
#X connect 124 0 132 0;
#X connect 124 0 164 0;
#X connect 125 0 171 0;
#X connect 126 0 169 0;
#X connect 127 0 172 0;
#X connect 128 0 156 0;
#X connect 129 0 124 0;
#X connect 129 0 48 0;
#X connect 129 0 49 0;
#X connect 130 0 124 0;
#X connect 133 0 130 0;
#X connect 134 0 166 0;
#X connect 135 0 165 0;
#X connect 136 0 141 0;
#X connect 137 0 168 0;
#X connect 138 0 167 0;
#X connect 140 0 143 1;
#X connect 140 1 173 0;
#X connect 140 2 136 0;
#X connect 141 0 153 0;
#X connect 142 0 174 0;
#X connect 143 0 179 0;
#X connect 144 0 143 0;
#X connect 149 0 1 0;
#X connect 149 1 1 1;
#X connect 151 0 149 0;
#X connect 152 0 158 0;
#X connect 152 1 187 0;
#X connect 152 2 188 0;
#X connect 152 3 189 0;
#X connect 152 4 190 0;
#X connect 152 5 191 0;
#X connect 152 6 192 0;
#X connect 152 7 193 0;
#X connect 152 8 194 0;
#X connect 152 9 195 0;
#X connect 152 10 196 0;
#X connect 152 11 197 0;
#X connect 152 12 198 0;
#X connect 152 13 199 0;
#X connect 152 14 200 0;
#X connect 152 15 201 0;
#X connect 154 0 23 0;
#X connect 154 0 160 1;
#X connect 155 0 156 1;
#X connect 157 0 160 0;
#X connect 160 0 161 0;
#X connect 161 0 163 0;
#X connect 161 1 162 0;
#X connect 162 0 144 0;
#X connect 162 1 44 0;
#X connect 163 0 143 1;
#X connect 170 0 169 1;
#X connect 173 0 160 0;
#X connect 174 0 143 1;
#X connect 175 0 148 0;
#X connect 176 0 180 1;
#X connect 177 0 179 1;
#X connect 177 0 184 1;
#X connect 178 0 145 0;
#X connect 178 0 131 0;
#X connect 178 0 151 0;
#X connect 178 0 152 0;
#X connect 179 0 186 0;
#X connect 180 0 182 0;
#X connect 181 0 180 0;
#X connect 181 1 183 1;
#X connect 182 0 185 0;
#X connect 182 1 183 0;
#X connect 183 0 184 0;
#X connect 184 0 178 0;
#X connect 185 0 184 0;
#X connect 186 0 181 0;
#X connect 210 0 211 0;
#X connect 211 0 156 1;
#X coords 0 -1 1 1 580 114 2 200 100;
