#N canvas 246 23 1180 685 10;
#X obj 221 293 cnv 15 580 108 empty empty empty 20 12 0 14 -259649
-66577 0;
#X obj 166 546 del;
#X obj 546 161 inlet;
#X floatatom 626 295 5 1 16 1 steps #0-steplet #0-step, f 5;
#X floatatom 731 295 5 0 0 1 tempo #0-recglob #0-sendglob, f 5;
#X floatatom 225 326 5 0 0 2 --0- #0-intemp0 #0-outtemp0, f 5;
#X floatatom 261 326 5 0 0 2 --1- #0-intemp1 #0-outtemp1, f 5;
#X floatatom 297 326 5 0 0 2 --2- #0-intemp2 #0-outtemp2, f 5;
#X floatatom 333 326 5 0 0 2 --3- #0-intemp3 #0-outtemp3, f 5;
#X floatatom 369 326 5 0 0 2 --4- #0-intemp4 #0-outtemp4, f 5;
#X floatatom 405 326 5 0 0 2 --5- #0-intemp5 #0-outtemp5, f 5;
#X floatatom 441 326 5 0 0 2 --6- #0-intemp6 #0-outtemp6, f 5;
#X floatatom 477 326 5 0 0 2 --7- #0-intemp7 #0-outtemp7, f 5;
#X floatatom 513 326 5 0 0 2 --8- #0-intemp8 #0-outtemp8, f 5;
#X floatatom 549 326 5 0 0 2 --9- #0-intemp9 #0-outtemp9, f 5;
#X floatatom 585 326 5 0 0 2 --10- #00-intemp10 #0-outtemp10, f 5
;
#X floatatom 621 326 5 0 0 2 --11- #0-intemp11 #0-outtemp11, f 5;
#X floatatom 657 326 5 0 0 2 --12- #0-intemp12 #0-outtemp12, f 5;
#X floatatom 693 326 5 0 0 2 --13- #0-intemp13 #0-outtemp13, f 5;
#X floatatom 729 326 5 0 0 2 --14- #0-intemp14 #0-outtemp14, f 5;
#X floatatom 765 326 5 0 0 2 --15- #0-intemp15 #0-outtemp15, f 5;
#X msg 166 569 bang;
#X obj 335 295 tgl 15 0 \$0-started \$0-start start 17 7 0 10 -258113
-4034 -1 0 1;
#X obj 76 275 sel 1;
#X obj 33 74 inlet;
#X obj 388 145 inlet;
#X msg 132 523 stop;
#X obj 394 295 tgl 15 0 \$0-random \$0-randlet randomize 17 7 0 10
-258113 -3577 -1 0 1;
#X obj 220 150 inlet;
#X obj 304 153 inlet;
#X floatatom 469 295 5 0 15 1 offset #0-offset #0-offsetted, f 5;
#X floatatom 544 295 5 0 0 1 counter #0-counter #0-NOTHING, f 5;
#X floatatom 243 382 2 0 15 0 - #0-nest0 #0-jumpto0, f 2;
#X floatatom 226 382 2 0 99 0 - #0-repeat0 #0-repsend0, f 2;
#X floatatom 225 364 2 0 0 0 - #0-indicator0 #0-NOTHING, f 2;
#X floatatom 281 382 2 0 15 0 - #0-nest1 #0-jumpto1, f 2;
#X floatatom 261 382 2 0 99 0 - #0-repeat1 #0-repsend1, f 2;
#X floatatom 261 364 2 0 0 0 - #0-indicator1 #0-NOTHING, f 2;
#X floatatom 316 382 2 0 15 0 - #0-nest2 #0-jumpto2, f 2;
#X floatatom 299 382 2 0 99 0 - #0-repeat2 #0-repsend2, f 2;
#X floatatom 299 364 2 0 0 0 - #0-indicator2 #0-NOTHING, f 2;
#X floatatom 352 382 2 0 15 0 - #0-nest3 #0-jumpto3, f 2;
#X floatatom 335 382 2 0 99 0 - #0-repeat3 #0-repsend3, f 2;
#X floatatom 335 364 2 0 0 0 - #0-indicator3 #0-NOTHING, f 2;
#X floatatom 389 382 2 0 15 0 - #0-nest4 #0-jumpto4, f 2;
#X floatatom 371 382 2 0 99 0 - #0-repeat4 #0-repsend4, f 2;
#X floatatom 372 364 2 0 0 0 - #0-indicator4 #0-NOTHING, f 2;
#X floatatom 424 382 2 0 15 0 - #0-nest5 #0-jumpto5, f 2;
#X floatatom 407 382 2 0 99 0 - #0-repeat5 #0-repsend5, f 2;
#X floatatom 407 364 2 0 0 0 - #0-indicator5 #0-NOTHING, f 2;
#X floatatom 462 382 2 0 15 0 - #0-nest6 #0-jumpto6, f 2;
#X floatatom 443 382 2 0 99 0 - #0-repeat6 #0-repsend6, f 2;
#X floatatom 443 364 2 0 0 0 - #0-indicator6 #0-NOTHING, f 2;
#X floatatom 496 382 2 0 15 0 - #0-nest7 #0-jumpto7, f 2;
#X floatatom 479 382 2 0 99 0 - #0-repeat7 #0-repsend7, f 2;
#X floatatom 479 364 2 0 0 0 - #0-indicator7 #0-NOTHING, f 2;
#X floatatom 568 382 2 1 16 0 - #0-nest9 #0-jumpto9, f 2;
#X floatatom 551 382 2 0 99 0 - #0-repeat9 #0-repsend9, f 2;
#X floatatom 551 364 2 0 0 0 - #0-indicator9 #0-NOTHING, f 2;
#X floatatom 604 382 2 1 16 0 - #0-nest10 #0-jumpto10, f 2;
#X floatatom 587 382 2 0 99 0 - #0-repeat10 #0-repsend10, f 2;
#X floatatom 588 364 2 0 0 0 - #0-indicator10 #0-NOTHING, f 2;
#X floatatom 641 382 2 1 16 0 - #0-nest11 #0-jumpto11, f 2;
#X floatatom 623 382 2 0 99 0 - #0-repeat11 #0-repsend11, f 2;
#X floatatom 623 364 2 0 0 0 - #0-indicator11 #0-NOTHING, f 2;
#X floatatom 675 382 2 1 16 0 - #0-nest12 #0-jumpto12, f 2;
#X floatatom 658 382 2 0 99 0 - #0-repeat12 #0-repsend12, f 2;
#X floatatom 658 364 2 0 0 0 - #0-indicator12 #0-NOTHING, f 2;
#X floatatom 711 382 2 1 16 0 - #0-nest13 #0-jumpto13, f 2;
#X floatatom 694 382 2 0 99 0 - #0-repeat13 #0-repsend13, f 2;
#X floatatom 694 364 2 0 0 0 - #0-indicator13 #0-NOTHING, f 2;
#X floatatom 747 382 2 1 16 0 - #0-nest14 #0-jumpto14, f 2;
#X floatatom 729 382 2 0 99 0 - #0-repeat14 #0-repsend14, f 2;
#X floatatom 729 364 2 0 0 0 - #0-indicator14 #0-NOTHING, f 2;
#X floatatom 783 382 2 1 16 0 - #0-nest15 #0-jumpto15, f 2;
#X floatatom 765 382 2 0 99 0 - #0-repeat15 #0-repsend15, f 2;
#X floatatom 765 364 2 0 0 0 - #0-indicator15 #0-NOTHING, f 2;
#X floatatom 534 382 2 0 15 0 - #0-nest8 #0-jumpto8, f 2;
#X floatatom 516 382 2 0 99 0 - #0-repeat8 #0-repsend8, f 2;
#X floatatom 515 364 2 0 0 0 - #0-indicator8 #0-NOTHING, f 2;
#X obj 568 364 tgl 15 0 \$0-sendalws9 \$0-alws9 empty 17 7 0 10 -257985
-4160 -1 0 1;
#X obj 605 364 tgl 15 0 \$0-sendalws10 \$0-alws10 empty 17 7 0 10 -257985
-4032 -1 0 1;
#X obj 640 364 tgl 15 0 \$0-sendalws11 \$0-alws11 empty 17 7 0 10 -257985
-4032 -1 0 1;
#X obj 675 364 tgl 15 0 \$0-sendalws12 \$0-alws12 empty 17 7 0 10 -257985
-4160 -1 0 1;
#X obj 712 364 tgl 15 0 \$0-sendalws13 \$0-alws13 empty 17 7 0 10 -257985
-4160 -1 0 1;
#X obj 746 364 tgl 15 0 \$0-sendalws14 \$0-alws14 empty 17 7 0 10 -257985
-4160 -1 0 1;
#X obj 782 364 tgl 15 0 \$0-sendalws15 \$0-alws15 empty 17 7 0 10 -257985
-4032 -1 0 1;
#X obj 532 364 tgl 15 0 \$0-sendalws8 \$0-alws8 empty 17 7 0 10 -257985
-4032 -1 0 1;
#X obj 496 364 tgl 15 0 \$0-sendalws7 \$0-alws7 empty 17 7 0 10 -257985
-4032 -1 0 1;
#X obj 424 364 tgl 15 0 \$0-sendalws5 \$0-alws5 empty 17 7 0 10 -257985
-4032 -1 0 1;
#X obj 461 364 tgl 15 0 \$0-sendalws6 \$0-alws6 empty 17 7 0 10 -257985
-4160 -1 0 1;
#X obj 388 364 tgl 15 0 \$0-sendalws4 \$0-alws4 empty 17 -7 0 10 -257985
-4160 -1 0 1;
#X obj 316 364 tgl 15 0 \$0-sendalws2 \$0-alws2 clockwise_currentrepeat_always_steptojumpto_numbertojumpto
20 -12 0 12 -257985 -4160 -13381 0 1;
#X obj 280 364 tgl 15 0 \$0-sendalws1 \$0-alws1 empty 17 7 0 10 -257985
-4160 -1 0 1;
#X obj 352 364 tgl 15 0 \$0-sendalws3 \$0-alws3 empty 17 7 0 10 -257985
-4032 -1 0 1;
#X obj 242 364 tgl 15 0 \$0-sendalws0 \$0-alws0 empty 17 -7 0 10 -257985
-4032 -1 0 1;
#X obj 227 345 tgl 15 0 \$0-alllways \$0-allways always_on/off 17 7
0 10 -241351 -159808 -1 0 1;
#X obj 597 158 inlet;
#X floatatom 225 297 5 0 0 0 - #0-this #0-NOTHING, f 5;
#X obj 693 180 f \$0;
#X obj 797 16 r neststep-\$0;
#X obj 765 159 r nestalways-\$0;
#X obj 780 66 r nestrepeat-\$0;
#X obj 775 107 r tempo-\$0;
#X obj 490 98 loadbang;
#X obj 688 149 bang;
#X obj 28 498 outlet;
#X obj 683 257 outlet;
#X obj 689 125 inlet;
#X obj 306 185 clip 0 15;
#X obj 387 182 clip 1 16;
#X obj 125 126 clip 0 1;
#X obj 222 184 clip 0 1;
#X obj 597 182 clip 0 1;
#X obj 32 96 route next reset;
#X obj 124 152 change;
#X obj 118 248 r \$0-tocount;
#X obj 76 301 f;
#X msg 43 277 0;
#X obj 76 500 s \$0-counter;
#X obj 500 205 s \$0-recglob;
#X obj 166 523 t b f;
#X obj 851 347 table \$0-tempos 16;
#X obj 166 501 tabread \$0-tempos;
#X obj 324 430 route 0 1 2 3 4 5 6 7 8 9 10 11 12 13 14 15;
#X obj 126 176 s \$0-start;
#X obj 41 174 r \$0-started;
#X obj 841 109 r \$0-sendglob;
#N canvas 822 23 450 300 totempos 0;
#X obj 72 50 inlet;
#X obj 242 39 inlet;
#X obj 72 78 t l b;
#X msg 100 99 0;
#X obj 64 156 t f b;
#X obj 64 221 pack f f f;
#X obj 147 69 loadbang;
#X obj 149 111 f \$0;
#X msg 81 256 \; \$3-intemp\$2 \$1;
#X obj 231 137 list;
#X obj 279 159 list;
#X obj 279 135 t l l;
#X obj 223 69 t b b f;
#X msg 236 93 4;
#X obj 233 117 until;
#X obj 202 169 list;
#X obj 52 194 max 5;
#X obj 69 132 list-abs/list-drip;
#X obj 100 192 ekext/cup;
#X connect 0 0 2 0;
#X connect 1 0 12 0;
#X connect 2 0 17 0;
#X connect 2 1 3 0;
#X connect 3 0 18 0;
#X connect 4 0 16 0;
#X connect 4 1 18 0;
#X connect 5 0 8 0;
#X connect 6 0 7 0;
#X connect 7 0 5 2;
#X connect 9 0 11 0;
#X connect 10 0 9 1;
#X connect 10 0 15 1;
#X connect 11 0 10 0;
#X connect 11 1 10 1;
#X connect 12 0 15 0;
#X connect 12 1 13 0;
#X connect 12 2 9 1;
#X connect 13 0 14 0;
#X connect 14 0 9 0;
#X connect 15 0 2 0;
#X connect 16 0 5 0;
#X connect 17 0 4 0;
#X connect 18 0 5 1;
#X restore 782 133 pd totempos;
#X obj 31 119 r \$0-zero;
#N canvas 472 171 349 393 nester0 0;
#X obj 11 342 s \$0-tocount;
#X obj 135 247 f;
#X obj 35 258 random;
#X obj 10 128 moses 1;
#X msg 10 150 bang;
#X msg 135 225 bang;
#X obj 10 171 f;
#X obj 13 86 cup;
#X msg 22 59 0;
#X obj 10 192 route 0 1;
#X obj 9 213 f;
#X obj 10 235 route 0 1;
#X msg 7 257 1;
#X obj 75 179 r \$0-random;
#X obj 63 141 r \$0-sendalws0;
#X obj 70 235 r \$0-step;
#X obj 175 222 r \$0-jumpto0;
#X obj 15 22 inlet;
#X obj 64 80 del 0;
#X obj 132 14 r \$0-repsend0;
#X obj 71 114 s \$0-indicator0;
#X obj 66 56 sel 0;
#X obj 134 63 moses 1;
#X msg 221 119 1;
#X obj 175 107 f;
#X obj 176 86 t b f;
#X obj 181 154 sel 1;
#X obj 182 131 >=;
#X obj 213 56 clip 0 1;
#X obj 216 77 change;
#X obj 217 97 sel 1;
#X obj 101 275 r \$0-offsetted;
#X obj 32 292 +;
#X obj 32 315 % 16;
#X connect 1 0 0 0;
#X connect 2 0 32 0;
#X connect 3 0 4 0;
#X connect 3 1 5 0;
#X connect 4 0 6 0;
#X connect 5 0 1 0;
#X connect 6 0 9 0;
#X connect 7 0 3 0;
#X connect 7 0 20 0;
#X connect 7 0 21 0;
#X connect 7 0 24 1;
#X connect 8 0 7 0;
#X connect 9 0 10 0;
#X connect 9 1 5 0;
#X connect 10 0 11 0;
#X connect 11 0 12 0;
#X connect 11 1 2 0;
#X connect 12 0 0 0;
#X connect 13 0 10 1;
#X connect 14 0 6 1;
#X connect 15 0 2 1;
#X connect 16 0 1 1;
#X connect 17 0 7 0;
#X connect 18 0 8 0;
#X connect 19 0 21 1;
#X connect 19 0 22 0;
#X connect 19 0 28 0;
#X connect 21 0 18 0;
#X connect 22 0 8 0;
#X connect 22 1 25 0;
#X connect 23 0 7 0;
#X connect 24 0 27 0;
#X connect 25 0 24 0;
#X connect 25 1 27 1;
#X connect 26 0 8 0;
#X connect 27 0 26 0;
#X connect 28 0 29 0;
#X connect 29 0 30 0;
#X connect 30 0 23 0;
#X connect 31 0 32 1;
#X connect 32 0 33 0;
#X connect 33 0 0 0;
#X restore 323 456 pd nester0;
#X obj 286 295 bng 15 250 50 0 \$0-zero \$0-NOTHINGREC zero 17 7 0
10 -4034 -1 -1;
#X obj 26 198 f;
#X obj 25 221 sel 0 1;
#X obj 43 245 t b b;
#X msg 89 248 0;
#X obj 696 210 s \$0-this;
#X obj 386 207 s \$0-steplet;
#X obj 305 212 s \$0-offset;
#X obj 597 210 s \$0-allways;
#X obj 221 210 s \$0-randlet;
#N canvas 880 98 450 300 toalways 0;
#X obj 74 46 inlet;
#X obj 244 35 inlet;
#X obj 74 74 t l b;
#X msg 102 95 0;
#X obj 66 152 t f b;
#X obj 66 217 pack f f f;
#X obj 149 65 loadbang;
#X obj 151 107 f \$0;
#X obj 233 133 list;
#X obj 281 155 list;
#X obj 281 131 t l l;
#X obj 225 65 t b b f;
#X msg 238 89 4;
#X obj 235 113 until;
#X obj 204 165 list;
#X msg 83 252 \; \$3-alws\$2 \$1;
#X obj 71 128 list-abs/list-drip;
#X obj 102 188 ekext/cup;
#X connect 0 0 2 0;
#X connect 1 0 11 0;
#X connect 2 0 16 0;
#X connect 2 1 3 0;
#X connect 3 0 17 0;
#X connect 4 0 5 0;
#X connect 4 1 17 0;
#X connect 5 0 15 0;
#X connect 6 0 7 0;
#X connect 7 0 5 2;
#X connect 8 0 10 0;
#X connect 9 0 8 1;
#X connect 9 0 14 1;
#X connect 10 0 9 0;
#X connect 10 1 9 1;
#X connect 11 0 14 0;
#X connect 11 1 12 0;
#X connect 11 2 8 1;
#X connect 12 0 13 0;
#X connect 13 0 8 0;
#X connect 14 0 2 0;
#X connect 16 0 4 0;
#X connect 17 0 5 1;
#X restore 805 183 pd toalways;
#X obj 868 162 r \$0-alllways;
#N canvas 880 98 450 300 tostep 0;
#X obj 74 46 inlet;
#X obj 102 188 cup;
#X obj 74 74 t l b;
#X msg 102 95 0;
#X obj 66 152 t f b;
#X obj 66 217 pack f f f;
#X obj 233 14 loadbang;
#X obj 187 137 f \$0;
#X msg 83 252 \; \$3-nest\$2 \$1;
#X obj 239 54 t b b;
#X msg 168 81 1 2 3 4 5 6 7 8 9 10 11 12 13 14 15 0;
#X obj 71 128 list-abs/list-drip;
#X connect 0 0 2 0;
#X connect 1 0 5 1;
#X connect 2 0 11 0;
#X connect 2 1 3 0;
#X connect 3 0 1 0;
#X connect 4 0 5 0;
#X connect 4 1 1 0;
#X connect 5 0 8 0;
#X connect 6 0 9 0;
#X connect 7 0 5 2;
#X connect 9 0 10 0;
#X connect 9 1 7 0;
#X connect 10 0 2 0;
#X connect 11 0 4 0;
#X restore 794 40 pd tostep;
#N canvas 880 98 450 300 repeats 0;
#X obj 74 46 inlet;
#X obj 102 188 cup;
#X obj 74 74 t l b;
#X msg 102 95 0;
#X obj 66 152 t f b;
#X obj 66 217 pack f f f;
#X obj 192 90 loadbang;
#X obj 187 137 f \$0;
#X msg 83 252 \; \$3-repeat\$2 \$1;
#X obj 71 128 list-abs/list-drip;
#X connect 0 0 2 0;
#X connect 1 0 5 1;
#X connect 2 0 9 0;
#X connect 2 1 3 0;
#X connect 3 0 1 0;
#X connect 4 0 5 0;
#X connect 4 1 1 0;
#X connect 5 0 8 0;
#X connect 6 0 7 0;
#X connect 7 0 5 2;
#X connect 9 0 4 0;
#X restore 784 85 pd repeats;
#X obj 60 144 bang;
#X obj 118 274 clip 0 15;
#X obj 127 362 r \$0-step;
#X obj 120 299 r \$0-offsetted;
#X obj 95 473 % 16;
#X obj 75 321 -;
#X obj 77 383 >=;
#X obj 76 362 t f f;
#X obj 80 406 sel 1 0;
#X obj 100 429 f;
#X obj 96 451 +;
#X msg 67 431 0;
#X obj 74 341 mod 16;
#N canvas 360 252 349 393 nester1 0;
#X obj 19 335 s \$0-tocount;
#X obj 135 247 f;
#X obj 35 258 random;
#X obj 10 128 moses 1;
#X msg 10 150 bang;
#X msg 135 225 bang;
#X obj 10 171 f;
#X obj 13 86 cup;
#X msg 22 59 0;
#X obj 10 192 route 0 1;
#X obj 9 213 f;
#X obj 10 235 route 0 1;
#X obj 75 179 r \$0-random;
#X obj 70 235 r \$0-step;
#X obj 15 22 inlet;
#X obj 64 80 del 0;
#X obj 66 56 sel 0;
#X obj 128 46 moses 1;
#X msg 255 129 1;
#X obj 169 94 f;
#X obj 170 73 t b f;
#X obj 71 114 s \$0-indicator1;
#X obj 63 141 r \$0-sendalws1;
#X obj 175 222 r \$0-jumpto1;
#X obj 118 19 r \$0-repsend1;
#X msg 7 257 2;
#X obj 175 120 >=;
#X obj 175 141 sel 1;
#X obj 223 66 clip 0 1;
#X obj 226 87 change;
#X obj 227 107 sel 1;
#X obj 100 272 r \$0-offsetted;
#X obj 31 289 +;
#X obj 27 310 % 16;
#X connect 1 0 0 0;
#X connect 2 0 32 0;
#X connect 3 0 4 0;
#X connect 3 1 5 0;
#X connect 4 0 6 0;
#X connect 5 0 1 0;
#X connect 6 0 9 0;
#X connect 7 0 3 0;
#X connect 7 0 16 0;
#X connect 7 0 19 1;
#X connect 7 0 21 0;
#X connect 8 0 7 0;
#X connect 9 0 10 0;
#X connect 9 1 5 0;
#X connect 10 0 11 0;
#X connect 11 0 25 0;
#X connect 11 1 2 0;
#X connect 12 0 10 1;
#X connect 13 0 2 1;
#X connect 14 0 7 0;
#X connect 15 0 8 0;
#X connect 16 0 15 0;
#X connect 17 0 8 0;
#X connect 17 1 20 0;
#X connect 18 0 7 0;
#X connect 19 0 26 0;
#X connect 20 0 19 0;
#X connect 20 1 26 1;
#X connect 22 0 6 1;
#X connect 23 0 1 1;
#X connect 24 0 16 1;
#X connect 24 0 17 0;
#X connect 24 0 28 0;
#X connect 25 0 0 0;
#X connect 26 0 27 0;
#X connect 27 0 8 0;
#X connect 28 0 29 0;
#X connect 29 0 30 0;
#X connect 30 0 18 0;
#X connect 31 0 32 1;
#X connect 32 0 33 0;
#X connect 33 0 0 0;
#X restore 339 481 pd nester1;
#N canvas 360 252 349 393 nester2 0;
#X obj -1 342 s \$0-tocount;
#X obj 135 247 f;
#X obj 35 258 random;
#X obj 10 128 moses 1;
#X msg 10 150 bang;
#X msg 135 225 bang;
#X obj 10 171 f;
#X obj 13 86 cup;
#X msg 22 59 0;
#X obj 10 192 route 0 1;
#X obj 9 213 f;
#X obj 10 235 route 0 1;
#X obj 75 179 r \$0-random;
#X obj 70 235 r \$0-step;
#X obj 15 22 inlet;
#X obj 64 80 del 0;
#X obj 66 56 sel 0;
#X obj 128 46 moses 1;
#X msg 240 143 1;
#X obj 169 94 f;
#X obj 170 73 t b f;
#X obj 118 19 r \$0-repsend2;
#X obj 71 114 s \$0-indicator2;
#X obj 63 141 r \$0-sendalws2;
#X obj 175 222 r \$0-jumpto2;
#X msg 7 257 3;
#X obj 175 120 >=;
#X obj 176 140 sel 1;
#X obj 233 76 clip 0 1;
#X obj 236 97 change;
#X obj 237 117 sel 1;
#X obj 97 277 r \$0-offsetted;
#X obj 28 294 +;
#X obj 28 318 % 16;
#X connect 1 0 0 0;
#X connect 2 0 32 0;
#X connect 3 0 4 0;
#X connect 3 1 5 0;
#X connect 4 0 6 0;
#X connect 5 0 1 0;
#X connect 6 0 9 0;
#X connect 7 0 3 0;
#X connect 7 0 16 0;
#X connect 7 0 19 1;
#X connect 7 0 22 0;
#X connect 8 0 7 0;
#X connect 9 0 10 0;
#X connect 9 1 5 0;
#X connect 10 0 11 0;
#X connect 11 0 25 0;
#X connect 11 1 2 0;
#X connect 12 0 10 1;
#X connect 13 0 2 1;
#X connect 14 0 7 0;
#X connect 15 0 8 0;
#X connect 16 0 15 0;
#X connect 17 0 8 0;
#X connect 17 1 20 0;
#X connect 18 0 7 0;
#X connect 19 0 26 0;
#X connect 20 0 19 0;
#X connect 20 1 26 1;
#X connect 21 0 16 1;
#X connect 21 0 17 0;
#X connect 21 0 28 0;
#X connect 23 0 6 1;
#X connect 24 0 1 1;
#X connect 25 0 0 0;
#X connect 26 0 27 0;
#X connect 27 0 8 0;
#X connect 28 0 29 0;
#X connect 29 0 30 0;
#X connect 30 0 18 0;
#X connect 31 0 32 1;
#X connect 32 0 33 0;
#X connect 33 0 0 0;
#X restore 355 505 pd nester2;
#N canvas 360 252 349 393 nester3 0;
#X obj 4 335 s \$0-tocount;
#X obj 135 247 f;
#X obj 35 258 random;
#X obj 10 128 moses 1;
#X msg 10 150 bang;
#X msg 135 225 bang;
#X obj 10 171 f;
#X obj 13 86 cup;
#X msg 22 59 0;
#X obj 10 192 route 0 1;
#X obj 9 213 f;
#X obj 10 235 route 0 1;
#X obj 75 179 r \$0-random;
#X obj 70 235 r \$0-step;
#X obj 15 22 inlet;
#X obj 64 80 del 0;
#X obj 66 56 sel 0;
#X obj 128 46 moses 1;
#X msg 249 154 1;
#X obj 169 94 f;
#X obj 170 73 t b f;
#X obj 118 19 r \$0-repsend3;
#X obj 71 114 s \$0-indicator3;
#X obj 63 141 r \$0-sendalws3;
#X obj 175 222 r \$0-jumpto3;
#X msg 7 257 4;
#X obj 175 120 >=;
#X obj 175 141 sel 1;
#X obj 243 86 clip 0 1;
#X obj 246 107 change;
#X obj 247 127 sel 1;
#X obj 100 272 r \$0-offsetted;
#X obj 31 289 +;
#X obj 20 313 % 16;
#X connect 1 0 0 0;
#X connect 2 0 32 0;
#X connect 3 0 4 0;
#X connect 3 1 5 0;
#X connect 4 0 6 0;
#X connect 5 0 1 0;
#X connect 6 0 9 0;
#X connect 7 0 3 0;
#X connect 7 0 16 0;
#X connect 7 0 19 1;
#X connect 7 0 22 0;
#X connect 8 0 7 0;
#X connect 9 0 10 0;
#X connect 9 1 5 0;
#X connect 10 0 11 0;
#X connect 11 0 25 0;
#X connect 11 1 2 0;
#X connect 12 0 10 1;
#X connect 13 0 2 1;
#X connect 14 0 7 0;
#X connect 15 0 8 0;
#X connect 16 0 15 0;
#X connect 17 0 8 0;
#X connect 17 1 20 0;
#X connect 18 0 7 0;
#X connect 19 0 26 0;
#X connect 20 0 19 0;
#X connect 20 1 26 1;
#X connect 21 0 16 1;
#X connect 21 0 17 0;
#X connect 21 0 28 0;
#X connect 23 0 6 1;
#X connect 24 0 1 1;
#X connect 25 0 0 0;
#X connect 26 0 27 0;
#X connect 27 0 8 0;
#X connect 28 0 29 0;
#X connect 29 0 30 0;
#X connect 30 0 18 0;
#X connect 31 0 32 1;
#X connect 32 0 33 0;
#X connect 33 0 0 0;
#X restore 374 529 pd nester3;
#N canvas 360 252 349 393 nester4 0;
#X obj 4 340 s \$0-tocount;
#X obj 135 247 f;
#X obj 35 258 random;
#X obj 10 128 moses 1;
#X msg 10 150 bang;
#X msg 135 225 bang;
#X obj 10 171 f;
#X obj 13 86 cup;
#X msg 22 59 0;
#X obj 10 192 route 0 1;
#X obj 9 213 f;
#X obj 10 235 route 0 1;
#X obj 75 179 r \$0-random;
#X obj 70 235 r \$0-step;
#X obj 15 22 inlet;
#X obj 64 80 del 0;
#X obj 66 56 sel 0;
#X obj 128 46 moses 1;
#X msg 264 155 1;
#X obj 169 94 f;
#X obj 170 73 t b f;
#X obj 71 114 s \$0-indicator4;
#X obj 118 19 r \$0-repsend4;
#X obj 63 141 r \$0-sendalws4;
#X obj 175 222 r \$0-jumpto4;
#X msg 7 257 5;
#X obj 175 141 sel 1;
#X obj 175 120 >=;
#X obj 253 96 clip 0 1;
#X obj 256 117 change;
#X obj 257 137 sel 1;
#X obj 100 277 r \$0-offsetted;
#X obj 31 294 +;
#X obj 20 316 % 16;
#X connect 1 0 0 0;
#X connect 2 0 32 0;
#X connect 3 0 4 0;
#X connect 3 1 5 0;
#X connect 4 0 6 0;
#X connect 5 0 1 0;
#X connect 6 0 9 0;
#X connect 7 0 3 0;
#X connect 7 0 16 0;
#X connect 7 0 19 1;
#X connect 7 0 21 0;
#X connect 8 0 7 0;
#X connect 9 0 10 0;
#X connect 9 1 5 0;
#X connect 10 0 11 0;
#X connect 11 0 25 0;
#X connect 11 1 2 0;
#X connect 12 0 10 1;
#X connect 13 0 2 1;
#X connect 14 0 7 0;
#X connect 15 0 8 0;
#X connect 16 0 15 0;
#X connect 17 0 8 0;
#X connect 17 1 20 0;
#X connect 18 0 7 0;
#X connect 19 0 27 0;
#X connect 20 0 19 0;
#X connect 20 1 27 1;
#X connect 22 0 16 1;
#X connect 22 0 17 0;
#X connect 22 0 28 0;
#X connect 23 0 6 1;
#X connect 24 0 1 1;
#X connect 25 0 0 0;
#X connect 26 0 8 0;
#X connect 27 0 26 0;
#X connect 28 0 29 0;
#X connect 29 0 30 0;
#X connect 30 0 18 0;
#X connect 31 0 32 1;
#X connect 32 0 33 0;
#X connect 33 0 0 0;
#X restore 391 558 pd nester4;
#N canvas 360 252 349 393 nester5 0;
#X obj -3 345 s \$0-tocount;
#X obj 135 247 f;
#X obj 35 258 random;
#X obj 10 128 moses 1;
#X msg 10 150 bang;
#X msg 135 225 bang;
#X obj 10 171 f;
#X obj 13 86 cup;
#X msg 22 59 0;
#X obj 10 192 route 0 1;
#X obj 9 213 f;
#X obj 10 235 route 0 1;
#X obj 75 179 r \$0-random;
#X obj 70 235 r \$0-step;
#X obj 15 22 inlet;
#X obj 64 80 del 0;
#X obj 66 56 sel 0;
#X obj 128 46 moses 1;
#X msg 273 173 1;
#X obj 169 94 f;
#X obj 170 73 t b f;
#X obj 118 19 r \$0-repsend5;
#X obj 71 114 s \$0-indicator5;
#X obj 63 141 r \$0-sendalws5;
#X obj 175 222 r \$0-jumpto5;
#X msg 7 257 6;
#X obj 175 120 >=;
#X obj 175 141 sel 1;
#X obj 263 106 clip 0 1;
#X obj 266 127 change;
#X obj 267 147 sel 1;
#X obj 99 283 r \$0-offsetted;
#X obj 30 282 +;
#X obj 11 314 % 16;
#X connect 1 0 0 0;
#X connect 2 0 32 0;
#X connect 3 0 4 0;
#X connect 3 1 5 0;
#X connect 4 0 6 0;
#X connect 5 0 1 0;
#X connect 6 0 9 0;
#X connect 7 0 3 0;
#X connect 7 0 16 0;
#X connect 7 0 19 1;
#X connect 7 0 22 0;
#X connect 8 0 7 0;
#X connect 9 0 10 0;
#X connect 9 1 5 0;
#X connect 10 0 11 0;
#X connect 11 0 25 0;
#X connect 11 1 2 0;
#X connect 12 0 10 1;
#X connect 13 0 2 1;
#X connect 14 0 7 0;
#X connect 15 0 8 0;
#X connect 16 0 15 0;
#X connect 17 0 8 0;
#X connect 17 1 20 0;
#X connect 18 0 7 0;
#X connect 19 0 26 0;
#X connect 20 0 19 0;
#X connect 20 1 26 1;
#X connect 21 0 16 1;
#X connect 21 0 17 0;
#X connect 21 0 28 0;
#X connect 23 0 6 1;
#X connect 24 0 1 1;
#X connect 25 0 0 0;
#X connect 26 0 27 0;
#X connect 27 0 8 0;
#X connect 28 0 29 0;
#X connect 29 0 30 0;
#X connect 30 0 18 0;
#X connect 31 0 32 1;
#X connect 32 0 33 0;
#X connect 33 0 0 0;
#X restore 404 453 pd nester5;
#N canvas 360 252 349 393 nester6 0;
#X obj 6 339 s \$0-tocount;
#X obj 135 247 f;
#X obj 35 258 random;
#X obj 10 128 moses 1;
#X msg 10 150 bang;
#X msg 135 225 bang;
#X obj 10 171 f;
#X obj 13 86 cup;
#X msg 22 59 0;
#X obj 10 192 route 0 1;
#X obj 9 213 f;
#X obj 10 235 route 0 1;
#X obj 75 179 r \$0-random;
#X obj 70 235 r \$0-step;
#X obj 15 22 inlet;
#X obj 64 80 del 0;
#X obj 66 56 sel 0;
#X obj 128 46 moses 1;
#X msg 231 152 1;
#X obj 169 94 f;
#X obj 170 73 t b f;
#X obj 118 19 r \$0-repsend6;
#X obj 71 114 s \$0-indicator6;
#X obj 63 141 r \$0-sendalws6;
#X obj 175 222 r \$0-jumpto6;
#X msg 7 257 7;
#X obj 175 120 >=;
#X obj 175 141 sel 1;
#X obj 223 84 clip 0 1;
#X obj 226 105 change;
#X obj 227 125 sel 1;
#X obj 97 277 r \$0-offsetted;
#X obj 28 294 +;
#X obj 21 317 % 16;
#X connect 1 0 0 0;
#X connect 2 0 32 0;
#X connect 3 0 4 0;
#X connect 3 1 5 0;
#X connect 4 0 6 0;
#X connect 5 0 1 0;
#X connect 6 0 9 0;
#X connect 7 0 3 0;
#X connect 7 0 16 0;
#X connect 7 0 19 1;
#X connect 7 0 22 0;
#X connect 8 0 7 0;
#X connect 9 0 10 0;
#X connect 9 1 5 0;
#X connect 10 0 11 0;
#X connect 11 0 25 0;
#X connect 11 1 2 0;
#X connect 12 0 10 1;
#X connect 13 0 2 1;
#X connect 14 0 7 0;
#X connect 15 0 8 0;
#X connect 16 0 15 0;
#X connect 17 0 8 0;
#X connect 17 1 20 0;
#X connect 18 0 7 0;
#X connect 19 0 26 0;
#X connect 20 0 19 0;
#X connect 20 1 26 1;
#X connect 21 0 16 1;
#X connect 21 0 17 0;
#X connect 21 0 28 0;
#X connect 23 0 6 1;
#X connect 24 0 1 1;
#X connect 25 0 0 0;
#X connect 26 0 27 0;
#X connect 27 0 8 0;
#X connect 28 0 29 0;
#X connect 29 0 30 0;
#X connect 30 0 18 0;
#X connect 31 0 32 1;
#X connect 32 0 33 0;
#X connect 33 0 0 0;
#X restore 420 478 pd nester6;
#N canvas 360 252 349 393 nester7 0;
#X obj 11 337 s \$0-tocount;
#X obj 135 247 f;
#X obj 35 258 random;
#X obj 10 128 moses 1;
#X msg 10 150 bang;
#X msg 135 225 bang;
#X obj 10 171 f;
#X obj 13 86 cup;
#X msg 22 59 0;
#X obj 10 192 route 0 1;
#X obj 9 213 f;
#X obj 10 235 route 0 1;
#X obj 75 179 r \$0-random;
#X obj 70 235 r \$0-step;
#X obj 15 22 inlet;
#X obj 64 80 del 0;
#X obj 66 56 sel 0;
#X obj 128 46 moses 1;
#X msg 245 159 1;
#X obj 168 90 f;
#X obj 168 66 t b f;
#X obj 118 19 r \$0-repsend7;
#X obj 71 114 s \$0-indicator7;
#X obj 63 141 r \$0-sendalws7;
#X obj 175 222 r \$0-jumpto7;
#X msg 7 257 8;
#X obj 171 110 >=;
#X obj 233 94 clip 0 1;
#X obj 236 115 change;
#X obj 237 135 sel 1;
#X obj 169 133 sel 1;
#X obj 100 276 r \$0-offsetted;
#X obj 38 280 +;
#X obj 27 307 % 16;
#X connect 1 0 0 0;
#X connect 2 0 32 0;
#X connect 3 0 4 0;
#X connect 3 1 5 0;
#X connect 4 0 6 0;
#X connect 5 0 1 0;
#X connect 6 0 9 0;
#X connect 7 0 3 0;
#X connect 7 0 16 0;
#X connect 7 0 19 1;
#X connect 7 0 22 0;
#X connect 8 0 7 0;
#X connect 9 0 10 0;
#X connect 9 1 5 0;
#X connect 10 0 11 0;
#X connect 11 0 25 0;
#X connect 11 1 2 0;
#X connect 12 0 10 1;
#X connect 13 0 2 1;
#X connect 14 0 7 0;
#X connect 15 0 8 0;
#X connect 16 0 15 0;
#X connect 17 0 8 0;
#X connect 17 1 20 0;
#X connect 18 0 7 0;
#X connect 19 0 26 0;
#X connect 20 0 19 0;
#X connect 20 1 26 1;
#X connect 21 0 16 1;
#X connect 21 0 17 0;
#X connect 21 0 27 0;
#X connect 23 0 6 1;
#X connect 24 0 1 1;
#X connect 25 0 0 0;
#X connect 26 0 30 0;
#X connect 27 0 28 0;
#X connect 28 0 29 0;
#X connect 29 0 18 0;
#X connect 30 0 8 0;
#X connect 31 0 32 1;
#X connect 32 0 33 0;
#X connect 33 0 0 0;
#X restore 436 502 pd nester7;
#N canvas 691 137 349 393 nester8 0;
#X obj 14 336 s \$0-tocount;
#X obj 135 247 f;
#X obj 35 258 random;
#X obj 10 128 moses 1;
#X msg 10 150 bang;
#X msg 135 225 bang;
#X obj 10 171 f;
#X obj 13 86 cup;
#X msg 22 59 0;
#X obj 10 192 route 0 1;
#X obj 9 213 f;
#X obj 10 235 route 0 1;
#X obj 75 179 r \$0-random;
#X obj 70 235 r \$0-step;
#X obj 15 22 inlet;
#X obj 64 80 del 0;
#X obj 66 56 sel 0;
#X obj 128 46 moses 1;
#X msg 234 155 1;
#X obj 169 94 f;
#X obj 170 73 t b f;
#X obj 118 19 r \$0-repsend8;
#X obj 71 114 s \$0-indicator8;
#X obj 63 141 r \$0-sendalws8;
#X obj 175 222 r \$0-jumpto8;
#X msg 7 257 9;
#X obj 175 120 >=;
#X obj 175 141 sel 1;
#X obj 228 87 clip 0 1;
#X obj 231 108 change;
#X obj 232 128 sel 1;
#X obj 110 286 r \$0-offsetted;
#X obj 38 282 +;
#X obj 36 306 % 16;
#X connect 1 0 0 0;
#X connect 2 0 32 0;
#X connect 3 0 4 0;
#X connect 3 1 5 0;
#X connect 4 0 6 0;
#X connect 5 0 1 0;
#X connect 6 0 9 0;
#X connect 7 0 3 0;
#X connect 7 0 16 0;
#X connect 7 0 19 1;
#X connect 7 0 22 0;
#X connect 8 0 7 0;
#X connect 9 0 10 0;
#X connect 9 1 5 0;
#X connect 10 0 11 0;
#X connect 11 0 25 0;
#X connect 11 1 2 0;
#X connect 12 0 10 1;
#X connect 13 0 2 1;
#X connect 14 0 7 0;
#X connect 15 0 8 0;
#X connect 16 0 15 0;
#X connect 17 0 8 0;
#X connect 17 1 20 0;
#X connect 18 0 7 0;
#X connect 19 0 26 0;
#X connect 20 0 19 0;
#X connect 20 1 26 1;
#X connect 21 0 16 1;
#X connect 21 0 17 0;
#X connect 21 0 28 0;
#X connect 23 0 6 1;
#X connect 24 0 1 1;
#X connect 25 0 0 0;
#X connect 26 0 27 0;
#X connect 27 0 8 0;
#X connect 28 0 29 0;
#X connect 29 0 30 0;
#X connect 30 0 18 0;
#X connect 31 0 32 1;
#X connect 32 0 33 0;
#X connect 33 0 0 0;
#X restore 455 526 pd nester8;
#N canvas 360 252 349 393 nester9 0;
#X obj 13 323 s \$0-tocount;
#X obj 135 247 f;
#X obj 35 258 random;
#X obj 10 128 moses 1;
#X msg 10 150 bang;
#X msg 135 225 bang;
#X obj 10 171 f;
#X obj 13 86 cup;
#X msg 22 59 0;
#X obj 10 192 route 0 1;
#X obj 9 213 f;
#X obj 10 235 route 0 1;
#X obj 75 179 r \$0-random;
#X obj 70 235 r \$0-step;
#X obj 15 22 inlet;
#X obj 64 80 del 0;
#X obj 66 56 sel 0;
#X obj 128 46 moses 1;
#X msg 221 151 1;
#X obj 169 94 f;
#X obj 170 73 t b f;
#X obj 118 19 r \$0-repsend9;
#X obj 71 114 s \$0-indicator9;
#X obj 63 141 r \$0-sendalws9;
#X obj 175 222 r \$0-jumpto9;
#X msg 7 257 10;
#X obj 175 120 >=;
#X obj 175 141 sel 1;
#X obj 219 86 clip 0 1;
#X obj 222 107 change;
#X obj 223 127 sel 1;
#X obj 96 272 r \$0-offsetted;
#X obj 34 280 +;
#X obj 30 300 % 16;
#X connect 1 0 0 0;
#X connect 2 0 32 0;
#X connect 3 0 4 0;
#X connect 3 1 5 0;
#X connect 4 0 6 0;
#X connect 5 0 1 0;
#X connect 6 0 9 0;
#X connect 7 0 3 0;
#X connect 7 0 16 0;
#X connect 7 0 19 1;
#X connect 7 0 22 0;
#X connect 8 0 7 0;
#X connect 9 0 10 0;
#X connect 9 1 5 0;
#X connect 10 0 11 0;
#X connect 11 0 25 0;
#X connect 11 1 2 0;
#X connect 12 0 10 1;
#X connect 13 0 2 1;
#X connect 14 0 7 0;
#X connect 15 0 8 0;
#X connect 16 0 15 0;
#X connect 17 0 8 0;
#X connect 17 1 20 0;
#X connect 18 0 7 0;
#X connect 19 0 26 0;
#X connect 20 0 19 0;
#X connect 20 1 26 1;
#X connect 21 0 16 1;
#X connect 21 0 17 0;
#X connect 21 0 28 0;
#X connect 23 0 6 1;
#X connect 24 0 1 1;
#X connect 25 0 0 0;
#X connect 26 0 27 0;
#X connect 27 0 8 0;
#X connect 28 0 29 0;
#X connect 29 0 30 0;
#X connect 30 0 18 0;
#X connect 31 0 32 1;
#X connect 32 0 33 0;
#X connect 33 0 0 0;
#X restore 472 555 pd nester9;
#N canvas 360 252 349 393 nester10 0;
#X obj 15 334 s \$0-tocount;
#X obj 135 247 f;
#X obj 35 258 random;
#X obj 10 128 moses 1;
#X msg 10 150 bang;
#X msg 135 225 bang;
#X obj 10 171 f;
#X obj 13 86 cup;
#X msg 22 59 0;
#X obj 10 192 route 0 1;
#X obj 9 213 f;
#X obj 10 235 route 0 1;
#X obj 75 179 r \$0-random;
#X obj 70 235 r \$0-step;
#X obj 15 22 inlet;
#X obj 64 80 del 0;
#X obj 66 56 sel 0;
#X obj 128 46 moses 1;
#X msg 227 139 1;
#X obj 169 94 f;
#X obj 170 73 t b f;
#X obj 118 19 r \$0-repsend10;
#X obj 71 114 s \$0-indicator10;
#X obj 63 141 r \$0-sendalws10;
#X obj 175 222 r \$0-jumpto10;
#X msg 7 257 11;
#X obj 175 120 >=;
#X obj 175 141 sel 1;
#X obj 220 73 clip 0 1;
#X obj 223 94 change;
#X obj 224 114 sel 1;
#X obj 94 281 r \$0-offsetted;
#X obj 37 283 +;
#X obj 40 310 % 16;
#X connect 1 0 0 0;
#X connect 2 0 32 0;
#X connect 3 0 4 0;
#X connect 3 1 5 0;
#X connect 4 0 6 0;
#X connect 5 0 1 0;
#X connect 6 0 9 0;
#X connect 7 0 3 0;
#X connect 7 0 16 0;
#X connect 7 0 19 1;
#X connect 7 0 22 0;
#X connect 8 0 7 0;
#X connect 9 0 10 0;
#X connect 9 1 5 0;
#X connect 10 0 11 0;
#X connect 11 0 25 0;
#X connect 11 1 2 0;
#X connect 12 0 10 1;
#X connect 13 0 2 1;
#X connect 14 0 7 0;
#X connect 15 0 8 0;
#X connect 16 0 15 0;
#X connect 17 0 8 0;
#X connect 17 1 20 0;
#X connect 18 0 7 0;
#X connect 19 0 26 0;
#X connect 20 0 19 0;
#X connect 20 1 26 1;
#X connect 21 0 16 1;
#X connect 21 0 17 0;
#X connect 21 0 28 0;
#X connect 23 0 6 1;
#X connect 24 0 1 1;
#X connect 25 0 0 0;
#X connect 26 0 27 0;
#X connect 27 0 8 0;
#X connect 28 0 29 0;
#X connect 29 0 30 0;
#X connect 30 0 18 0;
#X connect 31 0 32 1;
#X connect 32 0 33 0;
#X connect 33 0 0 0;
#X restore 481 454 pd nester10;
#N canvas 360 252 349 393 nester11 0;
#X obj 12 337 s \$0-tocount;
#X obj 135 247 f;
#X obj 35 258 random;
#X obj 10 128 moses 1;
#X msg 10 150 bang;
#X msg 135 225 bang;
#X obj 10 171 f;
#X obj 13 86 cup;
#X msg 22 59 0;
#X obj 10 192 route 0 1;
#X obj 9 213 f;
#X obj 10 235 route 0 1;
#X obj 75 179 r \$0-random;
#X obj 70 235 r \$0-step;
#X obj 15 22 inlet;
#X obj 64 80 del 0;
#X obj 66 56 sel 0;
#X obj 128 46 moses 1;
#X msg 239 148 1;
#X obj 169 94 f;
#X obj 170 73 t b f;
#X obj 118 19 r \$0-repsend11;
#X obj 71 114 s \$0-indicator11;
#X obj 63 141 r \$0-sendalws11;
#X obj 175 222 r \$0-jumpto11;
#X msg 7 257 12;
#X obj 175 141 sel 1;
#X obj 175 120 >=;
#X obj 230 83 clip 0 1;
#X obj 233 104 change;
#X obj 234 124 sel 1;
#X obj 102 275 r \$0-offsetted;
#X obj 33 284 +;
#X obj 27 305 % 16;
#X connect 1 0 0 0;
#X connect 2 0 32 0;
#X connect 3 0 4 0;
#X connect 3 1 5 0;
#X connect 4 0 6 0;
#X connect 5 0 1 0;
#X connect 6 0 9 0;
#X connect 7 0 3 0;
#X connect 7 0 16 0;
#X connect 7 0 19 1;
#X connect 7 0 22 0;
#X connect 8 0 7 0;
#X connect 9 0 10 0;
#X connect 9 1 5 0;
#X connect 10 0 11 0;
#X connect 11 0 25 0;
#X connect 11 1 2 0;
#X connect 12 0 10 1;
#X connect 13 0 2 1;
#X connect 14 0 7 0;
#X connect 15 0 8 0;
#X connect 16 0 15 0;
#X connect 17 0 8 0;
#X connect 17 1 20 0;
#X connect 18 0 7 0;
#X connect 19 0 27 0;
#X connect 20 0 19 0;
#X connect 20 1 27 1;
#X connect 21 0 16 1;
#X connect 21 0 17 0;
#X connect 21 0 28 0;
#X connect 23 0 6 1;
#X connect 24 0 1 1;
#X connect 25 0 0 0;
#X connect 26 0 8 0;
#X connect 27 0 26 0;
#X connect 28 0 29 0;
#X connect 29 0 30 0;
#X connect 30 0 18 0;
#X connect 31 0 32 1;
#X connect 32 0 33 0;
#X connect 33 0 0 0;
#X restore 497 479 pd nester11;
#N canvas 360 252 349 393 nester12 0;
#X obj 3 349 s \$0-tocount;
#X obj 135 247 f;
#X obj 35 258 random;
#X obj 10 128 moses 1;
#X msg 10 150 bang;
#X msg 135 225 bang;
#X obj 10 171 f;
#X obj 13 86 cup;
#X msg 22 59 0;
#X obj 10 192 route 0 1;
#X obj 9 213 f;
#X obj 10 235 route 0 1;
#X obj 75 179 r \$0-random;
#X obj 70 235 r \$0-step;
#X obj 15 22 inlet;
#X obj 64 80 del 0;
#X obj 66 56 sel 0;
#X obj 128 46 moses 1;
#X msg 223 140 1;
#X obj 169 94 f;
#X obj 170 73 t b f;
#X obj 118 19 r \$0-repsend12;
#X obj 71 114 s \$0-indicator12;
#X obj 63 141 r \$0-sendalws12;
#X obj 175 222 r \$0-jumpto12;
#X msg 7 257 13;
#X obj 175 120 >=;
#X obj 175 141 sel 1;
#X obj 215 79 clip 0 1;
#X obj 218 100 change;
#X obj 219 120 sel 1;
#X obj 95 279 r \$0-offsetted;
#X obj 34 282 +;
#X obj 27 312 % 16;
#X connect 1 0 0 0;
#X connect 2 0 32 0;
#X connect 3 0 4 0;
#X connect 3 1 5 0;
#X connect 4 0 6 0;
#X connect 5 0 1 0;
#X connect 6 0 9 0;
#X connect 7 0 3 0;
#X connect 7 0 16 0;
#X connect 7 0 19 1;
#X connect 7 0 22 0;
#X connect 8 0 7 0;
#X connect 9 0 10 0;
#X connect 9 1 5 0;
#X connect 10 0 11 0;
#X connect 11 0 25 0;
#X connect 11 1 2 0;
#X connect 12 0 10 1;
#X connect 13 0 2 1;
#X connect 14 0 7 0;
#X connect 15 0 8 0;
#X connect 16 0 15 0;
#X connect 17 0 8 0;
#X connect 17 1 20 0;
#X connect 18 0 7 0;
#X connect 19 0 26 0;
#X connect 20 0 19 0;
#X connect 20 1 26 1;
#X connect 21 0 16 1;
#X connect 21 0 17 0;
#X connect 21 0 28 0;
#X connect 23 0 6 1;
#X connect 24 0 1 1;
#X connect 25 0 0 0;
#X connect 26 0 27 0;
#X connect 27 0 8 0;
#X connect 28 0 29 0;
#X connect 29 0 30 0;
#X connect 30 0 18 0;
#X connect 31 0 32 1;
#X connect 32 0 33 0;
#X connect 33 0 0 0;
#X restore 513 503 pd nester12;
#N canvas 360 252 349 393 nester13 0;
#X obj 18 322 s \$0-tocount;
#X obj 135 247 f;
#X obj 35 258 random;
#X obj 10 128 moses 1;
#X msg 10 150 bang;
#X msg 135 225 bang;
#X obj 10 171 f;
#X obj 13 86 cup;
#X msg 22 59 0;
#X obj 10 192 route 0 1;
#X obj 9 213 f;
#X obj 10 235 route 0 1;
#X obj 75 179 r \$0-random;
#X obj 70 235 r \$0-step;
#X obj 15 22 inlet;
#X obj 64 80 del 0;
#X obj 66 56 sel 0;
#X obj 128 46 moses 1;
#X msg 227 141 1;
#X obj 169 94 f;
#X obj 170 73 t b f;
#X obj 118 19 r \$0-repsend13;
#X obj 71 114 s \$0-indicator13;
#X obj 63 141 r \$0-sendalws13;
#X obj 175 222 r \$0-jumpto13;
#X msg 7 257 14;
#X obj 175 120 >=;
#X obj 175 141 sel 1;
#X obj 214 80 clip 0 1;
#X obj 217 101 change;
#X obj 218 121 sel 1;
#X obj 100 270 r \$0-offsetted;
#X obj 36 280 +;
#X obj 29 300 % 16;
#X connect 1 0 0 0;
#X connect 2 0 32 0;
#X connect 3 0 4 0;
#X connect 3 1 5 0;
#X connect 4 0 6 0;
#X connect 5 0 1 0;
#X connect 6 0 9 0;
#X connect 7 0 3 0;
#X connect 7 0 16 0;
#X connect 7 0 19 1;
#X connect 7 0 22 0;
#X connect 8 0 7 0;
#X connect 9 0 10 0;
#X connect 9 1 5 0;
#X connect 10 0 11 0;
#X connect 11 0 25 0;
#X connect 11 1 2 0;
#X connect 12 0 10 1;
#X connect 13 0 2 1;
#X connect 14 0 7 0;
#X connect 15 0 8 0;
#X connect 16 0 15 0;
#X connect 17 0 8 0;
#X connect 17 1 20 0;
#X connect 18 0 7 0;
#X connect 19 0 26 0;
#X connect 20 0 19 0;
#X connect 20 1 26 1;
#X connect 21 0 16 1;
#X connect 21 0 17 0;
#X connect 21 0 28 0;
#X connect 23 0 6 1;
#X connect 24 0 1 1;
#X connect 25 0 0 0;
#X connect 26 0 27 0;
#X connect 27 0 8 0;
#X connect 28 0 29 0;
#X connect 29 0 30 0;
#X connect 30 0 18 0;
#X connect 31 0 32 1;
#X connect 32 0 33 0;
#X connect 33 0 0 0;
#X restore 532 527 pd nester13;
#N canvas 360 252 349 393 nester14 0;
#X obj 5 325 s \$0-tocount;
#X obj 135 247 f;
#X obj 35 258 random;
#X obj 10 128 moses 1;
#X msg 10 150 bang;
#X msg 135 225 bang;
#X obj 10 171 f;
#X obj 13 86 cup;
#X msg 22 59 0;
#X obj 10 192 route 0 1;
#X obj 9 213 f;
#X obj 10 235 route 0 1;
#X obj 75 179 r \$0-random;
#X obj 70 235 r \$0-step;
#X obj 15 22 inlet;
#X obj 64 80 del 0;
#X obj 66 56 sel 0;
#X obj 128 46 moses 1;
#X msg 227 144 1;
#X obj 169 94 f;
#X obj 170 73 t b f;
#X obj 118 19 r \$0-repsend14;
#X obj 71 114 s \$0-indicator14;
#X obj 63 141 r \$0-sendalws14;
#X obj 175 222 r \$0-jumpto14;
#X msg 7 257 15;
#X obj 175 120 >=;
#X obj 175 141 sel 1;
#X obj 220 76 clip 0 1;
#X obj 223 97 change;
#X obj 224 117 sel 1;
#X obj 100 269 r \$0-offsetted;
#X obj 39 280 +;
#X obj 29 302 % 16;
#X connect 1 0 0 0;
#X connect 2 0 32 0;
#X connect 3 0 4 0;
#X connect 3 1 5 0;
#X connect 4 0 6 0;
#X connect 5 0 1 0;
#X connect 6 0 9 0;
#X connect 7 0 3 0;
#X connect 7 0 16 0;
#X connect 7 0 19 1;
#X connect 7 0 22 0;
#X connect 8 0 7 0;
#X connect 9 0 10 0;
#X connect 9 1 5 0;
#X connect 10 0 11 0;
#X connect 11 0 25 0;
#X connect 11 1 2 0;
#X connect 12 0 10 1;
#X connect 13 0 2 1;
#X connect 14 0 7 0;
#X connect 15 0 8 0;
#X connect 16 0 15 0;
#X connect 17 0 8 0;
#X connect 17 1 20 0;
#X connect 18 0 7 0;
#X connect 19 0 26 0;
#X connect 20 0 19 0;
#X connect 20 1 26 1;
#X connect 21 0 16 1;
#X connect 21 0 17 0;
#X connect 21 0 28 0;
#X connect 23 0 6 1;
#X connect 24 0 1 1;
#X connect 25 0 0 0;
#X connect 26 0 27 0;
#X connect 27 0 8 0;
#X connect 28 0 29 0;
#X connect 29 0 30 0;
#X connect 30 0 18 0;
#X connect 31 0 32 1;
#X connect 32 0 33 0;
#X connect 33 0 0 0;
#X restore 549 556 pd nester14;
#N canvas 530 329 349 393 nester15 0;
#X obj 10 335 s \$0-tocount;
#X obj 135 247 f;
#X obj 35 258 random;
#X obj 10 128 moses 1;
#X msg 10 150 bang;
#X msg 135 225 bang;
#X obj 10 171 f;
#X obj 13 86 cup;
#X msg 22 59 0;
#X obj 10 192 route 0 1;
#X obj 9 213 f;
#X obj 10 235 route 0 1;
#X obj 75 179 r \$0-random;
#X obj 70 235 r \$0-step;
#X obj 15 22 inlet;
#X obj 64 80 del 0;
#X obj 66 56 sel 0;
#X obj 128 46 moses 1;
#X msg 238 152 1;
#X obj 169 94 f;
#X obj 170 73 t b f;
#X obj 118 19 r \$0-repsend15;
#X obj 71 114 s \$0-indicator15;
#X obj 63 141 r \$0-sendalws15;
#X obj 175 222 r \$0-jumpto15;
#X msg 7 257 0;
#X obj 175 120 >=;
#X obj 175 141 sel 1;
#X obj 230 86 clip 0 1;
#X obj 233 107 change;
#X obj 234 127 sel 1;
#X obj 81 277 r \$0-offsetted;
#X obj 38 276 +;
#X obj 33 300 % 16;
#X connect 1 0 0 0;
#X connect 2 0 32 0;
#X connect 3 0 4 0;
#X connect 3 1 5 0;
#X connect 4 0 6 0;
#X connect 5 0 1 0;
#X connect 6 0 9 0;
#X connect 7 0 3 0;
#X connect 7 0 16 0;
#X connect 7 0 19 1;
#X connect 7 0 22 0;
#X connect 8 0 7 0;
#X connect 9 0 10 0;
#X connect 9 1 5 0;
#X connect 10 0 11 0;
#X connect 11 0 25 0;
#X connect 11 1 2 0;
#X connect 12 0 10 1;
#X connect 13 0 2 1;
#X connect 14 0 7 0;
#X connect 15 0 8 0;
#X connect 16 0 15 0;
#X connect 17 0 8 0;
#X connect 17 1 20 0;
#X connect 18 0 7 0;
#X connect 19 0 26 0;
#X connect 20 0 19 0;
#X connect 20 1 26 1;
#X connect 21 0 16 1;
#X connect 21 0 17 0;
#X connect 21 0 28 0;
#X connect 23 0 6 1;
#X connect 24 0 1 1;
#X connect 25 0 0 0;
#X connect 26 0 27 0;
#X connect 27 0 8 0;
#X connect 28 0 29 0;
#X connect 29 0 30 0;
#X connect 30 0 18 0;
#X connect 31 0 32 1;
#X connect 32 0 33 0;
#X connect 33 0 0 0;
#X restore 566 454 pd nester15;
#N canvas 258 300 943 441 tempowriter 0;
#X obj 47 42 r \$0-outtemp0;
#X obj 455 405 tabwrite \$0-tempos;
#X obj 48 65 t f b;
#X msg 74 85 0;
#X obj 140 67 t f b;
#X obj 139 44 r \$0-outtemp1;
#X msg 166 87 1;
#X obj 227 68 t f b;
#X obj 226 45 r \$0-outtemp2;
#X msg 253 88 2;
#X obj 311 70 t f b;
#X obj 403 72 t f b;
#X obj 490 73 t f b;
#X obj 310 47 r \$0-outtemp3;
#X msg 337 90 3;
#X msg 429 92 4;
#X msg 516 93 5;
#X obj 402 49 r \$0-outtemp4;
#X obj 489 50 r \$0-outtemp5;
#X obj 588 149 t f b;
#X obj 675 150 t f b;
#X obj 580 71 t f b;
#X obj 672 73 t f b;
#X obj 32 139 t f b;
#X obj 116 141 t f b;
#X obj 208 143 t f b;
#X obj 295 144 t f b;
#X obj 397 143 t f b;
#X obj 494 147 t f b;
#X obj 579 48 r \$0-outtemp6;
#X obj 671 50 r \$0-outtemp7;
#X obj 31 116 r \$0-outtemp8;
#X obj 115 118 r \$0-outtemp9;
#X obj 207 120 r \$0-outtemp10;
#X obj 294 121 r \$0-outtemp11;
#X obj 396 120 r \$0-outtemp12;
#X obj 493 124 r \$0-outtemp13;
#X obj 587 126 r \$0-outtemp14;
#X obj 674 127 r \$0-outtemp15;
#X msg 614 169 14;
#X msg 701 170 15;
#X msg 520 167 13;
#X msg 423 163 12;
#X msg 321 164 11;
#X msg 234 163 10;
#X msg 142 161 9;
#X msg 58 159 8;
#X msg 698 93 7;
#X msg 606 91 6;
#X connect 0 0 2 0;
#X connect 2 0 1 0;
#X connect 2 1 3 0;
#X connect 3 0 1 1;
#X connect 4 0 1 0;
#X connect 4 1 6 0;
#X connect 5 0 4 0;
#X connect 6 0 1 1;
#X connect 7 0 1 0;
#X connect 7 1 9 0;
#X connect 8 0 7 0;
#X connect 9 0 1 1;
#X connect 10 0 1 0;
#X connect 10 1 14 0;
#X connect 11 0 1 0;
#X connect 11 1 15 0;
#X connect 12 0 1 0;
#X connect 12 1 16 0;
#X connect 13 0 10 0;
#X connect 14 0 1 1;
#X connect 15 0 1 1;
#X connect 16 0 1 1;
#X connect 17 0 11 0;
#X connect 18 0 12 0;
#X connect 19 0 1 0;
#X connect 19 1 39 0;
#X connect 20 0 1 0;
#X connect 20 1 40 0;
#X connect 21 0 1 0;
#X connect 21 1 48 0;
#X connect 22 0 1 0;
#X connect 22 1 47 0;
#X connect 23 0 1 0;
#X connect 23 1 46 0;
#X connect 24 0 1 0;
#X connect 24 1 45 0;
#X connect 25 0 1 0;
#X connect 25 1 44 0;
#X connect 26 0 1 0;
#X connect 26 1 43 0;
#X connect 27 0 1 0;
#X connect 27 1 42 0;
#X connect 28 0 1 0;
#X connect 28 1 41 0;
#X connect 29 0 21 0;
#X connect 30 0 22 0;
#X connect 31 0 23 0;
#X connect 32 0 24 0;
#X connect 33 0 25 0;
#X connect 34 0 26 0;
#X connect 35 0 27 0;
#X connect 36 0 28 0;
#X connect 37 0 19 0;
#X connect 38 0 20 0;
#X connect 39 0 1 1;
#X connect 40 0 1 1;
#X connect 41 0 1 1;
#X connect 42 0 1 1;
#X connect 43 0 1 1;
#X connect 44 0 1 1;
#X connect 45 0 1 1;
#X connect 46 0 1 1;
#X connect 47 0 1 1;
#X connect 48 0 1 1;
#X restore 836 245 pd tempowriter;
#N canvas 303 400 943 441 repeatwriter 0;
#X obj 48 65 t f b;
#X msg 74 85 0;
#X obj 140 67 t f b;
#X msg 166 87 1;
#X obj 227 68 t f b;
#X msg 253 88 2;
#X obj 311 70 t f b;
#X obj 403 72 t f b;
#X obj 490 73 t f b;
#X msg 337 90 3;
#X msg 429 92 4;
#X msg 516 93 5;
#X obj 588 149 t f b;
#X obj 675 150 t f b;
#X obj 580 71 t f b;
#X obj 672 73 t f b;
#X obj 32 139 t f b;
#X obj 116 141 t f b;
#X obj 208 143 t f b;
#X obj 295 144 t f b;
#X obj 397 143 t f b;
#X obj 494 147 t f b;
#X msg 614 169 14;
#X msg 701 170 15;
#X msg 520 167 13;
#X msg 423 163 12;
#X msg 321 164 11;
#X msg 234 163 10;
#X msg 142 161 9;
#X msg 58 159 8;
#X msg 698 93 7;
#X msg 606 91 6;
#X obj 47 42 r \$0-repsend0;
#X obj 139 44 r \$0-repsend1;
#X obj 225 48 r \$0-repsend2;
#X obj 310 47 r \$0-repsend3;
#X obj 402 49 r \$0-repsend4;
#X obj 489 50 r \$0-repsend5;
#X obj 579 48 r \$0-repsend6;
#X obj 671 50 r \$0-repsend7;
#X obj 31 116 r \$0-repsend8;
#X obj 115 118 r \$0-repsend9;
#X obj 207 120 r \$0-repsend10;
#X obj 294 121 r \$0-repsend11;
#X obj 396 120 r \$0-repsend12;
#X obj 493 124 r \$0-repsend13;
#X obj 587 126 r \$0-repsend14;
#X obj 678 127 r \$0-repsend15;
#X obj 455 405 tabwrite \$0-stepreps;
#X connect 0 0 48 0;
#X connect 0 1 1 0;
#X connect 1 0 48 1;
#X connect 2 0 48 0;
#X connect 2 1 3 0;
#X connect 3 0 48 1;
#X connect 4 0 48 0;
#X connect 4 1 5 0;
#X connect 5 0 48 1;
#X connect 6 0 48 0;
#X connect 6 1 9 0;
#X connect 7 0 48 0;
#X connect 7 1 10 0;
#X connect 8 0 48 0;
#X connect 8 1 11 0;
#X connect 9 0 48 1;
#X connect 10 0 48 1;
#X connect 11 0 48 1;
#X connect 12 0 48 0;
#X connect 12 1 22 0;
#X connect 13 0 48 0;
#X connect 13 1 23 0;
#X connect 14 0 48 0;
#X connect 14 1 31 0;
#X connect 15 0 48 0;
#X connect 15 1 30 0;
#X connect 16 0 48 0;
#X connect 16 1 29 0;
#X connect 17 0 48 0;
#X connect 17 1 28 0;
#X connect 18 0 48 0;
#X connect 18 1 27 0;
#X connect 19 0 48 0;
#X connect 19 1 26 0;
#X connect 20 0 48 0;
#X connect 20 1 25 0;
#X connect 21 0 48 0;
#X connect 21 1 24 0;
#X connect 22 0 48 1;
#X connect 23 0 48 1;
#X connect 24 0 48 1;
#X connect 25 0 48 1;
#X connect 26 0 48 1;
#X connect 27 0 48 1;
#X connect 28 0 48 1;
#X connect 29 0 48 1;
#X connect 30 0 48 1;
#X connect 31 0 48 1;
#X connect 32 0 0 0;
#X connect 33 0 2 0;
#X connect 34 0 4 0;
#X connect 35 0 6 0;
#X connect 36 0 7 0;
#X connect 37 0 8 0;
#X connect 38 0 14 0;
#X connect 39 0 15 0;
#X connect 40 0 16 0;
#X connect 41 0 17 0;
#X connect 42 0 18 0;
#X connect 43 0 19 0;
#X connect 44 0 20 0;
#X connect 45 0 21 0;
#X connect 46 0 12 0;
#X connect 47 0 13 0;
#X restore 930 247 pd repeatwriter;
#X obj 852 366 table \$0-stepreps 16;
#X obj 851 389 table \$0-current 16;
#N canvas 259 199 943 441 currentwriter 0;
#X obj 48 75 t f b;
#X msg 74 95 0;
#X obj 140 77 t f b;
#X msg 166 97 1;
#X obj 244 74 t f b;
#X msg 270 94 2;
#X obj 343 75 t f b;
#X obj 443 76 t f b;
#X obj 540 76 t f b;
#X msg 369 95 3;
#X msg 469 96 4;
#X msg 566 96 5;
#X obj 652 158 t f b;
#X obj 757 155 t f b;
#X obj 639 76 t f b;
#X obj 753 77 t f b;
#X obj 32 149 t f b;
#X obj 132 150 t f b;
#X obj 254 155 t f b;
#X obj 337 157 t f b;
#X obj 439 156 t f b;
#X obj 546 159 t f b;
#X msg 678 178 14;
#X msg 783 175 15;
#X msg 572 179 13;
#X msg 465 176 12;
#X msg 363 177 11;
#X msg 280 175 10;
#X msg 158 170 9;
#X msg 58 169 8;
#X msg 779 97 7;
#X msg 665 96 6;
#X obj 455 415 tabwrite \$0-current;
#X obj 22 54 r \$0-indicator0;
#X obj 139 54 r \$0-indicator1;
#X obj 242 54 r \$0-indicator2;
#X obj 342 52 r \$0-indicator3;
#X obj 442 53 r \$0-indicator4;
#X obj 539 53 r \$0-indicator5;
#X obj 638 53 r \$0-indicator6;
#X obj 752 54 r \$0-indicator7;
#X obj 760 132 r \$0-indicator15;
#X obj 651 135 r \$0-indicator14;
#X obj 545 136 r \$0-indicator13;
#X obj 438 133 r \$0-indicator12;
#X obj 336 134 r \$0-indicator11;
#X obj 230 130 r \$0-indicator10;
#X obj 131 127 r \$0-indicator9;
#X obj 31 126 r \$0-indicator8;
#X connect 0 0 32 0;
#X connect 0 1 1 0;
#X connect 1 0 32 1;
#X connect 2 0 32 0;
#X connect 2 1 3 0;
#X connect 3 0 32 1;
#X connect 4 0 32 0;
#X connect 4 1 5 0;
#X connect 5 0 32 1;
#X connect 6 0 32 0;
#X connect 6 1 9 0;
#X connect 7 0 32 0;
#X connect 7 1 10 0;
#X connect 8 0 32 0;
#X connect 8 1 11 0;
#X connect 9 0 32 1;
#X connect 10 0 32 1;
#X connect 11 0 32 1;
#X connect 12 0 32 0;
#X connect 12 1 22 0;
#X connect 13 0 32 0;
#X connect 13 1 23 0;
#X connect 14 0 32 0;
#X connect 14 1 31 0;
#X connect 15 0 32 0;
#X connect 15 1 30 0;
#X connect 16 0 32 0;
#X connect 16 1 29 0;
#X connect 17 0 32 0;
#X connect 17 1 28 0;
#X connect 18 0 32 0;
#X connect 18 1 27 0;
#X connect 19 0 32 0;
#X connect 19 1 26 0;
#X connect 20 0 32 0;
#X connect 20 1 25 0;
#X connect 21 0 32 0;
#X connect 21 1 24 0;
#X connect 22 0 32 1;
#X connect 23 0 32 1;
#X connect 24 0 32 1;
#X connect 25 0 32 1;
#X connect 26 0 32 1;
#X connect 27 0 32 1;
#X connect 28 0 32 1;
#X connect 29 0 32 1;
#X connect 30 0 32 1;
#X connect 31 0 32 1;
#X connect 33 0 0 0;
#X connect 34 0 2 0;
#X connect 35 0 4 0;
#X connect 36 0 6 0;
#X connect 37 0 7 0;
#X connect 38 0 8 0;
#X connect 39 0 14 0;
#X connect 40 0 15 0;
#X connect 41 0 13 0;
#X connect 42 0 12 0;
#X connect 43 0 21 0;
#X connect 44 0 20 0;
#X connect 45 0 19 0;
#X connect 46 0 18 0;
#X connect 47 0 17 0;
#X connect 48 0 16 0;
#X restore 835 268 pd currentwriter;
#X obj 849 414 table \$0-neststeps 16;
#N canvas 57 344 943 441 nestwriter 0;
#X obj 48 55 t f b;
#X msg 74 75 0;
#X obj 140 57 t f b;
#X msg 166 77 1;
#X obj 244 54 t f b;
#X msg 270 74 2;
#X obj 343 55 t f b;
#X obj 443 56 t f b;
#X obj 540 56 t f b;
#X msg 369 75 3;
#X msg 469 76 4;
#X msg 566 76 5;
#X obj 652 138 t f b;
#X obj 757 135 t f b;
#X obj 639 56 t f b;
#X obj 753 57 t f b;
#X obj 32 129 t f b;
#X obj 132 130 t f b;
#X obj 254 135 t f b;
#X obj 337 137 t f b;
#X obj 439 136 t f b;
#X obj 546 139 t f b;
#X msg 678 158 14;
#X msg 783 155 15;
#X msg 572 159 13;
#X msg 465 156 12;
#X msg 363 157 11;
#X msg 280 155 10;
#X msg 158 150 9;
#X msg 58 149 8;
#X msg 779 77 7;
#X msg 665 76 6;
#X obj 22 34 r \$0-jumpto0;
#X obj 139 34 r \$0-jumpto1;
#X obj 242 34 r \$0-jumpto2;
#X obj 342 32 r \$0-jumpto3;
#X obj 442 33 r \$0-jumpto4;
#X obj 539 33 r \$0-jumpto5;
#X obj 638 33 r \$0-jumpto6;
#X obj 752 34 r \$0-jumpto7;
#X obj 760 112 r \$0-jumpto15;
#X obj 651 115 r \$0-jumpto14;
#X obj 545 116 r \$0-jumpto13;
#X obj 438 113 r \$0-jumpto12;
#X obj 336 114 r \$0-jumpto11;
#X obj 230 110 r \$0-jumpto10;
#X obj 131 107 r \$0-jumpto9;
#X obj 31 106 r \$0-jumpto8;
#X obj 455 395 tabwrite \$0-neststeps;
#X connect 0 0 48 0;
#X connect 0 1 1 0;
#X connect 1 0 48 1;
#X connect 2 0 48 0;
#X connect 2 1 3 0;
#X connect 3 0 48 1;
#X connect 4 0 48 0;
#X connect 4 1 5 0;
#X connect 5 0 48 1;
#X connect 6 0 48 0;
#X connect 6 1 9 0;
#X connect 7 0 48 0;
#X connect 7 1 10 0;
#X connect 8 0 48 0;
#X connect 8 1 11 0;
#X connect 9 0 48 1;
#X connect 10 0 48 1;
#X connect 11 0 48 1;
#X connect 12 0 48 0;
#X connect 12 1 22 0;
#X connect 13 0 48 0;
#X connect 13 1 23 0;
#X connect 14 0 48 0;
#X connect 14 1 31 0;
#X connect 15 0 48 0;
#X connect 15 1 30 0;
#X connect 16 0 48 0;
#X connect 16 1 29 0;
#X connect 17 0 48 0;
#X connect 17 1 28 0;
#X connect 18 0 48 0;
#X connect 18 1 27 0;
#X connect 19 0 48 0;
#X connect 19 1 26 0;
#X connect 20 0 48 0;
#X connect 20 1 25 0;
#X connect 21 0 48 0;
#X connect 21 1 24 0;
#X connect 22 0 48 1;
#X connect 23 0 48 1;
#X connect 24 0 48 1;
#X connect 25 0 48 1;
#X connect 26 0 48 1;
#X connect 27 0 48 1;
#X connect 28 0 48 1;
#X connect 29 0 48 1;
#X connect 30 0 48 1;
#X connect 31 0 48 1;
#X connect 32 0 0 0;
#X connect 33 0 2 0;
#X connect 34 0 4 0;
#X connect 35 0 6 0;
#X connect 36 0 7 0;
#X connect 37 0 8 0;
#X connect 38 0 14 0;
#X connect 39 0 15 0;
#X connect 40 0 13 0;
#X connect 41 0 12 0;
#X connect 42 0 21 0;
#X connect 43 0 20 0;
#X connect 44 0 19 0;
#X connect 45 0 18 0;
#X connect 46 0 17 0;
#X connect 47 0 16 0;
#X restore 942 267 pd nestwriter;
#N canvas 283 254 1018 534 alwayswriter 0;
#X obj 48 35 t f b;
#X msg 74 55 0;
#X obj 140 37 t f b;
#X msg 166 57 1;
#X obj 244 34 t f b;
#X msg 270 54 2;
#X obj 343 35 t f b;
#X obj 443 36 t f b;
#X obj 540 36 t f b;
#X msg 369 55 3;
#X msg 469 56 4;
#X msg 566 56 5;
#X obj 652 118 t f b;
#X obj 757 115 t f b;
#X obj 639 36 t f b;
#X obj 753 37 t f b;
#X obj 32 109 t f b;
#X obj 132 110 t f b;
#X obj 254 115 t f b;
#X obj 337 117 t f b;
#X obj 439 116 t f b;
#X obj 546 119 t f b;
#X msg 678 138 14;
#X msg 783 135 15;
#X msg 572 139 13;
#X msg 465 136 12;
#X msg 363 137 11;
#X msg 280 135 10;
#X msg 158 130 9;
#X msg 58 129 8;
#X msg 779 57 7;
#X msg 665 56 6;
#X obj 419 407 v \$0-totalws;
#X obj 22 14 r \$0-sendalws0;
#X obj 139 14 r \$0-sendalws1;
#X obj 242 14 r \$0-sendalws2;
#X obj 342 12 r \$0-sendalws3;
#X obj 442 13 r \$0-sendalws4;
#X obj 539 13 r \$0-sendalws5;
#X obj 638 13 r \$0-sendalws6;
#X obj 752 14 r \$0-sendalws7;
#X obj 760 92 r \$0-sendalws15;
#X obj 651 95 r \$0-sendalws14;
#X obj 545 96 r \$0-sendalws13;
#X obj 438 93 r \$0-sendalws12;
#X obj 336 94 r \$0-sendalws11;
#X obj 230 90 r \$0-sendalws10;
#X obj 131 87 r \$0-sendalws9;
#X obj 31 86 r \$0-sendalws8;
#X obj 420 386 t b f;
#X obj 475 189 pack;
#N canvas 663 22 450 300 1scomp 0;
#X obj 236 46 inlet;
#X obj 242 107 -;
#X msg 240 78 -1 \$1;
#X text 297 79 one's compliment;
#X obj 244 145 outlet;
#X connect 0 0 2 0;
#X connect 1 0 4 0;
#X connect 2 0 1 0;
#X restore 420 364 pd 1scomp;
#X obj 477 280 <<;
#X obj 479 233 unpack f f;
#X msg 477 259 1 \$1;
#X msg 478 211 \$2 \$1;
#X obj 476 303 list prepend;
#X obj 475 326 route 0 1;
#X obj 442 432 &;
#X obj 492 382 v \$0-totalws;
#X obj 493 361 t b f;
#X obj 515 407 |;
#X connect 0 0 50 0;
#X connect 0 1 1 0;
#X connect 1 0 50 1;
#X connect 2 0 50 0;
#X connect 2 1 3 0;
#X connect 3 0 50 1;
#X connect 4 0 50 0;
#X connect 4 1 5 0;
#X connect 5 0 50 1;
#X connect 6 0 50 0;
#X connect 6 1 9 0;
#X connect 7 0 50 0;
#X connect 7 1 10 0;
#X connect 8 0 50 0;
#X connect 8 1 11 0;
#X connect 9 0 50 1;
#X connect 10 0 50 1;
#X connect 11 0 50 1;
#X connect 12 0 50 0;
#X connect 12 1 22 0;
#X connect 13 0 50 0;
#X connect 13 1 23 0;
#X connect 14 0 50 0;
#X connect 14 1 31 0;
#X connect 15 0 50 0;
#X connect 15 1 30 0;
#X connect 16 0 50 0;
#X connect 16 1 29 0;
#X connect 17 0 50 0;
#X connect 17 1 28 0;
#X connect 18 0 50 0;
#X connect 18 1 27 0;
#X connect 19 0 50 0;
#X connect 19 1 26 0;
#X connect 20 0 50 0;
#X connect 20 1 25 0;
#X connect 21 0 50 0;
#X connect 21 1 24 0;
#X connect 22 0 50 1;
#X connect 23 0 50 1;
#X connect 24 0 50 1;
#X connect 25 0 50 1;
#X connect 26 0 50 1;
#X connect 27 0 50 1;
#X connect 28 0 50 1;
#X connect 29 0 50 1;
#X connect 30 0 50 1;
#X connect 31 0 50 1;
#X connect 32 0 58 0;
#X connect 33 0 0 0;
#X connect 34 0 2 0;
#X connect 35 0 4 0;
#X connect 36 0 6 0;
#X connect 37 0 7 0;
#X connect 38 0 8 0;
#X connect 39 0 14 0;
#X connect 40 0 15 0;
#X connect 41 0 13 0;
#X connect 42 0 12 0;
#X connect 43 0 21 0;
#X connect 44 0 20 0;
#X connect 45 0 19 0;
#X connect 46 0 18 0;
#X connect 47 0 17 0;
#X connect 48 0 16 0;
#X connect 49 0 32 0;
#X connect 49 1 58 1;
#X connect 50 0 55 0;
#X connect 51 0 49 0;
#X connect 52 0 56 0;
#X connect 53 0 54 0;
#X connect 53 1 56 1;
#X connect 54 0 52 0;
#X connect 55 0 53 0;
#X connect 56 0 57 0;
#X connect 57 0 51 0;
#X connect 57 1 60 0;
#X connect 58 0 32 0;
#X connect 59 0 61 0;
#X connect 60 0 59 0;
#X connect 60 1 61 1;
#X connect 61 0 59 0;
#X restore 847 301 pd alwayswriter;
#X obj 485 125 f \$1;
#X obj 437 140 sel 0;
#X obj 438 115 f \$2;
#X obj 495 148 sel 0;
#X msg 492 178 250;
#X obj 547 182 max 20;
#X msg 434 160 16;
#X obj 346 155 f \$3;
#X connect 1 0 21 0;
#X connect 2 0 186 0;
#X connect 21 0 117 0;
#X connect 23 0 117 0;
#X connect 23 1 26 0;
#X connect 24 0 114 0;
#X connect 25 0 110 0;
#X connect 26 0 1 0;
#X connect 28 0 112 0;
#X connect 29 0 109 0;
#X connect 97 0 113 0;
#X connect 99 0 107 0;
#X connect 99 0 136 0;
#X connect 100 0 143 0;
#X connect 101 0 141 0;
#X connect 102 0 144 0;
#X connect 103 0 128 0;
#X connect 104 0 99 0;
#X connect 104 0 181 0;
#X connect 104 0 183 0;
#X connect 104 0 188 0;
#X connect 105 0 99 0;
#X connect 108 0 105 0;
#X connect 109 0 138 0;
#X connect 110 0 137 0;
#X connect 111 0 115 0;
#X connect 112 0 140 0;
#X connect 113 0 139 0;
#X connect 114 0 117 1;
#X connect 114 1 145 0;
#X connect 114 2 111 0;
#X connect 115 0 125 0;
#X connect 116 0 146 0;
#X connect 117 0 150 0;
#X connect 118 0 117 0;
#X connect 121 0 1 0;
#X connect 121 1 1 1;
#X connect 123 0 121 0;
#X connect 124 0 130 0;
#X connect 124 1 158 0;
#X connect 124 2 159 0;
#X connect 124 3 160 0;
#X connect 124 4 161 0;
#X connect 124 5 162 0;
#X connect 124 6 163 0;
#X connect 124 7 164 0;
#X connect 124 8 165 0;
#X connect 124 9 166 0;
#X connect 124 10 167 0;
#X connect 124 11 168 0;
#X connect 124 12 169 0;
#X connect 124 13 170 0;
#X connect 124 14 171 0;
#X connect 124 15 172 0;
#X connect 126 0 23 0;
#X connect 126 0 132 1;
#X connect 127 0 128 1;
#X connect 129 0 132 0;
#X connect 132 0 133 0;
#X connect 133 0 135 0;
#X connect 133 1 134 0;
#X connect 134 0 118 0;
#X connect 134 1 26 0;
#X connect 135 0 117 1;
#X connect 142 0 141 1;
#X connect 145 0 132 0;
#X connect 146 0 117 1;
#X connect 147 0 151 1;
#X connect 148 0 150 1;
#X connect 148 0 155 1;
#X connect 149 0 119 0;
#X connect 149 0 106 0;
#X connect 149 0 123 0;
#X connect 149 0 124 0;
#X connect 150 0 157 0;
#X connect 151 0 153 0;
#X connect 152 0 151 0;
#X connect 152 1 154 1;
#X connect 153 0 156 0;
#X connect 153 1 154 0;
#X connect 154 0 155 0;
#X connect 155 0 149 0;
#X connect 156 0 155 0;
#X connect 157 0 152 0;
#X connect 181 0 184 0;
#X connect 182 0 187 0;
#X connect 182 1 110 0;
#X connect 183 0 182 0;
#X connect 184 0 185 0;
#X connect 184 1 186 0;
#X connect 185 0 120 0;
#X connect 186 0 120 0;
#X connect 187 0 137 0;
#X connect 188 0 109 0;
#X coords 0 -1 1 1 582 114 2 220 290;
