#N canvas 164 73 688 358 10;
#X msg 167 213 0;
#X text 36 16 shows a list in a message box;
#X text 208 211 <-- if you save the patch \, the value in this box
will be saved as well;
#X text 20 90 (connect a message box from the outlet \, and when show
receives it \, it will show the message).;
#X msg 365 91 you can see anything;
#X msg 370 147;
#X msg 302 125 set;
#X obj 363 121 ./show;
#X obj 170 53 ./banger;
#X obj 96 147 ./smoother~;
#X obj 184 180 ./show;
#X connect 0 0 9 0;
#X connect 4 0 7 0;
#X connect 6 0 5 0;
#X connect 7 0 5 0;
#X connect 8 0 0 0;
#X connect 8 0 6 0;
#X connect 9 1 10 0;
#X connect 10 0 0 0;
