#N canvas 342 357 450 300 10;
#X obj 153 11 inlet~;
#X obj 235 21 loadbang;
#X obj 235 42 f \$1;
#X obj 155 88 *~;
#X obj 153 175 outlet~;
#X obj 317 40 inlet;
#X obj 211 64 if 0 10;
#X obj 153 120 lop~;
#X text 45 227 from Theory and Technique of Electronic Music;
#X obj 153 148 q8_sqrt~;
#X connect 0 0 3 0;
#X connect 0 0 3 1;
#X connect 1 0 2 0;
#X connect 2 0 6 0;
#X connect 3 0 7 0;
#X connect 5 0 7 1;
#X connect 6 0 7 1;
#X connect 7 0 9 0;
#X connect 9 0 4 0;
