#N canvas 167 47 450 300 10;
#X floatatom 110 116 5 0 0 0 - - -;
#X obj 226 94 sig~;
#X obj 226 138 outlet~;
#X obj 220 46 inlet;
#X msg 156 76 set \$1;
#X obj 156 23 loadbang;
#X obj 156 48 f \$1;
#X connect 0 0 1 0;
#X connect 1 0 2 0;
#X connect 3 0 1 0;
#X connect 3 0 4 0;
#X connect 4 0 0 0;
#X connect 5 0 6 0;
#X connect 6 0 4 0;
#X connect 6 0 1 0;
#X coords 0 -1 1 1 45 35 1 100 100;
