#N canvas 93 130 703 352 10;
#X obj 176 161 line~;
#X obj 176 58 inlet;
#X obj 176 200 outlet~;
#X obj 176 116 pack f f;
#X obj 221 67 f \$1;
#X obj 221 27 loadbang;
#X obj 315 84 inlet;
#X msg 118 79 set \$1;
#X obj 239 200 outlet;
#X msg 239 162 \$1;
#X floatatom 109 116 7 0 0 0 - - - 0;
#X obj 72 55 f \$2;
#X obj 221 93 ./if 0 10;
#X obj 72 76 sel 0;
#X connect 0 0 2 0;
#X connect 1 0 3 0;
#X connect 1 0 7 0;
#X connect 3 0 0 0;
#X connect 3 0 9 0;
#X connect 4 0 12 0;
#X connect 5 0 4 0;
#X connect 5 0 11 0;
#X connect 6 0 3 1;
#X connect 7 0 10 0;
#X connect 9 0 8 0;
#X connect 10 0 3 0;
#X connect 11 0 13 0;
#X connect 12 0 3 1;
#X connect 13 1 10 0;
#X coords 0 -1 1 1 60 35 1 100 100;
