#N canvas 218 589 738 412 10;
#X obj 132 72 sndfilereader~;
#X text 291 22 open a soundfile \, then read it. outputs stereo.;
#X text 336 42 inlets: file path \, open \, read \, stop.;
#X text 207 140 outlets: stereo audio out \, bang upon finishing soundfile
\, and filename as symbol (from l2s from zexy).;
#X obj 141 125 dac~;
#X connect 0 0 4 0;
#X connect 0 1 4 1;
