#N canvas 373 23 1067 710 10;
#X msg 454 360 start;
#X obj 453 192 bng 15 250 50 0 empty empty write 17 7 0 10 -262144
-1 -1;
#X obj 453 173 bng 15 250 50 0 empty empty open 17 7 0 10 -262144 -1
-1;
#X symbolatom 204 172 35 0 0 0 - - -, f 35;
#X symbolatom 204 192 35 0 0 0 - - -, f 35;
#X obj 500 192 bng 15 250 50 0 empty empty stop 17 7 0 10 -262144 -1
-1;
#X msg 464 410 stop;
#X obj 276 217 t b b;
#X obj 144 621 outlet;
#X obj 227 93 inlet;
#X text 231 78 filename;
#X symbolatom 352 154 10 0 0 1 additional_flag - -, f 10;
#X obj 587 84 inlet;
#X obj 186 265 savepanel;
#X obj 170 71 inlet~;
#X obj 339 62 inlet;
#X obj 497 173 bng 15 250 50 0 empty empty increment_name 17 7 0 10
-262144 -1 -1;
#X obj 83 479 makefilename;
#X obj 85 386 symbol;
#X obj 89 362 t b b;
#X obj 132 568 symbol;
#X msg 99 454 set \$1%d;
#X obj 118 503 pack s s;
#X obj 77 430 t b s;
#X obj 66 452 f;
#X msg 207 383 1;
#X obj 454 338 del 0;
#X obj 596 336 list length;
#X obj 654 104 loadbang;
#X obj 599 387 sel 1;
#X msg 369 225 1;
#X msg 339 227 0;
#X msg 265 343 set open \$1;
#X obj 261 307 symbol;
#X obj 600 410 t b b;
#X obj 646 411 t b b;
#X obj 456 312 t b b;
#X obj 335 309 list append;
#X obj 620 445 list;
#X floatatom 644 367 5 0 0 0 - - -, f 5;
#X obj 637 276 t l l;
#X obj 596 361 > 0;
#X msg 747 222 32;
#X obj 747 243 makefilename %c;
#N canvas 687 478 450 300 listmanip 0;
#X obj 131 5 inlet;
#X obj 155 262 outlet;
#X obj 160 54 list length;
#X msg 171 196 set open \$2 \$1;
#X msg 181 170 adddollar \$1;
#X obj 167 76 t f f;
#X obj 166 119 until;
#X obj 170 97 - 1;
#X msg 280 114 set \, add2 set open;
#X msg 69 144 adddollar 1;
#X obj 130 31 t l b l b;
#X msg 204 110 2;
#X obj 181 141 ekext/cup;
#X connect 0 0 10 0;
#X connect 2 0 5 0;
#X connect 3 0 1 0;
#X connect 4 0 3 0;
#X connect 5 0 7 0;
#X connect 5 1 11 0;
#X connect 6 0 12 0;
#X connect 7 0 6 0;
#X connect 8 0 3 0;
#X connect 9 0 3 0;
#X connect 10 0 3 0;
#X connect 10 1 9 0;
#X connect 10 2 2 0;
#X connect 10 3 8 0;
#X connect 11 0 12 0;
#X connect 12 0 4 0;
#X restore 354 336 pd listmanip;
#X text 584 62 flag;
#X text 191 616 current filename;
#X obj 450 473 writesf~ 1;
#X text 340 595 a mono sound file writer;
#X obj 340 84 route open write stop incr;
#X obj 147 287 makerpath;
#X obj 733 264 zexy/symbol2list;
#X obj 34 143 iemlib/splitfilename /;
#X obj 34 176 iemlib/splitfilename /;
#X obj 45 413 iemlib/splitfilename .;
#X obj 118 527 iemlib/mergefilename .;
#X obj 545 115 zexy/list2symbol;
#X obj 203 417 ekext/cup;
#X msg 375 431;
#X obj 265 253 zexy/demultiplex;
#X connect 0 0 47 0;
#X connect 1 0 36 0;
#X connect 2 0 7 0;
#X connect 5 0 6 0;
#X connect 6 0 47 0;
#X connect 7 0 13 0;
#X connect 7 1 6 0;
#X connect 9 0 6 0;
#X connect 9 0 50 0;
#X connect 11 0 51 0;
#X connect 12 0 56 0;
#X connect 13 0 50 0;
#X connect 14 0 47 0;
#X connect 15 0 49 0;
#X connect 16 0 19 0;
#X connect 17 0 22 0;
#X connect 18 0 54 0;
#X connect 19 0 18 0;
#X connect 19 1 57 0;
#X connect 20 0 8 0;
#X connect 20 0 52 0;
#X connect 20 0 59 0;
#X connect 21 0 17 0;
#X connect 22 0 55 0;
#X connect 23 0 24 0;
#X connect 23 1 21 0;
#X connect 24 0 17 0;
#X connect 25 0 57 0;
#X connect 26 0 0 0;
#X connect 27 0 39 0;
#X connect 27 0 41 0;
#X connect 28 0 31 0;
#X connect 28 0 42 0;
#X connect 29 0 34 0;
#X connect 29 1 35 0;
#X connect 30 0 59 1;
#X connect 31 0 59 1;
#X connect 32 0 58 0;
#X connect 33 0 32 0;
#X connect 34 0 20 0;
#X connect 34 1 30 0;
#X connect 34 1 38 0;
#X connect 35 0 20 0;
#X connect 35 1 31 0;
#X connect 36 0 26 0;
#X connect 36 1 58 0;
#X connect 37 0 44 0;
#X connect 38 0 37 1;
#X connect 40 0 27 0;
#X connect 40 1 38 1;
#X connect 41 0 29 0;
#X connect 42 0 43 0;
#X connect 43 0 51 1;
#X connect 44 0 58 0;
#X connect 49 0 2 0;
#X connect 49 1 1 0;
#X connect 49 2 5 0;
#X connect 49 3 16 0;
#X connect 50 0 18 1;
#X connect 50 0 25 0;
#X connect 50 0 20 0;
#X connect 51 0 40 0;
#X connect 52 0 53 0;
#X connect 52 1 4 0;
#X connect 53 1 3 0;
#X connect 54 0 23 0;
#X connect 54 1 22 1;
#X connect 55 0 20 0;
#X connect 56 0 11 0;
#X connect 57 0 24 1;
#X connect 58 0 47 0;
#X connect 59 0 33 0;
#X connect 59 1 37 0;
#X coords 0 -1 1 1 400 60 1 200 150;
