#N canvas 585 128 770 501 10;
#X declare -lib iemlib;
#X obj 144 128 openpanel;
#X msg 432 227 start;
#X msg 128 222 set open \$1;
#X obj 292 364 outlet~;
#X symbolatom 306 119 35 0 0 0 - - -;
#X symbolatom 306 139 35 0 0 0 - - -;
#X msg 481 229 stop;
#X obj 391 200 t b b;
#X obj 329 332 readsf~ 2;
#X obj 347 369 outlet~;
#X obj 404 372 outlet;
#X obj 473 369 outlet;
#X obj 222 67 inlet;
#X text 261 65 filename;
#X obj 437 200 t b b b;
#X obj 520 56 inlet;
#X obj 542 24 inlet;
#X obj 555 49 inlet;
#X text 44 91 todo: implement pause;
#X msg 223 131 set \$1;
#X obj 366 248 symbol;
#X obj 218 163 t b s;
#X obj 216 187 symbol;
#X obj 218 210 pack s s;
#X msg 92 265;
#X obj 256 22 declare -lib iemlib;
#X obj 47 161 splitfilename /;
#X obj 4 196 splitfilename /;
#X obj 213 235 mergefilename /;
#X obj 521 119 cnv 15 95 36 empty empty empty 20 12 0 14 -260097 -66577
0;
#X obj 523 139 bng 15 250 50 0 empty empty read 17 7 0 10 -262144 -1
-1;
#X obj 523 120 bng 15 250 50 0 empty empty open 17 7 0 10 -262144 -1
-1;
#X obj 571 139 bng 15 250 50 0 empty empty stop 17 7 0 10 -262144 -1
-1;
#X obj 49 130 ./makerpath;
#X connect 0 0 2 0;
#X connect 0 0 26 0;
#X connect 1 0 8 0;
#X connect 2 0 24 0;
#X connect 5 0 21 0;
#X connect 6 0 8 0;
#X connect 7 0 20 0;
#X connect 7 1 6 0;
#X connect 8 0 3 0;
#X connect 8 1 9 0;
#X connect 8 2 10 0;
#X connect 12 0 6 0;
#X connect 12 0 33 0;
#X connect 14 0 1 0;
#X connect 14 1 24 0;
#X connect 14 2 6 0;
#X connect 15 0 31 0;
#X connect 16 0 30 0;
#X connect 17 0 32 0;
#X connect 19 0 5 0;
#X connect 20 0 0 0;
#X connect 21 0 22 0;
#X connect 21 1 23 1;
#X connect 22 0 23 0;
#X connect 23 0 28 0;
#X connect 24 0 8 0;
#X connect 26 0 20 1;
#X connect 26 0 22 1;
#X connect 26 0 27 0;
#X connect 26 1 19 0;
#X connect 27 1 4 0;
#X connect 28 0 2 0;
#X connect 30 0 14 0;
#X connect 31 0 7 0;
#X connect 32 0 6 0;
#X connect 33 0 2 0;
#X connect 33 0 11 0;
#X connect 33 0 26 0;
#X coords 0 -1 1 1 317 60 1 300 100;
