#N canvas 173 248 541 336 10;
#X obj -194 -16 openpanel;
#X msg -119 139 open /Users/sebshader/Desktop/To The Last.wav;
#X msg 240 161 start;
#X obj 223 41 bng 15 250 50 0 empty empty read 17 7 0 10 -262144 -1
-1;
#X obj 223 20 bng 15 250 50 0 empty empty open 17 7 0 10 -262144 -1
-1;
#X msg -83 96 set open \$1;
#X obj 81 238 outlet~;
#X symbolatom 3 19 35 0 0 0 - - -;
#X obj -164 35 splitfilename /;
#X obj -207 70 splitfilename /;
#X symbolatom 3 39 35 0 0 0 - - -;
#X obj 269 41 bng 15 250 50 0 empty empty stop 17 7 0 10 -262144 -1
-1;
#X msg 289 163 stop;
#X obj -179 12 l2s;
#X obj 180 74 t b b;
#X obj 118 206 readsf~ 2;
#X obj 136 243 outlet~;
#X obj 193 246 outlet;
#X obj 262 243 outlet;
#X obj 15 -44 inlet;
#X text 54 -44 filename;
#X obj 226 74 t b b b;
#X obj 119 -39 inlet;
#X obj 158 -39 inlet;
#X obj 219 -34 inlet;
#X text -167 -35 todo: implement pause;
#X connect 0 0 13 0;
#X connect 1 0 15 0;
#X connect 2 0 15 0;
#X connect 3 0 21 0;
#X connect 4 0 14 0;
#X connect 5 0 1 0;
#X connect 8 0 9 0;
#X connect 8 1 10 0;
#X connect 9 1 7 0;
#X connect 11 0 12 0;
#X connect 12 0 15 0;
#X connect 13 0 8 0;
#X connect 13 0 5 0;
#X connect 13 0 18 0;
#X connect 14 0 0 0;
#X connect 14 1 12 0;
#X connect 15 0 6 0;
#X connect 15 1 16 0;
#X connect 15 2 17 0;
#X connect 19 0 13 0;
#X connect 19 0 12 0;
#X connect 21 0 2 0;
#X connect 21 1 1 0;
#X connect 21 2 12 0;
#X connect 22 0 4 0;
#X connect 23 0 3 0;
#X connect 24 0 11 0;
#X coords 0 -1 1 1 320 60 1 0 0;
