#N canvas 241 32 914 712 10;
#X declare -lib moocow;
#X msg 260 181 start;
#X obj 322 62 bng 15 250 50 0 empty empty write 17 7 0 10 -262144 -1
-1;
#X obj 324 43 bng 15 250 50 0 empty empty open 17 7 0 10 -262144 -1
-1;
#X symbolatom 104 41 35 0 0 0 - - -;
#X obj -106 55 splitfilename /;
#X obj -116 15 splitfilename /;
#X symbolatom 104 61 35 0 0 0 - - -;
#X obj 371 61 bng 15 250 50 0 empty empty stop 17 7 0 10 -262144 -1
-1;
#X msg 309 183 stop;
#X obj -29 169 l2s;
#X obj 280 93 t b b;
#X obj -133 515 outlet;
#X obj 35 -24 inlet;
#X text 39 -39 filename;
#X symbolatom 312 24 10 0 0 1 additional_flag - -;
#X obj 395 -33 inlet;
#X obj 15 139 savepanel;
#X obj -114 -16 inlet~;
#X obj 147 -55 inlet;
#X obj 366 43 bng 15 250 50 0 empty empty increment_name 17 7 0 10
-262144 -1 -1;
#X obj 148 -33 route open write stop incr;
#X obj -108 295 splitfilename .;
#X obj -74 410 mergefilename .;
#X obj -109 362 makefilename;
#X obj 0 299 cup;
#X obj -107 269 symbol;
#X obj -103 245 t b b;
#X obj -120 209 symbol;
#X msg -93 337 set \$1%d;
#X obj -74 386 pack s s;
#X obj -115 313 t b s;
#X obj -126 335 f;
#X msg -2 262 1;
#X obj 274 147 del 0;
#X obj 447 187 list length;
#X obj 462 -13 loadbang;
#X obj 450 238 sel 1;
#X msg 317 229 1;
#X msg 287 231 0;
#X obj 213 242 prepend;
#X obj 224 267 route 0 1;
#X msg 213 332 set open \$1;
#X obj 209 296 symbol;
#X obj 451 261 t b b;
#X obj 497 262 t b b;
#X obj 180 435 writesf~ 2;
#X obj -51 -41 inlet~;
#X obj 331 101 t b b;
#X obj 283 298 list append;
#X obj 471 296 list;
#X obj 526 -25 import moocow;
#X floatatom 495 218 5 0 0 0 - - -;
#X obj 445 159 t l l;
#X obj 473 86 s2l;
#X obj 447 212 > 0;
#X msg 525 31 32;
#X obj 523 59 makefilename %c;
#N canvas 687 478 450 300 listmanip 0;
#X obj 131 5 inlet;
#X obj 155 262 outlet;
#X obj 160 54 list length;
#X msg 171 196 set open \$2 \$3 \$1;
#X msg 181 170 adddollar \$1;
#X obj 167 76 t f f;
#X obj 166 119 until;
#X obj 170 97 - 1;
#X msg 280 114 set \, add2 set open;
#X msg 69 144 adddollar 1;
#X obj 130 31 t l b l b;
#X obj 181 141 cup;
#X msg 204 110 2;
#X connect 0 0 10 0;
#X connect 2 0 5 0;
#X connect 3 0 1 0;
#X connect 4 0 3 0;
#X connect 5 0 7 0;
#X connect 5 1 12 0;
#X connect 6 0 11 0;
#X connect 7 0 6 0;
#X connect 8 0 3 0;
#X connect 9 0 3 0;
#X connect 10 0 3 0;
#X connect 10 1 9 0;
#X connect 10 2 2 0;
#X connect 10 3 8 0;
#X connect 11 0 4 0;
#X connect 12 0 11 0;
#X restore 302 325 pd listmanip;
#X text 392 -55 flag;
#X text -86 510 current filename;
#X text 137 532 a stereo sound file writer;
#X msg 250 372 open -bytes 3 /tmp/test19.wav;
#X obj 362 -4 l2s;
#X connect 0 0 45 0;
#X connect 1 0 47 0;
#X connect 2 0 10 0;
#X connect 4 0 5 0;
#X connect 4 1 6 0;
#X connect 5 1 3 0;
#X connect 7 0 8 0;
#X connect 8 0 45 0;
#X connect 9 0 25 1;
#X connect 9 0 32 0;
#X connect 9 0 27 0;
#X connect 10 0 16 0;
#X connect 10 1 8 0;
#X connect 12 0 9 0;
#X connect 12 0 8 0;
#X connect 14 0 53 0;
#X connect 15 0 62 0;
#X connect 16 0 9 0;
#X connect 17 0 45 0;
#X connect 18 0 20 0;
#X connect 19 0 26 0;
#X connect 20 0 2 0;
#X connect 20 1 1 0;
#X connect 20 2 7 0;
#X connect 20 3 19 0;
#X connect 21 0 30 0;
#X connect 21 1 29 1;
#X connect 22 0 27 0;
#X connect 23 0 29 0;
#X connect 24 0 31 1;
#X connect 25 0 21 0;
#X connect 26 0 25 0;
#X connect 26 1 24 0;
#X connect 27 0 4 0;
#X connect 27 0 11 0;
#X connect 27 0 39 0;
#X connect 28 0 23 0;
#X connect 29 0 22 0;
#X connect 30 0 31 0;
#X connect 30 1 28 0;
#X connect 31 0 23 0;
#X connect 32 0 24 0;
#X connect 33 0 0 0;
#X connect 34 0 51 0;
#X connect 34 0 54 0;
#X connect 35 0 38 0;
#X connect 35 0 55 0;
#X connect 36 0 43 0;
#X connect 36 1 44 0;
#X connect 37 0 39 1;
#X connect 38 0 39 1;
#X connect 39 0 40 0;
#X connect 40 0 42 0;
#X connect 40 1 48 0;
#X connect 41 0 61 0;
#X connect 42 0 41 0;
#X connect 43 0 27 0;
#X connect 43 1 37 0;
#X connect 43 1 49 0;
#X connect 44 0 27 0;
#X connect 44 1 38 0;
#X connect 46 0 45 1;
#X connect 47 0 33 0;
#X connect 47 1 61 0;
#X connect 48 0 57 0;
#X connect 49 0 48 1;
#X connect 52 0 34 0;
#X connect 52 1 49 1;
#X connect 53 0 52 0;
#X connect 54 0 36 0;
#X connect 55 0 56 0;
#X connect 56 0 53 1;
#X connect 57 0 61 0;
#X connect 61 0 45 0;
#X connect 62 0 14 0;
#X coords 0 -1 1 1 380 60 1 100 20;
