#N canvas 316 350 723 376 10;
#X declare -lib moocow;
#X obj 71 79 osc~ 400;
#X msg 314 189 \; pd dsp 1;
#X obj 103 194 show;
#X msg 106 221 /tmp/test19.wav;
#X msg 392 90 incr;
#X msg 359 69 open;
#X msg 414 64 write;
#X msg 432 94 stop;
#X msg 237 91 /tmp/test.wav;
#X msg 540 68 -bytes 3;
#X text 214 -2 inlet3: filename;
#X text 181 17 inlet4: open \, write \, stop \, incr (to increment
the name);
#X text 180 34 inlet5: flag as symbol;
#X text 189 -40 stereo soundfile writer;
#X obj 161 85 osc~ 410;
#X text 202 -19 inlets 1+2: stereo signal;
#X obj 103 122 sndfwrites~;
#X connect 0 0 16 0;
#X connect 2 0 3 0;
#X connect 4 0 16 3;
#X connect 5 0 16 3;
#X connect 6 0 16 3;
#X connect 7 0 16 3;
#X connect 8 0 16 2;
#X connect 9 0 16 4;
#X connect 14 0 16 1;
#X connect 16 0 2 0;
