#N canvas 0 52 914 712 10;
#X msg 398 330 start;
#X obj 454 219 bng 15 250 50 0 empty empty write 17 7 0 10 -262144
-1 -1;
#X obj 454 200 bng 15 250 50 0 empty empty open 17 7 0 10 -262144 -1
-1;
#X symbolatom 205 200 35 0 0 0 - - -;
#X symbolatom 205 220 35 0 0 0 - - -;
#X obj 503 218 bng 15 250 50 0 empty empty stop 17 7 0 10 -262144 -1
-1;
#X msg 447 332 stop;
#X obj 386 251 t b b;
#X obj 5 664 outlet;
#X obj 173 125 inlet;
#X text 177 110 filename;
#X symbolatom 396 183 10 0 0 1 additional_flag - -;
#X obj 533 116 inlet;
#X obj 215 328 savepanel;
#X obj 19 81 inlet~;
#X obj 285 94 inlet;
#X obj 497 200 bng 15 250 50 0 empty empty increment_name 17 7 0 10
-262144 -1 -1;
#X obj 286 116 route open write stop incr;
#X obj 30 559 makefilename;
#X obj 32 466 symbol;
#X obj 36 442 t b b;
#X obj 19 406 symbol;
#X msg 46 534 set \$1%d;
#X obj 65 583 pack s s;
#X obj 24 510 t b s;
#X obj 13 532 f;
#X msg 137 459 1;
#X obj 412 296 del 0;
#X obj 585 295 list length;
#X obj 617 129 loadbang;
#X obj 588 346 sel 1;
#X msg 622 414 1;
#X msg 594 408 0;
#X msg 520 528 set open \$1;
#X obj 501 494 symbol;
#X obj 589 369 t b b;
#X obj 635 370 t b b;
#X obj 378 624 writesf~ 2;
#X obj 82 56 inlet~;
#X obj 409 275 t b b;
#X obj 590 494 list append;
#X obj 655 458 list;
#X obj 583 267 t l l;
#X obj 585 320 > 0;
#X msg 663 180 32;
#N canvas 687 478 450 300 listmanip 0;
#X obj 131 5 inlet;
#X obj 155 262 outlet;
#X obj 160 54 list length;
#X msg 171 196 set open \$2 \$3 \$1;
#X msg 181 170 adddollar \$1;
#X obj 167 76 t f f;
#X obj 166 119 until;
#X obj 170 97 - 1;
#X msg 280 114 set \, add2 set open;
#X msg 69 144 adddollar 1;
#X obj 130 31 t l b l b;
#X msg 204 110 2;
#X obj 181 141 ekext/cup;
#X connect 0 0 10 0;
#X connect 2 0 5 0;
#X connect 3 0 1 0;
#X connect 4 0 3 0;
#X connect 5 0 7 0;
#X connect 5 1 11 0;
#X connect 6 0 12 0;
#X connect 7 0 6 0;
#X connect 8 0 3 0;
#X connect 9 0 3 0;
#X connect 10 0 3 0;
#X connect 10 1 9 0;
#X connect 10 2 2 0;
#X connect 10 3 8 0;
#X connect 11 0 12 0;
#X connect 12 0 4 0;
#X restore 609 521 pd listmanip;
#X text 530 94 flag;
#X text 52 659 current filename;
#X text 275 681 a stereo sound file writer;
#X obj 110 366 makerpath;
#X obj 17 112 iemlib/splitfilename /;
#X obj 17 150 iemlib/splitfilename /;
#X obj 661 208 makefilename %c;
#X obj 611 235 zexy/symbol2list;
#X obj 19 490 iemlib/splitfilename .;
#X obj 144 532 ekext/cup;
#X obj 65 607 iemlib/mergefilename .;
#X obj 500 145 zexy/list2symbol;
#X obj 516 439 zexy/demultiplex;
#X msg 151 178 set \$1;
#X obj 49 285 symbol;
#X obj 107 387 zexy/nop;
#X obj 81 256 t b s;
#X obj 60 339 iemlib/mergefilename /;
#X obj 56 310 pack s s;
#X obj 214 306 symbol;
#X msg 557 568;
#X connect 0 0 37 0;
#X connect 1 0 39 0;
#X connect 2 0 7 0;
#X connect 4 0 62 0;
#X connect 5 0 6 0;
#X connect 6 0 37 0;
#X connect 7 0 65 0;
#X connect 7 1 6 0;
#X connect 9 0 6 0;
#X connect 9 0 49 0;
#X connect 11 0 53 0;
#X connect 12 0 57 0;
#X connect 13 0 49 0;
#X connect 14 0 37 0;
#X connect 15 0 17 0;
#X connect 16 0 20 0;
#X connect 17 0 2 0;
#X connect 17 1 1 0;
#X connect 17 2 5 0;
#X connect 17 3 16 0;
#X connect 18 0 23 0;
#X connect 19 0 54 0;
#X connect 20 0 19 0;
#X connect 20 1 55 0;
#X connect 21 0 8 0;
#X connect 21 0 51 0;
#X connect 21 0 58 0;
#X connect 22 0 18 0;
#X connect 23 0 56 0;
#X connect 24 0 25 0;
#X connect 24 1 22 0;
#X connect 25 0 18 0;
#X connect 26 0 55 0;
#X connect 27 0 0 0;
#X connect 28 0 43 0;
#X connect 29 0 32 0;
#X connect 29 0 44 0;
#X connect 30 0 35 0;
#X connect 30 1 36 0;
#X connect 31 0 58 1;
#X connect 32 0 58 1;
#X connect 33 0 66 0;
#X connect 34 0 33 0;
#X connect 35 0 21 0;
#X connect 35 1 31 0;
#X connect 35 1 41 0;
#X connect 36 0 21 0;
#X connect 36 1 32 0;
#X connect 38 0 37 1;
#X connect 39 0 27 0;
#X connect 39 1 66 0;
#X connect 40 0 45 0;
#X connect 41 0 40 1;
#X connect 42 0 28 0;
#X connect 42 1 41 1;
#X connect 43 0 30 0;
#X connect 44 0 52 0;
#X connect 45 0 66 0;
#X connect 49 0 61 0;
#X connect 50 1 3 0;
#X connect 51 0 50 0;
#X connect 51 0 60 1;
#X connect 51 0 65 1;
#X connect 51 1 59 0;
#X connect 52 0 53 1;
#X connect 53 0 42 0;
#X connect 54 0 24 0;
#X connect 54 1 23 1;
#X connect 55 0 25 1;
#X connect 56 0 21 0;
#X connect 57 0 11 0;
#X connect 58 0 34 0;
#X connect 58 1 40 0;
#X connect 59 0 4 0;
#X connect 60 0 64 0;
#X connect 61 0 19 1;
#X connect 61 0 21 0;
#X connect 61 0 26 0;
#X connect 62 0 60 0;
#X connect 62 1 64 1;
#X connect 63 0 61 0;
#X connect 64 0 63 0;
#X connect 65 0 13 0;
#X connect 66 0 37 0;
#X coords 0 -1 1 1 400 60 1 200 180;
