#N canvas 0 183 569 488 10;
#X obj 45 -31 inlet;
#X obj 87 250 qlist;
#X obj 99 102 cup;
#X obj 172 138 list-insert;
#X obj 230 -28 inlet;
#X obj 172 63 list split 1;
#X obj 174 115 list;
#X obj 172 87 t b f;
#X obj 238 111 t l;
#X obj 95 148 list;
#X obj 97 124 t b f;
#X obj 101 77 bang;
#X obj 217 215 list-dripdex;
#X obj 220 282 list prepend;
#X obj 190 317 list;
#X obj 217 193 t a b;
#X obj 216 168 list;
#X obj 283 116 print songfm;
#X msg 273 93 usage: [index] [list];
#X obj 425 -33 inlet;
#X msg 433 54 tempo \$1;
#X obj 434 16 / 60000;
#X msg 32 155 rewind;
#X obj 45 2 route rewind stop goto dump;
#X msg 133 79 0;
#X obj 380 9 loadbang;
#X obj 394 153 rootdir;
#X obj 98 197 pack s s;
#X msg 89 219 read \$2\$1 \, bang;
#X obj 279 61 bang;
#X obj 229 -6 route clear remove;
#X obj 323 41 list;
#X obj 327 64 list-delete;
#X obj 320 17 t b f;
#X msg 389 39 1;
#X obj 380 184 makefilename %s/;
#X obj 290 257 t l;
#X obj 196 360 print sectionlist;
#X obj 432 99 f \$1;
#X obj 442 123 sel 0;
#N canvas 396 448 450 300 list_idx_withdone 1;
#X obj 132 118 inlet;
#X obj 207 79 loadbang;
#X obj 197 105 f \$1;
#X obj 164 220 outlet;
#X obj 197 57 inlet;
#X obj 164 186 list split 1;
#X obj 132 149 list-splat;
#X obj 275 249 outlet;
#X obj 266 223 bang;
#X connect 0 0 6 0;
#X connect 1 0 2 0;
#X connect 2 0 6 1;
#X connect 4 0 2 0;
#X connect 5 0 3 0;
#X connect 5 2 8 0;
#X connect 6 1 5 0;
#X connect 6 2 8 0;
#X connect 8 0 7 0;
#X restore 84 169 pd list_idx_withdone;
#X obj 136 390 outlet;
#X obj 54 328 outlet;
#X connect 0 0 23 0;
#X connect 1 1 2 0;
#X connect 2 0 10 0;
#X connect 2 0 42 0;
#X connect 3 0 8 0;
#X connect 3 0 9 1;
#X connect 4 0 30 0;
#X connect 5 0 7 0;
#X connect 5 1 6 1;
#X connect 5 2 18 0;
#X connect 6 0 3 0;
#X connect 7 0 6 0;
#X connect 7 1 3 1;
#X connect 8 0 3 2;
#X connect 8 0 16 1;
#X connect 8 0 31 1;
#X connect 9 0 40 0;
#X connect 10 0 9 0;
#X connect 10 1 40 1;
#X connect 11 0 2 0;
#X connect 12 0 13 0;
#X connect 12 1 13 0;
#X connect 12 2 14 0;
#X connect 13 0 14 1;
#X connect 13 0 36 0;
#X connect 14 0 37 0;
#X connect 15 0 12 0;
#X connect 15 1 13 1;
#X connect 16 0 15 0;
#X connect 18 0 17 0;
#X connect 19 0 21 0;
#X connect 20 0 1 0;
#X connect 21 0 20 0;
#X connect 22 0 1 0;
#X connect 23 0 24 0;
#X connect 23 0 22 0;
#X connect 23 1 22 0;
#X connect 23 2 2 0;
#X connect 23 3 16 0;
#X connect 23 4 11 0;
#X connect 24 0 2 0;
#X connect 25 0 26 0;
#X connect 25 0 34 0;
#X connect 25 0 38 0;
#X connect 26 0 35 0;
#X connect 27 0 28 0;
#X connect 28 0 1 0;
#X connect 29 0 8 0;
#X connect 29 0 9 1;
#X connect 29 0 14 1;
#X connect 30 0 29 0;
#X connect 30 1 33 0;
#X connect 30 2 5 0;
#X connect 31 0 32 0;
#X connect 32 0 8 0;
#X connect 32 0 9 1;
#X connect 32 0 14 1;
#X connect 33 0 31 0;
#X connect 33 1 32 1;
#X connect 34 0 32 2;
#X connect 35 0 27 1;
#X connect 36 0 13 1;
#X connect 38 0 39 0;
#X connect 39 1 21 0;
#X connect 40 0 27 0;
#X connect 40 1 41 0;
