#N canvas 101 137 945 560 10;
#X obj 372 77 inlet~;
#X obj 372 103 *~ 0;
#X obj 440 177 sig~ \$1;
#X obj 473 92 f \$1;
#X obj 476 65 loadbang;
#X obj 471 118 sel 0;
#X msg 421 104 0;
#X obj 260 189 bpbuzz~ m;
#X obj 563 66 inlet;
#X obj 336 474 outlet~;
#X obj 260 142 inlet~;
#X msg 523 115 0.25;
#X obj 260 212 rpole~ 0.999;
#X msg 439 133 1;
#X msg 467 142 0;
#X obj 323 130 +~;
#X obj 864 411 outlet~;
#X obj 421 238 rminus~ 1;
#X obj 417 272 *~;
#X obj 347 318 /~;
#X obj 271 379 rpole~ 0.999;
#X obj 303 341 *~;
#X msg 546 243 1 \$1;
#X obj 560 213 samplerate~;
#X obj 525 271 /;
#X obj 326 247 *~ 1;
#X obj 197 409 outlet~;
#X obj 215 335 +~;
#X obj 479 355 *~ 0.25;
#N canvas 665 349 775 444 hip~ 0;
#X obj 97 46 inlet~;
#X obj 227 46 inlet~;
#X obj 81 396 outlet~;
#X obj 87 301 rpole~;
#X obj 239 173 rminus~ 1;
#X obj 377 158 * 6.28318;
#X obj 243 107 *~ 1;
#X obj 238 218 scaler~ 0.5 0.5;
#X obj 107 360 *~;
#X obj 108 335 rzero~ 1;
#X text 340 264 clone of vanilla hip~ filter \, but with a signal;
#X obj 493 101 inlet;
#X obj 239 194 min~ 1;
#X connect 0 0 3 0;
#X connect 1 0 6 0;
#X connect 3 0 9 0;
#X connect 4 0 12 0;
#X connect 5 0 6 1;
#X connect 6 0 4 0;
#X connect 7 0 8 1;
#X connect 8 0 2 0;
#X connect 9 0 8 0;
#X connect 11 0 5 0;
#X connect 12 0 7 0;
#X connect 12 0 3 1;
#X restore 347 431 pd hip~;
#X obj 307 166 clip~ 0.01 0.99;
#X obj 262 298 -~ 0.5;
#X obj 452 415 *~;
#X obj 568 366 rover~ 0.5;
#X obj 554 308 wrap~;
#X obj 551 342 rminus~ 0.5;
#X obj 558 400 abs~;
#X obj 256 163 clip~ 0;
#X obj 487 221 * 0.5;
#X obj 347 407 *~;
#X obj 464 447 *~ 0.005;
#X obj 398 336 hanning~;
#X obj 447 296 +~ 0.5;
#X obj 449 274 *~ 2;
#X obj 394 314 min~ 1;
#X obj 355 356 scaler~ 0.625 0.375;
#X obj 445 381 clip~ 0 100;
#X obj 348 280 *~ 1.25;
#X obj 230 382 *~;
#X obj 655 447 outlet~;
#X obj 649 398 rpole~ 0.999;
#X obj 665 371 *~ -1;
#X obj 738 451 outlet~;
#X obj 762 380 cos~;
#X connect 0 0 1 0;
#X connect 1 0 15 0;
#X connect 2 0 15 1;
#X connect 3 0 5 0;
#X connect 4 0 3 0;
#X connect 4 0 11 0;
#X connect 4 0 23 0;
#X connect 5 0 13 0;
#X connect 5 0 14 0;
#X connect 5 1 6 0;
#X connect 5 1 2 0;
#X connect 6 0 1 1;
#X connect 7 0 12 0;
#X connect 7 1 51 0;
#X connect 7 2 16 0;
#X connect 7 2 53 0;
#X connect 8 0 7 3;
#X connect 10 0 37 0;
#X connect 11 0 7 3;
#X connect 12 0 27 0;
#X connect 12 0 21 0;
#X connect 13 0 1 1;
#X connect 14 0 2 0;
#X connect 15 0 30 0;
#X connect 17 0 18 1;
#X connect 18 0 19 1;
#X connect 19 0 21 1;
#X connect 20 0 39 0;
#X connect 21 0 20 0;
#X connect 22 0 24 0;
#X connect 23 0 22 0;
#X connect 23 0 38 0;
#X connect 24 0 25 1;
#X connect 24 0 29 2;
#X connect 25 0 43 0;
#X connect 25 0 47 0;
#X connect 27 0 48 0;
#X connect 28 0 46 0;
#X connect 29 0 9 0;
#X connect 30 0 17 0;
#X connect 30 0 18 0;
#X connect 30 0 7 1;
#X connect 30 0 31 0;
#X connect 31 0 27 1;
#X connect 31 0 34 0;
#X connect 32 0 29 1;
#X connect 33 0 36 0;
#X connect 33 0 40 0;
#X connect 34 0 35 0;
#X connect 35 0 33 0;
#X connect 36 0 32 1;
#X connect 37 0 7 0;
#X connect 37 0 25 0;
#X connect 37 0 28 0;
#X connect 38 0 37 2;
#X connect 39 0 29 0;
#X connect 40 0 9 0;
#X connect 41 0 45 0;
#X connect 42 0 44 0;
#X connect 43 0 42 0;
#X connect 44 0 41 0;
#X connect 45 0 39 1;
#X connect 45 0 48 1;
#X connect 46 0 32 0;
#X connect 47 0 19 0;
#X connect 48 0 26 0;
#X connect 50 0 49 0;
#X connect 51 0 50 0;
#X connect 53 0 52 0;
