#N canvas 603 23 491 446 10;
#X obj 100 207 inlet~;
#X obj 178 18 inlet;
#X obj 106 330 *~ 1;
#X obj 240 370 *~ 0;
#X obj 242 416 outlet~;
#X obj 219 263 del;
#X msg 219 294 0;
#X msg 182 300 1;
#X obj 265 345 1-0switch;
#X text 303 148 ms \, # of hits \, feedback;
#X obj 223 128 unpack f f f;
#X obj 222 156 *;
#X obj 216 185 del;
#X obj 178 44 route fb;
#X obj 72 412 delwrite~ \$0-repeat \$1;
#X obj 275 241 zexy/nop;
#X obj 227 321 delread~ \$0-repeat;
#X obj 224 76 route hold dub;
#X obj 206 230 spigot;
#X msg 267 217 0;
#X msg 178 137 stop;
#X obj 281 189 sel 0;
#X msg 161 277 1;
#X obj 179 385 *~ 1;
#X msg 159 349 clear;
#X connect 0 0 2 0;
#X connect 1 0 13 0;
#X connect 2 0 4 0;
#X connect 2 0 14 0;
#X connect 3 0 4 0;
#X connect 5 0 6 0;
#X connect 6 0 2 1;
#X connect 6 0 8 0;
#X connect 7 0 2 1;
#X connect 7 0 8 0;
#X connect 8 0 3 1;
#X connect 10 0 11 0;
#X connect 10 0 15 0;
#X connect 10 0 18 1;
#X connect 10 1 11 1;
#X connect 10 2 23 1;
#X connect 11 0 12 0;
#X connect 12 0 7 0;
#X connect 12 0 19 0;
#X connect 13 0 23 1;
#X connect 13 1 17 0;
#X connect 15 0 5 0;
#X connect 15 0 16 0;
#X connect 15 0 24 0;
#X connect 16 0 3 0;
#X connect 16 0 23 0;
#X connect 17 0 7 0;
#X connect 17 0 18 1;
#X connect 17 0 20 0;
#X connect 17 0 21 0;
#X connect 17 1 18 0;
#X connect 17 2 7 0;
#X connect 17 2 10 0;
#X connect 18 0 5 0;
#X connect 18 0 22 0;
#X connect 19 0 18 1;
#X connect 20 0 12 0;
#X connect 21 1 15 0;
#X connect 22 0 2 1;
#X connect 23 0 14 0;
#X connect 24 0 14 0;
