#N canvas 621 264 491 446 10;
#X obj 66 130 inlet~;
#X obj 288 12 inlet;
#X obj 59 279 delwritec~ \$0-repeat \$1;
#X obj 68 190 *~ 1;
#X obj 215 285 *~ 0;
#X obj 218 309 outlet~;
#X obj 265 171 del;
#X msg 130 210 clear;
#X msg 120 171 0;
#X msg 123 144 1;
#X obj 241 238 1-0switch;
#X text 303 148 ms \, # of hits \, feedback;
#X obj 335 169 unpack f f f;
#X obj 211 202 delreadc~ \$0-repeat;
#X obj 328 208 *;
#X obj 324 248 del;
#X obj 175 256 *~ 1;
#X obj 275 66 t b a;
#X obj 284 120 sel 0;
#X obj 234 39 route fb;
#X obj 309 87 route hold;
#X connect 0 0 3 0;
#X connect 1 0 19 0;
#X connect 3 0 2 0;
#X connect 3 0 5 0;
#X connect 4 0 5 0;
#X connect 6 0 8 0;
#X connect 7 0 2 0;
#X connect 8 0 3 1;
#X connect 8 0 10 0;
#X connect 9 0 3 1;
#X connect 9 0 10 0;
#X connect 10 0 4 1;
#X connect 12 0 6 0;
#X connect 12 0 14 0;
#X connect 12 0 13 0;
#X connect 12 1 14 1;
#X connect 12 2 16 1;
#X connect 13 0 4 0;
#X connect 13 0 16 0;
#X connect 14 0 15 0;
#X connect 15 0 9 0;
#X connect 16 0 2 0;
#X connect 17 0 7 0;
#X connect 17 0 9 0;
#X connect 17 1 20 0;
#X connect 18 0 9 0;
#X connect 18 1 6 0;
#X connect 18 1 13 0;
#X connect 19 0 16 1;
#X connect 19 1 17 0;
#X connect 20 0 18 0;
#X connect 20 1 12 0;
