#N canvas 845 424 450 300 10;
#X obj 226 107 r \$1;
#X obj 66 129 r \$2;
#X obj 66 160 outlet;
#X obj 337 108 inlet;
#X obj 226 193 s \$1-s;
#X obj 226 131 iemlib/iem_anything;
#X obj 226 158 prepender \$2;
#X connect 0 0 5 0;
#X connect 1 0 2 0;
#X connect 3 0 5 1;
#X connect 5 0 6 0;
#X connect 6 0 4 0;
