#N canvas 558 82 462 286 10;
#X text 31 95 works with saver to save parameters;
#X text 115 39 see help:;
#X text 23 194 inlet is parameter to save \, left outlet outputs a
bang on save (use it to supply the correct value to the left inlet)
\, right outlet loads the saved value;
#X obj 188 22 ./saver;
#X obj 33 153 ./stater globalname objectname;
