#N canvas 570 447 450 300 10;
#X obj 75 70 r \$1;
#X obj 157 61 r \$2;
#X obj 66 160 outlet;
#X msg 68 128 save;
#X obj 244 108 inlet;
#X obj 241 158 iemlib/iem_prepend \$2;
#X obj 244 197 s \$1-s;
#X connect 0 0 3 0;
#X connect 1 0 2 0;
#X connect 3 0 2 0;
#X connect 4 0 5 0;
#X connect 5 0 6 0;
