#N canvas 0 22 450 300 10;
#X obj 257 73 loadbang;
#X obj 260 99 samplerate~;
#X obj 262 148 /;
#X msg 265 124 1000 \$1;
#X obj 195 178 *;
#X obj 192 89 inlet;
#X obj 196 244 outlet;
#X connect 0 0 1 0;
#X connect 1 0 3 0;
#X connect 2 0 4 1;
#X connect 3 0 2 0;
#X connect 4 0 6 0;
#X connect 5 0 4 0;
