#N canvas 0 22 450 300 10;
#X obj 257 73 loadbang;
#X obj 260 99 samplerate~;
#X obj 195 178 *;
#X obj 192 89 inlet;
#X obj 196 244 outlet;
#X obj 247 146 expr 1000/$f1;
#X connect 0 0 1 0;
#X connect 1 0 5 0;
#X connect 2 0 4 0;
#X connect 3 0 2 0;
#X connect 5 0 2 1;
