#N canvas 31 151 450 300 10;
#X obj 357 44 inlet;
#X obj 160 37 inlet;
#X msg 261 205 reset;
#X obj 360 81 loadbang;
#X obj 360 103 symbol \$1;
#X obj 167 102 text size;
#X obj 173 173 text get;
#X obj 153 72 t b b b;
#X obj 184 262 outlet;
#X obj 162 137 ./iterate;
#X obj 144 235 ./streamwrite-slow;
#X connect 0 0 4 0;
#X connect 1 0 7 0;
#X connect 2 0 10 0;
#X connect 3 0 4 0;
#X connect 4 0 5 1;
#X connect 4 0 6 3;
#X connect 5 0 9 0;
#X connect 6 0 10 1;
#X connect 7 0 10 0;
#X connect 7 1 5 0;
#X connect 7 2 2 0;
#X connect 9 0 6 0;
#X connect 10 0 8 0;
