#N canvas 641 220 450 300 10;
#X obj 176 202 streamquant;
#X obj 190 102 streamwrite;
#X obj 200 76 tgl 15 0 empty empty empty 17 7 0 10 -262144 -1 -1 0
1;
#X msg 274 68 gertrude;
#X msg 241 146 120;
#X obj 273 122 loadbang;
#X obj 85 92 ttempo;
#X obj 121 239 streamread;
#X obj 124 268 print;
#X msg 119 212 1;
#X obj 101 157 bpmtoms;
#X obj 206 265 print quant;
#X obj 277 229 print unquant;
#X floatatom 199 153 5 0 0 0 - - -;
#X text 314 179 half notes;
#X text 55 215 play back;
#X obj 289 177 / 2;
#X text 160 138 bpm in;
#X text 56 4 quantize stream to a grid of a certain number of bpm (argument
and 3rd inlet);
#X text 55 31 2nd inlet takes a stream;
#X text 57 50 1st inlet takes a stream or bang. it's pretty hot.;
#X connect 0 0 7 1;
#X connect 0 0 11 0;
#X connect 1 0 0 0;
#X connect 1 0 12 0;
#X connect 2 0 1 0;
#X connect 3 0 1 1;
#X connect 4 0 0 2;
#X connect 4 0 16 0;
#X connect 5 0 4 0;
#X connect 6 0 10 0;
#X connect 7 0 8 0;
#X connect 9 0 7 0;
#X connect 10 0 13 0;
#X connect 13 0 0 2;
