#N canvas 1082 54 698 605 10;
#X declare -lib zexy;
#X obj 171 196 list split 1;
#X obj 171 52 inlet;
#X obj 171 511 list append;
#X obj 276 53 inlet;
#X obj 395 340 print;
#X obj 67 571 outlet;
#X obj 171 484 max 0;
#X text 214 486 don't go into negative time;
#X obj 326 22 loadbang;
#X obj 326 48 f \$1;
#X msg 66 447 reset;
#X obj 412 43 inlet;
#X obj 171 255 demultiplex 0 1 2;
#X msg 395 320 stream-quant: no message after /;
#X obj 476 72 declare -lib zexy;
#X obj 171 167 ./stream-drip;
#X obj 66 541 ./streamwrite-slow;
#X obj 276 107 t f;
#X obj 276 158 /;
#X obj 171 227 *;
#X msg 276 138 1 \$1;
#X obj 171 307 + 0.5;
#X obj 171 462 *;
#X obj 333 358 + 1;
#X obj 270 285 t f f;
#X text 315 283 ceil;
#X obj 333 308 int;
#X obj 171 403 int;
#X obj 270 329 ./passif ==;
#X text 254 569 can't use zexy/wrap because of load name clashes with iemlib;
#X obj 339 198 f \$2;
#X obj 171 136 t a b;
#X connect 0 0 19 0;
#X connect 0 1 2 1;
#X connect 0 2 13 0;
#X connect 1 0 31 0;
#X connect 2 0 16 1;
#X connect 3 0 17 0;
#X connect 6 0 2 0;
#X connect 8 0 9 0;
#X connect 8 0 30 0;
#X connect 9 0 17 0;
#X connect 10 0 16 0;
#X connect 11 0 12 1;
#X connect 12 0 21 0;
#X connect 12 1 27 0;
#X connect 12 2 24 0;
#X connect 13 0 4 0;
#X connect 15 0 0 0;
#X connect 15 1 16 0;
#X connect 16 0 5 0;
#X connect 17 0 20 0;
#X connect 17 0 22 1;
#X connect 18 0 19 1;
#X connect 19 0 12 0;
#X connect 20 0 18 0;
#X connect 21 0 27 0;
#X connect 22 0 6 0;
#X connect 23 0 27 0;
#X connect 24 0 28 0;
#X connect 24 1 26 0;
#X connect 26 0 28 1;
#X connect 27 0 22 0;
#X connect 28 0 27 0;
#X connect 28 1 23 0;
#X connect 30 0 12 1;
#X connect 31 0 15 0;
#X connect 31 1 10 0;
