#N canvas 854 148 481 396 10;
#X obj 133 45 inlet;
#X obj 155 317 outlet;
#X obj 2 297 outlet;
#X obj 36 89 list-dripslow;
#X obj 37 41 t b b;
#X obj 18 -14 inlet;
#X msg 155 160 0;
#X obj 86 180 list prepend;
#X obj 37 136 t b b;
#X obj 94 139 t b a;
#X msg 64 157 1;
#X obj 84 314 del;
#X obj 86 203 route 1 0;
#X obj 112 285 -;
#X obj 85 229 t f f;
#X obj 87 262 bang;
#X msg 128 245 0;
#X obj 36 113 select k;
#X msg 5 66 stop;
#X obj 19 15 sel 0 1;
#X obj 32 228 t b a;
#X obj 107 68 list;
#X connect 0 0 21 1;
#X connect 3 0 17 0;
#X connect 3 1 1 0;
#X connect 4 0 3 0;
#X connect 4 1 16 0;
#X connect 4 1 21 0;
#X connect 5 0 19 0;
#X connect 6 0 7 1;
#X connect 7 0 12 0;
#X connect 8 0 3 0;
#X connect 8 1 10 0;
#X connect 9 0 6 0;
#X connect 9 1 7 0;
#X connect 10 0 7 1;
#X connect 11 0 3 0;
#X connect 12 0 14 0;
#X connect 12 1 20 0;
#X connect 13 0 11 1;
#X connect 14 0 15 0;
#X connect 14 0 13 1;
#X connect 14 1 13 0;
#X connect 15 0 11 0;
#X connect 16 0 13 1;
#X connect 17 0 8 0;
#X connect 17 1 9 0;
#X connect 18 0 11 0;
#X connect 19 0 18 0;
#X connect 19 1 4 0;
#X connect 20 0 3 0;
#X connect 20 1 2 0;
#X connect 21 0 3 1;
