#N canvas 811 240 580 459 10;
#X obj 246 133 tgl 15 0 empty empty empty 17 7 0 10 #fcfcfc #000000 #000000 0 1;
#X msg 400 125 gertrude;
#X msg 111 269 1;
#X obj 210 322 print quant;
#X obj 281 286 print unquant;
#X floatatom 139 192 5 0 0 0 - - - 0;
#X text 47 272 play back;
#X text 29 13 quantize stream to a grid of a certain multiple (argument and 3rd inlet);
#X obj 381 128 bng 15 250 50 0 empty empty empty 17 7 0 10 #fcfcfc #000000 #000000;
#X floatatom 351 234 5 0 2 1 rounding - - 0;
#X text 41 91 3rd inlet/ 2nd argument is rounding mode: 0 is round to nearest division \, 1 is round down \, 2 is round up;
#X obj 111 325 print output;
#X text 78 381 update 5/11/24: remove 'cold' 2nd inlet (use external [list] object instead when necessary);
#X text 31 40 1st inlet takes a stream;
#X text 29 63 2nd inlet/1st argument is multiple to round to (default all times = 0);
#X obj 246 159 ./streamwrite 120 permin;
#X obj 111 296 ./streamread 120 permin;
#X obj 113 148 ./ttempo 120 permin;
#X obj 246 259 ./stream-quant 2;
#X text 351 258 every 2 beats (1 second);
#X obj 351 208 hradio 16 1 0 3 empty empty empty 0 -8 0 10 #fcfcfc #000000 #000000 0;
#X connect 0 0 15 0;
#X connect 1 0 15 1;
#X connect 2 0 16 0;
#X connect 5 0 18 1;
#X connect 8 0 15 1;
#X connect 9 0 18 2;
#X connect 15 0 4 0;
#X connect 15 0 18 0;
#X connect 16 0 11 0;
#X connect 17 0 5 0;
#X connect 18 0 3 0;
#X connect 18 0 16 1;
#X connect 20 0 9 0;
