#N canvas 854 148 514 480 10;
#X obj 76 123 streamread-slow;
#X obj 49 0 inlet;
#X obj 48 56 sel 0 1;
#X obj 74 167 list split 1;
#X obj 82 253 del;
#X obj 70 321 t b a;
#X obj 79 279 list;
#X obj 87 363 outlet;
#X obj 182 324 outlet;
#X msg 36 165 stop;
#X obj 152 53 inlet;
#X obj 87 197 t f f;
#X obj 93 223 -;
#X obj 71 80 t b b;
#X msg 140 197 0;
#X msg 96 103 reset;
#X connect 0 0 3 0;
#X connect 0 1 8 0;
#X connect 1 0 2 0;
#X connect 2 0 9 0;
#X connect 2 1 13 0;
#X connect 3 0 11 0;
#X connect 3 1 6 1;
#X connect 4 0 6 0;
#X connect 5 0 0 0;
#X connect 5 1 7 0;
#X connect 6 0 5 0;
#X connect 9 0 4 0;
#X connect 10 0 0 1;
#X connect 11 0 12 1;
#X connect 11 1 12 0;
#X connect 12 0 4 0;
#X connect 13 0 0 0;
#X connect 13 1 14 0;
#X connect 13 1 15 0;
#X connect 14 0 12 1;
#X connect 15 0 0 0;
