#N canvas 424 78 740 577 10;
#X obj 262 73 inlet;
#X obj 239 470 outlet;
#X obj 434 454 outlet;
#X obj 287 240 list split 1;
#X obj 287 215 list append;
#X obj 288 393 list prepend;
#X obj 279 186 until;
#X obj 265 418 list;
#X msg 214 286 0;
#X msg 243 285 1;
#X obj 227 323 f;
#X obj 222 352 sel 0 1;
#X obj 273 141 t b b a;
#X obj 231 377 t b b;
#X obj 360 361 t l;
#X obj 373 219 t b b;
#X obj 289 285 sel /;
#N canvas 539 24 624 701 checkdupes 0;
#X obj 120 49 inlet;
#X obj 166 141 list fromsymbol;
#X obj 166 99 symbol;
#X obj 194 200 list length;
#X obj 167 174 t l l;
#X obj 215 398 sel 0;
#X obj 227 568 symbol;
#X obj 166 120 t s s b;
#X msg 304 403 1;
#X obj 287 536 list tosymbol;
#X obj 258 606 outlet;
#X obj 127 74 route float;
#X obj 265 456 spigot;
#X obj 194 455 spigot;
#X msg 233 426 0;
#X obj 267 482 list;
#X obj 260 503 list split 1;
#X obj 214 369 == 47;
#X obj 206 334 list-abs/list-drip;
#X connect 0 0 11 0;
#X connect 1 0 4 0;
#X connect 2 0 7 0;
#X connect 4 0 18 0;
#X connect 4 1 3 0;
#X connect 4 1 15 1;
#X connect 5 0 13 0;
#X connect 6 0 10 0;
#X connect 7 0 1 0;
#X connect 7 1 6 1;
#X connect 7 2 8 0;
#X connect 8 0 12 1;
#X connect 8 0 13 1;
#X connect 9 0 6 0;
#X connect 11 0 10 0;
#X connect 11 1 2 0;
#X connect 12 0 15 0;
#X connect 13 0 6 0;
#X connect 13 0 14 0;
#X connect 14 0 13 1;
#X connect 14 0 12 1;
#X connect 15 0 16 0;
#X connect 16 1 9 0;
#X connect 17 0 5 0;
#X connect 18 0 17 0;
#X connect 18 1 12 0;
#X restore 321 317 pd checkdupes;
#X connect 0 0 12 0;
#X connect 3 0 16 0;
#X connect 3 1 4 1;
#X connect 3 2 15 0;
#X connect 4 0 3 0;
#X connect 5 0 7 1;
#X connect 5 0 14 0;
#X connect 6 0 4 0;
#X connect 7 0 1 0;
#X connect 8 0 10 1;
#X connect 9 0 10 1;
#X connect 10 0 11 0;
#X connect 11 0 9 0;
#X connect 11 1 13 0;
#X connect 12 0 6 0;
#X connect 12 1 8 0;
#X connect 12 1 14 0;
#X connect 12 2 4 1;
#X connect 13 0 14 0;
#X connect 13 1 7 0;
#X connect 14 0 5 1;
#X connect 15 0 6 1;
#X connect 15 0 2 0;
#X connect 15 1 7 0;
#X connect 16 0 10 0;
#X connect 16 1 17 0;
#X connect 17 0 5 0;
