#N canvas 467 29 750 476 10;
#X obj 181 249 print result;
#X text 55 86 write streamwrite formatted messages 1 at a time;
#X msg 171 165 reset;
#X text 160 141 clears list;
#X msg 78 157 bang;
#X text 71 140 output list;
#X obj 83 286 print stream;
#X obj 191 290 print done;
#X msg 101 226 1;
#X msg 259 144 1000 hello \, 2000 these \, 3000 will / \, 4000 come
\, 5000 every \, 6000 second;
#X msg 292 114 bang \, this \, is \, list bang 45 \, 45 bang;
#X obj 179 215 ./streamwrite-slow;
#X obj 93 257 ./streamread;
#X connect 2 0 11 0;
#X connect 4 0 11 0;
#X connect 8 0 12 0;
#X connect 9 0 11 1;
#X connect 10 0 11 1;
#X connect 11 0 0 0;
#X connect 11 0 12 1;
#X connect 12 0 6 0;
#X connect 12 1 7 0;
