#N canvas 94 82 698 605 10;
#X declare -lib zexy;
#X obj 278 15 inlet;
#X obj 168 226 list split 1;
#X obj 168 32 inlet;
#X obj 168 451 list append;
#X obj 301 196 inlet;
#X obj 168 401 -;
#X obj 392 340 print;
#X obj 76 511 outlet;
#X obj 168 424 max 0;
#X text 211 426 don't go into negative time;
#X obj 374 102 loadbang;
#X obj 374 148 f \$1;
#X obj 374 179 sel 0;
#X obj 168 333 t f f;
#X msg 89 347 reset;
#X obj 301 223 zexy/nop;
#X obj 392 43 inlet;
#X obj 301 268 * 0.5;
#X obj 168 307 +;
#X obj 267 303 +;
#X obj 168 255 demultiplex 0 1 2;
#X msg 392 320 stream-quant: no message after /;
#X obj 195 375 wrap;
#X obj 456 72 declare -lib zexy;
#X obj 151 115 list;
#X obj 151 136 t l b;
#X obj 152 167 ./stream-drip;
#X obj 75 481 ./streamwrite-slow;
#X connect 0 0 24 1;
#X connect 1 0 20 0;
#X connect 1 1 3 1;
#X connect 1 2 21 0;
#X connect 2 0 24 0;
#X connect 3 0 27 1;
#X connect 4 0 15 0;
#X connect 5 0 8 0;
#X connect 8 0 3 0;
#X connect 10 0 11 0;
#X connect 11 0 12 0;
#X connect 12 1 15 0;
#X connect 13 0 5 0;
#X connect 13 1 22 0;
#X connect 14 0 27 0;
#X connect 15 0 17 0;
#X connect 15 0 19 1;
#X connect 15 0 22 1;
#X connect 16 0 20 1;
#X connect 17 0 18 1;
#X connect 18 0 13 0;
#X connect 19 0 13 0;
#X connect 20 0 18 0;
#X connect 20 1 13 0;
#X connect 20 2 19 0;
#X connect 21 0 6 0;
#X connect 22 0 5 1;
#X connect 24 0 25 0;
#X connect 25 0 26 0;
#X connect 25 1 14 0;
#X connect 26 0 1 0;
#X connect 26 1 27 0;
#X connect 27 0 7 0;
