#N canvas 31 151 450 300 10;
#X obj 357 44 inlet;
#X obj 160 37 inlet;
#X obj 144 235 streamwrite-slow;
#X msg 261 205 reset;
#X obj 360 81 loadbang;
#X obj 360 103 symbol \$1;
#X obj 167 102 text size;
#X obj 173 173 text get;
#X obj 162 137 iterate;
#X obj 153 72 t b b b;
#X obj 184 262 outlet;
#X connect 0 0 5 0;
#X connect 1 0 9 0;
#X connect 2 0 10 0;
#X connect 3 0 2 0;
#X connect 4 0 5 0;
#X connect 5 0 6 1;
#X connect 5 0 7 3;
#X connect 6 0 8 0;
#X connect 7 0 2 1;
#X connect 8 0 7 0;
#X connect 9 0 2 0;
#X connect 9 1 6 0;
#X connect 9 2 3 0;
