#N canvas 549 188 795 596 10;
#X text 34 15 like list-map but for streams;
#X obj 322 130 list split 1;
#X obj 323 180 *;
#X obj 328 216 list;
#X obj 223 214 print mapped;
#X obj 103 116 tgl 15 0 empty empty empty 17 7 0 10 -262144 -1 -1 0
1;
#X obj 138 190 spigot;
#X msg 136 214 1;
#X obj 121 306 print metro'd;
#X text 362 205 transforms the stream into ms from beats;
#X msg 109 72 / 0.25 woohhoo random message / 1 beat units / 1.5 snare
/ 2.5 snare / 3 snare / 4 done;
#X obj 226 149 ./stream-map;
#X obj 134 236 ./streamread;
#X obj 540 66 ./temposet 60 bpm;
#X connect 1 0 2 0;
#X connect 1 1 3 1;
#X connect 1 2 3 0;
#X connect 2 0 3 0;
#X connect 3 0 11 1;
#X connect 5 0 6 1;
#X connect 5 0 12 0;
#X connect 6 0 7 0;
#X connect 7 0 12 0;
#X connect 10 0 11 0;
#X connect 11 0 4 0;
#X connect 11 0 12 1;
#X connect 11 1 1 0;
#X connect 12 0 8 0;
#X connect 12 1 6 0;
#X connect 13 0 2 1;
