#N canvas 674 45 450 300 10;
#X obj 149 31 inlet;
#X obj 269 89 inlet;
#X obj 296 139 symbol \$1;
#X obj 314 87 loadbang;
#X obj 233 202 text delete;
#X obj 141 204 text set;
#X msg 233 153 -1;
#X obj 149 56 t a b;
#X msg 156 182 1e+06;
#X msg 84 158 symbol bang;
#X obj 84 126 route bang;
#X obj 84 96 ./list-delim /;
#X connect 0 0 7 0;
#X connect 1 0 2 0;
#X connect 2 0 4 1;
#X connect 2 0 5 3;
#X connect 3 0 2 0;
#X connect 3 0 8 0;
#X connect 6 0 4 0;
#X connect 7 0 11 0;
#X connect 7 1 6 0;
#X connect 8 0 5 1;
#X connect 9 0 5 0;
#X connect 10 0 9 0;
#X connect 10 1 5 0;
#X connect 11 0 10 0;
