#N canvas 224 23 646 678 10;
#X declare -lib zexy;
#X obj 223 616 outlet;
#X obj 371 515 outlet;
#X obj 298 121 inlet;
#X obj 131 85 inlet;
#N canvas 816 111 624 701 checkdupes 0;
#X obj 120 49 inlet;
#X obj 166 141 list fromsymbol;
#X obj 166 99 symbol;
#X obj 246 231 list length;
#X obj 215 398 sel 0;
#X obj 227 568 symbol;
#X obj 166 120 t s s b;
#X msg 304 403 1;
#X obj 287 536 list tosymbol;
#X obj 258 606 outlet;
#X obj 265 456 spigot;
#X obj 194 455 spigot;
#X msg 233 426 0;
#X obj 267 482 list;
#X obj 260 503 list split 1;
#X obj 214 369 == 47;
#X obj 122 71 route float;
#X obj 167 174 t b l l;
#X obj 206 334 drip;
#X connect 0 0 16 0;
#X connect 1 0 17 0;
#X connect 2 0 6 0;
#X connect 4 0 11 0;
#X connect 5 0 9 0;
#X connect 6 0 1 0;
#X connect 6 1 5 1;
#X connect 6 2 7 0;
#X connect 7 0 10 1;
#X connect 7 0 11 1;
#X connect 8 0 5 0;
#X connect 10 0 13 0;
#X connect 11 0 5 0;
#X connect 11 0 12 0;
#X connect 12 0 11 1;
#X connect 12 0 10 1;
#X connect 13 0 14 0;
#X connect 14 1 8 0;
#X connect 15 0 4 0;
#X connect 16 0 9 0;
#X connect 16 1 2 0;
#X connect 17 0 10 0;
#X connect 17 1 18 0;
#X connect 17 2 3 0;
#X connect 17 2 13 1;
#X connect 18 0 15 0;
#X restore 247 425 pd checkdupes;
#X obj 178 265 list-abs/list-dripslow;
#X obj 305 237 list;
#X obj 168 148 route reset;
#X obj 138 394 sel /;
#X msg 209 333 1;
#X msg 245 334 0;
#X obj 176 237 until;
#X obj 342 356 t b b;
#X obj 226 594 spigot;
#X msg 345 498 0;
#X msg 426 467 1;
#X obj 294 188 t b a;
#X obj 216 402 sel /;
#X obj 209 549 route symbol;
#X obj 218 573 sel bang;
#X obj 201 521 list store;
#X obj 165 461 t b b;
#X obj 215 458 prepender append;
#X obj 278 60 declare -lib zexy;
#X obj 131 361 demultiplex;
#X connect 2 0 10 0;
#X connect 2 0 15 0;
#X connect 2 0 16 0;
#X connect 3 0 7 0;
#X connect 4 0 22 0;
#X connect 5 0 24 0;
#X connect 5 1 12 0;
#X connect 6 0 5 1;
#X connect 7 0 6 0;
#X connect 7 0 10 0;
#X connect 7 0 15 0;
#X connect 7 0 20 1;
#X connect 7 1 11 0;
#X connect 8 1 4 0;
#X connect 9 0 24 1;
#X connect 10 0 24 1;
#X connect 11 0 5 0;
#X connect 12 0 1 0;
#X connect 12 0 14 0;
#X connect 12 1 11 1;
#X connect 12 1 20 0;
#X connect 13 0 0 0;
#X connect 14 0 13 1;
#X connect 15 0 13 1;
#X connect 16 0 6 0;
#X connect 16 0 20 1;
#X connect 16 1 6 1;
#X connect 17 0 11 1;
#X connect 17 0 21 0;
#X connect 17 1 4 0;
#X connect 18 0 19 0;
#X connect 18 1 13 0;
#X connect 19 0 13 0;
#X connect 19 1 13 0;
#X connect 20 0 18 0;
#X connect 21 0 20 1;
#X connect 21 1 20 0;
#X connect 22 0 20 0;
#X connect 24 0 8 0;
#X connect 24 0 9 0;
#X connect 24 1 17 0;
