#N canvas 718 35 645 572 10;
#X obj 287 87 inlet;
#X obj 148 65 inlet;
#X obj 164 431 outlet;
#X obj 359 415 outlet;
#X obj 153 90 route reset;
#X obj 212 201 list split 1;
#X obj 212 176 list append;
#X obj 206 126 bang;
#X obj 214 246 sel k;
#X obj 307 294 list;
#X obj 243 316 list prepend;
#X obj 207 148 until;
#X obj 193 367 list;
#X msg 139 247 0;
#X msg 168 246 1;
#X obj 152 284 f;
#X obj 147 313 sel 0 1;
#X obj 156 338 t b b b;
#X msg 332 236 0;
#X msg 361 235 1;
#X obj 338 272 f;
#X obj 340 302 sel 0 1;
#X obj 330 144 bang;
#X obj 272 142 list;
#X obj 251 117 bang;
#X obj 282 236 t b b;
#X connect 0 0 6 1;
#X connect 0 0 13 0;
#X connect 0 0 18 0;
#X connect 0 0 22 0;
#X connect 0 0 23 1;
#X connect 1 0 4 0;
#X connect 4 0 13 0;
#X connect 4 0 18 0;
#X connect 4 0 24 0;
#X connect 4 1 7 0;
#X connect 5 0 8 0;
#X connect 5 1 6 1;
#X connect 5 2 25 0;
#X connect 6 0 5 0;
#X connect 7 0 11 0;
#X connect 8 0 15 0;
#X connect 8 1 10 0;
#X connect 9 0 10 1;
#X connect 10 0 9 0;
#X connect 10 0 12 1;
#X connect 11 0 6 0;
#X connect 12 0 2 0;
#X connect 13 0 15 1;
#X connect 14 0 15 1;
#X connect 15 0 16 0;
#X connect 16 0 14 0;
#X connect 16 1 17 0;
#X connect 17 0 11 1;
#X connect 17 1 9 0;
#X connect 17 2 12 0;
#X connect 18 0 20 1;
#X connect 19 0 20 1;
#X connect 20 0 21 0;
#X connect 21 0 19 0;
#X connect 21 0 12 0;
#X connect 21 1 3 0;
#X connect 22 0 9 0;
#X connect 23 0 6 1;
#X connect 24 0 23 0;
#X connect 24 0 9 0;
#X connect 25 0 11 1;
#X connect 25 1 20 0;
