#N canvas 760 320 544 426 10;
#X obj 153 124 inlet;
#X obj 305 128 inlet;
#X obj 145 151 route reset;
#X obj 185 275 list;
#X obj 235 193 list prepend k;
#X obj 244 246 list prepend;
#X obj 319 222 list;
#X obj 198 305 outlet;
#X connect 0 0 2 0;
#X connect 1 0 4 0;
#X connect 2 0 6 0;
#X connect 2 0 3 1;
#X connect 2 1 3 0;
#X connect 3 0 7 0;
#X connect 4 0 5 0;
#X connect 5 0 6 0;
#X connect 5 0 3 1;
#X connect 6 0 5 1;
