#N canvas 875 37 458 430 10;
#X obj 96 43 inlet;
#X obj 285 62 inlet;
#X obj 161 362 outlet;
#X obj 178 289 outlet;
#X obj 161 327 list;
#X obj 285 225 list prepend;
#X obj 96 68 route bang;
#X obj 96 93 b;
#X obj 161 94 t b a;
#X obj 161 134 list;
#X obj 286 93 list prepend k;
#X obj 178 248 streamread-slow;
#X obj 179 212 until;
#X obj 161 165 t b b a b;
#X obj 321 136 t a;
#X connect 0 0 6 0;
#X connect 1 0 10 0;
#X connect 4 0 2 0;
#X connect 5 0 14 0;
#X connect 5 0 4 1;
#X connect 6 0 7 0;
#X connect 6 1 8 0;
#X connect 7 0 9 0;
#X connect 8 0 9 0;
#X connect 8 1 9 1;
#X connect 9 0 13 0;
#X connect 10 0 5 0;
#X connect 11 0 3 0;
#X connect 11 1 12 1;
#X connect 12 0 11 0;
#X connect 13 0 4 0;
#X connect 13 1 12 0;
#X connect 13 2 4 1;
#X connect 13 2 11 1;
#X connect 13 3 5 1;
#X connect 14 0 5 1;
