#N canvas 760 320 544 426 10;
#X declare -stdlib zexy;
#X obj 153 124 inlet;
#X obj 305 128 inlet;
#X obj 145 151 route reset;
#X obj 185 275 list;
#X obj 244 246 list prepend;
#X obj 198 305 outlet;
#X obj 235 193 list prepend /;
#X obj 319 222 t l;
#N canvas 614 160 651 593 checkdupes 0;
#X obj 191 6 inlet;
#X obj 246 556 outlet;
#X obj 238 180 symbol;
#X obj 316 459 t l;
#X obj 247 486 list prepend;
#X obj 190 34 t b a b;
#X obj 239 226 list fromsymbol;
#X obj 252 301 == 47;
#X obj 250 408 symbol;
#X obj 223 202 t b s b s;
#X obj 258 333 sel 0;
#X obj 251 356 spigot;
#X msg 316 314 0;
#X msg 324 285 1;
#X obj 241 249 t l l;
#X obj 246 438 makefilename;
#X msg 306 412 set %s;
#X obj 193 141 route float;
#X obj 333 351 spigot;
#X obj 248 385 t b b;
#X obj 326 373 t b b;
#X msg 364 407 set /%s;
#X obj 236 520 list;
#X msg 219 94 symbol bang;
#X obj 210 71 route bang;
#X obj 244 273 drip;
#X obj 227 115 drip;
#X connect 0 0 5 0;
#X connect 2 0 9 0;
#X connect 3 0 4 1;
#X connect 4 0 3 0;
#X connect 4 0 22 1;
#X connect 5 0 22 0;
#X connect 5 1 24 0;
#X connect 5 2 4 1;
#X connect 6 0 14 0;
#X connect 7 0 10 0;
#X connect 8 0 15 0;
#X connect 9 0 18 0;
#X connect 9 1 6 0;
#X connect 9 2 13 0;
#X connect 9 3 8 1;
#X connect 10 0 11 0;
#X connect 11 0 12 0;
#X connect 11 0 19 0;
#X connect 12 0 11 1;
#X connect 12 0 18 1;
#X connect 13 0 11 1;
#X connect 13 0 18 1;
#X connect 14 0 25 0;
#X connect 15 0 4 0;
#X connect 16 0 15 0;
#X connect 17 0 4 0;
#X connect 17 1 2 0;
#X connect 18 0 20 0;
#X connect 19 0 8 0;
#X connect 19 1 16 0;
#X connect 20 0 8 0;
#X connect 20 1 21 0;
#X connect 21 0 15 0;
#X connect 22 0 1 0;
#X connect 23 0 26 0;
#X connect 24 0 23 0;
#X connect 24 1 26 0;
#X connect 25 0 7 0;
#X connect 26 0 17 0;
#X restore 247 168 pd checkdupes;
#X obj 264 71 declare -stdlib zexy;
#X connect 0 0 2 0;
#X connect 1 0 8 0;
#X connect 2 0 3 1;
#X connect 2 0 4 1;
#X connect 2 1 3 0;
#X connect 3 0 5 0;
#X connect 4 0 3 1;
#X connect 4 0 7 0;
#X connect 6 0 4 0;
#X connect 7 0 4 1;
#X connect 8 0 6 0;
