#N canvas 473 130 567 508 10;
#X declare -lib zexy;
#X obj 37 4 inlet;
#X obj 67 426 outlet;
#X obj 38 79 sel 0 1;
#X obj 222 44 inlet;
#X obj 146 434 outlet;
#X obj 76 379 list trim;
#X obj 76 108 t b b;
#X obj 148 109 spigot;
#X obj 38 52 t f f;
#X obj 147 364 f;
#X obj 69 270 t l b;
#X obj 155 130 t a b;
#X obj 73 348 spigot;
#X obj 156 317 ekext/cup;
#X obj 77 177 list prepend /;
#X obj 76 151 timer \$1 \$2;
#X obj 51 244 list store;
#X obj 311 145 declare -lib zexy;
#X obj 16 27 relay tempo;
#X obj 76 215 ./prepender append;
#X obj 162 153 ./list-relim /;
#X obj 156 262 f 1;
#X obj 126 297 f 0;
#X connect 0 0 18 0;
#X connect 2 0 16 0;
#X connect 2 1 6 0;
#X connect 3 0 7 0;
#X connect 5 0 1 0;
#X connect 6 0 15 0;
#X connect 6 1 16 1;
#X connect 6 1 21 0;
#X connect 6 1 22 0;
#X connect 7 0 11 0;
#X connect 8 0 2 0;
#X connect 8 1 7 1;
#X connect 9 0 4 0;
#X connect 9 0 12 1;
#X connect 10 0 12 0;
#X connect 10 1 9 0;
#X connect 11 0 20 0;
#X connect 11 1 15 1;
#X connect 11 1 13 0;
#X connect 12 0 5 0;
#X connect 13 0 9 1;
#X connect 14 0 19 0;
#X connect 15 0 14 0;
#X connect 16 0 10 0;
#X connect 18 0 15 0;
#X connect 18 1 8 0;
#X connect 19 0 16 0;
#X connect 20 0 19 0;
#X connect 21 0 13 0;
#X connect 22 0 9 1;
