#N canvas 473 130 567 508 10;
#X declare -lib zexy;
#X obj 37 4 inlet;
#X obj 67 426 outlet;
#X obj 38 79 sel 0 1;
#X obj 222 44 inlet;
#X obj 146 434 outlet;
#X obj 76 379 list trim;
#X obj 76 108 t b b;
#X obj 148 109 spigot;
#X obj 38 52 t f f;
#X obj 147 364 f;
#X msg 234 254 1;
#X obj 69 270 t l b;
#X obj 146 256 bang;
#X obj 155 130 t a b;
#X obj 73 348 spigot;
#X msg 202 253 0;
#X obj 156 317 ekext/cup;
#X obj 77 177 list prepend /;
#N canvas 777 138 651 593 checkdupes 0;
#X obj 191 6 inlet;
#X obj 246 556 outlet;
#X obj 238 180 symbol;
#X obj 247 486 list prepend;
#X obj 190 34 t b a b;
#X obj 239 226 list fromsymbol;
#X obj 252 301 == 47;
#X obj 250 408 symbol;
#X obj 223 202 t b s b s;
#X obj 258 333 sel 0;
#X obj 251 356 spigot;
#X msg 316 314 0;
#X msg 324 285 1;
#X obj 246 438 makefilename;
#X msg 306 412 set %s;
#X obj 193 141 route float;
#X obj 333 351 spigot;
#X obj 248 385 t b b;
#X obj 326 373 t b b;
#X msg 364 407 set /%s;
#X obj 236 520 list;
#X msg 219 94 symbol bang;
#X obj 210 71 route bang;
#X obj 227 115 drip;
#X obj 244 273 drip;
#X obj 316 459 zexy/nop;
#X connect 0 0 4 0;
#X connect 2 0 8 0;
#X connect 3 0 20 1;
#X connect 3 0 25 0;
#X connect 4 0 20 0;
#X connect 4 1 22 0;
#X connect 4 2 3 1;
#X connect 5 0 24 0;
#X connect 6 0 9 0;
#X connect 7 0 13 0;
#X connect 8 0 16 0;
#X connect 8 1 5 0;
#X connect 8 2 12 0;
#X connect 8 3 7 1;
#X connect 9 0 10 0;
#X connect 10 0 11 0;
#X connect 10 0 17 0;
#X connect 11 0 10 1;
#X connect 11 0 16 1;
#X connect 12 0 10 1;
#X connect 12 0 16 1;
#X connect 13 0 3 0;
#X connect 14 0 13 0;
#X connect 15 0 3 0;
#X connect 15 1 2 0;
#X connect 16 0 18 0;
#X connect 17 0 7 0;
#X connect 17 1 14 0;
#X connect 18 0 7 0;
#X connect 18 1 19 0;
#X connect 19 0 13 0;
#X connect 20 0 1 0;
#X connect 21 0 23 0;
#X connect 22 0 21 0;
#X connect 22 1 23 0;
#X connect 23 0 15 0;
#X connect 24 0 6 0;
#X connect 25 0 3 1;
#X restore 162 153 pd checkdupes;
#X obj 76 151 timer \$1 \$2;
#X obj 51 244 list store;
#X obj 76 215 prepender append;
#X obj 311 145 declare -lib zexy;
#X obj 16 27 relay tempo;
#X connect 0 0 23 0;
#X connect 2 0 20 0;
#X connect 2 1 6 0;
#X connect 3 0 7 0;
#X connect 5 0 1 0;
#X connect 6 0 19 0;
#X connect 6 1 10 0;
#X connect 6 1 15 0;
#X connect 6 1 20 1;
#X connect 7 0 13 0;
#X connect 8 0 2 0;
#X connect 8 1 7 1;
#X connect 9 0 4 0;
#X connect 9 0 14 1;
#X connect 10 0 16 0;
#X connect 11 0 14 0;
#X connect 11 1 9 0;
#X connect 12 0 16 0;
#X connect 13 0 18 0;
#X connect 13 1 19 1;
#X connect 14 0 5 0;
#X connect 15 0 9 1;
#X connect 16 0 9 1;
#X connect 17 0 21 0;
#X connect 18 0 21 0;
#X connect 19 0 12 0;
#X connect 19 0 17 0;
#X connect 20 0 11 0;
#X connect 21 0 20 0;
#X connect 23 0 19 0;
#X connect 23 1 8 0;
