#N canvas 38 204 458 430 10;
#X declare -lib zexy;
#X obj 96 43 inlet;
#X obj 285 62 inlet;
#X obj 112 315 outlet;
#X obj 214 274 outlet;
#X obj 96 68 route bang;
#X obj 161 94 t b a;
#X obj 161 134 list;
#X obj 285 134 list prepend /;
#N canvas 386 126 651 593 checkdupes 0;
#X obj 196 22 inlet;
#X obj 246 556 outlet;
#X obj 238 180 symbol;
#X obj 247 486 list prepend;
#X obj 195 50 t b a b;
#X obj 239 226 list fromsymbol;
#X obj 250 408 symbol;
#X obj 223 202 t b s b s;
#X obj 251 356 spigot;
#X msg 316 314 0;
#X msg 336 284 1;
#X obj 246 438 makefilename;
#X msg 306 412 set %s;
#X obj 193 141 route float;
#X obj 333 351 spigot;
#X obj 248 385 t b b;
#X obj 326 373 t b b;
#X msg 364 407 set /%s;
#X obj 236 520 list;
#X obj 179 86 route bang;
#X obj 227 115 drip;
#X obj 244 253 drip;
#X obj 316 459 zexy/nop;
#X obj 241 283 ./bangif != 47;
#X connect 0 0 4 0;
#X connect 2 0 7 0;
#X connect 3 0 18 1;
#X connect 3 0 22 0;
#X connect 4 0 18 0;
#X connect 4 1 19 0;
#X connect 4 2 3 1;
#X connect 5 0 21 0;
#X connect 6 0 11 0;
#X connect 7 0 14 0;
#X connect 7 1 5 0;
#X connect 7 2 10 0;
#X connect 7 3 6 1;
#X connect 8 0 9 0;
#X connect 8 0 15 0;
#X connect 9 0 8 1;
#X connect 9 0 14 1;
#X connect 10 0 8 1;
#X connect 10 0 14 1;
#X connect 11 0 3 0;
#X connect 12 0 11 0;
#X connect 13 0 3 0;
#X connect 13 1 2 0;
#X connect 14 0 16 0;
#X connect 15 0 6 0;
#X connect 15 1 12 0;
#X connect 16 0 6 0;
#X connect 16 1 17 0;
#X connect 17 0 11 0;
#X connect 18 0 1 0;
#X connect 19 0 3 0;
#X connect 19 1 20 0;
#X connect 20 0 13 0;
#X connect 21 0 23 0;
#X connect 22 0 3 1;
#X connect 23 0 8 0;
#X restore 271 94 pd checkdupes;
#X obj 107 274 list store;
#X obj 206 33 declare -lib zexy;
#X obj 161 165 t a b;
#X obj 214 233 ./stream-drip;
#X obj 272 189 ./prepender append;
#X connect 0 0 4 0;
#X connect 1 0 8 0;
#X connect 4 0 6 0;
#X connect 4 1 5 0;
#X connect 5 0 6 0;
#X connect 5 1 6 1;
#X connect 6 0 11 0;
#X connect 7 0 13 0;
#X connect 8 0 7 0;
#X connect 9 0 2 0;
#X connect 11 0 12 0;
#X connect 11 1 9 1;
#X connect 12 0 3 0;
#X connect 12 1 9 0;
#X connect 13 0 9 0;
