#N canvas 224 23 646 678 10;
#X obj 223 616 outlet;
#X obj 371 515 outlet;
#X obj 298 121 inlet;
#X obj 131 85 inlet;
#X obj 248 493 list prepend;
#X obj 215 525 list;
#X obj 317 470 t l;
#N canvas 824 111 624 701 checkdupes 0;
#X obj 120 49 inlet;
#X obj 166 141 list fromsymbol;
#X obj 166 99 symbol;
#X obj 194 200 list length;
#X obj 167 174 t l l;
#X obj 215 398 sel 0;
#X obj 227 568 symbol;
#X obj 166 120 t s s b;
#X msg 304 403 1;
#X obj 287 536 list tosymbol;
#X obj 258 606 outlet;
#X obj 265 456 spigot;
#X obj 194 455 spigot;
#X msg 233 426 0;
#X obj 267 482 list;
#X obj 260 503 list split 1;
#X obj 214 369 == 47;
#X obj 206 334 list-abs/list-drip;
#X obj 122 71 route float;
#X connect 0 0 18 0;
#X connect 1 0 4 0;
#X connect 2 0 7 0;
#X connect 4 0 17 0;
#X connect 4 1 3 0;
#X connect 4 1 14 1;
#X connect 5 0 12 0;
#X connect 6 0 10 0;
#X connect 7 0 1 0;
#X connect 7 1 6 1;
#X connect 7 2 8 0;
#X connect 8 0 11 1;
#X connect 8 0 12 1;
#X connect 9 0 6 0;
#X connect 11 0 14 0;
#X connect 12 0 6 0;
#X connect 12 0 13 0;
#X connect 13 0 12 1;
#X connect 13 0 11 1;
#X connect 14 0 15 0;
#X connect 15 1 9 0;
#X connect 16 0 5 0;
#X connect 17 0 16 0;
#X connect 17 1 11 0;
#X connect 18 0 10 0;
#X connect 18 1 2 0;
#X restore 253 449 pd checkdupes;
#X obj 178 265 list-abs/list-dripslow;
#X obj 301 237 list;
#X obj 168 148 route reset;
#X obj 131 361 zexy/demultiplex;
#X obj 138 394 sel /;
#X msg 209 333 1;
#X msg 245 334 0;
#X obj 176 237 until;
#X obj 342 356 t b b;
#X obj 226 594 spigot;
#X msg 345 498 0;
#X msg 426 467 1;
#X obj 294 188 t b a;
#X obj 218 403 sel /;
#X obj 209 549 route symbol;
#X obj 218 573 sel bang;
#X connect 2 0 14 0;
#X connect 2 0 19 0;
#X connect 2 0 20 0;
#X connect 3 0 10 0;
#X connect 4 0 6 0;
#X connect 4 0 5 1;
#X connect 5 0 22 0;
#X connect 6 0 4 1;
#X connect 7 0 4 0;
#X connect 8 0 11 0;
#X connect 8 1 16 0;
#X connect 9 0 8 1;
#X connect 10 0 9 0;
#X connect 10 0 14 0;
#X connect 10 0 19 0;
#X connect 10 0 4 1;
#X connect 10 0 5 1;
#X connect 10 1 15 0;
#X connect 11 0 12 0;
#X connect 11 0 13 0;
#X connect 11 1 21 0;
#X connect 12 1 7 0;
#X connect 13 0 11 1;
#X connect 14 0 11 1;
#X connect 15 0 8 0;
#X connect 16 0 1 0;
#X connect 16 0 18 0;
#X connect 16 1 5 0;
#X connect 16 1 15 1;
#X connect 17 0 0 0;
#X connect 18 0 17 1;
#X connect 19 0 17 1;
#X connect 20 0 9 0;
#X connect 20 0 4 1;
#X connect 20 0 5 1;
#X connect 20 1 9 1;
#X connect 21 0 5 0;
#X connect 21 0 4 1;
#X connect 21 0 15 1;
#X connect 21 1 7 0;
#X connect 22 0 23 0;
#X connect 22 1 17 0;
#X connect 23 0 17 0;
#X connect 23 1 17 0;
