#N canvas 331 71 905 642 10;
#X obj 422 152 random 50;
#X text 432 84 start stream;
#X text 197 173 write automation;
#X obj 307 172 tgl 15 0 empty empty empty 17 7 0 10 -262144 -1 -1 0
1;
#X obj 291 294 spigot;
#X obj 320 272 tgl 15 0 empty empty empty 17 7 0 10 -262144 -1 -1 0
1;
#X msg 255 152 0;
#X text 135 151 0 outputs last list;
#X floatatom 516 172 5 0 0 0 - - -, f 5;
#X text 504 141 (turn off and use this instead);
#X obj 419 107 tgl 15 0 empty empty empty 17 7 0 10 -262144 -1 -1 1
1;
#X text 4 92 left outlet: the list after 0 is received in the left
inlet right outlet: the overall number of events;
#X obj 295 326 print;
#X obj 413 60 loadbang;
#X text 339 324 this can clog up the console;
#X floatatom 368 236 5 0 0 0 - - -, f 5;
#X text 414 239 number of events in list;
#X msg 352 148 gertrude;
#X text 138 57 record a series of timestamp-events;
#X text 168 293 play back;
#X obj 270 378 print done;
#X obj 428 125 metro 300;
#X obj 305 205 streamwrite;
#X text 326 407 every event has the format: k <time in ms (1 float)>
<whatever the event was>;
#X msg 271 125 this is a longer thing;
#X obj 230 313 list;
#X msg 228 259 bang;
#X obj 171 348 stream-drip;
#X text 505 45 stream-drip just serializes a stream and strips the
"k"s from it;
#X obj 183 492 list prepend add;
#X obj 176 385 list split 1;
#X obj 185 418 t f f;
#X obj 185 444 -;
#X obj 186 468 list;
#X obj 234 282 t b b;
#X msg 240 416 0;
#X obj 160 565 print toqlist;
#X obj 178 529 list trim;
#X connect 0 0 22 1;
#X connect 3 0 22 0;
#X connect 4 0 12 0;
#X connect 4 0 25 1;
#X connect 5 0 4 1;
#X connect 6 0 22 0;
#X connect 8 0 22 1;
#X connect 10 0 21 0;
#X connect 13 0 10 0;
#X connect 17 0 22 1;
#X connect 21 0 0 0;
#X connect 22 0 4 0;
#X connect 22 1 15 0;
#X connect 24 0 22 1;
#X connect 25 0 27 0;
#X connect 26 0 34 0;
#X connect 27 0 30 0;
#X connect 27 1 20 0;
#X connect 29 0 37 0;
#X connect 30 0 31 0;
#X connect 30 1 33 1;
#X connect 31 0 32 1;
#X connect 31 1 32 0;
#X connect 32 0 33 0;
#X connect 33 0 29 0;
#X connect 34 0 25 0;
#X connect 34 1 35 0;
#X connect 35 0 32 1;
#X connect 37 0 36 0;
