#N canvas 841 102 514 480 10;
#X declare -lib zexy;
#X obj 42 62 sel 0 1;
#X obj 69 170 list split 1;
#X obj 79 326 list;
#X obj 72 430 outlet;
#X obj 122 388 outlet;
#X msg 35 203 stop;
#X obj 156 25 inlet;
#X obj 70 203 t f f;
#X obj 74 229 -;
#X obj 69 87 t b b;
#X msg 108 203 0;
#X msg 81 117 reset;
#X text 65 453 vals;
#X text 132 413 done;
#X obj 51 273 t b b;
#X obj 47 315 f;
#X obj 46 348 sel 0 1;
#X msg 163 216 1;
#X msg 155 250 0;
#X obj 74 252 del 0 \$1 \$2;
#X obj 41 9 inlet;
#X obj 24 377 route symbol;
#X obj 23 400 sel bang;
#X obj 245 135 declare -lib zexy;
#X obj 10 37 relay tempo;
#X obj 69 142 ./streamread-slow;
#X connect 0 0 5 0;
#X connect 0 1 9 0;
#X connect 1 0 7 0;
#X connect 1 1 2 1;
#X connect 2 0 21 0;
#X connect 5 0 19 0;
#X connect 6 0 25 1;
#X connect 7 0 8 1;
#X connect 7 1 8 0;
#X connect 8 0 19 0;
#X connect 9 0 25 0;
#X connect 9 1 10 0;
#X connect 9 1 11 0;
#X connect 9 1 18 0;
#X connect 10 0 8 1;
#X connect 11 0 25 0;
#X connect 14 0 15 0;
#X connect 14 1 2 0;
#X connect 15 0 16 0;
#X connect 16 0 25 0;
#X connect 16 1 4 0;
#X connect 17 0 15 1;
#X connect 18 0 15 1;
#X connect 19 0 14 0;
#X connect 20 0 24 0;
#X connect 21 0 22 0;
#X connect 21 1 3 0;
#X connect 22 0 3 0;
#X connect 22 1 3 0;
#X connect 24 0 19 0;
#X connect 24 1 0 0;
#X connect 25 0 1 0;
#X connect 25 1 17 0;
