#N canvas 814 151 567 508 10;
#X obj 37 23 inlet;
#X obj 67 426 outlet;
#X obj 38 79 sel 0 1;
#X obj 205 166 list;
#X obj 78 212 list prepend;
#X obj 222 44 inlet;
#X obj 58 246 list;
#X obj 146 434 outlet;
#X obj 76 379 list trim;
#X obj 76 108 t b b;
#X obj 148 109 spigot;
#X obj 76 151 timer;
#X obj 38 52 t f f;
#X obj 156 317 cup;
#X obj 147 364 f;
#X msg 234 254 1;
#X obj 69 270 t l b;
#X obj 146 256 bang;
#X obj 145 133 t a b;
#X obj 77 177 list prepend k;
#X obj 73 348 spigot;
#X msg 202 253 0;
#X connect 0 0 12 0;
#X connect 2 0 6 0;
#X connect 2 1 9 0;
#X connect 3 0 4 1;
#X connect 4 0 3 0;
#X connect 4 0 6 1;
#X connect 5 0 10 0;
#X connect 6 0 16 0;
#X connect 8 0 1 0;
#X connect 9 0 11 0;
#X connect 9 1 3 0;
#X connect 9 1 15 0;
#X connect 9 1 6 1;
#X connect 9 1 21 0;
#X connect 10 0 18 0;
#X connect 11 0 17 0;
#X connect 11 0 19 0;
#X connect 12 0 2 0;
#X connect 12 1 10 1;
#X connect 13 0 14 1;
#X connect 14 0 7 0;
#X connect 14 0 20 1;
#X connect 15 0 13 0;
#X connect 16 0 20 0;
#X connect 16 1 14 0;
#X connect 17 0 13 0;
#X connect 18 0 4 0;
#X connect 18 1 11 1;
#X connect 19 0 4 0;
#X connect 20 0 8 0;
#X connect 21 0 14 1;
