#N canvas 875 37 458 430 10;
#X obj 96 43 inlet;
#X obj 285 62 inlet;
#X obj 161 362 outlet;
#X obj 178 289 outlet;
#X obj 161 327 list;
#X obj 285 225 list prepend;
#X obj 96 68 route bang;
#X obj 96 93 b;
#X obj 161 94 t b a;
#X obj 161 134 list;
#X obj 179 212 until;
#X obj 161 165 t b b a b;
#X obj 341 195 t a;
#X obj 285 134 list prepend /;
#N canvas 379 121 651 593 checkdupes 0;
#X obj 196 22 inlet;
#X obj 246 556 outlet;
#X obj 227 115 zexy/drip;
#X obj 238 180 symbol;
#X obj 316 459 t l;
#X obj 247 486 list prepend;
#X obj 195 50 t b a b;
#X obj 239 226 list fromsymbol;
#X obj 244 273 zexy/drip;
#X obj 252 301 == 47;
#X obj 250 408 symbol;
#X obj 223 202 t b s b s;
#X obj 258 333 sel 0;
#X obj 251 356 spigot;
#X msg 316 314 0;
#X msg 324 285 1;
#X obj 241 249 t l l;
#X obj 246 438 makefilename;
#X msg 306 412 set %s;
#X obj 193 141 route float;
#X obj 333 351 spigot;
#X obj 248 385 t b b;
#X obj 326 373 t b b;
#X msg 364 407 set /%s;
#X obj 236 520 list;
#X obj 179 86 route bang;
#X connect 0 0 6 0;
#X connect 2 0 19 0;
#X connect 3 0 11 0;
#X connect 4 0 5 1;
#X connect 5 0 4 0;
#X connect 5 0 24 1;
#X connect 6 0 24 0;
#X connect 6 1 25 0;
#X connect 6 2 5 1;
#X connect 7 0 16 0;
#X connect 8 0 9 0;
#X connect 9 0 12 0;
#X connect 10 0 17 0;
#X connect 11 0 20 0;
#X connect 11 1 7 0;
#X connect 11 2 15 0;
#X connect 11 3 10 1;
#X connect 12 0 13 0;
#X connect 13 0 14 0;
#X connect 13 0 21 0;
#X connect 14 0 13 1;
#X connect 14 0 20 1;
#X connect 15 0 13 1;
#X connect 15 0 20 1;
#X connect 16 0 8 0;
#X connect 17 0 5 0;
#X connect 18 0 17 0;
#X connect 19 0 5 0;
#X connect 19 1 3 0;
#X connect 20 0 22 0;
#X connect 21 0 10 0;
#X connect 21 1 18 0;
#X connect 22 0 10 0;
#X connect 22 1 23 0;
#X connect 23 0 17 0;
#X connect 24 0 1 0;
#X connect 25 0 5 0;
#X connect 25 1 2 0;
#X restore 271 94 pd checkdupes;
#X obj 178 248 streamread-slow;
#X connect 0 0 6 0;
#X connect 1 0 14 0;
#X connect 4 0 2 0;
#X connect 5 0 12 0;
#X connect 5 0 4 1;
#X connect 6 0 7 0;
#X connect 6 1 8 0;
#X connect 7 0 9 0;
#X connect 8 0 9 0;
#X connect 8 1 9 1;
#X connect 9 0 11 0;
#X connect 10 0 15 0;
#X connect 11 0 4 0;
#X connect 11 1 10 0;
#X connect 11 2 4 1;
#X connect 11 2 15 1;
#X connect 11 3 5 1;
#X connect 12 0 5 1;
#X connect 13 0 5 0;
#X connect 14 0 13 0;
#X connect 15 0 3 0;
#X connect 15 1 10 1;
