#N canvas 311 160 458 430 10;
#X declare -lib zexy;
#X obj 96 43 inlet;
#X obj 285 62 inlet;
#X obj 112 315 outlet;
#X obj 214 274 outlet;
#X obj 96 68 route bang;
#X obj 161 94 t b a;
#X obj 161 134 list;
#X obj 285 134 list prepend /;
#X obj 107 274 list store;
#X obj 206 33 declare -lib zexy;
#X obj 161 165 t a b;
#X obj 214 233 ./stream-drip;
#X obj 272 189 ./prepender append;
#X obj 271 94 ./list-relim /;
#X connect 0 0 4 0;
#X connect 1 0 13 0;
#X connect 4 0 6 0;
#X connect 4 1 5 0;
#X connect 5 0 6 0;
#X connect 5 1 6 1;
#X connect 6 0 10 0;
#X connect 7 0 12 0;
#X connect 8 0 2 0;
#X connect 10 0 11 0;
#X connect 10 1 8 1;
#X connect 11 0 3 0;
#X connect 11 1 8 0;
#X connect 12 0 8 0;
#X connect 13 0 7 0;
