#N canvas 120 51 646 678 10;
#X declare -lib zexy;
#X obj 223 616 outlet;
#X obj 371 515 outlet;
#X obj 298 121 inlet;
#X obj 131 85 inlet;
#X obj 178 265 list-abs/list-dripslow;
#X obj 305 237 list;
#X obj 168 148 route reset;
#X obj 138 394 sel /;
#X msg 209 333 1;
#X msg 245 334 0;
#X obj 176 237 until;
#X obj 342 356 t b b;
#X obj 226 594 spigot;
#X msg 345 498 0;
#X msg 426 467 1;
#X obj 294 188 t b a;
#X obj 216 402 sel /;
#X obj 209 549 route symbol;
#X obj 218 573 sel bang;
#X obj 201 521 list store;
#X obj 165 461 t b b;
#X obj 215 458 prepender append;
#X obj 278 60 declare -lib zexy;
#X obj 131 361 demultiplex;
#X obj 247 425 ./list-delim /;
#X connect 2 0 9 0;
#X connect 2 0 14 0;
#X connect 2 0 15 0;
#X connect 3 0 6 0;
#X connect 4 0 23 0;
#X connect 4 1 11 0;
#X connect 5 0 4 1;
#X connect 6 0 5 0;
#X connect 6 0 9 0;
#X connect 6 0 14 0;
#X connect 6 0 19 1;
#X connect 6 1 10 0;
#X connect 7 1 24 0;
#X connect 8 0 23 1;
#X connect 9 0 23 1;
#X connect 10 0 4 0;
#X connect 11 0 1 0;
#X connect 11 0 13 0;
#X connect 11 1 10 1;
#X connect 11 1 19 0;
#X connect 12 0 0 0;
#X connect 13 0 12 1;
#X connect 14 0 12 1;
#X connect 15 0 5 0;
#X connect 15 0 19 1;
#X connect 15 1 5 1;
#X connect 16 0 10 1;
#X connect 16 0 20 0;
#X connect 16 1 24 0;
#X connect 17 0 18 0;
#X connect 17 1 12 0;
#X connect 18 0 12 0;
#X connect 18 1 12 0;
#X connect 19 0 17 0;
#X connect 20 0 19 1;
#X connect 20 1 19 0;
#X connect 21 0 19 0;
#X connect 23 0 7 0;
#X connect 23 0 8 0;
#X connect 23 1 16 0;
#X connect 24 0 21 0;
