#N canvas 545 104 305 410 10;
#X obj 48 105 inlet;
#X obj 251 99 inlet;
#X obj 215 44 loadbang;
#X obj 195 237 /;
#X obj 242 189 f \$1;
#X obj 215 163 f \$2;
#X obj 215 135 t b b;
#X obj 48 376 outlet;
#X obj 242 216 if 0 1;
#X msg 96 215 0;
#X obj 48 173 t b b;
#X obj 96 12 inlet;
#X obj 195 93 t b f;
#X obj 63 349 sel;
#X obj 48 321 ekext/cup;
#X obj 96 43 route clear tempo;
#X msg 75 296 0;
#X obj 242 247 - 1;
#X obj 48 272 ./upmet \$2 \$3 \$4;
#X obj 145 69 ./prepender tempo;
#X connect 0 0 10 0;
#X connect 1 0 5 0;
#X connect 2 0 6 0;
#X connect 3 0 18 1;
#X connect 4 0 8 0;
#X connect 5 0 3 0;
#X connect 6 0 5 0;
#X connect 6 1 4 0;
#X connect 8 0 3 1;
#X connect 8 0 17 0;
#X connect 9 0 18 0;
#X connect 10 0 18 0;
#X connect 10 1 16 0;
#X connect 11 0 15 0;
#X connect 12 0 3 0;
#X connect 12 1 4 0;
#X connect 13 0 9 0;
#X connect 14 0 13 0;
#X connect 14 0 7 0;
#X connect 15 0 9 0;
#X connect 15 1 19 0;
#X connect 15 2 12 0;
#X connect 16 0 14 0;
#X connect 17 0 13 1;
#X connect 18 0 14 0;
#X connect 19 0 18 0;
