#N canvas 174 67 638 315 10;
#X obj 60 222 hradio 15 1 0 7 empty empty empty 0 -8 0 10 #fcfcfc #000000
#000000 0;
#X obj 15 142 bng 15 250 50 0 empty empty empty 17 7 0 10 #fcfcfc #000000
#000000;
#X floatatom 14 222 5 0 0 0 - - - 0;
#X obj 27 77 tgl 15 0 empty empty empty 17 7 0 10 #fcfcfc #000000 #000000
0 1;
#X msg 198 112 clear;
#X text 240 112 cancel subdivision output from current bang;
#X text 226 158 first inlet is bang \, 2nd (and 1st arg) is how many
subdivisions to make \, 3rd (and 2nd arg) is the time frame of the
macro beat in tempo \, set by 3rd & 4th arg;
#X floatatom 160 74 5 0 0 0 - - - 0;
#X obj 160 26 loadbang;
#X msg 160 48 2;
#X msg 55 77 tempo 60 permin;
#X floatatom 199 86 5 1 7 0 - - - 0;
#X text 236 87 change subdivision;
#X obj 55 166 ./subdivide 7 2 120 permin;
#X obj 55 114 metro 2 120 permin;
#X text 213 228 using the [tempo( message will keep the subdivision
and parent metros synced \, whereas using the float message will only
take effect on each next metro bang \, though it will be more efficient
;
#X connect 3 0 14 0;
#X connect 4 0 13 1;
#X connect 7 0 13 2;
#X connect 7 0 14 1;
#X connect 8 0 9 0;
#X connect 9 0 7 0;
#X connect 10 0 13 1;
#X connect 10 0 14 0;
#X connect 11 0 13 1;
#X connect 13 0 0 0;
#X connect 13 0 2 0;
#X connect 14 0 1 0;
#X connect 14 0 13 0;
