#N canvas 407 131 716 457 10;
#X obj 114 150 inlet;
#X obj 351 20 inlet;
#X obj 128 338 pipe;
#X obj 254 30 loadbang;
#X obj 282 296 /;
#X obj 356 143 t b f;
#X obj 126 292 *;
#X obj 126 313 t b f;
#X obj 206 65 inlet;
#X obj 226 154 route clear;
#X msg 216 182 clear;
#X obj 124 268 cup;
#X msg 161 239 1;
#X obj 118 238 until;
#X obj 272 221 f \$1;
#X obj 120 215 f;
#X obj 160 193 - 1;
#X obj 317 160 == 0;
#X obj 318 183 sel 1;
#X obj 304 137 t f f;
#X obj 320 222 f \$2;
#X obj 382 219 f;
#X msg 385 198 bang;
#X obj 271 90 t b b;
#X obj 121 177 t b b;
#X obj 274 69 r globaltempotrigger;
#X obj 304 114 v globaltempo;
#X obj 285 259 swap;
#X obj 128 364 bang;
#X obj 124 405 outlet;
#X floatatom 306 352 5 0 0 0 - - -;
#X connect 0 0 24 0;
#X connect 1 0 5 0;
#X connect 2 0 28 0;
#X connect 3 0 23 0;
#X connect 4 0 6 1;
#X connect 4 0 30 0;
#X connect 5 0 14 0;
#X connect 5 1 20 0;
#X connect 6 0 7 0;
#X connect 7 0 2 0;
#X connect 7 1 2 1;
#X connect 8 0 9 0;
#X connect 9 0 10 0;
#X connect 9 1 14 0;
#X connect 10 0 2 0;
#X connect 11 0 6 0;
#X connect 12 0 11 0;
#X connect 13 0 11 0;
#X connect 14 0 16 0;
#X connect 14 0 27 0;
#X connect 15 0 13 0;
#X connect 16 0 15 1;
#X connect 17 0 18 0;
#X connect 18 0 20 0;
#X connect 18 1 22 0;
#X connect 19 0 17 0;
#X connect 19 1 21 1;
#X connect 20 0 27 1;
#X connect 21 0 20 0;
#X connect 22 0 21 0;
#X connect 23 0 14 0;
#X connect 23 1 26 0;
#X connect 24 0 15 0;
#X connect 24 1 12 0;
#X connect 25 0 23 0;
#X connect 26 0 19 0;
#X connect 27 0 4 0;
#X connect 27 1 4 1;
#X connect 28 0 29 0;
