#N canvas 713 196 668 481 10;
#X obj 96 77 samphold~;
#X obj 71 -45 inlet~;
#X obj 18 -21 inlet~;
#X obj 349 12 inlet;
#X obj 101 112 pow~;
#X obj 51 121 wrap~;
#X obj 164 99 expr~ $v1 < $v2;
#X obj 249 14 inlet~;
#X obj 53 363 *~;
#X obj 92 341 samphold~;
#X obj 52 79 *~;
#X obj 162 33 max~ 1;
#X obj 162 -52 inlet~;
#X obj 162 -30 /~;
#X obj 171 -8 wrap~;
#X obj 162 12 -~;
#X obj 162 55 samphold~;
#X obj 53 283 sin~;
#X obj 53 260 *~ 0.5;
#X obj 53 307 *~;
#X obj 53 397 outlet~;
#X obj 170 367 outlet~;
#X obj 99 209 *~;
#X obj 50 14 max~ 0;
#X obj 51 45 sampphase~;
#X obj 71 -23 clip~ 0 1;
#X obj 250 53 clip~ 0 1;
#X obj 143 182 expr~ $v1 && $v2;
#X obj 236 160 expr~ $v1 <= 1;
#X obj 149 138 expr~ ($v1 <= .0001) || ($v2 <= .0001);
#X text 243 -41 todo: add control to change center frequency within
a cycle for formant sweeps;
#X connect 0 0 4 0;
#X connect 1 0 25 0;
#X connect 2 0 23 0;
#X connect 3 0 24 1;
#X connect 4 0 22 0;
#X connect 5 0 9 1;
#X connect 5 0 18 0;
#X connect 6 0 22 1;
#X connect 7 0 26 0;
#X connect 8 0 20 0;
#X connect 9 0 8 1;
#X connect 10 0 5 0;
#X connect 10 0 4 1;
#X connect 10 0 28 0;
#X connect 11 0 16 0;
#X connect 12 0 13 0;
#X connect 13 0 14 0;
#X connect 13 0 15 0;
#X connect 14 0 15 1;
#X connect 15 0 11 0;
#X connect 16 0 10 1;
#X connect 17 0 19 0;
#X connect 17 0 19 1;
#X connect 18 0 17 0;
#X connect 19 0 8 0;
#X connect 22 0 9 0;
#X connect 23 0 13 1;
#X connect 23 0 24 0;
#X connect 24 0 0 1;
#X connect 24 0 6 0;
#X connect 24 0 10 0;
#X connect 24 0 16 1;
#X connect 24 0 21 0;
#X connect 25 0 0 0;
#X connect 25 0 29 0;
#X connect 26 0 6 1;
#X connect 26 0 29 1;
#X connect 27 0 9 0;
#X connect 28 0 27 1;
#X connect 29 0 27 0;
