#N canvas 402 58 907 816 10;
#X obj 143 111 inlet~;
#X obj 130 614 outlet~;
#X obj 180 205 phasor~;
#X obj 106 213 phasor~;
#X obj 119 241 samphold~;
#X obj 107 261 -~;
#X obj 105 285 +~ 2;
#X obj 105 309 wrap~;
#X obj 208 111 inlet~;
#X obj 122 178 max~;
#X obj 93 492 pow~;
#X obj 99 342 rzero~ 1;
#X obj 102 366 expr~ $v1<0;
#X obj 194 320 expr~ 1 - $v1;
#X obj 187 256 rzero~ 1;
#X obj 194 287 expr~ $v1<0;
#X obj 132 423 rpole~ 1;
#X obj 133 394 *~;
#X obj 190 443 cos~;
#X obj 188 399 *~ 0.5;
#X obj 188 420 -~ 0.25;
#X obj 190 466 *~;
#X obj 109 519 *~;
#X obj 253 429 samphold~;
#X obj 272 112 inlet~;
#X obj 254 399 >~;
#X obj 252 455 1-0switch~;
#X obj 115 543 *~;
#X obj 338 113 inlet~;
#X obj 72 460 &&~;
#X obj 137 452 ==~ 0;
#X obj 70 431 ==~ 0;
#X obj 187 522 &&~;
#X obj 215 501 ==~ 0;
#X obj 272 185 clip~ 0 1;
#X obj 162 147 abs~;
#X obj 368 307 /~;
#X obj 131 573 *~;
#X obj 370 391 samphold~;
#X obj 392 249 samphold~;
#X obj 551 142 samplerate~;
#X obj 553 118 loadbang;
#X obj 354 335 <~;
#X obj 363 435 1-0switch~;
#X obj 334 140 max~ 0;
#X obj 631 170 expr~ $f2 / $v1;
#X obj 289 276 expr~ 1 - $v1 + $v2;
#X obj 536 178 expr~ $f2 / $v1;
#X obj 443 215 /~ 44100;
#X obj 545 203 wrap~;
#X obj 639 195 wrap~;
#X obj 580 235 ==~;
#X obj 460 260 *~;
#X obj 473 242 sig~ 1;
#X text 452 67 when the fraction of samples are equal \, special treatment
is needed? not sure about the maths on this;
#X obj 246 370 -~;
#X obj 436 136 ==~ 0;
#X obj 486 139 ==~ 0;
#X connect 0 0 35 0;
#X connect 2 0 4 1;
#X connect 2 0 14 0;
#X connect 2 0 39 0;
#X connect 2 0 39 1;
#X connect 2 0 46 0;
#X connect 2 0 55 0;
#X connect 3 0 4 0;
#X connect 3 0 5 0;
#X connect 4 0 5 1;
#X connect 5 0 6 0;
#X connect 6 0 7 0;
#X connect 7 0 11 0;
#X connect 7 0 19 0;
#X connect 7 0 23 1;
#X connect 7 0 38 1;
#X connect 8 0 9 0;
#X connect 9 0 3 0;
#X connect 9 0 36 1;
#X connect 9 0 45 0;
#X connect 9 0 57 0;
#X connect 10 0 22 0;
#X connect 11 0 12 0;
#X connect 12 0 17 0;
#X connect 13 0 17 1;
#X connect 13 0 16 1;
#X connect 14 0 15 0;
#X connect 15 0 13 0;
#X connect 16 0 10 1;
#X connect 16 0 30 0;
#X connect 17 0 16 0;
#X connect 18 0 21 1;
#X connect 18 0 21 0;
#X connect 19 0 20 0;
#X connect 20 0 18 0;
#X connect 21 0 22 1;
#X connect 22 0 27 0;
#X connect 23 0 26 0;
#X connect 24 0 34 0;
#X connect 25 0 23 0;
#X connect 26 0 27 1;
#X connect 26 0 33 0;
#X connect 27 0 37 0;
#X connect 28 0 44 0;
#X connect 29 0 10 0;
#X connect 30 0 29 1;
#X connect 30 0 32 0;
#X connect 31 0 29 0;
#X connect 32 0 27 1;
#X connect 33 0 32 1;
#X connect 34 0 25 1;
#X connect 35 0 9 1;
#X connect 35 0 2 0;
#X connect 35 0 36 0;
#X connect 35 0 47 0;
#X connect 35 0 48 0;
#X connect 35 0 56 0;
#X connect 36 0 42 1;
#X connect 37 0 1 0;
#X connect 38 0 43 0;
#X connect 39 0 46 1;
#X connect 39 0 55 1;
#X connect 40 0 45 1;
#X connect 40 0 47 1;
#X connect 40 0 48 1;
#X connect 41 0 40 0;
#X connect 42 0 38 0;
#X connect 43 0 37 1;
#X connect 44 0 10 0;
#X connect 44 0 31 0;
#X connect 45 0 50 0;
#X connect 46 0 42 0;
#X connect 47 0 49 0;
#X connect 48 0 52 0;
#X connect 49 0 51 0;
#X connect 50 0 51 1;
#X connect 51 0 52 1;
#X connect 52 0 46 1;
#X connect 52 0 55 1;
#X connect 53 0 52 1;
#X connect 55 0 25 0;
#X connect 56 0 47 0;
#X connect 57 0 45 0;
