#N canvas 205 99 483 388 10;
#X obj 298 63 inlet;
#X obj 153 73 inlet;
#X obj 299 122 cup;
#X obj 153 119 cup;
#X obj 233 38 loadbang;
#X obj 154 146 sel;
#X obj 299 147 sel;
#X obj 204 85 f \$1;
#X obj 204 117 if 0 1;
#X obj 255 87 f \$2;
#X obj 251 118 if 0;
#X obj 227 60 t b b;
#X msg 344 88 1;
#X obj 237 169 cup;
#X obj 237 195 sel 2;
#X obj 320 23 inlet;
#X obj 410 53 inlet;
#X obj 80 167 >;
#X obj 365 150 >;
#X obj 330 204 del 0;
#X obj 171 260 outlet;
#X connect 0 0 2 0;
#X connect 1 0 3 0;
#X connect 2 0 6 0;
#X connect 2 0 18 1;
#X connect 3 0 5 0;
#X connect 3 0 17 1;
#X connect 4 0 11 0;
#X connect 5 0 13 0;
#X connect 6 0 13 0;
#X connect 7 0 8 0;
#X connect 8 0 5 1;
#X connect 8 0 10 2;
#X connect 9 0 10 0;
#X connect 10 0 6 1;
#X connect 11 0 9 0;
#X connect 11 1 7 0;
#X connect 11 1 12 0;
#X connect 12 0 2 0;
#X connect 12 0 3 0;
#X connect 12 0 13 0;
#X connect 13 0 14 0;
#X connect 14 0 19 0;
#X connect 14 0 20 0;
#X connect 15 0 5 1;
#X connect 15 0 17 0;
#X connect 16 0 6 1;
#X connect 16 0 18 0;
#X connect 17 0 19 0;
#X connect 18 0 19 0;
#X connect 19 0 12 0;
