#N canvas 230 181 890 515 10;
#X obj 318 23 inlet;
#X obj 115 4 inlet;
#X obj 256 2 loadbang;
#X obj 228 74 f \$1;
#X obj 220 99 if 0 1;
#X obj 275 87 f \$2;
#X obj 251 22 t b b;
#X obj 373 17 inlet;
#X obj 439 21 inlet;
#X obj 199 19 del 0;
#X obj 157 473 outlet;
#X obj 139 119 ekext/cup;
#X obj 319 122 ekext/cup;
#X obj 258 141 if 0 1;
#X msg 232 48 1;
#X obj 316 44 route float;
#X obj 93 36 route float;
#X obj 387 163 f;
#X obj 441 53 t f b f;
#X obj 379 281 bangif <;
#X obj 84 189 f;
#X obj 85 120 t f b f;
#X obj 65 232 bangif <;
#X obj 244 395 &&;
#X obj 162 189 >=;
#X obj 253 211 >=;
#X obj 249 311 t b f;
#X obj 197 442 sel 1;
#X msg 260 370 0;
#X msg 286 371 1;
#X obj 187 375 f;
#X msg 233 342 1;
#X msg 202 343 0;
#X obj 214 265 sel 0 1;
#X obj 214 212 f;
#X obj 229 187 <= 0;
#X obj 314 275 sel 0 1;
#X obj 314 222 f;
#X obj 329 197 <= 0;
#X obj 178 158 zexy/nop;
#X obj 268 166 zexy/nop;
#X text 439 277 if new count is below the current value \, we should
have already set finish \, so set it now;
#X obj 95 319 >;
#X obj 355 245 >;
#X obj 305 468 outlet;
#X obj 416 466 outlet;
#X msg 383 69 0;
#X text 364 314 if new count is above the current value \, it's possible
that we have already set the output \, but it should be unset;
#X connect 0 0 15 0;
#X connect 1 0 16 0;
#X connect 2 0 6 0;
#X connect 3 0 4 0;
#X connect 4 0 13 2;
#X connect 4 0 39 0;
#X connect 5 0 13 0;
#X connect 6 0 5 0;
#X connect 6 1 3 0;
#X connect 6 1 14 0;
#X connect 7 0 21 0;
#X connect 8 0 18 0;
#X connect 9 0 14 0;
#X connect 9 0 34 0;
#X connect 9 0 37 0;
#X connect 9 0 46 0;
#X connect 11 0 20 1;
#X connect 11 0 24 0;
#X connect 11 0 44 0;
#X connect 12 0 17 1;
#X connect 12 0 25 0;
#X connect 12 0 45 0;
#X connect 13 0 40 0;
#X connect 14 0 11 0;
#X connect 14 0 12 0;
#X connect 15 0 12 0;
#X connect 15 0 43 0;
#X connect 15 1 12 0;
#X connect 16 0 11 0;
#X connect 16 0 42 0;
#X connect 16 1 11 0;
#X connect 17 0 19 0;
#X connect 18 0 40 0;
#X connect 18 1 17 0;
#X connect 18 2 19 1;
#X connect 19 0 28 0;
#X connect 19 1 29 0;
#X connect 20 0 22 0;
#X connect 21 0 39 0;
#X connect 21 1 20 0;
#X connect 21 2 22 1;
#X connect 22 0 32 0;
#X connect 22 1 31 0;
#X connect 23 0 27 0;
#X connect 24 0 30 0;
#X connect 25 0 26 0;
#X connect 26 0 30 0;
#X connect 26 1 23 1;
#X connect 27 0 9 0;
#X connect 27 0 10 0;
#X connect 28 0 23 1;
#X connect 29 0 23 1;
#X connect 30 0 23 0;
#X connect 31 0 30 1;
#X connect 32 0 30 1;
#X connect 33 0 32 0;
#X connect 33 1 31 0;
#X connect 34 0 33 0;
#X connect 35 0 34 1;
#X connect 36 0 28 0;
#X connect 36 1 29 0;
#X connect 37 0 36 0;
#X connect 38 0 37 1;
#X connect 39 0 24 1;
#X connect 39 0 35 0;
#X connect 39 0 42 1;
#X connect 40 0 25 1;
#X connect 40 0 38 0;
#X connect 40 0 43 1;
#X connect 42 0 30 1;
#X connect 43 0 23 1;
#X connect 46 0 45 0;
#X connect 46 0 44 0;
#X connect 46 0 20 1;
#X connect 46 0 17 1;
