#N canvas 205 99 483 388 10;
#X obj 284 61 inlet;
#X obj 153 73 inlet;
#X obj 233 38 loadbang;
#X obj 133 157 sel;
#X obj 299 147 sel;
#X obj 204 85 f \$1;
#X obj 204 117 if 0 1;
#X obj 255 87 f \$2;
#X obj 227 60 t b b;
#X msg 344 88 1;
#X obj 226 208 sel 2;
#X obj 347 59 inlet;
#X obj 410 53 inlet;
#X obj 80 167 >;
#X obj 365 150 >;
#X obj 286 294 del 0;
#X obj 171 260 outlet;
#X obj 119 119 ekext/cup;
#X obj 236 183 ekext/cup;
#X obj 299 122 ekext/cup;
#X obj 251 118 if 0 1;
#X obj 350 217 b;
#X connect 0 0 19 0;
#X connect 1 0 17 0;
#X connect 2 0 8 0;
#X connect 3 0 18 0;
#X connect 4 0 18 0;
#X connect 5 0 6 0;
#X connect 6 0 3 1;
#X connect 6 0 20 2;
#X connect 7 0 20 0;
#X connect 8 0 7 0;
#X connect 8 1 5 0;
#X connect 8 1 9 0;
#X connect 9 0 17 0;
#X connect 9 0 18 0;
#X connect 9 0 19 0;
#X connect 10 0 15 0;
#X connect 10 0 16 0;
#X connect 11 0 3 1;
#X connect 11 0 13 0;
#X connect 12 0 4 1;
#X connect 12 0 14 0;
#X connect 13 0 21 0;
#X connect 14 0 21 0;
#X connect 15 0 9 0;
#X connect 17 0 3 0;
#X connect 17 0 13 1;
#X connect 18 0 10 0;
#X connect 19 0 4 0;
#X connect 19 0 14 1;
#X connect 20 0 4 1;
#X connect 21 0 15 0;
