#N canvas 586 373 450 300 10;
#X obj 231 57 inlet;
#X obj 87 52 inlet;
#X obj 87 84 route size array;
#X obj 200 185 array set;
#X obj 242 137 symbol \$1;
#X obj 305 62 loadbang;
#X obj 88 184 array size;
#X connect 0 0 4 0;
#X connect 1 0 2 0;
#X connect 2 0 6 0;
#X connect 2 1 3 0;
#X connect 4 0 3 2;
#X connect 4 0 6 1;
#X connect 5 0 4 0;
