#N canvas 565 42 1057 723 10;
#X obj 468 35 bng 15 250 50 0 empty empty empty 17 7 0 10 -262144 -1
-1;
#X text 466 19 load;
#N canvas 486 40 833 771 message 0;
#X obj 62 23 inlet;
#X obj 53 173 outlet;
#X msg 134 42 size 253 \, array 0.314285 0.323809 0.333332 0.342856
0.347618 0.35238 0.357142 -0.399999 -0.414285 -0.414285 -0.414285 -0.442856
-0.442856 -0.457142 -0.464285 -0.471428 -0.485713 -0.514285 -0.528571
-0.528571 -0.528571 -0.542856 -0.557142 -0.571428 -0.571428 -0.571428
-0.585713 -0.585713 -0.585713 -0.585713 -0.604761 -0.609523 -0.614285
-0.614285 -0.614285 -0.621427 -0.62857 -0.62857 -0.62857 -0.62857 -0.62857
-0.62857 -0.62857 -0.62857 -0.62857 -0.62857 -0.62857 -0.62857 -0.62857
-0.62857 -0.62857 -0.62857 -0.62857 -0.62857 -0.62857 -0.62857 -0.624999
-0.621428 -0.617856 -0.614285 -0.614285 -0.614285 -0.614285 -0.614285
-0.614285 -0.614285 -0.614285 -0.614285 -0.614285 -0.614285 -0.610713
-0.607142 -0.60357 -0.599999 -0.592856 -0.585713 -0.585713 -0.585713
-0.585713 -0.585713 -0.580951 -0.57619 -0.571428 -0.571428 -0.571428
-0.557142 -0.557142 -0.557142 -0.528571 -0.514285 -0.485713 -0.478571
-0.471428 -0.442856 -0.414285 -0.371428 -0.357142 -0.328571 -0.271428
-0.242857 -0.221428 -0.2 -0.157143 -0.128571 -0.0714287 -0.057143 -0.0428573
-2.38419e-07 0.0428568 0.0857139 0.142857 0.157142 0.185714 0.214285
0.228571 0.242856 0.271428 0.299999 0.32857 0.333332 0.338094 0.342856
0.364285 0.385713 0.392856 0.399999 0.407142 0.414285 0.423808 0.433332
0.442856 0.44857 0.454284 0.459999 0.465713 0.471427 0.482142 0.492856
0.50357 0.514284 0.519999 0.525713 0.531427 0.537142 0.542856 0.551427
0.559999 0.56857 0.577141 0.585713 0.590475 0.595237 0.599998 0.60476
0.609522 0.614284 0.619046 0.623808 0.62857 0.633332 0.638094 0.642855
0.64857 0.654284 0.659998 0.665713 0.671427 0.676784 0.682141 0.687498
0.692855 0.698213 0.70357 0.708927 0.714284 0.716665 0.719046 0.721427
0.723808 0.726189 0.72857 0.732141 0.735712 0.739284 0.742855 0.745712
0.74857 0.751427 0.754284 0.757141 0.761903 0.766665 0.771427 0.771427
0.771427 0.771427 0.771427 0.771427 0.771427 0.771427 0.771427 0.771427
0.771427 0.771427 0.771427 0.771427 0.771427 0.757141 0.742855 0.72857
0.721427 0.714284 0.699998 0.671427 0.657141 0.642856 0.62857 0.599998
0.571427 0.514284 0.499999 0.485713 0.457142 0.371428 0.349999 0.32857
0.285713 -0.670407 -0.67806 -0.685713 -0.69365 -0.701586 -0.709522
-0.717459 -0.725395 -0.733332 -0.741268 -0.749205 -0.757141 -0.765078
-0.773014 -0.780951 -0.788887 -0.796824 -0.80476 -0.812697 -0.820633
-0.82857 -0.851427 -0.874284 -0.897141 -0.919998 -0.942855 \,;
#X connect 0 0 2 0;
#X connect 2 0 1 0;
#X restore 402 290 pd message;
#X text 429 247 outlet goes to a message box;
#X msg 620 62 size 253 \, array 0.314285 0.323809 0.333332 0.342856
0.347618 0.35238 0.357142 -0.399999 -0.414285 -0.414285 -0.414285 -0.442856
-0.442856 -0.457142 -0.464285 -0.471428 -0.485713 -0.514285 -0.528571
-0.528571 -0.528571 -0.542856 -0.557142 -0.571428 -0.571428 -0.571428
-0.585713 -0.585713 -0.585713 -0.585713 -0.604761 -0.609523 -0.614285
-0.614285 -0.614285 -0.621427 -0.62857 -0.62857 -0.62857 -0.62857 -0.62857
-0.62857 -0.62857 -0.62857 -0.62857 -0.62857 -0.62857 -0.62857 -0.62857
-0.62857 -0.62857 -0.62857 -0.62857 -0.62857 -0.62857 -0.62857 -0.624999
-0.621428 -0.617856 -0.614285 -0.614285 -0.614285 -0.614285 -0.614285
-0.614285 -0.614285 -0.614285 -0.614285 -0.614285 -0.614285 -0.610713
-0.607142 -0.60357 -0.599999 -0.592856 -0.585713 -0.585713 -0.585713
-0.585713 -0.585713 -0.580951 -0.57619 -0.571428 -0.571428 -0.571428
-0.557142 -0.557142 -0.557142 -0.528571 -0.514285 -0.485713 -0.478571
-0.471428 -0.442856 -0.414285 -0.371428 -0.357142 -0.328571 -0.271428
-0.242857 -0.221428 -0.2 -0.157143 -0.128571 -0.0714287 -0.057143 -0.0428573
-2.38419e-07 0.0428568 0.0857139 0.142857 0.157142 0.185714 0.214285
0.228571 0.242856 0.271428 0.299999 0.32857 0.333332 0.338094 0.342856
0.364285 0.385713 0.392856 0.399999 0.407142 0.414285 0.423808 0.433332
0.442856 0.44857 0.454284 0.459999 0.465713 0.471427 0.482142 0.492856
0.50357 0.514284 0.519999 0.525713 0.531427 0.537142 0.542856 0.551427
0.559999 0.56857 0.577141 0.585713 0.590475 0.595237 0.599998 0.60476
0.609522 0.614284 0.619046 0.623808 0.62857 0.633332 0.638094 0.642855
0.64857 0.654284 0.659998 0.665713 0.671427 0.676784 0.682141 0.687498
0.692855 0.698213 0.70357 0.708927 0.714284 0.716665 0.719046 0.721427
0.723808 0.726189 0.72857 0.732141 0.735712 0.739284 0.742855 0.745712
0.74857 0.751427 0.754284 0.757141 0.761903 0.766665 0.771427 0.771427
0.771427 0.771427 0.771427 0.771427 0.771427 0.771427 0.771427 0.771427
0.771427 0.771427 0.771427 0.771427 0.771427 0.757141 0.742855 0.72857
0.721427 0.714284 0.699998 0.671427 0.657141 0.642856 0.62857 0.599998
0.571427 0.514284 0.499999 0.485713 0.457142 0.371428 0.349999 0.32857
0.285713 -0.670407 -0.67806 -0.685713 -0.69365 -0.701586 -0.709522
-0.717459 -0.725395 -0.733332 -0.741268 -0.749205 -0.757141 -0.765078
-0.773014 -0.780951 -0.788887 -0.796824 -0.80476 -0.812697 -0.820633
-0.82857 -0.851427 -0.874284 -0.897141 -0.919998 -0.942855 \,;
#N canvas 0 22 450 278 (subpatch) 0;
#X array an_array2 253 float 2;
#X coords 0 1 253 -1 200 140 1 0 0;
#X restore 162 59 graph;
#X text 469 283 the same message box;
#X obj 56 409 +~ 1;
#X obj 59 383 *~ 500;
#X obj 70 356 phasor~;
#X obj 103 294 mtof;
#X obj 90 319 smoother~ 5;
#X floatatom 104 263 5 0 0 0 - - -;
#X obj 368 178 bng 15 250 50 0 empty empty empty 17 7 0 10 -262144
-1 -1;
#X text 393 178 save;
#X obj 236 307 array;
#X msg 480 318 an_array2;
#X msg 495 173 an_array2;
#X obj 70 464 tabread4~ an_array2;
#X msg 192 395 \; an_array2 normalize \;;
#X text 131 16 load/unload table to/from message box;
#X obj 393 353 ./tabload an_array2;
#X obj 397 203 ./tabsave an_array2;
#X obj 46 570 ./outputc~;
#X connect 0 0 2 0;
#X connect 2 0 21 0;
#X connect 7 0 18 0;
#X connect 8 0 7 0;
#X connect 9 0 8 0;
#X connect 10 0 11 0;
#X connect 11 0 9 0;
#X connect 12 0 10 0;
#X connect 13 0 22 0;
#X connect 16 0 21 1;
#X connect 17 0 22 1;
#X connect 18 0 23 0;
#X connect 18 0 23 1;
#X connect 22 0 2 0;
#X connect 22 0 4 0;
