#N canvas 719 129 685 542 10;
#X declare -lib iemlib;
#X obj 235 367 list length;
#X obj 176 341 t b l b l;
#X msg 178 379 addcomma;
#X obj 213 451 outlet;
#X text 298 315 to recover values do [route size array] \, array outlet
goes into tabset after size goes into array resize;
#X text 168 102 partially taken from mmb \, for use with abstractions
;
#X obj 83 154 inlet;
#X text 132 158 save;
#X obj 287 181 inlet;
#X obj 198 296 array get \$1;
#X obj 280 224 symbol;
#X obj 304 135 declare -lib iemlib;
#X obj 232 405 iem_prepend set size;
#X obj 32 407 iem_prepend add2 array;
#X connect 0 0 12 0;
#X connect 1 0 2 0;
#X connect 1 1 13 0;
#X connect 1 2 2 0;
#X connect 1 3 0 0;
#X connect 2 0 3 0;
#X connect 6 0 9 0;
#X connect 8 0 10 0;
#X connect 9 0 1 0;
#X connect 10 0 9 2;
#X connect 12 0 3 0;
#X connect 13 0 3 0;
