#N canvas 829 186 685 542 10;
#X obj 235 367 list length;
#X obj 176 341 t b l b l;
#X msg 178 379 addcomma;
#X obj 213 451 outlet;
#X text 298 315 to recover values do [route size array] \, array outlet
goes into tabset after size goes into array resize;
#X text 168 102 partially taken from mmb \, for use with abstractions
;
#X obj 83 154 inlet;
#X text 132 158 save;
#X obj 32 407 iemlib/iem_prepend add2 array;
#X obj 232 405 iemlib/iem_prepend set size;
#X obj 287 181 inlet;
#X obj 198 296 array get \$1;
#X obj 280 224 symbol;
#X connect 0 0 9 0;
#X connect 1 0 2 0;
#X connect 1 1 8 0;
#X connect 1 2 2 0;
#X connect 1 3 0 0;
#X connect 2 0 3 0;
#X connect 6 0 11 0;
#X connect 8 0 3 0;
#X connect 9 0 3 0;
#X connect 10 0 12 0;
#X connect 11 0 1 0;
#X connect 12 0 11 2;
