#N canvas 604 233 685 542 10;
#X obj 235 367 list length;
#X obj 96 408 prepend add2 array;
#X obj 176 341 t b l b l;
#X obj 232 405 prepend set size;
#X msg 178 379 addcomma;
#X obj 213 451 outlet;
#X text 298 315 to recover values do [route size array] \, array outlet
goes into tabset after size goes into array resize;
#X text 168 102 partially taken from mmb \, for use with abstractions
;
#X obj 198 296 tabdump \$1;
#X obj 83 154 inlet;
#X text 132 158 save;
#X connect 0 0 3 0;
#X connect 1 0 5 0;
#X connect 2 0 4 0;
#X connect 2 1 1 0;
#X connect 2 2 4 0;
#X connect 2 3 0 0;
#X connect 3 0 5 0;
#X connect 4 0 5 0;
#X connect 8 0 2 0;
#X connect 9 0 8 0;
