#N canvas 226 47 1134 714 10;
#X obj 468 35 bng 15 250 50 0 empty empty empty 17 7 0 10 -262144 -1
-1;
#X text 466 19 load;
#N canvas 486 40 833 771 message 0;
#X obj 62 23 inlet;
#X obj 53 173 outlet;
#X msg 134 42 size 253 \, array 0.399998 0.405712 0.411427 0.417141
0.422855 0.42857 0.434284 0.439998 0.445712 0.451427 0.457141 0.460315
0.46349 0.466665 0.469839 0.473014 0.476188 0.479363 0.482538 0.485712
0.489794 0.493876 0.497957 0.502039 0.50612 0.510202 0.514284 0.515712
0.517141 0.51857 -0.785714 -0.757143 -0.742857 -0.714286 -0.692857
-0.671429 -0.664286 -0.657143 -0.638096 -0.619048 -0.600001 -0.590477
-0.580953 -0.571429 -0.558929 -0.546429 -0.533929 -0.521429 -0.508929
-0.496429 -0.483929 -0.471429 -0.457144 -0.442858 -0.428572 -0.414287
-0.400001 -0.385715 -0.37143 -0.357144 -0.342858 -0.328573 -0.314287
-0.300001 -0.285715 -0.27143 -0.260716 -0.250001 -0.239287 -0.228573
-0.217858 -0.207144 -0.19643 -0.185716 -0.167859 -0.150001 -0.132144
-0.114287 -0.0964302 -0.078573 -0.0607159 -0.0428588 -0.0329688 -0.0230787
-0.0131886 -0.00329849 0.0065916 0.0164817 0.0263718 0.0362619 0.046152
0.056042 0.0659321 0.0758222 0.0857123 0.0928552 0.099998 0.107141
0.114284 0.121427 0.128569 0.135712 0.142855 0.149998 0.157141 0.164284
0.171426 0.178569 0.185712 0.190474 0.195236 0.199998 0.20476 0.209522
0.214283 0.219045 0.223807 0.228569 0.233331 0.238093 0.242855 0.247617
0.252379 0.25714 0.262404 0.267667 0.27293 0.278193 0.283456 0.288719
0.293983 0.299246 0.304509 0.309772 0.315035 0.320298 0.325561 0.330825
0.336088 0.341351 0.346614 0.351877 0.35714 0.358093 0.359045 0.359997
0.36095 0.361902 0.362855 0.363807 0.364759 0.365712 0.366664 0.367617
0.368569 0.369521 0.370474 0.371426 0.371426 0.371426 0.371426 0.371426
0.371426 0.371426 0.371426 0.371426 0.371426 0.371426 0.371426 0.371426
0.371426 0.368829 0.366231 0.363634 0.361036 0.358439 0.355842 0.353244
0.350647 0.348049 0.345452 0.342855 0.339283 0.335712 0.33214 0.328569
0.324998 0.321426 0.317855 0.314283 0.304759 0.295236 0.285712 0.276188
0.266664 0.257141 0.247617 0.238093 0.228569 0.219045 0.209522 0.199998
0.190474 0.18095 0.171426 0.161903 0.152379 0.142855 0.13061 0.118365
0.10612 0.0938756 0.0816307 0.0693858 0.0571409 0.0482124 0.0392838
0.0303553 0.0214267 0.0124982 0.00356963 -0.00535892 -0.0142875 -0.022224
-0.0301605 -0.0380969 -0.0460334 -0.0539699 -0.0619064 -0.0698429 -0.0777794
-0.0857159 -0.0871445 -0.088573 -0.0900016 -0.0914302 -0.0928587 -0.0942873
-0.0957159 -0.0971444 -0.098573 -0.100002 -0.100002 -0.100002 -0.100002
-0.100002 -0.100002 -0.100002 -0.100002 -0.100002 -0.100002 -0.100002
-0.100002 \,;
#X connect 0 0 2 0;
#X connect 2 0 1 0;
#X restore 402 290 pd message;
#X text 429 247 outlet goes to a message box;
#X msg 620 62 size 253 \, array 0.399998 0.405712 0.411427 0.417141
0.422855 0.42857 0.434284 0.439998 0.445712 0.451427 0.457141 0.460315
0.46349 0.466665 0.469839 0.473014 0.476188 0.479363 0.482538 0.485712
0.489794 0.493876 0.497957 0.502039 0.50612 0.510202 0.514284 0.515712
0.517141 0.51857 -0.785714 -0.757143 -0.742857 -0.714286 -0.692857
-0.671429 -0.664286 -0.657143 -0.638096 -0.619048 -0.600001 -0.590477
-0.580953 -0.571429 -0.558929 -0.546429 -0.533929 -0.521429 -0.508929
-0.496429 -0.483929 -0.471429 -0.457144 -0.442858 -0.428572 -0.414287
-0.400001 -0.385715 -0.37143 -0.357144 -0.342858 -0.328573 -0.314287
-0.300001 -0.285715 -0.27143 -0.260716 -0.250001 -0.239287 -0.228573
-0.217858 -0.207144 -0.19643 -0.185716 -0.167859 -0.150001 -0.132144
-0.114287 -0.0964302 -0.078573 -0.0607159 -0.0428588 -0.0329688 -0.0230787
-0.0131886 -0.00329849 0.0065916 0.0164817 0.0263718 0.0362619 0.046152
0.056042 0.0659321 0.0758222 0.0857123 0.0928552 0.099998 0.107141
0.114284 0.121427 0.128569 0.135712 0.142855 0.149998 0.157141 0.164284
0.171426 0.178569 0.185712 0.190474 0.195236 0.199998 0.20476 0.209522
0.214283 0.219045 0.223807 0.228569 0.233331 0.238093 0.242855 0.247617
0.252379 0.25714 0.262404 0.267667 0.27293 0.278193 0.283456 0.288719
0.293983 0.299246 0.304509 0.309772 0.315035 0.320298 0.325561 0.330825
0.336088 0.341351 0.346614 0.351877 0.35714 0.358093 0.359045 0.359997
0.36095 0.361902 0.362855 0.363807 0.364759 0.365712 0.366664 0.367617
0.368569 0.369521 0.370474 0.371426 0.371426 0.371426 0.371426 0.371426
0.371426 0.371426 0.371426 0.371426 0.371426 0.371426 0.371426 0.371426
0.371426 0.368829 0.366231 0.363634 0.361036 0.358439 0.355842 0.353244
0.350647 0.348049 0.345452 0.342855 0.339283 0.335712 0.33214 0.328569
0.324998 0.321426 0.317855 0.314283 0.304759 0.295236 0.285712 0.276188
0.266664 0.257141 0.247617 0.238093 0.228569 0.219045 0.209522 0.199998
0.190474 0.18095 0.171426 0.161903 0.152379 0.142855 0.13061 0.118365
0.10612 0.0938756 0.0816307 0.0693858 0.0571409 0.0482124 0.0392838
0.0303553 0.0214267 0.0124982 0.00356963 -0.00535892 -0.0142875 -0.022224
-0.0301605 -0.0380969 -0.0460334 -0.0539699 -0.0619064 -0.0698429 -0.0777794
-0.0857159 -0.0871445 -0.088573 -0.0900016 -0.0914302 -0.0928587 -0.0942873
-0.0957159 -0.0971444 -0.098573 -0.100002 -0.100002 -0.100002 -0.100002
-0.100002 -0.100002 -0.100002 -0.100002 -0.100002 -0.100002 -0.100002
-0.100002 \,;
#N canvas 0 22 450 278 (subpatch) 0;
#X array an_array 253 float 2;
#X coords 0 1 253 -1 200 140 1 0 0;
#X restore 162 59 graph;
#X text 469 283 the same message box;
#X obj 56 409 +~ 1;
#X obj 59 383 *~ 500;
#X obj 70 356 phasor~;
#X obj 103 294 mtof;
#X floatatom 104 263 5 0 0 0 - - -;
#X obj 70 464 tabread4~ an_array;
#X msg 192 395 \; an_array normalize \;;
#X obj 368 178 bng 15 250 50 0 empty empty empty 17 7 0 10 -262144
-1 -1;
#X text 393 178 save;
#X msg 443 153 set an_array;
#X msg 480 318 an_array;
#X obj 397 203 ./tabsave an_array;
#X obj 393 353 ./tabload an_array;
#X obj 46 570 ./outputc~;
#X obj 90 319 ./smoother~ 5;
#X connect 0 0 2 0;
#X connect 2 0 19 0;
#X connect 7 0 12 0;
#X connect 8 0 7 0;
#X connect 9 0 8 0;
#X connect 10 0 21 0;
#X connect 11 0 10 0;
#X connect 12 0 20 0;
#X connect 12 0 20 1;
#X connect 14 0 18 0;
#X connect 16 0 18 0;
#X connect 17 0 19 1;
#X connect 18 0 2 0;
#X connect 18 0 4 0;
#X connect 21 0 9 0;
