#N canvas 829 76 493 421 10;
#X obj 264 81 arraysize \$1;
#X obj 234 19 loadbang;
#X obj 265 113 stoms;
#X obj 241 159 del;
#X obj 132 157 tabwrite~ \$1;
#X obj 131 29 inlet;
#X obj 177 101 route stop;
#X obj 162 53 route set;
#X obj 232 127 bang;
#X obj 236 300 iterate;
#X obj 237 249 s \$1;
#X msg 229 218 normalize;
#X obj 335 181 - 1;
#X obj 318 218 f;
#X obj 322 239 tabread \$1;
#X msg 381 203 set \$1;
#X obj 314 282 tabread \$1;
#X msg 313 260 0;
#X obj 340 311 +;
#X obj 232 187 t b b b b;
#X obj 349 359;
#X connect 0 0 2 0;
#X connect 0 0 9 1;
#X connect 0 0 12 0;
#X connect 1 0 0 0;
#X connect 2 0 3 1;
#X connect 3 0 19 0;
#X connect 5 0 4 0;
#X connect 5 0 7 0;
#X connect 6 1 8 0;
#X connect 7 0 0 1;
#X connect 7 0 10 1;
#X connect 7 0 15 0;
#X connect 7 1 6 0;
#X connect 8 0 3 0;
#X connect 11 0 10 0;
#X connect 12 0 13 1;
#X connect 13 0 14 0;
#X connect 14 0 18 1;
#X connect 15 0 14 0;
#X connect 15 0 16 0;
#X connect 16 0 18 0;
#X connect 17 0 16 0;
#X connect 19 0 11 0;
#X connect 19 2 17 0;
#X connect 19 3 13 0;
