#N canvas 679 22 742 731 10;
#X obj 23 370 -;
#X obj -45 476 +;
#X obj -45 254 t b b b;
#X obj -119 417 abs;
#X obj -42 443 *;
#X obj -116 464 1-0switch;
#X obj -78 500 *;
#X obj -118 525 +;
#X obj -190 491 *;
#X obj -184 444 t f f;
#X obj -143 334 t f f f f;
#X obj -35 158 inlet;
#X obj -121 29 loadbang;
#X obj -124 85 f \$2;
#X obj -40 183 route set;
#X obj 220 93 inlet;
#X obj 242 202 & 1;
#X obj 222 172 t f f;
#X obj 217 149 abs;
#X obj 213 224 -;
#X obj 219 123 int;
#X obj 235 252 - 1;
#X obj -126 394 -;
#X obj 202 258 >> 1;
#X obj 48 310 f;
#X obj -17 285 f;
#X obj 205 284 - 1;
#X obj 69 215 -;
#X msg -43 229 set \$1 \, bang;
#X msg -95 228 set \$1;
#X obj 72 191 t b f;
#X obj 23 410 /;
#X obj -105 300 iterate;
#X obj -116 441 /;
#X obj -88 94 symbol \$1;
#X msg -24 96 symbol;
#X obj -125 159 sel symbol;
#X obj 220 389 arraysize;
#X obj -131 107 sel 0;
#X obj 54 336 tabread;
#X obj -22 350 tabread;
#X obj -214 465 tabread;
#X obj -110 558 tabwrite;
#X obj -168 397 +;
#X obj -167 422 mod;
#X obj 150 251 - 2;
#X obj -65 398 + 1;
#X obj -153 369 + 1;
#X obj 204 315 - 0.5;
#X obj 71 254 +;
#X obj 336 105 inlet;
#X obj 114 108 f \$3;
#X obj 73 280 mod;
#X obj 227 458 t f f;
#X obj -19 331 mod;
#X obj -122 55 t b b;
#X obj -15 308 +;
#X obj 144 161 t b f;
#X connect 0 0 31 0;
#X connect 1 0 6 1;
#X connect 2 0 32 0;
#X connect 2 1 25 0;
#X connect 2 2 24 0;
#X connect 3 0 33 0;
#X connect 4 0 1 0;
#X connect 5 0 6 0;
#X connect 6 0 7 1;
#X connect 7 0 42 0;
#X connect 8 0 7 0;
#X connect 9 0 41 0;
#X connect 9 1 42 1;
#X connect 10 0 47 0;
#X connect 10 1 22 0;
#X connect 10 2 46 0;
#X connect 11 0 14 0;
#X connect 12 0 55 0;
#X connect 13 0 38 0;
#X connect 14 0 34 0;
#X connect 14 1 2 0;
#X connect 15 0 20 0;
#X connect 16 0 19 1;
#X connect 17 0 19 0;
#X connect 17 1 16 0;
#X connect 18 0 17 0;
#X connect 19 0 21 0;
#X connect 19 0 23 0;
#X connect 19 0 45 0;
#X connect 20 0 18 0;
#X connect 21 0 31 1;
#X connect 22 0 3 0;
#X connect 23 0 26 0;
#X connect 23 0 30 0;
#X connect 24 0 39 0;
#X connect 25 0 56 0;
#X connect 26 0 25 1;
#X connect 26 0 48 0;
#X connect 26 0 33 1;
#X connect 27 0 49 0;
#X connect 28 0 37 0;
#X connect 29 0 39 0;
#X connect 29 0 40 0;
#X connect 29 0 41 0;
#X connect 29 0 42 0;
#X connect 30 0 27 0;
#X connect 30 1 27 1;
#X connect 31 0 4 1;
#X connect 32 0 10 0;
#X connect 33 0 5 0;
#X connect 33 0 8 1;
#X connect 34 0 36 0;
#X connect 35 0 36 1;
#X connect 36 1 28 0;
#X connect 36 1 29 0;
#X connect 37 0 53 0;
#X connect 38 1 20 0;
#X connect 39 0 1 1;
#X connect 39 0 0 1;
#X connect 40 0 0 0;
#X connect 41 0 8 0;
#X connect 43 0 44 0;
#X connect 44 0 9 0;
#X connect 45 0 32 1;
#X connect 46 0 4 0;
#X connect 47 0 43 0;
#X connect 48 0 22 1;
#X connect 49 0 52 0;
#X connect 50 0 57 0;
#X connect 51 0 49 1;
#X connect 51 0 56 1;
#X connect 52 0 24 1;
#X connect 52 0 43 1;
#X connect 53 0 27 0;
#X connect 53 1 52 1;
#X connect 53 1 44 1;
#X connect 53 1 54 1;
#X connect 54 0 40 0;
#X connect 55 0 34 0;
#X connect 55 1 13 0;
#X connect 55 1 35 0;
#X connect 55 1 51 0;
#X connect 56 0 54 0;
#X connect 57 0 49 0;
#X connect 57 1 49 1;
#X connect 57 1 56 1;
