#N canvas 688 98 728 587 10;
#X obj 91 -149 inlet~;
#X obj 138 174 outlet~;
#X obj 84 77 cos~;
#X obj 91 -4 *~;
#X obj 357 -181 inlet~;
#X obj 374 -126 wrap~;
#X obj 339 -103 -~;
#X obj 337 -12 1-0switch~;
#X obj 84 108 *~;
#X obj 200 85 cos~;
#X obj 200 116 *~;
#X obj 192 3 *~;
#X obj 278 -49 +~ 1;
#X obj 361 -157 max~ 1;
#X text 476 -94 todo: create index inlet;
#X obj 114 -84 clip~ 0 1;
#X connect 0 0 15 0;
#X connect 2 0 8 0;
#X connect 3 0 2 0;
#X connect 4 0 13 0;
#X connect 5 0 6 1;
#X connect 5 0 7 0;
#X connect 5 0 10 1;
#X connect 6 0 3 1;
#X connect 6 0 12 0;
#X connect 7 0 8 1;
#X connect 8 0 1 0;
#X connect 9 0 10 0;
#X connect 10 0 1 0;
#X connect 11 0 9 0;
#X connect 12 0 11 1;
#X connect 13 0 6 0;
#X connect 13 0 5 0;
#X connect 15 0 3 0;
#X connect 15 0 11 0;
