#N canvas 630 173 657 517 10;
#X obj 101 19 smoother~;
#X obj 157 150 *~;
#X text 291 208 chebyshev waveshaper that goes up to 256 should be
around O(ln n) maybe?;
#X obj 203 114 clip~ 0 1;
#X obj 356 341 ./oscope~;
#X obj 65 106 tabosc4~ bettersin;
#X obj 395 86 table bettersin 4096;
#X msg 449 122 \; bettersin sinesum 4096 1;
#X obj 456 41 loadbang;
#X obj 220 64 smoother~ 100;
#X obj 152 176 ./tcheb~;
#X obj 242 132 ./smoother~ 100;
#X obj 156 212 ./outputc~;
#X connect 0 0 5 0;
#X connect 1 0 10 0;
#X connect 3 0 1 1;
#X connect 5 0 1 0;
#X connect 8 0 7 0;
#X connect 9 0 3 0;
#X connect 10 0 4 0;
#X connect 10 0 12 0;
#X connect 10 0 12 1;
#X connect 11 0 10 1;
