#N canvas 463 205 656 443 10;
#X declare -lib zexy;
#X obj 255 94 inlet;
#X obj 152 301 f;
#X floatatom 253 215 6 0 0 2 ms - - 0;
#X floatatom 205 215 6 0 0 2 bpm - - 0;
#X msg 164 166 set \$1;
#X msg 192 332 60000;
#X obj 201 357 /;
#X obj 193 312 t b f;
#X obj 142 193 int;
#X obj 152 345 outlet;
#X obj 143 143 /;
#X obj 254 234 bng 15 250 50 0 empty empty int 17 5 0 10 #fcfcfc #000000 #000000;
#X obj 395 78 f \$1;
#X obj 432 155 select bpm;
#X obj 443 104 symbol \$2;
#X obj 297 118 inlet;
#X obj 406 49 t b b;
#X msg 432 177 1;
#X msg 488 180 0;
#X msg 143 120 60000 \$1;
#X obj 325 344 outlet;
#X obj 399 20 loadbang;
#X obj 206 234 bng 15 250 50 0 empty empty int 17 7 0 10 #fcfcfc #000000 #000000;
#X obj 158 49 declare -lib zexy;
#X obj 392 237 demultiplex;
#X connect 0 0 2 0;
#X connect 1 0 9 0;
#X connect 2 0 1 0;
#X connect 2 0 19 0;
#X connect 3 0 7 0;
#X connect 4 0 3 0;
#X connect 5 0 6 0;
#X connect 6 0 2 0;
#X connect 7 0 5 0;
#X connect 7 1 6 1;
#X connect 8 0 3 0;
#X connect 10 0 4 0;
#X connect 10 0 8 1;
#X connect 10 0 20 0;
#X connect 12 0 24 0;
#X connect 13 0 17 0;
#X connect 13 1 18 0;
#X connect 14 0 13 0;
#X connect 15 0 3 0;
#X connect 16 0 12 0;
#X connect 16 1 14 0;
#X connect 17 0 24 1;
#X connect 18 0 24 1;
#X connect 19 0 10 0;
#X connect 21 0 16 0;
#X connect 22 0 8 0;
#X connect 24 0 2 0;
#X connect 24 1 3 0;
#X coords 0 -1 1 1 100 67 1 200 186;
