#N canvas 363 223 656 443 10;
#X obj 255 94 inlet;
#X obj 152 301 f;
#X floatatom 253 215 7 0 0 2 ms - -, f 7;
#X floatatom 206 215 7 0 0 2 bpm - -, f 7;
#X msg 164 166 set \$1;
#X msg 192 332 60000;
#X obj 201 357 /;
#X obj 193 312 t b f;
#X obj 142 193 int;
#X obj 152 345 outlet;
#X obj 143 143 /;
#X obj 254 233 bng 15 250 50 0 empty empty int 17 5 0 10 -262144 -1
-1;
#X obj 418 77 f \$1;
#X obj 432 155 select bpm;
#X obj 431 106 symbol \$2;
#X text 384 103 tempo;
#X obj 345 213 int;
#X obj 405 214 pack;
#X obj 392 237 route 0 1;
#X floatatom 253 265 7 0 0 2 /4 - -, f 7;
#X floatatom 207 265 7 0 0 2 /3 - -, f 7;
#X obj 310 239 / 4;
#X msg 312 264 set \$1;
#X obj 304 294 * 4;
#X msg 150 252 set \$1;
#X obj 148 229 / 3;
#X obj 348 184 * 3;
#X obj 297 118 inlet;
#X obj 406 49 t b b;
#X msg 432 177 1;
#X msg 488 180 0;
#X msg 143 120 60000 \$1;
#X obj 325 344 outlet;
#X obj 399 20 loadbang;
#X obj 436 126 spigot;
#X obj 388 343 outlet;
#X obj 453 342 outlet;
#X obj 206 234 bng 15 250 50 0 empty empty int 17 7 0 10 -262144 -1
-1;
#X connect 0 0 2 0;
#X connect 1 0 9 0;
#X connect 2 0 1 0;
#X connect 2 0 16 1;
#X connect 2 0 21 0;
#X connect 2 0 25 0;
#X connect 2 0 31 0;
#X connect 3 0 7 0;
#X connect 4 0 3 0;
#X connect 5 0 6 0;
#X connect 6 0 2 0;
#X connect 7 0 5 0;
#X connect 7 1 6 1;
#X connect 8 0 3 0;
#X connect 10 0 4 0;
#X connect 10 0 8 1;
#X connect 10 0 32 0;
#X connect 11 0 16 0;
#X connect 12 0 17 1;
#X connect 12 0 34 1;
#X connect 13 0 29 0;
#X connect 13 1 30 0;
#X connect 14 0 34 0;
#X connect 16 0 2 0;
#X connect 17 0 18 0;
#X connect 18 0 2 0;
#X connect 18 1 3 0;
#X connect 19 0 23 0;
#X connect 20 0 26 0;
#X connect 21 0 22 0;
#X connect 21 0 36 0;
#X connect 22 0 19 0;
#X connect 23 0 2 0;
#X connect 24 0 20 0;
#X connect 25 0 24 0;
#X connect 25 0 35 0;
#X connect 26 0 2 0;
#X connect 27 0 3 0;
#X connect 28 0 14 0;
#X connect 28 1 12 0;
#X connect 29 0 17 0;
#X connect 30 0 17 0;
#X connect 31 0 10 0;
#X connect 33 0 28 0;
#X connect 34 0 13 0;
#X connect 37 0 8 0;
#X coords 0 -1 1 1 100 100 1 200 186;
