#N canvas 0 22 450 300 10;
#X obj 121 7 loadbang;
#X obj 172 102 bng 15 250 50 0 empty empty empty 17 7 0 10 -262144
-1 -1;
#X obj 106 147 outlet;
#X text 260 108 for quick testing;
#X obj 104 66 metro;
#X obj 110 29 t b b;
#X obj 151 44 f \$1;
#X floatatom 190 102 5 0 0 0 - - -;
#X obj 71 24 inlet;
#X obj 154 68 ./if 0 200;
#X connect 0 0 5 0;
#X connect 1 0 2 0;
#X connect 4 0 1 0;
#X connect 5 0 4 0;
#X connect 5 1 6 0;
#X connect 6 0 9 0;
#X connect 7 0 4 1;
#X connect 8 0 7 0;
#X connect 9 0 7 0;
#X coords 0 -1 1 1 125 20 1 100 100;
