#N canvas 511 158 575 634 10;
#X declare -lib iemlib -lib zexy;
#X obj 42 543 inlet~;
#X obj 286 312 inlet;
#X obj 22 582 tabwrite~ \$0-testar;
#N canvas 0 22 450 278 (subpatch) 0;
#X array \$0-testar 100 float 2;
#X coords 0 1 1024 -1 255 140 1 0 0;
#X restore 53 368 graph;
#X floatatom 108 351 5 0 0 1 size - -;
#X obj 110 13 loadbang;
#X floatatom 167 351 4 0 0 1 lower - -;
#X floatatom 228 351 4 0 0 1 upper - -;
#X obj 110 73 pdcontrol;
#X msg 110 53 args;
#X obj 110 32 t b b;
#X obj 85 295 inlet;
#X obj 220 240 inlet;
#X obj 225 108 list length;
#X obj 105 95 t l l;
#X obj 408 503 s \$0-testar;
#X msg 339 464 resize \$1;
#X obj 289 351 bng 15 250 50 0 empty empty empty 17 7 0 10 -262144
-1 -1;
#X obj 327 317 inlet;
#X msg 175 74 1024;
#X obj 235 136 sel 0 1 2;
#X obj 235 187 t b b b;
#X obj 230 215 f;
#X msg 256 212 -1;
#X msg 295 211 1;
#X obj 407 443 pack f f f;
#X obj 439 394 t b f;
#X obj 324 435 speedlim 500;
#X obj 257 159 t b b;
#X obj 246 56 declare -lib iemlib -lib zexy;
#X obj 103 178 unpack f f f;
#X obj 128 202 demultiplex;
#X msg 308 161 1;
#X obj 177 230 t b f;
#X msg 181 251 0;
#X obj 410 365 t b f;
#X msg 407 464 bounds 0 \$3 \$1 \$2;
#X msg 232 315 set \$1;
#X msg 160 295 set \$1;
#X msg 114 266 set \$1;
#X connect 0 0 2 0;
#X connect 1 0 7 0;
#X connect 4 0 27 0;
#X connect 5 0 10 0;
#X connect 6 0 35 0;
#X connect 7 0 26 0;
#X connect 8 0 14 0;
#X connect 9 0 8 0;
#X connect 10 0 9 0;
#X connect 10 1 19 0;
#X connect 11 0 4 0;
#X connect 12 0 35 0;
#X connect 12 0 6 0;
#X connect 13 0 20 0;
#X connect 14 0 30 0;
#X connect 14 1 13 0;
#X connect 16 0 15 0;
#X connect 17 0 2 0;
#X connect 18 0 17 0;
#X connect 19 0 22 1;
#X connect 20 0 21 0;
#X connect 20 1 28 0;
#X connect 20 2 32 0;
#X connect 21 0 22 0;
#X connect 21 1 23 0;
#X connect 21 2 24 0;
#X connect 22 0 25 0;
#X connect 22 0 39 0;
#X connect 22 0 16 0;
#X connect 23 0 38 0;
#X connect 23 0 25 1;
#X connect 24 0 37 0;
#X connect 24 0 25 2;
#X connect 25 0 36 0;
#X connect 26 0 25 0;
#X connect 26 1 25 2;
#X connect 27 0 16 0;
#X connect 28 0 23 0;
#X connect 28 1 24 0;
#X connect 30 0 25 0;
#X connect 30 0 39 0;
#X connect 30 0 16 0;
#X connect 30 1 31 0;
#X connect 30 2 37 0;
#X connect 30 2 25 2;
#X connect 31 0 38 0;
#X connect 31 0 25 1;
#X connect 31 1 33 0;
#X connect 32 0 31 1;
#X connect 33 0 34 0;
#X connect 33 1 37 0;
#X connect 33 1 25 2;
#X connect 34 0 38 0;
#X connect 34 0 25 1;
#X connect 35 0 25 0;
#X connect 35 1 25 1;
#X connect 36 0 15 0;
#X connect 37 0 7 0;
#X connect 38 0 6 0;
#X connect 39 0 4 0;
#X coords 0 -1 1 1 261 165 2 50 347;
