#N canvas 78 107 450 300 10;
#X obj 143 272 outlet;
#X obj 141 59 inlet;
#X obj 141 84 route set nonzero;
#X msg 212 169 0;
#X obj 240 105 route bang;
#X obj 149 169 sel 0;
#X obj 212 144 b;
#X obj 149 141 f \$1;
#X obj 149 200 f;
#X obj 322 46 loadbang;
#X obj 184 105 sel 0;
#X msg 184 126 1;
#X obj 322 67 f \$2;
#X connect 1 0 2 0;
#X connect 2 0 7 1;
#X connect 2 1 10 0;
#X connect 2 2 4 0;
#X connect 3 0 0 0;
#X connect 3 0 7 1;
#X connect 4 0 7 0;
#X connect 4 1 7 1;
#X connect 4 1 0 0;
#X connect 5 0 8 0;
#X connect 5 1 6 0;
#X connect 6 0 3 0;
#X connect 7 0 5 0;
#X connect 8 0 0 0;
#X connect 8 0 7 1;
#X connect 9 0 12 0;
#X connect 10 0 11 0;
#X connect 10 1 8 1;
#X connect 11 0 8 1;
#X connect 12 0 10 0;
