#N canvas 0 22 450 300 10;
#X obj 82 78 inlet~;
#X obj 247 16 loadbang;
#X obj 247 37 samplerate~;
#X obj 241 152 noise~;
#X obj 82 270 outlet~;
#X obj 130 78 * 0.333333;
#X obj 82 99 clip~ 1;
#X obj 82 128 expr~ $f2/$v1;
#X obj 82 178 expr~ $v2*$v1*0.5/($v1 - 1);
#X obj 82 199 +~ 0.5;
#X obj 97 223 wrap~;
#X obj 82 245 -~;
#X obj 247 58 change -1;
#X obj 136 14 r pd-dsp-started;
#X connect 0 0 6 0;
#X connect 1 0 2 0;
#X connect 2 0 12 0;
#X connect 3 0 8 1;
#X connect 5 0 6 2;
#X connect 6 0 7 0;
#X connect 7 0 8 0;
#X connect 8 0 9 0;
#X connect 9 0 11 0;
#X connect 9 0 10 0;
#X connect 10 0 11 1;
#X connect 11 0 4 0;
#X connect 12 0 5 0;
#X connect 12 0 7 1;
#X connect 13 0 2 0;
