#N canvas 224 187 501 414 10;
#X obj 82 78 inlet~;
#X obj 247 16 loadbang;
#X obj 247 37 samplerate~;
#X obj 241 152 noise~;
#X obj 78 301 outlet~;
#X obj 130 78 * 0.333333;
#X obj 82 99 clip~ 1;
#X obj 78 230 +~ 0.5;
#X obj 93 254 wrap~;
#X obj 78 276 -~;
#X obj 247 58 change -1;
#X obj 136 14 r pd-dsp-started;
#X obj 81 198 /~;
#X obj 84 148 -~ 1;
#X obj 241 173 *~;
#X obj 241 194 *~ 0.5;
#X obj 82 128 rover~;
#X connect 0 0 6 0;
#X connect 1 0 2 0;
#X connect 2 0 10 0;
#X connect 3 0 14 1;
#X connect 5 0 6 2;
#X connect 6 0 16 0;
#X connect 7 0 9 0;
#X connect 7 0 8 0;
#X connect 8 0 9 1;
#X connect 9 0 4 0;
#X connect 10 0 5 0;
#X connect 10 0 16 1;
#X connect 11 0 2 0;
#X connect 12 0 7 0;
#X connect 13 0 12 1;
#X connect 14 0 15 0;
#X connect 15 0 12 0;
#X connect 16 0 13 0;
#X connect 16 0 14 0;
