#N canvas 0 22 638 344 10;
#X floatatom 282 162 8 0 0 0 - - -;
#X floatatom 277 107 5 0 0 0 - - -;
#X msg 325 98 12;
#X msg 363 98 -12;
#X msg 256 92 7;
#X msg 292 81 5;
#X text 85 40 takes an interval in semitones in and outputs an approximate
pitch ratio;
#X obj 281 138 ./transpose;
#X connect 1 0 7 0;
#X connect 2 0 7 0;
#X connect 3 0 7 0;
#X connect 4 0 7 0;
#X connect 5 0 7 0;
#X connect 7 0 0 0;
