#N canvas 275 200 450 300 10;
#X obj 47 15 inlet;
#X obj 52 170 outlet;
#X obj 46 55 * 0.0833333;
#X obj 46 106 pow;
#X msg 46 76 2 \$1;
#X connect 0 0 2 0;
#X connect 2 0 4 0;
#X connect 3 0 1 0;
#X connect 4 0 3 0;
