#N canvas 252 213 775 560 10;
#X obj 201 54 sig~ 1;
#X obj 201 83 -~;
#X obj 140 288 *~;
#X obj 142 365 outlet~;
#X obj 294 75 inlet~;
#X obj 91 13 inlet~;
#X obj 113 99 *~ 2;
#X obj 112 131 -~ 1;
#X obj 113 159 clip~ 0 1;
#X obj 198 166 clip~ 0 1;
#X obj 140 199 +~;
#X obj 201 110 *~ 2;
#X obj 201 133 -~ 1;
#X obj 140 228 *~ 2;
#X obj 140 256 -~ 1;
#X obj 385 61 inlet~;
#X obj 159 331 +~;
#X obj 101 42 +~ 0.5;
#X obj 101 68 wrap~;
#X text 418 97 like operatord~ \, but for a triangle wave;
#X connect 0 0 1 0;
#X connect 1 0 11 0;
#X connect 2 0 16 0;
#X connect 4 0 2 1;
#X connect 5 0 17 0;
#X connect 6 0 7 0;
#X connect 7 0 8 0;
#X connect 8 0 10 0;
#X connect 9 0 10 1;
#X connect 10 0 13 0;
#X connect 11 0 12 0;
#X connect 12 0 9 0;
#X connect 13 0 14 0;
#X connect 14 0 2 0;
#X connect 15 0 16 1;
#X connect 16 0 3 0;
#X connect 17 0 18 0;
#X connect 18 0 6 0;
#X connect 18 0 1 1;
