#N canvas 294 83 752 439 10;
#X text 406 129 range: -1 to 1;
#X msg 307 243 \; pd dsp 1;
#X obj 43 178 ./oscope~;
#X obj 81 103 phasor~;
#X text 231 66 inlets: phasor~ \, mul \, add;
#X text 344 109 like triangulator~ \, but takes phasor~ instead of
frequency;
#X obj 136 100 ./smoother~;
#X obj 226 99 ./smoother~;
#X obj 74 59 ./smoother~;
#X obj 77 150 ./triangulatord~;
#X obj 375 192 ./triangulatord~ 2 5;
#X obj 398 233 ./triangulatord~ 2;
#X connect 3 0 9 0;
#X connect 6 0 9 1;
#X connect 7 0 9 2;
#X connect 8 0 3 0;
#X connect 9 0 2 0;
