#N canvas 215 52 644 368 10;
#X text 167 123 samphold~ trigger (@ lowest triangle wave value);
#X text 334 78 like operator~ \, but for a triangle wave;
#X text 396 98 range: -1 to 1;
#X msg 287 261 \; pd dsp 1;
#X obj 33 147 ./oscope~;
#X text 118 33 inlets: freq \, mul \, add \, phase;
#X msg 280 92 1;
#X obj 67 119 ./triangulator~;
#X obj 200 66 ./smoother~;
#X obj 121 62 ./smoother~;
#X obj 49 58 ./smoother~;
#X obj 357 213 ./outputc~;
#X connect 6 0 7 3;
#X connect 7 0 4 0;
#X connect 7 0 11 0;
#X connect 7 0 11 1;
#X connect 8 0 7 2;
#X connect 9 0 7 1;
#X connect 10 0 7 0;
