#N canvas 767 89 775 560 10;
#X obj 112 52 phasor~;
#X obj 140 313 *~;
#X obj 142 390 outlet~;
#X obj 294 75 inlet~;
#X obj 485 2 inlet;
#X obj 109 22 inlet~;
#X obj 205 314 outlet~;
#X obj 140 224 +~;
#X obj 385 61 inlet~;
#X obj 142 354 +~;
#X obj 140 281 -~ 1;
#X obj 112 77 +~ 0.25;
#X obj 113 97 wrap~;
#X obj 205 273 wrap~;
#X obj 205 253 +~ 0.75;
#X obj 485 48 wrap;
#X obj 485 25 + 0.25;
#X obj 113 124 scaler~ 4 -2;
#X obj 113 184 max~ 0;
#X obj 201 114 1-0switch~;
#X obj 201 135 scaler~ 4 -2;
#X obj 198 191 max~ 0;
#X connect 0 0 11 0;
#X connect 0 0 14 0;
#X connect 1 0 9 0;
#X connect 3 0 1 1;
#X connect 4 0 16 0;
#X connect 5 0 0 0;
#X connect 7 0 10 0;
#X connect 8 0 9 1;
#X connect 9 0 2 0;
#X connect 10 0 1 0;
#X connect 11 0 12 0;
#X connect 12 0 17 0;
#X connect 12 0 19 0;
#X connect 13 0 6 0;
#X connect 14 0 13 0;
#X connect 15 0 0 1;
#X connect 16 0 15 0;
#X connect 17 0 18 0;
#X connect 18 0 7 0;
#X connect 19 0 20 0;
#X connect 20 0 21 0;
#X connect 21 0 7 1;
