#N canvas 252 213 775 560 10;
#X obj 112 52 phasor~;
#X obj 201 50 sig~ 1;
#X obj 201 114 -~;
#X obj 140 313 *~;
#X obj 142 390 outlet~;
#X obj 294 75 inlet~;
#X obj 485 2 inlet;
#X obj 109 22 inlet~;
#X obj 205 314 outlet~;
#X obj 113 124 *~ 2;
#X obj 112 156 -~ 1;
#X obj 140 224 +~;
#X obj 201 135 *~ 2;
#X obj 201 158 -~ 1;
#X obj 140 253 *~ 2;
#X obj 385 61 inlet~;
#X obj 142 354 +~;
#X obj 113 184 clip~ 0 1;
#X obj 140 281 -~ 1;
#X obj 198 191 clip~ 0 1;
#X obj 112 77 +~ 0.25;
#X obj 113 97 wrap~;
#X obj 205 273 wrap~;
#X obj 205 253 +~ 0.75;
#X obj 485 48 wrap;
#X obj 485 25 + 0.25;
#X connect 0 0 20 0;
#X connect 0 0 23 0;
#X connect 1 0 2 0;
#X connect 2 0 12 0;
#X connect 3 0 16 0;
#X connect 5 0 3 1;
#X connect 6 0 25 0;
#X connect 7 0 0 0;
#X connect 9 0 10 0;
#X connect 10 0 17 0;
#X connect 11 0 14 0;
#X connect 12 0 13 0;
#X connect 13 0 19 0;
#X connect 14 0 18 0;
#X connect 15 0 16 1;
#X connect 16 0 4 0;
#X connect 17 0 11 0;
#X connect 18 0 3 0;
#X connect 19 0 11 1;
#X connect 20 0 21 0;
#X connect 21 0 9 0;
#X connect 21 0 2 1;
#X connect 22 0 8 0;
#X connect 23 0 22 0;
#X connect 24 0 0 1;
#X connect 25 0 24 0;
