#N canvas 0 22 450 300 10;
#X obj 108 56 inlet~;
#X obj 114 96 phasor~;
#X obj 205 36 inlet;
#X obj 148 246 outlet~;
#X obj 262 227 outlet~;
#X obj 65 229 outlet~;
#X obj 284 22 loadbang;
#X obj 284 75 f \$1;
#X obj 108 160 dsrand~;
#X obj 232 159 dsrand~;
#X msg 234 95 seed \$1;
#X msg 318 141 seed \$1;
#X obj 317 121 + 845011;
#X obj 327 72 f \$2;
#X obj 330 98 sel 0;
#X obj 288 44 t b b;
#X obj 141 221 *~ 0.5;
#X obj 259 203 *~ 0.5;
#X connect 0 0 1 0;
#X connect 1 0 5 0;
#X connect 1 0 8 0;
#X connect 1 0 9 0;
#X connect 2 0 1 1;
#X connect 6 0 15 0;
#X connect 7 0 10 0;
#X connect 7 0 12 0;
#X connect 8 0 16 0;
#X connect 8 1 17 0;
#X connect 9 0 16 0;
#X connect 9 1 17 0;
#X connect 10 0 8 0;
#X connect 11 0 9 0;
#X connect 12 0 11 0;
#X connect 13 0 14 0;
#X connect 14 1 12 1;
#X connect 15 0 7 0;
#X connect 15 1 13 0;
#X connect 16 0 3 0;
#X connect 17 0 4 0;
