#N canvas 468 249 821 565 10;
#X obj 184 60 noise~;
#X obj 171 139 samphold~;
#X obj 172 180 z~ 1;
#X obj 154 217 samphold~;
#X obj 188 270 -~;
#X obj 228 348 +~;
#X obj 218 312 *~;
#X obj 625 42 inlet;
#X obj 227 396 outlet~;
#X obj 232 112 sampphase~;
#X obj 243 69 scaler~ \$1 \$2;
#X obj 283 19 inlet;
#X obj 320 14 inlet;
#X obj 217 14 noise~;
#X obj 322 38 max 0;
#X obj 281 40 max 0;
#X connect 0 0 1 0;
#X connect 1 0 2 0;
#X connect 1 0 4 0;
#X connect 2 0 3 0;
#X connect 3 0 4 1;
#X connect 3 0 5 1;
#X connect 4 0 6 0;
#X connect 5 0 8 0;
#X connect 6 0 5 0;
#X connect 7 0 9 1;
#X connect 9 0 1 1;
#X connect 9 0 3 1;
#X connect 9 0 6 1;
#X connect 10 0 9 0;
#X connect 11 0 15 0;
#X connect 12 0 14 0;
#X connect 13 0 10 0;
#X connect 14 0 10 2;
#X connect 15 0 10 1;
