#N canvas 321 156 881 509 10;
#X obj 5 225 tgl 40 0 \$0-NOTHIN \$0-NUTTIN 1 17 17 0 10 -262144 -1
-1 0 1;
#X obj 176 29 inlet;
#X obj 406 150 outlet;
#X obj 45 225 tgl 40 0 \$0-NOTHIN \$0-NUTTIN 2 17 17 0 10 -262144 -1
-1 0 1;
#X obj 85 225 tgl 40 0 \$0-NOTHIN \$0-NUTTIN 3 17 17 0 10 -262144 -1
-1 0 1;
#X obj 125 225 tgl 40 0 \$0-NOTHIN \$0-NUTTIN 4 17 17 0 10 -262144
-1 -1 0 1;
#X obj 165 225 tgl 40 0 \$0-NOTHIN \$0-NUTTIN 5 17 17 0 10 -262144
-1 -1 0 1;
#X obj 205 225 tgl 40 0 \$0-NOTHIN \$0-NUTTIN 6 17 17 0 10 -262144
-1 -1 0 1;
#X obj 245 225 tgl 40 0 \$0-NOTHIN \$0-NUTTIN 7 17 17 0 10 -262144
-1 -1 0 1;
#X obj 285 225 tgl 40 0 \$0-NOTHIN \$0-NUTTIN 8 17 17 0 10 -262144
-1 -1 0 1;
#X obj 325 225 tgl 40 0 \$0-NOTHIN \$0-NUTTIN 9 17 17 0 10 -262144
-1 -1 0 1;
#X obj 365 225 tgl 40 0 \$0-NOTHIN \$0-NUTTIN 10 14 17 0 10 -262144
-1 -1 0 1;
#X obj 405 225 tgl 40 0 \$0-NOTHIN \$0-NUTTIN 11 14 17 0 10 -262144
-1 -1 0 1;
#X obj 445 225 tgl 40 0 \$0-NOTHIN \$0-NUTTIN 12 14 17 0 10 -262144
-1 -1 0 1;
#X obj 485 225 tgl 40 0 \$0-NOTHIN \$0-NUTTIN 13 14 17 0 10 -262144
-1 -1 0 1;
#X obj 525 225 tgl 40 0 \$0-NOTHIN \$0-NUTTIN 14 14 17 0 10 -262144
-1 -1 0 1;
#X obj 565 225 tgl 40 0 \$0-NOTHIN \$0-NUTTIN 15 14 17 0 10 -262144
-1 -1 0 1;
#X obj 605 225 tgl 40 0 \$0-NOTHIN \$0-NUTTIN 16 14 17 0 10 -262144
-1 -1 0 1;
#X obj 63 152 unpack f f f f f f f f f f f f f f f f;
#X obj 85 105 route list;
#X obj 407 100 tabread \$0-tgls;
#X obj 407 121 sel 1;
#X obj 253 394 tabwrite \$0-tgls;
#X obj 402 429 table \$0-tgls 16;
#X obj -6 284 t f b;
#X msg 20 307 0;
#X obj 42 281 t f b;
#X obj 82 280 t f b;
#X obj 127 281 t f b;
#X obj 166 279 t f b;
#X obj 214 276 t f b;
#X obj 254 275 t f b;
#X obj 299 276 t f b;
#X obj 337 278 t f b;
#X obj 385 275 t f b;
#X obj 425 274 t f b;
#X obj 470 275 t f b;
#X obj 480 321 t f b;
#X obj 528 318 t f b;
#X obj 568 317 t f b;
#X obj 613 318 t f b;
#X msg 68 304 1;
#X msg 108 303 2;
#X msg 142 304 3;
#X msg 195 305 4;
#X msg 240 299 5;
#X msg 283 302 6;
#X msg 314 299 7;
#X msg 363 301 8;
#X msg 411 298 9;
#X msg 451 297 10;
#X msg 485 298 11;
#X msg 506 344 12;
#X msg 554 341 13;
#X msg 594 340 14;
#X msg 628 341 15;
#X obj 103 205 bng 15 250 50 0 empty empty clear 17 7 0 10 -262144
-1 -1;
#X obj 163 206 bng 15 250 50 0 empty empty all_on 17 7 0 10 -262144
-1 -1;
#X msg 86 126 0 0 0 0 0 0 0 0 0 0 0 0 0 0 0 0;
#X msg 165 100 1 1 1 1 1 1 1 1 1 1 1 1 1 1 1 1;
#X obj 176 56 route dump clear allon;
#X obj 262 206 bng 15 250 50 0 empty empty dump 17 7 0 10 -262144 -1
-1;
#X obj 730 371 outlet;
#X obj 519 133 array;
#X obj 708 334 array get \$0-tgls;
#X connect 0 0 24 0;
#X connect 1 0 60 0;
#X connect 3 0 26 0;
#X connect 4 0 27 0;
#X connect 5 0 28 0;
#X connect 6 0 29 0;
#X connect 7 0 30 0;
#X connect 8 0 31 0;
#X connect 9 0 32 0;
#X connect 10 0 33 0;
#X connect 11 0 34 0;
#X connect 12 0 35 0;
#X connect 13 0 36 0;
#X connect 14 0 37 0;
#X connect 15 0 38 0;
#X connect 16 0 39 0;
#X connect 17 0 40 0;
#X connect 18 0 0 0;
#X connect 18 1 3 0;
#X connect 18 2 4 0;
#X connect 18 3 5 0;
#X connect 18 4 6 0;
#X connect 18 5 7 0;
#X connect 18 6 8 0;
#X connect 18 7 9 0;
#X connect 18 8 10 0;
#X connect 18 9 11 0;
#X connect 18 10 12 0;
#X connect 18 11 13 0;
#X connect 18 12 14 0;
#X connect 18 13 15 0;
#X connect 18 14 16 0;
#X connect 18 15 17 0;
#X connect 19 0 18 0;
#X connect 19 1 20 0;
#X connect 20 0 21 0;
#X connect 21 0 2 0;
#X connect 24 0 22 0;
#X connect 24 1 25 0;
#X connect 25 0 22 1;
#X connect 26 0 22 0;
#X connect 26 1 41 0;
#X connect 27 0 22 0;
#X connect 27 1 42 0;
#X connect 28 0 22 0;
#X connect 28 1 43 0;
#X connect 29 0 22 0;
#X connect 29 1 44 0;
#X connect 30 0 22 0;
#X connect 30 1 45 0;
#X connect 31 0 22 0;
#X connect 31 1 46 0;
#X connect 32 0 22 0;
#X connect 32 1 47 0;
#X connect 33 0 22 0;
#X connect 33 1 48 0;
#X connect 34 0 22 0;
#X connect 34 1 49 0;
#X connect 35 0 22 0;
#X connect 35 1 50 0;
#X connect 36 0 22 0;
#X connect 36 1 51 0;
#X connect 37 0 22 0;
#X connect 37 1 52 0;
#X connect 38 0 22 0;
#X connect 38 1 53 0;
#X connect 39 0 22 0;
#X connect 39 1 54 0;
#X connect 40 0 22 0;
#X connect 40 1 55 0;
#X connect 41 0 22 1;
#X connect 42 0 22 1;
#X connect 43 0 22 1;
#X connect 44 0 22 1;
#X connect 45 0 22 1;
#X connect 46 0 22 1;
#X connect 47 0 22 1;
#X connect 48 0 22 1;
#X connect 49 0 22 1;
#X connect 50 0 22 1;
#X connect 51 0 22 1;
#X connect 52 0 22 1;
#X connect 53 0 22 1;
#X connect 54 0 22 1;
#X connect 55 0 22 1;
#X connect 56 0 58 0;
#X connect 57 0 59 0;
#X connect 58 0 18 0;
#X connect 59 0 18 0;
#X connect 60 0 64 0;
#X connect 60 1 58 0;
#X connect 60 2 59 0;
#X connect 60 3 19 0;
#X connect 61 0 64 0;
#X connect 64 0 62 0;
#X coords 0 -1 1 1 650 70 1 0 200;
