#N canvas 170 23 1112 811 10;
#X obj 54 333 tseq;
#X obj 125 227 cyclecount 16;
#X obj 142 203 metro;
#X obj 145 34 loadbang;
#X obj 101 172 tgl 15 0 empty empty on/off 17 7 0 10 -262144 -1 -1
0 1;
#X obj 183 122 expr 60000 / $f1;
#X floatatom 171 79 5 0 0 0 bpm - -;
#X floatatom 173 181 5 0 0 0 ms - -;
#X floatatom 146 251 5 0 0 0 - - -;
#X obj 58 275 hradio 40 1 0 16 empty empty empty 0 -8 0 10 -262144
-1 -1 2;
#X obj 148 627 osc~;
#X obj 4 560 line~;
#X obj 300 103 s lbang;
#X msg 6 535 1 \, 0 \$1;
#X obj 19 508 f 100;
#X floatatom 43 482 5 0 0 0 length - -;
#X obj 148 661 *~;
#X msg 167 57 120;
#X msg 138 543 0;
#X obj 242 604 noise~;
#X obj 291 639 line~;
#X floatatom 351 554 5 0 0 0 length - -;
#X obj 268 665 *~;
#X obj 196 689 *~ 0.5;
#X obj 175 595 mtof;
#X floatatom 201 625 5 0 0 0 - - -;
#X obj 247 506 random 10000;
#X obj 164 150 * 0.25;
#X obj 170 572 + 37;
#X obj 260 575 + 100;
#X obj 244 636 vcf~ 10;
#X obj 249 542 * 0.25;
#X msg 293 614 5 \, 0 \$1;
#X obj 170 526 random 12;
#X obj 306 587 f 60;
#X msg 695 198 1 0 1 0 1 1 0 1 1 0 1 1 1 1 1 1;
#N canvas 879 430 450 300 show 0;
#X obj 248 64 list prepend set;
#X obj 259 100 list trim;
#X obj 241 37 inlet;
#X obj 261 135 outlet;
#X connect 0 0 1 0;
#X connect 1 0 3 0;
#X connect 2 0 0 0;
#X restore 720 365 pd show;
#N canvas 937 481 450 300 show 0;
#X obj 248 64 list prepend set;
#X obj 259 100 list trim;
#X obj 241 37 inlet;
#X obj 261 135 outlet;
#X connect 0 0 1 0;
#X connect 1 0 3 0;
#X connect 2 0 0 0;
#X restore 693 483 pd show;
#X msg 719 387 0 1 0 0 1 1 1 0 1 1 0 0 1 1 1 1;
#X obj 778 231 bng 15 250 50 0 empty empty save_pattern 17 7 0 10 -262144
-1 -1;
#X msg 799 311 dump;
#X obj 697 156 r lbang;
#X obj 774 363 r lbang;
#X obj 55 406 tseq;
#X text 425 83 messages to tseq: allon \, clear \, dump. A list is
interpreted as the pattern. a number to the inlet will cause a bang
to go out the left outlet if the step is on. left outlet puts out bangs
\, right outlet outputs current pattern as a list when "dump" is received.
;
#X obj 177 715 outputc~;
#X connect 0 0 14 0;
#X connect 0 0 18 0;
#X connect 0 0 33 0;
#X connect 0 1 36 0;
#X connect 1 0 8 0;
#X connect 1 0 9 0;
#X connect 1 0 0 0;
#X connect 2 0 1 0;
#X connect 3 0 17 0;
#X connect 3 0 12 0;
#X connect 4 0 2 0;
#X connect 5 0 27 0;
#X connect 6 0 5 0;
#X connect 7 0 2 1;
#X connect 9 0 43 0;
#X connect 10 0 16 1;
#X connect 11 0 16 0;
#X connect 13 0 11 0;
#X connect 14 0 13 0;
#X connect 15 0 14 1;
#X connect 16 0 23 0;
#X connect 17 0 6 0;
#X connect 18 0 10 1;
#X connect 19 0 30 0;
#X connect 20 0 22 1;
#X connect 21 0 34 1;
#X connect 22 0 23 0;
#X connect 23 0 45 1;
#X connect 23 0 45 0;
#X connect 24 0 25 0;
#X connect 24 0 10 0;
#X connect 26 0 31 0;
#X connect 27 0 7 0;
#X connect 28 0 24 0;
#X connect 29 0 30 1;
#X connect 30 0 22 0;
#X connect 31 0 29 0;
#X connect 32 0 20 0;
#X connect 33 0 28 0;
#X connect 34 0 32 0;
#X connect 35 0 0 0;
#X connect 36 0 35 0;
#X connect 37 0 38 0;
#X connect 38 0 43 0;
#X connect 39 0 40 0;
#X connect 40 0 0 0;
#X connect 40 0 43 0;
#X connect 41 0 35 0;
#X connect 42 0 38 0;
#X connect 43 0 26 0;
#X connect 43 0 34 0;
#X connect 43 1 37 0;
