#N canvas 0 23 450 300 10;
#X obj 262 78 t b b;
#X floatatom 121 116 7 0 0 0 - - - 0;
#X obj 269 30 inlet;
#X obj 103 116 bng 15 250 50 0 \$0-frombng \$0-nadabang empty 17 7 0 10 #fcfcfc #000000 #000000;
#X obj 240 171 outlet;
#X obj 329 107 spigot 0;
#X msg 382 86 1;
#X obj 262 129 timer \$1 \$2;
#X connect 0 0 6 0;
#X connect 0 0 7 0;
#X connect 0 1 5 0;
#X connect 1 0 4 0;
#X connect 2 0 0 0;
#X connect 3 0 0 0;
#X connect 5 0 7 1;
#X connect 6 0 5 1;
#X connect 7 0 1 0;
#X coords 0 -1 1 1 70 35 1 100 100;
