#N canvas 0 22 450 300 10;
#X obj 264 101 timer;
#X obj 262 78 t b b;
#X floatatom 127 117 5 0 0 0 - #0-tobox #0-nada;
#X obj 269 30 inlet;
#X obj 105 118 bng 15 250 50 0 \$0-frombng \$0-nadabang empty 17 7
0 10 -262144 -1 -1;
#X obj 240 171 outlet;
#X obj 302 122 s \$0-tobox;
#X obj 310 63 r \$0-frombng;
#X connect 0 0 5 0;
#X connect 0 0 6 0;
#X connect 1 0 0 0;
#X connect 1 1 0 1;
#X connect 3 0 1 0;
#X connect 7 0 1 0;
#X coords 0 -1 1 1 60 35 1 100 100;
