#N canvas 363 112 450 300 10;
#X obj 187 74 bang~;
#X obj 227 141 timer;
#X obj 204 256 outlet;
#X obj 280 39 inlet;
#X obj 165 114 t b b;
#X obj 168 146 timer;
#X obj 193 199 -;
#X obj 156 180 f;
#X obj 267 96 t b b;
#X obj 334 44 route dsp;
#X obj 334 23 receive pd;
#X obj 335 78 change;
#X obj 202 227 spigot;
#X obj 243 168 once;
#X msg 242 192 1;
#X msg 306 190 0;
#X obj 217 5 loadbang;
#X connect 0 0 4 0;
#X connect 0 0 13 0;
#X connect 1 0 6 1;
#X connect 3 0 8 0;
#X connect 4 0 5 0;
#X connect 4 1 5 1;
#X connect 4 1 1 0;
#X connect 5 0 7 1;
#X connect 6 0 12 0;
#X connect 7 0 6 0;
#X connect 8 0 7 0;
#X connect 8 1 1 1;
#X connect 9 0 11 0;
#X connect 10 0 9 0;
#X connect 11 0 12 1;
#X connect 12 0 2 0;
#X connect 13 0 14 0;
#X connect 14 0 12 1;
#X connect 15 0 12 1;
#X connect 16 0 15 0;
