#N canvas 380 149 450 300 10;
#X obj 274 98 tub~;
#X obj 272 71 metro 1;
#X obj 277 124 print;
#X obj 272 37 tgl 15 0 empty empty empty 17 7 0 10 -262144 -1 -1 0
1;
#X text 85 100 time until block~ (in ms);
#X connect 0 0 2 0;
#X connect 1 0 0 0;
#X connect 3 0 1 0;
