#N canvas 363 112 450 300 10;
#X obj 187 74 bang~;
#X obj 227 141 timer;
#X obj 204 256 outlet;
#X obj 280 39 inlet;
#X obj 165 114 t b b;
#X obj 168 146 timer;
#X obj 193 199 -;
#X obj 156 180 f;
#X obj 267 96 t b b;
#X connect 0 0 4 0;
#X connect 1 0 6 1;
#X connect 3 0 8 0;
#X connect 4 0 5 0;
#X connect 4 1 5 1;
#X connect 4 1 1 0;
#X connect 5 0 7 1;
#X connect 6 0 2 0;
#X connect 7 0 6 0;
#X connect 8 0 7 0;
#X connect 8 1 1 1;
