#N canvas 469 82 450 300 10;
#X obj 308 93 hsl 128 15 0 127 0 0 empty empty empty -2 -8 0 10 -262144
-1 -1 0 1;
#X obj 273 190 hsl 128 15 0 127 0 0 empty empty empty -2 -8 0 10 -262144
-1 -1 0 1;
#X obj 248 206 f;
#X msg 26 8 clear;
#X msg 27 63 write saveit.txt;
#X msg 24 34 read saveit.txt;
#X text 145 28 always supply a global name to avoid errors;
#X text 188 50 1st read saveit.txt \, then press load;
#X obj 71 168 ./txtsave savetxt;
#X obj 202 149 ./stater savetxt s4;
#X obj 187 95 ./sstater savetxt s3;
#X obj 88 83 ./saver savetxt;
#X connect 0 0 10 0;
#X connect 1 0 2 1;
#X connect 2 0 9 0;
#X connect 3 0 8 0;
#X connect 4 0 8 0;
#X connect 5 0 8 0;
#X connect 9 0 2 0;
#X connect 9 1 1 0;
#X connect 10 0 0 0;
#X connect 11 0 8 1;
#X connect 11 1 8 2;
#X connect 11 2 8 3;
