#N canvas 416 466 478 365 10;
#X obj 134 104 inlet;
#X obj 202 116 inlet;
#X obj 333 101 inlet;
#X msg 219 150 clear;
#X msg 177 146 0;
#X obj 153 176 ekext/cup;
#X obj 153 176 ekext/cup;
#X obj 76 85 inlet;
#X obj 219 191 text define \$1;
#X obj 132 204 text set \$1;
#X obj 329 157 until;
#X obj 318 212 text sequence \$1 -g;
#X obj 336 130 t b b;
#X msg 382 162 line 0;
#X obj 129 153 t l b;
#X obj 132 132 list;
#X connect 0 0 15 0;
#X connect 1 0 3 0;
#X connect 1 0 4 0;
#X connect 2 0 12 0;
#X connect 3 0 8 0;
#X connect 4 0 5 0;
#X connect 5 0 9 1;
#X connect 7 0 8 0;
#X connect 10 0 11 0;
#X connect 11 1 10 1;
#X connect 12 0 10 0;
#X connect 12 1 13 0;
#X connect 13 0 11 0;
#X connect 14 0 9 0;
#X connect 14 1 5 0;
#X connect 15 0 14 0;
