#N canvas 473 286 645 534 10;
#X declare -lib moocow;
#X obj 275 6 shell;
#X obj 286 175 <<;
#X obj 277 127 list-dripdex;
#X obj 274 100 t l b;
#X obj 286 202 +;
#X msg 315 176 0;
#X obj 276 230 f;
#X obj 304 150 * 8;
#X obj 274 76 list-rev;
#X msg 275 -18 head -c 3 /dev/random;
#X obj 277 52 list split 3;
#X obj 512 -55 inlet;
#X obj 276 296 outlet;
#X obj 273 -66 inlet;
#X obj 274 -42 bang;
#X obj 275 28 any2bytes 3 0;
#X obj 276 252 mod \$1;
#X obj 314 202 f;
#X obj 155 36 import moocow;
#X connect 0 0 15 0;
#X connect 1 0 4 0;
#X connect 2 0 1 0;
#X connect 2 1 7 0;
#X connect 2 2 6 0;
#X connect 3 0 2 0;
#X connect 3 1 5 0;
#X connect 4 0 6 1;
#X connect 4 0 17 0;
#X connect 5 0 17 0;
#X connect 6 0 16 0;
#X connect 7 0 1 1;
#X connect 8 0 3 0;
#X connect 9 0 0 0;
#X connect 10 0 8 0;
#X connect 11 0 16 1;
#X connect 13 0 14 0;
#X connect 14 0 9 0;
#X connect 15 0 10 0;
#X connect 16 0 12 0;
#X connect 17 0 4 1;
