#N canvas 448 132 450 300 10;
#X msg 288 122 2;
#X msg 178 124 5;
#X msg 88 97 bang;
#X msg 135 93 cat;
#X msg 170 98 dog;
#X text 57 53 like receiver but for value: right inlet sets name \,
left is inlet to value \, outlet is outlet from value;
#X obj 77 157 print;
#X obj 235 99 loadbang;
#X text 60 205 (note that pd will forget values if there is nothing
currently referencing them);
#X obj 78 121 ./valuer dog;
#X obj 169 148 ./valuer cat;
#X obj 290 149 ./valuer dog;
#X connect 0 0 11 0;
#X connect 1 0 10 0;
#X connect 2 0 9 0;
#X connect 3 0 9 1;
#X connect 4 0 9 1;
#X connect 7 0 1 0;
#X connect 7 0 0 0;
#X connect 9 0 6 0;
