#N canvas 102 120 1003 675 10;
#X declare -lib zexy;
#X floatatom 363 218 5 0 0 0 - - -;
#X text 373 199 depth;
#X obj 320 213 osc~;
#X text 52 205 vd~ with hermite spline interpolation;
#X text 170 259 a simple flanger->;
#X obj 365 248 + 1;
#X obj 229 468 vd~ lindsay;
#X obj 246 495 *~ 0;
#X obj 397 494 *~ 1;
#X obj 303 495 *~ 0;
#X obj 452 501 *~ 1;
#X obj 305 471 vd~ lindsay2;
#X obj 323 244 *~ 2;
#X obj 351 291 +~ 3;
#X msg 543 193 1;
#X msg 544 217 0;
#X msg 512 98 clear;
#X obj 373 270 max;
#X floatatom 449 195 5 0 0 0 - - -;
#X text 489 197 delay;
#X obj 421 232 t b f;
#X obj 447 141 delwrite~ lindsay2 2000;
#X obj 196 154 delwrite~ lindsay 2000;
#X text 573 220 lagrange;
#X text 572 192 hermite spline;
#X floatatom 581 287 5 0 0 0 - - -;
#X obj 657 388 vdhs~ lindsay 2;
#X text 625 282 2nd inlet/2nd argument: interpolation type: 0 - hermite
spline 1 - linear 2 - none only updated when dsp is started for the
object;
#X msg 50 390 set lindsay;
#X obj 59 332 tgl 15 0 empty empty swap_channels 17 7 0 10 -262144
-1 -1 0 1;
#X text 11 308 can also use "set" to change delay line;
#X obj 637 109 declare -lib zexy;
#X obj 135 420 demultiplex;
#X msg 131 389 set lindsay2;
#X obj 50 360 t b f;
#X obj 50 421 demultiplex;
#X obj 405 423 r \$0-toleft;
#X obj 509 421 r \$0-toright;
#X obj 50 471 s \$0-toleft;
#X obj 122 475 s \$0-toright;
#X obj 302 105 ./delwritec~ lindsay2 2000;
#X obj 237 135 ./delwritec~ lindsay 2000;
#X obj 497 461 ./vdhs~ lindsay2;
#X obj 391 461 ./vdhs~ lindsay;
#X obj 298 437 ./1-0switch;
#X obj 332 529 ./outputc~;
#X obj 186 22 ./sndfread~;
#X obj 347 156 ./smoother~;
#X connect 0 0 5 0;
#X connect 0 0 12 1;
#X connect 2 0 12 0;
#X connect 5 0 17 0;
#X connect 6 0 7 0;
#X connect 7 0 45 0;
#X connect 8 0 45 0;
#X connect 9 0 45 1;
#X connect 10 0 45 1;
#X connect 11 0 9 0;
#X connect 12 0 13 0;
#X connect 13 0 6 0;
#X connect 13 0 11 0;
#X connect 13 0 42 0;
#X connect 13 0 43 0;
#X connect 14 0 8 1;
#X connect 14 0 10 1;
#X connect 14 0 44 0;
#X connect 15 0 10 1;
#X connect 15 0 8 1;
#X connect 15 0 44 0;
#X connect 16 0 40 0;
#X connect 16 0 41 0;
#X connect 17 0 13 1;
#X connect 18 0 20 0;
#X connect 20 0 17 0;
#X connect 20 1 17 1;
#X connect 25 0 42 1;
#X connect 25 0 43 1;
#X connect 28 0 35 0;
#X connect 29 0 34 0;
#X connect 32 0 39 0;
#X connect 32 1 38 0;
#X connect 33 0 32 0;
#X connect 34 0 33 0;
#X connect 34 0 28 0;
#X connect 34 1 32 1;
#X connect 34 1 35 1;
#X connect 35 0 38 0;
#X connect 35 1 39 0;
#X connect 36 0 43 0;
#X connect 37 0 42 0;
#X connect 42 0 10 0;
#X connect 43 0 8 0;
#X connect 44 0 9 1;
#X connect 44 0 7 1;
#X connect 46 0 22 0;
#X connect 46 0 41 0;
#X connect 46 1 21 0;
#X connect 46 1 40 0;
#X connect 47 0 2 0;
