#N canvas 133 118 737 487 10;
#X declare -lib zexy;
#X obj 248 71 declare -lib zexy;
#X obj 503 116 samphold~;
#X obj 497 38 noise~;
#X obj 182 219 rzero~ 1;
#X obj 82 225 noise~;
#X obj 116 375 *~;
#X obj 116 396 outlet~;
#X obj 95 284 >~ 0;
#X obj 473 142 <~;
#X obj 182 250 ==~ -1;
#X obj 105 130 rzero~ 1;
#X obj 105 160 <~ 0;
#X text 48 110 make sure there is at least 1 1 on wraparound;
#X obj 182 196 min~ 1;
#X obj 497 71 scaler~ 0.5 0.5;
#X obj 95 305 scaler~ 2 -1;
#X obj 101 63 inlet~;
#X connect 1 0 8 1;
#X connect 2 0 14 0;
#X connect 3 0 9 0;
#X connect 4 0 7 0;
#X connect 5 0 6 0;
#X connect 7 0 15 0;
#X connect 8 0 13 0;
#X connect 9 0 5 1;
#X connect 10 0 11 0;
#X connect 11 0 13 0;
#X connect 13 0 3 0;
#X connect 14 0 1 0;
#X connect 15 0 5 0;
#X connect 16 0 1 1;
#X connect 16 0 8 0;
#X connect 16 0 10 0;
