#N canvas 33 123 737 487 10;
#X declare -lib zexy;
#X obj 235 26 declare -lib zexy;
#X obj 326 187 samphold~;
#X obj 321 101 noise~;
#X obj 95 265 noise~;
#X obj 116 415 *~;
#X obj 116 436 outlet~;
#X obj 95 324 >~ 0;
#X obj 182 86 inlet~;
#X obj 365 32 inlet;
#X obj 446 9 loadbang;
#X obj 365 60 f \$1;
#X obj 365 81 * 0.5;
#X obj 365 110 clip 0 0.5;
#X obj 484 72 inlet;
#X obj 95 300 +~ \$2;
#X obj 326 165 ./scaler~;
#X obj 95 345 ./scaler~ 2 -1;
#X obj 203 152 rzero~ 1;
#X obj 203 173 wrap~;
#X text 95 155 get frequency;
#X obj 188 232 wrap~;
#X obj 188 262 <~ 1;
#X obj 186 289 rminus~ 1;
#X text 227 261 no >=;
#X connect 1 0 20 0;
#X connect 2 0 15 0;
#X connect 3 0 14 0;
#X connect 4 0 5 0;
#X connect 6 0 16 0;
#X connect 7 0 1 1;
#X connect 7 0 17 0;
#X connect 7 0 20 0;
#X connect 8 0 10 0;
#X connect 9 0 10 0;
#X connect 10 0 11 0;
#X connect 11 0 12 0;
#X connect 12 0 15 1;
#X connect 12 0 15 2;
#X connect 13 0 14 1;
#X connect 14 0 6 0;
#X connect 15 0 1 0;
#X connect 16 0 4 0;
#X connect 17 0 18 0;
#X connect 18 0 21 0;
#X connect 20 0 21 0;
#X connect 21 0 22 0;
#X connect 22 0 4 1;
