#N canvas 133 118 737 487 10;
#X declare -lib zexy;
#X obj 235 26 declare -lib zexy;
#X obj 346 163 samphold~;
#X obj 341 77 noise~;
#X obj 182 318 rzero~ 1;
#X obj 95 265 noise~;
#X obj 116 415 *~;
#X obj 116 436 outlet~;
#X obj 95 324 >~ 0;
#X obj 331 189 <~;
#X obj 182 349 ==~ -1;
#X obj 105 170 rzero~ 1;
#X obj 105 200 <~ 0;
#X text 48 150 make sure there is at least 1 1 on wraparound;
#X obj 182 295 min~ 1;
#X obj 95 345 scaler~ 2 -1;
#X obj 91 27 inlet~;
#X obj 385 8 inlet;
#X obj 446 9 loadbang;
#X obj 385 36 f \$1;
#X obj 385 57 * 0.5;
#X obj 385 86 clip 0 0.5;
#X obj 346 141 scaler~;
#X obj 484 72 inlet;
#X obj 95 300 +~ \$2;
#X connect 1 0 8 1;
#X connect 2 0 21 0;
#X connect 3 0 9 0;
#X connect 4 0 23 0;
#X connect 5 0 6 0;
#X connect 7 0 14 0;
#X connect 8 0 13 0;
#X connect 9 0 5 1;
#X connect 10 0 11 0;
#X connect 11 0 13 0;
#X connect 13 0 3 0;
#X connect 14 0 5 0;
#X connect 15 0 1 1;
#X connect 15 0 8 0;
#X connect 15 0 10 0;
#X connect 16 0 18 0;
#X connect 17 0 18 0;
#X connect 18 0 19 0;
#X connect 19 0 20 0;
#X connect 20 0 21 1;
#X connect 20 0 21 2;
#X connect 21 0 1 0;
#X connect 22 0 23 1;
#X connect 23 0 7 0;
