#N canvas 350 280 729 474 10;
#X floatatom 206 74 5 0 0 0 - - -;
#X floatatom 255 74 5 0 0 0 - - -;
#X msg 34 12 reset;
#X text 340 34 vosim algorithm;
#X text 308 149 inlets: fundamental \, center frequency \, decay \,
duty cycle;
#X text 78 12 reset phase;
#X obj 262 197 ./oscope~;
#X text 283 96 args: decay factor (range -1 to 1) \, duty cycle (default
1) (range 0-1) \, center frequency;
#X obj 101 116 ./voisim~ 0.5 0.8 1000;
#X obj 86 160 ./outputc~;
#X obj 68 45 ./smoother~;
#X obj 140 34 ./smoother~ 50;
#X connect 0 0 8 2;
#X connect 1 0 8 3;
#X connect 2 0 8 0;
#X connect 8 0 6 0;
#X connect 8 0 9 0;
#X connect 8 0 9 1;
#X connect 10 0 8 0;
#X connect 11 0 8 1;
