#N canvas 478 237 460 367 10;
#X obj 103 83 *~;
#X obj 48 134 *~;
#X obj 121 134 *~;
#X obj 153 107 sqrt~;
#X obj 35 110 sqrt~;
#X obj 67 25 inlet~;
#X obj 124 30 inlet~;
#X obj 170 29 inlet~;
#X text 176 80 0 to 1 \, 0.5 is center \, 0 is left \, 1 is right;
#X text 218 44 pan;
#X obj 20 295 outlet~;
#X obj 150 273 outlet~;
#X obj 29 267 *~;
#X obj 144 247 *~;
#X obj 164 56 clip~ 0 1;
#X obj 21 84 ./1-0switch~;
#X obj 241 191 ./rover~ 1;
#X connect 0 0 2 0;
#X connect 0 0 1 1;
#X connect 1 0 12 0;
#X connect 2 0 13 0;
#X connect 3 0 2 1;
#X connect 3 0 16 0;
#X connect 4 0 1 0;
#X connect 4 0 16 0;
#X connect 5 0 0 0;
#X connect 6 0 0 1;
#X connect 7 0 14 0;
#X connect 12 0 10 0;
#X connect 13 0 11 0;
#X connect 14 0 3 0;
#X connect 14 0 15 0;
#X connect 15 0 4 0;
#X connect 16 0 13 1;
#X connect 16 0 12 1;
