#N canvas 392 146 665 543 10;
#X obj 98 153 *~;
#X obj 177 78 inlet~;
#X obj 98 85 inlet~;
#X text 222 75 index;
#X obj 100 339 outlet~;
#X text 68 31 inlet: sine wave going from 1 to -1 (or whatever going
from -1 to 1);
#X obj 98 120 +~ 1;
#X obj 99 283 -~;
#X obj 207 157 *~ 2;
#X text 294 92 index of modulation (a) scaled by 17.5 so that the signal
will have amplitude closer to 1 at index 1 (around 0.971429 opposed
to around .333333);
#X obj 177 127 max~ 0;
#X obj 213 227 expr~ (2 + $v1)/(1 + $v1);
#X obj 96 212 expr~ 2/(1+$v1);
#X connect 0 0 12 0;
#X connect 1 0 10 0;
#X connect 2 0 6 0;
#X connect 6 0 0 0;
#X connect 7 0 4 0;
#X connect 8 0 11 0;
#X connect 10 0 0 1;
#X connect 10 0 8 0;
#X connect 11 0 7 1;
#X connect 12 0 7 0;
