#N canvas 273 286 773 485 10;
#X obj 340 135 inlet~;
#X obj 498 140 inlet~;
#X obj 339 161 clip~ -1 1;
#X obj 491 172 max~ 1;
#X obj 348 197 acos~;
#X obj 349 268 cos~;
#X obj 350 243 *~;
#X obj 345 301 outlet~;
#X obj 348 222 /~ 6.28319;
#X connect 0 0 2 0;
#X connect 1 0 3 0;
#X connect 2 0 4 0;
#X connect 3 0 6 1;
#X connect 4 0 8 0;
#X connect 5 0 7 0;
#X connect 6 0 5 0;
#X connect 8 0 6 0;
