#N canvas 68 104 573 552 10;
#X obj 112 195 wavepacket~;
#X obj 92 143 phasor~;
#X obj 62 97 smoother~;
#X text 257 9 center freq;
#X text 104 13 fundamental;
#X text 409 36 bandwidth;
#X obj 349 242 oscope~;
#X obj 218 30 mtof;
#X floatatom 217 8 5 0 0 0 - - -;
#X obj 359 53 mtof;
#X floatatom 358 31 5 0 0 0 - - -;
#X obj 70 35 mtof;
#X floatatom 69 13 5 0 0 0 - - -;
#X obj 207 91 smoother~ 500;
#X obj 327 93 smoother~ 500;
#X obj 128 239 outputc~;
#X text 84 423 from a waveshaping pd help file;
#X connect 0 0 6 0;
#X connect 0 0 15 0;
#X connect 0 0 15 1;
#X connect 1 0 0 0;
#X connect 2 0 1 0;
#X connect 2 0 0 2;
#X connect 7 0 13 0;
#X connect 8 0 7 0;
#X connect 9 0 14 0;
#X connect 10 0 9 0;
#X connect 11 0 2 0;
#X connect 12 0 11 0;
#X connect 13 0 0 1;
#X connect 14 0 0 3;
