#N canvas 595 358 622 404 10;
#X obj 27 -88 inlet~;
#X obj 30 -8 *~;
#X obj 110 -66 inlet~;
#X obj 30 203 outlet~;
#X obj 32 157 -~;
#X text 72 -90 cosine in (or another signal that goes from -1 to 1)
;
#X obj 93 -17 max~ 0;
#X obj 32 78 *~ 2;
#X obj 112 76 shadylook~ rexp;
#X obj -38 36 shadylook~ rexp;
#X obj 31 -33 *~ 0.144785;
#X obj 25 -59 +~ 1;
#X obj 71 119 +~ 1;
#X obj 99 49 *~ 0.28953;
#X text 191 -57 0.144785 = -1/ln(.001);
#X connect 0 0 11 0;
#X connect 1 0 9 0;
#X connect 2 0 6 0;
#X connect 4 0 3 0;
#X connect 6 0 1 1;
#X connect 6 0 13 0;
#X connect 7 0 4 0;
#X connect 8 0 12 0;
#X connect 9 0 7 0;
#X connect 10 0 1 0;
#X connect 11 0 10 0;
#X connect 12 0 4 1;
#X connect 13 0 8 0;
