#N canvas 392 146 665 543 10;
#X obj 98 153 *~;
#X obj 177 78 inlet~;
#X obj 98 85 inlet~;
#X text 222 75 index;
#X obj 55 201 sig~ 1;
#X obj 55 269 /~;
#X obj 83 237 +~;
#X obj 55 397 outlet~;
#X text 68 31 inlet: sine wave going from 1 to -1 (or whatever going
from -1 to 1);
#X obj 98 120 +~ 1;
#X obj 54 341 -~;
#X obj 207 157 *~ 2;
#X obj 192 185 +~;
#X obj 178 205 /~;
#X obj 151 163 sig~ 1;
#X obj 155 238 +~;
#X text 294 92 index of modulation (a) scaled by 17.5 so that the signal
will have amplitude closer to 1 at index 1 (around 0.971429 opposed
to around .333333);
#X obj 54 306 *~ 2;
#X obj 177 127 max~ 0;
#X connect 0 0 6 1;
#X connect 1 0 18 0;
#X connect 2 0 9 0;
#X connect 4 0 5 0;
#X connect 4 0 6 0;
#X connect 5 0 17 0;
#X connect 6 0 5 1;
#X connect 9 0 0 0;
#X connect 10 0 7 0;
#X connect 11 0 12 1;
#X connect 12 0 13 1;
#X connect 13 0 15 1;
#X connect 14 0 12 0;
#X connect 14 0 13 0;
#X connect 14 0 15 0;
#X connect 15 0 10 1;
#X connect 17 0 10 0;
#X connect 18 0 0 1;
#X connect 18 0 11 0;
