#N canvas 236 38 665 662 12;
#X obj 145 351 *~;
#X obj 145 400 cos~;
#X obj 338 195 *~;
#X text 379 184 divide by fundamental;
#X text 384 253 second phase signal;
#X text 385 268 out of phase from;
#X text 383 285 first one;
#X obj 91 287 -~ 0.5;
#X obj 90 351 *~;
#X obj 90 374 cos~;
#X obj 227 321 samphold~;
#X obj 139 320 samphold~;
#X obj 111 472 *~;
#X obj 338 219 max~ 1;
#X obj 83 202 inlet~;
#X text 71 174 syncsor~ in;
#X obj 191 142 *~;
#X obj 262 35 inlet~;
#X obj 263 81 max~ 1;
#X obj 160 46 inlet~;
#X obj 245 105 /~;
#X obj 211 51 sig~ 1;
#X obj 111 500 outlet~;
#X obj 339 152 inlet~;
#X text 323 41 fundamental;
#X text 70 50 center freq.;
#X text 398 150 bandwidth;
#X obj 145 423 +~ 1;
#X obj 134 445 /~ 2;
#X obj 145 375 clip~ -0.5 0.5;
#X connect 0 0 29 0;
#X connect 1 0 27 0;
#X connect 2 0 13 0;
#X connect 7 0 0 0;
#X connect 7 0 8 0;
#X connect 8 0 9 0;
#X connect 9 0 12 0;
#X connect 10 0 0 1;
#X connect 11 0 8 1;
#X connect 12 0 22 0;
#X connect 13 0 10 0;
#X connect 14 0 7 0;
#X connect 14 0 11 1;
#X connect 14 0 10 1;
#X connect 16 0 11 0;
#X connect 17 0 18 0;
#X connect 18 0 20 1;
#X connect 19 0 16 0;
#X connect 20 0 16 1;
#X connect 20 0 2 1;
#X connect 21 0 20 0;
#X connect 23 0 2 0;
#X connect 27 0 28 0;
#X connect 28 0 12 1;
#X connect 29 0 1 0;
