#N canvas 595 358 575 347 10;
#X obj 27 -88 inlet~;
#X obj 30 -8 *~;
#X obj 110 -66 inlet~;
#X obj 30 203 outlet~;
#X obj 32 157 -~;
#X text 72 -90 cosine in (or another signal that goes from -1 to 1)
;
#X obj 93 -17 max~ 0;
#X obj 32 78 *~ 2;
#N canvas 904 197 394 506 array 0;
#X obj 49 35 iterate;
#X obj 56 118 exp;
#X msg 50 9 4096;
#X obj 49 78 - 4095;
#X obj 53 97 * 0.00168688;
#X obj 51 57 t f f;
#X obj 57 139 - 0.001;
#X obj 56 162 / 0.999;
#X obj 158 -131 inlet;
#X obj 58 185 tabwrite eline~;
#X msg 184 -12 obj 20 20 table eline~ 4096;
#X obj 156 -41 t b b;
#X obj 220 -239 closebang;
#X obj 231 -186 t b b;
#X obj 159 -66 sel 0;
#X msg 219 -113 1;
#X msg 208 -140 0;
#X msg 272 -56 clear;
#X obj 228 -211 spigot;
#X msg 234 -160 \; glob-seline-close bang;
#X obj 159 -88 v glob-seline-init;
#X obj 182 24 s pd-\$0-eline;
#N canvas 990 400 450 300 \$0-eline 0;
#X restore 147 54 pd \$0-eline;
#X connect 0 0 5 0;
#X connect 1 0 6 0;
#X connect 2 0 0 0;
#X connect 3 0 4 0;
#X connect 4 0 1 0;
#X connect 5 0 3 0;
#X connect 5 1 9 1;
#X connect 6 0 7 0;
#X connect 7 0 9 0;
#X connect 8 0 20 0;
#X connect 10 0 21 0;
#X connect 11 0 2 0;
#X connect 11 1 10 0;
#X connect 11 1 15 0;
#X connect 12 0 18 0;
#X connect 13 0 19 0;
#X connect 13 1 16 0;
#X connect 13 1 17 0;
#X connect 14 0 11 0;
#X connect 15 0 18 1;
#X connect 15 0 20 0;
#X connect 16 0 20 0;
#X connect 17 0 21 0;
#X connect 18 0 13 0;
#X connect 20 0 14 0;
#X restore 295 32 pd array;
#X obj 359 -23 loadbang;
#X obj 296 0 r glob-seline-close;
#X obj 25 -59 -~ 1;
#X obj 24 -35 *~ 592.957;
#X obj 33 18 +~ 4095;
#X obj 26 40 tabread4~ eline~;
#X text 191 -57 592.957 = -4096/ln(.001);
#X obj 90 9 scaler~ -1185.91 4095;
#X obj 78 84 tabread4~ eline~;
#X obj 71 119 +~ 1;
#X connect 0 0 11 0;
#X connect 1 0 13 0;
#X connect 2 0 6 0;
#X connect 4 0 3 0;
#X connect 6 0 1 1;
#X connect 6 0 16 0;
#X connect 7 0 4 0;
#X connect 9 0 8 0;
#X connect 10 0 8 0;
#X connect 11 0 12 0;
#X connect 12 0 1 0;
#X connect 13 0 14 0;
#X connect 14 0 7 0;
#X connect 16 0 17 0;
#X connect 17 0 18 0;
#X connect 18 0 4 1;
