#N canvas 595 358 622 404 10;
#X obj 27 -88 inlet~;
#X obj 30 -8 *~;
#X obj 110 -66 inlet~;
#X obj 30 203 outlet~;
#X obj 32 157 -~;
#X text 72 -90 cosine in (or another signal that goes from -1 to 1)
;
#X obj 93 -17 max~ 0;
#X obj 32 78 *~ 2;
#X obj 359 -23 loadbang;
#X obj 25 -59 -~ 1;
#X text 191 -57 592.957 = -4096/ln(.001);
#X obj 24 -35 *~ 592.667;
#X obj 33 18 +~ 4094;
#X obj 90 9 scaler~ -1185.33 4094;
#X obj 296 0 r glob-eline-close;
#X obj 252 16 t b b;
#N canvas 617 281 631 593 array 0;
#X obj 144 -140 inlet;
#X obj 220 -239 closebang;
#X msg 201 -138 1;
#X obj 163 32 s pd-\$0-eline;
#N canvas 495 421 450 300 \$0-eline 0;
#X restore 147 54 pd \$0-eline;
#X msg 164 4 obj 20 20 globeline;
#X obj 159 -88 v glob-eline-init;
#X msg 302 -30 \; glob-eline-close bang;
#X obj 292 -75 t b b;
#X obj 170 -62 sel 0;
#X obj 209 -39 + 1;
#X msg 329 -59 0;
#X obj 281 -141 v glob-eline-init;
#X obj 286 -121 == 1;
#X obj 286 -96 sel 0;
#X obj 230 -213 f;
#X obj 279 -171 sel 1;
#X obj 335 -113 v glob-eline-init;
#X obj 341 -89 - 1;
#X obj 397 -139 b;
#X connect 0 0 6 0;
#X connect 1 0 15 0;
#X connect 2 0 6 0;
#X connect 2 0 15 1;
#X connect 5 0 3 0;
#X connect 6 0 9 0;
#X connect 8 0 7 0;
#X connect 8 1 11 0;
#X connect 9 0 2 0;
#X connect 9 0 5 0;
#X connect 9 1 10 0;
#X connect 10 0 6 0;
#X connect 11 0 6 0;
#X connect 12 0 13 0;
#X connect 13 0 14 0;
#X connect 14 0 8 0;
#X connect 15 0 16 0;
#X connect 16 0 12 0;
#X connect 16 1 19 0;
#X connect 17 0 18 0;
#X connect 18 0 6 0;
#X connect 19 0 17 0;
#X restore 295 56 pd array;
#X obj 169 198 namecanvas \$0-waveshape;
#X obj 176 173 s \$0-waveshape;
#X obj 71 119 +~ 1;
#X msg 166 110 obj 26 40 tabread4~ eline \, obj 78 84 tabread4~ eline
\, connect 12 0 21 0 \, connect 21 0 7 0 \, connect 13 0 22 0 \, connect
22 0 19 0;
#X connect 0 0 9 0;
#X connect 1 0 12 0;
#X connect 2 0 6 0;
#X connect 4 0 3 0;
#X connect 6 0 1 1;
#X connect 6 0 13 0;
#X connect 7 0 4 0;
#X connect 8 0 15 0;
#X connect 9 0 11 0;
#X connect 11 0 1 0;
#X connect 14 0 16 0;
#X connect 15 0 20 0;
#X connect 15 1 16 0;
#X connect 19 0 4 1;
#X connect 20 0 18 0;
