#N canvas 577 242 575 347 10;
#X obj 27 -88 inlet~;
#X obj 27 8 *~;
#X obj 110 -66 inlet~;
#X obj 30 203 outlet~;
#X obj 27 -29 -~ 1;
#X obj 27 35 exp~;
#X obj 127 29 exp~;
#X obj 127 7 *~ -2;
#X obj 34 124 -~;
#X obj 77 31 sig~ 1;
#X obj 104 58 +~;
#X text 72 -90 cosine in (or another signal that goes from -1 to 1)
;
#X obj 93 -17 max~ 0;
#X obj 32 78 *~ 2;
#X connect 0 0 4 0;
#X connect 1 0 5 0;
#X connect 2 0 12 0;
#X connect 4 0 1 0;
#X connect 5 0 13 0;
#X connect 6 0 10 1;
#X connect 7 0 6 0;
#X connect 8 0 3 0;
#X connect 9 0 10 0;
#X connect 10 0 8 1;
#X connect 12 0 1 1;
#X connect 12 0 7 0;
#X connect 13 0 8 0;
