#N canvas 195 22 962 803 10;
#X obj 370 -374 inlet~;
#X obj 352 121 outlet~;
#X obj 361 -283 acos~;
#X obj 298 24 cos~;
#X obj 308 -71 *~;
#X obj 571 -234 inlet~;
#X obj 588 -179 wrap~;
#X obj 553 -156 -~;
#X obj 551 -65 1-0switch~;
#X obj 298 55 *~;
#X obj 414 32 cos~;
#X obj 414 63 *~;
#X obj 406 -50 *~;
#X obj 313 -41 wrap~;
#X obj 310 -16 *~ 2;
#X obj 413 -18 wrap~;
#X obj 410 7 *~ 2;
#X obj 388 -187 /~ 12.5564;
#X obj 492 -102 +~ 1;
#X obj 575 -210 max~ 1;
#X connect 0 0 2 0;
#X connect 2 0 17 0;
#X connect 3 0 9 0;
#X connect 4 0 13 0;
#X connect 5 0 19 0;
#X connect 6 0 7 1;
#X connect 6 0 8 0;
#X connect 6 0 11 1;
#X connect 7 0 4 1;
#X connect 7 0 18 0;
#X connect 8 0 9 1;
#X connect 9 0 1 0;
#X connect 10 0 11 0;
#X connect 11 0 1 0;
#X connect 12 0 15 0;
#X connect 13 0 14 0;
#X connect 14 0 3 0;
#X connect 15 0 16 0;
#X connect 16 0 10 0;
#X connect 17 0 4 0;
#X connect 17 0 12 0;
#X connect 18 0 12 1;
#X connect 19 0 7 0;
#X connect 19 0 6 0;
