#N canvas 359 56 450 300 10;
#X obj 177 139 weighted;
#X msg 133 94 clear;
#X obj 177 173 outlet;
#N canvas 267 109 450 300 take2 0;
#X obj 128 41 inlet;
#X obj 131 106 list split 2;
#X obj 115 233 outlet;
#X obj 140 135 t b l;
#X obj 165 78 list;
#X connect 0 0 1 0;
#X connect 1 0 3 0;
#X connect 1 1 4 1;
#X connect 3 0 4 0;
#X connect 3 1 2 0;
#X connect 4 0 1 0;
#X restore 210 86 pd take2;
#X obj 174 24 inlet;
#X obj 175 64 t b b l;
#X connect 0 0 2 0;
#X connect 1 0 0 0;
#X connect 3 0 0 0;
#X connect 4 0 5 0;
#X connect 5 0 1 0;
#X connect 5 1 0 0;
#X connect 5 2 3 0;
