#N canvas 440 88 950 563 10;
#X obj 413 21 inlet;
#X obj 608 252 random;
#X obj 179 85 route list dump clear rem;
#X obj 444 69 list;
#X obj 71 107 unpack f f;
#X obj 128 158 int;
#X obj 133 186 +;
#X msg 161 187 \$1;
#X obj 1 199 list;
#X obj 69 154 t b f;
#X obj 71 248 sel;
#X obj 69 220 list-dripdex;
#X obj -17 332 list prepend;
#X obj 0 260 f;
#X obj -4 297 spigot;
#X msg 28 278 1;
#X msg 69 270 0;
#X obj -60 402 list prepend;
#X msg -60 352 bang;
#X obj -60 372 f;
#X obj 437 146 list;
#X text 468 143 weights;
#X text 482 69 numbers;
#X obj -17 355 s \$0-tonumbers;
#X obj 51 310 r \$0-fromnumbers;
#X obj 445 93 s \$0-fromnumbers;
#X obj 467 47 r \$0-tonumbers;
#X obj 413 41 t a b;
#X obj 458 115 r \$0-toweights;
#X obj 439 171 s \$0-fromweights;
#X obj 10 381 r \$0-fromweights;
#X obj -61 423 s \$0-toweights;
#N canvas 721 228 484 387 add 0;
#X obj 228 37 inlet;
#X obj 47 33 inlet;
#X obj 333 34 inlet;
#X obj 84 90 f;
#X obj 144 111 r \$0-fromweights;
#X obj 85 151 list;
#X obj 85 198 list split;
#X obj 86 122 t b f;
#X obj 116 247 +;
#X obj 115 222 list split 1;
#X obj 120 278 list append;
#X obj 169 173 bang;
#X obj 85 308 list append;
#X obj 85 333 s \$0-toweights;
#X connect 0 0 3 1;
#X connect 1 0 3 0;
#X connect 2 0 8 1;
#X connect 3 0 7 0;
#X connect 4 0 5 1;
#X connect 5 0 6 0;
#X connect 6 0 12 0;
#X connect 6 1 9 0;
#X connect 7 0 5 0;
#X connect 7 1 6 1;
#X connect 7 1 11 0;
#X connect 8 0 10 0;
#X connect 9 0 8 0;
#X connect 9 1 10 1;
#X connect 10 0 12 1;
#X connect 11 0 10 1;
#X connect 12 0 13 0;
#X restore 78 290 pd add;
#X obj 162 164 -;
#X obj 17 178 r \$0-fromnumbers;
#X obj 545 519 outlet;
#X obj 204 197 t b b;
#X obj 207 253 list;
#X obj 206 273 list-drip;
#X obj 210 300 t f b;
#X obj 229 231 r \$0-fromnumbers;
#X obj 217 367 pack;
#X msg 234 421 total weight: 18 \, 42: 0 \, 45: 8 \, 44: 6 \, 22: 4
\,;
#X obj 237 321 list;
#X obj 258 297 r \$0-fromweights;
#X obj 240 343 list split 1;
#X msg 245 120 0;
#X obj 158 218 s \$0-count;
#X obj 602 169 r \$0-count;
#X obj 263 146 bang;
#X obj 264 167 s \$0-tonumbers;
#X obj 249 193 s \$0-toweights;
#X obj 357 215 list-dripdex;
#X obj 356 170 list;
#X msg 141 392 add2 \$1: \$2 \, addcomma;
#X obj 353 138 t b f;
#X obj 357 241 sel;
#N canvas 825 490 450 300 rem 0;
#X obj 39 31 inlet;
#X obj 177 33 inlet;
#X obj 268 199 s \$0-sub;
#X obj 272 24 inlet;
#X obj 85 75 list;
#X obj 95 105 list split;
#X obj 128 130 list split 1;
#X obj 102 175 list append;
#X obj 231 120 list;
#X obj 241 150 list split;
#X obj 274 175 list split 1;
#X obj 273 87 r \$0-fromweights;
#X obj 247 221 list append;
#X obj 255 246 s \$0-toweights;
#X obj 108 202 s \$0-tonumbers;
#X connect 0 0 4 0;
#X connect 0 0 8 0;
#X connect 1 0 5 1;
#X connect 1 0 9 1;
#X connect 3 0 4 1;
#X connect 4 0 5 0;
#X connect 5 0 7 0;
#X connect 5 1 6 0;
#X connect 6 1 7 1;
#X connect 7 0 14 0;
#X connect 8 0 9 0;
#X connect 9 0 12 0;
#X connect 9 1 10 0;
#X connect 10 0 2 0;
#X connect 10 1 12 1;
#X connect 11 0 8 1;
#X connect 12 0 13 0;
#X restore 357 264 pd rem;
#X obj 162 125 r \$0-sub;
#X obj 357 193 t l l;
#X obj 163 144 swap;
#X obj 577 251 list;
#X msg 295 398 set \, add2 total weight: \$1 \, addcomma;
#X obj 295 372 f;
#X obj 328 331 r \$0-count;
#X obj 557 160 bang;
#X obj 589 334 -;
#X obj 561 204 sel 0;
#X obj 566 185 f;
#X msg 492 229 no weights;
#X obj 470 255 print weighted;
#X obj 587 308 swap;
#X obj 593 357 < 0;
#X obj 593 379 sel 1;
#X obj 593 400 once;
#X obj 577 227 t b b;
#X obj 577 278 list-dripdex;
#X obj 600 458 list-nth;
#X obj 610 434 list;
#X obj 409 518 outlet;
#X obj 636 406 r \$0-fromnumbers;
#X obj 123 136 abs;
#X connect 0 0 27 0;
#X connect 1 0 71 1;
#X connect 2 0 4 0;
#X connect 2 1 36 0;
#X connect 2 2 46 0;
#X connect 2 2 49 0;
#X connect 2 3 55 0;
#X connect 2 4 65 0;
#X connect 3 0 25 0;
#X connect 3 0 53 1;
#X connect 4 0 9 0;
#X connect 4 1 15 0;
#X connect 4 1 81 0;
#X connect 5 0 6 0;
#X connect 5 0 19 1;
#X connect 5 0 32 2;
#X connect 6 0 7 0;
#X connect 7 0 6 1;
#X connect 7 0 47 0;
#X connect 7 0 60 1;
#X connect 8 0 11 0;
#X connect 9 0 8 0;
#X connect 9 1 10 1;
#X connect 9 1 13 1;
#X connect 10 0 16 0;
#X connect 10 0 32 0;
#X connect 11 0 10 0;
#X connect 11 1 32 1;
#X connect 11 2 13 0;
#X connect 12 0 23 0;
#X connect 13 0 14 0;
#X connect 14 0 12 0;
#X connect 14 0 18 0;
#X connect 15 0 14 1;
#X connect 16 0 14 1;
#X connect 17 0 31 0;
#X connect 18 0 19 0;
#X connect 19 0 17 0;
#X connect 20 0 29 0;
#X connect 20 0 61 1;
#X connect 24 0 12 1;
#X connect 26 0 3 1;
#X connect 27 0 2 0;
#X connect 27 1 3 0;
#X connect 27 1 20 0;
#X connect 28 0 20 1;
#X connect 30 0 17 1;
#X connect 33 0 7 0;
#X connect 34 0 8 1;
#X connect 36 0 37 0;
#X connect 36 1 63 0;
#X connect 37 0 38 0;
#X connect 38 0 39 0;
#X connect 38 1 42 0;
#X connect 39 0 41 0;
#X connect 39 1 43 0;
#X connect 40 0 37 1;
#X connect 41 0 54 0;
#X connect 42 0 35 0;
#X connect 43 0 45 0;
#X connect 44 0 43 1;
#X connect 45 0 41 1;
#X connect 45 1 43 1;
#X connect 46 0 7 0;
#X connect 48 0 1 1;
#X connect 48 0 68 1;
#X connect 49 0 50 0;
#X connect 49 0 51 0;
#X connect 52 0 56 0;
#X connect 52 1 57 1;
#X connect 53 0 59 0;
#X connect 54 0 42 0;
#X connect 55 0 53 0;
#X connect 55 1 56 1;
#X connect 56 0 57 0;
#X connect 58 0 60 0;
#X connect 59 0 52 0;
#X connect 59 1 57 2;
#X connect 60 0 33 0;
#X connect 60 1 33 1;
#X connect 61 0 76 0;
#X connect 62 0 42 0;
#X connect 63 0 62 0;
#X connect 64 0 63 1;
#X connect 65 0 68 0;
#X connect 66 0 71 1;
#X connect 66 0 72 0;
#X connect 67 0 69 0;
#X connect 67 1 75 0;
#X connect 68 0 67 0;
#X connect 69 0 70 0;
#X connect 71 0 66 0;
#X connect 71 1 66 1;
#X connect 72 0 73 0;
#X connect 73 0 74 0;
#X connect 74 0 78 0;
#X connect 75 0 61 0;
#X connect 75 1 1 0;
#X connect 75 1 74 1;
#X connect 76 0 71 0;
#X connect 76 1 77 1;
#X connect 77 0 79 0;
#X connect 78 0 77 0;
#X connect 80 0 78 1;
#X connect 81 0 5 0;
