#N canvas 353 134 780 471 10;
#X msg 356 82 dump;
#X msg 370 18 rem 44;
#X msg 166 89 bang;
#X msg 188 9 22 1;
#X msg 370 62 clear;
#X msg 371 38 rem 22;
#X text 395 80 dump information;
#X text 421 60 clear everything;
#X text 446 21 remove a specific number;
#X text 75 90 pick a number;
#X obj 274 104 weighted;
#X msg 238 34 42 0;
#X msg 124 110 pluto;
#X floatatom 272 126 5 0 0 0 - - -;
#X obj 320 128 print;
#X text 225 16 this won't do anything;
#X text 30 8 set probability for 22;
#X text 19 31 add probability for 45;
#X text 26 51 negatives clipped to 0;
#X msg 156 31 add 45 4;
#X msg 179 51 45 -6;
#X text 100 194 weighted probability set: takes lists of numbers to
set \, it will add a weighting to a number with the message add. anything
but a these selectors will trigger weighted to output the randomly
selected number. weighting is only in integers.;
#X msg 247 76 0 6;
#X connect 0 0 10 0;
#X connect 1 0 10 0;
#X connect 2 0 10 0;
#X connect 3 0 10 0;
#X connect 4 0 10 0;
#X connect 5 0 10 0;
#X connect 10 0 13 0;
#X connect 10 1 14 0;
#X connect 11 0 10 0;
#X connect 12 0 10 0;
#X connect 19 0 10 0;
#X connect 20 0 10 0;
#X connect 22 0 10 0;
