#N canvas 283 77 550 429 10;
#X obj 123 264 sampphase~;
#X obj 198 21 inlet;
#X obj 156 20 inlet~;
#X obj 123 88 sig~;
#X obj 124 46 loadbang;
#X obj 124 68 samplerate~;
#X obj 138 117 /~;
#X obj 165 177 +~ 1;
#X obj 138 140 int~;
#X obj 138 208 *~;
#X obj 165 207 *~;
#X obj 297 122 noise~;
#X obj 210 166 expr~ $v1 < $v2;
#X obj 297 144 scaler~ 0.5 0.5;
#X obj 211 186 1-0switch~;
#X obj 123 287 outlet~;
#X obj 123 240 /~;
#X connect 0 0 15 0;
#X connect 1 0 0 1;
#X connect 2 0 6 1;
#X connect 3 0 6 0;
#X connect 3 0 16 0;
#X connect 4 0 5 0;
#X connect 5 0 3 0;
#X connect 6 0 8 0;
#X connect 7 0 10 0;
#X connect 8 0 7 0;
#X connect 8 0 9 0;
#X connect 8 1 12 0;
#X connect 9 0 16 1;
#X connect 10 0 16 1;
#X connect 11 0 13 0;
#X connect 12 0 9 1;
#X connect 12 0 14 0;
#X connect 13 0 12 1;
#X connect 14 0 10 1;
#X connect 16 0 0 0;
