#N canvas 571 99 550 429 10;
#X obj 123 264 sampphase~;
#X obj 198 21 inlet;
#X obj 156 20 inlet~;
#X obj 364 54 loadbang;
#X obj 364 76 samplerate~;
#X obj 232 111 noise~;
#X obj 232 133 scaler~ 0.5 0.5;
#X obj 123 287 outlet~;
#X obj 138 140 modf~;
#X obj 206 294 outlet~;
#X obj 153 197 +~;
#X obj 306 295 outlet~;
#X obj 208 206 +~ 1;
#X obj 370 300 outlet~;
#X obj 210 166 >~;
#X obj 123 240 rover~;
#X obj 138 117 rover~;
#X obj 362 267 rover~;
#X obj 298 262 rover~;
#X connect 0 0 7 0;
#X connect 0 1 9 0;
#X connect 1 0 0 1;
#X connect 2 0 16 0;
#X connect 3 0 4 0;
#X connect 4 0 16 1;
#X connect 4 0 15 1;
#X connect 4 0 18 1;
#X connect 4 0 17 1;
#X connect 5 0 6 0;
#X connect 6 0 14 1;
#X connect 8 0 10 0;
#X connect 8 0 12 0;
#X connect 8 0 17 0;
#X connect 8 1 14 0;
#X connect 10 0 15 0;
#X connect 12 0 18 0;
#X connect 14 0 10 1;
#X connect 15 0 0 0;
#X connect 16 0 8 0;
#X connect 17 0 13 0;
#X connect 18 0 11 0;
