#N canvas 571 99 550 429 10;
#X obj 123 264 sampphase~;
#X obj 198 21 inlet;
#X obj 156 20 inlet~;
#X obj 123 88 sig~;
#X obj 124 46 loadbang;
#X obj 124 68 samplerate~;
#X obj 138 117 /~;
#X obj 297 122 noise~;
#X obj 297 144 scaler~ 0.5 0.5;
#X obj 123 287 outlet~;
#X obj 123 240 /~;
#X obj 138 140 modf~;
#X obj 206 294 outlet~;
#X obj 298 262 /~;
#X obj 332 208 dsrand~;
#X obj 153 197 +~;
#X obj 306 295 outlet~;
#X obj 208 206 +~ 1;
#X obj 362 267 /~;
#X obj 370 300 outlet~;
#X obj 210 166 >~;
#X connect 0 0 9 0;
#X connect 0 1 12 0;
#X connect 1 0 0 1;
#X connect 2 0 6 1;
#X connect 3 0 6 0;
#X connect 3 0 10 0;
#X connect 3 0 13 0;
#X connect 3 0 18 0;
#X connect 4 0 5 0;
#X connect 5 0 3 0;
#X connect 6 0 11 0;
#X connect 7 0 8 0;
#X connect 8 0 20 1;
#X connect 10 0 0 0;
#X connect 11 0 15 0;
#X connect 11 0 17 0;
#X connect 11 0 18 1;
#X connect 11 1 20 0;
#X connect 13 0 16 0;
#X connect 15 0 10 1;
#X connect 17 0 13 1;
#X connect 18 0 19 0;
#X connect 20 0 15 1;
