#N canvas 276 269 636 463 10;
#X obj 76 118 whitephase~;
#X text 53 1 like phasor~ \, but constrained to integer periods that
are distributed with noise~;
#X obj 32 204 outputc~;
#X msg 139 91 1;
#X text 128 45 set phase;
#X obj 74 74 signum~;
#X obj 223 119 dbgr~;
#X obj 374 95 dbgr~;
#X obj 296 102 dbgr~;
#X text 279 179 3rd outlet: low frequency;
#X text 281 211 4th: high frequency;
#X obj 164 190 -~;
#X obj 164 233 /~;
#X obj 189 208 -~;
#X obj 153 235 oscope~;
#X floatatom 69 30 5 0 0 0 - - -;
#X obj 75 54 mtof;
#X floatatom 201 69 9 0 0 0 - - -;
#X obj 45 163 cos~;
#X obj 353 228 oscope~;
#X text 309 159 2nd outlet: current frequency;
#X connect 0 0 18 0;
#X connect 0 1 6 0;
#X connect 0 1 11 0;
#X connect 0 2 8 0;
#X connect 0 2 11 1;
#X connect 0 2 13 1;
#X connect 0 3 7 0;
#X connect 0 3 13 0;
#X connect 3 0 0 1;
#X connect 5 0 0 0;
#X connect 11 0 12 0;
#X connect 12 0 14 0;
#X connect 13 0 12 1;
#X connect 15 0 16 0;
#X connect 16 0 5 0;
#X connect 16 0 17 0;
#X connect 18 0 2 0;
#X connect 18 0 2 1;
#X connect 18 0 19 0;
