#N canvas 854 145 558 461 10;
#X obj 34 -117 inlet;
#X obj 36 293 outlet;
#X obj 158 -101 inlet;
#X obj 196 -80 inlet;
#X text 209 180 0-padding;
#X obj 169 159 < 16;
#X obj 69 127 t f f;
#X obj 169 183 sel 1;
#X msg 169 208 0;
#X obj 69 164 makefilename %X;
#X obj 69 5 t l b;
#X msg 154 259 set \$1%s;
#X obj 36 267 symbol;
#X obj 69 64 int;
#X obj 69 240 makefilename;
#X msg 102 186 set #%s;
#X obj 69 35 list-abs/list-drip;
#X obj 154 238 t s;
#X obj 121 -27 pack \$1 \$2 \$3;
#X obj 69 97 clip 0 255;
#X obj 34 -77 route list bang float;
#X connect 0 0 20 0;
#X connect 2 0 18 1;
#X connect 3 0 18 2;
#X connect 5 0 7 0;
#X connect 6 0 9 0;
#X connect 6 1 5 0;
#X connect 7 0 8 0;
#X connect 8 0 14 0;
#X connect 9 0 14 0;
#X connect 10 0 16 0;
#X connect 10 1 15 0;
#X connect 11 0 14 0;
#X connect 12 0 1 0;
#X connect 13 0 19 0;
#X connect 14 0 12 1;
#X connect 14 0 17 0;
#X connect 15 0 14 0;
#X connect 16 0 13 0;
#X connect 16 1 12 0;
#X connect 17 0 11 0;
#X connect 18 0 10 0;
#X connect 19 0 6 0;
#X connect 20 0 10 0;
#X connect 20 1 18 0;
#X connect 20 2 18 0;
