#N canvas 355 68 579 556 10;
#X obj 55 120 smoother~;
#X obj 56 161 osc~;
#X msg 206 149 \$1 100;
#X floatatom 260 100 5 0 0 0 - - -, f 5;
#X text 243 207 a = index \, x = signal;
#X obj 207 175 line~;
#X obj 268 320 oscope~;
#X text 239 222 waveshaping: 1 / (1 + a^2(x + 1));
#X text 236 239 (1/2 angle formula in cauchy equation with cosx);
#X obj 134 410 outputc~;
#X obj 75 225 wscauchy~;
#X connect 0 0 1 0;
#X connect 1 0 10 0;
#X connect 2 0 5 0;
#X connect 3 0 2 0;
#X connect 5 0 10 1;
#X connect 10 0 6 0;
#X connect 10 0 9 1;
#X connect 10 0 9 0;
