#N canvas 253 100 582 420 10;
#X obj 90 74 osc~;
#X msg 171 64 \$1 100;
#X floatatom 180 45 5 0 0 1 factor - -;
#X text 337 140 waveshaping: e^(a(x - 1));
#X text 353 120 a = index \, x = signal;
#X text 92 290 no alias protection!;
#X obj 269 190 ./oscope~;
#X obj 172 90 line~;
#X text 264 16 from a waveshaping pd helpfile;
#X obj 89 33 ./smoother~;
#X obj 109 172 ./outputc~;
#X obj 108 139 ./wsexp~;
#X connect 0 0 11 0;
#X connect 1 0 7 0;
#X connect 2 0 1 0;
#X connect 7 0 11 1;
#X connect 9 0 0 0;
#X connect 11 0 6 0;
#X connect 11 0 10 1;
#X connect 11 0 10 0;
