#N canvas 402 87 586 367 10;
#X obj 42 130 osc~;
#X obj 27 40 mtof;
#X floatatom 24 15 5 0 0 0 - - - 0;
#X text 202 247 another one from the audio examples;
#X msg 194 62 0.125;
#X obj 119 67 / 50;
#X text 134 160 2nd inlet range from 0 - 0.25;
#X text 208 187 0- fully cosine shaping 1- fully sine waveshaping;
#X obj 172 138 ./operator~;
#X obj 60 161 ./wssincos~;
#X obj 27 87 ./smoother~;
#X obj 119 89 ./smoother~;
#X obj 194 89 ./smoother~;
#X obj 268 88 ./smoother~;
#X obj 60 198 ./outputc~;
#X obj 194 35 ./banger;
#X connect 0 0 9 0;
#X connect 1 0 5 0;
#X connect 1 0 10 0;
#X connect 2 0 1 0;
#X connect 4 0 12 0;
#X connect 4 0 13 0;
#X connect 5 0 11 0;
#X connect 8 0 9 1;
#X connect 9 0 14 0;
#X connect 9 0 14 1;
#X connect 10 0 0 0;
#X connect 11 0 8 0;
#X connect 12 0 8 1;
#X connect 13 0 8 2;
#X connect 15 0 4 0;
