#N canvas 144 104 450 300 10;
#X obj 87 36 inlet~;
#X obj 254 37 inlet~;
#X obj 155 205 outlet~;
#X obj 175 97 1-0switch;
#X obj 341 58 inlet;
#X obj 322 19 loadbang;
#X obj 294 58 f \$1;
#X obj 171 137 line~;
#X obj 153 169 *~;
#X obj 268 125 line~;
#X obj 240 146 *~;
#X obj 283 83 clip 0 1;
#X obj 281 106 pack f 50;
#X obj 175 118 pack f 50;
#X connect 0 0 8 0;
#X connect 1 0 10 0;
#X connect 3 0 13 0;
#X connect 4 0 11 0;
#X connect 5 0 6 0;
#X connect 6 0 11 0;
#X connect 7 0 8 1;
#X connect 8 0 2 0;
#X connect 9 0 10 1;
#X connect 10 0 2 0;
#X connect 11 0 3 0;
#X connect 11 0 12 0;
#X connect 12 0 9 0;
#X connect 13 0 7 0;
