#N canvas 144 104 450 300 10;
#X obj 87 36 inlet~;
#X obj 276 160 *~;
#X obj 268 116 1-0switch~;
#X obj 153 169 *~;
#X obj 254 37 inlet~;
#X obj 155 205 outlet~;
#X obj 277 198 outlet~;
#X connect 0 0 1 0;
#X connect 0 0 3 0;
#X connect 1 0 6 0;
#X connect 2 0 1 1;
#X connect 3 0 5 0;
#X connect 4 0 2 0;
#X connect 4 0 3 1;
