#N canvas 436 261 663 380 10;
#X msg 14 22 123 97 98 99 125 32 98 98 98 32 99 99 99 99 10;
#X obj 14 100 print ANY;
#X text 24 51 newline delimiter;
#X text 29 199 FUDI delimiter ( \; );
#X obj 14 322 print ANY;
#X obj 14 250 t a a;
#X obj 41 275 unpack f s;
#X floatatom 41 297 5 0 0 0 - - -;
#X symbolatom 98 298 10 0 0 0 - - -;
#X obj 385 146 print ANY;
#X msg 14 175 49 50 51 32 115 111 109 101 115 121 109 98 111 108 59
;
#X msg 391 70 111 32 112 105 101 99 101 115 59;
#X text 364 40 1);
#X text 365 71 2);
#X text 380 15 output is only triggered on delimiter char;
#X text 362 189 ------------------------------------------;
#X text 367 225 inlet0: list of ASCII codes;
#X text 333 344 License: GPL-2;
#X text 324 206 arg1 + inlet1: delimiter char (float);
#X text 361 179 bytes2any - convert ASCII list to atoms;
#X text 361 242 outlet0: atom list;
#X obj 92 103 unpack s s s;
#X symbolatom 89 127 10 0 0 0 - - -;
#X symbolatom 135 151 10 0 0 0 - - -;
#X symbolatom 160 126 10 0 0 0 - - -;
#X obj 385 119 bytes2any 59;
#X msg 385 40 99 117 116 32 105 110 116;
#X obj 14 222 bytes2any 59;
#X obj 14 73 bytes2any 10;
#X connect 0 0 28 0;
#X connect 5 0 4 0;
#X connect 5 1 6 0;
#X connect 6 0 7 0;
#X connect 6 1 8 0;
#X connect 10 0 27 0;
#X connect 11 0 25 0;
#X connect 21 0 22 0;
#X connect 21 1 23 0;
#X connect 21 2 24 0;
#X connect 25 0 9 0;
#X connect 26 0 25 0;
#X connect 27 0 5 0;
#X connect 28 0 1 0;
#X connect 28 0 21 0;
