#N canvas 311 252 720 579 10;
#X obj 50 19 inlet~;
#X obj 64 64 clip~ -1 1;
#X obj 239 -4 inlet~;
#X obj 70 184 abs~;
#X obj 67 403 outlet~;
#X obj 72 208 pow~;
#X obj 50 286 -~;
#X obj 71 377 /~;
#X obj 187 184 -~ 1;
#X obj 235 19 max~ 1.0001;
#X text 308 91 the way I did this was to set the derivative at x=1
to 0 since the derivative at 0 would be positive and I wanted to use
exponentials \, I set the derivative to 1 less than the degree of polynomial
\, then took the negative version of it \, then added 1 because this
will alsways equal 0 at x = 1 then I integrated and normalized so when
x = 1 f(x) = 1;
#X obj 128 219 sgn~;
#X obj 68 250 *~;
#X obj 33 238 *~;
#X connect 0 0 1 0;
#X connect 1 0 3 0;
#X connect 1 0 11 0;
#X connect 1 0 13 0;
#X connect 2 0 9 0;
#X connect 3 0 5 0;
#X connect 5 0 12 0;
#X connect 6 0 7 0;
#X connect 7 0 4 0;
#X connect 8 0 7 1;
#X connect 9 0 8 0;
#X connect 9 0 5 1;
#X connect 9 0 13 1;
#X connect 11 0 12 1;
#X connect 12 0 6 1;
#X connect 13 0 6 0;
