#N canvas 437 42 600 523 10;
#X obj 25 -5 inlet~;
#X obj 24 21 abs~;
#X obj 125 139 wrap~;
#X obj 110 169 -~;
#X obj 128 83 >~ 0;
#X obj 103 112 *~;
#X obj 184 110 1-0switch~;
#X obj 166 137 *~;
#X obj 197 156 wrap~;
#X obj 193 176 1-0switch~;
#X obj 169 196 +~;
#X obj 104 58 log~ 10;
#X obj 149 30 sig~ 10;
#X obj 123 229 expr~ pow(10 \, 5-$v1);
#X obj 219 17 ==~ 0;
#X obj 220 39 *~ 1000;
#X obj 103 199 wrap~;
#X obj 88 229 -~;
#X obj 52 278 *~;
#X obj 104 278 *~;
#X obj 71 323 -~;
#X obj 85 430 /~;
#X obj 84 459 outlet~;
#X obj 114 384 wrap~;
#X obj 88 406 -~;
#X obj 75 364 +~ 0.5;
#X connect 0 0 1 0;
#X connect 1 0 11 0;
#X connect 1 0 14 0;
#X connect 1 0 16 0;
#X connect 1 0 17 0;
#X connect 1 0 18 0;
#X connect 2 0 3 1;
#X connect 3 0 13 0;
#X connect 4 0 5 1;
#X connect 4 0 6 0;
#X connect 5 0 3 0;
#X connect 5 0 2 0;
#X connect 6 0 7 1;
#X connect 6 0 2 0;
#X connect 7 0 8 0;
#X connect 7 0 10 0;
#X connect 8 0 9 0;
#X connect 9 0 10 1;
#X connect 10 0 13 0;
#X connect 11 0 4 0;
#X connect 11 0 5 0;
#X connect 11 0 7 0;
#X connect 12 0 11 1;
#X connect 13 0 18 1;
#X connect 13 0 19 1;
#X connect 13 0 21 1;
#X connect 14 0 15 0;
#X connect 14 0 16 0;
#X connect 15 0 4 0;
#X connect 15 0 7 0;
#X connect 15 0 5 0;
#X connect 16 0 17 1;
#X connect 17 0 19 0;
#X connect 18 0 20 0;
#X connect 19 0 20 1;
#X connect 20 0 25 0;
#X connect 21 0 22 0;
#X connect 23 0 24 1;
#X connect 24 0 21 0;
#X connect 25 0 23 0;
#X connect 25 0 24 0;
