#N canvas 247 67 834 539 10;
#X obj 102 272 rzero~ 1;
#X obj 104 297 <~ 0;
#X obj 377 420 cup;
#X obj 475 282 metro 1000;
#X obj 337 271 metro;
#X obj 363 444 f;
#X obj 389 365 t b b;
#X obj 312 364 sel 1;
#X obj 379 253 stoms;
#X obj 342 300 iterate 64;
#X msg 378 232 64;
#X obj 334 181 loadbang;
#X msg 379 387 0;
#X obj 105 241 inlet~;
#X obj 340 208 t b b;
#X obj 582 402 block~ 64;
#X obj 502 363 table \$0-phasorbang 64;
#X obj 311 338 tabread \$0-phasorbang;
#X obj 348 512 outlet;
#X obj 254 458 outlet;
#X obj 589 232 if 0 1000;
#X obj 362 466 *;
#X msg 531 305 1000 \$1;
#X obj 534 331 /;
#X obj 571 140 inlet;
#X obj 108 336 tabsend~ \$0-phasorbang;
#X obj 617 199 route float;
#X obj 668 234 bang;
#X obj 463 249 spigot 1;
#X msg 499 225 0;
#X obj 630 169 list append \$1;
#X obj 320 390 spigot 1;
#X text 162 270 <-- from mmb/phasorcount~;
#X connect 0 0 1 0;
#X connect 1 0 25 0;
#X connect 2 0 5 1;
#X connect 3 0 6 0;
#X connect 4 0 9 0;
#X connect 5 0 21 0;
#X connect 6 0 12 0;
#X connect 6 1 5 0;
#X connect 6 1 2 0;
#X connect 7 0 19 0;
#X connect 7 0 31 0;
#X connect 8 0 4 1;
#X connect 9 0 17 0;
#X connect 10 0 8 0;
#X connect 11 0 14 0;
#X connect 12 0 2 0;
#X connect 13 0 0 0;
#X connect 14 0 4 0;
#X connect 14 0 28 0;
#X connect 14 1 10 0;
#X connect 14 1 30 0;
#X connect 17 0 7 0;
#X connect 20 0 3 1;
#X connect 20 0 22 0;
#X connect 21 0 18 0;
#X connect 22 0 23 0;
#X connect 23 0 21 1;
#X connect 24 0 20 0;
#X connect 26 0 20 0;
#X connect 26 1 27 0;
#X connect 27 0 29 0;
#X connect 28 0 3 0;
#X connect 29 0 28 1;
#X connect 29 0 31 1;
#X connect 30 0 26 0;
#X connect 31 0 2 0;
