#N canvas 482 242 450 300 10;
#X text 85 97 audio version of fract;
#X obj 302 93 wrap~;
#X obj 241 97 fract~;
#X obj 262 23 signum~ 34.4;
#X msg 117 163 \; pd dsp 1;
#X obj 231 126 dbgr~;
#X obj 310 131 dbgr~;
#X text 23 124 see fract-help.pd;
#X text 113 219 also very expensive;
#X connect 1 0 6 0;
#X connect 2 0 5 0;
#X connect 3 0 1 0;
#X connect 3 0 2 0;
