#N canvas 291 291 1001 510 10;
#X obj 462 -28 initbang;
#X msg 637 203 obj 81 370 route 0 1;
#X msg 577 136 add2 \$1;
#X obj 566 88 until;
#X obj 515 136 cup;
#X obj 505 113 until;
#X obj 524 186 + 75;
#X obj 522 161 * 70;
#N canvas 915 442 450 300 objectcount 0;
#X obj 109 47 iemguts/canvasindex;
#X obj 107 21 inlet;
#X obj 207 94 outlet;
#X connect 0 1 2 0;
#X connect 1 0 0 0;
#X restore 628 77 pd objectcount;
#X obj 431 98 cup;
#X obj 443 77 until;
#X obj 459 -1 t b b b b b;
#X obj 577 110 cup;
#X obj 434 186 pack f f f;
#X obj 460 165 +;
#X obj 570 169 t b b;
#X obj 573 205 f;
#X msg 398 214 connect \$3 \$1 \$2 0;
#X obj 430 123 t f f;
#X obj 453 145 + 1;
#X msg 521 46 0;
#X obj 553 47 f;
#X obj 508 74 f;
#X obj 456 22 f;
#X msg 460 262 obj \$1 394 outlet;
#X obj 167 173 sel 1;
#X obj 172 199 once;
#X obj 172 73 list-dripdex;
#X obj 203 47 random 1000;
#X obj 568 0 dollarg;
#X obj 748 3 sel 0;
#X obj 762 55 print percents;
#X msg 752 29 need arguments!;
#X msg 594 54 0;
#X obj 172 225 f;
#X obj 166 -15 inlet;
#X obj 171 46 list;
#X obj 173 101 * 10;
#X obj 154 18 t b b b;
#X msg 272 103 0;
#X obj 161 253 f;
#X obj 311 -6 inlet;
#X msg 239 255 1;
#X obj 157 284 list prepend 0;
#X obj 491 359 namecanvas \$0-percents;
#X obj 583 298 s \$0-percents;
#X obj 409 130 + 1;
#X obj 400 163 f;
#X obj 139 191 f;
#X obj 141 224 + 1;
#X msg 637 176 set obj 81 370 route;
#X msg 145 113 0;
#X msg 132 90 1;
#X obj 723 50 + 1;
#X obj 177 131 >;
#X obj 160 319 route 1 0;
#X obj 129 144 f;
#X obj 103 169 sel 0 1;
#X msg 398 241 connect 55 0 \$1 0;
#X msg 571 237 connect 55 1 \$1 0;
#X connect 0 0 11 0;
#X connect 1 0 45 0;
#X connect 2 0 1 0;
#X connect 3 0 12 0;
#X connect 4 0 7 0;
#X connect 5 0 4 0;
#X connect 6 0 24 0;
#X connect 7 0 6 0;
#X connect 8 0 16 1;
#X connect 8 0 13 2;
#X connect 8 0 14 1;
#X connect 8 0 46 0;
#X connect 9 0 18 0;
#X connect 10 0 9 0;
#X connect 11 0 23 0;
#X connect 11 0 47 0;
#X connect 11 1 22 0;
#X connect 11 2 15 0;
#X connect 11 3 21 0;
#X connect 11 4 8 0;
#X connect 11 4 20 0;
#X connect 11 4 50 0;
#X connect 11 4 33 0;
#X connect 11 4 29 0;
#X connect 12 0 2 0;
#X connect 13 0 17 0;
#X connect 14 0 13 1;
#X connect 15 0 16 0;
#X connect 15 1 1 0;
#X connect 16 0 59 0;
#X connect 17 0 45 0;
#X connect 18 0 13 0;
#X connect 18 1 19 0;
#X connect 19 0 14 0;
#X connect 20 0 4 0;
#X connect 20 0 9 0;
#X connect 21 0 3 0;
#X connect 22 0 5 0;
#X connect 23 0 10 0;
#X connect 24 0 45 0;
#X connect 25 0 26 0;
#X connect 26 0 34 0;
#X connect 26 0 51 0;
#X connect 27 0 37 0;
#X connect 27 1 34 1;
#X connect 27 1 48 1;
#X connect 28 0 54 1;
#X connect 29 0 36 1;
#X connect 29 1 30 0;
#X connect 30 0 32 0;
#X connect 30 1 53 0;
#X connect 32 0 31 0;
#X connect 33 0 12 0;
#X connect 34 0 40 1;
#X connect 35 0 38 0;
#X connect 36 0 27 0;
#X connect 37 0 54 0;
#X connect 38 0 56 0;
#X connect 38 1 36 0;
#X connect 38 2 28 0;
#X connect 38 2 39 0;
#X connect 38 2 52 0;
#X connect 38 2 26 1;
#X connect 39 0 48 1;
#X connect 39 0 40 1;
#X connect 40 0 43 0;
#X connect 41 0 36 1;
#X connect 41 0 42 0;
#X connect 42 0 43 1;
#X connect 43 0 55 0;
#X connect 46 0 47 1;
#X connect 47 0 58 0;
#X connect 48 0 49 0;
#X connect 49 0 40 0;
#X connect 50 0 1 0;
#X connect 51 0 56 1;
#X connect 52 0 56 1;
#X connect 53 0 23 1;
#X connect 53 0 21 1;
#X connect 53 0 22 1;
#X connect 54 0 25 0;
#X connect 56 0 57 0;
#X connect 57 0 40 0;
#X connect 57 1 48 0;
#X connect 58 0 45 0;
#X connect 59 0 45 0;
