#N canvas 0 22 450 300 10;
#N canvas 455 227 450 300 delwriter 0;
#X obj 120 63 inlet~;
#X obj 120 156 delwrite~ \$0-delay 5;
#X obj 129 195 outlet~;
#X connect 0 0 1 0;
#X restore 168 136 pd delwriter;
#N canvas 423 156 450 300 delreader 0;
#X obj 140 54 inlet~;
#X obj 139 228 outlet~;
#X obj 261 63 inlet;
#X obj 152 151 delread~ \$0-delay;
#X connect 2 0 3 0;
#X connect 3 0 1 0;
#X restore 180 168 pd delreader;
#X obj 179 91 inlet~;
#X obj 179 210 outlet~;
#X obj 309 25 loadbang;
#X obj 314 66 f \$1;
#X obj 304 99 if 0 1;
#X obj 301 133 stoms;
#X obj 367 33 inlet;
#X connect 0 0 1 0;
#X connect 1 0 3 0;
#X connect 2 0 0 0;
#X connect 4 0 5 0;
#X connect 5 0 6 0;
#X connect 6 0 7 0;
#X connect 7 0 1 1;
#X connect 8 0 5 0;
