#N canvas 334 118 547 339 10;
#X floatatom 289 167 5 0 0 0 - - -;
#X obj 348 121 bng 15 250 50 0 empty empty empty 17 7 0 10 -262144
-1 -1;
#X text 368 119 reset;
#X obj 286 141 streamdiff;
#X msg 216 107 1 \, 2 \, 3;
#X msg 273 66 1 \, 2 \, 3 \, 4;
#X msg 318 31 2 \, 3;
#X msg 357 66 4 \, 4 \, 4;
#X msg 231 50 2;
#X msg 263 43 3;
#X msg 254 28 1;
#X text 26 218 tells how many numbers are being repeated \, you need
to wait until one would appear again in order to tell. for instance
if a stream has 1 \, 2 \, 3 \, 4 and you take away the 4 streamdiff
obviously can't tell until the 4 would be there;
#X connect 1 0 3 1;
#X connect 3 0 0 0;
#X connect 4 0 3 0;
#X connect 5 0 3 0;
#X connect 6 0 3 0;
#X connect 7 0 3 0;
#X connect 8 0 3 0;
#X connect 9 0 3 0;
#X connect 10 0 3 0;
