#N canvas 252 213 775 560 10;
#X obj 140 288 *~;
#X obj 142 365 outlet~;
#X obj 294 75 inlet~;
#X obj 91 13 inlet~;
#X obj 140 199 +~;
#X obj 140 226 -~ 1;
#X obj 385 61 inlet~;
#X obj 159 331 +~;
#X obj 101 42 +~ 0.5;
#X obj 101 68 wrap~;
#X text 418 97 like operatord~ \, but for a triangle wave;
#X obj 201 83 1-0switch~;
#X obj 201 110 scaler~ 4 -2;
#X obj 113 99 scaler~ 4 -2;
#X obj 212 140 max~ 0;
#X obj 113 159 max~ 0;
#X connect 0 0 7 0;
#X connect 2 0 0 1;
#X connect 3 0 8 0;
#X connect 4 0 5 0;
#X connect 5 0 0 0;
#X connect 6 0 7 1;
#X connect 7 0 1 0;
#X connect 8 0 9 0;
#X connect 9 0 11 0;
#X connect 9 0 13 0;
#X connect 11 0 12 0;
#X connect 12 0 14 0;
#X connect 13 0 15 0;
#X connect 14 0 4 1;
#X connect 15 0 4 0;
