#N canvas 424 199 606 299 10;
#X symbolatom 83 243 10 0 0 0 - - -;
#X obj 65 94 list-abs/list-math * 255;
#X obj 65 48 bng 15 250 50 0 empty empty empty 17 7 0 10 -262144 -1
-1;
#X floatatom 93 150 5 0 0 0 - - -;
#X floatatom 152 152 5 0 0 0 - - -;
#X floatatom 27 160 5 0 0 0 - - -;
#X obj 65 71 hcs/colorpanel;
#X obj 139 176 t b f;
#X obj 94 172 t b f;
#X obj 63 119 unpack f f f;
#X text 203 145 can also take a list of 3 values \, (ranged between
0 and 255);
#X obj 42 183 bng 15 250 50 0 empty empty empty 17 7 0 10 -262144 -1
-1;
#X text 229 203 and arguments to initialize;
#X msg 250 167 74 43 12;
#X obj 79 201 word2hex 12 208 143;
#X connect 1 0 9 0;
#X connect 2 0 6 0;
#X connect 3 0 8 0;
#X connect 4 0 7 0;
#X connect 5 0 14 0;
#X connect 6 0 1 0;
#X connect 7 0 14 0;
#X connect 7 1 14 2;
#X connect 8 0 14 0;
#X connect 8 1 14 1;
#X connect 9 0 5 0;
#X connect 9 1 3 0;
#X connect 9 2 4 0;
#X connect 11 0 14 0;
#X connect 13 0 14 0;
#X connect 14 0 0 0;
