#N canvas 145 40 757 706 12;
#X declare -path ../;
#X text 157 12 Signal Objects;
#X obj 22 46 1-0switch~;
#X text 118 46 switch 1 and 0;
#X obj 19 76 bilexnoise~;
#X text 121 76 bilateral exponential distribution at a certain frequency
;
#X obj 16 240 buzz~;
#X text 76 240 band-limited impulse;
#X obj 14 267 circle~;
#X text 85 266 make signal elipses and circles (complex sinusoids)
;
#X obj 18 302 cosinterp~;
#X text 105 299 use cosine to "interpolate" a signal;
#X obj 13 337 crusher~;
#X text 85 335 bit-crusher;
#X obj 14 370 dbgr~;
#X obj 15 403 delreadc~;
#X text 96 403 read from delwritec~ delay line;
#X obj 16 432 delwritec~;
#X obj 16 467 downsample~;
#X text 107 466 alias at a certain frequency;
#X obj 21 511 dsrand~;
#X text 85 504 gets triggers from input phasor~ like samphold~ and
pulls a new random number;
#X obj 16 553 egrains~;
#X text 249 4145 end;
#X obj 15 581 expline~;
#X text 90 582 exponential line~;
#X obj 21 616 fmod~;
#X text 85 617 interface to math.h fmod;
#X obj 19 653 freqshifter~;
#X text 120 653 this is basically the ssb-modulation example from the
help files;
#X obj 15 692 freqshifterd~;
#X text 124 692 same with phasor control;
#X obj 15 724 gainc~;
#X text 102 750 control pan and volume of a signal;
#X obj 16 812 gate~;
#X text 87 810 audio gate that uses threshold and outputs values for
line~;
#X obj 12 843 grainy~;
#X text 79 842 abstraction to assist in granular synthesis;
#X obj 17 906 hanning~;
#X text 96 908 hanning window from 0-1;
#X obj 21 942 highest~;
#X text 89 943 find the peak amplitude of a signal;
#X obj 25 1037 linnoise~;
#X text 102 1034 linear distribution at a certain frequency;
#X obj 24 1071 linterp~;
#X text 98 1068 linear interpolation on an audio signal;
#X obj 16 1102 meters~;
#X obj 28 1246 modf~;
#X text 79 1245 split integer and fractional parts;
#X obj 23 1277 modulator~;
#X text 117 1278 phase modulation abstraction that uses index;
#X obj 32 1303 moop~;
#X text 81 1303 buffer-reading external;
#X obj 29 1361 nead~;
#X obj 29 1387 neadsr~;
#X obj 29 1411 near~;
#X text 93 1378 exponential ad \, ar \, and adsr envelopes that have
adjustable linearity;
#X obj 34 1441 nrcombf~;
#X text 110 1438 non-recirculating comb filter;
#X obj 29 1472 operator~;
#X text 109 1469 sine oscillator with multiply and add;
#X obj 34 1506 operatord~;
#X text 120 1504 same with phasor~ control;
#X obj 32 1536 oscope~;
#X obj 18 1709 out~;
#X text 127 1716 dac~ with meters and recording;
#X obj 26 1900 outputc~;
#X text 125 1919 dac~ with gain \, dsp \, and recording control;
#X obj 30 2025 phasafor~;
#X text 104 2025 the phase-aligned formant generator from the examples
;
#X obj 27 2051 phasemod~;
#X text 107 2050 simple abstraction to help with phase modulation;
#X obj 34 2077 phasorator~;
#X text 129 2075 phasor~ with multiply and add;
#X obj 37 2108 pib~;
#X text 79 2109 gets the time into the current block in ms;
#X obj 33 2217 pitchshift~;
#X text 125 2217 the pitchshifter from the pd examples;
#X obj 40 2275 powclip~;
#X text 112 2310 line raised to a power;
#X obj 39 2309 powline~;
#X text 110 2276 waveshape/clipping function;
#X text 123 2334 pulse train example from the docs;
#X obj 34 2364 rcombf~;
#X text 91 2364 recirculating comb filter;
#X obj 28 2397 realpass~;
#X text 113 2394 allpass filter with real coefficients;
#X obj 20 2430 rectorator~;
#X text 119 2428 square wave with multiply and add;
#X obj 25 2462 rectoratord~;
#X text 123 2463 same \, controlled by phasor~;
#X obj 27 2500 repeater~;
#X text 112 2498 beat repeat with hold control and signal pitchshift
;
#X obj 25 2537 rexpline~;
#X text 111 2532 reverse exponential line~;
#X obj 27 2570 rminus~;
#X text 93 2568 compute arg/2nd inlet - signalinlet;
#X obj 37 2602 rover~;
#X text 87 2602 compute arg/2nd inlet / signalinlet;
#X obj 35 2678 sampbuf~;
#X text 111 2679 a wrapper to read soundfiles into arrays;
#X obj 26 2752 sampphase~;
#X text 109 2744 phasor~ that has an option to sample the frequency
at phase crossings;
#X obj 23 2796 scaler~;
#X text 93 2792 multiply and add to a signal;
#X obj 21 2834 shadylook~;
#X text 111 2828 look up cauchy \, gaussian \, or reverse exponential
functions with a signal;
#X text 105 2882 sample-and-held noise at signalinlet frequency (building
block of other signal-rate nosie objects);
#X obj 26 2930 sigenv~;
#X text 97 2937 rms volume from pure data examples in the documentation
;
#X obj 29 3014 sin~;
#X text 93 3013 like [cos~] \, but for sin;
#X obj 23 3052 smoother~;
#X text 120 3055 number box + line~;
#X text 175 3344 write a stereo soundfile using writesf~;
#X text 106 3258 write a mono soundfile using writesf~;
#X obj 31 3378 srepeater~;
#X text 113 3377 simple beat-repeat that uses a recirculating delay
line;
#X obj 25 3413 switchnramp~;
#X text 118 3401 switch and ramp from Theory and Technique of Electronic
Music by Miller Puckette;
#X obj 24 3458 tabread4hs~;
#X text 116 3449 tabread4~ with hermite spline interpolation and signal
offset;
#X obj 25 3501 tcheb~;
#X text 92 3499 chebyshev polynomial waveshaper with signal control
for order;
#X obj 35 3715 transpose~;
#X text 121 3715 signal semitones-to-pitch ratio conversion;
#X obj 32 3745 triangulator~;
#X text 142 3746 triangle wave with multiply and addition;
#X text 143 3772 same \, controlled by phasor~;
#X text 79 3841 variable delay with hermite spline interpolation;
#X obj 27 3896 voisim~;
#X text 95 3894 vosim algorithm;
#X obj 27 3924 volpan~;
#X text 97 3921 control the volume and pan of a mono signal with signals
;
#X obj 21 3966 wavepacket~;
#X obj 27 3839 vdhs~;
#X obj 34 4106 xfade~;
#X text 127 3962 taken from pd examples: F06 \, packets;
#X text 93 4033 from E06.exponential example: exponential waveshaping
;
#X obj 28 4001 wscauchy~;
#X text 109 3992 started as F03 pulse.spectrum example (cauchy waveshaping)
\, but used 1/2 angle formula;
#X text 102 4072 E.07 evenodd example: even-odd waveshaping;
#X obj 32 4069 wssincos~;
#X obj 31 4038 wsexp~;
#X obj 23 3196 sndfwritem~;
#X obj 21 3095 sndfread~;
#X obj 21 3280 sndfwrites~;
#X obj 30 2335 pthng~;
#X text 87 3157 GUI wrapper to read a stereo soundfile using readsf~
;
#X obj 23 212 bpbuzz~;
#X text 90 210 bipolar band-limited impulse with duty cycle control
;
#X obj 26 134 blsaw~;
#X obj 25 162 blsqr~;
#X obj 23 186 blsqri~;
#X text 82 131 band-limited sawtooth wave;
#X text 85 161 band-limited square wave;
#X text 108 185 combined bandlimited square/triangle wave;
#X obj 30 2714 sampbufs~;
#X text 110 2714 same \, but stereo;
#X text 89 553 simple wrapper for grainy~ granular synth for playback
;
#X obj 20 873 grainyback~;
#X text 108 871 piggybacks onto egrains~ for another reader;
#X obj 39 2149 pinb~;
#X text 89 2150 puts out the current sample # in the block;
#X obj 36 2180 pitchnoise~;
#X text 135 2179 pitched noise from Dodge & Jerse;
#X obj 353 24 declare -path ../;
#X obj 38 2641 rpowline~;
#X text 118 2643 reverse powline~;
#X obj 22 3774 triangulatord~;
#X obj 27 3803 trinoise~;
#X text 111 3801 triangular distribution of noise;
#X obj 24 2884 shnoise~;
#X obj 18 107 blsasqri~;
#X text 107 106 band-limited saw \, square \, and triangle waves;
#X obj 23 1006 lag~;
#X text 62 1004 lag an input value according to a pole value;
#X text 89 368 [dbgr~] - see what a signal's value is;
#X text 122 1122 [meters~] - meter audio signal;
#X text 254 1562 [oscope~] - oscilloscope with zoom;
#X obj 22 1330 multatord~;
#X text 105 1331 variable-wave low frequency oscillator wavetables
;
#X obj 23 974 javid~;
#X text 82 975 cubic approximation of sin~;
#X text 100 427 delay line with a "clear" method (and also to be used
with vdhs~);
#X obj 22 2970 siglinterp~;
#X text 113 2971 linearly interpolate between multiple inlets;
#X obj 26 1994 perlinterp~;
#X text 123 1995 perlin interpolation for noise values (use with shnoise~)
;
#X obj 18 3537 testar~;
#X text 302 3578 debugging array writer;
#X obj 35 2246 pitchshiftr~;
#X text 133 2247 pitchshift from delay line;
#X text 96 4107 cross-fade between 2 outlets;
#X obj 25 3867 velvet~;
#X text 87 3868 velvet noise generator;
